<svg id="a" xmlns="http://www.w3.org/2000/svg" xmlns:xlink="http://www.w3.org/1999/xlink" viewBox="0 0 981.69 723.64"><defs><linearGradient id="af" x1="389.16" y1="68.27" x2="385.71" y2="241.82" gradientTransform="translate(0 -3.26)" gradientUnits="userSpaceOnUse"><stop offset="0" stop-color="#53d8ff"/><stop offset="1" stop-color="#3840f7"/></linearGradient><linearGradient id="bk" x1="198.73" y1="352.18" x2="308.2" y2="374.5" gradientTransform="rotate(-4.42 -2268.572 -372.493) scale(.94 .81)" xlink:href="#b"/><linearGradient id="c" x1="1062.41" y1="-81.31" x2="278.35" y2="498.39" gradientTransform="matrix(1.03992 -.01289 .01252 1.00992 -106.23 160.77)" gradientUnits="userSpaceOnUse"><stop offset="0" stop-color="#b37cff"/><stop offset="1" stop-color="#f895e7"/></linearGradient><linearGradient id="d" x1="384.45" y1="-155.21" x2="517.06" y2="-155.21" gradientTransform="rotate(22.74 -227.753 136.137)" gradientUnits="userSpaceOnUse"><stop offset="0" stop-color="#a737d5"/><stop offset="1" stop-color="#ef497a"/></linearGradient><linearGradient id="e" x1="328.75" y1="-75.81" x2="383.52" y2="-75.81" gradientTransform="rotate(22.74 -227.753 136.137)" gradientUnits="userSpaceOnUse"><stop offset="0" stop-color="#a737d5"/><stop offset="1" stop-color="#ef497a"/></linearGradient><linearGradient id="f" x1="-4057.85" y1="3020.27" x2="-3800.76" y2="3382.74" gradientTransform="rotate(-77.2 -4183.68 1037.768)" gradientUnits="userSpaceOnUse"><stop offset="0" stop-color="#53d8ff"/><stop offset="1" stop-color="#3840f7"/></linearGradient><linearGradient id="g" x1="-4607.74" y1="491.72" x2="-4350.64" y2="854.18" gradientTransform="scale(-1 1) rotate(-77.2 -3390.32 43.943)" gradientUnits="userSpaceOnUse"><stop offset="0" stop-color="#53d8ff"/><stop offset="1" stop-color="#3840f7"/></linearGradient><linearGradient id="h" x1="407.05" y1="1338.38" x2="-786.95" y2="1121.15" gradientTransform="rotate(-12.77 -3341.885 2018.745)" gradientUnits="userSpaceOnUse"><stop offset="0" stop-color="#2b3582"/><stop offset="1" stop-color="#150e42"/></linearGradient><linearGradient id="i" x1="1350.99" y1="-307.7" x2="1690.75" y2="-640.93" gradientTransform="scale(-1 1) rotate(-4.24 -4197.923 16256.034)" gradientUnits="userSpaceOnUse"><stop offset="0" stop-color="#2b3582"/><stop offset="1" stop-color="#150e42"/></linearGradient><linearGradient id="j" x1="930.23" y1="848.69" x2="1091.89" y2="363.68" gradientTransform="rotate(-26.87 -1508.032 1431.86)" gradientUnits="userSpaceOnUse"><stop offset="0" stop-color="#2b3582"/><stop offset="1" stop-color="#150e42"/></linearGradient><linearGradient id="k" x1="501.32" y1="616.21" x2="574.42" y2="9.13" gradientTransform="rotate(22.74 -227.753 136.137)" gradientUnits="userSpaceOnUse"><stop offset="0" stop-color="#a737d5"/><stop offset="1" stop-color="#ef497a"/></linearGradient><linearGradient id="l" x1="179.32" y1="296.2" x2="817.7" y2="296.2" gradientTransform="matrix(1.02992 -.01258 .01197 .97993 -94.56 159.05)" gradientUnits="userSpaceOnUse"><stop offset="0" stop-color="#b37cff"/><stop offset="1" stop-color="#f895e7"/></linearGradient><linearGradient id="m" x1="947.84" y1="1526.43" x2="483.93" y2="1720.27" gradientTransform="rotate(-26.87 -1508.032 1431.86)" gradientUnits="userSpaceOnUse"><stop offset="0" stop-color="#2b3582"/><stop offset="1" stop-color="#150e42"/></linearGradient><linearGradient id="n" x1="-5192.84" y1="1093.7" x2="-5015.33" y2="1343.96" gradientTransform="scale(-1 1) rotate(-38.89 -5190.607 -3410.578)" gradientUnits="userSpaceOnUse"><stop offset="0" stop-color="#53d8ff"/><stop offset="1" stop-color="#3840f7"/></linearGradient><linearGradient id="o" x1="699" y1="1695.53" x2="899" y2="1695.53" gradientTransform="rotate(-26.87 -1508.032 1431.86)" gradientUnits="userSpaceOnUse"><stop offset="0" stop-color="#2b3582"/><stop offset="1" stop-color="#150e42"/></linearGradient><linearGradient id="p" x1="751.06" y1="667.44" x2="808.03" y2="431.29" gradientTransform="rotate(22.74 -227.753 136.137)" gradientUnits="userSpaceOnUse"><stop offset="0" stop-color="#a737d5"/><stop offset="1" stop-color="#ef497a"/></linearGradient><linearGradient id="q" x1="12807.17" y1="216.53" x2="12727.31" y2="262.11" gradientTransform="translate(-12430.06 -3.25)" gradientUnits="userSpaceOnUse"><stop offset="0" stop-color="#f9b776"/><stop offset="1" stop-color="#f47960"/></linearGradient><linearGradient id="r" x1="-5695.57" y1="-4037.63" x2="-5701.7" y2="-3943.64" gradientTransform="scale(-1 1) rotate(-26.18 6207.487 -13348.181)" gradientUnits="userSpaceOnUse"><stop offset="0" stop-color="#2b3582"/><stop offset="1" stop-color="#150e42"/></linearGradient><linearGradient id="s" x1="12799.44" y1="227.9" x2="13072.66" y2="56.86" gradientTransform="translate(-12430.06 -3.25)" gradientUnits="userSpaceOnUse"><stop offset="0" stop-color="#f9b776"/><stop offset="1" stop-color="#f47960"/></linearGradient><linearGradient id="t" x1="-4476.82" y1="-5643.85" x2="-4482.96" y2="-5549.86" gradientTransform="scale(-1 1) rotate(-37.86 6223.707 -8693.6)" gradientUnits="userSpaceOnUse"><stop offset="0" stop-color="#2b3582"/><stop offset="1" stop-color="#150e42"/></linearGradient><linearGradient id="u" x1="4900.67" y1="159.3" x2="4834.99" y2="231.27" gradientTransform="translate(-4598.36 -3.25)" gradientUnits="userSpaceOnUse"><stop offset="0" stop-color="#fdf53f"/><stop offset="1" stop-color="#d93c65"/></linearGradient><linearGradient id="v" x1="-9141.94" y1="-725.23" x2="-9122.32" y2="-675.97" gradientTransform="scale(-1 1) rotate(-19.17 -2392.965 -26548.702)" gradientUnits="userSpaceOnUse"><stop offset="0" stop-color="#2b3582"/><stop offset="1" stop-color="#150e42"/></linearGradient><linearGradient id="w" x1="12715.94" y1="129.5" x2="12527.69" y2="311.08" gradientTransform="translate(-12430.06 -3.25)" gradientUnits="userSpaceOnUse"><stop offset="0" stop-color="#fdf53f"/><stop offset="1" stop-color="#d93c65"/></linearGradient><linearGradient id="x" x1="-7151.33" y1="190.26" x2="-7071.78" y2="190.26" gradientTransform="matrix(-1 0 0 1 -6914.07 -3.25)" gradientUnits="userSpaceOnUse"><stop offset="0" stop-color="#f9b776"/><stop offset="1" stop-color="#f47960"/></linearGradient><linearGradient id="y" x1="-8940.85" y1="-487.93" x2="-8936.96" y2="-516.37" gradientTransform="scale(-1 1) rotate(-4.11 4266.498 -120999.76)" gradientUnits="userSpaceOnUse"><stop offset="0" stop-color="#f9b776"/><stop offset="1" stop-color="#f47960"/></linearGradient><linearGradient id="z" x1="-9140.7" y1="-2428.82" x2="-9104.09" y2="-2493.98" gradientTransform="scale(-1 1) rotate(-56.92 -2348.341 -9337.388)" gradientUnits="userSpaceOnUse"><stop offset="0" stop-color="#f9b776"/><stop offset="1" stop-color="#f47960"/></linearGradient><linearGradient id="aa" x1="-9132.85" y1="-2485.66" x2="-9114.54" y2="-2439.74" gradientTransform="scale(-1 1) rotate(-56.92 -2348.341 -9337.388)" gradientUnits="userSpaceOnUse"><stop offset="0" stop-color="#2b3582"/><stop offset="1" stop-color="#150e42"/></linearGradient><linearGradient id="ab" x1="-9132.9" y1="-2424.44" x2="-9096.28" y2="-2489.59" gradientTransform="scale(-1 1) rotate(-56.92 -2348.341 -9337.388)" gradientUnits="userSpaceOnUse"><stop offset="0" stop-color="#f9b776"/><stop offset="1" stop-color="#f47960"/></linearGradient><linearGradient id="ac" x1="-7192.22" y1="-37.89" x2="-7233.83" y2="-26.49" gradientTransform="scale(-1 1) rotate(-2.83 816.179 -140636.413)" gradientUnits="userSpaceOnUse"><stop offset="0" stop-color="#53d8ff"/><stop offset="1" stop-color="#3840f7"/></linearGradient><linearGradient id="ad" x1="4288.14" y1="182.63" x2="4662.4" y2="151.14" gradientTransform="matrix(-1 0 0 1 4637.04 -3.25)" gradientUnits="userSpaceOnUse"><stop offset="0" stop-color="#2b3582"/><stop offset="1" stop-color="#150e42"/></linearGradient><linearGradient id="ae" x1="-7229.14" y1="170.23" x2="-7242.54" y2="190.41" gradientTransform="matrix(-1 0 0 1 -6914.07 -3.25)" gradientUnits="userSpaceOnUse"><stop offset="0" stop-color="#53d8ff"/><stop offset="1" stop-color="#3840f7"/></linearGradient><linearGradient id="b" x1="13.55" y1="669.5" x2="1055.6" y2="-87.24" gradientTransform="matrix(1.02992 -.01258 .01197 .97993 -94.56 159.05)" gradientUnits="userSpaceOnUse"><stop offset="0" stop-color="#b37cff"/><stop offset="1" stop-color="#f895e7"/></linearGradient><linearGradient id="ag" x1="666.9" y1="975.44" x2="297.51" y2="1425.25" gradientTransform="rotate(-77.2 -4183.68 1037.768)" gradientUnits="userSpaceOnUse"><stop offset="0" stop-color="#53d8ff"/><stop offset="1" stop-color="#3840f7"/></linearGradient><linearGradient id="ah" x1="-4011.14" y1="3599.3" x2="-3820.96" y2="3871.43" gradientTransform="rotate(-77.2 -4183.68 1037.768)" gradientUnits="userSpaceOnUse"><stop offset="0" stop-color="#53d8ff"/><stop offset="1" stop-color="#3840f7"/></linearGradient><linearGradient id="ai" x1="237.21" y1="116.55" x2="361.62" y2="223.88" gradientTransform="matrix(-1 0 0 1 1077.47 -3.25)" gradientUnits="userSpaceOnUse"><stop offset="0" stop-color="#53d8ff"/><stop offset="1" stop-color="#3840f7"/></linearGradient><linearGradient id="aj" x1="-3305.48" y1="4776.3" x2="-3171" y2="4892.32" gradientTransform="rotate(-77.2 -4183.68 1037.768)" gradientUnits="userSpaceOnUse"><stop offset="0" stop-color="#53d8ff"/><stop offset="1" stop-color="#3840f7"/></linearGradient><linearGradient id="ak" x1="613.67" y1="327.14" x2="811.74" y2="367.54" gradientTransform="rotate(-4.42 -2268.572 -372.493) scale(.94 .81)" gradientUnits="userSpaceOnUse"><stop offset="0" stop-color="#b37cff"/><stop offset="1" stop-color="#f895e7"/></linearGradient><linearGradient id="al" x1="827.76" y1="398.74" x2="937.23" y2="421.06" gradientTransform="rotate(-4.42 -2268.572 -372.493) scale(.94 .81)" gradientUnits="userSpaceOnUse"><stop offset="0" stop-color="#b37cff"/><stop offset="1" stop-color="#f895e7"/></linearGradient><linearGradient id="am" x1="-2274.25" y1="316.51" x2="-2279.58" y2="584.86" gradientTransform="rotate(-77.2 -4183.68 1037.768)" gradientUnits="userSpaceOnUse"><stop offset="0" stop-color="#53d8ff"/><stop offset="1" stop-color="#3840f7"/></linearGradient><linearGradient id="an" x1="6641.24" y1="-3289.05" x2="6551.42" y2="-3343.49" gradientTransform="matrix(-.97492 -.22257 -.02835 .92694 6455.69 5180.45)" gradientUnits="userSpaceOnUse"><stop offset="0" stop-color="#ce1567"/><stop offset="1" stop-color="#7a1dbc"/></linearGradient><linearGradient id="ao" x1="4873.78" y1="-3534.44" x2="4764.8" y2="-3563.65" gradientTransform="matrix(-.97492 -.22257 -.02835 .92694 4777.03 4991.32)" gradientUnits="userSpaceOnUse"><stop offset="0" stop-color="#ce1567"/><stop offset="1" stop-color="#7a1dbc"/></linearGradient><linearGradient id="ap" x1="6634.56" y1="-3287.95" x2="6549.58" y2="-3339.45" gradientTransform="matrix(-.97492 -.22257 -.02835 .92694 6455.69 5180.45)" gradientUnits="userSpaceOnUse"><stop offset="0" stop-color="#ce1567"/><stop offset="1" stop-color="#7a1dbc"/></linearGradient><linearGradient id="aq" x1="-8221.48" y1="-2935.58" x2="-8182.17" y2="-2946.96" gradientTransform="rotate(12.86 -19904.471 35868.283)" gradientUnits="userSpaceOnUse"><stop offset="0" stop-color="#ce1567"/><stop offset="1" stop-color="#7a1dbc"/></linearGradient><linearGradient id="ar" x1="4850.78" y1="541.2" x2="4799.64" y2="604.07" gradientTransform="scale(-1 1) rotate(-7.16 1409.747 44268.596)" gradientUnits="userSpaceOnUse"><stop offset="0" stop-color="#f9b776"/><stop offset="1" stop-color="#f47960"/></linearGradient><linearGradient id="as" x1="-7848.77" y1="1553.4" x2="-7886.98" y2="1598.81" gradientTransform="rotate(16.22 372.094 31186.893)" gradientUnits="userSpaceOnUse"><stop offset="0" stop-color="#2b3582"/><stop offset="1" stop-color="#150e42"/></linearGradient><linearGradient id="at" x1="4782.41" y1="768.19" x2="4780.97" y2="945.34" gradientTransform="scale(-1 1) rotate(-7.16 1409.747 44268.596)" gradientUnits="userSpaceOnUse"><stop offset="0" stop-color="#fdf53f"/><stop offset="1" stop-color="#d93c65"/></linearGradient><linearGradient id="au" x1="-7904.05" y1="1633.77" x2="-7900.94" y2="1611.67" gradientTransform="rotate(16.22 372.094 31186.893)" gradientUnits="userSpaceOnUse"><stop offset="0" stop-color="#f9b776"/><stop offset="1" stop-color="#f47960"/></linearGradient><linearGradient id="av" x1="-7917.89" y1="1586.37" x2="-7888.77" y2="1619.85" gradientTransform="rotate(16.22 372.094 31186.893)" gradientUnits="userSpaceOnUse"><stop offset="0" stop-color="#f9b776"/><stop offset="1" stop-color="#f47960"/></linearGradient><linearGradient id="aw" x1="-7867.08" y1="1537.98" x2="-7905.3" y2="1583.4" gradientTransform="rotate(16.22 372.094 31186.893)" gradientUnits="userSpaceOnUse"><stop offset="0" stop-color="#2b3582"/><stop offset="1" stop-color="#150e42"/></linearGradient><linearGradient id="ax" x1="-7910.6" y1="1580.05" x2="-7881.49" y2="1613.53" gradientTransform="rotate(16.22 372.094 31186.893)" gradientUnits="userSpaceOnUse"><stop offset="0" stop-color="#f9b776"/><stop offset="1" stop-color="#f47960"/></linearGradient><linearGradient id="ay" x1="4672.2" y1="755.88" x2="4741.66" y2="633.27" gradientTransform="scale(-1 1) rotate(-.54 1535.282 574169.314)" gradientUnits="userSpaceOnUse"><stop offset="0" stop-color="#f9b776"/><stop offset="1" stop-color="#f47960"/></linearGradient><linearGradient id="az" x1="4687.26" y1="712.2" x2="4707.58" y2="712.2" gradientTransform="scale(-1 1) rotate(-.54 1535.282 574169.314)" gradientUnits="userSpaceOnUse"><stop offset="0" stop-color="#2b3582"/><stop offset="1" stop-color="#150e42"/></linearGradient><linearGradient id="ba" x1="4750.78" y1="664.95" x2="4646.89" y2="698.16" gradientTransform="scale(-1 1) rotate(-.54 1535.282 574169.314)" gradientUnits="userSpaceOnUse"><stop offset="0" stop-color="#f9b776"/><stop offset="1" stop-color="#f47960"/></linearGradient><linearGradient id="bb" x1="4706.09" y1="715.86" x2="4730.29" y2="715.86" gradientTransform="scale(-1 1) rotate(-.54 1535.282 574169.314)" gradientUnits="userSpaceOnUse"><stop offset="0" stop-color="#2b3582"/><stop offset="1" stop-color="#150e42"/></linearGradient><linearGradient id="bc" x1="4678.54" y1="122.02" x2="4670.37" y2="22.38" gradientTransform="scale(-1 1) rotate(-.54 1535.282 574169.314)" gradientUnits="userSpaceOnUse"><stop offset="0" stop-color="#cb236d"/><stop offset="1" stop-color="#4c246d"/></linearGradient><linearGradient id="bd" x1="4738.8" y1="636.16" x2="4854.03" y2="504.36" gradientTransform="scale(-1 1) rotate(-7.16 1409.747 44268.596)" gradientUnits="userSpaceOnUse"><stop offset="0" stop-color="#f9b776"/><stop offset="1" stop-color="#f47960"/></linearGradient><linearGradient id="be" x1="-1208.92" y1="467.34" x2="-1218.96" y2="481.51" gradientTransform="matrix(-1 0 0 1 -569.09 -3.25)" gradientUnits="userSpaceOnUse"><stop offset="0" stop-color="#f9b776"/><stop offset="1" stop-color="#f47960"/></linearGradient><linearGradient id="bf" x1="-1197.41" y1="459.47" x2="-1232.59" y2="509.1" gradientTransform="matrix(-1 0 0 1 -569.09 -3.25)" gradientUnits="userSpaceOnUse"><stop offset="0" stop-color="#2b3582"/><stop offset="1" stop-color="#150e42"/></linearGradient><linearGradient id="bg" x1="-1199.82" y1="461.91" x2="-1228.16" y2="501.89" gradientTransform="matrix(-1 0 0 1 -569.09 -3.25)" gradientUnits="userSpaceOnUse"><stop offset="0" stop-color="#fdf53f"/><stop offset="1" stop-color="#d93c65"/></linearGradient><linearGradient id="bh" x1="-1284.97" y1="879.53" x2="-1287.38" y2="882.92" gradientTransform="matrix(-.97919 -.20296 -.10757 .51897 -520.78 -256.32)" gradientUnits="userSpaceOnUse"><stop offset="0" stop-color="#8d55d1"/><stop offset="1" stop-color="#1c2873"/></linearGradient><linearGradient id="bi" x1="-1196.61" y1="464.63" x2="-1217.39" y2="493.96" gradientTransform="matrix(-1 0 0 1 -569.09 -3.25)" gradientUnits="userSpaceOnUse"><stop offset="0" stop-color="#f9b776"/><stop offset="1" stop-color="#f47960"/></linearGradient><linearGradient id="bj" x1="-15.36" y1="280.58" x2="182.71" y2="320.98" gradientTransform="rotate(-4.42 -2268.572 -372.493) scale(.94 .81)" xlink:href="#b"/><style>.bt,.bw{fill:#fff}.ck{opacity:.8}.bw{isolation:isolate;opacity:.6}.dl{opacity:.2}.dy{fill:#eac4f9}.dz{opacity:.54}</style></defs><path d="M963.92 314.06c-26.5-43.55-81.91-66.29-84.05-132.1-1.38-42.76 14.44-66.18-11.66-102.32C805.14-7.73 709.27-16.7 627.89 21.35 546.54 59.38 482 134.21 391.08 131.06c-49.52-1.71-95.79-29.44-144.84-34.06-15.11-1.42-29.19.19-42.34 4.46-49.27 16.01-92.31 74.11-108.07 138.19-12.77 51.95 4.79 102.8-15.6 153.78C58.51 447.77 15 485.92 4.59 548.45-7.9 623.49 43.52 687.86 98.04 689.11c34.7.8 98.92-6.82 128.12-33.12 35.54-32.01 70.79-34.59 112.63-33.99 79.63 1.15 159.46 21.66 238.2 35.94 67.47 12.24 134.04 30.85 202.3 32.35 50.14 1.1 92.67 1.31 119.09-64.86 31.58-79.1 121.09-220.02 65.51-311.37h.03z" style="fill:url(#b);opacity:.26;isolation:isolate"/><path d="M954.93 334.66c-25.22-39.6-78.01-60.26-80.02-120.11-1.31-38.89 13.77-60.19-11.08-93.05-60.06-79.43-151.37-87.55-228.91-52.92-77.5 34.62-139 102.7-225.61 99.87-47.17-1.54-91.24-26.74-137.96-30.92-14.39-1.29-27.81.18-40.33 4.07-46.94 14.58-87.95 67.44-102.98 125.72-12.18 47.25 4.53 93.48-14.9 139.86-20.71 49.43-62.17 84.14-72.09 141.01-11.91 68.25 37.05 126.77 88.98 127.89 33.05.71 94.24-6.25 122.05-30.17 33.87-29.13 67.44-31.49 107.3-30.95 75.85 1.02 151.89 19.63 226.89 32.59 64.27 11.11 127.68 28 192.7 29.34 47.75.98 88.28 1.16 113.46-59.04 30.1-71.95 115.4-200.14 62.49-283.2h.01z" style="opacity:.2;fill:url(#c);isolation:isolate"/><g style="opacity:.4"><path class="dy" d="M595.57 113.72c-.51 0-.97-.36-1.07-.88-.27-1.41-.58-2.81-.92-4.2-.14-.58.21-1.17.8-1.32.58-.14 1.17.21 1.32.8.35 1.43.67 2.88.94 4.31.11.59-.27 1.16-.86 1.28-.07.01-.14.02-.21.02zm-89.34 102.69h-.06c-3.04-.16-6.07-.47-9.08-.94-.59-.09-1-.65-.91-1.24.09-.59.65-1 1.24-.91 2.94.46 5.89.77 8.86.92.6.02 1.07.52 1.05 1.11-.02.6-.52 1.07-1.11 1.06h.01zm14.63-.47c-.54 0-1.02-.41-1.08-.96-.07-.6.36-1.14.95-1.21 2.94-.35 5.89-.85 8.77-1.5.58-.13 1.17.24 1.3.82.13.59-.24 1.17-.82 1.3-2.96.67-5.99 1.19-9 1.54h-.12zm-37.83-3.93c-.12 0-.23-.02-.35-.06-2.88-.97-5.74-2.1-8.49-3.37-.55-.25-.79-.9-.54-1.44.25-.55.9-.79 1.44-.54a84.31 84.31 0 0 0 8.28 3.28c.57.19.88.81.68 1.38-.15.45-.58.74-1.03.74h.01zm60.67-1.98c-.43 0-.83-.25-1.01-.67-.23-.56.03-1.19.59-1.42 2.73-1.13 5.43-2.42 8.03-3.83a1.09 1.09 0 0 1 1.48.44c.29.53.09 1.19-.44 1.48a90.054 90.054 0 0 1-8.24 3.93c-.14.06-.28.08-.42.08zm20.37-11.94c-.6 0-1.09-.49-1.09-1.1 0-.33.15-.65.41-.85 2.33-1.83 4.58-3.8 6.71-5.86a1.1 1.1 0 0 1 1.54.08c.38.42.37 1.06-.02 1.48a87.165 87.165 0 0 1-6.88 6c-.2.16-.44.23-.67.23v.02zm16.41-16.97c-.6 0-1.09-.49-1.09-1.09 0-.23.07-.45.21-.64 1.75-2.39 3.39-4.89 4.88-7.45.3-.52.97-.7 1.49-.39.52.3.7.97.39 1.49-1.54 2.63-3.2 5.18-5 7.64-.21.29-.54.45-.88.45zm11.2-20.8c-.6 0-1.09-.49-1.09-1.1 0-.13.02-.25.07-.37 1.03-2.77 1.93-5.63 2.66-8.49.15-.58.75-.93 1.33-.78s.93.75.78 1.33c-.76 2.94-1.68 5.87-2.73 8.71-.16.44-.58.71-1.02.71zm5.14-23.06h-.09c-.6-.05-1.04-.58-.99-1.18.2-2.38.3-4.8.3-7.19 0-.57 0-1.14-.02-1.71-.01-.6.47-1.1 1.07-1.11.64.02 1.1.47 1.11 1.07.06 3.05-.03 6.09-.29 9.13-.05.57-.52 1-1.08 1zm-134.96 64.12c-.22 0-.44-.07-.62-.19-1.21-.83-2.41-1.7-3.57-2.59-.48-.36-.57-1.05-.2-1.53.36-.48 1.05-.57 1.53-.2 1.13.87 2.31 1.71 3.48 2.52.5.34.62 1.02.28 1.51-.21.31-.55.47-.9.47zM425.31 143.61c-.53 0-.99-.38-1.07-.92-.23-1.45-.42-2.92-.58-4.37-.06-.6.37-1.13.97-1.2.6-.05 1.13.37 1.2.97.15 1.41.34 2.85.56 4.26.09.59-.31 1.15-.91 1.24h-.17v.02zm-.87-18.71h-.07c-.6-.04-1.06-.55-1.02-1.15.18-2.99.52-5.97 1-8.92.1-.59.66-1 1.25-.9s1 .66.9 1.25c-.48 2.88-.8 5.79-.98 8.71-.04.58-.52 1.02-1.09 1.02h.01zm4.49-22.81c-.6 0-1.09-.49-1.09-1.09 0-.12.02-.24.06-.35.96-2.82 2.09-5.63 3.34-8.34.25-.55.9-.79 1.44-.53.55.25.78.9.53 1.44a85.072 85.072 0 0 0-3.26 8.13c-.15.45-.58.74-1.03.74h.01zm10.42-20.77c-.21 0-.43-.06-.61-.19-.5-.34-.62-1.02-.28-1.51 1.68-2.46 3.52-4.86 5.45-7.14.4-.45 1.09-.5 1.54-.1.44.39.5 1.06.13 1.51a87.65 87.65 0 0 0-5.32 6.96c-.21.31-.55.47-.9.47h-.01zm15.58-17.23c-.31 0-.62-.13-.83-.39-.39-.46-.33-1.15.13-1.54 2.28-1.93 4.69-3.76 7.15-5.44.5-.34 1.18-.21 1.51.29.34.5.21 1.17-.28 1.51-2.4 1.64-4.75 3.42-6.97 5.3-.2.17-.45.26-.7.26h-.01zm95.64-10.67c-.17 0-.34-.04-.5-.12a82.876 82.876 0 0 0-7.97-3.63c-.56-.22-.83-.85-.61-1.41.22-.56.85-.83 1.41-.61 2.78 1.1 5.53 2.35 8.18 3.73.53.28.74.93.46 1.47-.19.37-.57.59-.97.59v-.02zm-76.05-1.79c-.41 0-.81-.23-.99-.63-.25-.55-.01-1.19.53-1.45 2.71-1.25 5.51-2.38 8.33-3.34.57-.2 1.19.11 1.38.68.2.57-.11 1.19-.68 1.38-2.75.94-5.49 2.04-8.13 3.26-.15.07-.3.1-.46.1h.02zm54.19-6.04c-.07 0-.15 0-.23-.02-2.67-.57-5.41-1.01-8.14-1.32l-.52-.06c-.6-.06-1.03-.6-.97-1.2.06-.6.59-1.03 1.2-.97l.53.06c2.79.32 5.6.77 8.34 1.35.59.13.96.7.84 1.29-.11.5-.55.86-1.06.86zm-31.99-.75c-.52 0-.99-.38-1.07-.91-.1-.59.31-1.15.9-1.25 2.94-.48 5.94-.81 8.93-.99.59-.06 1.12.42 1.15 1.02.04.6-.42 1.12-1.02 1.15-2.91.17-5.84.5-8.7.96h-.19v.02zM566.2 63.9c-.25 0-.5-.08-.7-.25-1.1-.92-2.22-1.82-3.36-2.68-.48-.36-.57-1.05-.21-1.53s1.04-.57 1.53-.21c1.17.88 2.33 1.81 3.45 2.75.46.39.52 1.07.13 1.53-.22.26-.52.39-.83.39h-.01z"/><path d="M559.41 83.92c-.26-.35-.72-.5-1.15-.37l-12.03 3.83c-4.51-3.8-9.65-6.91-15.3-9.13l-2.35-12.4c-.08-.44-.43-.77-.87-.83l-14.98-2.19c-.44-.06-.87.16-1.07.55l-5.79 11.21c-5.96.51-11.79 1.99-17.27 4.37l-10.43-7.11c-.36-.25-.85-.24-1.2.03l-12.14 9.05c-.36.26-.5.72-.37 1.15l3.83 12.03c-3.8 4.51-6.91 9.65-9.13 15.3l-12.4 2.35c-.43.08-.77.43-.83.87l-2.19 14.98c-.06.44.16.87.55 1.07l11.21 5.79c.51 5.96 1.99 11.79 4.37 17.27l-7.11 10.43c-.25.37-.24.85.03 1.2l9.05 12.14c.26.36.72.5 1.15.37l12.03-3.83c4.51 3.8 9.65 6.91 15.3 9.13l2.35 12.4c.08.43.43.77.87.83l14.98 2.19c.44.06.87-.16 1.07-.55l5.79-11.21c5.96-.51 11.79-1.99 17.27-4.37l10.43 7.11c.37.25.85.24 1.2-.03l12.14-9.05c.35-.26.5-.72.37-1.15l-3.83-12.03c3.8-4.51 6.91-9.65 9.13-15.3l12.4-2.35c.43-.08.77-.43.83-.87l2.19-14.98c.06-.44-.16-.87-.55-1.07l-11.21-5.79a55.155 55.155 0 0 0-4.37-17.27l7.11-10.43c.25-.37.24-.85-.03-1.2l-9.05-12.14z" style="fill:url(#d)"/><path class="bt" d="M510.58 144.79c-3.45 0-6.78-1.18-9.49-3.39a15.007 15.007 0 0 1-5.48-10.16c-.41-4.01.76-7.93 3.31-11.06 2.54-3.12 6.15-5.07 10.16-5.48 4.01-.41 7.93.76 11.06 3.31 3.12 2.54 5.07 6.15 5.48 10.16s-.76 7.93-3.31 11.06a15.007 15.007 0 0 1-10.16 5.48c-.52.05-1.05.08-1.57.08zm.05-26.89c-.41 0-.82.02-1.23.06-3.14.32-5.96 1.85-7.96 4.29a11.749 11.749 0 0 0-2.59 8.66c.32 3.14 1.85 5.96 4.29 7.96 2.45 1.99 5.52 2.91 8.66 2.59s5.96-1.85 7.96-4.29c1.99-2.45 2.91-5.52 2.59-8.66-.32-3.14-1.85-5.96-4.29-7.96-2.1-1.71-4.72-2.65-7.43-2.65z"/><path class="bt" d="M510.45 168.11c-1.86 0-3.73-.14-5.6-.41-18.97-2.77-32.66-19.12-32.66-37.75 0-1.83.13-3.68.4-5.54 3.04-20.83 22.46-35.3 43.29-32.25.64.09 1.28.2 1.92.33h.03s.05 0 .07.01h.05c1.66.34 3.3.78 4.9 1.33.05.02.11.04.16.05.08.03.15.05.23.08.17.06.35.13.52.19l-1.14 3.06c-2.31-.86-4.73-1.48-7.2-1.84-17.49-2.55-33.9 8.4-38.61 24.95-.42 1.47-.75 2.99-.97 4.54-.25 1.7-.37 3.39-.37 5.06 0 17.03 12.52 31.99 29.86 34.52 9.22 1.35 18.42-.98 25.9-6.55 7.48-5.57 12.34-13.72 13.68-22.95.25-1.69.37-3.38.37-5.08 0-4.58-.9-9.13-2.67-13.37l3.01-1.26c1.94 4.65 2.92 9.63 2.92 14.65 0 1.84-.13 3.69-.4 5.53-1.47 10.09-6.79 19-14.96 25.09-6.66 4.96-14.57 7.57-22.73 7.57v.04z"/><g><path class="dy" d="M428.14 162.92c-.54 0-1.01-.41-1.08-.96-.17-1.39-.42-2.79-.76-4.15-.14-.58.21-1.17.8-1.32.58-.14 1.17.21 1.32.8.36 1.45.63 2.94.8 4.41.07.6-.36 1.14-.95 1.21h-.13zm-35.4 39.96c-1.84 0-3.67-.14-5.49-.41-.6-.09-1.01-.64-.92-1.24s.65-1 1.24-.92c2.67.4 5.37.49 8.06.26.59-.05 1.13.4 1.18.99.05.6-.4 1.13-.99 1.18-1.02.09-2.05.13-3.07.13zm15.93-3.75c-.6 0-1.09-.49-1.09-1.09 0-.41.23-.79.61-.97 2.4-1.21 4.67-2.7 6.74-4.43.46-.39 1.15-.33 1.53.14.39.46.33 1.15-.14 1.53-2.2 1.84-4.6 3.42-7.16 4.7-.16.08-.32.12-.49.12zm15.45-15a1.093 1.093 0 0 1-.96-1.61c1.28-2.37 2.27-4.89 2.96-7.5.15-.58.75-.92 1.33-.77s.93.75.77 1.33c-.73 2.77-1.8 5.45-3.15 7.97-.2.37-.57.57-.96.57h.01zm-49.44 13.92c-.19 0-.38-.05-.55-.15-1.29-.75-2.54-1.59-3.73-2.5-.48-.36-.57-1.05-.2-1.53.36-.48 1.05-.57 1.53-.2 1.12.85 2.3 1.64 3.5 2.35.52.3.69.97.39 1.49-.2.33-.55.54-.94.54zM357.43 172.74c-.53 0-.99-.38-1.07-.92a37.14 37.14 0 0 1-.42-4.47c-.02-.6.45-1.1 1.05-1.12.61-.03 1.1.45 1.12 1.05.05 1.4.18 2.82.4 4.2.09.59-.31 1.15-.91 1.24h-.17v.02zm1.59-17.42a1.093 1.093 0 0 1-1.03-1.45c.93-2.65 2.17-5.2 3.69-7.57.32-.51 1-.65 1.5-.33.51.32.66 1 .33 1.5a34.246 34.246 0 0 0-3.47 7.12c-.16.45-.58.73-1.03.73h.01zm12.65-16.98c-.34 0-.67-.15-.88-.45-.35-.49-.25-1.17.24-1.52 2.27-1.66 4.74-3.06 7.32-4.15.55-.24 1.19.02 1.43.58s-.02 1.19-.58 1.43a34.96 34.96 0 0 0-6.89 3.91c-.19.14-.42.21-.64.21zm28.18-6.15c-.07 0-.14 0-.22-.02-.99-.2-2.01-.36-3.03-.48-1.62-.18-3.26-.25-4.87-.21h-.03c-.59 0-1.07-.47-1.09-1.06-.02-.6.46-1.1 1.06-1.12 1.7-.05 3.45.03 5.17.22 1.08.12 2.16.29 3.21.51.59.12.97.69.85 1.28-.1.52-.56.87-1.07.87h.02zm15.76 7.63c-.25 0-.5-.08-.7-.25-1.07-.9-2.21-1.75-3.39-2.51-.5-.33-.65-1-.32-1.51.33-.5 1-.65 1.51-.32 1.25.81 2.46 1.71 3.61 2.67.46.39.52 1.07.13 1.53-.22.26-.52.39-.83.39z"/><path d="M412.81 147.45c-.11-.15-.3-.21-.47-.15l-4.97 1.58a22.883 22.883 0 0 0-6.32-3.77l-.97-5.12a.414.414 0 0 0-.36-.34l-6.19-.9a.41.41 0 0 0-.44.23l-2.39 4.63c-2.5.21-4.9.83-7.13 1.81l-4.31-2.94c-.15-.1-.35-.1-.5 0l-5.01 3.74c-.15.11-.21.3-.15.47l1.58 4.97a22.883 22.883 0 0 0-3.77 6.32l-5.12.97c-.18.03-.32.18-.34.36l-.9 6.19c-.03.18.06.36.23.44l4.63 2.39c.21 2.5.83 4.9 1.81 7.13l-2.94 4.31c-.1.15-.1.35.01.5l3.74 5.01c.11.15.3.21.47.15l4.97-1.58c1.86 1.57 3.99 2.85 6.32 3.77l.97 5.12c.03.18.18.32.36.34l6.19.9c.18.03.36-.06.44-.23l2.39-4.63c2.5-.21 4.9-.83 7.13-1.81l4.31 2.94c.15.1.35.1.5 0l5.01-3.74c.15-.11.21-.3.15-.47l-1.58-4.97c1.57-1.86 2.85-3.99 3.77-6.32l5.12-.97c.18-.03.32-.18.34-.36l.9-6.19a.41.41 0 0 0-.23-.44l-4.63-2.39c-.21-2.5-.83-4.9-1.81-7.13l2.94-4.31c.1-.15.1-.35-.01-.5l-3.74-5.01z" style="fill:url(#e)"/><path class="bt" d="M392.65 173.55c-1.65 0-3.23-.56-4.52-1.61a7.103 7.103 0 0 1-2.61-4.84c-.2-1.91.36-3.78 1.57-5.27s2.93-2.42 4.84-2.61c1.91-.2 3.78.36 5.27 1.57a7.103 7.103 0 0 1 2.61 4.84c.2 1.91-.36 3.78-1.58 5.27a7.103 7.103 0 0 1-4.84 2.61c-.25.03-.5.04-.75.04zm.02-11.11c-.14 0-.27 0-.41.02-1.03.1-1.98.61-2.64 1.42s-.97 1.83-.86 2.87a3.907 3.907 0 0 0 4.28 3.5c1.03-.1 1.98-.61 2.64-1.42s.97-1.83.86-2.87c-.1-1.04-.62-1.99-1.43-2.64-.71-.57-1.57-.88-2.47-.88h.03z"/><path class="bt" d="M392.57 183.17c-.8 0-1.61-.06-2.43-.18-8.31-1.21-14.31-8.38-14.31-16.54 0-.8.06-1.61.18-2.43.65-4.42 2.97-8.32 6.56-10.99 3.58-2.67 7.99-3.78 12.41-3.14.11.02.22.03.33.05 1.06.18 2.11.46 3.12.83l-1.14 3.06c-.89-.33-1.83-.57-2.78-.71-2.09-.3-4.17-.12-6.12.52h-.01c-1.33.44-2.59 1.08-3.75 1.93-.03.02-.06.05-.1.07a13.392 13.392 0 0 0-5.28 8.85c-.1.66-.14 1.31-.14 1.95 0 6.57 4.83 12.33 11.51 13.31 7.34 1.08 14.19-4.03 15.26-11.37.1-.65.14-1.3.14-1.96 0-1.77-.35-3.52-1.03-5.15l3.01-1.26c1.17 2.79 1.55 5.85 1.1 8.84-1.21 8.31-8.38 14.31-16.54 14.31h.01z"/></g></g><path d="M172.02 573.4c-1.78 5.82-8.91 7.93-13.62 4.08-25.97-21.25-93.95-87.98-93.56-203.81.34-97.82-8.78-150.89-14.59-174.7-1.23-5.03 4.68-8.71 8.66-5.39 43.88 36.64 177.42 169.06 113.1 379.82z" style="fill:url(#f)"/><path class="bt" d="M162.38 573.6c-.61 0-1.2-.34-1.48-.93-.64-1.34-63.89-135.64-69.56-271.52-.02-.9.7-1.64 1.6-1.66.87-.02 1.6.65 1.66 1.52 5.64 135.22 68.61 268.92 69.25 270.25.39.82.04 1.8-.78 2.18-.21.1-.45.15-.69.16z"/><path d="M828.71 549.3c1.78 5.82 8.91 7.93 13.62 4.08 25.97-21.25 93.95-87.98 93.56-203.81-.34-97.82 8.78-150.89 14.59-174.7 1.23-5.03-4.68-8.71-8.66-5.39-43.88 36.64-177.42 169.06-113.1 379.82h-.01z" style="fill:url(#g)"/><path class="bt" d="M838.34 549.49c-.9 0-1.63-.74-1.63-1.65 0-.24.06-.48.16-.69.64-1.33 63.6-135.05 69.25-270.25.04-.9.78-1.62 1.7-1.56.9.04 1.6.8 1.56 1.7-5.67 135.88-68.92 270.18-69.56 271.52-.28.59-.87.93-1.48.93z"/><path d="M22.31 368.45c0 37.21 5.37 266.03 134.54 323.17 3.91 1.73 8.28-1.28 8.06-5.56-1.4-27.18-10.85-112.92-72.87-207.78-44.75-68.44-61.91-99.67-67.43-110.4-.58-1.14-2.29-.72-2.29.56z" style="fill:url(#h)"/><path class="bt" d="M164.51 687.65c-.36-.09-.7-.31-.92-.63-39.33-54.84-69.21-116.55-87.35-158.67-18.56-43.09-31.04-80.53-30.58-83.06.16-.89 1.01-1.48 1.9-1.32.81.16 1.38.88 1.34 1.69.65 5.84 42.51 135.09 117.35 239.45.53.73.35 1.75-.38 2.28-.4.29-.9.37-1.35.26z"/><path d="M974.09 319.89c6.02 40.19 37.28 288.17-92.96 370.8-3.94 2.5-9.15-.04-9.6-4.69-2.89-29.58-6.57-123.7 45.04-236.19 37.23-81.16 50.72-117.67 54.95-130.14.45-1.32 2.37-1.15 2.57.23z" style="fill:url(#i)"/><path class="bt" d="M871.76 687.61c-.32.04-.65 0-.96-.16-.8-.41-1.12-1.39-.71-2.2 33.14-64.73 55.22-135.26 67.9-183.04 14.06-53 20.22-91.46 20.06-94.65-.17-.81.29-1.61 1.07-1.88.86-.3 1.79.17 2.07 1.02.9 2.64-6.53 45.05-19.58 94.57-12.77 48.42-35.04 119.89-68.61 185.47-.26.5-.73.8-1.24.87z"/><path d="M847.58 643.09c0 6.96-5.7 12.65-12.66 12.65H150.4c-6.96 0-12.66-5.69-12.66-12.65l-5.7-393.38c0-6.96 8.19-20.53 23.21-19.51l668.99-17.31c8.74-.23 17.18 3.14 23.37 9.3 6.19 6.17 9.57 14.6 9.36 23.32l-9.4 397.57h.01z" style="fill:url(#j)"/><path d="M835.08 630.96c0 6.59-5.39 11.98-11.98 11.98H166.91c-6.59 0-11.98-5.39-11.98-11.98l-5.37-357.11c.63-21.49 19.47-29.21 30.89-28.76l641.19-17.2c6.14-.16 12.07 2.2 16.42 6.54s6.72 10.27 6.56 16.41l-9.54 380.13z" style="fill:url(#k)"/><path class="bt" d="M162.02 460.64c-.59 0-1.08-.48-1.09-1.07l-.43-28.96c0-.6.47-1.1 1.07-1.1h.02c.59 0 1.08.48 1.09 1.07l.43 28.96c0 .6-.47 1.1-1.07 1.1h-.02zm-1.04-70.97c-.59 0-1.08-.48-1.09-1.07l-1.63-110.92c.03-7.44 2.33-13.39 6.82-17.7 8.16-7.82 20.94-7.43 21.47-7.41l204.75-5.49c.63-.06 1.1.46 1.12 1.06.02.6-.46 1.1-1.06 1.12l-204.81 5.49c-.58-.02-12.46-.39-19.96 6.81-4.05 3.88-6.12 9.3-6.15 16.11l1.63 110.9c0 .6-.47 1.1-1.07 1.1h-.02z"/><path d="M183.84 611.15c.69-29.52.43-290.88-1.26-313.46-1.69-22.57 33.46-26.81 87.44-29.35 53.97-2.54 509.38-12.6 521.11-13.55 26.36-2.14 31.81 37.26 29.18 122.78-1.98 64.25-5.26 170.1-6.78 218.78-.45 14.49-12.3 25.99-26.8 26.03-109.59.3-529.61 1.5-557.58 2.34-32.18.96-45.58-1.87-45.31-13.58z" style="fill:url(#l);opacity:.5;isolation:isolate"/><path d="M885.83 688.39H113.37c-9.5 0-17.28-7.78-17.28-17.28s7.78-17.28 17.28-17.28h772.46c9.5 0 17.28 7.78 17.28 17.28s-7.78 17.28-17.28 17.28z" style="fill:url(#m)"/><path d="M732.89 698.57c3.45 2.39 8.22.48 9.12-3.62 4.97-22.63 13.25-87.88-36.55-150.47-42.05-52.85-59.83-85.51-66.87-100.89-1.49-3.25-6.27-2.71-7 .79-8.09 38.63-23.76 167.53 101.3 254.19z" style="fill:url(#n)"/><path class="bt" d="M737.5 695.3c-.74 0-1.42-.51-1.59-1.27-.23-.99-23.33-100.3-78.07-175.87a1.631 1.631 0 1 1 2.64-1.92c55.15 76.13 78.39 176.06 78.61 177.06a1.637 1.637 0 0 1-1.59 2z"/><path d="M714.77 412.61c-1.05 49.69-4.47 221.09-2.84 281.83.17 6.43 4.58 11.6 10.08 11.81 27.2 1.04 126.93 3.68 171.43 1.5 9.27-.45 16.64-9.24 16.83-20.09.92-52.16 2.96-198.85-1.88-266.06-.58-8.05-5.98-14.46-12.86-15.27-29.63-3.47-129.79-11.94-168.23-9.02-6.93.53-12.37 7.17-12.54 15.3z" style="fill:url(#o)"/><path d="M726.91 427.85c-1.46 40.11-6.08 173.54-4.62 222.88.21 7.21 5.07 13.04 11.23 13.46 25.35 1.74 111.85 5.56 149.04 2.08 6.7-.63 11.95-6.96 12.31-14.81 1.88-40.92 7.3-165.16 5.89-213.95-.22-7.78-5.38-14.14-12.01-14.84-27.43-2.88-119.34-9.74-150.94-7.72-5.93.38-10.65 5.95-10.9 12.89z" style="fill:url(#p)"/><path d="M795.94 701.92c-6.75 0-12.24-6.34-12.24-14.13s5.49-14.13 12.24-14.13 12.24 6.34 12.24 14.13-5.49 14.13-12.24 14.13zm0-26.09c-5.55 0-10.06 5.36-10.06 11.96s4.51 11.96 10.06 11.96S806 694.39 806 687.79s-4.51-11.96-10.06-11.96z" style="opacity:.65;isolation:isolate;fill:#fff"/><path d="M782.01 406c0 1.52 1.02 2.78 2.32 2.86 6.43.39 24.53 1.51 32.62 2.06 1.59.11 2.85-1.57 2.54-3.4l-.05-.31c-.21-1.25-1.09-2.19-2.18-2.31-5.47-.59-21.97-2.21-32.9-1.75-1.31.05-2.35 1.33-2.35 2.87V406z" style="opacity:.5;isolation:isolate;fill:#fff"/><path d="m882.41 494.81.32-47.06c.04-5.67-3.61-10.46-8.31-10.82l-121.96-9.22c-4.95-.37-9.19 4.2-9.41 10.16 0 0-5.72 141.5-5.72 143.22s-1.85 55.55-1.85 55.55c-.22 5.97 3.77 11 8.73 11.15l128.06 3.92c4.95.15 9.07-4.78 9.11-10.75l.62-87.35.4-58.8z" style="opacity:.3;isolation:isolate;fill:#fff"/><g class="ck"><path class="bt" d="M594.35 436.13c0-30.01-11.69-58.23-32.91-79.45-4.25-4.25-11.15-4.25-15.4 0s-4.25 11.15 0 15.4c17.11 17.11 26.53 39.86 26.53 64.05 0 49.28-39.55 89.46-88.58 90.53l-.4-8.71c-.25-5.43-6.13-8.7-10.88-6.05L434.99 533c-5.26 2.94-4.9 10.63.61 13.07l39.51 17.51c4.97 2.2 10.53-1.6 10.27-7.03l-.38-8.12c60.57-1.61 109.34-51.38 109.34-112.32v.02h.01zM476.1 345.76l.4 8.54c0 .12.05.23.06.35l-1.66-4.29v12.52l-.39.16h5.29l-1.78-4.57c2.1 2.7 6.01 3.77 9.36 1.9l37.72-21.11c5.26-2.94 4.9-10.64-.61-13.08l-39.51-17.52c-4.97-2.2-10.53 1.59-10.27 7.03l.39 8.3c-58.75 3.58-105.46 52.51-105.46 112.15 0 22.11 6.42 43.51 18.56 61.88 2.09 3.17 5.56 4.89 9.1 4.89 2.06 0 4.15-.58 5.99-1.81 5.02-3.32 6.4-10.07 3.08-15.09-9.78-14.8-14.95-32.05-14.95-49.87 0-47.97 37.48-87.32 84.69-90.37h-.01z"/><path class="bt" d="m474.49 363.01-.05-.13v.13h.05z"/></g><g class="ck"><path class="bt" d="M863.56 532.89c0-13.9-5.41-26.97-15.24-36.8a5.04 5.04 0 0 0-7.13 0 5.04 5.04 0 0 0 0 7.13c7.92 7.93 12.29 18.46 12.29 29.67 0 22.82-18.32 41.44-41.03 41.93l-.19-4.03c-.12-2.52-2.84-4.03-5.04-2.8l-17.47 9.77c-2.44 1.36-2.27 4.92.28 6.06l18.3 8.11c2.3 1.02 4.88-.74 4.76-3.26l-.17-3.76c28.05-.74 50.65-23.8 50.65-52.03h-.01zm-54.77-41.84.18 3.96s-.04.11-.03.16l-.83-1.99v5.8l-.06.2h2.45l-.82-2.18a3.374 3.374 0 0 0 4.33.85l17.47-9.79c2.44-1.36 2.27-4.93-.28-6.07l-18.3-8.12c-2.3-1.02-4.88.74-4.76 3.25l.18 3.84c-27.21 1.66-48.85 24.32-48.85 51.94 0 10.24 2.97 20.15 8.6 28.66a5.04 5.04 0 0 0 6.98 1.43h.01a5.054 5.054 0 0 0 1.43-6.99 41.797 41.797 0 0 1-6.93-23.1c0-22.22 17.36-40.45 39.23-41.86v.02z"/><path class="bt" d="m808.05 499.02-.03-.06v.06h.03z"/></g><path d="M364.97 287.59c-.09-.04-50.74-88.74-57.59-97.08a5.307 5.307 0 0 0-4.74-1.9l-14.14 1.68-16.61 35.93 27.67-16.11c-2.74 18.94 32.81 47.07 45 57.34 1.18.99 1.34 2.76.34 3.94-.04.05-.08.09-.12.14l-4.87 5.09c7.99 8.1 17.21 13.3 27.62 15.7l-2.57-4.73z" style="fill:url(#q)"/><path d="M342.74 273.87s-3.11 1-4.16 3.77c-.5 1.32.04 2.82 1.19 3.65 5.11 3.66 21.98 15.49 29.77 17.81a.89.89 0 0 0 1.09-.6.82.82 0 0 0 .01-.44c-.4-1.81-1.69-5.42-5.86-10.71l.37.76c.47.96-.57 1.95-1.5 1.43-5.21-2.94-15.81-9.37-20.93-15.67h.02z" style="fill:url(#r)"/><path d="M345.24 309.36c-.08-.05-7.68-18.36-7.77-18.42-6.97-42.42-23.97-78.75-28.98-88.31a5.276 5.276 0 0 0-4.25-2.82l-14.19-1.21-23.54 31.82 30.36-10.18c-6.51 17.99 22.6 52.74 32.46 65.26 1 1.27.72 3.12-.61 4.04l-5.8 4c6.19 9.55 14.16 16.51 23.87 20.97l-1.55-5.15z" style="fill:url(#s)"/><path d="M326.24 291.42s-3.24.35-4.83 2.85c-.76 1.19-.53 2.77.43 3.81 4.27 4.62 18.39 19.62 25.55 23.47.59.32 1.3-.13 1.29-.79-.03-1.85-.56-5.65-3.57-11.67l.21.82c.27 1.03-.95 1.8-1.76 1.09-4.5-3.93-13.59-12.38-17.32-19.58z" style="fill:url(#t)"/><path d="M223.65 191.89s-12.83 19.09-13.89 27.79c-1.05 8.71 3.55 11.72 16.98 12.83 39.97 3.3 59.67-8.67 59.67-8.67 2.73-17.43 4.68-21.87 27.52-31.35 0 0-28.88 2.29-34.7.04-5.81-2.26-55.59-.64-55.59-.64h.01z" style="fill:url(#u)"/><path d="M274.83 84.96s-8.94-10.58-18.44 2.4c-1.72 2.35-8.33.41-10.75 5.33-1.25 2.54-3.95 3.98-6.74 3.47-6.93-1.28-18.27-1.39-23.86 9.48-4.27 8.29-.97 13.15 3.3 15.91 3.14 2.03 4.26 6.16 2.36 9.38-1.82 3.09-2.16 7.27 2.54 12.3 10.52 11.28 31.36-7.16 31.36-7.16l16.54-39.09 3.71-12.03h-.02z" style="fill:url(#v)"/><path d="M258.36 189.37s14.94-14.23 22.3-23.65c3.98-5.09 5.23-11.8 3.39-18-3.36-11.31-9.33-23.03-9.87-24.86-.83-2.8-17.59-2.68-17.59-2.68s-32.97 21.4-45.93 57.65l14.55 4.53s8.61-14.44 17.12-23.63c0 0-14.72 19.44-15.24 27.4l31.28 3.23h-.01z" style="fill:url(#w)"/><path d="m286.83 194.98-11.23-12.22-12.97 3.49s-15.12 2.34-23.77 0l-8.65-2.34-19.55-6.09-3.07 8.68c-.78 2.2 0 4.65 1.91 6 1.69 1.2 3.67 2.52 4.94 3.08 2.58 1.13 59.32.36 59.32.36l13.08-.96z" style="fill:url(#x)"/><path d="m268.1 100.03-11.26 20.94c.74 4.57 12.26 4.7 14.04 1.97.18-.28.28-.6.35-.92l6.74-13.99c.29-1.36-3.45-5.96-4.68-6.62l-4.48-2.38c-1.72-.92 5.47-.99-.71 1z" style="fill:url(#y)"/><path d="M290.89 95.12s1.27 7.08-4.29 16.07c-5.56 9-11.1 8.59-13.91 5.38s-6.18-8.55-4.65-17.52c1.53-8.97 20.93-12.95 22.85-3.93z" style="fill:url(#z)"/><path d="M274.77 100.02s9-11.83 15.92-1.52l-.12 3.56s8.99-.42 8.01-8.71c-.97-8.29-8.31-13.95-18.49-11.12-10.17 2.83-16.12 6.05-17.27 13.12-1.15 7.06 4.62 5.91 4.62 5.91s2.2-4.87 4.86-5.21c2.66-.33 1.7 3.52 1.7 3.52l.76.43v.02z" style="fill:url(#aa)"/><path d="M272.7 99.71s4.66-6.05.42-7.31c-4.25-1.26-4.09 5.93-3.81 8.6l3.39-1.3z" style="fill:url(#ab)"/><path d="M249.66 199.82h.12l51.65-.06c1.28 0 2.31-1.04 2.31-2.31s-1.04-2.33-2.31-2.31l-51.65.06a2.32 2.32 0 0 0-2.33 2.3c0 1.25.97 2.27 2.22 2.32z" style="fill:url(#ac)"/><path d="M347.86 152.92h-43.01a8.19 8.19 0 0 0-7.41 4.7l-19.88 42.16h53.45c2.04 0 3.88-1.25 4.63-3.15l15.42-39.02c.89-2.25-.77-4.7-3.19-4.7h-.01z" style="fill:url(#ad)"/><path d="M317.55 174.54c-.93 2.9-.24 5.71 1.54 6.28 1.78.57 3.98-1.31 4.91-4.21.93-2.9.24-5.71-1.54-6.28-1.78-.57-3.98 1.31-4.91 4.21z" style="fill:url(#ae)"/><circle cx="388.74" cy="86.04" r="32.73" style="fill:url(#af)"/><path class="bt" d="M375.95 105.08c-.51 0-.95-.35-1.06-.86l-4.03-18.57c-.06-.28 0-.58.15-.82.16-.24.41-.41.69-.47.04 0 1.82-.4 3.21-1.54.49-.4.9-1.92 1.3-3.39.57-2.13 1.29-4.77 2.85-6.96 2.59-3.62 1.61-8.56 1.49-9.11-.22-1.03.37-2.92 1.85-3.66.83-.42 2.55-.76 4.72 1.7 2.74 3.1 2.13 7.73 1.72 10.79-.13 1.01-.25 1.87-.22 2.43 0 .1.02.13.02.13.5.43 3.52-.35 5.15-.77.88-.23 1.77-.46 2.64-.64 3.01-.65 6.62-.88 7.69 3.23.46 1.75-.21 3.15-.9 4.04 1.52 1.03 2.37 2.24 2.54 3.6.15 1.25-.32 2.34-.83 3.09 1.33.98 2 2.43 1.84 4.08a5.236 5.236 0 0 1-1.41 3.05c.73.63.89 1.38.92 1.78.14 2.04-2.13 4.31-5.41 5.41-4.55 1.53-24 3.38-24.83 3.46h-.09zm-2.75-18.9 3.61 16.63c4.04-.4 19.62-2 23.38-3.26 2.7-.91 3.98-2.54 3.93-3.2-.03-.36-.68-.61-1.29-.72-.51-.1-.89-.54-.89-1.07s.37-.97.89-1.07c.88-.17 1.68-1.22 1.79-2.34.08-.8-.16-1.9-1.76-2.55-.35-.14-.6-.46-.66-.83s.07-.75.36-1c0 0 1.21-1.1 1.05-2.33-.15-1.16-1.51-2.09-2.62-2.66-.34-.17-.56-.51-.59-.89s.14-.75.45-.97c.06-.04 1.6-1.2 1.17-2.83-.37-1.43-1.02-2.54-5.12-1.65-.84.18-1.71.41-2.56.62-3.12.8-5.59 1.44-6.99.4-.38-.28-.85-.82-.9-1.77-.04-.76.09-1.71.24-2.82.38-2.83.89-6.7-1.19-9.06-.85-.96-1.63-1.41-2.08-1.21-.48.21-.76 1.02-.73 1.29.14.63 1.28 6.45-1.85 10.83-1.34 1.87-1.97 4.2-2.52 6.26-.55 2.05-.99 3.67-2.03 4.51-1.06.86-2.25 1.38-3.09 1.67v.02zm-14.18 2.87h-.05a1.1 1.1 0 0 1-1.04-1.14c0-.21.27-5.34 2.49-11.41 2.96-8.11 8.03-14 14.66-17.01.55-.25 1.19 0 1.44.54.25.55 0 1.19-.54 1.44-14.76 6.72-15.87 26.35-15.88 26.54-.03.58-.51 1.04-1.09 1.04zm42.04 25.17c-.44 0-.86-.27-1.02-.71-.21-.56.08-1.19.64-1.4.62-.23 15.22-5.88 17.31-24.27a1.091 1.091 0 1 1 2.17.25c-2.25 19.76-18.56 26-18.72 26.06-.12.05-.25.07-.38.07z"/><path d="M296.23 698.6H34.07c-8.36 0-15.14-5.01-15.14-11.18v-187c0-6.16 6.75-11.17 15.1-11.18l264.25-.52c8.41-.02 15.22 5.03 15.18 11.24l-2.1 187.52c-.04 6.15-6.81 11.12-15.14 11.12h.01z" style="fill:url(#ag)"/><path class="bw" d="m283.38 503.02-234.41 1.07c-8.47.04-15.3 5.14-15.26 11.4l1.64 157.28c.04 6.17 6.73 11.18 15.08 11.29l227.76 3.07c8.51.11 15.52-4.9 15.64-11.19l5.02-161.41c.12-6.36-6.85-11.54-15.45-11.51h-.02z"/><path class="bw" d="M273.85 517.61v1.19c0 1.87-2.06 3.39-4.59 3.39H88.64c-2.54 0-4.59-1.52-4.59-3.39v-1.19c0-1.87 2.06-3.39 4.59-3.39h180.61c2.54 0 4.59 1.52 4.59 3.39h.01zm-20.15 15.01c-.13 1.78-2.1 3.18-4.5 3.21l-157.95 2.13c-2.57.03-4.68-1.49-4.68-3.39v-.28c0-1.85 2.01-3.36 4.52-3.39l157.95-1.85c2.66-.03 4.8 1.61 4.66 3.58z"/><path class="bt" d="M269.83 678.8h-.16l-213.64-1.89c-4.1-.04-7.85-1.51-10.3-4.05-1.76-1.82-2.69-4.09-2.63-6.4l5.5-111.09c.14-5.58 6.13-10.06 13.33-9.98l213.27 3.07c4.07.06 7.8 1.54 10.23 4.06 1.74 1.81 2.68 4.08 2.62 6.37v.05l-5.13 109.86c-.14 5.61-5.87 10-13.08 10h-.01zM61.68 549.75c-4.67 0-8.65 2.62-8.73 5.79l-5.5 111.09c-.04 1.4.75 2.52 1.41 3.21 1.62 1.68 4.31 2.69 7.21 2.72l213.64 1.89h.11c4.67 0 8.66-2.64 8.74-5.79l5.13-109.88c.03-1.43-.75-2.54-1.4-3.23-1.6-1.67-4.28-2.69-7.15-2.73l-213.27-3.07h-.19z"/><path class="bt" d="M283.09 571.17H50.42c-1.2 0-2.18-.98-2.18-2.18s.98-2.18 2.18-2.18h232.67c1.2 0 2.18.98 2.18 2.18s-.98 2.18-2.18 2.18z"/><path d="m134.36 619.5 2.04 72.83c.16 5.66 7.85 10.19 17.29 10.19h238.45c9.55 0 17.29-4.64 17.29-10.37v-68.16c0-5.6-7.41-10.18-16.74-10.36l-240.49-4.67c-9.88-.19-18.02 4.61-17.85 10.54z" style="fill:url(#ah)"/><path class="bw" d="m154.1 626.59 5.17 66.97c.2 2.57 3.77 4.58 8.07 4.54l217.13-2.29c4.33-.05 7.8-2.16 7.8-4.76v-58.08c0-2.54-3.32-4.63-7.54-4.75l-222.31-6.6c-4.68-.14-8.54 2.17-8.32 4.97z"/><path class="bw" d="M171.42 632.87v4.82c0 1.7 2.32 3.07 5.16 3.04l187.28-1.83c2.77-.03 5-1.38 5-3.04s-2.19-3-4.94-3.04l-187.28-2.99c-2.86-.05-5.21 1.33-5.21 3.04zm2.79 18.23v4.43c0 1.72 2.38 3.1 5.26 3.04l178.37-3.72c2.73-.06 4.9-1.4 4.9-3.04v-1.38c0-1.69-2.29-3.06-5.11-3.04l-178.37.68c-2.79.01-5.05 1.37-5.05 3.04z"/><g><path d="M694.24 134.54c.76-.89 2.27-1.35 3.44-1.24l123.51 11.31v-17.39c0-.89.07-1.73.81-2.23.73-.5 1.49-.62 2.32-.3l81.74 31.41c1.05.4 1.69 1.41 1.69 2.53s-.71 2.12-1.76 2.53l-81.85 31.41c-.83.32-1.41.21-2.14-.3-.73-.5-.81-1.34-.81-2.23v-10.99l-109.45 5.07c-3.68.17-7.15-2.28-8.03-5.85l-10.13-40.5c-.28-1.14-.09-2.34.67-3.22z" style="fill:url(#ai)"/><path class="bt" d="M895.04 158.99c-.19 0-.38-.03-.57-.1l-64.12-23.87c-.28-.1-.71-.02-1.04.21-.29.2-.51.62-.51.97v12.31a1.63 1.63 0 0 1-3.26 0V136.2c0-1.41.75-2.85 1.92-3.66 1.22-.84 2.77-1.07 4.05-.59l64.11 23.87c.85.31 1.28 1.26.96 2.1-.25.66-.87 1.06-1.53 1.06zm-78.08-7.37c-.09 0-.18 0-.27-.02l-6.61-1.08c-.89-.15-1.49-.99-1.35-1.88.15-.89.99-1.5 1.88-1.35l6.61 1.08c.89.15 1.49.99 1.35 1.88-.13.8-.82 1.37-1.61 1.37z"/><path d="M793.82 222.54c-.82-.96-2.39-1.46-3.65-1.34l-133.43 12.22v-18.8c0-.96-.14-1.86-.94-2.41-.79-.55-1.64-.67-2.54-.32l-88.37 33.95c-1.13.43-1.84 1.52-1.84 2.73s.77 2.3 1.9 2.73l88.46 33.95c.9.35 1.59.23 2.38-.32.79-.55.94-1.45.94-2.41v-11.88l118.24 5.48c3.98.18 7.69-2.46 8.65-6.33l10.93-43.77c.3-1.23.08-2.53-.75-3.48h.02z" style="fill:url(#aj)"/><path class="bt" d="M576.54 248.92c-.66 0-1.29-.41-1.53-1.06-.31-.85.12-1.79.96-2.1l69.42-25.85c1.34-.5 2.78-.29 4.07.6 1.17.81 1.84 2.2 1.84 3.82v13.48a1.63 1.63 0 0 1-3.26 0v-13.48c0-.52-.16-.96-.43-1.14-.59-.41-.92-.28-1.07-.23l-69.42 25.85c-.19.07-.38.1-.57.1h-.01zm84.63-8.05c-.79 0-1.48-.57-1.61-1.37-.15-.89.46-1.73 1.35-1.88l7.15-1.17c.89-.14 1.73.46 1.88 1.35s-.46 1.73-1.35 1.88l-7.15 1.17c-.09 0-.18.02-.27.02z"/></g><g><path d="M635.25 53c-3.22-15.3 12.39-38.72 46-22.35.21-7.4 38.08-33.83 60.96 12.41 2.1-11.91 31.63-8.73 38.64 10.44 10.46-5.84 38.89 16.11 4.58 23.48-43.82 9.41-145.47 17.12-166.09-7.81C598.71 44.24 635.26 53 635.26 53h-.01z" style="fill:url(#ak);opacity:.4;isolation:isolate"/><path d="M830.57 91.02c-1.78-8.46 6.85-21.4 25.42-12.36.11-4.09 21.05-18.7 33.69 6.86 1.16-6.58 17.48-4.83 21.36 5.77 5.78-3.23 21.5 8.9 2.53 12.98-24.22 5.2-80.4 9.46-91.8-4.31-11.4-13.78 8.8-8.94 8.8-8.94z" style="fill:url(#al);opacity:.4;isolation:isolate"/></g><g><circle cx="104.19" cy="149.71" r="50.61" style="fill:url(#am)"/><path class="bt" d="M84.43 178.55c-.51 0-.95-.35-1.06-.86l-6.23-28.72c-.06-.28 0-.58.15-.82.16-.24.41-.41.69-.47.03 0 2.93-.63 5.22-2.5.91-.74 1.54-3.07 2.2-5.54.87-3.24 1.96-7.28 4.32-10.57 4.15-5.8 2.6-13.68 2.41-14.56-.3-1.37.55-4 2.55-5.01 1.39-.7 3.65-.84 6.59 2.48 4.06 4.59 3.17 11.31 2.51 16.21-.21 1.58-.39 2.95-.35 3.87.02.46.18.58.26.64 1.11.82 5.19-.23 8.48-1.08 1.34-.34 2.72-.7 4.06-.99 6.63-1.44 9.98-.07 11.19 4.56.74 2.83-.6 5.01-1.69 6.24 2.54 1.58 3.96 3.42 4.21 5.5.25 2.05-.71 3.79-1.52 4.86 2.2 1.38 3.34 3.58 3.09 6.1-.19 1.92-1.16 3.68-2.51 4.83 1.36.85 1.69 2 1.74 2.75.2 2.88-3.14 6.15-7.96 7.76-6.97 2.34-36.98 5.2-38.25 5.32h-.1zm-4.94-29.03 5.8 26.76c5.29-.52 30.75-3.09 36.8-5.12 4.01-1.35 6.59-3.96 6.48-5.55-.07-1.06-1.58-1.5-2.47-1.66-.52-.1-.89-.54-.89-1.07s.37-.97.89-1.07c1.62-.31 3.05-2.13 3.26-4.14.12-1.18-.12-3.35-3.08-4.55-.35-.14-.6-.46-.66-.83-.06-.37.07-.75.36-1 .02-.02 2.11-1.9 1.83-4.11-.21-1.65-1.68-3.19-4.37-4.57-.34-.17-.56-.51-.59-.89s.14-.75.45-.97c.11-.08 2.81-2.08 2.04-5.02-.64-2.42-1.77-4.47-8.62-2.98-1.3.28-2.66.63-3.98.97-4.49 1.15-8.37 2.15-10.31.72-.49-.36-1.09-1.05-1.15-2.28-.05-1.12.14-2.57.36-4.26.6-4.49 1.41-10.63-1.99-14.48-.91-1.03-2.63-2.65-3.97-1.98-1.03.52-1.52 2.1-1.41 2.6.21.98 1.93 9.73-2.76 16.29-2.13 2.97-3.12 6.64-3.99 9.87-.83 3.06-1.48 5.48-2.93 6.67-1.81 1.47-3.87 2.27-5.09 2.65zm-21.27 4.25h-.05a1.1 1.1 0 0 1-1.04-1.14c.02-.32 1.79-32.34 26.17-43.43.55-.25 1.19 0 1.44.54.25.55 0 1.19-.54 1.44-23.16 10.54-24.89 41.25-24.9 41.55-.03.58-.51 1.04-1.09 1.04h.01zm65 38.91c-.44 0-.86-.27-1.02-.71-.21-.56.08-1.19.64-1.4.24-.09 23.87-9.2 27.15-38.02a1.091 1.091 0 1 1 2.17.25c-3.44 30.19-28.31 39.72-28.56 39.81-.12.05-.25.07-.38.07z"/></g><g><path class="bt" d="M152.19 486.44s-.3 1.33-.61 2.65c-.44 1.38-.9 2.76-.9 2.76-.22.65-.92 1-1.57.78-.65-.22-1-.92-.79-1.57l.04-.11.78-2.42c.3-1.33.59-2.66.59-2.66.15-.68.83-1.11 1.51-.96s1.11.83.96 1.51v.02zm-4.12 10.55-1.6 2.2-1.95 2.17c-.44.51-1.21.56-1.72.11a1.21 1.21 0 0 1-.11-1.72s0-.02.02-.02l.09-.1 1.68-1.88c.79-1.11 1.59-2.21 1.59-2.21a1.23 1.23 0 0 1 1.73-.22c.51.4.63 1.12.27 1.66zm-8.03 7.99-2.36 1.36c-1.32.6-2.64 1.19-2.64 1.19-.6.27-1.3 0-1.57-.59-.27-.6 0-1.3.59-1.57l.1-.05 2.32-1.06c1.18-.69 2.35-1.37 2.35-1.37.57-.34 1.31-.14 1.65.43s.14 1.31-.43 1.65h-.01zM129.55 509s-1.35.26-2.69.45c-1.43.08-2.87.19-2.87.19-.64.04-1.18-.16-1.22-.79-.04-.64.45-.94 1.09-.94h.1s1.28-.35 2.57-.43c1.35-.2 2.69-.54 2.69-.54.64-.1 1.24.21 1.33.85.1.64-.34 1.2-.98 1.2h-.02zm-11.23.28-2.67-.54c-1.37-.39-2.75-.79-2.75-.79-.6-.17-.94-.79-.77-1.39s.79-.94 1.39-.77l.09.02 2.48.7 2.67.52c.62.12 1.02.72.9 1.34a1.14 1.14 0 0 1-1.34.9zm-10.62-3.55-2.36-1.36c-1.18-.81-2.35-1.61-2.35-1.61-.5-.34-.62-1.02-.28-1.52s1.02-.62 1.52-.28l.07.05 2.14 1.46c1.18.67 2.36 1.35 2.36 1.35.53.3.72.98.42 1.51s-.98.72-1.51.42v-.02zm-9.04-6.48-3.99-3.71a1.07 1.07 0 0 1-.06-1.5c.4-.43 1.07-.45 1.5-.06l4.01 3.68a1.075 1.075 0 1 1-1.45 1.59h-.01zm-7.82-7.79-3.42-4.24c-.36-.44-.29-1.09.15-1.45.44-.36 1.09-.29 1.44.15l3.45 4.22c.37.45.3 1.11-.15 1.47-.45.37-1.11.3-1.47-.15zm-6.61-8.83-2.76-4.69c-.28-.47-.12-1.09.35-1.37s1.08-.12 1.36.35l2.79 4.67c.29.48.13 1.1-.35 1.39-.48.29-1.1.13-1.39-.35zm-5.24-9.7-2.07-5.04c-.2-.49.03-1.06.53-1.26.49-.2 1.05.03 1.26.52l2.1 5.02c.21.5-.03 1.08-.53 1.28a.973.973 0 0 1-1.28-.52h-.01zm-3.83-10.31-1.38-5.27c-.11-.51.2-1.01.71-1.12a.93.93 0 0 1 1.1.64l1.41 5.26a.93.93 0 0 1-.65 1.15h-.02a.93.93 0 0 1-1.15-.65v-.02h-.02zm-2.12-10.71-.91-5.39c-.07-.49.19-.95.69-1.02.49-.07.9.27.98.77l.75 5.39c.07.5-.12.97-.62 1.04s-.88-.28-.88-.78h-.01zm-1.09-10.92-.4-5.44c-.02-.48.25-.88.73-.9s.82.36.84.84l.18 5.44c.02.49-.15.9-.64.92-.49.02-.71-.36-.71-.85zm0-10.99.05-5.44c.03-.46.29-.82.75-.79s.75.42.72.88l-.33 5.44c-.03.47-.17.83-.65.81-.47-.03-.55-.43-.55-.9h.01zm0-10.92.94-5.39c.06-.44.56-.75 1-.69s.79.47.73.91l-.71 5.39c-.06.45-.64.77-1.09.71s-.87-.48-.87-.93zm2.18-10.8 1.11-5.32c.09-.42.48-.69.9-.59.42.09.67.5.58.92l-1.13 5.33c-.09.43-.47.7-.89.61-.43-.09-.57-.51-.57-.94zm2.4-10.67 1.5-5.23c.11-.39.53-.62.92-.51s.62.53.51.92l-1.47 5.24c-.11.4-.53.64-.94.53a.772.772 0 0 1-.53-.94h.01zm3.17-10.48 1.81-5.13c.13-.37.54-.57.91-.44s.56.54.44.91l-1.78 5.15c-.13.38-.55.58-.93.45a.733.733 0 0 1-.45-.93zm3.79-10.28 2.1-5.02a.68.68 0 1 1 1.26.52l-2.07 5.04c-.15.36-.55.53-.91.38a.685.685 0 0 1-.38-.9v-.02zm4.36-10.03 2.38-4.9c.16-.32.55-.46.87-.3s.46.55.3.87l-2.35 4.91c-.16.33-.56.47-.89.31s-.47-.56-.31-.89zm4.91-9.76 2.65-4.76c.17-.3.54-.41.84-.24s.4.54.24.84l-2.62 4.77c-.17.31-.55.42-.86.25a.629.629 0 0 1-.26-.85h.01zm5.44-9.48 2.92-4.6c.17-.27.54-.35.81-.18s.35.53.18.81l-2.89 4.62a.602.602 0 1 1-1.02-.64zm6-9.16 3.26-4.36c.18-.25.53-.3.78-.11.24.18.3.53.11.77l-3.23 4.38c-.2.24-.56.28-.81.07a.572.572 0 0 1-.11-.75zm6.75-8.6 3.63-4.06c.19-.22.52-.23.74-.04.21.19.23.52.04.74l-3.61 4.08c-.2.22-.54.24-.76.05a.547.547 0 0 1-.05-.76h.01zm7.44-8.02 3.91-3.79c.2-.19.51-.18.7.01s.18.5 0 .69l-3.89 3.81c-.2.2-.52.19-.72 0-.2-.2-.19-.52 0-.72zm7.96-7.47 4.13-3.55a.46.46 0 1 1 .6.7l-4.1 3.58a.475.475 0 1 1-.62-.72zm8.36-7.04 4.29-3.35c.19-.15.45-.12.6.07s.12.45-.07.6l-4.27 3.38c-.19.15-.47.12-.62-.07s-.12-.47.07-.62zm8.66-6.65 3.47-2.5a.4.4 0 1 1 .47.65l-3.46 2.52c-.18.13-.44.09-.58-.09a.425.425 0 0 1 .09-.58h.01z"/><path class="bt" d="m123.92 646.65-5.34 1.05c-.68.13-1.34-.31-1.47-.99s.3-1.34.98-1.47l5.34-1.07c.69-.11 1.34.36 1.45 1.05.1.65-.31 1.27-.95 1.43h-.01zm-10.79 1.7-5.4.85c-.67.09-1.29-.32-1.38-.99s.38-1.26 1.05-1.35l5.39-.73c.68-.09 1.31.26 1.4.94s-.38 1.28-1.06 1.28zm-10.88 1.09-5.43.62c-.67.05-1.24-.34-1.29-1s.45-1.19 1.11-1.24l5.43-.39c.67-.05 1.26.24 1.31.91s-.45 1.1-1.12 1.1zm-10.95 1.09-5.44.03c-.65 0-1.19-.53-1.19-1.18s.52-1.19 1.17-1.19l5.44-.06c.66 0 1.2.53 1.21 1.19 0 .66-.52 1.22-1.18 1.22zm-10.98-.02-5.43-.45c-.64-.04-1.12-.63-1.08-1.27s.59-1.14 1.23-1.1l5.44.34c.65.04 1.14.67 1.09 1.31-.04.65-.6 1.16-1.25 1.16zm-10.95-1.07-5.38-.9c-.62-.1-1.04-.7-.94-1.32s.68-1.05 1.3-.95l5.38.85c.63.1 1.05.71.96 1.34-.1.63-.69.98-1.32.98zm-10.83-2.13-5.23-1.51c-.59-.17-.93-.79-.76-1.38s.79-.93 1.38-.76l5.24 1.49c.6.17.95.79.78 1.39-.17.6-.79.95-1.39.78h-.02zm-10.51-3.48-4.93-2.32c-.55-.26-.78-.91-.52-1.45s.91-.78 1.45-.52l4.94 2.3c.55.26.79.92.53 1.47-.26.55-.92.79-1.47.53zm-9.78-5.25s-1.09-.81-2.19-1.62c-.27-.2-.55-.4-.8-.59l-.23-.18-.17-.14-.32-.26-.66-.54c-.46-.37-.52-1.05-.15-1.5.37-.46 1.04-.52 1.5-.15 0 0 .26.22.66.54l.32.26.17.14.05.04.1.07c.26.19.53.39.81.59 1.1.8 2.2 1.61 2.2 1.61.48.35.59 1.03.23 1.51-.35.48-1.03.59-1.51.23h-.01zm-8.53-7.03-3.87-3.84c-.41-.41-.41-1.07 0-1.48s1.07-.42 1.47 0l3.88 3.82c.42.41.42 1.08.01 1.49-.41.42-1.08.42-1.49.01zm-7.58-7.98-3.39-4.26a1.03 1.03 0 0 1 .16-1.44c.44-.35 1.08-.28 1.43.16l3.41 4.25c.36.45.29 1.1-.16 1.45s-1.1.29-1.45-.16zm-6.6-8.81-2.86-4.63a.994.994 0 0 1 .33-1.37 1 1 0 0 1 1.37.31l2.88 4.62c.3.47.15 1.1-.32 1.39-.47.29-1.1.15-1.39-.32h-.01zm-5.49-9.55-2.29-4.94a.976.976 0 0 1 .47-1.3.956.956 0 0 1 1.28.45v.02l2.31 4.93c.23.49.02 1.08-.47 1.31s-1.08.02-1.31-.47h.01zM5.73 595.1l-1.7-5.17c-.16-.5.11-1.04.61-1.2.5-.16 1.04.1 1.2.6l1.72 5.16c.17.5-.1 1.05-.61 1.22-.5.17-1.05-.1-1.22-.61zm-3.46-10.53-.94-5.33c-.1-.5.3-.99.8-1.1s1.03.21 1.14.72l1.15 5.32c.11.51-.37 1.01-.88 1.12-.51.11-1.27-.22-1.27-.72zm-1.09-10.82-.79-5.42c-.05-.5.18-.94.68-.99s.87.31.92.81l.52 5.41c.05.5-.07.95-.57 1.01-.5.05-.76-.31-.76-.82zM.09 562.81 0 557.37c0-.49.11-.88.59-.88s.59.39.59.88v5.44c0 .49-.05.89-.54.89s-.54-.4-.54-.89zm0-10.97.6-5.41c.05-.47.49-.82.97-.77.47.05.83.47.78.94l-.53 5.42c-.05.48-.52.83-1 .78s-.83-.47-.83-.95zm1.09-10.89 1.25-5.34c.09-.45.63-.75 1.08-.66s.8.53.71.98l-1.01 5.34c-.09.46-.71.76-1.17.67s-.85-.53-.85-.99zm3.27-10.7 1.29-5.22c.13-.43.45-.68.88-.55s.61.58.49 1.01l-1.55 5.23c-.13.44-.35.69-.79.56s-1.41-.58-.33-1.02h.01zm2.83-10.46 2-5.07c.16-.41.62-.6 1.02-.44.41.16.61.61.45 1.02l-1.98 5.07c-.16.41-.62.62-1.04.46a.81.81 0 0 1-.46-1.04h.01zm4.24-10.1 2.43-4.87c.19-.38.65-.53 1.03-.34s.53.65.34 1.02l-2.41 4.88c-.19.38-.66.54-1.04.35s-.54-.66-.35-1.04zm5.11-9.69 1.42-2.32c.35-.58.71-1.16.98-1.6.28-.44.46-.73.46-.73.22-.35.68-.45 1.02-.23.35.22.45.68.23 1.02s-.18.29-.44.71c-.26.44-.62 1.02-.97 1.6-.7 1.16-1.41 2.33-1.41 2.33-.22.36-.68.47-1.04.26a.763.763 0 0 1-.26-1.04h.01zm5.9-9.21 3.19-4.41c.23-.32.68-.39 1-.16s.4.68.16 1l-3.17 4.43c-.24.33-.69.4-1.02.17a.735.735 0 0 1-.17-1.02h.01zm6.59-8.77 3.54-4.14c.25-.29.69-.33.98-.08s.33.69.08.98l-3.52 4.15c-.25.3-.7.33-1 .08s-.33-.7-.08-1zm7.31-8.14 3.91-3.79c.27-.26.69-.25.95.02s.25.69 0 .95l-3.89 3.8c-.27.26-.7.26-.97-.01a.7.7 0 0 1 0-.97zm8.06-7.42 4.29-3.35c.28-.22.69-.17.91.11s.17.69-.11.91l-4.27 3.37c-.29.23-.7.18-.93-.11-.23-.29-.18-.7.11-.93zm8.82-6.49s1.15-.72 2.31-1.44l.45-.28c.14-.08.29-.17.42-.25.28-.16.53-.31.75-.44l.73-.43c.3-.17.68-.07.86.23.17.3.08.68-.22.85l-.73.43c-.22.13-.48.28-.75.44-.14.08-.28.16-.42.25l-.41.26c-1.15.73-2.3 1.45-2.3 1.45-.3.19-.69.1-.88-.2-.19-.3-.1-.69.2-.88h-.01zm9.54-5.38 4.94-2.29c.3-.14.66 0 .8.29.14.3.01.66-.29.8l-4.93 2.31c-.31.14-.67.01-.82-.3-.14-.31 0-.67.29-.82zm10.02-4.52 5.12-1.76c.3-.11.63.09.74.39.11.3-.04.65-.35.76l-5.11 1.88c-.31.11-.65-.12-.76-.43s.05-.84.35-.84h.01zm10.35-3.27 5.25-1.45c.3-.08.6.08.68.38.08.3-.09.59-.39.67l-5.25 1.44c-.3.08-.61-.06-.7-.37-.08-.3.09-.67.4-.67 0 0 .01 0 0 0zm10.62-2.18 5.37-1.19c.29-.05.57.02.62.31s-.14.5-.43.55l-5.36.93c-.3.05-.58.09-.63-.2-.05-.3.14-.39.44-.39h-.01zm10.84-2.19 5.43-.3c.29 0 .52.24.52.53 0 .26-.2.48-.46.51l-5.43.36c-.29.02-.54-.23-.55-.52-.02-.29.2-.59.49-.59zm10.95 0 5.43.37c.27.02.47.2.44.47-.02.27-.26.44-.53.41l-5.43-.47c-.27-.02-.48-.16-.45-.43.02-.27.26-.35.54-.35zm10.87 1.08s1.31.47 2.62.84c1.31.46 2.61.97 2.61.97.24.09.37.37.28.62-.09.24-.35.38-.59.29h-.03s-1.26-.44-2.53-.88c-1.31-.36-2.62-.73-2.62-.73-.25-.07-.4-.43-.33-.68s.33-.43.58-.43zm10.2 4.29s1.14.75 2.28 1.49c1.09.87 2.18 1.73 2.18 1.73.19.15.22.43.07.62s-.43.22-.62.07l-.03-.03-2.09-1.65-2.28-1.48a.441.441 0 0 1-.14-.61c.14-.21.42-.27.62-.13zm8.24 7.26s.78 1.12 1.55 2.24c.68 1.21 1.37 2.42 1.37 2.42.11.2.04.45-.16.57s-.45.04-.57-.16l-.02-.03-1.32-2.32c-.78-1.12-1.56-2.23-1.56-2.23-.14-.19-.09-.46.1-.6s.46-.09.6.1h.01zm5.43 9.8.3 1.86c.06.21-.18.43-.39.5-.21.06-.49-.06-.55-.27l-.56-1.86c-.06-.21.27-.44.49-.5.21-.06.71.06.71.28z"/><path d="m136.48 623.01-1.03 18.91 14.63-7.16-13.6-11.75z" style="fill:url(#an)"/><path d="m231.31 618.61-59.05 40.91c-1.13.78-2.58 1.11-4.01.9-1.43-.21-2.72-.93-3.57-2l-44.79-56.22c-.51-.64-.55-1.49-.09-2.15.46-.66 1.31-.99 2.17-.83l109.35 19.4z" style="fill:url(#ao)"/><path d="m136.49 623.01 94.82-4.4-87.62 13.5-.54 5.22-6.66-14.32z" style="fill:url(#ap)"/><path d="m148 637.47-12.55 4.45 8.24-9.81 4.31 5.36z" style="fill:url(#aq)"/></g><g class="dl"><g class="dz"><path class="bt" d="m272.5 342.58-140.55-.78c-5.75-.03-9.33 6.24-6.37 11.17l.71 1.18a7.385 7.385 0 0 0 6.33 3.58h139.84c4.07 0 7.38-3.3 7.38-7.38v-.39c0-4.06-3.28-7.35-7.34-7.38zm19.64 7.55v.23c0 4.07 3.3 7.38 7.38 7.38h31.2c3.34 0 6.27-2.25 7.13-5.47 1.25-4.66-2.25-9.25-7.07-9.28l-31.2-.23a7.373 7.373 0 0 0-7.43 7.32v.06h-.01z"/></g><g class="dz"><path class="bt" d="m238.69 369.07-106.74-.78c-5.75-.03-9.33 6.24-6.37 11.17l.71 1.18a7.385 7.385 0 0 0 6.33 3.58h106.04c4.07 0 7.38-3.3 7.38-7.38v-.39c0-4.06-3.28-7.35-7.34-7.38h-.01zm19.64 7.54v.23c0 4.07 3.3 7.38 7.38 7.38h31.2c3.34 0 6.27-2.25 7.13-5.47 1.25-4.66-2.25-9.25-7.07-9.28l-31.2-.23a7.373 7.373 0 0 0-7.43 7.32v.06h-.01z"/></g></g><g class="dl"><g class="dz"><path class="bt" d="m800.62 612.04-140.55-.78c-5.75-.03-9.33 6.24-6.37 11.17l.71 1.18a7.385 7.385 0 0 0 6.33 3.58h139.84c4.07 0 7.38-3.3 7.38-7.38v-.39c0-4.06-3.28-7.35-7.34-7.38zm19.63 7.54v.23c0 4.07 3.3 7.38 7.38 7.38h31.2c3.34 0 6.27-2.25 7.13-5.47 1.25-4.66-2.25-9.25-7.07-9.28l-31.2-.23a7.373 7.373 0 0 0-7.43 7.32v.06h-.01z"/></g><g class="dz"><path class="bt" d="m766.81 638.52-106.74-.78c-5.75-.03-9.33 6.24-6.37 11.17l.71 1.18a7.385 7.385 0 0 0 6.33 3.58h106.04c4.07 0 7.38-3.3 7.38-7.38v-.39c0-4.06-3.28-7.35-7.34-7.38h-.01zm19.63 7.54v.23c0 4.07 3.3 7.38 7.38 7.38h31.2c3.34 0 6.27-2.25 7.13-5.47 1.25-4.66-2.25-9.25-7.07-9.28l-31.2-.23a7.373 7.373 0 0 0-7.43 7.32v.06h-.01z"/></g></g><g><path d="M634.42 474.01c.21.09.4.18.59.28.19-.56.19-1.21-.26-1.89-1.28-1.96 1.03-4.63 1.03-4.63s.15 2.35 1.94 3.84c1.54 1.28 2.28 4.12 1.23 6.45-2.23 8.66-5.57 20.11 7.44 28.48s31.32-15.79 31.32-15.79l-9.09 28.82s-14.03 10.35-30.35-4.21-5.5-35.75-5.5-35.75-2.47-7.4 1.65-5.59z" style="fill:url(#ar)"/><path d="M679.99 448.4s-3.77-16.9 15.59-12.43c0 0 9.4-1.54 9.88 7.33 0 0 6.06 3.99 1.62 11.67 0 0 18-6.95 25.85 8.83 7.84 15.78.63 24.46-6.92 26.72 0 0 6.12 3.07 3.23 10.02-2.9 6.94-17.58 11.84-26.25 3.39 0 0-24.67 3.26-24.18-14.17 0 0-11.48-7.41.58-21.81 12.05-14.4.62-19.55.62-19.55h-.02z" style="fill:url(#as)"/><path d="M678.93 487.57c3.89-1.17 15.22-3.32 25.99 6.62a6.674 6.674 0 0 1 1.92 6.65c-2.89 10.65-10.53 42.13-3.83 55.75 0 0-11.8 13.01-24.67 2.52 0 0-5.78-25.17-13.34-36.22-5.22-7.63 8.33-28.65 11.76-33.72.52-.77 1.28-1.34 2.17-1.6z" style="fill:url(#at)"/><path d="M689.67 466.41s5.75 16.27 6.19 23.45c0 0-6.36 2.89-12.35-1.99 0 0-.63-16.26-1.54-19.17l7.7-2.3z" style="fill:url(#au)"/><path d="M681.68 444.22s-15.05 21.06-6.05 27.18 19.71-8.85 19.71-8.85 3.49-11.53-.16-15.44c-3.65-3.91-13.5-2.89-13.5-2.89z" style="fill:url(#av)"/><path d="M688.64 439.18s-6.91 1.64-7.88 4.77c-.97 3.13 9.8 6.03 12.82 6.17l2.43 12.62s7.19-11.87 4.34-18.73c-2.85-6.86-11.71-4.83-11.71-4.83z" style="fill:url(#aw)"/><path d="M692.41 460.99s5.86-6.78 8.19-2.36-5.27 7.74-7.9 5.57l-.28-3.21z" style="fill:url(#ax)"/><path d="M663.31 611.96c.04 1.14-1.96 10.21-3.05 15.04-.44 1.95-.13 3.98.86 5.71l37.81 63.64c.46.77.79 1.6.99 2.48.69 2.99 2.13 10.31 1.38 16.96l-1.96 4.06 8.46-1.92 1.84-22.72-2.39-1.46a11.36 11.36 0 0 1-4.6-5.39c-3.42-8.31-11.91-29.45-14.1-39.75-2.49-11.71-15.49-21.22-15.49-21.22l2.28-5.4-12.03-10.04z" style="fill:url(#ay)"/><path d="M717.2 710.12s-4.57-7.24-5.11-10.06-2.03-7.8-4.85-6.3c0 0-1.33 13.7-.87 19.05s-6.05 5.18-6.05 5.18-1.79.25-3.11 1.57c-.91.91-.26 2.48 1.02 2.56 2.13.14 5.51.17 9.06-.51 1.24-.24 2.16-1.3 2.24-2.56l.94-15.76 5.76 7.28.96-.44z" style="fill:url(#az)"/><path d="M685.9 622.1s1.33 56.92 1.51 65.01c.18 8.08-1.28 26-9.38 31.36l3.53 2.61s4.41-3.75 8.71-10.96c4.84-8.1 6.3-9.58 6.3-9.58l-1.61-3.29c-.7-1.44-.91-3.07-.59-4.64 1.75-8.48 7.59-36.67 9.19-42.74 1.88-7.17 2.02-16.74-4.53-24.75-6.55-8.01-13.14-3.03-13.14-3.03h.01z" style="fill:url(#ba)"/><path d="M693.38 723.64c.25 0 .47-.18.5-.43.27-1.9 1.39-9.51 2.31-11.48 1.05-2.26 4.49-11.75 0-12.56 0 0-11.17 16.32-13.31 18.52s-4.85.77-4.85.77-2.09.62-3.66 2.63c-.75.96-.05 2.36 1.17 2.38l7.52.07c2.18.02 4.15-1.31 4.96-3.33 1.32-3.31 3.6-8.16 6.25-10.31l-1.38 13.19c-.03.27.17.52.45.55h.04z" style="fill:url(#bb)"/><path d="M676.56 552.98s1.7 5.4-.91 14.3l-16.15 56.41c-.25.89.22 1.81 1.09 2.13 4.83 1.73 20.72 6.64 42.4 5.14 1.09-.08 2.01-.85 2.24-1.92 1.43-6.43 6.3-28.37 7.31-32.88 3.82-17.18 8.1-35.71-10.69-46.91-8.66 3.71-16.73 5.89-25.29 3.73z" style="fill:url(#bc)"/><path d="M706.46 496.32s18.38 15.28 22.94 36.15c4.56 20.87-26.86 23.09-26.86 23.09s-4.27-4.76-9.33-3.06-.39-8.31 5.53-8.29c5.92.03 3.18 4.71 11.56.91 8.16-3.7 13.21-15.14-7.62-32.47-1.21-1.01-2.17-2.29-2.75-3.75-4.05-10.19-.84-16.87 6.52-12.58z" style="fill:url(#bd)"/><path d="M642.95 472.05s1.41-2.55 1.26-4.6c-.15-2.05 1.13-5.07-.23-4.84-1.36.22-1.64.04-2.01 2.5s-3.69 11.55.99 6.94h-.01z" style="fill:url(#be)"/><path d="M632.66 456.81c.02-.39.2-.74.51-.98.31-.23.7-.32 1.08-.24l9.39 2.14c.36.08.61.43.57.8l-2.73 24.4a.41.41 0 0 1-.15.27c-.08.07-.19.1-.29.08l-8.19-.99c-.67-.08-1.17-.66-1.14-1.34l.97-24.14h-.02z" style="fill:url(#bf)"/><path d="M635.3 458.22c.01-.22.12-.42.3-.55.18-.13.4-.17.61-.12l6.18 1.54c.36.09.59.43.55.79l-2.34 20.78c-.01.11-.07.21-.16.27-.09.07-.2.09-.31.07l-5.7-1.01a.392.392 0 0 1-.33-.41l1.19-21.37h.01z" style="fill:url(#bg)"/><path d="M638.85 457.66c-.02.07.09.16.23.19l2.07.43c.14.03.27 0 .28-.08v-.07c.03-.07-.07-.16-.21-.19l-2.07-.43c-.14-.03-.27 0-.28.08v.07h-.02z" style="fill:url(#bh)"/><path d="M629.4 463.01c1.52-.56 4.48-5.7 5.05-4.01s-.24 4.01 0 4.72c.24.72 1.88 4.71 1.14 6.55-.53 1.33-1.41 5.4-1.86 7.57a1.553 1.553 0 0 1-3.04.01c-.06-.29-2.82-14.28-1.3-14.84h.01z" style="fill:url(#bi)"/></g><path class="bt" d="M642.24 450.83c0-1.12.05-2.23.18-3.34.05-.37.4-.62.77-.57.36.05.61.37.57.73-.13 1.06-.19 2.12-.19 3.18 0 .37-.3.67-.66.67s-.67-.29-.67-.66zm2.06-10.91c.4-1.04.85-2.06 1.34-3.05.17-.35.59-.49.94-.31.35.17.49.59.31.94-.48.96-.92 1.93-1.3 2.93-.14.36-.54.53-.89.39a.676.676 0 0 1-.39-.88v-.02zm5.46-9.61c.68-.88 1.39-1.73 2.13-2.55.27-.3.73-.32 1.02-.05.3.27.32.73.05 1.02-.72.79-1.41 1.61-2.07 2.46-.24.31-.69.37-1.01.12a.715.715 0 0 1-.13-1h.01zm7.8-7.83c.87-.68 1.77-1.34 2.68-1.96.34-.23.81-.14 1.04.2.23.34.14.81-.2 1.04-.89.6-1.76 1.22-2.61 1.88-.32.25-.79.19-1.04-.13s-.2-.79.13-1.04zm9.47-5.68c1.02-.44 2.05-.85 3.11-1.2.4-.14.84.08.98.49s-.08.84-.49.98c-1.01.34-2.01.72-2.99 1.14-.39.17-.84 0-1.01-.4-.17-.39 0-.84.4-1.01zm10.72-2.84c.56-.03 1.12-.09 1.68-.09l1.67-.03c.44 0 .8.35.81.79 0 .44-.35.8-.79.81h-.05l-1.6.02c-.53 0-1.06.06-1.59.08h-.06c-.43.02-.8-.31-.83-.74-.02-.44.31-.81.75-.84h.01zm11.08.94c1.08.3 2.15.66 3.19 1.09.42.17.62.65.45 1.08-.17.42-.65.62-1.08.45-.97-.41-1.97-.75-2.99-1.04a.83.83 0 0 1-.58-1.01c.12-.44.57-.69 1.01-.57zm9.93 5.08c.87.7 1.71 1.45 2.5 2.25.33.33.33.87 0 1.2-.33.33-.87.33-1.2 0a27.99 27.99 0 0 0-2.35-2.14.83.83 0 0 1-.13-1.17c.29-.37.82-.43 1.18-.14zm7.33 8.36c.6.94 1.15 1.9 1.68 2.88.23.43.07.96-.36 1.18-.43.23-.96.07-1.18-.36-.5-.95-1.03-1.87-1.6-2.78a.872.872 0 0 1 .27-1.2c.39-.26.92-.15 1.18.25 0 0 0 .01.01.02zm4.8 9.98 1.04 3.14c.15.46-.1.96-.56 1.12-.46.15-.96-.1-1.12-.56s-.01-.04-.01-.04l-1.01-3.06v-.04c-.17-.46.08-.96.55-1.11s.96.1 1.11.56zm2.92 10.59.62 3.24c.09.48-.22.95-.71 1.05a.905.905 0 0 1-1.05-.71v-.03l-.61-3.18v-.03c-.1-.48.21-.94.69-1.04h.01c.48-.09.95.22 1.04.71h.01zm1.67 10.84.25 3.29c.04.5-.33.93-.83.97s-.93-.33-.97-.83 0-.04 0-.04l-.24-3.22v-.03c-.04-.5.33-.93.83-.96.5-.04.93.33.96.83zm.33 10.98-.22 3.3c-.03.5-.47.88-.97.85a.922.922 0 0 1-.85-.97v-.05l.22-3.21v-.04c.04-.5.47-.88.97-.85s.88.47.85.97zm-1.41 10.95-.81 3.22c-.12.49-.62.79-1.12.67a.934.934 0 0 1-.67-1.12v-.05l.8-3.12v-.05a.93.93 0 0 1 1.13-.66c.49.12.79.62.66 1.11h.01zm-3.35 10.51-1.36 3.02c-.21.47-.76.68-1.23.47s-.68-.76-.47-1.23.02-.04.02-.04l1.32-2.94.02-.04c.21-.47.76-.67 1.22-.46.47.21.67.76.46 1.22h.02zm-5.08 9.79-1.81 2.77c-.28.43-.86.55-1.3.27a.948.948 0 0 1-.27-1.3l.02-.04 1.77-2.7.02-.03c.28-.43.86-.55 1.29-.27s.55.86.27 1.29zm-6.48 8.93-2.17 2.49c-.34.39-.94.43-1.33.09a.947.947 0 0 1-.09-1.33l.02-.03 2.13-2.43.02-.03c.34-.39.94-.43 1.33-.09s.43.94.09 1.33zm-7.58 7.97-2.45 2.21c-.39.35-.99.32-1.35-.07a.96.96 0 0 1 .07-1.35l.02-.02 2.41-2.16.02-.02a.948.948 0 0 1 1.3 1.38l-.03.03zm-8.43 7.04-2.67 1.94a.959.959 0 1 1-1.13-1.55l.02-.02 2.62-1.9.02-.02a.959.959 0 1 1 1.13 1.55zm-9.1 6.16-2.84 1.67c-.46.27-1.06.12-1.33-.34s-.12-1.06.34-1.33h.02l2.79-1.65h.02a.97.97 0 0 1 1.33.32c.27.46.12 1.05-.34 1.33h.01zm-9.62 5.27-2.98 1.41a.995.995 0 0 1-1.31-.46.995.995 0 0 1 .46-1.31h.02l2.93-1.4h.02a.97.97 0 0 1 1.3.44.98.98 0 0 1-.46 1.3h.02v.02zm-10.06 4.4-3.09 1.14a.989.989 0 0 1-1.27-.58.989.989 0 0 1 .58-1.27h.03l3.04-1.12h.03a.973.973 0 0 1 1.26.57.984.984 0 0 1-.57 1.27h-.01zm-10.42 3.45-3.19.84c-.53.14-1.08-.18-1.22-.71-.14-.53.18-1.08.71-1.22s.03 0 .03 0l3.13-.81h.03a.975.975 0 0 1 1.2.68v.02a.992.992 0 0 1-.71 1.21h.02zm-10.72 2.38-3.26.51c-.55.09-1.06-.29-1.15-.84-.09-.55.29-1.06.84-1.15h.03l3.2-.5h.03c.55-.09 1.06.29 1.15.83.08.55-.29 1.06-.84 1.15zm-10.9 1.33-3.29.19c-.56.02-1.03-.42-1.06-.98-.02-.55.39-1.01.94-1.05h.03l3.23-.18h.03c.56-.03 1.04.39 1.07.95s-.39 1.04-.95 1.07zm-10.99.25-3.29-.13c-.56-.02-1-.5-.98-1.06s.5-1 1.06-.98h.03l3.24.13h.03c.56.02 1 .5.98 1.06s-.5 1-1.06.98h-.01zm-10.95-.8-3.27-.45c-.56-.08-.96-.6-.88-1.16s.6-.96 1.16-.88.03 0 .03 0l3.21.44h.03c.56.08.96.6.88 1.16s-.6.96-1.16.88zm-10.83-1.83-3.21-.76c-.56-.13-.91-.69-.77-1.25.13-.56.69-.91 1.25-.77s.03 0 .03 0l3.15.75h.03c.56.14.9.7.77 1.26s-.69.9-1.25.77zm-10.6-2.89-3.12-1.07c-.55-.19-.84-.78-.65-1.33s.78-.84 1.33-.65.03.01.03.01l3.06 1.05h.03c.55.2.84.79.65 1.34-.19.55-.78.84-1.33.65zm-10.27-3.92-3-1.38c-.53-.24-.76-.87-.52-1.4s.87-.76 1.4-.52.03.01.03.01l2.94 1.35h.03c.53.26.76.88.52 1.41-.24.53-.87.76-1.4.52zm-9.82-4.92-2.84-1.67c-.51-.3-.68-.95-.38-1.46s.95-.68 1.46-.38.03.02.03.02l2.79 1.64.03.02c.51.3.67.95.38 1.46-.3.51-.95.68-1.46.38h-.01zm-9.28-5.9-2.67-1.93a1.073 1.073 0 1 1 1.26-1.74l.02.02 2.62 1.9.02.02a1.073 1.073 0 1 1-1.26 1.74zm-8.7-6.73-2.49-2.16c-.45-.39-.5-1.08-.11-1.53s1.08-.5 1.53-.11.02.02.02.02l2.45 2.12.02.02c.45.39.5 1.07.11 1.53-.39.45-1.07.5-1.52.11h-.01zm-8.08-7.42-2.3-2.35a1.1 1.1 0 0 1 .08-1.54c.42-.38 1.06-.37 1.48.02l.02.02 2.27 2.31.02.02c.42.43.41 1.12-.01 1.54-.43.42-1.12.41-1.54-.01h-.02zm-7.46-8.06-2.12-2.52c-.38-.46-.32-1.14.13-1.52.46-.38 1.14-.32 1.52.13v.02l2.11 2.48.02.02c.38.46.33 1.14-.13 1.52-.46.38-1.14.33-1.52-.13h-.01zm-6.85-8.56-1.94-2.65a1.08 1.08 0 0 1 .23-1.5 1.08 1.08 0 0 1 1.5.23v.02l1.93 2.62v.02c.36.48.26 1.15-.22 1.5s-1.15.25-1.5-.23zm-6.27-9.01-1.77-2.77c-.32-.49-.17-1.15.32-1.47s1.15-.17 1.47.32 1.75 2.75 1.75 2.75v.02c.33.5.18 1.15-.31 1.47-.5.32-1.15.17-1.47-.32zm-5.7-9.35-1.6-2.87c-.28-.51-.1-1.15.41-1.44.51-.28 1.15-.1 1.44.41s1.59 2.85 1.59 2.85v.02c.29.51.11 1.15-.4 1.44s-1.15.1-1.44-.4zm-5.16-9.67-1.45-2.95c-.25-.52-.04-1.15.48-1.4s1.15-.04 1.4.48 1.44 2.93 1.44 2.93c.26.53.04 1.16-.48 1.42s-1.15.04-1.4-.48h.01zm-4.65-9.9-1.3-3.01c-.23-.53.02-1.14.54-1.37.53-.23 1.14.02 1.37.54s1.29 3 1.29 3c.23.54-.01 1.15-.54 1.38s-1.14-.01-1.37-.54zm-4.18-10.11-1.17-3.06c-.2-.53.06-1.13.59-1.33.53-.2 1.13.06 1.33.59s1.17 3.05 1.17 3.05c.2.54-.06 1.14-.59 1.35-.53.2-1.13-.06-1.34-.59h.01zm-3.77-10.27-1.06-3.1c-.18-.54.1-1.12.64-1.3s1.12.1 1.3.64l1.06 3.09c.21.53-.06 1.12-.58 1.33a1.03 1.03 0 0 1-1.33-.58c0-.02-.02-.05-.03-.08zm-3.42-10.37-.97-3.13c-.17-.54.13-1.1.67-1.27.54-.17 1.1.13 1.27.67s.97 3.12.97 3.12c.17.55-.13 1.12-.67 1.28s-1.11-.13-1.27-.67zm-3.13-10.46-.89-3.15c-.15-.54.16-1.09.7-1.24s1.09.16 1.24.7.89 3.14.89 3.14a1.012 1.012 0 1 1-1.95.55h.01zm-2.89-10.52-.83-3.16c-.14-.53.18-1.08.71-1.22s1.08.18 1.22.72l.83 3.15c.14.53-.17 1.08-.71 1.23-.54.14-1.08-.18-1.23-.71h.01zm-2.72-10.58-.79-3.17a.99.99 0 0 1 1.92-.48l.79 3.17c.13.53-.19 1.07-.72 1.21-.53.13-1.07-.19-1.21-.72zm-2.6-10.6-.77-3.18a.987.987 0 1 1 1.92-.46l.77 3.17a.982.982 0 0 1-.71 1.19.982.982 0 0 1-1.19-.71h-.02zm-2.55-10.6-.76-3.18c-.13-.52.2-1.05.72-1.18s1.05.2 1.18.72l.77 3.18a.981.981 0 0 1-.76 1.16c-.5.1-1-.2-1.14-.7zm-2.55-10.58-.77-3.17c-.13-.52.19-1.04.71-1.17s1.04.19 1.17.71l.78 3.17a.964.964 0 0 1-.7 1.17h-.01a.964.964 0 0 1-1.17-.7l-.01-.01zm-2.59-10.58-.78-3.17a.962.962 0 0 1 .7-1.16.96.96 0 0 1 1.17.7l.79 3.17a.96.96 0 0 1-.7 1.17.96.96 0 0 1-1.17-.7h-.01zm-2.63-10.58-.81-3.16a.966.966 0 0 1 .73-1.14c.49-.11.98.18 1.12.67l.81 3.17a.966.966 0 0 1-.73 1.14.948.948 0 0 1-1.12-.67zm-2.72-10.55-.84-3.15c-.14-.5.16-1.02.67-1.16.5-.14 1.02.17 1.16.67l.84 3.16a.956.956 0 0 1-.67 1.16.956.956 0 0 1-1.16-.67zm-2.83-10.53-.88-3.14a.94.94 0 0 1 1.81-.51l.88 3.15a.94.94 0 0 1-1.81.51zm-2.97-10.48-.92-3.13c-.17-.48.08-1.02.56-1.19s1.02.08 1.19.56c.01.03.02.06.03.1l.93 3.14a.932.932 0 0 1-.62 1.16.932.932 0 0 1-1.16-.62v-.02zm-3.16-10.42-.98-3.11c-.15-.49.12-1.01.6-1.16s1 .11 1.16.6l.99 3.12c.16.48-.11 1-.59 1.16-.48.16-1-.11-1.16-.59l-.02-.02zm-3.35-10.35-1.05-3.09c-.16-.48.09-1 .57-1.17.48-.16 1 .09 1.16.57l1.06 3.1c.16.48-.09 1-.57 1.16s-1-.09-1.16-.57h-.01zm-3.58-10.26-1.13-3.06c-.17-.48.07-1 .54-1.17s.99.07 1.16.54l1.14 3.07c.17.47-.07.99-.54 1.17s-.99-.07-1.17-.54zm-3.85-10.17-1.21-3.02c-.18-.47.04-.99.5-1.18.46-.18.98.04 1.17.5l1.22 3.04c.19.46-.04.99-.5 1.17a.894.894 0 0 1-1.17-.49h-.01v-.02zm-4.15-10.05-1.31-2.98c-.2-.46 0-.98.46-1.18.45-.2.98 0 1.17.46l1.32 3c.2.45 0 .98-.46 1.18-.45.2-.98 0-1.18-.46v-.02zm-4.49-9.89-1.42-2.93a.898.898 0 0 1 .41-1.19c.44-.21.97-.03 1.18.41l1.43 2.95c.2.45 0 .97-.46 1.16-.42.18-.92 0-1.13-.39s0-.01 0-.01zm-4.85-9.71-1.53-2.87c-.23-.43-.06-.96.36-1.19s.95-.07 1.18.36l1.55 2.89c.23.43.07.96-.36 1.19s-.96.07-1.19-.36v-.02zm-5.25-9.51-1.65-2.8c-.24-.41-.1-.93.3-1.17s.91-.11 1.15.29 1.68 2.83 1.68 2.83c.24.41.11.93-.3 1.17a.86.86 0 0 1-1.17-.29l-.02-.02h.01zm-5.67-9.26-1.79-2.72c-.25-.39-.15-.9.24-1.16.38-.25.89-.15 1.14.23l1.82 2.73c.25.38.15.9-.23 1.15s-.9.15-1.16-.23h-.02zm-6.13-8.93-1.97-2.56-.02-.03a.806.806 0 0 1 .2-1.13c.34-.24.81-.18 1.08.14l2.02 2.61c.27.35.21.86-.14 1.14-.35.27-.86.21-1.14-.14s-.02-.03-.02-.03zm-6.96-8.22-2.3-2.28-.02-.02c-.31-.3-.31-.8 0-1.11.3-.31.8-.31 1.1 0l2.35 2.32c.31.31.31.81 0 1.12s-.81.31-1.12 0l-.02-.02zm-7.98-7.27-2.57-1.98-.02-.02c-.33-.26-.4-.73-.14-1.07s.73-.4 1.07-.14l2.62 2c.34.26.4.74.14 1.08-.26.34-.74.4-1.08.14s-.02-.02-.02-.02zm-8.83-6.18-2.79-1.64h-.02a.76.76 0 0 1-.26-1.03c.21-.35.66-.47 1.01-.27l2.85 1.66c.36.21.48.66.27 1.02-.2.35-.65.48-1.01.28h-.01l-.02-.02h-.02zm-9.55-5.02-2.98-1.26h-.03a.719.719 0 0 1-.38-.95c.15-.37.57-.54.94-.38l3.04 1.27c.37.15.54.58.39.95s-.57.54-.94.39h-.04v-.02zm-10.13-3.69-3.13-.81h-.03c-.37-.11-.6-.49-.5-.86s.48-.6.85-.5l3.2.82c.38.1.6.48.51.86-.1.38-.48.6-.86.51s-.03 0-.03 0v-.02h-.01zM357 182.33l-3.22-.3h-.03a.688.688 0 0 1-.61-.74c.04-.37.36-.64.73-.61l3.29.3c.37.05.64.39.6.76-.04.36-.36.62-.72.6H357z"/><g><path d="M42.81 60.97c-3.22-15.3 12.39-38.72 46-22.35.21-7.4 38.08-33.83 60.96 12.41 2.1-11.91 31.63-8.73 38.64 10.44 10.46-5.84 38.89 16.11 4.58 23.48-43.82 9.41-145.47 17.12-166.09-7.81C6.27 52.21 42.82 60.97 42.82 60.97h-.01z" style="fill:url(#bj);opacity:.4;isolation:isolate"/><path d="M238.13 98.99c-1.78-8.46 6.85-21.4 25.42-12.36.11-4.09 21.05-18.7 33.69 6.86 1.16-6.58 17.48-4.83 21.36 5.77 5.78-3.23 21.5 8.9 2.53 12.98-24.22 5.2-80.4 9.46-91.8-4.31-11.4-13.78 8.8-8.94 8.8-8.94z" style="opacity:.4;isolation:isolate;fill:url(#bk)"/></g></svg>