<?xml version="1.0" encoding="utf-8"?>
<!-- Generator: Adobe Illustrator 26.4.1, SVG Export Plug-In . SVG Version: 6.00 Build 0)  -->
<svg version="1.1" id="Capa_1" xmlns="http://www.w3.org/2000/svg" xmlns:xlink="http://www.w3.org/1999/xlink" x="0px" y="0px"
	 viewBox="0 0 512 512" style="enable-background:new 0 0 512 512;" xml:space="preserve">
<g>
	<path id="Path_2520" d="M436.3,436.3h-75.8V317.6c0-28.4-0.5-64.8-39.5-64.8c-39.5,0-45.5,30.9-45.5,62.8v120.9h-75.8V191.9h72.9
		v33.4h1.1c14.9-25.4,42.5-40.6,71.9-39.5c76.9,0,91.1,50.6,91.1,116.4L436.3,436.3z M114,158.6c-24.4,0-44-19.8-44-44
		s19.8-44,44-44s44,19.8,44,44C158,138.8,138.3,158.6,114,158.6L114,158.6 M151.9,436.3H75.9V191.9h75.9V436.3z M474.2,0.1H37.8
		C17.1-0.1,0.4,16.4,0,37v438.1c0.2,20.7,17.1,37.1,37.7,36.9H474c20.7,0.2,37.6-16.3,38-36.9V37C511.8,16.3,494.7-0.2,474.2,0.1"/>
</g>
</svg>
