<svg xmlns="http://www.w3.org/2000/svg" viewBox="0 0 46.89 46.89"><path d="M28.14 9.38V1.04c0-.77.26-1.03 1.01-1.03h15.19c.73 0 .99.27.99 1.01v8.37c.24 0 .46-.01.68 0 .54.04.87.44.76.97-.21 1.02-.43 2.03-.66 3.05-.11.49-.39.67-.98.67h-16.7c-.75 0-.94-.15-1.1-.88-.19-.86-.38-1.71-.56-2.57-.19-.9.08-1.23 1.01-1.24h.37zM43.75 1.6H29.74v7.78c1.7 0 3.36.02 5.02 0 .62 0 1.1.09 1.22.77h1.5c.25-.66.4-.76 1.09-.76h5.18V1.6zM28.76 12.48h15.95c.11-.51.21-1.01.32-1.53h-5.9c-.28.67-.42.77-1.13.77-.83 0-1.66-.02-2.49 0-.59.02-1.03-.14-1.14-.76h-5.93c.11.51.21.99.32 1.51zM11.89 43.76c.17.7.33 1.33.48 1.96.18.77-.12 1.16-.91 1.16H5.75c-.79 0-1.09-.39-.91-1.16.15-.63.31-1.26.48-1.96-1.01 0-1.98.01-2.95 0-1.16-.02-2.09-.8-2.31-1.93-.04-.19-.04-.39-.04-.58v-7.47c0-1.55.98-2.52 2.54-2.52h12.11c1.56 0 2.54.97 2.54 2.52v7.47c0 1.53-.98 2.5-2.5 2.51h-2.8zm3.74-4.71c0-1.86.01-3.68 0-5.5 0-.48-.36-.73-.91-.73H2.52c-.66 0-.94.28-.94.96v5.27h14.05zm-14.06 1.6v.39c0 .93.22 1.16 1.13 1.16H14.66c.58 0 .91-.22.96-.68.03-.28 0-.57 0-.86H1.56zm4.98 4.67h4.11c-.12-.49-.2-.9-.32-1.3-.04-.11-.21-.25-.32-.25-.94-.02-1.88-.02-2.82 0-.11 0-.29.14-.33.24-.13.41-.21.84-.32 1.31zM17.4 20.93c-.38-.49-.7-.9-1.03-1.32-.4-.53-.39-.86.08-1.32.62-.62 1.24-1.25 1.87-1.86.43-.42.77-.44 1.25-.09.44.33.87.66 1.37 1.05.08-.62.14-1.14.22-1.67.1-.67.33-.87.99-.87h2.64c.58 0 .83.22.92.79.09.56.15 1.12.24 1.76.48-.37.9-.7 1.32-1.02.53-.4.86-.39 1.33.07l1.83 1.83c.48.48.49.81.07 1.36-.31.41-.63.82-1.01 1.3.57.07 1.06.13 1.56.2.82.12 1 .32 1 1.14v2.49c0 .61-.21.86-.81.95-.54.08-1.09.15-1.74.24.36.46.68.86.99 1.27.46.6.45.9-.08 1.44-.6.6-1.19 1.2-1.8 1.79-.45.44-.79.46-1.29.09-.43-.32-.84-.66-1.35-1.05-.06.5-.12.92-.17 1.35-.12 1.05-.29 1.21-1.34 1.21h-2.34c-.57 0-.83-.22-.92-.79-.08-.54-.15-1.09-.24-1.76-.45.35-.84.65-1.23.95-.65.51-.93.49-1.51-.09-.6-.6-1.2-1.19-1.79-1.8-.4-.41-.42-.76-.08-1.21.33-.44.68-.87 1.08-1.39-.5-.06-.92-.12-1.35-.17-1.06-.12-1.21-.28-1.21-1.34v-2.34c0-.58.22-.83.79-.92.56-.09 1.11-.15 1.76-.24zm5.25-4.51c-.07.56-.13 1.11-.21 1.65-.14.95-1.33 1.43-2.09.85-.43-.33-.87-.67-1.27-.99-.41.39-.77.74-1.16 1.12.33.42.62.85.97 1.23.36.41.37.81.17 1.3-.21.52-.5.85-1.09.88-.51.03-1.02.12-1.53.19v1.59c.55.07 1.08.13 1.61.2.98.13 1.47 1.33.87 2.11-.33.43-.67.86-.96 1.23.4.42.74.79 1.1 1.18.41-.32.84-.59 1.2-.94.52-.51 1.01-.31 1.56-.08.49.2.6.59.65 1.05.05.49.13.98.19 1.46h1.59c.07-.57.13-1.12.21-1.67.14-.91 1.33-1.39 2.07-.84.44.33.87.67 1.25.97.41-.39.78-.74 1.18-1.11-.31-.41-.62-.83-.96-1.22-.34-.4-.36-.78-.16-1.25.21-.51.47-.87 1.07-.9.52-.03 1.03-.12 1.54-.18v-1.6c-.59-.07-1.16-.13-1.72-.22-.85-.14-1.32-1.34-.8-2.02.34-.45.69-.89.99-1.27-.39-.43-.73-.81-1.09-1.2-.42.33-.84.61-1.21.95-.44.41-.87.35-1.39.14-.52-.21-.77-.54-.81-1.09-.03-.5-.12-.99-.19-1.5h-1.59zM46.89 38.29v6c0 1.63-.95 2.59-2.57 2.59h-5.86c-1.53 0-2.51-.98-2.52-2.49v-12.2c0-1.52.99-2.49 2.52-2.49h5.91c1.55 0 2.51.98 2.52 2.54v6.05zm-8.64-7.04c-.55.11-.74.45-.74.95v12.15c0 .67.28.96.94.96h5.95c.63 0 .92-.29.92-.93V32.23c0-.62-.16-.83-.75-.96-.01.08-.03.15-.04.23-.23 1.32-1.13 2.09-2.47 2.1h-1.02c-1.68 0-2.49-.67-2.79-2.35zm1.61.02c.07.5.33.74.78.76.52.02 1.04.02 1.56 0 .48-.02.7-.27.73-.76h-3.07zM0 8.6V2.55C0 .96.97 0 2.57 0h8.93c1.62 0 2.57.96 2.57 2.59V14.6c0 1.65-.96 2.59-2.61 2.59H2.62C.94 17.19 0 16.24 0 14.55V8.6zm12.5 0V2.59c0-.77-.26-1.02-1.03-1.03H2.58c-.77 0-1.02.26-1.03 1.02v12.01c0 .77.26 1.03 1.02 1.03h8.89c.77 0 1.03-.26 1.03-1.03V8.58zM22.67 33.62h1.56v5.43h10.13v1.56c-.14 0-.3.02-.45.02H23.76c-.84 0-1.08-.24-1.08-1.07v-5.95zM15.65 9.39V7.81H23.17c.8 0 1.06.25 1.06 1.04v4.4h-1.54V9.39h-7.04zM8.61 24.21v5.45H7.07c0-.13-.02-.25-.02-.37v-5.61c0-.76.26-1.01 1.03-1.02h5.19v1.55H8.62zM33.63 23.44v-1.56h2.31v-6.22h1.55c0 .13.03.27.03.41v6.34c0 .77-.26 1.03-1.02 1.03h-2.87z"/><path d="M19.54 23.44c0-2.16 1.76-3.91 3.92-3.91 2.14 0 3.89 1.75 3.9 3.88a3.92 3.92 0 0 1-3.94 3.93c-2.13-.01-3.87-1.77-3.87-3.91zm6.25-.01a2.35 2.35 0 0 0-2.38-2.33 2.365 2.365 0 0 0-2.31 2.35c0 1.29 1.08 2.34 2.38 2.33 1.27-.01 2.32-1.08 2.31-2.35zM6.29 12.52h1.49v1.52H6.29v-1.52z"/></svg>