<?xml version="1.0" encoding="utf-8"?>
<!-- Generator: Adobe Illustrator 26.4.1, SVG Export Plug-In . SVG Version: 6.00 Build 0)  -->
<svg version="1.1" id="a" xmlns="http://www.w3.org/2000/svg" xmlns:xlink="http://www.w3.org/1999/xlink" x="0px" y="0px"
	 viewBox="0 0 46.9 46.9" style="enable-background:new 0 0 46.9 46.9;" xml:space="preserve">
<path d="M28.1,9.4V8.8c0-2.6,0-5.2,0-7.8c0-0.8,0.3-1,1-1c5.1,0,10.1,0,15.2,0c0.7,0,1,0.3,1,1c0,2.6,0,5.2,0,7.8v0.6
	c0.2,0,0.5,0,0.7,0c0.5,0,0.9,0.4,0.8,1c-0.2,1-0.4,2-0.7,3.1c-0.1,0.5-0.4,0.7-1,0.7c-2.6,0-5.2,0-7.8,0c-3,0-6,0-8.9,0
	c-0.8,0-0.9-0.1-1.1-0.9c-0.2-0.9-0.4-1.7-0.6-2.6c-0.2-0.9,0.1-1.2,1-1.2C27.9,9.4,28,9.4,28.1,9.4L28.1,9.4z M43.8,1.6h-14v7.8
	c1.7,0,3.4,0,5,0c0.6,0,1.1,0.1,1.2,0.8h1.5c0.2-0.7,0.4-0.8,1.1-0.8c0.9,0,1.8,0,2.7,0c0.8,0,1.7,0,2.5,0V1.6z M28.8,12.5h15.9
	c0.1-0.5,0.2-1,0.3-1.5h-5.9c-0.3,0.7-0.4,0.8-1.1,0.8c-0.8,0-1.7,0-2.5,0c-0.6,0-1-0.1-1.1-0.8h-5.9C28.5,11.5,28.6,12,28.8,12.5
	L28.8,12.5z"/>
<path d="M11.9,43.8c0.2,0.7,0.3,1.3,0.5,2c0.2,0.8-0.1,1.2-0.9,1.2c-1.9,0-3.8,0-5.7,0c-0.8,0-1.1-0.4-0.9-1.2
	c0.2-0.6,0.3-1.3,0.5-2c-1,0-2,0-3,0c-1.2,0-2.1-0.8-2.3-1.9c0-0.2,0-0.4,0-0.6c0-2.5,0-5,0-7.5c0-1.5,1-2.5,2.5-2.5
	c4,0,8.1,0,12.1,0c1.6,0,2.5,1,2.5,2.5c0,2.5,0,5,0,7.5c0,1.5-1,2.5-2.5,2.5C13.8,43.8,12.9,43.8,11.9,43.8L11.9,43.8z M15.6,39
	c0-1.9,0-3.7,0-5.5c0-0.5-0.4-0.7-0.9-0.7c-4.1,0-8.1,0-12.2,0c-0.7,0-0.9,0.3-0.9,1c0,1.2,0,2.3,0,3.5c0,0.6,0,1.2,0,1.8H15.6z
	 M1.6,40.6c0,0.2,0,0.3,0,0.4c0,0.9,0.2,1.2,1.1,1.2c1,0,1.9,0,2.9,0c3,0,6,0,9,0c0.6,0,0.9-0.2,1-0.7c0-0.3,0-0.6,0-0.9L1.6,40.6
	L1.6,40.6z M6.5,45.3h4.1c-0.1-0.5-0.2-0.9-0.3-1.3c0-0.1-0.2-0.2-0.3-0.2c-0.9,0-1.9,0-2.8,0c-0.1,0-0.3,0.1-0.3,0.2
	C6.7,44.4,6.7,44.9,6.5,45.3z"/>
<path d="M46.9,38.3c0,2,0,4,0,6c0,1.6-1,2.6-2.6,2.6c-2,0-3.9,0-5.9,0c-1.5,0-2.5-1-2.5-2.5c0-4.1,0-8.1,0-12.2c0-1.5,1-2.5,2.5-2.5
	c2,0,3.9,0,5.9,0c1.5,0,2.5,1,2.5,2.5C46.9,34.3,46.9,36.3,46.9,38.3z M38.2,31.2c-0.5,0.1-0.7,0.5-0.7,1c0,4,0,8.1,0,12.1
	c0,0.7,0.3,1,0.9,1c2,0,4,0,6,0c0.6,0,0.9-0.3,0.9-0.9c0-0.9,0-1.8,0-2.7c0-3.2,0-6.3,0-9.5c0-0.6-0.2-0.8-0.8-1c0,0.1,0,0.1,0,0.2
	c-0.2,1.3-1.1,2.1-2.5,2.1c-0.3,0-0.7,0-1,0C39.4,33.6,38.5,32.9,38.2,31.2z M39.9,31.3c0.1,0.5,0.3,0.7,0.8,0.8c0.5,0,1,0,1.6,0
	c0.5,0,0.7-0.3,0.7-0.8C42.9,31.3,39.9,31.3,39.9,31.3z"/>
<path d="M0,8.6c0-2,0-4,0-6.1C0,1,1,0,2.6,0c3,0,6,0,8.9,0c1.6,0,2.6,1,2.6,2.6c0,4,0,8,0,12c0,1.6-1,2.6-2.6,2.6
	c-2.9,0-5.9,0-8.8,0c-1.7,0-2.6-1-2.6-2.6C0,12.6,0,10.6,0,8.6z M12.5,8.6c0-2,0-4,0-6c0-0.8-0.3-1-1-1c-3,0-5.9,0-8.9,0
	c-0.8,0-1,0.3-1,1c0,4,0,8,0,12c0,0.8,0.3,1,1,1c3,0,5.9,0,8.9,0c0.8,0,1-0.3,1-1C12.5,12.6,12.5,10.6,12.5,8.6L12.5,8.6z"/>
<path d="M22.7,33.6h1.6V39h10.1v1.6c-0.1,0-0.3,0-0.5,0c-3.4,0-6.8,0-10.1,0c-0.8,0-1.1-0.2-1.1-1.1C22.7,37.6,22.7,35.6,22.7,33.6
	L22.7,33.6z"/>
<path d="M15.6,9.4V7.8c0.2,0,0.3,0,0.5,0c2.4,0,4.7,0,7.1,0c0.8,0,1.1,0.2,1.1,1c0,1.5,0,2.9,0,4.4h-1.5V9.4
	C22.7,9.4,15.6,9.4,15.6,9.4z"/>
<path d="M8.6,24.2v5.5H7.1c0-0.1,0-0.2,0-0.4c0-1.9,0-3.7,0-5.6c0-0.8,0.3-1,1-1c1.7,0,3.4,0,5.2,0v1.5L8.6,24.2L8.6,24.2z"/>
<path d="M33.6,23.4v-1.6h2.3v-6.2h1.5c0,0.1,0,0.3,0,0.4c0,2.1,0,4.2,0,6.3c0,0.8-0.3,1-1,1C35.6,23.4,34.6,23.4,33.6,23.4z"/>
<path d="M6.3,12.5h1.5V14H6.3V12.5z"/>
<path d="M32,23.4c0-1-0.5-2-1.2-2.6c1.4-1.1,1.6-3.3,0.5-4.7c-0.6-0.8-1.5-1.3-2.5-1.3H18.1c-1.8,0-3.2,1.5-3.2,3.3
	c0,1,0.4,2,1.2,2.6c-1.4,1.1-1.6,3.2-0.5,4.7c0.2,0.2,0.3,0.4,0.5,0.6c-1.4,1.1-1.6,3.3-0.5,4.7c0.6,0.8,1.5,1.3,2.5,1.3h10.7
	c1.8,0,3.2-1.5,3.2-3.3c0-1-0.4-2-1.2-2.6C31.6,25.4,32,24.5,32,23.4z M16.3,18.2c0-1,0.8-1.9,1.8-1.9h0.4v0.7
	c0,0.4,0.3,0.7,0.7,0.7c0.4,0,0.7-0.3,0.7-0.7v-0.7h1.4v0.7c0,0.4,0.3,0.7,0.7,0.7c0.4,0,0.7-0.3,0.7-0.7v-0.7h6.1
	c1,0,1.8,0.8,1.8,1.9s-0.8,1.9-1.8,1.9H18.1C17.1,20.1,16.3,19.2,16.3,18.2z M30.6,28.7c0,1-0.8,1.9-1.8,1.9H18.1
	c-1,0-1.8-0.8-1.8-1.9s0.8-1.9,1.8-1.9h0.4v0.7c0,0.4,0.3,0.7,0.7,0.7c0.4,0,0.7-0.3,0.7-0.7v-0.7h1.4v0.7c0,0.4,0.3,0.7,0.7,0.7
	c0.4,0,0.7-0.3,0.7-0.7v-0.7h6.1C29.8,26.8,30.6,27.6,30.6,28.7z M18.1,25.3c-1,0-1.8-0.8-1.8-1.9c0-1,0.8-1.9,1.8-1.9h0.4v0.7
	c0,0.4,0.3,0.7,0.7,0.7c0.4,0,0.7-0.3,0.7-0.7v-0.7h1.4v0.7c0,0.4,0.3,0.7,0.7,0.7c0.4,0,0.7-0.3,0.7-0.7v-0.7h6.1
	c1,0,1.8,0.8,1.8,1.9c0,1-0.8,1.9-1.8,1.9H18.1z"/>
</svg>
