<?xml version="1.0" encoding="UTF-8"?><svg id="b" xmlns="http://www.w3.org/2000/svg" xmlns:xlink="http://www.w3.org/1999/xlink" viewBox="0 0 1136.93 728.23"><defs><style>.eq{fill:url(#bb);}.er{fill:url(#bu);}.er,.es,.et,.eu,.ev,.ew,.ex,.ey,.ez,.fa,.fb,.fc,.fd,.fe,.ff,.fg,.fh,.fi,.fj,.fk,.fl,.fm,.fn,.fo,.fp,.fq,.fr,.fs,.ft,.fu,.fv,.fw,.fx,.fy,.fz,.ga,.gb,.gc,.gd,.ge,.gf,.gg,.gh,.gi,.gj,.gk,.gl,.gm,.gn,.go,.gp,.gq,.gr,.gs,.gt,.gu,.gv,.gw,.gx,.gy,.gz{isolation:isolate;}.er,.es,.et,.eu,.ev,.ew,.ex,.ey,.ez,.fa,.fb,.fc,.fd,.fe,.ff,.fg,.fh,.fi,.fj,.fk,.fl,.fn,.fo,.fp,.fq,.fr,.fs,.ft,.fu,.fv,.fw,.fx,.fy,.fz,.ga,.gb,.gc,.gd,.ge,.gf,.gg,.gh,.gi,.gj,.gk,.gl,.gm,.gn,.go,.gp,.gq,.gr,.gs,.gt,.gu,.gv,.gw,.gx,.gy,.gz{opacity:.8;}.es{fill:url(#aq);}.ha{fill:url(#ba);}.et{fill:url(#da);}.eu{fill:url(#bm);}.hb{fill:url(#ay);}.hc{fill:url(#aa);}.ev{fill:url(#p);}.hd,.fm{fill:#fff;}.he{fill:url(#dz);}.hf{fill:url(#cx);}.hg{fill:url(#dh);}.hh{fill:url(#ee);}.ew{fill:url(#cp);}.ex{fill:url(#o);}.ey{fill:url(#f);}.hi{fill:url(#di);}.ez{fill:url(#cw);}.fa{fill:url(#ar);}.hj{fill:url(#t);}.fb{fill:url(#bk);}.hk{fill:url(#i);}.hl{fill:#d2232a;}.fc{fill:url(#ap);}.hm{fill:url(#ah);}.hn{fill:url(#be);}.fd{fill:url(#aj);}.fe{fill:url(#bp);}.ho{fill:url(#af);}.hp{fill:url(#de);}.ff{fill:url(#ct);}.fg{fill:url(#bl);}.hq{fill:url(#as);}.hr{fill:url(#el);}.fh{fill:url(#bo);}.hs{fill:url(#eh);}.ht{fill:url(#s);}.hu{fill:url(#ck);}.hv{fill:url(#eo);}.hw{fill:#082947;}.fi{fill:url(#bq);}.fj{fill:url(#co);}.hx{fill:url(#bi);}.hy{fill:url(#cg);}.hz{fill:url(#df);}.fk{fill:url(#bv);}.ia{fill:url(#dk);}.ib{fill:url(#cl);}.ic{fill:url(#n);}.fl{fill:url(#j);}.id{fill:url(#dd);}.ie{fill:url(#bd);}.fm,.if{opacity:.6;}.ig{fill:url(#cn);}.ih{fill:url(#cm);}.fn{fill:url(#at);}.ii{fill:url(#ad);}.ij{fill:#646464;}.fo{fill:url(#l);}.ik{fill:url(#bc);}.il{fill:url(#az);}.im{fill:#a7ddee;}.in{fill:url(#eb);}.io{stroke-width:3.21px;}.io,.ip,.iq{stroke:#404040;stroke-linecap:round;stroke-linejoin:round;}.io,.iq{fill:none;}.fp{fill:url(#ak);}.ir{fill:url(#ce);}.is{fill:url(#ci);}.it{fill:url(#ec);}.fq{fill:url(#ao);}.iu{fill:url(#ai);}.iv{fill:url(#ek);}.iw{fill:url(#cf);}.ix{fill:url(#em);}.fr{fill:url(#dw);}.iy{fill:url(#bh);}.iz{fill:url(#v);}.fs{fill:url(#dn);}.ft{fill:url(#au);}.fu{fill:url(#av);}.ja{fill:url(#y);}.jb{fill:url(#cj);}.jc{fill:url(#ep);}.jd{fill:url(#by);}.je{fill:url(#cd);}.fv{fill:url(#cr);}.fw{fill:url(#cq);}.fx{fill:url(#cy);}.fy{fill:url(#g);}.ip,.iq{stroke-width:3.07px;}.fz{fill:url(#bw);}.jf{fill:url(#d);}.ga{fill:url(#h);}.jg{fill:url(#x);}.gb{fill:url(#e);}.jh{fill:#ff3400;}.gc{fill:url(#do);}.ji{fill:url(#bn);}.jj{fill:url(#cc);}.jk{fill:url(#bg);}.gd{fill:url(#al);}.jl{fill:url(#ch);}.jm{fill:url(#cb);}.ge{fill:url(#k);}.jn{fill:url(#bs);}.jo{fill:url(#u);}.jp{fill:url(#cs);}.jq{fill:url(#ae);}.gf{fill:url(#aw);}.gg{fill:url(#q);}.gh{fill:url(#cz);}.jr{fill:url(#z);}.gi{fill:url(#dr);}.js{fill:url(#ef);}.jt{fill:url(#ej);}.gj{fill:url(#dy);}.ju{fill:url(#bz);}.jv{fill:url(#ag);}.jw{fill:#ccc;}.gk{fill:url(#cv);}.jx{fill:url(#bx);}.jy{fill:url(#en);}.jz{fill:url(#dp);}.ka{fill:url(#eg);}.gl{fill:url(#bt);}.kb{fill:url(#an);}.kc{fill:#f7f7f7;}.kd{fill:url(#ca);}.gm{fill:url(#db);}.gn{fill:url(#dm);}.go{fill:url(#bj);}.ke{fill:url(#du);}.kf{fill:url(#w);}.kg{fill:#00d9ff;}.gp{fill:url(#dx);}.kh{fill:url(#ax);}.gq{fill:url(#dv);}.gr{fill:url(#r);}.gs{fill:url(#dt);}.ki{fill:url(#ei);}.gt{fill:url(#cu);}.gu{fill:url(#br);}.kj{fill:url(#bf);}.kk{fill:url(#ea);}.kl{fill:url(#ab);}.gv{fill:url(#ds);}.km{fill:url(#dj);}.kn{fill:url(#dc);}.ko{fill:url(#ac);}.gw{fill:url(#dl);}.kp{fill:url(#dg);}.gx{fill:url(#m);}.gy{fill:url(#dq);}.gz{fill:url(#am);}.kq{fill:#7cd0e6;}.kr{fill:url(#ed);}</style><linearGradient id="d" x1="-1245" y1="710.48" x2="-1463.85" y2="603.2" gradientTransform="translate(-841.65 726) rotate(-180)" gradientUnits="userSpaceOnUse"><stop offset="0" stop-color="#c3c3c3"/><stop offset=".43" stop-color="#b6b6b6"/><stop offset="1" stop-color="#9e9e9e"/></linearGradient><linearGradient id="e" x1="-1442.19" y1="751.59" x2="-1442.19" y2="458.88" gradientTransform="translate(-841.65 726) rotate(-180)" gradientUnits="userSpaceOnUse"><stop offset="0" stop-color="#6c6c6c"/><stop offset=".5" stop-color="#b1b1b1"/><stop offset="1" stop-color="#686868"/></linearGradient><linearGradient id="f" x1="-1483.99" y1="626.64" x2="-1483.99" y2="550.12" xlink:href="#e"/><linearGradient id="g" x1="-1487.39" y1="619.54" x2="-1487.39" y2="564.99" xlink:href="#e"/><linearGradient id="h" y1="744.75" y2="452.02" xlink:href="#e"/><linearGradient id="i" x1="-1245" y1="659.73" x2="-1463.86" y2="552.45" xlink:href="#d"/><linearGradient id="j" y1="700.84" y2="408.12" xlink:href="#e"/><linearGradient id="k" x1="-1483.99" y1="575.88" x2="-1483.99" y2="499.39" xlink:href="#e"/><linearGradient id="l" x1="-1487.39" y1="568.79" x2="-1487.39" y2="514.24" xlink:href="#e"/><linearGradient id="m" y1="693.96" y2="401.31" xlink:href="#e"/><linearGradient id="n" x1="-1245.02" y1="608.99" x2="-1463.86" y2="501.71" xlink:href="#d"/><linearGradient id="o" y1="650.09" y2="357.37" xlink:href="#e"/><linearGradient id="p" x1="-1483.99" y1="525.14" x2="-1483.99" y2="448.62" xlink:href="#e"/><linearGradient id="q" x1="-1487.39" y1="518.04" x2="-1487.39" y2="463.48" xlink:href="#e"/><linearGradient id="r" y1="643.24" y2="350.54" xlink:href="#e"/><linearGradient id="s" x1="-1138.55" y1="622.83" x2="-1410.76" y2="489.39" xlink:href="#d"/><linearGradient id="t" x1="-1138.55" y1="622.83" x2="-1410.76" y2="489.39" gradientTransform="translate(-841.65 726) rotate(-180)" gradientUnits="userSpaceOnUse"><stop offset="0" stop-color="#a3a3a3"/><stop offset=".5" stop-color="#969696"/><stop offset="1" stop-color="#848484"/></linearGradient><linearGradient id="u" x1="-1138.55" y1="608.96" x2="-1410.76" y2="475.53" xlink:href="#d"/><linearGradient id="v" x1="-1138.55" y1="608.96" x2="-1410.76" y2="475.53" xlink:href="#t"/><linearGradient id="w" x1="-1138.55" y1="595.12" x2="-1410.76" y2="461.68" xlink:href="#d"/><linearGradient id="x" x1="-1138.55" y1="595.12" x2="-1410.76" y2="461.68" xlink:href="#t"/><linearGradient id="y" x1="-1138.55" y1="581.27" x2="-1410.76" y2="447.83" xlink:href="#d"/><linearGradient id="z" x1="-1138.55" y1="581.27" x2="-1410.76" y2="447.83" xlink:href="#t"/><linearGradient id="aa" x1="-1138.55" y1="567.41" x2="-1410.76" y2="433.97" xlink:href="#d"/><linearGradient id="ab" x1="-1138.55" y1="567.41" x2="-1410.76" y2="433.97" xlink:href="#t"/><linearGradient id="ac" x1="-1138.54" y1="553.56" x2="-1410.76" y2="420.12" xlink:href="#d"/><linearGradient id="ad" x1="-1138.54" y1="553.56" x2="-1410.76" y2="420.12" xlink:href="#t"/><linearGradient id="ae" x1="-1138.55" y1="539.7" x2="-1410.77" y2="406.26" xlink:href="#d"/><linearGradient id="af" x1="-1138.55" y1="539.7" x2="-1410.77" y2="406.26" xlink:href="#t"/><linearGradient id="ag" x1="-1138.55" y1="525.85" x2="-1410.77" y2="392.41" xlink:href="#d"/><linearGradient id="ah" x1="-1138.55" y1="525.85" x2="-1410.77" y2="392.41" xlink:href="#t"/><linearGradient id="ai" x1="-1415.35" y1="611.91" x2="-1634.21" y2="504.63" xlink:href="#d"/><linearGradient id="aj" x1="-1612.54" y1="653.03" x2="-1612.54" y2="360.3" xlink:href="#e"/><linearGradient id="ak" x1="-1654.34" y1="528.08" x2="-1654.34" y2="451.55" xlink:href="#e"/><linearGradient id="al" x1="-1657.73" y1="520.98" x2="-1657.73" y2="466.41" xlink:href="#e"/><linearGradient id="am" x1="-1612.54" y1="646.17" x2="-1612.54" y2="353.45" xlink:href="#e"/><linearGradient id="an" x1="-1415.35" y1="561.16" x2="-1634.21" y2="453.87" xlink:href="#d"/><linearGradient id="ao" x1="-1612.54" y1="602.28" x2="-1612.54" y2="309.55" xlink:href="#e"/><linearGradient id="ap" x1="-1654.34" y1="477.3" x2="-1654.34" y2="400.82" xlink:href="#e"/><linearGradient id="aq" x1="-1657.73" y1="470.22" x2="-1657.73" y2="415.66" xlink:href="#e"/><linearGradient id="ar" x1="-1612.54" y1="595.4" x2="-1612.54" y2="302.74" xlink:href="#e"/><linearGradient id="as" x1="-1415.34" y1="510.38" x2="-1634.19" y2="403.1" xlink:href="#d"/><linearGradient id="at" x1="-1612.54" y1="551.52" x2="-1612.54" y2="258.8" xlink:href="#e"/><linearGradient id="au" x1="-1654.34" y1="426.57" x2="-1654.34" y2="350.04" xlink:href="#e"/><linearGradient id="av" x1="-1657.73" y1="419.48" x2="-1657.73" y2="364.91" xlink:href="#e"/><linearGradient id="aw" x1="-1612.54" y1="544.66" x2="-1612.54" y2="251.98" xlink:href="#e"/><linearGradient id="ax" x1="-1308.9" y1="524.25" x2="-1581.11" y2="390.82" xlink:href="#d"/><linearGradient id="ay" x1="-1308.9" y1="510.4" x2="-1581.11" y2="376.96" xlink:href="#d"/><linearGradient id="az" x1="-1308.9" y1="496.55" x2="-1581.11" y2="363.11" xlink:href="#d"/><linearGradient id="ba" x1="-1308.9" y1="482.69" x2="-1581.11" y2="349.26" xlink:href="#d"/><linearGradient id="bb" x1="-1308.9" y1="468.84" x2="-1581.11" y2="335.4" xlink:href="#d"/><linearGradient id="bc" x1="-1308.89" y1="454.98" x2="-1581.11" y2="321.55" xlink:href="#d"/><linearGradient id="bd" x1="-1308.89" y1="454.98" x2="-1581.11" y2="321.55" xlink:href="#t"/><linearGradient id="be" x1="-1308.9" y1="441.12" x2="-1581.11" y2="307.69" xlink:href="#d"/><linearGradient id="bf" x1="-1308.9" y1="441.12" x2="-1581.11" y2="307.69" xlink:href="#t"/><linearGradient id="bg" x1="-1308.9" y1="427.27" x2="-1581.11" y2="293.84" xlink:href="#d"/><linearGradient id="bh" x1="-1308.9" y1="427.27" x2="-1581.11" y2="293.84" xlink:href="#t"/><linearGradient id="bi" x1="-1074.95" y1="617" x2="-1293.81" y2="509.72" xlink:href="#d"/><linearGradient id="bj" x1="-1272.14" y1="658.11" x2="-1272.14" y2="365.39" xlink:href="#e"/><linearGradient id="bk" x1="-1313.94" y1="533.16" x2="-1313.94" y2="456.63" xlink:href="#e"/><linearGradient id="bl" x1="-1317.35" y1="526.06" x2="-1317.35" y2="471.49" xlink:href="#e"/><linearGradient id="bm" x1="-1272.14" y1="651.27" x2="-1272.14" y2="358.53" xlink:href="#e"/><linearGradient id="bn" x1="-1074.95" y1="566.24" x2="-1293.8" y2="458.96" xlink:href="#d"/><linearGradient id="bo" x1="-1272.14" y1="607.36" x2="-1272.14" y2="314.64" xlink:href="#e"/><linearGradient id="bp" x1="-1313.94" y1="482.39" x2="-1313.94" y2="405.91" xlink:href="#e"/><linearGradient id="bq" x1="-1317.35" y1="475.31" x2="-1317.35" y2="420.75" xlink:href="#e"/><linearGradient id="br" x1="-1272.14" y1="600.48" x2="-1272.14" y2="307.83" xlink:href="#e"/><linearGradient id="bs" x1="-1074.95" y1="515.48" x2="-1293.8" y2="408.2" xlink:href="#d"/><linearGradient id="bt" x1="-1272.14" y1="556.61" x2="-1272.14" y2="263.88" xlink:href="#e"/><linearGradient id="bu" x1="-1313.94" y1="431.65" x2="-1313.94" y2="355.13" xlink:href="#e"/><linearGradient id="bv" x1="-1317.35" y1="424.56" x2="-1317.35" y2="370" xlink:href="#e"/><linearGradient id="bw" x1="-1272.14" y1="549.75" x2="-1272.14" y2="257.06" xlink:href="#e"/><linearGradient id="bx" x1="-968.5" y1="529.33" x2="-1240.71" y2="395.9" xlink:href="#d"/><linearGradient id="by" x1="-968.5" y1="529.33" x2="-1240.71" y2="395.9" xlink:href="#t"/><linearGradient id="bz" x1="-968.5" y1="515.49" x2="-1240.72" y2="382.04" xlink:href="#d"/><linearGradient id="ca" x1="-968.5" y1="515.49" x2="-1240.72" y2="382.04" xlink:href="#t"/><linearGradient id="cb" x1="-968.5" y1="501.63" x2="-1240.71" y2="368.19" xlink:href="#d"/><linearGradient id="cc" x1="-968.5" y1="501.63" x2="-1240.71" y2="368.19" xlink:href="#t"/><linearGradient id="cd" x1="-968.5" y1="487.77" x2="-1240.71" y2="354.34" xlink:href="#d"/><linearGradient id="ce" x1="-968.5" y1="487.77" x2="-1240.71" y2="354.34" xlink:href="#t"/><linearGradient id="cf" x1="-968.5" y1="473.92" x2="-1240.71" y2="340.48" xlink:href="#d"/><linearGradient id="cg" x1="-968.5" y1="473.92" x2="-1240.71" y2="340.48" xlink:href="#t"/><linearGradient id="ch" x1="-968.49" y1="460.08" x2="-1240.71" y2="326.63" xlink:href="#d"/><linearGradient id="ci" x1="-968.49" y1="460.08" x2="-1240.71" y2="326.63" xlink:href="#t"/><linearGradient id="cj" x1="-968.5" y1="446.21" x2="-1240.71" y2="312.77" xlink:href="#d"/><linearGradient id="ck" x1="-968.5" y1="446.21" x2="-1240.71" y2="312.77" xlink:href="#t"/><linearGradient id="cl" x1="-968.5" y1="432.36" x2="-1240.71" y2="298.92" xlink:href="#d"/><linearGradient id="cm" x1="-968.5" y1="432.36" x2="-1240.71" y2="298.92" xlink:href="#t"/><linearGradient id="cn" x1="-903.98" y1="523.12" x2="-1122.84" y2="415.84" xlink:href="#d"/><linearGradient id="co" x1="-1101.19" y1="564.26" x2="-1101.19" y2="271.54" xlink:href="#e"/><linearGradient id="cp" x1="-1142.98" y1="439.31" x2="-1142.98" y2="362.79" xlink:href="#e"/><linearGradient id="cq" x1="-1146.37" y1="432.21" x2="-1146.37" y2="377.65" xlink:href="#e"/><linearGradient id="cr" x1="-1101.19" y1="557.41" x2="-1101.19" y2="264.69" xlink:href="#e"/><linearGradient id="cs" x1="-904" y1="472.4" x2="-1122.85" y2="365.11" xlink:href="#d"/><linearGradient id="ct" x1="-1101.19" y1="513.51" x2="-1101.19" y2="220.78" xlink:href="#e"/><linearGradient id="cu" x1="-1142.98" y1="388.54" x2="-1142.98" y2="312.06" xlink:href="#e"/><linearGradient id="cv" x1="-1146.37" y1="381.46" x2="-1146.37" y2="326.9" xlink:href="#e"/><linearGradient id="cw" x1="-1101.19" y1="506.63" x2="-1101.19" y2="213.98" xlink:href="#e"/><linearGradient id="cx" x1="-904" y1="421.65" x2="-1122.85" y2="314.37" xlink:href="#d"/><linearGradient id="cy" x1="-1101.19" y1="462.75" x2="-1101.19" y2="170.03" xlink:href="#e"/><linearGradient id="cz" x1="-1142.98" y1="337.81" x2="-1142.98" y2="261.28" xlink:href="#e"/><linearGradient id="da" x1="-1146.37" y1="330.72" x2="-1146.37" y2="276.15" xlink:href="#e"/><linearGradient id="db" x1="-1101.19" y1="455.9" x2="-1101.19" y2="163.21" xlink:href="#e"/><linearGradient id="dc" x1="-797.55" y1="435.49" x2="-1069.75" y2="302.05" xlink:href="#d"/><linearGradient id="dd" x1="-797.55" y1="421.63" x2="-1069.75" y2="288.2" xlink:href="#d"/><linearGradient id="de" x1="-797.55" y1="407.78" x2="-1069.75" y2="274.35" xlink:href="#d"/><linearGradient id="df" x1="-797.55" y1="393.93" x2="-1069.75" y2="260.5" xlink:href="#d"/><linearGradient id="dg" x1="-797.55" y1="380.07" x2="-1069.75" y2="246.64" xlink:href="#d"/><linearGradient id="dh" x1="-797.54" y1="366.22" x2="-1069.75" y2="232.79" xlink:href="#d"/><linearGradient id="di" x1="-797.55" y1="352.36" x2="-1069.75" y2="218.93" xlink:href="#d"/><linearGradient id="dj" x1="-797.55" y1="338.51" x2="-1069.75" y2="205.08" xlink:href="#d"/><linearGradient id="dk" x1="-1245.3" y1="518.43" x2="-1464.15" y2="411.15" xlink:href="#d"/><linearGradient id="dl" x1="-1442.49" y1="559.54" x2="-1442.49" y2="266.82" xlink:href="#e"/><linearGradient id="dm" x1="-1484.28" y1="434.59" x2="-1484.28" y2="358.07" xlink:href="#e"/><linearGradient id="dn" x1="-1487.68" y1="427.5" x2="-1487.68" y2="372.93" xlink:href="#e"/><linearGradient id="do" x1="-1442.49" y1="552.69" x2="-1442.49" y2="259.97" xlink:href="#e"/><linearGradient id="dp" x1="-1245.3" y1="467.67" x2="-1464.16" y2="360.39" xlink:href="#d"/><linearGradient id="dq" x1="-1442.49" y1="508.79" x2="-1442.49" y2="216.06" xlink:href="#e"/><linearGradient id="dr" x1="-1484.28" y1="383.82" x2="-1484.28" y2="307.34" xlink:href="#e"/><linearGradient id="ds" x1="-1487.68" y1="376.74" x2="-1487.68" y2="322.18" xlink:href="#e"/><linearGradient id="dt" x1="-1442.49" y1="501.92" x2="-1442.49" y2="209.26" xlink:href="#e"/><linearGradient id="du" x1="-1245.31" y1="416.92" x2="-1464.15" y2="309.65" xlink:href="#d"/><linearGradient id="dv" x1="-1442.49" y1="458.04" x2="-1442.49" y2="165.31" xlink:href="#e"/><linearGradient id="dw" x1="-1484.28" y1="333.08" x2="-1484.28" y2="256.56" xlink:href="#e"/><linearGradient id="dx" x1="-1487.68" y1="325.99" x2="-1487.68" y2="271.42" xlink:href="#e"/><linearGradient id="dy" x1="-1442.49" y1="451.18" x2="-1442.49" y2="158.49" xlink:href="#e"/><linearGradient id="dz" x1="-1138.85" y1="430.77" x2="-1411.06" y2="297.34" xlink:href="#d"/><linearGradient id="ea" x1="-1138.85" y1="416.91" x2="-1411.06" y2="283.48" xlink:href="#d"/><linearGradient id="eb" x1="-1138.85" y1="403.06" x2="-1411.06" y2="269.62" xlink:href="#d"/><linearGradient id="ec" x1="-1138.85" y1="389.21" x2="-1411.06" y2="255.77" xlink:href="#d"/><linearGradient id="ed" x1="-1138.85" y1="375.35" x2="-1411.06" y2="241.91" xlink:href="#d"/><linearGradient id="ee" x1="-1138.84" y1="361.5" x2="-1411.06" y2="228.06" xlink:href="#d"/><linearGradient id="ef" x1="-1138.85" y1="347.64" x2="-1411.06" y2="214.21" xlink:href="#d"/><linearGradient id="eg" x1="-1138.85" y1="333.79" x2="-1411.06" y2="200.36" xlink:href="#d"/><linearGradient id="eh" x1="-967.88" y1="267.65" x2="-1240.1" y2="134.21" xlink:href="#d"/><linearGradient id="ei" x1="-967.89" y1="253.79" x2="-1240.1" y2="120.36" xlink:href="#d"/><linearGradient id="ej" x1="-967.9" y1="239.95" x2="-1240.11" y2="106.51" xlink:href="#d"/><linearGradient id="ek" x1="-1286.62" y1="429.81" x2="-1286.62" y2="292.9" xlink:href="#t"/><linearGradient id="el" x1="-1087.52" y1="339.98" x2="-1269.84" y2="254.41" xlink:href="#t"/><linearGradient id="em" x1="-363.03" y1="280.27" x2="-363.03" y2="199.49" gradientTransform="translate(57.92 726) rotate(-180)" xlink:href="#d"/><linearGradient id="en" x1="3552.76" y1="197.22" x2="3582.77" y2="197.41" gradientTransform="translate(-3147.34 726) scale(1 -1)" gradientUnits="userSpaceOnUse"><stop offset="0" stop-color="#e3e3e3"/><stop offset=".41" stop-color="#d6d6d6"/><stop offset="1" stop-color="#bbb"/></linearGradient><linearGradient id="eo" x1="-341.23" y1="220.99" x2="-395.76" y2="190.05" gradientTransform="translate(57.92 726) rotate(-180)" xlink:href="#en"/><linearGradient id="ep" x1="-395.29" y1="206.82" x2="-326.8" y2="216.71" gradientTransform="translate(57.92 726) rotate(-180)" xlink:href="#en"/></defs><g id="c"><path class="ip" d="M95.43,221.16v0Z"/><path class="kg" d="M1075.79,218.4c-3.83-7.2-9.09-13.54-15.45-18.64-.61-8.24-3.02-16.25-7.05-23.47-10.32-19.01-28.42-29.95-41.84-25.9-1.52-5.04-3.56-9.91-6.09-14.53-13.75-25.31-38.59-39.11-55.49-30.84-7.94,3.89-12.75,11.97-14.11,22.11-7.05-3.09-14.13-3.55-20.02-.66-13.6,6.67-15.64,28.58-4.58,48.94,5.04,9.29,11.95,16.66,19.26,21.26,8.71,5.51,109.44,63.86,117.52,68.35,8.08,4.49,16.47,5.6,23.26,2.27,13.6-6.61,15.65-28.52,4.59-48.89Z"/><path class="kq" d="M1130.48,404.93c-3.48-6.51-8.24-12.24-14.01-16.85-.56-7.45-2.74-14.68-6.38-21.21-9.35-17.22-25.74-27.13-37.89-23.46-1.39-4.56-3.25-8.97-5.53-13.16-12.45-22.93-34.95-35.44-50.26-27.94-7.19,3.53-11.52,10.85-12.79,20-6.38-2.77-12.8-3.21-18.14-.59-12.31,6.03-14.17,25.88-4.15,44.32,4.1,7.79,10.1,14.43,17.44,19.29,7.88,4.99,99.14,57.85,106.45,61.91,7.31,4.07,14.92,5.08,21.08,2.06,12.32-6.08,14.18-25.92,4.17-44.37Z"/><path class="io" d="M166.32,532.92L675.77,248.1l332.08,191.99-509.44,284.91-332.09-192.08Z"/><path class="jw" d="M765.99,76.25l-200.45-16.33V345.06l103.76,60.15,96.69-54.99V76.25Z"/><path class="hw" d="M669.32,120.03l103.77-60.11,.73,285.86-104.51,59.44V120.03Z"/><path class="kc" d="M669.32,0l103.77,59.92-103.77,59.98-103.78-59.98L669.32,0Z"/><path class="hw" d="M668.73,13.8l77.29,44.38,2.4-1.36-77.29-44.39-2.4,1.37Z"/><path class="hw" d="M664.73,16.18l77.29,44.38,2.39-1.36-77.29-44.39-2.39,1.37Z"/><path class="hw" d="M660.72,18.42l77.28,44.37,2.4-1.36-77.28-44.38-2.39,1.37Z"/><path class="jf" d="M574.09,76.16c27.68,16.38,55.83,31.97,83.5,48.35v38.68c-27.67-16.38-55.81-31.97-83.48-48.34l-.02-38.69Z"/><path class="gb" d="M622.41,110.11v4.25c-14.62-8.28-29.22-16.58-43.74-25.07v-4.25c14.51,8.44,29.11,16.78,43.74,25.07Z"/><path class="fm" d="M630.44,120.57l3.4,1.95v4.25l-3.4-1.94v-4.26Z"/><path class="fm" d="M637.24,128.74c1.36,.77,2.04,1.18,3.4,1.96v4.25c-1.36-.79-2.04-1.19-3.4-1.96v-4.25Z"/><path class="fm" d="M650.85,132.29c1.36,.79,2.04,1.21,3.4,2.01v4.25l-3.4-2.01v-4.25Z"/><path class="fm" d="M633.84,126.78l3.4,1.95v4.25l-3.4-1.96v-4.24Z"/><path class="ey" d="M640.64,126.39l3.4,1.97v4.25l-3.4-1.98v-4.24Z"/><path class="fm" d="M644.04,128.34l3.4,1.98v4.25l-3.4-1.96v-4.27Z"/><path class="fm" d="M647.44,134.62l3.4,2v4.25c-1.36-.81-2.05-1.2-3.4-1.99v-4.26Z"/><path class="fy" d="M644.04,132.63l3.4,1.98v4.25l-3.4-1.97v-4.26Z"/><path class="ga" d="M622.41,116.95v4.25c-14.62-8.29-29.22-16.59-43.74-25.06v-4.25c14.51,8.49,29.11,16.79,43.74,25.06Z"/><path class="hk" d="M574.09,126.91c27.68,16.38,55.83,31.97,83.5,48.35v38.68c-27.67-16.39-55.81-31.97-83.48-48.34l-.02-38.69Z"/><path class="fl" d="M622.41,160.86v4.25c-14.62-8.28-29.22-16.59-43.74-25.06v-4.25c14.51,8.46,29.11,16.77,43.74,25.06Z"/><path class="fm" d="M630.44,171.32l3.4,1.95v4.25l-3.4-1.95v-4.25Z"/><path class="fm" d="M637.24,179.48c1.36,.79,2.04,1.19,3.4,1.97v4.25l-3.4-1.96v-4.27Z"/><path class="fm" d="M650.85,183.04l3.4,2.02v4.25c-1.36-.81-2.04-1.2-3.4-2v-4.27Z"/><path class="fm" d="M633.84,177.53l3.4,1.94v4.25c-1.36-.79-2.04-1.16-3.4-1.96v-4.23Z"/><path class="ge" d="M640.64,177.14l3.4,1.96v4.25l-3.4-1.97v-4.24Z"/><path class="fm" d="M644.04,179.12l3.4,1.98v4.25l-3.4-1.98v-4.25Z"/><path class="fm" d="M647.44,185.37l3.4,2v4.25l-3.4-1.98v-4.27Z"/><path class="fo" d="M644.04,183.38l3.4,1.98v4.25l-3.4-1.97v-4.26Z"/><path class="gx" d="M622.41,167.71v4.25c-14.62-8.28-29.22-16.59-43.74-25.06v-4.25c14.51,8.48,29.11,16.77,43.74,25.06Z"/><path class="ic" d="M574.09,177.65c27.68,16.38,55.83,31.96,83.5,48.34v38.67c-27.67-16.38-55.81-31.96-83.48-48.34l-.02-38.68Z"/><path class="ex" d="M622.41,211.6v4.25c-14.62-8.29-29.22-16.6-43.74-25.07v-4.25c14.51,8.49,29.11,16.79,43.74,25.07Z"/><path class="fm" d="M630.44,222.08l3.4,1.93v4.25l-3.4-1.94v-4.24Z"/><path class="fm" d="M637.24,230.24c1.36,.78,2.04,1.18,3.4,1.96v4.25c-1.36-.79-2.04-1.19-3.4-1.96v-4.24Z"/><path class="fm" d="M650.85,233.77l3.4,2.01v4.25l-3.4-2.01v-4.25Z"/><path class="fm" d="M633.84,228.28l3.4,1.95v4.25l-3.4-1.94v-4.26Z"/><path class="ev" d="M640.64,227.89l3.4,1.96v4.25c-1.36-.8-2.04-1.2-3.4-1.98v-4.23Z"/><path class="fm" d="M644.04,229.88c1.36,.79,2.03,1.19,3.4,1.97v4.25l-3.4-1.97v-4.25Z"/><path class="fm" d="M647.44,236.12l3.4,1.99v4.25l-3.4-2v-4.24Z"/><path class="gg" d="M644.04,234.13c1.36,.78,2.03,1.18,3.4,1.98v4.25l-3.4-1.98v-4.25Z"/><path class="gr" d="M622.41,218.46v4.25c-14.62-8.27-29.22-16.59-43.74-25.06v-4.25c14.51,8.47,29.11,16.77,43.74,25.06Z"/><path class="ht" d="M574.76,232.93v5.64l81.22,47.09v-2.58s.02-3.49,.02-3.49l-79.98-45.89-1.26-.75Z"/><path class="hj" d="M574.76,232.93v5.64l81.22,47.09v-2.58s-79.96-46.34-79.96-46.34v-3.05l-1.26-.75Z"/><path class="jo" d="M574.76,246.78v5.63l81.22,47.09v-2.58s.02-3.5,.02-3.5l-79.98-45.89-1.26-.74Z"/><path class="iz" d="M574.76,246.78v5.63l81.22,47.09v-2.58s-79.96-46.35-79.96-46.35v-3.05l-1.26-.74Z"/><path class="kf" d="M574.76,260.64v5.63l81.22,47.09v-2.58s.02-3.5,.02-3.5l-79.98-45.89-1.26-.74Z"/><path class="jg" d="M574.76,260.64v5.63l81.22,47.09v-2.58s-79.96-46.35-79.96-46.35v-3.05l-1.26-.74Z"/><path class="ja" d="M574.76,274.49v5.64l81.22,47.09v-2.58s.02-3.5,.02-3.5l-79.98-45.89-1.26-.76Z"/><path class="jr" d="M574.76,274.49v5.64l81.22,47.09v-2.58s-79.96-46.35-79.96-46.35v-3.04l-1.26-.76Z"/><path class="hc" d="M574.76,288.34v5.63l81.22,47.09v-2.58s.02-3.49,.02-3.49l-79.98-45.89-1.26-.75Z"/><path class="kl" d="M574.76,288.34v5.63l81.22,47.09v-2.58s-79.96-46.34-79.96-46.34v-3.05l-1.26-.75Z"/><path class="ko" d="M574.76,302.19v5.64l81.22,47.09v-2.59s.02-3.49,.02-3.49l-79.98-45.89-1.26-.75Z"/><path class="ii" d="M574.76,302.19v5.64l81.22,47.09v-2.59s-79.96-46.34-79.96-46.34v-3.05l-1.26-.75Z"/><path class="jq" d="M574.76,316.05v5.64l81.22,47.09v-2.58s.02-3.51,.02-3.51l-79.98-45.88-1.26-.76Z"/><path class="ho" d="M574.76,316.05v5.64l81.22,47.09v-2.58s-79.96-46.35-79.96-46.35v-3.04l-1.26-.76Z"/><path class="jv" d="M574.76,329.9v5.64l81.22,47.09v-2.58s.02-3.5,.02-3.5l-79.98-45.89-1.26-.76Z"/><path class="hm" d="M574.76,329.9v5.64l81.22,47.09v-2.58s-79.96-46.35-79.96-46.35v-3.04l-1.26-.76Z"/><path class="jw" d="M936.34,174.82l-200.45-16.33V443.63l103.76,60.16,96.69-54.99V174.82Z"/><path class="hw" d="M839.67,218.6l103.77-60.11,.73,285.85-104.51,59.45V218.6Z"/><path class="kc" d="M839.67,98.57l103.77,59.92-103.77,59.98-103.78-59.98,103.78-59.92Z"/><path class="hw" d="M839.08,112.37l77.29,44.37,2.4-1.36-77.29-44.39-2.4,1.38Z"/><path class="hw" d="M835.07,114.75l77.28,44.37,2.4-1.36-77.29-44.38-2.4,1.37Z"/><path class="hw" d="M831.07,116.99l77.29,44.38,2.4-1.37-77.28-44.37-2.4,1.36Z"/><path class="iu" d="M744.44,174.73c27.68,16.38,55.83,31.97,83.5,48.35v38.68c-27.67-16.38-55.81-31.97-83.48-48.34l-.02-38.69Z"/><path class="fd" d="M792.76,208.68v4.25c-14.62-8.28-29.23-16.58-43.74-25.06v-4.25c14.5,8.49,29.11,16.77,43.74,25.06Z"/><path class="fm" d="M800.78,219.14l3.4,1.94v4.25l-3.4-1.95v-4.24Z"/><path class="fm" d="M807.58,227.31l3.4,1.96v4.25c-1.36-.78-2.04-1.19-3.4-1.96v-4.24Z"/><path class="fm" d="M821.19,230.86l3.4,2.01v4.25l-3.4-2.01v-4.25Z"/><path class="fm" d="M804.18,225.35l3.4,1.95v4.25l-3.4-1.96v-4.24Z"/><path class="fp" d="M810.99,224.95l3.4,1.97v4.25l-3.4-1.97c0-1.68,0-2.54,0-4.25Z"/><path class="fm" d="M814.39,226.97c1.36,.8,2.04,1.19,3.4,1.98v4.25l-3.4-1.97v-4.26Z"/><path class="fm" d="M817.79,233.19l3.4,1.99v4.25l-3.4-1.98v-4.26Z"/><path class="gd" d="M814.39,231.22l3.4,1.98v4.25l-3.4-1.97v-4.26Z"/><path class="gz" d="M792.76,215.52v4.25c-14.62-8.28-29.23-16.59-43.74-25.06v-4.25c14.5,8.45,29.11,16.78,43.74,25.06Z"/><path class="kb" d="M744.44,225.49c27.68,16.38,55.83,31.96,83.5,48.34v38.69c-27.67-16.4-55.81-31.98-83.48-48.34l-.02-38.69Z"/><path class="fq" d="M792.76,259.43v4.25c-14.62-8.29-29.23-16.59-43.74-25.07v-4.25c14.5,8.48,29.11,16.79,43.74,25.07Z"/><path class="fm" d="M800.78,269.89l3.4,1.95v4.25l-3.4-1.95v-4.25Z"/><path class="fm" d="M807.58,278.06l3.4,1.97v4.25l-3.4-1.96v-4.27Z"/><path class="fm" d="M821.19,281.6l3.4,2.02v4.25c-1.37-.85-2.05-1.2-3.4-2.01v-4.27Z"/><path class="fm" d="M804.18,276.1l3.4,1.95v4.25l-3.4-1.95v-4.25Z"/><path class="fc" d="M810.99,275.71l3.4,1.96v4.25l-3.4-1.96c0-1.69,0-2.55,0-4.25Z"/><path class="fm" d="M814.39,277.7l3.4,1.98v4.25c-1.37-.79-2.05-1.18-3.4-1.98v-4.25Z"/><path class="fm" d="M817.79,283.93l3.4,2v4.25l-3.4-1.98v-4.27Z"/><path class="es" d="M814.39,281.95c1.36,.8,2.04,1.19,3.4,1.98v4.25c-1.36-.8-2.05-1.19-3.4-1.97v-4.26Z"/><path class="fa" d="M792.76,266.27v4.25c-14.62-8.28-29.2-16.63-43.74-25.06v-4.25c14.5,8.48,29.11,16.77,43.74,25.06Z"/><path class="hq" d="M744.44,276.28c27.68,16.38,55.83,31.97,83.5,48.35v38.67c-27.67-16.39-55.81-31.96-83.48-48.34l-.02-38.68Z"/><path class="fn" d="M792.76,310.18v4.25c-14.62-8.29-29.23-16.59-43.74-25.07v-4.25c14.5,8.48,29.11,16.78,43.74,25.07Z"/><path class="fm" d="M800.78,320.65c1.36,.77,2.04,1.15,3.4,1.93v4.25c-1.36-.79-2.04-1.17-3.4-1.95v-4.23Z"/><path class="fm" d="M807.58,328.81c1.36,.78,2.04,1.19,3.4,1.96v4.25c-1.36-.8-2.04-1.19-3.4-1.96v-4.25Z"/><path class="fm" d="M821.19,332.39l3.4,2.01v4.25l-3.4-2.01v-4.25Z"/><path class="fm" d="M804.18,326.86l3.4,1.94v4.25l-3.4-1.94v-4.25Z"/><path class="ft" d="M810.99,326.44l3.4,1.96v4.25c-1.36-.8-2.04-1.19-3.4-1.97,0-1.69,0-2.54,0-4.24Z"/><path class="fm" d="M814.39,328.45c1.36,.8,2.04,1.19,3.4,1.98v4.25c-1.37-.78-2.05-1.18-3.4-1.97v-4.26Z"/><path class="fm" d="M817.79,334.69c1.35,.8,2.04,1.19,3.4,2v4.25l-3.4-1.99v-4.26Z"/><path class="fu" d="M814.39,332.71c1.36,.78,2.04,1.17,3.4,1.98v4.25c-1.36-.8-2.05-1.18-3.4-1.98v-4.25Z"/><path class="gf" d="M792.76,317.03v4.25c-14.62-8.28-29.2-16.63-43.74-25.06v-4.25c14.5,8.46,29.11,16.77,43.74,25.06Z"/><path class="kh" d="M745.11,331.49v5.64l81.22,47.09v-2.58s0-3.49,0-3.49l-79.98-45.9-1.25-.75Z"/><path class="hw" d="M745.11,331.49v5.64l81.22,47.09v-2.58s-79.97-46.35-79.97-46.35v-3.05l-1.25-.75Z"/><path class="hb" d="M745.11,345.35v5.63l81.22,47.09v-2.58s0-3.49,0-3.49l-79.98-45.9-1.25-.74Z"/><path class="hw" d="M745.11,345.35v5.63l81.22,47.09v-2.58s-79.97-46.35-79.97-46.35v-3.05l-1.25-.74Z"/><path class="il" d="M745.11,359.2v5.63l81.22,47.09v-2.58s0-3.49,0-3.49l-79.98-45.9-1.25-.74Z"/><path class="hw" d="M745.11,359.2v5.63l81.22,47.09v-2.58s-79.97-46.35-79.97-46.35v-3.05l-1.25-.74Z"/><path class="ha" d="M745.11,373.05v5.65l81.22,47.09v-2.58s0-3.5,0-3.5l-79.98-45.89-1.25-.76Z"/><path class="hw" d="M745.11,373.05v5.65l81.22,47.09v-2.58s-79.97-46.35-79.97-46.35v-3.04l-1.25-.76Z"/><path class="eq" d="M745.11,386.91v5.64l81.22,47.09v-2.58s0-3.49,0-3.49l-79.98-45.9-1.25-.75Z"/><path class="hw" d="M745.11,386.91v5.64l81.22,47.09v-2.58s-79.97-46.35-79.97-46.35v-3.05l-1.25-.75Z"/><path class="ik" d="M745.11,400.76v5.64l81.22,47.09v-2.58s0-3.49,0-3.49l-79.98-45.9-1.25-.75Z"/><path class="ie" d="M745.11,400.76v5.64l81.22,47.09v-2.58s-79.97-46.35-79.97-46.35v-3.05l-1.25-.75Z"/><path class="hn" d="M745.11,414.62v5.65l81.22,47.09v-2.58s0-3.51,0-3.51l-79.98-45.89-1.25-.76Z"/><path class="kj" d="M745.11,414.62v5.65l81.22,47.09v-2.58s-79.97-46.36-79.97-46.36v-3.04l-1.25-.76Z"/><path class="jk" d="M745.11,428.47v5.65l81.22,47.09v-2.58s0-3.49,0-3.49l-79.98-45.89-1.25-.76Z"/><path class="iy" d="M745.11,428.47v5.65l81.22,47.09v-2.58s-79.97-46.35-79.97-46.35v-3.04l-1.25-.76Z"/><path class="jh" d="M935.54,418.09l-87.12,49.71v13.6l87.12-49.71v-13.6Z"/><path class="jh" d="M935.54,398.81l-87.12,49.72v13.6l87.12-49.72v-13.6Z"/><path class="jh" d="M935.54,379.55l-87.12,49.71v13.6l87.12-49.71v-13.6Z"/><path class="jh" d="M935.54,360.27l-87.12,49.72v13.6l87.12-49.72v-13.6Z"/><path class="jh" d="M935.54,341.01l-87.12,49.71v13.6l87.12-49.71v-13.6Z"/><path class="jh" d="M935.54,321.73l-87.12,49.72v13.6l87.12-49.72v-13.6Z"/><path class="jh" d="M935.54,302.47l-87.12,49.71v13.6l87.12-49.71v-13.6Z"/><path class="ij" d="M935.54,283.19l-87.12,49.71v13.6l87.12-49.71v-13.6Z"/><path class="ij" d="M935.54,263.92l-87.12,49.72v13.6l87.12-49.72v-13.6Z"/><path class="ij" d="M935.54,244.65l-87.12,49.71v13.6l87.12-49.71v-13.6Z"/><path class="ij" d="M935.54,225.38l-87.12,49.72v13.6l87.12-49.72v-13.6Z"/><path class="ij" d="M935.54,206.11l-87.12,49.71v13.6l87.12-49.71v-13.6Z"/><path class="ij" d="M935.54,186.84l-87.12,49.71v13.6l87.12-49.71v-13.6Z"/><path class="im" d="M949.21,444.06c-4.69-8.8-11.13-16.55-18.93-22.77-.75-10.09-3.69-19.9-8.62-28.74-12.64-23.27-34.8-36.67-51.23-31.71-1.87-6.16-4.37-12.12-7.46-17.78-16.83-31-47.25-47.9-67.93-37.76-9.73,4.76-15.57,14.66-17.28,27.03-8.62-3.78-17.3-4.34-24.51-.85-16.64,8.15-19.15,34.98-5.61,59.92,6.18,11.38,14.63,20.41,23.59,26.07,10.65,6.74,133.99,78.22,143.88,83.69,9.89,5.47,20.16,6.85,28.48,2.78,16.64-8.12,19.16-34.94,5.62-59.87Z"/><path class="jw" d="M595.94,169.74l-200.45-16.34V438.54l103.76,60.16,96.69-55V169.74Z"/><path class="hw" d="M499.27,213.52l103.77-60.12,.73,285.86-104.5,59.45V213.52Z"/><path class="kc" d="M499.27,93.49l103.77,59.91-103.77,59.99-103.78-59.99,103.78-59.91Z"/><path class="hw" d="M498.67,107.29l77.29,44.37,2.4-1.36-77.29-44.39-2.4,1.38Z"/><path class="hw" d="M494.68,109.67l77.29,44.37,2.39-1.36-77.29-44.38-2.39,1.37Z"/><path class="hw" d="M490.67,111.91l77.28,44.38,2.4-1.37-77.29-44.37-2.39,1.36Z"/><path class="hx" d="M404.03,169.64c27.68,16.38,55.83,31.97,83.5,48.35,0,12.9,0,25.79,0,38.68-27.67-16.38-55.81-31.97-83.48-48.34l-.02-38.69Z"/><path class="go" d="M452.36,203.59v4.25c-14.62-8.28-29.22-16.58-43.74-25.06v-4.25c14.51,8.48,29.11,16.77,43.74,25.06Z"/><path class="fm" d="M460.4,214.05c1.35,.78,2.03,1.17,3.4,1.95v4.25c-1.37-.77-2.05-1.17-3.4-1.95v-4.25Z"/><path class="fm" d="M467.2,222.23l3.4,1.96v4.25c-1.36-.79-2.05-1.19-3.4-1.96v-4.24Z"/><path class="fm" d="M480.8,225.78c1.36,.79,2.04,1.21,3.4,2.01v4.25l-3.4-2.01v-4.25Z"/><path class="fm" d="M463.8,220.27l3.4,1.94v4.25c-1.36-.77-2.04-1.16-3.4-1.96v-4.23Z"/><path class="fb" d="M470.6,219.87l3.4,1.97v4.25c-1.36-.79-2.03-1.19-3.4-1.97v-4.25Z"/><path class="fm" d="M474,221.87l3.4,1.98v4.25l-3.4-1.98v-4.25Z"/><path class="fm" d="M477.4,228.11l3.4,1.99v4.25l-3.4-1.99v-4.25Z"/><path class="fg" d="M474,226.12l3.4,1.98v4.25l-3.4-1.98v-4.25Z"/><path class="eu" d="M452.36,210.44v4.25c-14.62-8.29-29.22-16.59-43.74-25.06v-4.25c14.51,8.48,29.11,16.78,43.74,25.06Z"/><path class="ji" d="M404.03,220.4c27.68,16.38,55.83,31.96,83.5,48.34,0,12.9,0,25.79,0,38.69-27.67-16.4-55.81-31.98-83.48-48.35l-.02-38.68Z"/><path class="fh" d="M452.36,254.34v4.25c-14.62-8.29-29.22-16.59-43.74-25.07v-4.25c14.51,8.48,29.11,16.79,43.74,25.07Z"/><path class="fm" d="M460.4,264.81l3.4,1.94v4.25c-1.37-.77-2.05-1.17-3.4-1.95v-4.24Z"/><path class="fm" d="M467.2,272.97l3.4,1.97v4.25c-1.36-.77-2.05-1.16-3.4-1.96v-4.27Z"/><path class="fm" d="M480.8,276.52l3.4,2.02v4.25c-1.36-.85-2.04-1.21-3.4-2.01v-4.26Z"/><path class="fm" d="M463.8,271.02l3.4,1.95v4.25l-3.4-1.95v-4.25Z"/><path class="fe" d="M470.6,270.63l3.4,1.96v4.25c-1.36-.79-2.03-1.19-3.4-1.97v-4.24Z"/><path class="fm" d="M474,272.61l3.4,1.97v4.25l-3.4-1.98v-4.24Z"/><path class="fm" d="M477.4,278.83l3.4,2v4.25l-3.4-1.98v-4.27Z"/><path class="fi" d="M474,276.87l3.4,1.98v4.25c-1.36-.8-2.04-1.19-3.4-1.97v-4.26Z"/><path class="gu" d="M452.36,261.19v4.25c-14.62-8.27-29.22-16.59-43.74-25.06v-4.25c14.51,8.49,29.11,16.77,43.74,25.06Z"/><path class="jn" d="M404.03,271.18c27.68,16.38,55.83,31.97,83.5,48.35,0,12.89,0,25.78,0,38.66-27.67-16.38-55.81-31.96-83.48-48.34l-.02-38.68Z"/><path class="gl" d="M452.36,305.09v4.25c-14.62-8.29-29.22-16.59-43.74-25.07v-4.25c14.51,8.48,29.11,16.78,43.74,25.07Z"/><path class="fm" d="M460.4,315.56l3.4,1.93v4.25l-3.4-1.95v-4.23Z"/><path class="fm" d="M467.2,323.72l3.4,1.96v4.25c-1.36-.8-2.05-1.19-3.4-1.96v-4.25Z"/><path class="fm" d="M480.8,327.29l3.4,2.01v4.25l-3.4-2.01v-4.25Z"/><path class="fm" d="M463.8,321.77l3.4,1.94v4.25l-3.4-1.94v-4.25Z"/><path class="er" d="M470.6,321.34l3.4,1.96v4.25c-1.36-.8-2.03-1.19-3.4-1.97v-4.24Z"/><path class="fm" d="M474,323.36l3.4,1.98v4.25l-3.4-1.97v-4.26Z"/><path class="fm" d="M477.4,329.6l3.4,2v4.25l-3.4-1.99v-4.26Z"/><path class="fk" d="M474,327.62l3.4,1.97v4.25l-3.4-1.98v-4.24Z"/><path class="fz" d="M452.36,311.99v4.25c-14.62-8.27-29.2-16.62-43.74-25.06v-4.25c14.51,8.42,29.11,16.72,43.74,25.06Z"/><path class="jx" d="M404.71,326.41v5.64l81.22,47.09v-2.58s.02-3.49,.02-3.49l-79.98-45.9-1.26-.75Z"/><path class="jd" d="M404.71,326.41v5.64l81.22,47.09v-2.58s-79.96-46.35-79.96-46.35v-3.05l-1.26-.75Z"/><path class="ju" d="M404.71,340.27v5.63l81.22,47.09v-2.58s.02-3.49,.02-3.49l-79.98-45.9-1.26-.74Z"/><path class="kd" d="M404.71,340.27v5.63l81.22,47.09v-2.58s-79.96-46.35-79.96-46.35v-3.05l-1.26-.74Z"/><path class="jm" d="M404.71,354.12v5.63l81.22,47.09v-2.58s.02-3.49,.02-3.49l-79.98-45.9-1.26-.74Z"/><path class="jj" d="M404.71,354.12v5.63l81.22,47.09v-2.58s-79.96-46.35-79.96-46.35v-3.05l-1.26-.74Z"/><path class="je" d="M404.71,367.97v5.65l81.22,47.09v-2.58s.02-3.5,.02-3.5l-79.98-45.89-1.26-.76Z"/><path class="ir" d="M404.71,367.97v5.65l81.22,47.09v-2.58s-79.96-46.35-79.96-46.35v-3.04l-1.26-.76Z"/><path class="iw" d="M404.71,381.83v5.64l81.22,47.09v-2.58s.02-3.5,.02-3.5l-79.98-45.89-1.26-.75Z"/><path class="hy" d="M404.71,381.83v5.64l81.22,47.09v-2.58s-79.96-46.35-79.96-46.35v-3.05l-1.26-.75Z"/><path class="jl" d="M404.71,395.68v5.64l81.22,47.09v-2.58s.02-3.49,.02-3.49l-79.98-45.9-1.26-.75Z"/><path class="is" d="M404.71,395.68v5.64l81.22,47.09v-2.58s-79.96-46.35-79.96-46.35v-3.05l-1.26-.75Z"/><path class="jb" d="M404.71,409.53v5.65l81.22,47.08v-2.57s.02-3.51,.02-3.51l-79.98-45.89-1.26-.76Z"/><path class="hu" d="M404.71,409.53v5.65l81.22,47.08v-2.57s-79.96-46.36-79.96-46.36v-3.04l-1.26-.76Z"/><path class="ib" d="M404.71,423.38v5.65l81.22,47.08v-2.58s.02-3.49,.02-3.49l-79.98-45.89-1.26-.76Z"/><path class="ih" d="M404.71,423.38v5.65l81.22,47.08v-2.58s-79.96-46.35-79.96-46.35v-3.04l-1.26-.76Z"/><path class="jw" d="M424.98,263.59l-200.44-16.33v285.14l103.76,60.16,96.68-54.99V263.59Z"/><path class="hw" d="M328.31,307.36l103.77-60.11,.73,285.85-104.51,59.45V307.36Z"/><path class="kc" d="M328.31,187.34l103.78,59.92-103.77,59.98-103.78-59.98,103.77-59.92Z"/><path class="hw" d="M327.72,201.14l77.29,44.37,2.39-1.36-77.28-44.39-2.4,1.38Z"/><path class="hw" d="M323.71,203.52l77.29,44.37,2.4-1.36-77.29-44.38-2.4,1.37Z"/><path class="hw" d="M319.71,205.75l77.29,44.38,2.4-1.37-77.29-44.37-2.4,1.36Z"/><path class="ig" d="M233.08,263.53c27.68,16.39,55.83,31.97,83.5,48.35v38.68c-27.67-16.38-55.81-31.97-83.48-48.34l-.02-38.69Z"/><path class="fj" d="M281.41,297.44v4.25c-14.62-8.28-29.23-16.58-43.74-25.06v-4.25c14.5,8.48,29.11,16.77,43.74,25.06Z"/><path class="fm" d="M289.42,307.91l3.4,1.94v4.25l-3.4-1.95v-4.24Z"/><path class="fm" d="M296.23,316.08l3.4,1.96v4.25c-1.36-.78-2.04-1.19-3.4-1.96v-4.24Z"/><path class="fm" d="M309.83,319.64l3.4,2.01v4.25l-3.4-2.01v-4.25Z"/><path class="fm" d="M292.83,314.11l3.4,1.95v4.25l-3.4-1.96v-4.24Z"/><path class="ew" d="M299.64,313.69l3.4,1.98v4.25l-3.4-1.97c0-1.67,0-2.56,0-4.26Z"/><path class="fm" d="M303.03,315.71l3.4,1.97v4.25l-3.4-1.97v-4.25Z"/><path class="fm" d="M306.43,321.95l3.4,1.99v4.25c-1.36-.8-2.05-1.19-3.4-1.98v-4.26Z"/><path class="fw" d="M303.03,319.96l3.4,1.98v4.25l-3.4-1.97v-4.26Z"/><path class="fv" d="M281.41,304.29v4.25c-14.62-8.28-29.23-16.59-43.74-25.06v-4.25c14.5,8.49,29.11,16.78,43.74,25.06Z"/><path class="jp" d="M233.08,314.25c27.68,16.38,55.83,31.96,83.5,48.35v38.68c-27.67-16.4-55.81-31.98-83.48-48.34l-.02-38.69Z"/><path class="ff" d="M281.41,348.19v4.25c-14.62-8.29-29.23-16.59-43.74-25.07v-4.25c14.5,8.48,29.11,16.79,43.74,25.07Z"/><path class="fm" d="M289.42,358.66l3.4,1.95v4.25l-3.4-1.95v-4.25Z"/><path class="fm" d="M296.23,366.82l3.4,1.97v4.25l-3.4-1.96v-4.27Z"/><path class="fm" d="M309.83,370.36l3.4,2.02v4.25l-3.4-2.01v-4.27Z"/><path class="fm" d="M292.83,364.86l3.4,1.95v4.25l-3.4-1.95v-4.25Z"/><path class="gt" d="M299.64,364.47l3.4,1.96v4.25l-3.4-1.96c0-1.69,0-2.55,0-4.25Z"/><path class="fm" d="M303.03,366.46l3.4,1.98v4.25l-3.4-1.98v-4.25Z"/><path class="fm" d="M306.43,372.7l3.4,2v4.25l-3.4-1.98v-4.27Z"/><path class="gk" d="M303.03,370.72l3.4,1.97v4.25c-1.36-.8-2.04-1.19-3.4-1.97v-4.25Z"/><path class="ez" d="M281.41,355.04v4.25c-14.62-8.28-29.23-16.6-43.74-25.06v-4.25c14.5,8.49,29.11,16.78,43.74,25.06Z"/><path class="hf" d="M233.08,365c27.68,16.38,55.83,31.97,83.5,48.35v38.67c-27.67-16.39-55.81-31.96-83.48-48.34l-.02-38.68Z"/><path class="fx" d="M281.41,398.94v4.25c-14.62-8.28-29.23-16.59-43.74-25.07v-4.25c14.5,8.48,29.11,16.78,43.74,25.07Z"/><path class="fm" d="M289.42,409.42c1.36,.77,2.04,1.15,3.4,1.93v4.25c-1.36-.79-2.04-1.17-3.4-1.95v-4.23Z"/><path class="fm" d="M296.23,417.57c1.36,.78,2.04,1.19,3.4,1.96v4.25c-1.36-.8-2.04-1.19-3.4-1.96v-4.25Z"/><path class="fm" d="M309.83,421.12l3.4,2.01v4.25l-3.4-2.01v-4.25Z"/><path class="fm" d="M292.83,415.62l3.4,1.95v4.25l-3.4-1.94v-4.26Z"/><path class="gh" d="M299.64,415.22l3.4,1.96v4.25c-1.36-.8-2.04-1.19-3.4-1.97,0-1.67,0-2.53,0-4.24Z"/><path class="fm" d="M303.03,417.21l3.4,1.98v4.25l-3.4-1.97v-4.26Z"/><path class="fm" d="M306.43,423.45c1.36,.8,2.05,1.19,3.4,2v4.25l-3.4-1.99v-4.26Z"/><path class="et" d="M303.03,421.47c1.36,.78,2.04,1.17,3.4,1.98v4.25l-3.4-1.98v-4.25Z"/><path class="gm" d="M281.41,405.79v4.25c-14.62-8.26-29.2-16.62-43.74-25.06v-4.25c14.5,8.46,29.11,16.77,43.74,25.06Z"/><path class="kn" d="M233.75,420.26v5.64l81.22,47.09v-2.58s0-3.49,0-3.49l-79.98-45.9-1.25-.75Z"/><path class="hw" d="M233.75,420.26v5.64l81.22,47.09v-2.58s-79.97-46.35-79.97-46.35v-3.05l-1.25-.75Z"/><path class="id" d="M233.75,434.11v5.63l81.22,47.09v-2.58s0-3.49,0-3.49l-79.98-45.9-1.25-.74Z"/><path class="hw" d="M233.75,434.11v5.63l81.22,47.09v-2.58s-79.97-46.35-79.97-46.35v-3.05l-1.25-.74Z"/><path class="hp" d="M233.75,447.96v5.63l81.22,47.1v-2.59s0-3.49,0-3.49l-79.98-45.9-1.25-.74Z"/><path class="hw" d="M233.75,447.96v5.63l81.22,47.1v-2.59s-79.97-46.35-79.97-46.35v-3.05l-1.25-.74Z"/><path class="hz" d="M233.75,461.81v5.65l81.22,47.09v-2.58s0-3.5,0-3.5l-79.98-45.89-1.25-.76Z"/><path class="hw" d="M233.75,461.81v5.65l81.22,47.09v-2.58s-79.97-46.35-79.97-46.35v-3.04l-1.25-.76Z"/><path class="kp" d="M233.75,475.67v5.64l81.22,47.09v-2.58s0-3.49,0-3.49l-79.98-45.9-1.25-.75Z"/><path class="hw" d="M233.75,475.67v5.64l81.22,47.09v-2.58s-79.97-46.35-79.97-46.35v-3.05l-1.25-.75Z"/><path class="hg" d="M233.75,489.52v5.64l81.22,47.09v-2.58s0-3.49,0-3.49l-79.98-45.9-1.25-.75Z"/><path class="hw" d="M233.75,489.52v5.64l81.22,47.09v-2.58s-79.97-46.35-79.97-46.35v-3.05l-1.25-.75Z"/><path class="hi" d="M233.75,503.38v5.65l81.22,47.09v-2.58s0-3.51,0-3.51l-79.98-45.89-1.25-.76Z"/><path class="hw" d="M233.75,503.38v5.65l81.22,47.09v-2.58s-79.97-46.36-79.97-46.36v-3.04l-1.25-.76Z"/><path class="km" d="M233.75,517.23v5.65l81.22,47.09v-2.58s0-3.49,0-3.49l-79.98-45.89-1.25-.76Z"/><path class="hw" d="M233.75,517.23v5.65l81.22,47.09v-2.58s-79.97-46.35-79.97-46.35v-3.04l-1.25-.76Z"/><path class="jw" d="M766.29,268.3l-200.45-16.33v285.14l103.76,60.16,96.69-54.99V268.3Z"/><path class="hw" d="M669.62,312.08l103.77-60.11,.73,285.85-104.51,59.45V312.08Z"/><path class="kc" d="M669.62,192.06l103.77,59.92-103.77,59.98-103.78-59.98,103.78-59.92Z"/><path class="hw" d="M669.02,205.86l77.29,44.38,2.4-1.37-77.29-44.38-2.4,1.37Z"/><path class="hw" d="M665.02,208.24l77.28,44.38,2.4-1.37-77.29-44.38-2.4,1.37Z"/><path class="hw" d="M661.01,210.48l77.29,44.37,2.4-1.37-77.29-44.37-2.4,1.37Z"/><path class="ia" d="M574.38,268.21c27.68,16.39,55.83,31.97,83.5,48.35v38.69c-27.67-16.39-55.81-31.98-83.48-48.34l-.02-38.69Z"/><path class="gw" d="M622.71,302.16v4.25c-14.62-8.29-29.23-16.58-43.74-25.07v-4.25c14.5,8.49,29.11,16.79,43.74,25.07Z"/><path class="fm" d="M630.73,312.63l3.4,1.95v4.25l-3.4-1.95v-4.25Z"/><path class="fm" d="M637.53,320.8c1.36,.77,2.04,1.17,3.4,1.96v4.25l-3.4-1.96v-4.25Z"/><path class="fm" d="M651.13,324.35l3.4,2v4.25l-3.4-2.01v-4.24Z"/><path class="fm" d="M634.13,318.83l3.4,1.95v4.25l-3.4-1.95v-4.25Z"/><path class="gn" d="M640.94,318.44l3.4,1.97v4.25l-3.4-1.97c0-1.69,0-2.55,0-4.25Z"/><path class="fm" d="M644.33,320.43l3.4,1.98v4.25c-1.37-.79-2.05-1.19-3.4-1.96v-4.27Z"/><path class="fm" d="M647.74,326.67l3.4,1.99v4.25c-1.36-.81-2.05-1.2-3.4-1.99v-4.25Z"/><path class="fs" d="M644.33,324.68c1.36,.8,2.04,1.19,3.4,1.98v4.25l-3.4-1.97v-4.26Z"/><path class="gc" d="M622.71,309v4.25c-14.62-8.28-29.23-16.59-43.74-25.06v-4.25c14.5,8.49,29.11,16.78,43.74,25.06Z"/><path class="jz" d="M574.38,318.97c27.68,16.38,55.83,31.97,83.5,48.35v38.68c-27.67-16.4-55.81-31.97-83.48-48.34l-.02-38.69Z"/><path class="gy" d="M622.71,352.91v4.25c-14.62-8.28-29.23-16.59-43.74-25.07v-4.25c14.5,8.48,29.11,16.79,43.74,25.07Z"/><path class="fm" d="M630.73,363.38l3.4,1.95v4.25l-3.4-1.94v-4.26Z"/><path class="fm" d="M637.53,371.5c1.36,.78,2.04,1.19,3.4,1.97v4.25l-3.4-1.95v-4.28Z"/><path class="fm" d="M651.13,375.09l3.4,2.02v4.25l-3.4-2.01v-4.26Z"/><path class="fm" d="M634.13,369.58l3.4,1.95v4.25l-3.4-1.95v-4.25Z"/><path class="gi" d="M640.94,369.19l3.4,1.96v4.25c-1.36-.8-2.04-1.19-3.4-1.97,0-1.68,0-2.53,0-4.24Z"/><path class="fm" d="M644.33,371.18c1.36,.8,2.04,1.19,3.4,1.98v4.25l-3.4-1.97v-4.26Z"/><path class="fm" d="M647.74,377.46l3.4,2.01v4.25l-3.4-1.98v-4.28Z"/><path class="gv" d="M644.33,375.44l3.4,1.98v4.25c-1.36-.8-2.05-1.19-3.4-1.97v-4.26Z"/><path class="gs" d="M622.71,359.75v4.25c-14.62-8.28-29.23-16.6-43.74-25.06v-4.25c14.5,8.49,29.11,16.78,43.74,25.06Z"/><path class="ke" d="M574.38,369.72c27.68,16.38,55.83,31.97,83.5,48.35v38.67c-27.67-16.38-55.81-31.96-83.48-48.34l-.02-38.69Z"/><path class="gq" d="M622.71,403.66v4.25c-14.62-8.28-29.23-16.59-43.74-25.07v-4.25c14.5,8.48,29.11,16.78,43.74,25.07Z"/><path class="fm" d="M630.73,414.13l3.4,1.93v4.25c-1.36-.79-2.04-1.17-3.4-1.95v-4.23Z"/><path class="fm" d="M637.53,422.3c1.36,.78,2.04,1.18,3.4,1.96v4.25c-1.36-.79-2.04-1.19-3.4-1.96v-4.24Z"/><path class="fm" d="M651.13,425.84l3.4,2.01v4.25c-1.37-.85-2.05-1.21-3.4-2.01v-4.25Z"/><path class="fm" d="M634.13,420.34l3.4,1.95v4.25l-3.4-1.93v-4.27Z"/><path class="fr" d="M640.94,419.97l3.4,1.96v4.25l-3.4-1.97c0-1.68,0-2.53,0-4.23Z"/><path class="fm" d="M644.33,421.93c1.36,.8,2.04,1.19,3.4,1.98v4.25l-3.4-1.97v-4.26Z"/><path class="fm" d="M647.74,428.18l3.4,1.99v4.25l-3.4-2v-4.24Z"/><path class="gp" d="M644.33,426.19c1.36,.78,2.04,1.17,3.4,1.98v4.25l-3.4-1.97v-4.26Z"/><path class="gj" d="M622.71,410.51v4.25c-14.62-8.27-29.23-16.59-43.74-25.06v-4.25c14.5,8.47,29.11,16.77,43.74,25.06Z"/><path class="he" d="M575.06,424.97v5.64l81.22,47.09v-2.58s0-3.49,0-3.49l-79.97-45.9-1.26-.75Z"/><path class="hw" d="M575.06,424.97v5.64l81.22,47.09v-2.58s-79.96-46.34-79.96-46.34v-3.06l-1.26-.75Z"/><path class="kk" d="M575.06,438.83v5.63l81.22,47.1v-2.59s0-3.49,0-3.49l-79.97-45.89-1.26-.75Z"/><path class="hw" d="M575.06,438.83v5.63l81.22,47.1v-2.59s-79.96-46.34-79.96-46.34v-3.05l-1.26-.75Z"/><path class="in" d="M575.06,452.69v5.62l81.22,47.1v-2.59s0-3.49,0-3.49l-79.97-45.89-1.26-.74Z"/><path class="hw" d="M575.06,452.69v5.62l81.22,47.1v-2.59s-79.96-46.34-79.96-46.34v-3.05l-1.26-.74Z"/><path class="it" d="M575.06,466.54v5.64l81.22,47.09v-2.58s0-3.5,0-3.5l-79.97-45.89-1.26-.75Z"/><path class="hw" d="M575.06,466.54v5.64l81.22,47.09v-2.58s-79.96-46.35-79.96-46.35v-3.05l-1.26-.75Z"/><path class="kr" d="M575.06,480.4v5.63l81.22,47.09v-2.58s0-3.49,0-3.49l-79.97-45.89-1.26-.75Z"/><path class="hw" d="M575.06,480.4v5.63l81.22,47.09v-2.58s-79.96-46.35-79.96-46.35v-3.04l-1.26-.75Z"/><path class="hh" d="M575.06,494.25v5.63l81.22,47.1v-2.59s0-3.49,0-3.49l-79.97-45.89-1.26-.75Z"/><path class="hw" d="M575.06,494.25v5.63l81.22,47.1v-2.59s-79.96-46.34-79.96-46.34v-3.05l-1.26-.75Z"/><path class="js" d="M575.06,508.1v5.65l81.22,47.09v-2.58s0-3.51,0-3.51l-79.97-45.89-1.26-.76Z"/><path class="hw" d="M575.06,508.1v5.65l81.22,47.09v-2.58s-79.96-46.35-79.96-46.35v-3.04l-1.26-.76Z"/><path class="ka" d="M575.06,521.96v5.64l81.22,47.09v-2.58s0-3.49,0-3.49l-79.97-45.89-1.26-.75Z"/><path class="hw" d="M575.06,521.96v5.64l81.22,47.09v-2.58s-79.96-46.35-79.96-46.35v-3.04l-1.26-.75Z"/><path class="jw" d="M595.33,362.15l-200.45-16.33v285.15l103.77,60.15,96.68-54.99V362.15Z"/><path class="hw" d="M498.66,405.93l103.77-60.11,.72,285.86-104.5,59.44V405.93Z"/><path class="kc" d="M498.66,285.9l103.78,59.92-103.77,59.98-103.79-59.98,103.78-59.92Z"/><path class="hw" d="M498.07,299.7l77.29,44.38,2.39-1.37-77.28-44.38-2.4,1.37Z"/><path class="hw" d="M494.06,302.08l77.29,44.38,2.4-1.37-77.29-44.38-2.4,1.37Z"/><path class="hw" d="M490.06,304.33l77.28,44.37,2.4-1.37-77.29-44.37-2.39,1.37Z"/><path class="hs" d="M404.1,588.1v5.64l81.22,47.09v-6.09s-79.97-45.89-79.97-45.89l-1.25-.75Z"/><path class="hw" d="M404.1,588.1v5.64l81.22,47.09v-2.59l-79.97-46.34v-3.05l-1.25-.75Z"/><path class="ki" d="M404.1,601.96v5.64l81.22,47.09v-6.09s-79.97-45.89-79.97-45.89l-1.25-.75Z"/><path class="hw" d="M404.1,601.96v5.64l81.22,47.09v-2.58l-79.97-46.35v-3.04l-1.25-.75Z"/><path class="jt" d="M404.1,615.81v5.64l81.22,47.09v-6.08s-79.97-45.89-79.97-45.89l-1.25-.76Z"/><path class="hw" d="M404.1,615.81v5.64l81.22,47.09v-2.58l-79.97-46.35v-3.04l-1.25-.76Z"/><path class="hw" d="M408.42,421.48l72.13,43.23-.03,72.27-72.11-43.22v-72.29Z"/><path class="iv" d="M402.99,500v-89.66l83.97,50.33v89.66l-83.97-50.32Zm1.11-87.57v86.82l81.75,49.01v-86.82l-81.75-49.01Z"/><path class="hr" d="M408.42,421.48v72.29l72.11,43.22v-6.9l-67.78-40.62v-65.38l-4.33-2.59Z"/><path class="ix" d="M408.42,497.63l72.11,39.36v3.72l-47.02,19.46-72.13-43.09v-3.73l47.04-15.72Z"/><path class="kc" d="M408.42,493.88l72.11,43.09-47.02,19.45-72.13-43.08,47.04-19.46Z"/><g class="if"><g class="if"><path class="hd" d="M468.88,465.98v7.36l2.21,1.31v-7.37l-2.21-1.3Z"/><path class="hd" d="M460.78,461.17v7.34l2.21,1.32v-7.34l-2.21-1.32Z"/><path class="hd" d="M456.73,458.76v7.31l2.2,1.32v-7.33l-2.2-1.3Z"/><path class="hd" d="M452.68,456.37v7.29l2.21,1.32v-7.33l-2.21-1.28Z"/><path class="hd" d="M428.37,441.94v7.19l2.19,1.32v-7.2l-2.19-1.31Z"/><path class="hd" d="M424.32,439.55v7.18l2.22,1.32v-7.19l-2.22-1.3Z"/></g><g class="if"><path class="hd" d="M464.83,463.83v7.36l2.2,1.3v-7.36l-2.2-1.3Z"/><path class="hd" d="M456.73,459.02v7.33l2.2,1.33v-7.34l-2.2-1.32Z"/><path class="hd" d="M452.68,456.61v7.31l2.2,1.3v-7.31l-2.2-1.3Z"/><path class="hd" d="M448.63,454.2v7.3l2.2,1.33v-7.32l-2.2-1.31Z"/><path class="hd" d="M436.45,447v7.24l2.23,1.3v-7.24l-2.23-1.3Z"/><path class="hd" d="M424.3,439.79v7.19l2.2,1.32v-7.19l-2.2-1.32Z"/><path class="hd" d="M420.27,437.4v7.18l2.21,1.3v-7.19l-2.21-1.28Z"/></g><g class="if"><path class="hd" d="M444.62,451.59v7.36l2.22,1.3v-7.35l-2.22-1.32Z"/><path class="hd" d="M436.5,446.77v7.34l2.2,1.32v-7.34l-2.2-1.32Z"/><path class="hd" d="M432.45,444.37v7.33l2.23,1.3v-7.33l-2.23-1.3Z"/><path class="hd" d="M428.42,441.96v7.31l2.21,1.32v-7.31l-2.21-1.32Z"/></g><g class="if"><path class="hd" d="M422.48,478.8v-7.38l-2.21-1.28v7.36l2.21,1.3Z"/><path class="hd" d="M430.56,483.61v-7.34l-2.19-1.32v7.34l2.19,1.32Z"/><path class="hd" d="M434.63,486.02v-7.33l-2.21-1.3v7.31l2.21,1.32Z"/><path class="hd" d="M438.68,488.41v-7.29l-2.23-1.32v7.32l2.23,1.29Z"/><path class="hd" d="M450.83,495.63v-7.25l-2.2-1.31v7.24l2.2,1.32Z"/><path class="hd" d="M462.99,502.83v-7.18l-2.21-1.32v7.18l2.21,1.32Z"/><path class="hd" d="M467.03,505.23v-7.18l-2.2-1.31v7.18l2.2,1.3Z"/></g><g class="if"><path class="hd" d="M438.69,488.55v-7.35l-2.21-1.32v7.34l2.21,1.33Z"/><path class="hd" d="M442.75,490.93v-7.31l-2.2-1.31v7.32l2.2,1.3Z"/><path class="hd" d="M446.79,493.35v-7.31l-2.22-1.33v7.33l2.22,1.31Z"/><path class="hd" d="M458.94,500.55v-7.24l-2.21-1.31v7.24l2.21,1.31Z"/><path class="hd" d="M471.09,507.77v-7.19l-2.19-1.33v7.21l2.19,1.32Z"/></g><g class="if"><path class="hd" d="M422.48,467.41v-7.37l-2.21-1.3v7.36l2.21,1.31Z"/><path class="hd" d="M430.56,472.21v-7.34l-2.19-1.32v7.35l2.19,1.31Z"/><path class="hd" d="M434.63,474.63v-7.31l-2.21-1.32v7.32l2.21,1.31Z"/><path class="hd" d="M438.68,477.03v-7.32l-2.23-1.32v7.31l2.23,1.33Z"/><path class="hd" d="M450.83,484.23v-7.24l-2.2-1.31v7.24l2.2,1.31Z"/><path class="hd" d="M462.99,491.44v-7.2l-2.21-1.32v7.21l2.21,1.31Z"/><path class="hd" d="M467.03,493.84v-7.18l-2.2-1.32v7.19l2.2,1.3Z"/></g><g class="if"><path class="hd" d="M426.54,469.56v-7.37l-2.22-1.3v7.36l2.22,1.31Z"/><path class="hd" d="M434.63,474.38v-7.34l-2.21-1.33v7.35l2.21,1.32Z"/><path class="hd" d="M438.69,476.78v-7.31l-2.21-1.31v7.31l2.21,1.31Z"/><path class="hd" d="M442.74,479.18v-7.29l-2.22-1.33v7.32l2.22,1.3Z"/><path class="hd" d="M467.04,493.6v-7.18l-2.2-1.32v7.18l2.2,1.32Z"/></g><g class="if"><path class="hd" d="M422.48,456.47v-7.36l-2.21-1.3v7.36l2.21,1.3Z"/><path class="hd" d="M430.56,461.29v-7.34l-2.19-1.32v7.34l2.19,1.32Z"/><path class="hd" d="M434.63,463.69v-7.32l-2.21-1.3v7.32l2.21,1.3Z"/><path class="hd" d="M438.68,466.09v-7.29l-2.23-1.33v7.31l2.23,1.31Z"/><path class="hd" d="M450.83,473.31v-7.24l-2.2-1.33v7.24l2.2,1.33Z"/><path class="hd" d="M462.99,480.51v-7.19l-2.21-1.32v7.19l2.21,1.32Z"/><path class="hd" d="M467.03,482.92v-7.18l-2.2-1.31v7.19l2.2,1.3Z"/></g><g class="if"><path class="hd" d="M426.54,458.63v-7.37l-2.22-1.31v7.37l2.22,1.31Z"/><path class="hd" d="M434.63,463.46v-7.35l-2.21-1.31v7.34l2.21,1.33Z"/><path class="hd" d="M438.69,465.84v-7.31l-2.21-1.3v7.31l2.21,1.3Z"/><path class="hd" d="M442.74,468.25v-7.3l-2.22-1.33v7.31l2.22,1.32Z"/><path class="hd" d="M454.89,475.45v-7.24l-2.21-1.3v7.24l2.21,1.3Z"/><path class="hd" d="M467.04,482.67v-7.19l-2.2-1.31v7.19l2.2,1.31Z"/><path class="hd" d="M471.09,485.07v-7.18l-2.21-1.31v7.18l2.21,1.31Z"/></g><g class="if"><path class="hd" d="M446.75,470.87v-7.36l-2.22-1.3v7.36l2.22,1.3Z"/><path class="hd" d="M454.84,475.68v-7.34l-2.21-1.32v7.34l2.21,1.32Z"/><path class="hd" d="M458.9,478.09v-7.32l-2.21-1.3v7.31l2.21,1.31Z"/></g></g><path class="jy" d="M401.94,521.36c-.32-.14-.69-.14-1.01,0-3.67,1.49-7.35,2.98-11.05,4.46-.29,.12-.33,.34-.09,.48,5.63,3.31,11.26,6.6,16.89,9.88,.32,.16,.69,.18,1.02,.06,3.74-1.46,7.48-2.93,11.22-4.41,.31-.1,.34-.33,.09-.48-5.69-3.34-11.38-6.67-17.08-9.98Z"/><path class="hv" d="M410.76,499.67c-.62-.26-1.31-.26-1.93,0-7,2.96-13.96,5.95-20.95,8.9-.56,.24-.65,.65-.18,.93,19.4,11.38,38.92,22.56,58.3,34.01,.61,.29,1.3,.31,1.93,.08,7.03-2.83,14.02-5.8,20.98-8.88,.57-.26,.66-.68,.2-.98-19.27-11.73-38.8-22.91-58.35-34.05Z"/><path class="jc" d="M468.9,534.75c-.05,.04-.11,.07-.18,.09-19.2-11.72-38.65-22.85-58.14-33.95-.61-.26-1.3-.26-1.9,0-6.94,2.93-13.86,5.86-20.77,8.8l-.22-.13c-.47-.27-.38-.69,.18-.93,6.99-2.98,13.95-5.95,20.95-8.9,.62-.26,1.31-.26,1.93,0,19.56,11.14,39.11,22.29,58.35,34.06,.48,.25,.39,.67-.2,.96Z"/><path class="hw" d="M412.09,508.19l-2.55,1.05c16.15,9.35,32.37,18.65,48.39,28.26,.99-.42,1.48-.63,2.47-1.06-15.98-9.64-32.15-18.98-48.31-28.24Z"/><path class="hw" d="M405.28,503.84c-.99,.43-1.47,.65-2.47,1.06l4.65,2.68c.99-.43,1.49-.65,2.5-1.06l-4.68-2.68Z"/><path class="hw" d="M410.23,501.94l-2.51,1.07,4.68,2.66,2.5-1.05-4.68-2.68Z"/><path class="hw" d="M415.73,505.13c-1.01,.42-1.5,.63-2.55,1.06l4.72,2.69c1.01-.43,1.51-.63,2.55-1.07-1.88-1.08-2.84-1.62-4.72-2.68Z"/><path class="hw" d="M421.29,508.39c-1.02,.42-1.52,.63-2.55,1.06,1.89,1.07,2.83,1.62,4.74,2.71,1.01-.43,1.52-.65,2.55-1.06l-4.74-2.71Z"/><path class="hw" d="M426.82,511.59l-2.55,1.07c1.9,1.09,2.86,1.62,4.77,2.73l2.55-1.08c-1.91-1.08-2.85-1.67-4.77-2.72Z"/><path class="hw" d="M432.4,514.85c-1.02,.43-1.51,.65-2.55,1.06,1.91,1.1,2.88,1.65,4.79,2.75,1.01-.42,1.51-.65,2.55-1.08-1.9-1.1-2.87-1.65-4.79-2.74Z"/><path class="hw" d="M437.99,518.12l-2.55,1.08c1.9,1.11,2.86,1.65,4.76,2.76l2.55-1.07-4.76-2.77Z"/><path class="hw" d="M443.54,521.43c-.99,.43-1.5,.65-2.51,1.08l4.78,2.78c.99-.43,1.5-.65,2.51-1.07-1.9-1.13-2.87-1.68-4.78-2.79Z"/><path class="hw" d="M449.12,524.74l-2.55,1.09,4.74,2.78c1-.43,1.5-.64,2.49-1.07-1.84-1.11-2.75-1.67-4.68-2.8Z"/><path class="hw" d="M454.65,528.07l-2.55,1.08,4.72,2.8,2.48-1.08c-1.83-1.11-2.76-1.68-4.65-2.8Z"/><path class="hw" d="M460.12,531.41l-2.47,1.08c1.87,1.11,2.81,1.7,4.66,2.8,.99-.43,1.47-.64,2.46-1.09-1.82-1.11-2.78-1.67-4.64-2.79Z"/><path class="hw" d="M401.03,505.79c-.98,.43-1.49,.64-2.45,1.06,18.52,10.7,37.09,21.32,55.49,32.31,.99-.41,1.47-.61,2.47-1.05-18.4-11.02-36.96-21.64-55.51-32.33Z"/><path class="hw" d="M397.48,507.43c-.98,.42-1.45,.64-2.46,1.05,18.44,10.72,36.91,21.32,55.26,32.25l2.48-1.05c-18.32-10.94-36.83-21.56-55.29-32.26Z"/><path class="hw" d="M393.8,508.92c-.97,.42-1.47,.62-2.45,1.03,18.38,10.77,36.86,21.36,55.17,32.23,1.01-.4,1.5-.6,2.49-1.02-18.33-10.92-36.81-21.51-55.21-32.24Z"/><path class="hl" d="M440.52,449.15v7.24l2.22,1.3v-7.23l-2.22-1.32Z"/><path class="hl" d="M430.59,483.72v-7.36l-2.21-1.3v7.36l2.21,1.3Z"/><path class="hl" d="M454.89,486.38v-7.24l-2.21-1.28v7.23l2.21,1.3Z"/><path class="hl" d="M471.09,496v-7.18l-2.21-1.33v7.21l2.21,1.3Z"/><path class="hl" d="M462.95,480.48v-7.29l-2.21-1.32v7.33l2.21,1.28Z"/><path class="iq" d="M95.56,725.23l231.89-98.81-231.89,98.81Z"/><path class="jh" d="M594.93,606.71l-87.12,49.72v13.6l87.12-49.72v-13.6Z"/><path class="jh" d="M594.93,587.44l-87.12,49.71v13.6l87.12-49.71v-13.6Z"/><path class="jh" d="M594.93,568.17l-87.12,49.71v13.6l87.12-49.71v-13.6Z"/><path class="jh" d="M594.93,548.89l-87.12,49.72v13.6l87.12-49.72v-13.6Z"/><path class="jh" d="M594.93,529.63l-87.12,49.71v13.6l87.12-49.71v-13.6Z"/><path class="ij" d="M594.93,510.35l-87.12,49.72v13.6l87.12-49.72v-13.6Z"/><path class="ij" d="M594.93,491.09l-87.12,49.71v13.6l87.12-49.71v-13.6Z"/><path class="ij" d="M594.93,471.81l-87.12,49.72v13.6l87.12-49.72v-13.6Z"/><path class="ij" d="M594.93,452.55l-87.12,49.71v13.6l87.12-49.71v-13.6Z"/><path class="ij" d="M594.93,433.27l-87.12,49.72v13.6l87.12-49.71v-13.6Z"/><path class="ij" d="M594.93,414.01l-87.12,49.71v13.6l87.12-49.71v-13.6Z"/><path class="ij" d="M594.93,394.73l-87.12,49.71v13.6l87.12-49.71v-13.6Z"/><path class="ij" d="M594.93,375.46l-87.12,49.72v13.6l87.12-49.72v-13.6Z"/><path class="jh" d="M765.94,512.46l-87.13,49.71v13.6l87.13-49.71v-13.6Z"/><path class="jh" d="M765.94,493.19l-87.13,49.72v13.6l87.13-49.72v-13.6Z"/><path class="jh" d="M765.94,473.92l-87.13,49.71v13.6l87.13-49.71v-13.6Z"/><path class="jh" d="M765.94,454.65l-87.13,49.72v13.6l87.13-49.72v-13.6Z"/><path class="jh" d="M765.94,435.38l-87.13,49.71v13.6l87.13-49.71v-13.6Z"/><path class="jh" d="M765.94,416.11l-87.13,49.71v13.6l87.13-49.71v-13.6Z"/><path class="jh" d="M765.94,396.84l-87.13,49.71v13.6l87.13-49.72v-13.6Z"/><path class="jh" d="M765.94,377.57l-87.13,49.71v13.6l87.13-49.71v-13.6Z"/><path class="jh" d="M765.94,358.29l-87.13,49.72v13.6l87.13-49.72v-13.6Z"/><path class="jh" d="M765.94,339.03l-87.13,49.71v13.6l87.13-49.71v-13.6Z"/><path class="jh" d="M765.94,319.75l-87.13,49.72v13.6l87.13-49.72v-13.6Z"/><path class="ij" d="M765.94,300.48l-87.13,49.71v13.6l87.13-49.71v-13.6Z"/><path class="ij" d="M765.94,281.21l-87.13,49.71v13.6l87.13-49.71v-13.6Z"/><path class="kg" d="M985.08,678.18c-3.66-6.86-8.68-12.9-14.75-17.75-.58-7.87-2.88-15.51-6.73-22.39-9.84-18.14-27.11-28.58-39.92-24.72-1.46-4.81-3.41-9.47-5.82-13.89-13.11-24.15-36.82-37.32-52.94-29.43-7.58,3.71-12.15,11.43-13.47,21.07-6.72-2.95-13.49-3.38-19.09-.63-12.97,6.36-14.93,27.26-4.34,46.69,4.82,8.87,11.4,15.9,18.38,20.32,8.31,5.26,104.43,60.94,112.14,65.23,7.71,4.29,15.71,5.35,22.2,2.16,12.94-6.33,14.9-27.23,4.35-46.66Z"/><circle class="kg" cx="95.68" cy="596.76" r="95.07"/><path class="hd" d="M95.41,661.39c-7.8-5.72-15.12-12.07-21.88-18.99-30.53-31.36-26.41-80.46-26.41-80.46l48.69-19.72,48.69,19.72s4.13,49.1-26.41,80.46c-6.75,6.92-14.05,13.27-21.84,18.99"/><circle class="kg" cx="95.38" cy="361.76" r="95.07"/><path class="jh" d="M131.64,371.87c14.75-20.19,10.33-48.52-9.86-63.26-20.19-14.75-48.52-10.33-63.26,9.86-11.67,15.98-11.61,37.68,.14,53.6l-21.73,21.73,24.16,3.57,3.57,24.16,30.61-30.61,30.25,30.26,3.57-24.16,24.16-3.57-21.61-21.58Z"/><path class="kg" d="M190.16,125.61c0,52.51-42.57,95.07-95.07,95.07h-.17C42.41,220.6-.08,177.97,0,125.46,.08,72.95,42.72,30.46,95.22,30.54c52.45,.08,94.92,42.62,94.92,95.07h.02Z"/><path class="hd" d="M156.49,101.89l-72.02,50.39v.09l-.06-.06c-5.84,5.84-5.84,15.31,0,21.15,5.84,5.84,15.31,5.84,21.15,0h0l-.05-.05h.07l50.91-71.52Z"/><path class="jh" d="M150.28,92.68l-33.79,23.48c-10.48-13.77-22.52-23.14-41.14-23.14-22.88,0-39.11,8.5-48.31,27.9,6.2-37.24,41.42-62.4,78.66-56.2,18,3,34.05,13.06,44.58,27.96Z"/><path class="hd" d="M112.86,369.83l-17.78-10.72-17.79,10.72,4.71-20.23-15.7-13.6,20.69-1.78,8.09-19.12,8.09,19.12,20.69,1.78-15.7,13.6,4.7,20.23Z"/><path class="jh" d="M95.41,661.39c-7.8-5.72-15.12-12.07-21.88-18.99-30.53-31.36-26.41-80.46-26.41-80.46l48.69-19.72,.44,119.17"/></g></svg>