<?xml version="1.0" encoding="UTF-8"?><svg id="a" xmlns="http://www.w3.org/2000/svg" xmlns:xlink="http://www.w3.org/1999/xlink" viewBox="0 0 2827.54 2155.59"><defs><style>.av{fill:url(#j);}.aw{fill:url(#p);}.ax{fill:url(#m);}.ay{fill:url(#aa);}.az{fill:url(#al);}.ba{fill:url(#am);}.bb{fill:#fff;}.bc{fill:#3d3d3d;}.bd{fill:url(#aq);}.be{fill:url(#r);}.bf{fill:url(#h);}.bg{fill:url(#t);}.bh{fill:#d8d8d8;}.bi{fill:#073535;}.bj{fill:url(#i);}.bk{fill:url(#l);}.bl{fill:#025e55;}.bm{fill:url(#ah);}.bn{fill:url(#at);}.bo{fill:#e2e2e2;}.bp{fill:url(#af);}.bq{fill:#222;}.br{fill:#a0a0a0;}.bs{fill:url(#as);}.bt{fill:url(#ap);}.bu{fill:#be1e2d;}.bv{fill:url(#s);}.bw{fill:url(#q);}.bx{fill:url(#f);}.by{fill:#c9c9c9;}.bz{fill:url(#g);}.ca{fill:#a4eded;}.cb{fill:#06443f;}.cc{fill:#2584ff;}.cd{fill:#1c37d3;}.ce{fill:url(#au);}.cf{fill:url(#n);}.cg{fill:url(#ad);}.ch{fill:url(#e);}.ci{fill:url(#ai);}.cj{fill:#bc4b9b;}.ck{fill:#eaeaea;}.cl{fill:url(#v);}.cm{fill:url(#ar);}.cn{fill:url(#aj);}.co{fill:url(#y);}.cp{fill:url(#o);}.cq{fill:#1cd3d3;}.cr{fill:url(#d);}.cs{fill:#e5e5e5;}.ct{fill:url(#x);}.cu{fill:#ff3400;}.cv{fill:#d3d3d3;}.cw{fill:url(#b);}.cx{fill:none;}.cy{fill:url(#u);}.cz{fill:url(#ae);}.da{fill:url(#z);}.db{fill:#0f3657;}.dc{fill:#009fff;}.dd{fill:url(#ag);}.de{fill:url(#an);}.df{fill:url(#c);}.dg{fill:#ef4136;}.dh{fill:url(#w);}.di{fill:#00d9ff;}.dj{fill:url(#ao);}.dk{fill:#cecece;}.dl{fill:#0f36ff;}.dm{fill:#b5b5b5;}.dn{fill:#d2f6f6;}.do{fill:url(#ab);}.dp{fill:url(#k);}.dq{fill:#1e1e1e;}.dr{fill:url(#ac);}.ds{fill:#6a0e00;}.dt{fill:#254aff;}.du{fill:url(#ak);}</style><linearGradient id="b" x1="792.8" y1="2162.52" x2="792.8" y2="410" gradientTransform="translate(0 2155.59) scale(1 -1)" gradientUnits="userSpaceOnUse"><stop offset="0" stop-color="#911efd"/><stop offset=".13" stop-color="#8f1ef9"/><stop offset=".26" stop-color="#881cee"/><stop offset=".39" stop-color="#7d1adb"/><stop offset=".51" stop-color="#6e17c0"/><stop offset=".63" stop-color="#5a139d"/><stop offset=".75" stop-color="#420e73"/><stop offset=".87" stop-color="#250841"/><stop offset=".99" stop-color="#040108"/><stop offset="1" stop-color="#000"/></linearGradient><linearGradient id="c" x1="1289.18" y1="2162.52" x2="1289.18" y2="410" gradientTransform="translate(0 2155.59) scale(1 -1)" gradientUnits="userSpaceOnUse"><stop offset="0" stop-color="#911efd"/><stop offset=".13" stop-color="#8f1ef9"/><stop offset=".26" stop-color="#881cee"/><stop offset=".39" stop-color="#7d1adb"/><stop offset=".51" stop-color="#6e17c0"/><stop offset=".63" stop-color="#5a139d"/><stop offset=".75" stop-color="#420e73"/><stop offset=".87" stop-color="#250841"/><stop offset=".99" stop-color="#040108"/><stop offset="1" stop-color="#000"/></linearGradient><linearGradient id="d" x1="1701.14" y1="2162.52" x2="1701.14" y2="410" gradientTransform="translate(0 2155.59) scale(1 -1)" gradientUnits="userSpaceOnUse"><stop offset="0" stop-color="#911efd"/><stop offset=".13" stop-color="#8f1ef9"/><stop offset=".26" stop-color="#881cee"/><stop offset=".39" stop-color="#7d1adb"/><stop offset=".51" stop-color="#6e17c0"/><stop offset=".63" stop-color="#5a139d"/><stop offset=".75" stop-color="#420e73"/><stop offset=".87" stop-color="#250841"/><stop offset=".99" stop-color="#040108"/><stop offset="1" stop-color="#000"/></linearGradient><linearGradient id="e" x1="2113.58" y1="2162.48" x2="2113.58" y2="410.03" gradientTransform="translate(0 2155.59) scale(1 -1)" gradientUnits="userSpaceOnUse"><stop offset="0" stop-color="#911efd"/><stop offset=".13" stop-color="#8f1ef9"/><stop offset=".26" stop-color="#881cee"/><stop offset=".39" stop-color="#7d1adb"/><stop offset=".51" stop-color="#6e17c0"/><stop offset=".63" stop-color="#5a139d"/><stop offset=".75" stop-color="#420e73"/><stop offset=".87" stop-color="#250841"/><stop offset=".99" stop-color="#040108"/><stop offset="1" stop-color="#000"/></linearGradient><linearGradient id="f" x1="2066.37" y1="2162.52" x2="2066.37" y2="409.99" gradientTransform="translate(0 2155.59) scale(1 -1)" gradientUnits="userSpaceOnUse"><stop offset="0" stop-color="#911efd"/><stop offset=".13" stop-color="#8f1ef9"/><stop offset=".26" stop-color="#881cee"/><stop offset=".39" stop-color="#7d1adb"/><stop offset=".51" stop-color="#6e17c0"/><stop offset=".63" stop-color="#5a139d"/><stop offset=".75" stop-color="#420e73"/><stop offset=".87" stop-color="#250841"/><stop offset=".99" stop-color="#040108"/><stop offset="1" stop-color="#000"/></linearGradient><linearGradient id="g" x1="814.1" y1="2162.49" x2="814.1" y2="410.02" gradientTransform="translate(0 2155.59) scale(1 -1)" gradientUnits="userSpaceOnUse"><stop offset="0" stop-color="#911efd"/><stop offset=".13" stop-color="#8f1ef9"/><stop offset=".26" stop-color="#881cee"/><stop offset=".39" stop-color="#7d1adb"/><stop offset=".51" stop-color="#6e17c0"/><stop offset=".63" stop-color="#5a139d"/><stop offset=".75" stop-color="#420e73"/><stop offset=".87" stop-color="#250841"/><stop offset=".99" stop-color="#040108"/><stop offset="1" stop-color="#000"/></linearGradient><linearGradient id="h" x1="517.75" y1="1567.83" x2="1860.27" y2="1567.83" gradientTransform="translate(0 2155.59) scale(1 -1)" gradientUnits="userSpaceOnUse"><stop offset="0" stop-color="#911efd"/><stop offset=".13" stop-color="#8f1ef9"/><stop offset=".26" stop-color="#881cee"/><stop offset=".39" stop-color="#7d1adb"/><stop offset=".51" stop-color="#6e17c0"/><stop offset=".63" stop-color="#5a139d"/><stop offset=".75" stop-color="#420e73"/><stop offset=".87" stop-color="#250841"/><stop offset=".99" stop-color="#040108"/><stop offset="1" stop-color="#000"/></linearGradient><linearGradient id="i" x1="1957.08" y1="2063.44" x2="1957.08" y2="-28.04" gradientTransform="translate(0 2155.59) scale(1 -1)" gradientUnits="userSpaceOnUse"><stop offset=".2" stop-color="#911efd"/><stop offset=".3" stop-color="#8f1ef9"/><stop offset=".4" stop-color="#881cee"/><stop offset=".5" stop-color="#7d1adb"/><stop offset=".6" stop-color="#6e17c0"/><stop offset=".7" stop-color="#5a139d"/><stop offset=".79" stop-color="#420e73"/><stop offset=".89" stop-color="#250841"/><stop offset=".98" stop-color="#040108"/><stop offset=".99" stop-color="#000"/></linearGradient><linearGradient id="j" x1="2985.09" y1="1769.88" x2="2985.59" y2="1769.88" gradientTransform="translate(0 2155.59) scale(1 -1)" gradientUnits="userSpaceOnUse"><stop offset="0" stop-color="#911efd"/><stop offset=".13" stop-color="#8f1ef9"/><stop offset=".26" stop-color="#881cee"/><stop offset=".39" stop-color="#7d1adb"/><stop offset=".51" stop-color="#6e17c0"/><stop offset=".63" stop-color="#5a139d"/><stop offset=".75" stop-color="#420e73"/><stop offset=".87" stop-color="#250841"/><stop offset=".99" stop-color="#040108"/><stop offset="1" stop-color="#000"/></linearGradient><linearGradient id="k" x1="1178.55" y1="2146.87" x2="1178.55" y2="394.36" gradientTransform="translate(0 2155.59) scale(1 -1)" gradientUnits="userSpaceOnUse"><stop offset="0" stop-color="#911efd"/><stop offset=".13" stop-color="#8f1ef9"/><stop offset=".26" stop-color="#881cee"/><stop offset=".39" stop-color="#7d1adb"/><stop offset=".51" stop-color="#6e17c0"/><stop offset=".63" stop-color="#5a139d"/><stop offset=".75" stop-color="#420e73"/><stop offset=".87" stop-color="#250841"/><stop offset=".99" stop-color="#040108"/><stop offset="1" stop-color="#000"/></linearGradient><linearGradient id="l" x1="1246.43" y1="93.04" x2="2626.93" y2="93.04" gradientTransform="translate(0 2155.59) scale(1 -1)" gradientUnits="userSpaceOnUse"><stop offset="0" stop-color="#fff"/><stop offset=".03" stop-color="#e1d8ff"/><stop offset=".08" stop-color="#bba6ff"/><stop offset=".13" stop-color="#9979ff"/><stop offset=".18" stop-color="#7c54ff"/><stop offset=".23" stop-color="#6535ff"/><stop offset=".28" stop-color="#531eff"/><stop offset=".34" stop-color="#460dff"/><stop offset=".4" stop-color="#3e03ff"/><stop offset=".48" stop-color="#3c00ff"/><stop offset=".61" stop-color="#3e02ff"/><stop offset=".68" stop-color="#440aff"/><stop offset=".74" stop-color="#4f18ff"/><stop offset=".79" stop-color="#5e2cff"/><stop offset=".83" stop-color="#7145ff"/><stop offset=".87" stop-color="#8965ff"/><stop offset=".91" stop-color="#a68aff"/><stop offset=".95" stop-color="#c7b5ff"/><stop offset=".98" stop-color="#ebe5ff"/><stop offset="1" stop-color="#fff"/></linearGradient><linearGradient id="m" x1="1948.42" y1="32.42" x2="2296.46" y2="32.42" gradientTransform="translate(0 2155.59) scale(1 -1)" gradientUnits="userSpaceOnUse"><stop offset="0" stop-color="#fff"/><stop offset=".03" stop-color="#e1d8ff"/><stop offset=".07" stop-color="#bba6ff"/><stop offset=".12" stop-color="#9979ff"/><stop offset=".16" stop-color="#7c54ff"/><stop offset=".21" stop-color="#6535ff"/><stop offset=".26" stop-color="#531eff"/><stop offset=".31" stop-color="#460dff"/><stop offset=".37" stop-color="#3e03ff"/><stop offset=".44" stop-color="#3c00ff"/><stop offset=".58" stop-color="#3e02ff"/><stop offset=".66" stop-color="#440aff"/><stop offset=".72" stop-color="#4f18ff"/><stop offset=".77" stop-color="#5e2cff"/><stop offset=".82" stop-color="#7145ff"/><stop offset=".86" stop-color="#8965ff"/><stop offset=".91" stop-color="#a68aff"/><stop offset=".95" stop-color="#c7b5ff"/><stop offset=".98" stop-color="#ebe5ff"/><stop offset="1" stop-color="#fff"/></linearGradient><linearGradient id="n" x1="41.91" y1="87.81" x2="535.99" y2="87.81" gradientTransform="translate(0 2155.59) scale(1 -1)" gradientUnits="userSpaceOnUse"><stop offset="0" stop-color="#fff"/><stop offset=".03" stop-color="#e1d8ff"/><stop offset=".08" stop-color="#bba6ff"/><stop offset=".13" stop-color="#9979ff"/><stop offset=".18" stop-color="#7c54ff"/><stop offset=".23" stop-color="#6535ff"/><stop offset=".28" stop-color="#531eff"/><stop offset=".34" stop-color="#460dff"/><stop offset=".4" stop-color="#3e03ff"/><stop offset=".48" stop-color="#3c00ff"/><stop offset=".61" stop-color="#3e02ff"/><stop offset=".68" stop-color="#440aff"/><stop offset=".74" stop-color="#4f18ff"/><stop offset=".79" stop-color="#5e2cff"/><stop offset=".83" stop-color="#7145ff"/><stop offset=".87" stop-color="#8965ff"/><stop offset=".91" stop-color="#a68aff"/><stop offset=".95" stop-color="#c7b5ff"/><stop offset=".98" stop-color="#ebe5ff"/><stop offset="1" stop-color="#fff"/></linearGradient><linearGradient id="o" x1="723.71" y1="87.81" x2="1318.14" y2="87.81" gradientTransform="translate(0 2155.59) scale(1 -1)" gradientUnits="userSpaceOnUse"><stop offset="0" stop-color="#fff"/><stop offset=".03" stop-color="#e1d8ff"/><stop offset=".08" stop-color="#bba6ff"/><stop offset=".13" stop-color="#9979ff"/><stop offset=".18" stop-color="#7c54ff"/><stop offset=".23" stop-color="#6535ff"/><stop offset=".28" stop-color="#531eff"/><stop offset=".34" stop-color="#460dff"/><stop offset=".4" stop-color="#3e03ff"/><stop offset=".48" stop-color="#3c00ff"/><stop offset=".61" stop-color="#3e02ff"/><stop offset=".68" stop-color="#440aff"/><stop offset=".74" stop-color="#4f18ff"/><stop offset=".79" stop-color="#5e2cff"/><stop offset=".83" stop-color="#7145ff"/><stop offset=".87" stop-color="#8965ff"/><stop offset=".91" stop-color="#a68aff"/><stop offset=".95" stop-color="#c7b5ff"/><stop offset=".98" stop-color="#ebe5ff"/><stop offset="1" stop-color="#fff"/></linearGradient><linearGradient id="p" x1="1759.21" y1="923.6" x2="1759.21" y2="391.72" gradientTransform="translate(0 2155.59) scale(1 -1)" gradientUnits="userSpaceOnUse"><stop offset="0" stop-color="#aaa"/><stop offset=".28" stop-color="#adadad"/><stop offset=".48" stop-color="#b6b6b6"/><stop offset=".66" stop-color="#c6c6c6"/><stop offset=".82" stop-color="#dcdcdc"/><stop offset=".97" stop-color="#f8f8f8"/><stop offset="1" stop-color="#fff"/></linearGradient><linearGradient id="q" x1="2147.13" y1="923.6" x2="2147.13" y2="391.72" gradientTransform="translate(0 2155.59) scale(1 -1)" gradientUnits="userSpaceOnUse"><stop offset="0" stop-color="#aaa"/><stop offset=".28" stop-color="#adadad"/><stop offset=".48" stop-color="#b6b6b6"/><stop offset=".66" stop-color="#c6c6c6"/><stop offset=".82" stop-color="#dcdcdc"/><stop offset=".97" stop-color="#f8f8f8"/><stop offset="1" stop-color="#fff"/></linearGradient><linearGradient id="r" x1="142.29" y1="883.32" x2="2183.64" y2="883.32" gradientTransform="translate(0 2155.59) scale(1 -1)" gradientUnits="userSpaceOnUse"><stop offset="0" stop-color="#aaa"/><stop offset=".28" stop-color="#adadad"/><stop offset=".48" stop-color="#b6b6b6"/><stop offset=".66" stop-color="#c6c6c6"/><stop offset=".82" stop-color="#dcdcdc"/><stop offset=".97" stop-color="#f8f8f8"/><stop offset="1" stop-color="#fff"/></linearGradient><linearGradient id="s" x1="1073.01" y1="553.83" x2="1073.01" y2="1417.97" gradientTransform="translate(0 2155.59) scale(1 -1)" gradientUnits="userSpaceOnUse"><stop offset="0" stop-color="#a0a0a0"/><stop offset=".27" stop-color="#a3a3a3"/><stop offset=".47" stop-color="#acacac"/><stop offset=".63" stop-color="#bcbcbc"/><stop offset=".79" stop-color="#d2d2d2"/><stop offset=".93" stop-color="#eee"/><stop offset="1" stop-color="#fff"/></linearGradient><linearGradient id="t" x1="1508.21" y1="548.96" x2="1508.21" y2="1539.57" gradientTransform="translate(0 2155.59) scale(1 -1)" gradientUnits="userSpaceOnUse"><stop offset="0" stop-color="#e0e0e0"/><stop offset=".41" stop-color="#e3e3e3"/><stop offset=".7" stop-color="#ececec"/><stop offset=".96" stop-color="#fcfcfc"/><stop offset="1" stop-color="#fff"/></linearGradient><linearGradient id="u" x1="1494.35" y1="1145.49" x2="1494.35" y2="974.67" gradientTransform="translate(0 2155.59) scale(1 -1)" gradientUnits="userSpaceOnUse"><stop offset="0" stop-color="#a0a0a0"/><stop offset=".27" stop-color="#a3a3a3"/><stop offset=".47" stop-color="#acacac"/><stop offset=".63" stop-color="#bcbcbc"/><stop offset=".79" stop-color="#d2d2d2"/><stop offset=".93" stop-color="#eee"/><stop offset="1" stop-color="#fff"/></linearGradient><linearGradient id="v" x1="1165.3" y1="1988.01" x2="1165.3" y2="1458.28" gradientTransform="translate(0 2155.59) scale(1 -1)" gradientUnits="userSpaceOnUse"><stop offset="0" stop-color="#3d3d3d"/><stop offset=".21" stop-color="#404040"/><stop offset=".36" stop-color="#494949"/><stop offset=".49" stop-color="#595959"/><stop offset=".6" stop-color="#6f6f6f"/><stop offset=".71" stop-color="#8b8b8b"/><stop offset=".82" stop-color="#aeaeae"/><stop offset=".92" stop-color="#d7d7d7"/><stop offset="1" stop-color="#fff"/></linearGradient><linearGradient id="w" x1="1767.27" y1="1925.03" x2="1767.27" y2="1536.64" gradientTransform="translate(0 2155.59) scale(1 -1)" gradientUnits="userSpaceOnUse"><stop offset="0" stop-color="#afafaf"/><stop offset=".29" stop-color="#b2b2b2"/><stop offset=".5" stop-color="#bbb"/><stop offset=".67" stop-color="#cbcbcb"/><stop offset=".84" stop-color="#e0e0e0"/><stop offset=".99" stop-color="#fdfdfd"/><stop offset="1" stop-color="#fff"/></linearGradient><linearGradient id="x" x1="1795.24" y1="1537.58" x2="1795.24" y2="1032.7" gradientTransform="translate(0 2155.59) scale(1 -1)" gradientUnits="userSpaceOnUse"><stop offset="0" stop-color="#2584ff"/><stop offset=".09" stop-color="#2986ff"/><stop offset=".18" stop-color="#368eff"/><stop offset=".28" stop-color="#4c9aff"/><stop offset=".38" stop-color="#6babff"/><stop offset=".48" stop-color="#92c1ff"/><stop offset=".58" stop-color="#c2dcff"/><stop offset=".69" stop-color="#f9fcff"/><stop offset=".7" stop-color="#fff"/></linearGradient><linearGradient id="y" x1="1135.93" y1="1518.64" x2="1135.93" y2="1019.98" gradientTransform="translate(0 2155.59) scale(1 -1)" gradientUnits="userSpaceOnUse"><stop offset="0" stop-color="#2584ff"/><stop offset=".17" stop-color="#4496ff"/><stop offset=".54" stop-color="#94c3ff"/><stop offset="1" stop-color="#fff"/></linearGradient><linearGradient id="z" x1="1425" y1="1368.11" x2="1425" y2="1070.6" gradientTransform="translate(0 2155.59) scale(1 -1)" gradientUnits="userSpaceOnUse"><stop offset="0" stop-color="#a0a0a0"/><stop offset=".36" stop-color="#bfbfbf"/><stop offset="1" stop-color="#fff"/></linearGradient><linearGradient id="aa" x1="596.58" y1="962.72" x2="596.58" y2="548.06" gradientTransform="translate(0 2155.59) scale(1 -1)" gradientUnits="userSpaceOnUse"><stop offset="0" stop-color="#aaa"/><stop offset=".28" stop-color="#adadad"/><stop offset=".48" stop-color="#b6b6b6"/><stop offset=".66" stop-color="#c6c6c6"/><stop offset=".82" stop-color="#dcdcdc"/><stop offset=".97" stop-color="#f8f8f8"/><stop offset="1" stop-color="#fff"/></linearGradient><linearGradient id="ab" x1="402.63" y1="962.71" x2="402.63" y2="548.16" gradientTransform="translate(0 2155.59) scale(1 -1)" gradientUnits="userSpaceOnUse"><stop offset="0" stop-color="#aaa"/><stop offset=".28" stop-color="#adadad"/><stop offset=".48" stop-color="#b6b6b6"/><stop offset=".66" stop-color="#c6c6c6"/><stop offset=".82" stop-color="#dcdcdc"/><stop offset=".97" stop-color="#f8f8f8"/><stop offset="1" stop-color="#fff"/></linearGradient><linearGradient id="ac" x1="790.55" y1="962.71" x2="790.55" y2="548.16" gradientTransform="translate(0 2155.59) scale(1 -1)" gradientUnits="userSpaceOnUse"><stop offset="0" stop-color="#aaa"/><stop offset=".28" stop-color="#adadad"/><stop offset=".48" stop-color="#b6b6b6"/><stop offset=".66" stop-color="#c6c6c6"/><stop offset=".82" stop-color="#dcdcdc"/><stop offset=".97" stop-color="#f8f8f8"/><stop offset="1" stop-color="#fff"/></linearGradient><linearGradient id="ad" x1="1504.08" y1="949.4" x2="1504.08" y2="892.34" gradientTransform="translate(0 2155.59) scale(1 -1)" gradientUnits="userSpaceOnUse"><stop offset="0" stop-color="#e0e0e0"/><stop offset=".41" stop-color="#e3e3e3"/><stop offset=".7" stop-color="#ececec"/><stop offset=".96" stop-color="#fcfcfc"/><stop offset="1" stop-color="#fff"/></linearGradient><linearGradient id="ae" x1="1504.08" y1="836.07" x2="1504.08" y2="931" gradientTransform="translate(0 2155.59) scale(1 -1)" gradientUnits="userSpaceOnUse"><stop offset="0" stop-color="#a0a0a0"/><stop offset=".27" stop-color="#a3a3a3"/><stop offset=".47" stop-color="#acacac"/><stop offset=".63" stop-color="#bcbcbc"/><stop offset=".79" stop-color="#d2d2d2"/><stop offset=".93" stop-color="#eee"/><stop offset="1" stop-color="#fff"/></linearGradient><linearGradient id="af" x1="761.65" y1="895.23" x2="865.94" y2="1158.55" gradientTransform="translate(0 2155.59) scale(1 -1)" gradientUnits="userSpaceOnUse"><stop offset="0" stop-color="#afafaf"/><stop offset=".29" stop-color="#b2b2b2"/><stop offset=".5" stop-color="#bbb"/><stop offset=".67" stop-color="#cbcbcb"/><stop offset=".84" stop-color="#e0e0e0"/><stop offset=".99" stop-color="#fdfdfd"/><stop offset="1" stop-color="#fff"/></linearGradient><linearGradient id="ag" x1="746.15" y1="1277.3" x2="607.32" y2="922.22" gradientTransform="translate(0 2155.59) scale(1 -1)" gradientUnits="userSpaceOnUse"><stop offset="0" stop-color="#afafaf"/><stop offset=".29" stop-color="#b2b2b2"/><stop offset=".5" stop-color="#bbb"/><stop offset=".67" stop-color="#cbcbcb"/><stop offset=".84" stop-color="#e0e0e0"/><stop offset=".99" stop-color="#fdfdfd"/><stop offset="1" stop-color="#fff"/></linearGradient><linearGradient id="ah" x1="998.37" y1="1120.78" x2="824.84" y2="845.94" gradientTransform="translate(0 2155.59) scale(1 -1)" gradientUnits="userSpaceOnUse"><stop offset="0" stop-color="#afafaf"/><stop offset=".29" stop-color="#b2b2b2"/><stop offset=".5" stop-color="#bbb"/><stop offset=".67" stop-color="#cbcbcb"/><stop offset=".84" stop-color="#e0e0e0"/><stop offset=".99" stop-color="#fdfdfd"/><stop offset="1" stop-color="#fff"/></linearGradient><linearGradient id="ai" x1="1468.56" y1="123.06" x2="1531.04" y2="287.68" gradientTransform="translate(0 2155.59) scale(1 -1)" gradientUnits="userSpaceOnUse"><stop offset="0" stop-color="#ffd1ae"/><stop offset="1" stop-color="#f9ac78"/></linearGradient><linearGradient id="aj" x1="2294.28" y1="864.04" x2="2356.77" y2="1028.68" gradientTransform="translate(515.5 4105.98) rotate(-36.86) scale(1 -1)" gradientUnits="userSpaceOnUse"><stop offset="0" stop-color="#ffd1ae"/><stop offset="1" stop-color="#f9ac78"/></linearGradient><linearGradient id="ak" x1="2070" y1="1283.37" x2="2070" y2="1015.49" gradientTransform="translate(0 2155.59) scale(1 -1)" gradientUnits="userSpaceOnUse"><stop offset="0" stop-color="#e72100"/><stop offset="1" stop-color="#e93701"/></linearGradient><linearGradient id="al" x1="1917.03" y1="1604.64" x2="1805.23" y2="1330.45" gradientTransform="translate(332.91 2330.72) rotate(-5.04) scale(1 -.94)" gradientUnits="userSpaceOnUse"><stop offset="0" stop-color="#ffd1ae"/><stop offset="1" stop-color="#f9ac78"/></linearGradient><linearGradient id="am" x1="2098.83" y1="1538.72" x2="2013.28" y2="1328.91" gradientTransform="translate(0 2155.59) scale(1 -1)" gradientUnits="userSpaceOnUse"><stop offset="0" stop-color="#e72100"/><stop offset="1" stop-color="#e93701"/></linearGradient><linearGradient id="an" x1="2050.87" y1="625.39" x2="2116.45" y2="1412.3" gradientTransform="translate(0 2155.59) scale(1 -1)" gradientUnits="userSpaceOnUse"><stop offset="0" stop-color="#afafaf"/><stop offset=".29" stop-color="#b2b2b2"/><stop offset=".5" stop-color="#bbb"/><stop offset=".67" stop-color="#cbcbcb"/><stop offset=".84" stop-color="#e0e0e0"/><stop offset=".99" stop-color="#fdfdfd"/><stop offset="1" stop-color="#fff"/></linearGradient><linearGradient id="ao" x1="1695.26" y1="937.89" x2="1851.69" y2="1102.15" gradientTransform="translate(0 2155.59) scale(1 -1)" gradientUnits="userSpaceOnUse"><stop offset="0" stop-color="#ffd1ae"/><stop offset="1" stop-color="#f9ac78"/></linearGradient><linearGradient id="ap" x1="2392.82" y1="965.73" x2="2392.82" y2="775.21" gradientTransform="translate(122.21 3252.98) rotate(-19.37) scale(1 -.89)" gradientUnits="userSpaceOnUse"><stop offset="0" stop-color="#3c00ff"/><stop offset=".19" stop-color="#3b00fc"/><stop offset=".32" stop-color="#3900f3"/><stop offset=".44" stop-color="#3500e3"/><stop offset=".55" stop-color="#3000cd"/><stop offset=".65" stop-color="#2a00b1"/><stop offset=".74" stop-color="#21008e"/><stop offset=".83" stop-color="#180064"/><stop offset=".92" stop-color="#0d0035"/><stop offset="1" stop-color="#000"/></linearGradient><linearGradient id="aq" x1="2039.6" y1="505.62" x2="2039.6" y2="35.75" gradientTransform="translate(67.99 1668.02) rotate(8.76) scale(1 -1)" gradientUnits="userSpaceOnUse"><stop offset="0" stop-color="#3c00ff"/><stop offset=".19" stop-color="#3b00fc"/><stop offset=".32" stop-color="#3900f3"/><stop offset=".44" stop-color="#3500e3"/><stop offset=".55" stop-color="#3000cd"/><stop offset=".65" stop-color="#2a00b1"/><stop offset=".74" stop-color="#21008e"/><stop offset=".83" stop-color="#180064"/><stop offset=".92" stop-color="#0d0035"/><stop offset="1" stop-color="#000"/></linearGradient><linearGradient id="ar" x1="1915.73" y1="505.91" x2="1792.54" y2="195" gradientTransform="translate(0 2155.59) scale(1 -1)" gradientUnits="userSpaceOnUse"><stop offset=".26" stop-color="#3c00ff"/><stop offset=".31" stop-color="#3800ed"/><stop offset=".57" stop-color="#200089"/><stop offset=".78" stop-color="#0f003f"/><stop offset=".93" stop-color="#040012"/><stop offset="1" stop-color="#000"/></linearGradient><linearGradient id="as" x1="2438.95" y1="600.83" x2="2438.95" y2="305.8" gradientTransform="translate(-6.09 2397.88) rotate(-4.4) scale(1 -1.04)" gradientUnits="userSpaceOnUse"><stop offset=".18" stop-color="#3c00ff"/><stop offset=".34" stop-color="#3b00fc"/><stop offset=".45" stop-color="#3900f3"/><stop offset=".54" stop-color="#3500e3"/><stop offset=".63" stop-color="#3000cd"/><stop offset=".71" stop-color="#2a00b1"/><stop offset=".79" stop-color="#21008e"/><stop offset=".86" stop-color="#180064"/><stop offset=".93" stop-color="#0d0035"/><stop offset="1" stop-color="#000"/></linearGradient><linearGradient id="at" x1="2257.79" y1="1187.98" x2="2257.79" y2="453.27" gradientTransform="translate(0 2155.59) scale(1 -1)" gradientUnits="userSpaceOnUse"><stop offset=".09" stop-color="#3c00ff"/><stop offset=".17" stop-color="#3800ee"/><stop offset=".34" stop-color="#2e00c2"/><stop offset=".58" stop-color="#1d007c"/><stop offset=".87" stop-color="#07001c"/><stop offset=".95" stop-color="#000"/></linearGradient><linearGradient id="au" x1="2070.1" y1="925.83" x2="1652.66" y2="907.26" gradientTransform="translate(0 2155.59) scale(1 -1)" gradientUnits="userSpaceOnUse"><stop offset="0" stop-color="#afafaf"/><stop offset=".29" stop-color="#b2b2b2"/><stop offset=".5" stop-color="#bbb"/><stop offset=".67" stop-color="#cbcbcb"/><stop offset=".84" stop-color="#e0e0e0"/><stop offset=".99" stop-color="#fdfdfd"/><stop offset="1" stop-color="#fff"/></linearGradient></defs><g><path class="cw" d="M1551.44,753.42c-1.04,1.77-52.99,88.91-155.12,193.03-20.45-28.56-62.27-76.61-119.95-89.73-83.74-19.03-169.14,42.53-169.14,42.53,0,0,50.35,92.48,134.06,111.55,33.06,7.48,66.27,2.38,94.47-6.49-46.26,41.51-99.94,83.62-160.99,122.64-14.45-31.12-47.44-88.49-103.79-112.3-79.06-33.42-173.94,12.25-173.94,12.25,0,0,33.33,99.84,112.43,133.26,29.98,12.69,62.15,13.94,90.68,10.69-56.68,30.43-118.55,57.56-185.82,78.89-6.33,2.02-12.44,3.82-18.7,5.71-8.18-31.1-31.65-98.47-86.65-132.56-72.93-45.32-173.75-14.85-173.75-14.85,0,0,17.48,103.79,90.44,149.06,24.56,15.28,52.33,21.79,78.31,23.93-81.43,20.28-154.02,32.02-217.7,38.16-2.87-33.12-14.54-101.13-61.41-143.45-63.73-57.54-168.32-45.59-168.32-45.59,0,0-1.31,105.28,62.38,162.78,16.23,14.7,35.12,24.78,54.24,31.78-107.12-.21-174.71-16.62-199.81-24.08-21.11-22.15-68.38-64.25-126.24-67.82-78.77-4.89-147.15,63.67-147.15,63.67,0,0,59.4,76.44,138.19,81.33,47.94,2.97,91.96-21.26,119.09-40.66,13.44,4.38,40.79,12.04,81.73,18.24-24.26,8.01-49,20.53-69.01,40.45-60.8,60.59-54.39,165.69-54.39,165.69,0,0,105.05,6.84,165.88-53.75,43.59-43.44,52.58-109.53,54.23-143.59,48.33,1.77,105.68,.43,172.17-6.99-16.75,10.11-32.67,23.07-45.44,39.62-52.36,68.08-32.2,171.41-32.2,171.41,0,0,105.04-7,157.44-75.01,38.98-50.78,37.72-121.05,34.52-153.55,62.21-11.95,130.13-28.78,204.12-52.25,2.7-.89,5.31-1.86,8.04-2.72-18.09,13.05-35.07,29.45-47.29,50.29-43.42,74.06-10.48,174.06-10.48,174.06,0,0,103.36-20.05,146.78-94.1,37.55-64.04,18.02-147.33,12.06-168.75,75.44-33.03,143.11-72.47,203.09-114.39-11.85,21.02-21.05,45.31-22.91,71.68-5.99,85.64,67.98,160.58,67.98,160.58,0,0,83.66-63.94,89.64-149.58,4.28-61.66-32.69-117.51-53.8-144.12,175.73-144.77,264.8-294.63,266.18-297.02l-34.16-19.92Z"/><path class="df" d="M1459.38,598.61c-33.17-2.11-93.43-.15-137.55,34.31-64.04,50-70,149.43-70,149.43,0,0,97.93,18.39,161.99-31.59,25.27-19.74,41.37-47.14,51.73-73.15,2.78,58.78,1.55,123.31-6.36,191.41-31.46-8.03-93.28-18.15-144.41,8.93-71.84,38.01-95.06,134.89-95.06,134.89,0,0,93.16,35.29,164.99-2.75,27.2-14.39,47.39-37.21,62.05-60.1-11.55,59.76-28.68,121.37-53.29,183.46-2.31,5.86-4.64,11.4-6.99,17.11-27.71-12.59-91.1-35.66-149.06-15.73-76.82,26.4-114.79,118.51-114.79,118.51,0,0,86.55,49.32,163.4,22.89,25.9-8.93,47.29-25.36,64.4-43.11-33.85,71.84-68.65,132.08-102.23,182.43-26.04-17.69-82.85-49.83-141.95-40.75-80.29,12.31-134.08,96.14-134.08,96.14,0,0,76.41,63.95,156.7,51.64,20.47-3.11,39.14-10.94,55.7-20.78-64.2,78.43-116.66,118.18-137.16,132.11-28.88,2.24-88,11.74-125.26,52-50.68,54.84-41.31,146.02-41.31,146.02,0,0,91.56,2.17,142.29-52.7,30.86-33.36,39.42-80.14,41.43-111.64,11.25-7.28,33.24-22.73,62.27-49.03-8.64,22.58-14.27,48.21-11.64,74.79,8.07,80.85,88.97,139.02,88.97,139.02,0,0,67.86-72.93,59.81-153.78-5.76-57.96-48.85-104.09-72.86-125.69,30.21-34.34,63.55-77.24,97.86-130.4-2.6,18.3-2.64,37.73,1.9,57.01,18.57,79.1,106.41,126.12,106.41,126.12,0,0,57.71-81.17,39.14-160.31-13.9-58.96-66.17-100.06-91.93-117.17,28.48-52.76,56.74-112.65,83.81-180.93,.95-2.48,1.81-5.01,2.81-7.52-1.25,21.06,.6,43.35,8.58,64.75,28.33,76.16,121.39,111.82,121.39,111.82,0,0,47.08-87.77,18.79-163.92-24.53-65.84-97.28-101.34-116.55-109.79,20.92-75.04,32.44-148.27,37.61-217.35,8.31,21.3,20.61,42.56,38.84,59.67,59.2,55.64,158.44,46.23,158.44,46.23,0,0,3.15-99.57-56.06-155.18-42.66-40.05-105.75-46.35-137.89-46.77-1.03-215.49-60.1-267.71-44.85-130.52Z"/><path class="cr" d="M1530.93,580.09c33.18-2.11,93.44-.15,137.56,34.31,64.03,50,69.99,149.43,69.99,149.43,0,0-97.92,18.39-161.99-31.59-25.26-19.74-41.37-47.14-51.73-73.14-2.77,58.78-1.55,123.31,6.36,191.42,31.47-8.04,93.27-18.15,144.42,8.92,71.84,38.01,95.05,134.89,95.05,134.89,0,0-93.15,35.29-164.99-2.75-27.19-14.39-47.38-37.21-62.05-60.1,11.55,59.76,28.69,121.37,53.28,183.46,2.32,5.87,4.65,11.4,7,17.11,27.71-12.59,91.1-35.65,149.07-15.73,76.81,26.4,114.79,118.51,114.79,118.51,0,0-86.56,49.32-163.4,22.89-25.91-8.93-47.3-25.36-64.4-43.11,33.86,71.84,68.65,132.08,102.24,182.43,26.03-17.69,82.85-49.83,141.94-40.75,80.29,12.31,134.09,96.14,134.09,96.14,0,0-76.41,63.95-156.7,51.64-20.47-3.11-39.14-10.94-55.7-20.78,64.2,78.43,116.65,118.18,137.15,132.11,28.88,2.24,88,11.74,125.27,52,50.68,54.84,41.31,146.02,41.31,146.02,0,0-91.57,2.17-142.28-52.7-30.86-33.36-39.41-80.14-41.43-111.64-11.25-7.27-33.24-22.73-62.28-49.03,8.64,22.58,14.27,48.21,11.64,74.8-8.06,80.84-88.97,139.01-88.97,139.01,0,0-67.85-72.93-59.81-153.78,5.77-57.96,48.86-104.09,72.86-125.69-30.21-34.34-63.55-77.24-97.85-130.4,2.6,18.3,2.63,37.73-1.9,57.01-18.57,79.1-106.42,126.12-106.42,126.12,0,0-57.71-81.17-39.14-160.3,13.9-58.97,66.18-100.07,91.93-117.18-28.48-52.76-56.74-112.65-83.8-180.93-.96-2.47-1.82-5.01-2.81-7.52,1.25,21.06-.61,43.36-8.59,64.75-28.32,76.16-121.39,111.82-121.39,111.82,0,0-47.08-87.77-18.79-163.92,24.53-65.84,97.29-101.36,116.56-109.79-20.93-75.03-32.44-148.27-37.62-217.35-8.3,21.29-20.61,42.56-38.83,59.67-59.21,55.64-158.45,46.23-158.45,46.23,0,0-3.15-99.57,56.06-155.18,42.66-40.06,105.74-46.35,137.89-46.78,1.04-215.49,60.1-267.71,44.84-130.52Z"/><path class="ch" d="M1469.56,821.49c14.6-29.86,46.1-81.26,97.89-102.52,75.17-30.9,164.5,13.18,164.5,13.18,0,0-32.48,94.16-107.64,125.08-29.67,12.19-61.44,12.62-89.16,8.74,49.68,31.51,106.36,62.39,169.45,89.24,8.57-31.32,30.39-90.04,79.25-121.06,68.56-43.6,164.25-15.8,164.25-15.8,0,0-15.45,98.39-84.04,141.96-25.98,16.53-55.82,22.75-82.95,24.19,57.65,19.54,119.64,35.15,185.78,44.5,6.21,.92,12.19,1.62,18.3,2.42,2.78-30.31,14.12-96.83,60.14-137.31,60.98-53.68,159.82-41.06,159.82-41.06,0,0-.04,99.63-61.02,153.28-20.6,18.1-45.47,28.54-69.35,34.62,79.16,6.17,148.75,5.74,209.13,1.49-2.51-31.34-2.29-96.65,34.85-143.49,50.45-63.67,149.92-68.91,149.92-68.91,0,0,17.73,98.06-32.72,161.72-12.83,16.23-28.87,28.59-45.65,38.13,99.94-16.97,160.46-42.87,182.71-53.77,16.22-23.98,53.77-70.65,107.18-83.09,72.74-16.89,147.32,36.4,147.32,36.4,0,0-43.44,80.63-116.22,97.52-44.27,10.3-89.15-5.44-117.51-19.28-11.88,6.17-36.2,17.61-73.45,29.82,23.9,3.67,48.95,11.47,70.76,26.93,66.24,47.02,76.72,146.1,76.72,146.1,0,0-96.94,22.85-163.21-24.13-47.5-33.73-66.24-94.01-73.15-125.55-44.78,9.26-98.56,16.96-161.75,20.47,17.2,6.78,34.09,16.37,48.61,29.85,59.52,55.3,56.89,154.9,56.89,154.9,0,0-99.11,9.96-158.65-45.37-44.38-41.25-54.18-107.02-56.29-137.89-59.94-1.37-125.96-6.44-198.68-16.77-2.63-.4-5.25-.88-7.94-1.25,18.91,9.32,37.36,21.96,51.99,39.5,52.16,62.32,37.07,160.83,37.07,160.83,0,0-99.57-2.54-151.73-64.83-45.07-53.9-39.9-134.71-37.67-155.62-75.57-18.97-144.92-45.21-207.46-74.95,14.35,17.75,26.74,39,32.6,63.31,19.04,78.99-38.28,160.51-38.28,160.51,0,0-88.09-46.53-107.09-125.51-13.65-56.9,12.11-114.81,27.66-142.97-186.71-107.57-202.84-184.75-91.2-103.58Z"/><path class="bx" d="M1560.06,1002.91c-12.86-30.66-30.74-88.24-12.62-141.19,26.27-76.9,118.3-115.06,118.3-115.06,0,0,49.43,86.48,23.18,163.38-10.39,30.35-31.01,54.54-52.19,72.82,56.44-16.59,117.03-38.9,178.77-68.65-17.87-27.1-47.69-82.19-38.83-139.39,12.37-80.32,96.33-133.97,96.33-133.97,0,0,63.83,76.46,51.43,156.76-4.71,30.43-19.68,56.97-36.48,78.34,52.68-30.49,105.29-66.85,155.88-110.45,4.8-4.08,9.26-8.1,13.91-12.19-20.96-22.06-63.55-74.41-63.71-135.68-.18-81.24,74.43-147.28,74.43-147.28,0,0,74.94,65.65,75.1,146.9,.06,27.39-8.46,52.99-19.65,74.96,56.8-55.48,102.35-108.1,138.93-156.31-25.23-18.79-74.22-61.99-84.96-120.78-14.67-79.93,46.92-158.18,46.92-158.18,0,0,85.46,51.25,100.09,131.15,3.76,20.36,2.48,40.57-1.37,59.45,53.07-86.36,73.44-148.95,79.92-172.87-7.36-27.99-17.72-86.98,8.1-135.37,35.23-65.86,124.44-86.85,124.44-86.85,0,0,32.05,85.83-3.2,151.69-21.43,40.09-62.82,63.48-91.93,75.7-3.18,13-10.58,38.85-25.95,74.88,18.52-15.57,40.89-29.25,66.89-35.47,79-18.87,160.46,38.54,160.46,38.54,0,0-46.69,87.99-125.69,106.88-56.68,13.5-114.35-12.1-142.66-27.7-22.51,39.79-52.18,85.32-91.16,135.17,16.44-8.45,34.79-14.83,54.5-16.88,80.82-8.34,153.98,59.27,153.98,59.27,0,0-57.8,81.09-138.64,89.46-60.25,6.17-116.22-29.77-140.82-48.52-40.52,44.18-87.84,90.5-143.51,138.4-2.05,1.71-4.16,3.36-6.2,5.13,19.49-8.07,41.15-13.63,63.98-13.09,81.27,1.85,145.43,78.09,145.43,78.09,0,0-67.52,73.25-148.76,71.42-70.21-1.62-127.59-58.73-141.89-74.2-64.06,44.35-129.48,79.22-193.07,106.7,22.83,.89,46.96,5.56,69.11,17.17,71.95,37.73,95.51,134.57,95.51,134.57,0,0-93.04,35.6-164.95-2.17-51.82-27.19-78.4-84.74-89.34-114.99-203.98,69.57-272.62,30.86-138.01,.37Z"/><path class="bz" d="M1593.6,753.69c-1.65,1.1-83.38,55.42-216.05,103.54-5.86-33.45-22.27-92.85-67.12-128.41-65.11-51.64-165.32-33.61-165.32-33.61,0,0,5.25,101.71,70.33,153.34,25.66,20.37,56.8,29.79,85.1,33.82-57.69,16.88-122.13,31.19-191.7,39.7,.43-33.19-4.35-97.05-43.56-141.37-55.04-62.22-156.86-62.04-156.86-62.04,0,0-12.68,101.07,42.34,163.27,20.87,23.59,48.43,38.15,74.64,47.22-62.14,2.89-127.5,.69-195.08-8.86-6.35-.88-12.46-1.86-18.69-2.81,5.86-30.57,13.55-99.15-20.18-151.9-44.69-69.99-145.33-85.6-145.33-85.6,0,0-28.16,97.86,16.52,167.86,15.1,23.6,36.54,40.9,58.33,53.61-79.5-16.32-147.75-36.45-205.83-57.72,11.33-30.1,29.57-94.29,6.35-150.81-31.51-76.84-127.74-110.11-127.74-110.11,0,0-45.2,91.26-13.63,168.1,8.01,19.57,20.25,36.26,34,50.35-93.36-44.94-145.46-87.5-164.22-104.54-9.16-28.15-32.81-84.61-81.79-111.93-66.7-37.2-154.99-5.96-154.99-5.96,0,0,19.88,91.49,86.58,128.69,40.55,22.66,89.09,19.89,120.86,14.33,9.94,9.42,30.57,27.56,63.67,50.07-24.49-3.17-51.33-2.58-77.08,6.43-78.43,27.44-116.74,121.8-116.74,121.8,0,0,88.76,49.89,167.16,22.47,56.21-19.66,91.68-73.58,107.36-102.58,41.39,21.76,91.99,44.53,153.1,65.87-18.82,1.82-38.14,6.44-56.18,15.57-74.16,37.47-99.77,136.07-99.77,136.07,0,0,94.53,37.81,168.71,.37,55.22-27.99,83.51-89.81,94.32-119.53,59.25,15.59,125.55,29.3,199.91,39.77,2.68,.35,5.41,.6,8.1,1-21.17,3.8-42.89,11.03-62.24,24.09-68.84,46.45-81.9,147.45-81.9,147.45,0,0,98.53,25.73,167.36-20.71,59.51-40.18,77.32-120.97,81.08-142.18,79.59,2.75,155.12-3.39,224.96-14.88-19.13,13.38-37.31,30.74-49.92,52.95-41.06,72.21-7.82,168.51-7.82,168.51,0,0,99.69-20.8,140.7-93.03,29.51-51.97,20.61-116.18,13.32-148.19,213.81-52.84,354.2-146.35,356.37-147.85l-21.45-31.66Z"/><path class="bf" d="M1857.27,973.58c-1.9,.15-96.91,6.9-231.96-15.89,11.06-31.07,25.6-89.08,4.75-140.58-30.28-74.72-123.54-107.45-123.54-107.45,0,0-44.2,88.42-13.95,163.15,11.94,29.49,33.7,52.31,55.69,69.26-56.83-13.35-118.09-32.08-180.9-58.17,16.25-27.84,42.71-84.05,30.82-140.21-16.71-78.85-102.8-127.43-102.8-127.43,0,0-59.03,79.28-42.31,158.14,6.33,29.91,22.64,55.36,40.45,75.59-53.87-27.3-107.97-60.4-160.53-100.79-4.92-3.79-9.59-7.53-14.41-11.3,19.55-23.04,58.84-77.27,55.6-137.95-4.28-80.49-81.83-141.8-81.83-141.8,0,0-70.6,69.16-66.3,149.66,1.44,27.15,11.31,52.02,23.59,73.17-59.34-51.82-107.34-101.45-146.2-147.22,23.96-19.98,70.06-65.47,77.48-124.3,10.15-79.96-55.21-154.11-55.21-154.11,0,0-81.82,55.48-91.9,135.46-2.63,20.36-.24,40.3,4.62,58.8-57.32-82.63-81-143.49-88.7-166.84,5.74-28.17,12.81-87.15-15.52-133.65-38.53-63.32-128.05-79.18-128.05-79.18,0,0-26.98,86.77,11.54,150.11,23.44,38.52,65.75,59.41,95.27,69.91,3.85,12.71,12.62,37.92,29.78,72.74-19.16-14.39-42.11-26.72-68.16-31.44-79.35-14.33-156.85,47.02-156.85,47.02,0,0,51.11,84.6,130.43,98.93,56.89,10.28,112.62-18.27,139.75-35.29,24.56,38.19,56.37,81.64,97.77,128.89-16.75-7.47-35.29-12.79-54.91-13.73-80.54-3.82-149.31,67.19-149.31,67.19,0,0,61.74,77.16,142.28,81,60.04,2.79,113.5-35.87,136.84-55.81,42.6,41.5,92,84.8,149.8,129.21,2.11,1.59,4.28,3.1,6.39,4.72-19.74-6.94-41.52-11.22-64.1-9.44-80.38,6.31-139.72,85.37-139.72,85.37,0,0,70.91,68.83,151.24,62.55,69.51-5.47,123.22-65.18,136.5-81.31,65.91,40.41,132.67,71.37,197.1,95.06-22.55,2.15-46.2,8.11-67.49,20.82-69.2,41.34-87.2,138.57-87.2,138.57,0,0,94.13,30.09,163.33-11.24,49.78-29.79,72.97-88.27,82.13-118.8,205.86,57.65,369.11,45.83,371.68,45.61l-3-37Z"/><path class="bj" d="M2097.01,398.79c66.36-46.82,77.15-145.85,77.15-145.85,0,0-96.95-23.14-163.34,23.66-21.85,15.4-37.56,36.42-48.98,57.73,.92-39.17-1.77-65.9-3.66-79.16,22.52-22.14,52.31-59.2,57.35-104.39,8.3-74.24-53.26-142.07-53.26-142.07,0,0-75.06,52.55-83.38,126.78-6.07,54.51,25.43,105.45,42.63,128.74,2.87,24.62,7.15,90.28-10.15,190.18-3.42-18.97-9.71-38.22-20.74-55.74-43.23-68.77-141.58-84.71-141.58-84.71,0,0-28.2,95.52,15.03,164.31,31.78,50.62,93.28,72.58,123.68,80.67-10.88,39.34-25.09,82.31-42.87,128.21l26.55,35.04c4.56-11.2,9.07-22.38,13.19-33.26,29.8,8.31,95.09,20.96,148.77-7.11,71.98-37.73,95.62-134.48,95.62-134.48,0,0-93.03-35.67-165.01,2.04-17.51,9.19-32.21,21.93-44.34,35.86,17.72-60.74,28.39-114.02,34.58-159.33,32.03,4.02,95.12,6.42,142.75-27.13Z"/><path class="av" d="M1722.87,374.04c52.95-61.61,39.2-160.26,39.2-160.26,0,0-99.63,1.24-152.61,62.83-17.41,20.26-27.53,44.49-33.39,67.93-8.68-38.21-17.81-63.47-22.89-75.88,16.44-26.96,36.27-70.18,30.13-115.21-10.05-74.03-86.32-124.77-86.32-124.77,0,0-60,69.29-49.92,143.31,7.42,54.34,50.41,96.04,72.77,114.42,8.81,23.17,28.96,85.82,36.58,186.9-7.95-17.57-18.73-34.69-33.71-48.97-58.71-56.16-157.99-47.6-157.99-47.6,0,0-3.99,99.53,54.7,155.68,43.17,41.34,108.19,47.6,139.62,48.04-.91,40.79-4.21,85.95-10.23,134.79l34.32,27.51c1.68-11.97,3.3-23.92,4.65-35.47,30.92,.76,97.34-2.91,142.52-43.23,60.62-54.17,59.92-153.76,59.92-153.76,0,0-98.93-11.89-159.52,42.26-14.76,13.18-25.91,29.13-34.25,45.61,2.35-63.23-.3-117.49-5.37-162.95,32.05-3.93,93.79-16.99,131.8-61.17Z"/><path class="dp" d="M1033.11,345.38c-52.92-61.63-39.17-160.28-39.17-160.28,0,0,99.63,1.22,152.62,62.83,17.38,20.25,27.49,44.48,33.36,67.93,8.71-38.21,17.84-63.48,22.88-75.86-16.41-26.98-36.24-70.18-30.09-115.21C1182.75,50.77,1259.02,0,1259.02,0c0,0,59.97,69.3,49.92,143.31-7.46,54.34-50.41,96.06-72.77,114.42-8.81,23.17-29,85.83-36.6,186.91,7.94-17.55,18.75-34.69,33.73-48.99,58.69-56.12,157.95-47.57,157.95-47.57,0,0,4.04,99.51-54.69,155.66-43.16,41.34-108.18,47.6-139.63,48.05,.96,40.79,4.26,85.93,10.27,134.78l-34.32,27.5c-1.68-11.96-3.33-23.91-4.67-35.46-30.92,.78-97.34-2.91-142.54-43.23-60.59-54.15-59.88-153.76-59.88-153.76,0,0,98.91-11.89,159.52,42.26,14.73,13.2,25.88,29.13,34.25,45.61-2.38-63.25,.27-117.51,5.35-162.94-32.05-3.94-93.8-17.02-131.8-61.17Z"/></g><path class="bk" d="M2626.93,2062.56c0,17.9-309.04,32.41-690.2,32.41s-690.3-14.51-690.3-32.41,309.07-32.42,690.3-32.42,690.2,14.51,690.2,32.42Z"/><path class="ax" d="M2296.46,2123.18c0,17.9-77.9,32.41-173.98,32.41s-174.06-14.51-174.06-32.41,77.91-32.42,174.06-32.42,173.98,14.51,173.98,32.42Z"/><path class="cf" d="M535.99,2067.79c0,17.87-110.61,32.41-247.03,32.41s-247.05-14.54-247.05-32.41,110.61-32.42,247.05-32.42c136.43,0,247.03,14.51,247.03,32.42Z"/><path class="cp" d="M1318.14,2067.79c0,17.87-133.09,32.41-297.19,32.41s-297.25-14.54-297.25-32.41,133.09-32.42,297.25-32.42c164.1,0,297.19,14.51,297.19,32.42Z"/><g><g><g><path class="bl" d="M1800.88,1250.43c-16.1,0-31.84,18.7-34.98,41.52l-100.86,739.32c-3.15,22.85,.6,41.55,8.34,41.55s17.87-18.24,22.61-40.52l157.29-741.39c4.74-22.28-4.58-40.49-20.68-40.49h-31.71Z"/><path class="bl" d="M2105.49,1250.43c16.09,0,31.84,18.7,34.95,41.52l100.89,739.32c3.1,22.85-.65,41.55-8.34,41.55s-17.91-18.24-22.65-40.52l-157.26-741.39c-4.73-22.28,4.59-40.49,20.68-40.49h31.72Z"/></g><g><path class="aw" d="M1800.88,1250.43c-16.1,0-31.84,18.7-34.98,41.52l-100.86,739.32c-3.15,22.85,.6,41.55,8.34,41.55s17.87-18.24,22.61-40.52l157.29-741.39c4.74-22.28-4.58-40.49-20.68-40.49h-31.71Z"/><path class="bw" d="M2105.49,1250.43c16.09,0,31.84,18.7,34.95,41.52l100.89,739.32c3.1,22.85-.65,41.55-8.34,41.55s-17.91-18.24-22.65-40.52l-157.26-741.39c-4.73-22.28,4.59-40.49,20.68-40.49h31.72Z"/></g></g><path class="bl" d="M2210.7,1276.13c0,12.71-10.38,23.1-23.09,23.1H327.99c-12.71,0-23.11-10.39-23.11-23.1v-7.69c0-12.74,10.39-23.12,23.11-23.12h1859.63c12.71,0,23.09,10.38,23.09,23.12v7.69Z"/><path class="be" d="M2210.7,1276.13c0,12.71-10.38,23.1-23.09,23.1H327.99c-12.71,0-23.11-10.39-23.11-23.1v-7.69c0-12.74,10.39-23.12,23.11-23.12h1859.63c12.71,0,23.09,10.38,23.09,23.12v7.69Z"/></g><g><path class="bb" d="M1933.84,1070.58c0,14.94-12.27,27.2-27.2,27.2h-843.19c-14.98,0-27.23-12.26-27.23-27.2V491.43c0-14.96,12.25-27.19,27.23-27.19h843.19c14.93,0,27.2,12.24,27.2,27.19v579.15Z"/><path class="ck" d="M1036.23,961.97v108.61c0,14.94,12.25,27.2,27.23,27.2h843.19c14.93,0,27.2-12.26,27.2-27.2v-108.61h-897.62Z"/><path class="dk" d="M1082.58,1070.58V491.43c0-14.96,12.29-27.19,27.23-27.19h-46.35c-14.98,0-27.23,12.24-27.23,27.19v579.14c0,14.96,12.25,27.22,27.23,27.22h46.35c-14.94,0-27.23-12.26-27.23-27.2Z"/><path class="bv" d="M1082.58,1070.58V491.43c0-14.96,12.29-27.19,27.23-27.19h-46.35c-14.98,0-27.23,12.24-27.23,27.19v579.14c0,14.96,12.25,27.22,27.23,27.22h46.35c-14.94,0-27.23-12.26-27.23-27.2Z"/><path class="bg" d="M1906.65,464.24h-796.85c-14.94,0-27.23,12.24-27.23,27.19v579.16c0,14.94,12.29,27.2,27.23,27.2h796.85c14.93,0,27.2-12.26,27.2-27.2V491.43c0-14.96-12.27-27.19-27.2-27.19Z"/><g><path class="cv" d="M1597.26,1096.72h-194.71c-18.85,21.85-29.77,46.99-29.77,73.82s10.92,51.94,29.77,73.82h194.71c-18.91-21.88-29.79-47.02-29.79-73.82,0-26.83,10.88-51.97,29.79-73.82Z"/><path class="ck" d="M1422.72,1096.72h-20.17c-18.85,21.85-29.77,46.99-29.77,73.82s10.92,51.94,29.77,73.82h20.17c-19.29-21.88-30.4-47.02-30.4-73.82,0-26.83,11.11-51.97,30.4-73.82Z"/><g><path class="dm" d="M1615.91,1234.82c0,5.26-4.28,9.54-9.5,9.54h-197.09c-5.23,0-9.51-4.28-9.51-9.54v-3.15c0-5.22,4.28-9.53,9.51-9.53h197.09c5.22,0,9.5,4.31,9.5,9.53v3.15Z"/><path class="ck" d="M1460.82,1234.82c0,5.26-4.31,9.54-9.5,9.54h-42c-5.23,0-9.51-4.28-9.51-9.54v-3.15c0-5.22,4.28-9.53,9.51-9.53h42c5.19,0,9.5,4.31,9.5,9.53v3.15Z"/></g></g><path class="cy" d="M1606.4,1222.14h-24.79c-9.04-16.1-14.14-33.49-14.14-51.6,0-26.83,10.88-51.97,29.79-73.82h-194.71c-18.85,21.85-29.77,46.99-29.77,73.82s10.92,51.94,29.77,73.82h203.85c5.22,0,9.5-4.28,9.5-9.54v-3.15c0-5.22-4.28-9.53-9.5-9.53Z"/><g><g><rect class="cl" x="845.58" y="273.25" width="639.43" height="432.78"/><rect class="dq" x="845.58" y="273.25" width="639.43" height="45.55"/><g><path class="cu" d="M1048.96,340.56h-164.92c-4.45,0-8.03,3.64-8.03,8.07s3.57,8.05,8.03,8.05h164.92c4.43,0,8.05-3.62,8.05-8.05,0-4.43-3.61-8.07-8.05-8.07Z"/><path class="cc" d="M1258.22,340.56h-183.04c-4.42,0-8.04,3.64-8.04,8.07s3.61,8.05,8.04,8.05h183.04c4.46,0,8.07-3.62,8.07-8.05s-3.61-8.07-8.07-8.07Z"/><path class="cc" d="M1061.16,369.15h-139.78c-4.47,0-8.07,3.62-8.07,8.08s3.59,8.02,8.07,8.02h139.78c4.42,0,8.04-3.61,8.04-8.02,0-4.46-3.61-8.08-8.04-8.08Z"/><path class="cc" d="M1190.7,369.15h-103.3c-4.45,0-8.07,3.62-8.07,8.08s3.61,8.02,8.07,8.02h103.3c4.49,0,8.07-3.61,8.07-8.02s-3.57-8.08-8.07-8.08Z"/><path class="cc" d="M1092.87,395.1h-155.51c-4.46,0-8.07,3.6-8.07,8.05s3.6,8.05,8.07,8.05h155.51c4.46,0,8.07-3.6,8.07-8.05,0-4.44-3.6-8.05-8.07-8.05Z"/><path class="cu" d="M1215.72,395.1h-96.6c-4.46,0-8.04,3.6-8.04,8.05s3.57,8.05,8.04,8.05h96.6c4.47,0,8.07-3.6,8.07-8.05s-3.6-8.05-8.07-8.05Z"/><path class="cc" d="M994.55,424.58h-110.51c-4.45,0-8.03,3.6-8.03,8.07s3.57,8.05,8.03,8.05h110.51c4.43,0,8.07-3.62,8.07-8.05,0-4.46-3.63-8.07-8.07-8.07Z"/><path class="cc" d="M1061.65,424.58h-40.85c-4.46,0-8.04,3.6-8.04,8.07s3.57,8.05,8.04,8.05h40.85c4.46,0,8.07-3.62,8.07-8.05s-3.6-8.07-8.07-8.07Z"/><path class="cc" d="M1069.31,455.83h-110.51c-4.45,0-8.07,3.64-8.07,8.1s3.61,8.04,8.07,8.04h110.51c4.43,0,8.04-3.61,8.04-8.04s-3.6-8.1-8.04-8.1Z"/><path class="cc" d="M1235.25,455.83h-139.73c-4.42,0-8.03,3.64-8.03,8.1s3.6,8.04,8.03,8.04h139.73c4.45,0,8.07-3.61,8.07-8.04,0-4.46-3.61-8.1-8.07-8.1Z"/><path class="cu" d="M1039.2,485.22h-101.72c-4.43,0-8.03,3.61-8.03,8.07s3.59,8.04,8.03,8.04h101.72c4.45,0,8.03-3.6,8.03-8.04s-3.57-8.07-8.03-8.07Z"/><path class="cc" d="M1106.29,485.22h-40.88c-4.43,0-8.04,3.61-8.04,8.07s3.6,8.04,8.04,8.04h40.88c4.45,0,8.06-3.6,8.06-8.04s-3.61-8.07-8.06-8.07Z"/><path class="cc" d="M1133.57,513.82h-233.49c-4.46,0-8.07,3.6-8.07,8.08s3.6,8.04,8.07,8.04h233.49c4.43,0,8.03-3.62,8.03-8.04,0-4.48-3.59-8.08-8.03-8.08Z"/><path class="cc" d="M1226.3,513.82h-66.51c-4.43,0-8.04,3.6-8.04,8.08s3.6,8.04,8.04,8.04h66.51c4.46,0,8.04-3.62,8.04-8.04s-3.57-8.08-8.04-8.08Z"/><path class="cu" d="M1038.37,539.74h-140.73c-4.45,0-8.07,3.61-8.07,8.05s3.61,8.05,8.07,8.05h140.73c4.42,0,8.04-3.62,8.04-8.05s-3.61-8.05-8.04-8.05Z"/><path class="cc" d="M1175.03,539.74h-110.42c-4.45,0-8.07,3.61-8.07,8.05s3.61,8.05,8.07,8.05h110.42c4.49,0,8.07-3.62,8.07-8.05s-3.57-8.05-8.07-8.05Z"/><path class="cc" d="M1155.53,569.25h-262.78c-4.46,0-8.07,3.6-8.07,8.07s3.6,8.03,8.07,8.03h262.78c4.4,0,8.04-3.62,8.04-8.03,0-4.46-3.63-8.07-8.04-8.07Z"/><path class="cc" d="M1222.59,569.25h-40.84c-4.43,0-8.05,3.6-8.05,8.07s3.61,8.03,8.05,8.03h40.84c4.46,0,8.07-3.62,8.07-8.03,0-4.46-3.6-8.07-8.07-8.07Z"/><path class="cc" d="M1060.33,600.52h-176.29c-4.45,0-8.03,3.62-8.03,8.07s3.57,8.05,8.03,8.05h176.29c4.43,0,8.07-3.62,8.07-8.05,0-4.45-3.63-8.07-8.07-8.07Z"/><path class="cu" d="M1127.43,600.52h-40.85c-4.46,0-8.04,3.62-8.04,8.07s3.57,8.05,8.04,8.05h40.85c4.46,0,8.07-3.62,8.07-8.05,0-4.45-3.6-8.07-8.07-8.07Z"/><path class="cc" d="M1109.13,631.48h-187.74c-4.47,0-8.07,3.6-8.07,8.07s3.59,8.03,8.07,8.03h187.74c4.46,0,8.07-3.62,8.07-8.03,0-4.46-3.6-8.07-8.07-8.07Z"/><path class="cc" d="M1210.41,631.48h-75.04c-4.43,0-8.03,3.6-8.03,8.07s3.59,8.03,8.03,8.03h75.04c4.46,0,8.07-3.62,8.07-8.03,0-4.46-3.6-8.07-8.07-8.07Z"/><path class="cc" d="M1082.3,662.74h-198.26c-4.45,0-8.03,3.63-8.03,8.08s3.57,8.05,8.03,8.05h198.26c4.43,0,8.07-3.62,8.07-8.05,0-4.45-3.63-8.08-8.07-8.08Z"/><path class="cu" d="M1194.59,662.74h-86.04c-4.47,0-8.05,3.63-8.05,8.08s3.57,8.05,8.05,8.05h86.04c4.42,0,8.03-3.62,8.03-8.05,0-4.45-3.6-8.08-8.03-8.08Z"/></g><path class="ca" d="M1465.9,296.03c0-6.4-5.23-11.6-11.62-11.6s-11.57,5.2-11.57,11.6,5.17,11.58,11.57,11.58c6.39,0,11.62-5.18,11.62-11.58Z"/><path class="cj" d="M1433.36,296.03c0-6.4-5.23-11.6-11.62-11.6s-11.57,5.2-11.57,11.6,5.17,11.58,11.57,11.58c6.39,0,11.62-5.18,11.62-11.58Z"/><path class="bc" d="M1398.34,296.03c0-6.4-5.19-11.6-11.58-11.6s-11.58,5.2-11.58,11.6,5.18,11.58,11.58,11.58c6.39,0,11.58-5.18,11.58-11.58Z"/></g><path class="cu" d="M1456.51,470.93c0,10.72-8.77,19.52-19.49,19.52h-131.81c-10.72,0-19.52-8.8-19.52-19.52v-110.63c0-10.74,8.8-19.53,19.52-19.53h131.81c10.72,0,19.49,8.78,19.49,19.53v110.63Z"/><g><path class="dt" d="M1359.81,578.5c0,5.21-4.25,9.49-9.47,9.49h-55.18c-5.19,0-9.47-4.28-9.47-9.49v-53.74c0-5.22,4.28-9.5,9.47-9.5h55.18c5.22,0,9.47,4.28,9.47,9.5v53.74Z"/><path class="di" d="M1443,515.26h-65.11c-5.34,0-9.68,4.36-9.68,9.69s4.34,9.65,9.68,9.65h65.11c5.38,0,9.69-4.34,9.69-9.65s-4.31-9.69-9.69-9.69Z"/><path class="cc" d="M1434.66,541.72h-62.75c-2.01,0-3.69,1.65-3.69,3.7s1.68,3.68,3.69,3.68h62.75c2.05,0,3.73-1.66,3.73-3.68,0-2.05-1.68-3.7-3.73-3.7Z"/><path class="cc" d="M1424.7,554.67h-52.79c-2.01,0-3.69,1.65-3.69,3.7s1.68,3.7,3.69,3.7h52.79c2.05,0,3.69-1.65,3.69-3.7s-1.64-3.7-3.69-3.7Z"/><path class="cc" d="M1434.98,567.63h-63.07c-2.01,0-3.69,1.65-3.69,3.7s1.68,3.7,3.69,3.7h63.07c2.07,0,3.72-1.66,3.72-3.7s-1.65-3.7-3.72-3.7Z"/><path class="cc" d="M1455.02,580.58h-83.1c-2.01,0-3.69,1.68-3.69,3.7s1.68,3.72,3.69,3.72h83.1c2.05,0,3.73-1.67,3.73-3.72s-1.68-3.7-3.73-3.7Z"/></g><g><path class="dt" d="M1359.81,667.17c0,5.22-4.25,9.49-9.47,9.49h-55.18c-5.19,0-9.47-4.26-9.47-9.49v-53.74c0-5.22,4.28-9.49,9.47-9.49h55.18c5.22,0,9.47,4.26,9.47,9.49v53.74Z"/><path class="di" d="M1443,603.94h-65.11c-5.34,0-9.68,4.35-9.68,9.67s4.34,9.65,9.68,9.65h65.11c5.38,0,9.69-4.32,9.69-9.65s-4.31-9.67-9.69-9.67Z"/><path class="cc" d="M1434.66,630.38h-62.75c-2.01,0-3.69,1.65-3.69,3.7s1.68,3.7,3.69,3.7h62.75c2.05,0,3.73-1.68,3.73-3.7,0-2.05-1.68-3.7-3.73-3.7Z"/><path class="cc" d="M1424.7,643.35h-52.79c-2.01,0-3.69,1.63-3.69,3.68s1.68,3.7,3.69,3.7h52.79c2.05,0,3.69-1.65,3.69-3.7s-1.64-3.68-3.69-3.68Z"/><path class="cc" d="M1434.98,656.29h-63.07c-2.01,0-3.69,1.67-3.69,3.7s1.68,3.7,3.69,3.7h63.07c2.07,0,3.72-1.65,3.72-3.7s-1.65-3.7-3.72-3.7Z"/><path class="cc" d="M1455.02,669.28h-83.1c-2.01,0-3.69,1.65-3.69,3.7s1.68,3.68,3.69,3.68h83.1c2.05,0,3.73-1.66,3.73-3.68s-1.68-3.7-3.73-3.7Z"/></g><path class="cc" d="M1410.99,461.47h-79.81c-3.83,0-6.93,3.1-6.93,6.95s3.1,6.9,6.93,6.9h79.81c3.88,0,6.96-3.11,6.96-6.9,0-3.85-3.09-6.95-6.96-6.95Z"/></g><g><rect class="dh" x="1520.95" y="284.31" width="492.63" height="389.75"/><rect class="bb" x="1521.32" y="284.31" width="491.9" height="57.31"/><path class="cc" d="M1868.84,293.26h-245.39c-10.88,0-19.68,8.88-19.68,19.71s8.8,19.68,19.68,19.68h245.39c10.98,0,19.75-8.83,19.75-19.68s-8.77-19.71-19.75-19.71Z"/><path class="bh" d="M1579.16,293.26h-24.05c-10.85,0-19.68,8.88-19.68,19.71s8.83,19.68,19.68,19.68h24.05c10.94,0,19.7-8.83,19.7-19.68s-8.76-19.71-19.7-19.71Z"/><path class="cu" d="M1997.75,312.97c0-7-5.7-12.65-12.68-12.65s-12.66,5.65-12.66,12.65,5.66,12.65,12.66,12.65,12.68-5.67,12.68-12.65Z"/><path class="cc" d="M1962.87,312.97c0-7-5.72-12.65-12.69-12.65s-12.65,5.65-12.65,12.65,5.65,12.65,12.65,12.65,12.69-5.67,12.69-12.65Z"/><path class="bh" d="M1928,312.97c0-7-5.72-12.65-12.68-12.65s-12.66,5.65-12.66,12.65,5.65,12.65,12.66,12.65,12.68-5.67,12.68-12.65Z"/><g><path class="bb" d="M1889.96,502.24h-245.43c-10.84,0-19.67,8.87-19.67,19.71s8.83,19.69,19.67,19.69h245.43c10.94,0,19.71-8.84,19.71-19.69s-8.77-19.71-19.71-19.71Z"/><g><path class="cc" d="M1765.9,552.81h-79.84c-7.42,0-13.44,6.05-13.44,13.44s6.02,13.43,13.44,13.43h79.84c7.48,0,13.47-6.03,13.47-13.43,0-7.39-5.99-13.44-13.47-13.44Z"/><path class="br" d="M1848.47,552.81h-47.11c-7.42,0-13.42,6.05-13.42,13.44s6,13.43,13.42,13.43h47.11c7.46,0,13.44-6.03,13.44-13.43s-5.98-13.44-13.44-13.44Z"/></g><g><path class="cu" d="M1763.04,448.53c0-7.91-6.44-14.33-14.35-14.33s-14.3,6.42-14.3,14.33,6.39,14.3,14.3,14.3,14.35-6.4,14.35-14.3Z"/><path class="cc" d="M1723.57,448.53c0-7.91-6.47-14.33-14.35-14.33s-14.34,6.42-14.34,14.33,6.39,14.3,14.34,14.3,14.35-6.4,14.35-14.3Z"/><path class="bh" d="M1684.07,448.53c0-7.91-6.42-14.33-14.33-14.33s-14.34,6.42-14.34,14.33,6.43,14.3,14.34,14.3,14.33-6.4,14.33-14.3Z"/><path class="cu" d="M1879.12,448.53c0-7.91-6.44-14.33-14.35-14.33s-14.3,6.42-14.3,14.33,6.38,14.3,14.3,14.3,14.35-6.4,14.35-14.3Z"/><path class="cc" d="M1839.65,448.53c0-7.91-6.48-14.33-14.4-14.33s-14.3,6.42-14.3,14.33,6.42,14.3,14.3,14.3,14.4-6.4,14.4-14.3Z"/><path class="bh" d="M1800.17,448.53c0-7.91-6.48-14.33-14.36-14.33s-14.33,6.42-14.33,14.33,6.42,14.3,14.33,14.3,14.36-6.4,14.36-14.3Z"/></g></g></g><g><rect class="ct" x="1540.38" y="704.55" width="509.72" height="287.97"/><g><path class="cc" d="M2030.06,873.18c0,12.34-10.12,22.49-22.5,22.49h-151.88c-12.37,0-22.52-10.15-22.52-22.49v-127.52c0-12.37,10.15-22.52,22.52-22.52h151.88c12.38,0,22.5,10.15,22.5,22.52v127.52Z"/><g><path class="di" d="M1978.38,905.02h-132.75c-5.22,0-9.44,4.26-9.44,9.47s4.22,9.44,9.44,9.44h132.75c5.28,0,9.5-4.23,9.5-9.44s-4.22-9.47-9.5-9.47Z"/><path class="cc" d="M1970.25,930.9h-130.45c-1.99,0-3.61,1.62-3.61,3.61s1.62,3.62,3.61,3.62h130.45c1.99,0,3.64-1.64,3.64-3.62s-1.65-3.61-3.64-3.61Z"/><path class="cc" d="M1960.5,943.58h-120.7c-1.99,0-3.61,1.62-3.61,3.6s1.62,3.62,3.61,3.62h120.7c2.02,0,3.61-1.62,3.61-3.62,0-1.98-1.59-3.6-3.61-3.6Z"/><path class="cc" d="M1970.56,956.26h-130.76c-1.99,0-3.61,1.62-3.61,3.6s1.62,3.61,3.61,3.61h130.76c2.01,0,3.63-1.62,3.63-3.61s-1.62-3.6-3.63-3.6Z"/><path class="cc" d="M1990.15,968.94h-150.35c-1.99,0-3.61,1.62-3.61,3.6s1.62,3.64,3.61,3.64h150.35c2.01,0,3.63-1.65,3.63-3.64s-1.62-3.6-3.63-3.6Z"/></g><g><g><path class="cc" d="M1658.68,784.12c0,5.22-4.25,9.5-9.47,9.5h-79.31c-5.23,0-9.47-4.28-9.47-9.5v-53.74c0-5.22,4.24-9.49,9.47-9.49h79.31c5.22,0,9.47,4.26,9.47,9.49v53.74Z"/><g><path class="di" d="M1737.2,721.69h-55.82c-5.23,0-9.44,4.25-9.44,9.46s4.21,9.44,9.44,9.44h55.82c5.28,0,9.49-4.23,9.49-9.44,0-5.21-4.21-9.46-9.49-9.46Z"/><path class="cc" d="M1772.07,747.55h-96.52c-1.99,0-3.6,1.62-3.6,3.62s1.61,3.61,3.6,3.61h96.52c1.97,0,3.63-1.64,3.63-3.61,0-2-1.66-3.62-3.63-3.62Z"/><path class="cc" d="M1762.32,760.23h-86.78c-1.99,0-3.6,1.62-3.6,3.62s1.61,3.6,3.6,3.6h86.78c2.01,0,3.59-1.62,3.59-3.6,0-2-1.58-3.62-3.59-3.62Z"/><path class="cc" d="M1772.36,772.91h-96.82c-1.99,0-3.6,1.62-3.6,3.62s1.61,3.6,3.6,3.6h96.82c2.02,0,3.64-1.64,3.64-3.6,0-2-1.62-3.62-3.64-3.62Z"/><path class="cc" d="M1791.95,785.59h-116.41c-1.99,0-3.6,1.62-3.6,3.6s1.61,3.64,3.6,3.64h116.41c2.01,0,3.63-1.64,3.63-3.64,0-1.98-1.62-3.6-3.63-3.6Z"/></g></g><g><path class="cc" d="M1658.68,875.4c0,5.21-4.25,9.49-9.47,9.49h-79.31c-5.23,0-9.47-4.28-9.47-9.49v-53.74c0-5.21,4.24-9.49,9.47-9.49h79.31c5.22,0,9.47,4.28,9.47,9.49v53.74Z"/><g><path class="di" d="M1737.2,812.96h-55.82c-5.23,0-9.44,4.25-9.44,9.46s4.21,9.44,9.44,9.44h55.82c5.28,0,9.49-4.23,9.49-9.44,0-5.21-4.21-9.46-9.49-9.46Z"/><path class="cc" d="M1772.07,838.83h-96.52c-1.99,0-3.6,1.62-3.6,3.62s1.61,3.6,3.6,3.6h96.52c1.97,0,3.63-1.64,3.63-3.6,0-2-1.66-3.62-3.63-3.62Z"/><path class="cc" d="M1762.32,851.51h-86.78c-1.99,0-3.6,1.62-3.6,3.62s1.61,3.61,3.6,3.61h86.78c2.01,0,3.59-1.62,3.59-3.61,0-2-1.58-3.62-3.59-3.62Z"/><path class="cc" d="M1772.36,864.19h-96.82c-1.99,0-3.6,1.62-3.6,3.62s1.61,3.61,3.6,3.61h96.82c2.02,0,3.64-1.64,3.64-3.61,0-2-1.62-3.62-3.64-3.62Z"/><path class="cc" d="M1791.95,876.86h-116.41c-1.99,0-3.6,1.62-3.6,3.61s1.61,3.63,3.6,3.63h116.41c2.01,0,3.63-1.63,3.63-3.63,0-1.99-1.62-3.61-3.63-3.61Z"/></g></g><g><path class="cc" d="M1658.68,966.68c0,5.22-4.25,9.5-9.47,9.5h-79.31c-5.23,0-9.47-4.28-9.47-9.5v-53.74c0-5.22,4.24-9.49,9.47-9.49h79.31c5.22,0,9.47,4.26,9.47,9.49v53.74Z"/><g><path class="di" d="M1737.2,904.24h-55.82c-5.23,0-9.44,4.25-9.44,9.46s4.21,9.44,9.44,9.44h55.82c5.28,0,9.49-4.23,9.49-9.44,0-5.21-4.21-9.46-9.49-9.46Z"/><path class="cc" d="M1772.07,930.11h-96.52c-1.99,0-3.6,1.62-3.6,3.62s1.61,3.6,3.6,3.6h96.52c1.97,0,3.63-1.63,3.63-3.6,0-2-1.66-3.62-3.63-3.62Z"/><path class="cc" d="M1762.32,942.78h-86.78c-1.99,0-3.6,1.62-3.6,3.62s1.61,3.6,3.6,3.6h86.78c2.01,0,3.59-1.62,3.59-3.6,0-2-1.58-3.62-3.59-3.62Z"/><path class="cc" d="M1772.36,955.46h-96.82c-1.99,0-3.6,1.62-3.6,3.62s1.61,3.6,3.6,3.6h96.82c2.02,0,3.64-1.64,3.64-3.6,0-2-1.62-3.62-3.64-3.62Z"/><path class="cc" d="M1791.95,968.14h-116.41c-1.99,0-3.6,1.62-3.6,3.6s1.61,3.64,3.6,3.64h116.41c2.01,0,3.63-1.64,3.63-3.64,0-1.99-1.62-3.6-3.63-3.6Z"/></g></g></g><path class="dl" d="M1917.64,777.19c-3.63-2.32-6.59-.7-6.59,3.59v57.27c0,4.31,2.96,5.93,6.59,3.6l43.6-28.02c3.6-2.32,3.6-6.12,0-8.45l-43.6-28Z"/></g></g><g><path class="co" d="M1319.12,1095.5c0,31.02-25.36,56.37-56.37,56.37h-253.65c-31.02,0-56.37-25.35-56.37-56.37v-310.03c0-31.01,25.35-56.37,56.37-56.37h253.65c31.01,0,56.37,25.36,56.37,56.37v310.03Z"/><path class="bb" d="M1009.1,1057.92c-15.55,0-28.2-12.64-28.2-28.19v-244.27c0-15.55,12.66-28.2,28.2-28.2h253.65c15.55,0,28.19,12.65,28.19,28.2v244.27c0,15.55-12.65,28.19-28.19,28.19h-253.65Z"/><path class="cc" d="M1065.47,969.46s88.48,61.05,162.85-24.29c74.35-85.33,28.16-173.02-29.77-157.36-57.93,15.65-51.66,90.04-101.77,58.72-50.11-31.3-115.09,74.38-31.32,122.93Z"/><g><g><path class="bb" d="M1102.04,971.11s-20.83-22.21-20.34-50.77c.45-28.55,25.72-22.74,27.22-33.29,1.44-10.59-20.11-17.99-20.11-44.42s27.77-20.73,33.3-31.19c5.9-11.11,6.88-37,20.6-34.38,13.75,2.66,12.26,38.07,20.11,42.84,5.62,3.41,24.01,6.34,26.94,19.55,2.94,13.22-22.06,38.07-21.08,48.11,.98,10.04,30.41,6.36,28.42,34.38-1.92,28.02-15.16,40.18-27.93,50.76-12.7,10.57-64.67,2.63-67.12-1.59Z"/><path class="bi" d="M1143.75,980.06c-15.31,0-40.92-3.39-43.54-7.91-.62-.52-21.15-22.76-20.66-51.84,.33-19.29,11.41-24.09,19.49-27.6,4.71-2.05,7.4-3.33,7.76-5.96,.46-3.36-2.45-6.78-6.1-11.12-5.9-6.97-14-16.51-14-33,0-18.36,12.89-22.7,22.31-25.88,5.17-1.74,9.63-3.24,11.25-6.31,1.71-3.16,2.96-7.74,4.34-12.59,3.26-11.63,7.09-25.07,18.55-22.85,9.32,1.79,12.31,15.2,15,27.02,1.53,6.82,3.27,14.55,5.77,16.06,1.19,.75,3.3,1.54,5.72,2.43,7.85,2.95,19.73,7.43,22.21,18.49,1.8,8.19-5.19,19.15-11.95,29.76-4.67,7.31-9.46,14.85-9.1,18.61,.25,2.44,3.97,4.09,8.32,6,8.56,3.77,21.46,9.46,20.13,28.72-1.95,27.87-14.7,40.59-28.72,52.23-4.58,3.82-13.59,5.74-26.76,5.74Zm-2.94-201.07c-6.53,0-9.39,10.18-12.16,20.02-1.44,5.07-2.75,9.85-4.65,13.43-2.44,4.54-7.87,6.4-13.65,8.33-9.53,3.24-19.43,6.55-19.43,21.88s7.21,23.44,12.99,30.25c4.22,4.97,7.81,9.23,7.09,14.45-.7,5.1-5.35,7.11-10.29,9.25-7.79,3.39-16.62,7.21-16.9,23.77-.49,27.4,19.58,49.08,19.78,49.28,2.11,1.99,20.8,6.21,40.18,6.21,11.82,0,20.37-1.71,24.07-4.79,13.78-11.44,25.32-23.04,27.2-49.26,1.12-16.3-8.84-20.68-17.64-24.56-5.31-2.34-10.33-4.55-10.78-9.46-.53-5.21,4.24-12.66,9.71-21.28,6.03-9.44,12.83-20.12,11.37-26.58-1.95-8.83-12.09-12.65-19.51-15.43-2.64-.98-4.9-1.83-6.45-2.78-4.06-2.45-5.74-10.02-7.7-18.74-2.38-10.56-5.06-22.53-11.7-23.81-.51-.09-1.01-.16-1.49-.16Z"/></g><polygon class="db" points="1166.23 1023.81 1108.45 1023.81 1092.22 969.87 1182.46 969.87 1166.23 1023.81"/><g><path class="bb" d="M1139.65,982.2s4.53-68.73,4-94.64c-.49-25.89-.95-110.49-.95-110.49"/><path class="bi" d="M1141.75,982.35l-4.21-.3c.03-.67,4.53-68.93,4.04-94.44-.53-25.62-.98-109.67-.98-110.53l4.21-.02c0,.85,.46,84.88,.98,110.46,.52,25.7-3.97,94.12-4.03,94.82Z"/></g><g><line class="cx" x1="1120.97" y1="814.61" x2="1143.16" y2="835.76"/><polygon class="bi" points="1141.73 837.28 1119.55 816.14 1122.45 813.09 1144.63 834.23 1141.73 837.28"/></g><g><line class="cx" x1="1189.57" y1="846.33" x2="1144.66" y2="865.36"/><polygon class="bi" points="1145.49 867.32 1143.86 863.41 1188.72 844.37 1190.37 848.28 1145.49 867.32"/></g><g><line class="cx" x1="1102.34" y1="873.28" x2="1143.65" y2="893.38"/><polygon class="bi" points="1142.73 895.27 1101.42 875.2 1103.26 871.38 1144.6 891.49 1142.73 895.27"/></g><g><line class="cx" x1="1189.72" y1="902.39" x2="1142.67" y2="919.81"/><polygon class="bi" points="1143.41 921.8 1141.94 917.82 1188.99 900.41 1190.46 904.36 1143.41 921.8"/></g><g><line class="cx" x1="1082.18" y1="916.65" x2="1142.67" y2="936.21"/><polygon class="bi" points="1142.03 938.22 1081.54 918.65 1082.85 914.64 1143.32 934.2 1142.03 938.22"/></g><g><line class="cx" x1="1191.56" y1="946.79" x2="1141.15" y2="955.23"/><polygon class="bi" points="1141.48 957.33 1140.81 953.16 1191.23 944.71 1191.89 948.87 1141.48 957.33"/></g></g></g><g><path class="da" d="M1498,1109.47c0,12.37-10.12,22.48-22.49,22.48h-101.05c-12.36,0-22.48-10.11-22.48-22.48v-370.96c0-12.34,10.12-22.46,22.48-22.46h101.05c12.37,0,22.49,10.11,22.49,22.46v370.96Z"/><g><path class="bb" d="M1378.84,844.48c-5.65,0-10.23-4.6-10.23-10.25v-88.85c0-5.65,4.59-10.27,10.23-10.27h92.27c5.68,0,10.27,4.61,10.27,10.27v88.85c0,5.65-4.59,10.25-10.27,10.25h-92.27Z"/><path class="di" d="M1411.14,828.06s38.56,6.42,49.83-33.18c11.31-39.61-17.51-61.32-34.13-47.2-16.65,14.12-3.06,37.64-24.4,35.07-21.33-2.53-26.37,42.32,8.7,45.31Z"/></g><g><path class="bb" d="M1378.84,972.23c-5.65,0-10.23-4.59-10.23-10.26v-88.85c0-5.65,4.59-10.23,10.23-10.23h92.27c5.68,0,10.27,4.58,10.27,10.23v88.85c0,5.67-4.59,10.26-10.27,10.26h-92.27Z"/><path class="cc" d="M1459.45,940.1s16.01-35.65-19.43-56.65c-35.41-20.99-63.73,1.33-54.33,21.01,9.4,19.69,35.62,12.54,27.7,32.54-7.91,19.97,34.2,36.27,46.06,3.1Z"/></g><g><path class="bb" d="M1378.84,1099.99c-5.65,0-10.23-4.59-10.23-10.26v-88.83c0-5.65,4.59-10.27,10.23-10.27h92.27c5.68,0,10.27,4.61,10.27,10.27v88.83c0,5.67-4.59,10.26-10.27,10.26h-92.27Z"/><path class="cu" d="M1383.71,1040.28s3.05,38.97,44.2,40.39c41.16,1.42,55.31-31.74,37.59-44.5-17.69-12.76-37.25,6.09-39.9-15.26-2.67-21.29-47.41-15.4-41.89,19.37Z"/></g></g></g><g><g><path class="cb" d="M888.29,1276.13c0,12.71-10.38,23.1-23.1,23.1H327.99c-12.71,0-23.11-10.39-23.11-23.1v-7.69c0-12.74,10.39-23.12,23.11-23.12H865.19c12.72,0,23.1,10.38,23.1,23.12v7.69h0Z"/><g><path class="cb" d="M444.26,1250.43c-16.1,0-31.81,18.7-34.95,41.52l-100.88,739.32c-3.12,22.85,.64,41.55,8.36,41.55s17.91-18.24,22.62-40.52l157.29-741.39c4.71-22.28-4.61-40.49-20.72-40.49h-31.71Z"/><path class="cb" d="M748.9,1250.43c16.11,0,31.82,18.7,34.92,41.52l100.92,739.32c3.12,22.85-.66,41.55-8.34,41.55s-17.9-18.24-22.64-40.52l-157.26-741.39c-4.77-22.28,4.55-40.49,20.65-40.49h31.74Z"/></g></g><g><path class="ay" d="M888.29,1276.13c0,12.71-10.38,23.1-23.1,23.1H327.99c-12.71,0-23.11-10.39-23.11-23.1v-7.69c0-12.74,10.39-23.12,23.11-23.12H865.19c12.72,0,23.1,10.38,23.1,23.12v7.69h0Z"/><g><path class="do" d="M444.26,1250.43c-16.1,0-31.81,18.7-34.95,41.52l-100.88,739.32c-3.12,22.85,.64,41.55,8.36,41.55s17.91-18.24,22.62-40.52l157.29-741.39c4.71-22.28-4.61-40.49-20.72-40.49h-31.71Z"/><path class="dr" d="M748.9,1250.43c16.11,0,31.82,18.7,34.92,41.52l100.92,739.32c3.12,22.85-.66,41.55-8.34,41.55s-17.9-18.24-22.64-40.52l-157.26-741.39c-4.77-22.28,4.55-40.49,20.65-40.49h31.74Z"/></g></g></g><g><path class="cg" d="M1566.56,1245.36c-2.99-22.55-29.63-40.24-62.48-40.24s-59.51,17.69-62.48,40.24h124.96Z"/><path class="cz" d="M1566.56,1245.36c-2.99-22.55-29.63-40.24-62.48-40.24s-59.51,17.69-62.48,40.24h124.96Z"/></g><g><path class="db" d="M1192.22,1126.42v66.24c2.27,23.41,16.84,43.1,37.25,52.65h54.96c20.41-9.54,34.99-29.24,37.25-52.65v-66.24h-129.45Z"/><path class="db" d="M1194.46,1131.31c-26.06,0-47.24,21.14-47.24,47.24s21.17,47.23,47.24,47.23,47.24-21.14,47.24-47.23c0-26.09-21.14-47.24-47.24-47.24Zm0,75.95c-15.83,0-28.72-12.86-28.72-28.71s12.89-28.72,28.72-28.72,28.72,12.86,28.72,28.72-12.87,28.71-28.72,28.71Z"/></g><g><g><polygon class="by" points="931.15 1218.63 620.19 1218.63 608.77 1243.41 931.15 1243.41 1046.4 993.9 1046.4 969.15 931.15 1218.63"/><polygon class="bo" points="723.98 969.15 1046.4 969.15 931.15 1218.63 608.77 1218.63 723.98 969.15"/><polygon class="bb" points="626.31 1206.87 730.67 980.91 1028.83 980.91 924.49 1206.87 626.31 1206.87"/><polygon class="bp" points="723.98 969.15 1046.4 969.15 931.15 1218.63 608.77 1218.63 723.98 969.15"/></g><g><path class="cs" d="M934.76,1233.87c0,6.3-5.14,11.44-11.43,11.44h-265.84c-6.27,0-11.43-5.14-11.43-11.44v-3.78c0-6.33,5.16-11.46,11.43-11.46h265.84c6.29,0,11.43,5.14,11.43,11.46v3.78Z"/><path class="by" d="M730.49,1233.87c0,6.3-5.14,11.44-11.43,11.44H453.22c-6.29,0-11.43-5.14-11.43-11.44v-3.78c0-6.33,5.14-11.46,11.43-11.46h265.84c6.29,0,11.43,5.14,11.43,11.46v3.78Z"/></g><g><polygon class="dd" points="770 1165.89 477.36 1165.89 608.18 882.66 900.79 882.66 770 1165.89"/><g><polygon class="bb" points="748.67 1128.69 533.02 1128.69 631.34 915.81 847.01 915.81 748.67 1128.69"/><path class="cc" d="M847.01,915.81h-215.66l-44.51,96.4c8.06,5.89,34.36,15.14,114.9-6.72,60.96-16.56,92.81-22.38,113.71-21.37l31.56-68.3Z"/><path class="cu" d="M771.64,976.91s-68.5,7.04-49.03-20.96c14.85-21.28,28.05,3.22,43.45-9.99,15.39-13.23,54.38-32.26,51.82-5.16-2.57,27.1-27.31,35.47-46.23,36.11Z"/><g><path class="bb" d="M678.57,949.86h-49.12c-1.41,0-3.09,1.11-3.7,2.49-.61,1.36,0,2.49,1.38,2.49h49.12c1.45,0,3.12-1.13,3.73-2.49,.67-1.38,0-2.49-1.41-2.49Z"/><path class="bb" d="M744.78,922.8h-102.81c-1.43,0-3.09,1.12-3.75,2.51-.61,1.35,.02,2.48,1.43,2.48h102.85c1.43,0,3.09-1.13,3.72-2.48,.64-1.39,0-2.51-1.44-2.51Z"/><path class="bb" d="M712.28,931.82h-74.49c-1.45,0-3.06,1.13-3.73,2.51-.61,1.34,0,2.48,1.43,2.48h74.48c1.41,0,3.12-1.13,3.73-2.48,.67-1.37,0-2.51-1.43-2.51Z"/><path class="bb" d="M718.36,940.83h-84.76c-1.4,0-3.09,1.13-3.7,2.51-.61,1.34,0,2.48,1.41,2.48h84.73c1.47,0,3.12-1.13,3.76-2.48,.63-1.38,0-2.51-1.44-2.51Z"/><path class="bb" d="M687.89,985.93h-75.1c-1.43,0-3.09,1.13-3.72,2.49-.61,1.36,0,2.48,1.44,2.48h75.1c1.41,0,3.11-1.13,3.73-2.48,.61-1.36,0-2.49-1.45-2.49Z"/><path class="bb" d="M699.78,994.94h-91.14c-1.43,0-3.09,1.13-3.72,2.51-.61,1.34,0,2.47,1.43,2.47h91.14c1.41,0,3.11-1.13,3.73-2.47,.61-1.38,0-2.51-1.43-2.51Z"/><path class="bb" d="M666.08,1003.95h-61.63c-1.41,0-3.09,1.13-3.69,2.51-.64,1.35,0,2.48,1.37,2.48h61.63c1.44,0,3.11-1.13,3.73-2.48,.63-1.37,0-2.51-1.41-2.51Z"/><path class="bb" d="M702.44,958.87h-77.15c-1.41,0-3.09,1.11-3.69,2.49-.67,1.37,0,2.49,1.37,2.49h77.19c1.4,0,3.05-1.12,3.69-2.49,.64-1.38,0-2.49-1.41-2.49Z"/><path class="bb" d="M675.49,967.88h-54.36c-1.4,0-3.09,1.11-3.69,2.49-.66,1.37,0,2.47,1.38,2.47h54.39c1.43,0,3.11-1.1,3.73-2.47,.63-1.38,0-2.49-1.45-2.49Z"/><path class="bb" d="M709.27,976.91h-92.29c-1.4,0-3.09,1.1-3.72,2.48-.64,1.37,0,2.51,1.41,2.51h92.32c1.43,0,3.11-1.13,3.73-2.51,.65-1.38,0-2.48-1.44-2.48Z"/></g><g><path class="cc" d="M604.98,1062.87l8.67-18.77c2.97-6.38,.06-11.58-6.47-11.58s-14.33,5.19-17.29,11.58l-8.65,18.77c-2.99,6.45,0,11.66,6.54,11.66,6.54,0,14.24-5.21,17.21-11.66Z"/><path class="di" d="M644.05,1062.87l8.68-18.77c2.96-6.38,.06-11.58-6.48-11.58s-14.33,5.19-17.28,11.58l-8.65,18.77c-2.99,6.45-.03,11.66,6.54,11.66,6.54,0,14.24-5.21,17.2-11.66Z"/><path class="cc" d="M683.12,1062.87l8.68-18.77c2.94-6.38,.03-11.58-6.47-11.58s-14.34,5.19-17.29,11.58l-8.68,18.77c-2.96,6.45,0,11.66,6.57,11.66,6.51,0,14.24-5.21,17.2-11.66Z"/><path class="di" d="M722.17,1062.87l8.7-18.77c2.94-6.38,.07-11.58-6.47-11.58s-14.36,5.19-17.3,11.58l-8.67,18.77c-2.99,6.45-.03,11.66,6.54,11.66,6.53,0,14.24-5.21,17.2-11.66Z"/><path class="cc" d="M761.25,1062.87l8.68-18.77c2.94-6.38,.07-11.58-6.47-11.58s-14.34,5.19-17.29,11.58l-8.68,18.77c-2.96,6.45,0,11.66,6.57,11.66,6.53,0,14.24-5.21,17.2-11.66Z"/></g><path class="cc" d="M760.4,1103.32c-33.52-19.16-98.84-9.2-149.38-7.06-43.39,1.84-50.38-16.53-51.2-25.6l-26.8,58.02h215.64l11.73-25.36Z"/></g><g><polygon class="bb" points="885.49 915.81 592.87 915.81 608.18 882.66 900.79 882.66 885.49 915.81"/><path class="cc" d="M812.52,887.84h-146.02c-6.45,0-14.04,5.12-16.95,11.41-2.9,6.27,0,11.37,6.45,11.37h145.99c6.53,0,14.08-5.1,16.98-11.37,2.91-6.29,.1-11.41-6.44-11.41Z"/><path class="bh" d="M640.17,887.84h-14.3c-6.48,0-14.08,5.12-16.99,11.41-2.9,6.27,0,11.37,6.48,11.37h14.3c6.5,0,14.08-5.1,16.95-11.37,2.9-6.29,.03-11.41-6.45-11.41Z"/><path class="cu" d="M883.92,899.23c1.89-4.05-.04-7.32-4.16-7.32s-9,3.27-10.88,7.32c-1.85,4.03-.02,7.31,4.13,7.31s9.04-3.28,10.91-7.31Z"/><path class="cq" d="M863.18,899.23c1.89-4.05,0-7.32-4.16-7.32s-9.04,3.27-10.91,7.32c-1.86,4.03-.03,7.31,4.15,7.31s9.04-3.28,10.92-7.31Z"/><path class="bh" d="M842.43,899.23c1.86-4.05,0-7.32-4.15-7.32s-9.04,3.27-10.91,7.32c-1.86,4.03-.03,7.31,4.12,7.31s9.07-3.28,10.94-7.31Z"/></g></g><g><polygon class="bm" points="1030.54 1202.68 777.59 1202.68 846.99 1055.75 1099.9 1055.75 1030.54 1202.68"/><g><polygon class="bb" points="1099.9 1055.75 846.99 1055.75 862.29 1022.6 1115.21 1022.6 1099.9 1055.75"/><path class="cc" d="M1026.94,1027.78h-146.02c-6.45,0-14.05,5.13-16.95,11.41-2.87,6.27,0,11.37,6.45,11.37h146.01c6.51,0,14.09-5.1,16.96-11.37,2.91-6.28,.06-11.41-6.45-11.41Z"/><path class="cu" d="M1098.38,1039.18c1.85-4.03-.04-7.32-4.19-7.32s-9.04,3.29-10.91,7.32-.03,7.33,4.16,7.33,9.06-3.3,10.94-7.33Z"/><path class="cc" d="M1077.59,1039.18c1.86-4.03-.03-7.32-4.16-7.32s-9.04,3.29-10.94,7.32c-1.85,4.03,0,7.33,4.19,7.33s9.04-3.3,10.91-7.33Z"/><path class="bh" d="M1056.85,1039.18c1.85-4.03,0-7.32-4.16-7.32s-9.04,3.29-10.9,7.32c-1.9,4.03,0,7.33,4.15,7.33s9.04-3.3,10.91-7.33Z"/></g><g><path class="cu" d="M1060.51,1073.48h-190.56c-8.4,0-18.33,6.69-22.09,14.88-3.82,8.18-.03,14.84,8.38,14.84h190.55c8.47,0,18.36-6.66,22.13-14.84,3.79-8.19,.09-14.88-8.41-14.88Z"/><path class="cu" d="M1060.51,1073.48h-52.58l-13.72,29.72h52.58c8.47,0,18.36-6.68,22.13-14.84,3.79-8.19,.09-14.88-8.41-14.88Z"/></g><g><path class="cs" d="M887.4,1112.64h-45.49c-2.9,0-6.35,2.32-7.68,5.17-1.31,2.8,0,5.14,2.91,5.14h45.49c2.97,0,6.39-2.33,7.71-5.14,1.28-2.84,.03-5.17-2.94-5.17Z"/><path class="cs" d="M919.61,1129.15h-85.33c-2.91,0-6.36,2.32-7.64,5.16-1.35,2.81,0,5.14,2.9,5.14h85.33c2.96,0,6.36-2.32,7.71-5.14,1.28-2.83,.02-5.16-2.97-5.16Z"/><path class="cs" d="M932.56,1145.64h-105.89c-2.94,0-6.36,2.32-7.67,5.17-1.32,2.81,0,5.13,2.9,5.13h105.93c2.96,0,6.39-2.31,7.7-5.13,1.29-2.84,.03-5.17-2.97-5.17Z"/><path class="cs" d="M901.76,1162.1h-82.71c-2.93,0-6.36,2.32-7.64,5.17-1.35,2.84-.04,5.14,2.87,5.14h82.71c2.96,0,6.39-2.3,7.71-5.14,1.31-2.84,.02-5.17-2.94-5.17Z"/><path class="cs" d="M948.88,1178.64h-137.43c-2.94,0-6.36,2.3-7.66,5.14-1.32,2.84,0,5.13,2.89,5.13h137.43c3,0,6.39-2.29,7.67-5.13,1.35-2.84,.04-5.14-2.89-5.14Z"/></g></g></g><g><path class="bi" d="M1073.5,1917.09s8.34-167.95,145.3-153.64c136.97,14.3,65.51,117.93-2.38,104.82s-127.43,29.78-129.81,54.77c-2.38,25.03-13.11-5.96-13.11-5.96Z"/><path class="dn" d="M1060.91,1999.56c-.98,0-1.92-.39-2.63-1.19-1.98-2.28-18.11-25.08,25.36-121.75,44.54-99.05,158.59-65.69,159.73-65.35,1.9,.55,2.93,2.57,2.38,4.43-.59,1.9-2.66,2.9-4.46,2.38-4.42-1.35-109.17-31.84-151.14,61.46-41.52,92.39-26.55,113.99-26.4,114.21,1.16,1.52,.95,3.79-.56,4.98-.66,.55-1.49,.82-2.29,.82Z"/><path class="cc" d="M1060.39,1921.86s-13.1-366.85-145.3-366.85-117.9,101.25-48.82,127.44c69.08,26.21,146.49,61.95,170.29,238.21,23.83,176.29,23.83,1.19,23.83,1.19Z"/><path class="cd" d="M1052.05,1948.66c-1.91,0-3.51-1.55-3.57-3.52-.02-1.25-3.3-127.19-56.74-227.95-52.75-99.48-88.72-112.5-89.05-112.62-1.9-.61-2.9-2.66-2.29-4.49,.61-1.9,2.7-2.9,4.46-2.32,1.55,.49,38.64,13.23,93.18,116.07,54.27,102.29,57.57,229.91,57.59,231.19,.04,1.95-1.52,3.6-3.51,3.63h-.07Z"/><path class="db" d="M1053.24,1926.63s-23.79-110.79-15.45-265.6c8.3-154.84,103.59-208.44,156-135.81,52.43,72.66-45.26,82.22-84.54,163.18-39.33,81-38.14,220.34-33.37,234.64,4.77,14.31-22.65,3.58-22.65,3.58Z"/><path class="cu" d="M1068.74,1926.63c1.19-4.77-20.26-146.5,78.6-251.33,98.88-104.81,240.6-91.72,229.88-10.73-10.72,81.04-102.41,58.39-167.95,64.35-65.51,5.96-128.62,173.88-125.05,201.29,3.57,27.4-15.49-3.57-15.49-3.57Z"/><path class="dg" d="M1053.24,1926.63s-19.02-164.38-150.07-181.03c-131.01-16.69-150.08,117.87-64.32,130.98s164.4-8.31,191.79,52.43c27.36,60.73,22.6-2.38,22.6-2.38Z"/><path class="bu" d="M1052.05,1988.86h-.09c-1.98-.06-3.55-1.68-3.49-3.66,.04-1.01,1.81-99.54-65.41-144.33-67.71-45.17-125.51-37.06-126.11-36.97-2.02,.3-3.77-1.04-4.07-3-.27-1.92,1.06-3.76,3.03-4.06,2.47-.36,61.1-8.61,131.13,38.07,70.52,47.02,68.62,149.43,68.58,150.48-.06,1.95-1.64,3.48-3.57,3.48Z"/><path class="dn" d="M1057.43,1937.93c-1.77,0-3.29-1.28-3.55-3.09-.21-1.41-19.45-143.02,5.41-248.76,25.15-106.82,68.98-126.7,70.86-127.5,1.8-.76,3.94,.07,4.7,1.86,.77,1.81-.06,3.92-1.9,4.68-.4,.19-42.53,19.85-66.69,122.61-24.57,104.46-5.51,244.73-5.29,246.13,.24,1.95-1.13,3.76-3.05,4.03-.19,.03-.34,.03-.5,.03Z"/><path class="ds" d="M1067.24,1942.4h0c-1.95,0-3.57-1.59-3.57-3.54,0-1.44,.92-141.77,78.79-218.73,78.12-77.24,164.92-61.02,165.78-60.83,1.92,.4,3.2,2.27,2.81,4.22-.4,1.92-2.21,3.17-4.22,2.81-.82-.13-83.98-15.61-159.36,58.88-75.73,74.88-76.65,212.25-76.65,213.65,0,1.95-1.59,3.54-3.57,3.54Z"/><polygon class="db" points="993.24 2072.83 1127.03 2072.83 1160.73 1911.75 959.54 1911.75 993.24 2072.83"/></g><g><path class="cu" d="M286.92,1949.27s-19.07-164.38-150.08-181.05c-131.04-16.65-150.07,117.9-64.3,131.01,85.72,13.1,164.37-8.31,191.73,52.43,27.38,60.74,22.65-2.38,22.65-2.38Z"/><path class="bb" d="M285.7,2011.51h-.1c-1.95-.06-3.52-1.71-3.48-3.67,.03-1.01,1.8-99.54-65.39-144.33-67.73-45.16-125.54-37.06-126.11-36.97-2.05,.3-3.79-1.06-4.06-2.99-.31-1.96,1.04-3.76,2.99-4.07,2.48-.36,61.11-8.61,131.13,38.08,70.52,46.99,68.62,149.43,68.59,150.47-.06,1.95-1.65,3.49-3.57,3.49Z"/><g><path class="cu" d="M278.06,1904.23s-118.73-115.24-52.13-229.33c66.61-114.02,184.94-47.15,143.09,28.84-41.89,76.02-106.79,125.3-75.31,183.99,31.46,58.75-15.65,16.49-15.65,16.49Z"/><path class="bb" d="M328.1,1941.2s.04-.03,.1-.06c1.13-1.62,.79-3.86-.83-5.02-.79-.58-80.01-59.24-74.58-139.78,5.47-81.24,47.11-122.12,47.58-122.55,1.46-1.44,1.46-3.63,.09-5.04-1.38-1.44-3.64-1.46-5.07-.09-1.78,1.74-44.06,43.2-49.71,127.19-5.72,84.54,76.65,145.46,77.5,146.07,1.56,1.13,3.73,.82,4.92-.73Z"/></g><path class="db" d="M291.66,1917.09s8.34-167.95,145.31-153.64c136.96,14.3,65.5,117.93-2.38,104.82-67.89-13.1-127.44,29.78-129.82,54.77-2.38,25.03-13.11-5.96-13.11-5.96Z"/><path class="dn" d="M279.07,1999.56c-.99,0-1.92-.42-2.63-1.22-1.95-2.26-18.12-25.05,25.35-121.72,44.55-99.05,158.6-65.72,159.74-65.38,1.9,.58,2.96,2.6,2.38,4.46-.58,1.9-2.67,2.9-4.46,2.38-4.43-1.35-109.16-31.84-151.14,61.47-41.52,92.39-26.51,113.99-26.37,114.21,1.12,1.52,.92,3.76-.58,4.98-.68,.55-1.5,.82-2.29,.82Z"/><path class="di" d="M292.85,1976.64s-13.11-366.88-145.31-366.88-117.9,101.25-48.83,127.46c69.08,26.18,146.5,61.93,170.31,238.22,23.83,176.26,23.83,1.19,23.83,1.19Z"/><path class="dc" d="M284.51,2003.44c-1.93,0-3.55-1.56-3.57-3.52-.04-1.25-3.3-127.22-56.74-227.99-52.77-99.44-88.73-112.49-89.09-112.62-1.87-.6-2.88-2.63-2.26-4.49,.6-1.85,2.68-2.87,4.45-2.29,1.56,.49,38.65,13.22,93.18,116.06,54.26,102.3,57.56,229.88,57.6,231.16,.03,1.99-1.52,3.61-3.52,3.67h-.06Z"/><path class="cc" d="M286.95,2037.75c-.33-4.88-64.96-132.87-3.73-263.3,61.26-130.4,200.04-162.18,215.1-81.89s-79.1,87.41-139.51,113.51c-60.37,26.09-67.97,205.34-56.04,230.24,11.95,24.93-15.82,1.44-15.82,1.44Z"/><path class="dt" d="M290.47,2053.21h0c-1.89,.61-3.91-.39-4.52-2.28-.46-1.35-43.35-134.92,6.63-232.35,50.14-97.77,137.67-109.41,138.52-109.5,1.98-.24,3.76,1.16,3.97,3.11,.27,1.95-1.1,3.69-3.09,3.97-.86,.15-84.7,11.36-133.07,105.65-48.6,94.78-6.62,225.61-6.19,226.91,.6,1.86-.41,3.89-2.27,4.49Z"/><polygon class="db" points="211.39 2072.83 345.18 2072.83 378.88 1911.75 177.69 1911.75 211.39 2072.83"/></g><g><polygon class="ci" points="1485.62 1892.5 1448.69 2004.26 1500.06 2016.88 1552.32 1906.93 1485.62 1892.5"/><polygon class="cn" points="1762.56 1916.27 1800.02 2027.86 1848.72 2007.13 1824.59 1887.8 1762.56 1916.27"/><path class="db" d="M1991.55,1457.74s-284.6,38.56-300.42,84.44c-15.8,45.89,59.3,400.65,59.55,406.02,.27,5.41,89.48-16.65,89.48-16.65,0,0-25.64-303.36-14.91-305.67,10.69-2.32,58.75,8.86,201.19,8.86,177.88,0,197.19,16.81,197.19-229.21,0-215.55-232.08,52.22-232.08,52.22Z"/><path class="db" d="M1923.08,1458.07s-266.79-34.86-284.81,10.2c-18.06,45.07-173.08,441.67-173.08,447.08s79.32,33.03,79.32,33.03c0,0,193.49-328.68,204.3-330.49,10.82-1.81,33.07,18.03,175.47,14.42,142.44-3.61,262.02-1.19,233.18-215.13-28.81-213.62-234.38,40.88-234.38,40.88Z"/><path class="du" d="M2197.58,905.45c101.15,83.53,35.14,477.9,31.98,521.37-3.11,43.54-215.03,39.75-265.65,39.1-49.22-.64-77.52-7.85-77.52-7.85,0,0,22.73-149.16,30.68-233.49,9.47-100.09-15.16-150.36,9.62-220.82,29.61-84.16,92.29-121.85,133.15-117.48,40.82,4.34,112.95-1.3,137.74,19.16Z"/><path class="db" d="M1510.25,1995.25s-2.63,13.85-7.24,48.7c-4.62,34.83-6.6,30.61-6.6,30.61,0,0-89.7,1.84-130.58,1.84s-44.86-1.81-44.86-7.21c0-25.27,60.68-25.33,88.4-51.08,29.4-27.38,42.8-25.58,47.41-25.58,4.65,0,16.53,18.95,53.47,2.72Z"/><path class="db" d="M1846.12,1973.5s3.43,13.62,13.94,47.17c10.48,33.55,6.9,30.59,6.9,30.59,0,0-24.56,10.91-52.04,24.23,0,0-129.32,2.87-131.58-2.05-10.66-22.88,64.38-27.76,71.49-40.94,19.82-36.63,37.43-37,41.64-38.96,4.19-1.95,22.98,10.21,49.65-20.04Z"/><path class="az" d="M1987.43,619.46s-26.71,196.63,20.96,206.05c58.17,11.5,56.22,66.26,56.22,66.26,0,0,100.65,18.52,106.39,5.62,5.68-13.05-48.5-50.55,5.25-133.61,16.19-25.11-16.41-186.98-94.53-182.58-77.95,4.46-85.49,13.79-94.29,38.27Z"/><path class="ba" d="M1984.43,675.38c28.85,15.16,46.93,3.91,46.93,3.91,0,0,9.77,30.61,13.69,34.53,3.91,3.91,27.62-13.26,39.77,0,17.9,19.55-11.77,41.72-18.27,44.97-6.5,3.27,30.95,66.88,56.41,68.44,31.58,1.95,76.56-11.73,90.25-77.24,13.68-65.5-5.88-144.7-56.72-175.01s-88.97,20.53-159.35-24.44c-30.31-19.37-116.35,70.39-12.71,124.84Z"/><path class="db" d="M2055.31,888.34s.98-12.22,5.88-14.66c4.88-2.45,38.61,10.75,68.93,6.84,30.3-3.91,30.79-6.84,35.68-5.38,4.88,1.46,12.71,18.57,8.79,24.44-3.91,5.86-16.62,7.33-51.33,3.42-34.71-3.91-60.61-8.8-67.95-14.66Z"/><path class="de" d="M2197.58,905.45c-24.78-20.45-96.91-14.82-137.73-19.16-40.86-4.37-103.55,33.31-133.15,117.48-22.67,64.48-4.03,112.17-7.98,196.53-.36,7.82-.85,15.83-1.64,24.29-.53,5.6-1.13,11.52-1.78,17.67-.03,.27-.06,.6-.09,.92-.65,5.93-1.32,12.03-2.05,18.3h0c-9.72,84.75-26.77,196.6-26.77,196.6,0,0,20.75,5.22,57.41,7.15-3.09-19.82-5.96-47.81-3.85-75.46,3.36-43.48,19.03-126.71,23.55-150.05,9.47-5.8,18.43-12.62,24.69-20.74,22.16-28.66,49.52-65.18,63.86-147.3,14.35-82.14,16.95-162.95,23.46-165.55,6.54-2.63,46.97,23.46,79.53,15.64,32.6-7.82,57.35-5.22,61.26,45.61,3.92,50.84,10.45,340.25-22.15,434.11-8.92,25.72-18.33,42.96-26.8,55.49,35.38-5.84,61.14-15.19,62.21-30.16,3.15-43.48,69.17-437.84-31.98-521.37Z"/><path class="dj" d="M1831.91,1140.11s-43.02,78.21-58.65,89.94c-15.65,11.74-161-43.35-240.18-43.35s-82.47,32.6-76.6,32.6,26.74-16.95,64.86-11.09c38.12,5.87,31.29,34.23,45.96,34.23s27.36-6.85,51.82,1.95c24.43,8.8,164.88,83.44,198.12,84.41s124.17-117.32,145.68-143.72c21.5-26.4-119.28-56.7-126.12-46.92"/><g><g><path class="bb" d="M2114.7,1659.69l40.98-14.45,37.58,397.65c2.29,15.95,.22,30.4-4.55,32.11-4.79,1.68-11.48-10.02-14.9-26.06l-59.1-389.24Z"/><path class="bt" d="M2114.7,1659.69l40.98-14.45,37.58,397.65c2.29,15.95,.22,30.4-4.55,32.11-4.79,1.68-11.48-10.02-14.9-26.06l-59.1-389.24Z"/></g><g><path class="bb" d="M2118.98,1654.74l-42.95-6.53,27.46,443.9c.37,18.03,4.75,33.36,9.78,34.16,4.94,.73,9.75-13.59,10.54-31.9l-4.83-439.63Z"/><path class="bd" d="M2118.98,1654.74l-42.95-6.53,27.46,443.9c.37,18.03,4.75,33.36,9.78,34.16,4.94,.73,9.75-13.59,10.54-31.9l-4.83-439.63Z"/></g><g><path class="bb" d="M1865.19,1646.07l43.41,1.52-112.47,431.01c-3.81,17.63-11.08,31.9-16.15,31.75-5.08-.19-6.93-15.16-4.19-33.3l89.4-430.98Z"/><path class="cm" d="M1865.19,1646.07l43.41,1.52-112.47,431.01c-3.81,17.63-11.08,31.9-16.15,31.75-5.08-.19-6.93-15.16-4.19-33.3l89.4-430.98Z"/></g><g><path class="bb" d="M2374.65,1647.86l-43.45,5.41,112.65,392.64c3.82,16.12,11.09,28.84,16.13,28.19,5.04-.6,6.96-14.81,4.22-31.49l-89.55-394.75Z"/><path class="bs" d="M2374.65,1647.86l-43.45,5.41,112.65,392.64c3.82,16.12,11.09,28.84,16.13,28.19,5.04-.6,6.96-14.81,4.22-31.49l-89.55-394.75Z"/></g><g><path class="ck" d="M2461.58,1073.48c0-7.92-6.5-14.41-14.42-14.41h-313.51l3.27,497.54-12.62,64.89-21.63,19.83-48.67,25.23h317.27v.12c86.9,0,90.13-56.4,90.25-150.44,0-.06,.06-.12,.06-.19v-442.58h0Z"/><path class="bn" d="M2461.58,1073.48c0-7.92-6.5-14.41-14.42-14.41h-313.51l3.27,497.54-12.62,64.89-21.63,19.83-48.67,25.23h317.27v.12c86.9,0,90.13-56.4,90.25-150.44,0-.06,.06-.12,.06-.19v-442.58h0Z"/><path class="bb" d="M2152.84,1073.48c0-7.92-6.48-14.41-14.39-14.41h-4.8c-7.94,0-14.41,6.49-14.41,14.41v431.77h0c0,106.78-5.11,125.54-46.82,127.62-.12,0-.23-.09-.39-.09h-293.83c-7.91,0-14.4,6.47-14.4,14.41v4.8c0,7.92,6.48,14.4,14.4,14.4h284.36v.3c2.48,0,4.61-.21,6.97-.3h2.5c.24,0,.46-.12,.7-.12,76.75-4.46,79.96-59.89,80.08-150.02,0-.06,.03-.12,.03-.19v-442.58h0Z"/><path class="bq" d="M2152.84,1073.48c0-7.92-6.48-14.41-14.39-14.41h-4.8c-7.94,0-14.41,6.49-14.41,14.41v431.77h0c0,106.78-5.11,125.54-46.82,127.62-.12,0-.23-.09-.39-.09h-293.83c-7.91,0-14.4,6.47-14.4,14.41v4.8c0,7.92,6.48,14.4,14.4,14.4h284.36v.3c2.48,0,4.61-.21,6.97-.3h2.5c.24,0,.46-.12,.7-.12,76.75-4.46,79.96-59.89,80.08-150.02,0-.06,.03-.12,.03-.19v-442.58h0Z"/></g></g><path class="ce" d="M1913.34,1148.91c-14.41,24.1-70.55,116.77-94.29,138.83-27.37,25.42-184.78-50.84-199.44-56.7-14.51-5.81-63.44-.13-64.43-.04,3.54,6.33,5.89,11.44,12.13,11.44,14.66,0,27.36-6.85,51.82,1.95,24.43,8.8,164.88,83.44,198.12,84.41s124.17-117.32,145.68-143.72c10.45-12.83-17.42-26.55-49.59-36.17Z"/><path class="db" d="M2025.5,891.76s-115.36,25.42-160.34,115.37c-44.97,89.97-43.02,129.07-43.02,129.07,0,0,109.5,54.76,156.44,54.76,23.46-31.29,29.33-66.48,48.89-115.37,20.56-51.36,76.25-181.86-1.96-183.82Z"/></g></svg>