<?xml version="1.0" encoding="utf-8"?>
<!-- Generator: Adobe Illustrator 26.4.1, SVG Export Plug-In . SVG Version: 6.00 Build 0)  -->
<svg version="1.1" id="Layer_1" xmlns="http://www.w3.org/2000/svg" xmlns:xlink="http://www.w3.org/1999/xlink" x="0px" y="0px"
	 viewBox="0 0 3000 2500" style="enable-background:new 0 0 3000 2500;" xml:space="preserve">
<style type="text/css">
	.st0{display:none;fill:url(#SVGID_1_);}
	.st1{fill:url(#SVGID_00000065783910013292473110000017984433302592206722_);}
	.st2{fill:url(#SVGID_00000096048807663414418070000003652928076393845179_);}
	.st3{fill:url(#SVGID_00000163751353941907432460000016140773114478498478_);}
	.st4{fill:url(#SVGID_00000151543632682686521060000015843666896422178239_);}
	.st5{fill:url(#SVGID_00000163067068153645293160000000900767117118150073_);}
	.st6{fill:url(#SVGID_00000002351467335473806150000005902157297742273460_);}
	.st7{fill:url(#SVGID_00000031920046950290438710000007226872868601521598_);}
	.st8{fill:url(#SVGID_00000153700009347715007340000003787759688160280462_);}
	.st9{fill:url(#SVGID_00000051355489633995633510000003176292625299081128_);}
	.st10{fill:url(#SVGID_00000109725086256893864740000010639551633920416655_);}
	.st11{fill:url(#SVGID_00000094600504923293996380000007037581588161503874_);}
	.st12{fill:url(#SVGID_00000052079389849999341900000009201923628717776020_);}
	.st13{fill:url(#SVGID_00000023277147568490081930000002320746763032773037_);}
	.st14{fill:url(#SVGID_00000128465452320953042170000011146619888590619571_);}
	.st15{fill:#025E55;}
	.st16{fill:url(#SVGID_00000011733037296437357120000014004854866894248582_);}
	.st17{fill:url(#SVGID_00000081634127358197251960000003116946233628487090_);}
	.st18{fill:url(#SVGID_00000129194777299790173760000014050920013837871495_);}
	.st19{fill:#FFFFFF;}
	.st20{fill:#EAEAEA;}
	.st21{fill:#CECECE;}
	.st22{fill:url(#SVGID_00000074430990902779893640000003256703736735570059_);}
	.st23{fill:url(#SVGID_00000005257475677032775420000012004724453727621007_);}
	.st24{fill:#D3D3D3;}
	.st25{fill:#B5B5B5;}
	.st26{fill:url(#SVGID_00000005979221731228312060000004232296775321554334_);}
	.st27{fill:url(#SVGID_00000016762109208148138860000004322592315637435025_);}
	.st28{fill:#1E1E1E;}
	.st29{fill:#FF3400;}
	.st30{fill:#2584FF;}
	.st31{fill:#A4EDED;}
	.st32{fill:#BC4B9B;}
	.st33{fill:#3D3D3D;}
	.st34{fill:#254AFF;}
	.st35{fill:#00D9FF;}
	.st36{fill:url(#SVGID_00000060021857101660558870000008050958574694475667_);}
	.st37{fill:#D8D8D8;}
	.st38{fill:#A0A0A0;}
	.st39{fill:url(#SVGID_00000164504233106914788410000013440668829466051005_);}
	.st40{fill:#0F36FF;}
	.st41{fill:url(#SVGID_00000040562791881825633860000010014470838159802261_);}
	.st42{fill:#073535;}
	.st43{fill:#0F3657;}
	.st44{fill:none;}
	.st45{fill:url(#SVGID_00000067945986917976111990000007537631157417605287_);}
	.st46{fill:#06443F;}
	.st47{fill:#01433C;}
	.st48{fill:url(#SVGID_00000170988258128496595510000016544633775606312355_);}
	.st49{fill:url(#SVGID_00000079447322247729584530000002537026159796283271_);}
	.st50{fill:url(#SVGID_00000077317037810796406940000000910585080033223093_);}
	.st51{fill:url(#SVGID_00000031174151225323351290000004918766319671595181_);}
	.st52{fill:#C9C9C9;}
	.st53{fill:#E2E2E2;}
	.st54{fill:url(#SVGID_00000091001486851092438680000014913509623083548805_);}
	.st55{fill:#E5E5E5;}
	.st56{fill:url(#SVGID_00000115512706507639787020000013271391101789591938_);}
	.st57{fill:#1CD3D3;}
	.st58{fill:url(#SVGID_00000103230839350796396090000007309385199139618447_);}
	.st59{fill:#D2F6F6;}
	.st60{fill:#1C37D3;}
	.st61{fill:#EF4136;}
	.st62{fill:#BE1E2D;}
	.st63{fill:#6A0E00;}
	.st64{fill:#009FFF;}
	.st65{fill:url(#SVGID_00000039112880408621746170000013266916650388337041_);}
	.st66{fill:url(#SVGID_00000018943091734687960760000008631566593968737430_);}
	.st67{fill:url(#SVGID_00000159429224548540912100000001788413621305780378_);}
	.st68{fill:url(#SVGID_00000183211820965210663210000007933029695395881376_);}
	.st69{fill:url(#SVGID_00000075883997198382583800000014311964325428847018_);}
	.st70{fill:url(#SVGID_00000144327298996255493350000004897352282648669319_);}
	.st71{fill:url(#SVGID_00000101819958882021025900000000669508281472584078_);}
	.st72{fill:url(#SVGID_00000172415608171779317170000013996058005710657669_);}
	.st73{fill:url(#SVGID_00000060714142844919169130000004970528297585081011_);}
	.st74{fill:url(#SVGID_00000044167174635513224960000006311219209117162899_);}
	.st75{fill:url(#SVGID_00000054234245507918868190000006624054474520922515_);}
	.st76{fill:url(#SVGID_00000083079142454249892470000006224957944227643021_);}
	.st77{fill:#222222;}
	.st78{fill:url(#SVGID_00000082367190870266446860000003902969407401067419_);}
</style>
<g>
	<g>
		
			<linearGradient id="SVGID_1_" gradientUnits="userSpaceOnUse" x1="0" y1="1250" x2="3000" y2="1250" gradientTransform="matrix(1 0 0 -1 0 2500)">
			<stop  offset="0.7977" style="stop-color:#130C0E"/>
			<stop  offset="1" style="stop-color:#130C0E"/>
		</linearGradient>
		<rect class="st0" width="3000" height="2500"/>
		<g>
			<g>
				
					<linearGradient id="SVGID_00000137101413581063601830000004854228909507019160_" gradientUnits="userSpaceOnUse" x1="879.0374" y1="2334.7192" x2="879.0374" y2="582.2071" gradientTransform="matrix(1 0 0 -1 0 2500)">
					<stop  offset="0" style="stop-color:#911EFD"/>
					<stop  offset="0.1346" style="stop-color:#8F1EF9"/>
					<stop  offset="0.2618" style="stop-color:#881CEE"/>
					<stop  offset="0.386" style="stop-color:#7D1ADB"/>
					<stop  offset="0.5084" style="stop-color:#6E17C0"/>
					<stop  offset="0.6296" style="stop-color:#5A139D"/>
					<stop  offset="0.7498" style="stop-color:#420E73"/>
					<stop  offset="0.8692" style="stop-color:#250841"/>
					<stop  offset="0.9853" style="stop-color:#040108"/>
					<stop  offset="1" style="stop-color:#000000"/>
				</linearGradient>
				<path style="fill:url(#SVGID_00000137101413581063601830000004854228909507019160_);" d="M1637.7,925.6
					c-1,1.8-53,88.9-155.1,193c-20.4-28.6-62.3-76.6-120-89.7c-83.7-19-169.1,42.5-169.1,42.5s50.4,92.5,134.1,111.5
					c33.1,7.5,66.3,2.4,94.5-6.5c-46.3,41.5-99.9,83.6-161,122.6c-14.5-31.1-47.4-88.5-103.8-112.3
					c-79.1-33.4-173.9,12.3-173.9,12.3s33.3,99.8,112.4,133.3c30,12.7,62.1,13.9,90.7,10.7c-56.7,30.4-118.5,57.6-185.8,78.9
					c-6.3,2-12.4,3.8-18.7,5.7c-8.2-31.1-31.7-98.5-86.7-132.6c-72.9-45.3-173.8-14.9-173.8-14.9s17.5,103.8,90.4,149.1
					c24.6,15.3,52.3,21.8,78.3,23.9c-81.4,20.3-154,32-217.7,38.2c-2.9-33.1-14.5-101.1-61.4-143.4
					c-63.7-57.5-168.3-45.6-168.3-45.6s-1.3,105.3,62.4,162.8c16.2,14.7,35.1,24.8,54.2,31.8c-107.1-0.2-174.7-16.6-199.8-24.1
					c-21.1-22.1-68.4-64.2-126.2-67.8c-78.8-4.9-147.1,63.7-147.1,63.7s59.4,76.4,138.2,81.3c47.9,3,92-21.3,119.1-40.7
					c13.4,4.4,40.8,12,81.7,18.2c-24.3,8-49,20.5-69,40.4c-60.8,60.6-54.4,165.7-54.4,165.7s105,6.8,165.9-53.8
					c43.6-43.4,52.6-109.5,54.2-143.6c48.3,1.8,105.7,0.4,172.2-7c-16.7,10.1-32.7,23.1-45.4,39.6c-52.4,68.1-32.2,171.4-32.2,171.4
					s105-7,157.4-75c39-50.8,37.7-121,34.5-153.6c62.2-12,130.1-28.8,204.1-52.2c2.7-0.9,5.3-1.9,8-2.7
					c-18.1,13-35.1,29.5-47.3,50.3c-43.4,74.1-10.5,174.1-10.5,174.1s103.4-20,146.8-94.1c37.5-64,18-147.3,12.1-168.8
					c75.4-33,143.1-72.5,203.1-114.4c-11.9,21-21,45.3-22.9,71.7c-6,85.6,68,160.6,68,160.6s83.7-63.9,89.6-149.6
					c4.3-61.7-32.7-117.5-53.8-144.1c175.7-144.8,264.8-294.6,266.2-297L1637.7,925.6z"/>
			</g>
			<g>
				
					<linearGradient id="SVGID_00000067948415681450970670000018311418056626313358_" gradientUnits="userSpaceOnUse" x1="1375.4148" y1="2334.7236" x2="1375.4148" y2="582.2031" gradientTransform="matrix(1 0 0 -1 0 2500)">
					<stop  offset="0" style="stop-color:#911EFD"/>
					<stop  offset="0.1346" style="stop-color:#8F1EF9"/>
					<stop  offset="0.2618" style="stop-color:#881CEE"/>
					<stop  offset="0.386" style="stop-color:#7D1ADB"/>
					<stop  offset="0.5084" style="stop-color:#6E17C0"/>
					<stop  offset="0.6296" style="stop-color:#5A139D"/>
					<stop  offset="0.7498" style="stop-color:#420E73"/>
					<stop  offset="0.8692" style="stop-color:#250841"/>
					<stop  offset="0.9853" style="stop-color:#040108"/>
					<stop  offset="1" style="stop-color:#000000"/>
				</linearGradient>
				<path style="fill:url(#SVGID_00000067948415681450970670000018311418056626313358_);" d="M1545.6,770.8
					c-33.2-2.1-93.4-0.2-137.5,34.3c-64,50-70,149.4-70,149.4s97.9,18.4,162-31.6c25.3-19.7,41.4-47.1,51.7-73.1
					c2.8,58.8,1.6,123.3-6.4,191.4c-31.5-8-93.3-18.1-144.4,8.9c-71.8,38-95.1,134.9-95.1,134.9s93.2,35.3,165-2.7
					c27.2-14.4,47.4-37.2,62.1-60.1c-11.6,59.8-28.7,121.4-53.3,183.5c-2.3,5.9-4.6,11.4-7,17.1c-27.7-12.6-91.1-35.7-149.1-15.7
					c-76.8,26.4-114.8,118.5-114.8,118.5s86.6,49.3,163.4,22.9c25.9-8.9,47.3-25.4,64.4-43.1c-33.8,71.8-68.7,132.1-102.2,182.4
					c-26-17.7-82.9-49.8-142-40.8c-80.3,12.3-134.1,96.1-134.1,96.1s76.4,64,156.7,51.6c20.5-3.1,39.1-10.9,55.7-20.8
					c-64.2,78.4-116.7,118.2-137.2,132.1c-28.9,2.2-88,11.7-125.3,52c-50.7,54.8-41.3,146-41.3,146s91.6,2.2,142.3-52.7
					c30.9-33.4,39.4-80.1,41.4-111.6c11.2-7.3,33.2-22.7,62.3-49c-8.6,22.6-14.3,48.2-11.6,74.8c8.1,80.8,89,139,89,139
					s67.9-72.9,59.8-153.8c-5.8-58-48.8-104.1-72.9-125.7c30.2-34.3,63.5-77.2,97.9-130.4c-2.6,18.3-2.6,37.7,1.9,57
					c18.6,79.1,106.4,126.1,106.4,126.1s57.7-81.2,39.1-160.3c-13.9-59-66.2-100.1-91.9-117.2c28.5-52.8,56.7-112.6,83.8-180.9
					c0.9-2.5,1.8-5,2.8-7.5c-1.2,21.1,0.6,43.3,8.6,64.7c28.3,76.2,121.4,111.8,121.4,111.8s47.1-87.8,18.8-163.9
					c-24.5-65.8-97.3-101.3-116.6-109.8c20.9-75,32.4-148.3,37.6-217.4c8.3,21.3,20.6,42.6,38.8,59.7
					c59.2,55.6,158.4,46.2,158.4,46.2s3.1-99.6-56.1-155.2c-42.7-40.1-105.8-46.3-137.9-46.8
					C1589.4,685.8,1530.4,633.6,1545.6,770.8z"/>
			</g>
			<g>
				
					<linearGradient id="SVGID_00000058566684318905466350000003291412537935991980_" gradientUnits="userSpaceOnUse" x1="1787.3723" y1="2334.7246" x2="1787.3723" y2="582.2043" gradientTransform="matrix(1 0 0 -1 0 2500)">
					<stop  offset="0" style="stop-color:#911EFD"/>
					<stop  offset="0.1346" style="stop-color:#8F1EF9"/>
					<stop  offset="0.2618" style="stop-color:#881CEE"/>
					<stop  offset="0.386" style="stop-color:#7D1ADB"/>
					<stop  offset="0.5084" style="stop-color:#6E17C0"/>
					<stop  offset="0.6296" style="stop-color:#5A139D"/>
					<stop  offset="0.7498" style="stop-color:#420E73"/>
					<stop  offset="0.8692" style="stop-color:#250841"/>
					<stop  offset="0.9853" style="stop-color:#040108"/>
					<stop  offset="1" style="stop-color:#000000"/>
				</linearGradient>
				<path style="fill:url(#SVGID_00000058566684318905466350000003291412537935991980_);" d="M1617.2,752.3
					c33.2-2.1,93.4-0.2,137.6,34.3c64,50,70,149.4,70,149.4s-97.9,18.4-162-31.6c-25.3-19.7-41.4-47.1-51.7-73.1
					c-2.8,58.8-1.6,123.3,6.4,191.4c31.5-8,93.3-18.1,144.4,8.9c71.8,38,95,134.9,95,134.9s-93.2,35.3-165-2.7
					c-27.2-14.4-47.4-37.2-62.1-60.1c11.6,59.8,28.7,121.4,53.3,183.5c2.3,5.9,4.6,11.4,7,17.1c27.7-12.6,91.1-35.7,149.1-15.7
					c76.8,26.4,114.8,118.5,114.8,118.5s-86.6,49.3-163.4,22.9c-25.9-8.9-47.3-25.4-64.4-43.1c33.9,71.8,68.7,132.1,102.2,182.4
					c26-17.7,82.9-49.8,141.9-40.8c80.3,12.3,134.1,96.1,134.1,96.1s-76.4,64-156.7,51.6c-20.5-3.1-39.1-10.9-55.7-20.8
					c64.2,78.4,116.7,118.2,137.1,132.1c28.9,2.2,88,11.7,125.3,52c50.7,54.8,41.3,146,41.3,146s-91.6,2.2-142.3-52.7
					c-30.9-33.4-39.4-80.1-41.4-111.6c-11.2-7.3-33.2-22.7-62.3-49c8.6,22.6,14.3,48.2,11.6,74.8c-8.1,80.8-89,139-89,139
					s-67.9-72.9-59.8-153.8c5.8-58,48.9-104.1,72.9-125.7c-30.2-34.3-63.5-77.2-97.9-130.4c2.6,18.3,2.6,37.7-1.9,57
					c-18.6,79.1-106.4,126.1-106.4,126.1s-57.7-81.2-39.1-160.3c13.9-59,66.2-100.1,91.9-117.2c-28.5-52.8-56.7-112.6-83.8-180.9
					c-1-2.5-1.8-5-2.8-7.5c1.2,21.1-0.6,43.4-8.6,64.7c-28.3,76.2-121.4,111.8-121.4,111.8s-47.1-87.8-18.8-163.9
					c24.5-65.8,97.3-101.4,116.6-109.8c-20.9-75-32.4-148.3-37.6-217.3c-8.3,21.3-20.6,42.6-38.8,59.7
					c-59.2,55.6-158.4,46.2-158.4,46.2s-3.1-99.6,56.1-155.2c42.7-40.1,105.7-46.4,137.9-46.8
					C1573.4,667.3,1632.4,615.1,1617.2,752.3z"/>
			</g>
			<g>
				
					<linearGradient id="SVGID_00000109712992175729147920000006425373051208758145_" gradientUnits="userSpaceOnUse" x1="2199.814" y1="2334.6865" x2="2199.814" y2="582.2323" gradientTransform="matrix(1 0 0 -1 0 2500)">
					<stop  offset="0" style="stop-color:#911EFD"/>
					<stop  offset="0.1346" style="stop-color:#8F1EF9"/>
					<stop  offset="0.2618" style="stop-color:#881CEE"/>
					<stop  offset="0.386" style="stop-color:#7D1ADB"/>
					<stop  offset="0.5084" style="stop-color:#6E17C0"/>
					<stop  offset="0.6296" style="stop-color:#5A139D"/>
					<stop  offset="0.7498" style="stop-color:#420E73"/>
					<stop  offset="0.8692" style="stop-color:#250841"/>
					<stop  offset="0.9853" style="stop-color:#040108"/>
					<stop  offset="1" style="stop-color:#000000"/>
				</linearGradient>
				<path style="fill:url(#SVGID_00000109712992175729147920000006425373051208758145_);" d="M1555.8,993.7
					c14.6-29.9,46.1-81.3,97.9-102.5c75.2-30.9,164.5,13.2,164.5,13.2s-32.5,94.2-107.6,125.1c-29.7,12.2-61.4,12.6-89.2,8.7
					c49.7,31.5,106.4,62.4,169.5,89.2c8.6-31.3,30.4-90,79.2-121.1c68.6-43.6,164.2-15.8,164.2-15.8s-15.4,98.4-84,142
					c-26,16.5-55.8,22.7-82.9,24.2c57.6,19.5,119.6,35.2,185.8,44.5c6.2,0.9,12.2,1.6,18.3,2.4c2.8-30.3,14.1-96.8,60.1-137.3
					c61-53.7,159.8-41.1,159.8-41.1s0,99.6-61,153.3c-20.6,18.1-45.5,28.5-69.4,34.6c79.2,6.2,148.8,5.7,209.1,1.5
					c-2.5-31.3-2.3-96.7,34.9-143.5c50.4-63.7,149.9-68.9,149.9-68.9s17.7,98.1-32.7,161.7c-12.8,16.2-28.9,28.6-45.6,38.1
					c99.9-17,160.5-42.9,182.7-53.8c16.2-24,53.8-70.7,107.2-83.1c72.7-16.9,147.3,36.4,147.3,36.4s-43.4,80.6-116.2,97.5
					c-44.3,10.3-89.1-5.4-117.5-19.3c-11.9,6.2-36.2,17.6-73.4,29.8c23.9,3.7,48.9,11.5,70.8,26.9c66.2,47,76.7,146.1,76.7,146.1
					s-96.9,22.9-163.2-24.1c-47.5-33.7-66.2-94-73.1-125.5c-44.8,9.3-98.6,17-161.7,20.5c17.2,6.8,34.1,16.4,48.6,29.8
					c59.5,55.3,56.9,154.9,56.9,154.9s-99.1,10-158.7-45.4c-44.4-41.2-54.2-107-56.3-137.9c-59.9-1.4-126-6.4-198.7-16.8
					c-2.6-0.4-5.3-0.9-7.9-1.2c18.9,9.3,37.4,22,52,39.5c52.2,62.3,37.1,160.8,37.1,160.8s-99.6-2.5-151.7-64.8
					c-45.1-53.9-39.9-134.7-37.7-155.6c-75.6-19-144.9-45.2-207.5-74.9c14.4,17.8,26.7,39,32.6,63.3c19,79-38.3,160.5-38.3,160.5
					s-88.1-46.5-107.1-125.5c-13.7-56.9,12.1-114.8,27.7-143C1460.3,989.7,1444.2,912.5,1555.8,993.7z"/>
			</g>
			<g>
				
					<linearGradient id="SVGID_00000182492140580040021120000005254207340698432698_" gradientUnits="userSpaceOnUse" x1="2152.6006" y1="2334.7246" x2="2152.6006" y2="582.1942" gradientTransform="matrix(1 0 0 -1 0 2500)">
					<stop  offset="0" style="stop-color:#911EFD"/>
					<stop  offset="0.1346" style="stop-color:#8F1EF9"/>
					<stop  offset="0.2618" style="stop-color:#881CEE"/>
					<stop  offset="0.386" style="stop-color:#7D1ADB"/>
					<stop  offset="0.5084" style="stop-color:#6E17C0"/>
					<stop  offset="0.6296" style="stop-color:#5A139D"/>
					<stop  offset="0.7498" style="stop-color:#420E73"/>
					<stop  offset="0.8692" style="stop-color:#250841"/>
					<stop  offset="0.9853" style="stop-color:#040108"/>
					<stop  offset="1" style="stop-color:#000000"/>
				</linearGradient>
				<path style="fill:url(#SVGID_00000182492140580040021120000005254207340698432698_);" d="M1646.3,1175.1
					c-12.9-30.7-30.7-88.2-12.6-141.2C1659.9,957,1752,918.9,1752,918.9s49.4,86.5,23.2,163.4c-10.4,30.4-31,54.5-52.2,72.8
					c56.4-16.6,117-38.9,178.8-68.7c-17.9-27.1-47.7-82.2-38.8-139.4c12.4-80.3,96.3-134,96.3-134s63.8,76.5,51.4,156.8
					c-4.7,30.4-19.7,57-36.5,78.3c52.7-30.5,105.3-66.9,155.9-110.4c4.8-4.1,9.3-8.1,13.9-12.2c-21-22.1-63.6-74.4-63.7-135.7
					c-0.2-81.2,74.4-147.3,74.4-147.3s74.9,65.6,75.1,146.9c0.1,27.4-8.5,53-19.6,75c56.8-55.5,102.4-108.1,138.9-156.3
					c-25.2-18.8-74.2-62-85-120.8c-14.7-79.9,46.9-158.2,46.9-158.2s85.5,51.2,100.1,131.1c3.8,20.4,2.5,40.6-1.4,59.5
					c53.1-86.4,73.4-148.9,79.9-172.9c-7.4-28-17.7-87,8.1-135.4c35.2-65.9,124.4-86.8,124.4-86.8s32.1,85.8-3.2,151.7
					c-21.4,40.1-62.8,63.5-91.9,75.7c-3.2,13-10.6,38.8-25.9,74.9c18.5-15.6,40.9-29.3,66.9-35.5c79-18.9,160.5,38.5,160.5,38.5
					s-46.7,88-125.7,106.9c-56.7,13.5-114.4-12.1-142.7-27.7c-22.5,39.8-52.2,85.3-91.2,135.2c16.4-8.4,34.8-14.8,54.5-16.9
					c80.8-8.3,154,59.3,154,59.3s-57.8,81.1-138.6,89.5c-60.3,6.2-116.2-29.8-140.8-48.5c-40.5,44.2-87.8,90.5-143.5,138.4
					c-2.1,1.7-4.2,3.4-6.2,5.1c19.5-8.1,41.2-13.6,64-13.1c81.3,1.9,145.4,78.1,145.4,78.1s-67.5,73.3-148.8,71.4
					c-70.2-1.6-127.6-58.7-141.9-74.2c-64.1,44.3-129.5,79.2-193.1,106.7c22.8,0.9,47,5.6,69.1,17.2c72,37.7,95.5,134.6,95.5,134.6
					s-93,35.6-165-2.2c-51.8-27.2-78.4-84.7-89.3-115C1580.3,1244.3,1511.7,1205.6,1646.3,1175.1z"/>
			</g>
			<g>
				
					<linearGradient id="SVGID_00000142881854060118603610000016925915695415521939_" gradientUnits="userSpaceOnUse" x1="900.3314" y1="2334.6968" x2="900.3314" y2="582.2261" gradientTransform="matrix(1 0 0 -1 0 2500)">
					<stop  offset="0" style="stop-color:#911EFD"/>
					<stop  offset="0.1346" style="stop-color:#8F1EF9"/>
					<stop  offset="0.2618" style="stop-color:#881CEE"/>
					<stop  offset="0.386" style="stop-color:#7D1ADB"/>
					<stop  offset="0.5084" style="stop-color:#6E17C0"/>
					<stop  offset="0.6296" style="stop-color:#5A139D"/>
					<stop  offset="0.7498" style="stop-color:#420E73"/>
					<stop  offset="0.8692" style="stop-color:#250841"/>
					<stop  offset="0.9853" style="stop-color:#040108"/>
					<stop  offset="1" style="stop-color:#000000"/>
				</linearGradient>
				<path style="fill:url(#SVGID_00000142881854060118603610000016925915695415521939_);" d="M1679.8,925.9
					c-1.7,1.1-83.4,55.4-216,103.5c-5.9-33.5-22.3-92.8-67.1-128.4c-65.1-51.6-165.3-33.6-165.3-33.6s5.3,101.7,70.3,153.3
					c25.7,20.4,56.8,29.8,85.1,33.8c-57.7,16.9-122.1,31.2-191.7,39.7c0.4-33.2-4.4-97.1-43.6-141.4c-55-62.2-156.9-62-156.9-62
					S982,992,1037,1054.2c20.9,23.6,48.4,38.1,74.6,47.2c-62.1,2.9-127.5,0.7-195.1-8.9c-6.3-0.9-12.5-1.9-18.7-2.8
					c5.9-30.6,13.6-99.1-20.2-151.9c-44.7-70-145.3-85.6-145.3-85.6s-28.2,97.9,16.5,167.9c15.1,23.6,36.5,40.9,58.3,53.6
					c-79.5-16.3-147.8-36.4-205.8-57.7c11.3-30.1,29.6-94.3,6.3-150.8C576.2,788.3,480,755,480,755s-45.2,91.3-13.6,168.1
					c8,19.6,20.3,36.3,34,50.4C407,928.6,354.9,886,336.2,869c-9.2-28.2-32.8-84.6-81.8-111.9c-66.7-37.2-155-6-155-6
					s19.9,91.5,86.6,128.7c40.5,22.7,89.1,19.9,120.9,14.3c9.9,9.4,30.6,27.6,63.7,50.1c-24.5-3.2-51.3-2.6-77.1,6.4
					C215,978,176.7,1072.4,176.7,1072.4s88.8,49.9,167.2,22.5c56.2-19.7,91.7-73.6,107.4-102.6c41.4,21.8,92,44.5,153.1,65.9
					c-18.8,1.8-38.1,6.4-56.2,15.6c-74.2,37.5-99.8,136.1-99.8,136.1s94.5,37.8,168.7,0.4c55.2-28,83.5-89.8,94.3-119.5
					c59.2,15.6,125.5,29.3,199.9,39.8c2.7,0.4,5.4,0.6,8.1,1c-21.2,3.8-42.9,11-62.2,24.1c-68.8,46.5-81.9,147.4-81.9,147.4
					s98.5,25.7,167.4-20.7c59.5-40.2,77.3-121,81.1-142.2c79.6,2.7,155.1-3.4,225-14.9c-19.1,13.4-37.3,30.7-49.9,52.9
					c-41.1,72.2-7.8,168.5-7.8,168.5s99.7-20.8,140.7-93c29.5-52,20.6-116.2,13.3-148.2c213.8-52.8,354.2-146.3,356.4-147.8
					L1679.8,925.9z"/>
			</g>
			<g>
				
					<linearGradient id="SVGID_00000080166221638866673020000006298468461898789270_" gradientUnits="userSpaceOnUse" x1="603.9851" y1="1740.0281" x2="1946.5049" y2="1740.0281" gradientTransform="matrix(1 0 0 -1 0 2500)">
					<stop  offset="0" style="stop-color:#911EFD"/>
					<stop  offset="0.1346" style="stop-color:#8F1EF9"/>
					<stop  offset="0.2618" style="stop-color:#881CEE"/>
					<stop  offset="0.386" style="stop-color:#7D1ADB"/>
					<stop  offset="0.5084" style="stop-color:#6E17C0"/>
					<stop  offset="0.6296" style="stop-color:#5A139D"/>
					<stop  offset="0.7498" style="stop-color:#420E73"/>
					<stop  offset="0.8692" style="stop-color:#250841"/>
					<stop  offset="0.9853" style="stop-color:#040108"/>
					<stop  offset="1" style="stop-color:#000000"/>
				</linearGradient>
				<path style="fill:url(#SVGID_00000080166221638866673020000006298468461898789270_);" d="M1943.5,1145.8
					c-1.9,0.2-96.9,6.9-232-15.9c11.1-31.1,25.6-89.1,4.7-140.6c-30.3-74.7-123.5-107.5-123.5-107.5s-44.2,88.4-14,163.1
					c11.9,29.5,33.7,52.3,55.7,69.3c-56.8-13.3-118.1-32.1-180.9-58.2c16.2-27.8,42.7-84.1,30.8-140.2
					c-16.7-78.9-102.8-127.4-102.8-127.4s-59,79.3-42.3,158.1c6.3,29.9,22.6,55.4,40.4,75.6c-53.9-27.3-108-60.4-160.5-100.8
					c-4.9-3.8-9.6-7.5-14.4-11.3c19.6-23,58.8-77.3,55.6-137.9c-4.3-80.5-81.8-141.8-81.8-141.8s-70.6,69.2-66.3,149.7
					c1.4,27.1,11.3,52,23.6,73.2c-59.3-51.8-107.3-101.5-146.2-147.2c24-20,70.1-65.5,77.5-124.3c10.1-80-55.2-154.1-55.2-154.1
					S930.1,483,920.1,563c-2.6,20.4-0.2,40.3,4.6,58.8c-57.3-82.6-81-143.5-88.7-166.8c5.7-28.2,12.8-87.2-15.5-133.7
					c-38.5-63.3-128-79.2-128-79.2s-27,86.8,11.5,150.1c23.4,38.5,65.8,59.4,95.3,69.9c3.8,12.7,12.6,37.9,29.8,72.7
					c-19.2-14.4-42.1-26.7-68.2-31.4c-79.3-14.3-156.9,47-156.9,47s51.1,84.6,130.4,98.9c56.9,10.3,112.6-18.3,139.7-35.3
					c24.6,38.2,56.4,81.6,97.8,128.9c-16.7-7.5-35.3-12.8-54.9-13.7c-80.5-3.8-149.3,67.2-149.3,67.2s61.7,77.2,142.3,81
					c60,2.8,113.5-35.9,136.8-55.8c42.6,41.5,92,84.8,149.8,129.2c2.1,1.6,4.3,3.1,6.4,4.7c-19.7-6.9-41.5-11.2-64.1-9.4
					c-80.4,6.3-139.7,85.4-139.7,85.4s70.9,68.8,151.2,62.6c69.5-5.5,123.2-65.2,136.5-81.3c65.9,40.4,132.7,71.4,197.1,95.1
					c-22.5,2.2-46.2,8.1-67.5,20.8c-69.2,41.3-87.2,138.6-87.2,138.6s94.1,30.1,163.3-11.2c49.8-29.8,73-88.3,82.1-118.8
					c205.9,57.7,369.1,45.8,371.7,45.6L1943.5,1145.8z"/>
			</g>
			
				<linearGradient id="SVGID_00000077306854291382756830000018053542294613474718_" gradientUnits="userSpaceOnUse" x1="2043.3126" y1="2235.6406" x2="2043.3126" y2="144.1672" gradientTransform="matrix(1 0 0 -1 0 2500)">
				<stop  offset="0.1971" style="stop-color:#911EFD"/>
				<stop  offset="0.304" style="stop-color:#8F1EF9"/>
				<stop  offset="0.4049" style="stop-color:#881CEE"/>
				<stop  offset="0.5035" style="stop-color:#7D1ADB"/>
				<stop  offset="0.6007" style="stop-color:#6E17C0"/>
				<stop  offset="0.6969" style="stop-color:#5A139D"/>
				<stop  offset="0.7923" style="stop-color:#420E73"/>
				<stop  offset="0.8871" style="stop-color:#250841"/>
				<stop  offset="0.9793" style="stop-color:#040108"/>
				<stop  offset="0.991" style="stop-color:#000000"/>
			</linearGradient>
			<path style="fill:url(#SVGID_00000077306854291382756830000018053542294613474718_);" d="M2183.2,571
				c66.4-46.8,77.1-145.8,77.1-145.8s-97-23.1-163.3,23.7c-21.8,15.4-37.6,36.4-49,57.7c0.9-39.2-1.8-65.9-3.7-79.2
				c22.5-22.1,52.3-59.2,57.4-104.4c8.3-74.2-53.3-142.1-53.3-142.1s-75.1,52.5-83.4,126.8c-6.1,54.5,25.4,105.5,42.6,128.7
				c2.9,24.6,7.1,90.3-10.1,190.2c-3.4-19-9.7-38.2-20.7-55.7c-43.2-68.8-141.6-84.7-141.6-84.7s-28.2,95.5,15,164.3
				c31.8,50.6,93.3,72.6,123.7,80.7c-10.9,39.3-25.1,82.3-42.9,128.2l26.6,35c4.6-11.2,9.1-22.4,13.2-33.3
				c29.8,8.3,95.1,21,148.8-7.1c72-37.7,95.6-134.5,95.6-134.5s-93-35.7-165,2c-17.5,9.2-32.2,21.9-44.3,35.9
				c17.7-60.7,28.4-114,34.6-159.3C2072.5,602.1,2135.6,604.5,2183.2,571z"/>
			
				<linearGradient id="SVGID_00000008869301751836553240000014425113571546132410_" gradientUnits="userSpaceOnUse" x1="3071.3213" y1="1942.0835" x2="3071.8213" y2="1942.0835" gradientTransform="matrix(1 0 0 -1 0 2500)">
				<stop  offset="0" style="stop-color:#911EFD"/>
				<stop  offset="0.1346" style="stop-color:#8F1EF9"/>
				<stop  offset="0.2618" style="stop-color:#881CEE"/>
				<stop  offset="0.386" style="stop-color:#7D1ADB"/>
				<stop  offset="0.5084" style="stop-color:#6E17C0"/>
				<stop  offset="0.6296" style="stop-color:#5A139D"/>
				<stop  offset="0.7498" style="stop-color:#420E73"/>
				<stop  offset="0.8692" style="stop-color:#250841"/>
				<stop  offset="0.9853" style="stop-color:#040108"/>
				<stop  offset="1" style="stop-color:#000000"/>
			</linearGradient>
			<path style="fill:url(#SVGID_00000008869301751836553240000014425113571546132410_);" d="M1809.1,546.2
				c52.9-61.6,39.2-160.3,39.2-160.3s-99.6,1.2-152.6,62.8c-17.4,20.3-27.5,44.5-33.4,67.9c-8.7-38.2-17.8-63.5-22.9-75.9
				c16.4-27,36.3-70.2,30.1-115.2c-10-74-86.3-124.8-86.3-124.8s-60,69.3-49.9,143.3c7.4,54.3,50.4,96,72.8,114.4
				c8.8,23.2,29,85.8,36.6,186.9c-7.9-17.6-18.7-34.7-33.7-49c-58.7-56.2-158-47.6-158-47.6s-4,99.5,54.7,155.7
				c43.2,41.3,108.2,47.6,139.6,48c-0.9,40.8-4.2,85.9-10.2,134.8l34.3,27.5c1.7-12,3.3-23.9,4.6-35.5c30.9,0.8,97.3-2.9,142.5-43.2
				c60.6-54.2,59.9-153.8,59.9-153.8s-98.9-11.9-159.5,42.3c-14.8,13.2-25.9,29.1-34.2,45.6c2.4-63.2-0.3-117.5-5.4-163
				C1709.4,603.5,1771.1,590.4,1809.1,546.2z"/>
			
				<linearGradient id="SVGID_00000136408863888062366610000017370419469306097576_" gradientUnits="userSpaceOnUse" x1="1264.7843" y1="2319.075" x2="1264.7843" y2="566.5606" gradientTransform="matrix(1 0 0 -1 0 2500)">
				<stop  offset="0" style="stop-color:#911EFD"/>
				<stop  offset="0.1346" style="stop-color:#8F1EF9"/>
				<stop  offset="0.2618" style="stop-color:#881CEE"/>
				<stop  offset="0.386" style="stop-color:#7D1ADB"/>
				<stop  offset="0.5084" style="stop-color:#6E17C0"/>
				<stop  offset="0.6296" style="stop-color:#5A139D"/>
				<stop  offset="0.7498" style="stop-color:#420E73"/>
				<stop  offset="0.8692" style="stop-color:#250841"/>
				<stop  offset="0.9853" style="stop-color:#040108"/>
				<stop  offset="1" style="stop-color:#000000"/>
			</linearGradient>
			<path style="fill:url(#SVGID_00000136408863888062366610000017370419469306097576_);" d="M1119.3,517.6
				c-52.9-61.6-39.2-160.3-39.2-160.3s99.6,1.2,152.6,62.8c17.4,20.3,27.5,44.5,33.4,67.9c8.7-38.2,17.8-63.5,22.9-75.9
				c-16.4-27-36.2-70.2-30.1-115.2c10-74,86.3-124.8,86.3-124.8s60,69.3,49.9,143.3c-7.5,54.3-50.4,96.1-72.8,114.4
				c-8.8,23.2-29,85.8-36.6,186.9c7.9-17.6,18.8-34.7,33.7-49c58.7-56.1,157.9-47.6,157.9-47.6s4,99.5-54.7,155.7
				c-43.2,41.3-108.2,47.6-139.6,48c1,40.8,4.3,85.9,10.3,134.8l-34.3,27.5c-1.7-12-3.3-23.9-4.7-35.5
				c-30.9,0.8-97.3-2.9-142.5-43.2c-60.6-54.2-59.9-153.8-59.9-153.8s98.9-11.9,159.5,42.3c14.7,13.2,25.9,29.1,34.2,45.6
				c-2.4-63.2,0.3-117.5,5.4-162.9C1219.1,574.8,1157.4,561.7,1119.3,517.6z"/>
		</g>
		
			<linearGradient id="SVGID_00000083083522211764363280000009810244707167588246_" gradientUnits="userSpaceOnUse" x1="1332.666" y1="265.2389" x2="2713.1641" y2="265.2389" gradientTransform="matrix(1 0 0 -1 0 2500)">
			<stop  offset="0" style="stop-color:#FFFFFF"/>
			<stop  offset="3.170000e-02" style="stop-color:#E1D8FF"/>
			<stop  offset="7.780000e-02" style="stop-color:#BBA6FF"/>
			<stop  offset="0.1261" style="stop-color:#9979FF"/>
			<stop  offset="0.1759" style="stop-color:#7C54FF"/>
			<stop  offset="0.2275" style="stop-color:#6535FF"/>
			<stop  offset="0.2814" style="stop-color:#531EFF"/>
			<stop  offset="0.3386" style="stop-color:#460DFF"/>
			<stop  offset="0.4016" style="stop-color:#3E03FF"/>
			<stop  offset="0.4811" style="stop-color:#3C00FF"/>
			<stop  offset="0.6085" style="stop-color:#3E02FF"/>
			<stop  offset="0.6797" style="stop-color:#440AFF"/>
			<stop  offset="0.7369" style="stop-color:#4F18FF"/>
			<stop  offset="0.7868" style="stop-color:#5E2CFF"/>
			<stop  offset="0.8319" style="stop-color:#7145FF"/>
			<stop  offset="0.8735" style="stop-color:#8965FF"/>
			<stop  offset="0.9125" style="stop-color:#A68AFF"/>
			<stop  offset="0.9494" style="stop-color:#C7B5FF"/>
			<stop  offset="0.9834" style="stop-color:#EBE5FF"/>
			<stop  offset="1" style="stop-color:#FFFFFF"/>
		</linearGradient>
		<path style="fill:url(#SVGID_00000083083522211764363280000009810244707167588246_);" d="M2713.2,2234.8
			c0,17.9-309,32.4-690.2,32.4c-381.2,0-690.3-14.5-690.3-32.4c0-17.9,309.1-32.4,690.3-32.4
			C2404.1,2202.3,2713.2,2216.9,2713.2,2234.8z"/>
		
			<linearGradient id="SVGID_00000150781769324951087910000000770590808702438784_" gradientUnits="userSpaceOnUse" x1="2034.6492" y1="204.6239" x2="2382.6951" y2="204.6239" gradientTransform="matrix(1 0 0 -1 0 2500)">
			<stop  offset="0" style="stop-color:#FFFFFF"/>
			<stop  offset="2.910000e-02" style="stop-color:#E1D8FF"/>
			<stop  offset="7.140000e-02" style="stop-color:#BBA6FF"/>
			<stop  offset="0.1158" style="stop-color:#9979FF"/>
			<stop  offset="0.1615" style="stop-color:#7C54FF"/>
			<stop  offset="0.2089" style="stop-color:#6535FF"/>
			<stop  offset="0.2584" style="stop-color:#531EFF"/>
			<stop  offset="0.311" style="stop-color:#460DFF"/>
			<stop  offset="0.3687" style="stop-color:#3E03FF"/>
			<stop  offset="0.4418" style="stop-color:#3C00FF"/>
			<stop  offset="0.5789" style="stop-color:#3E02FF"/>
			<stop  offset="0.6554" style="stop-color:#440AFF"/>
			<stop  offset="0.717" style="stop-color:#4F18FF"/>
			<stop  offset="0.7707" style="stop-color:#5E2CFF"/>
			<stop  offset="0.8192" style="stop-color:#7145FF"/>
			<stop  offset="0.864" style="stop-color:#8965FF"/>
			<stop  offset="0.9059" style="stop-color:#A68AFF"/>
			<stop  offset="0.9456" style="stop-color:#C7B5FF"/>
			<stop  offset="0.9821" style="stop-color:#EBE5FF"/>
			<stop  offset="1" style="stop-color:#FFFFFF"/>
		</linearGradient>
		<path style="fill:url(#SVGID_00000150781769324951087910000000770590808702438784_);" d="M2382.7,2295.4
			c0,17.9-77.9,32.4-174,32.4c-96.2,0-174.1-14.5-174.1-32.4c0-17.9,77.9-32.4,174.1-32.4C2304.8,2263,2382.7,2277.5,2382.7,2295.4z
			"/>
		
			<linearGradient id="SVGID_00000034066094468506491270000012978504619572512702_" gradientUnits="userSpaceOnUse" x1="128.145" y1="260.015" x2="622.227" y2="260.015" gradientTransform="matrix(1 0 0 -1 0 2500)">
			<stop  offset="0" style="stop-color:#FFFFFF"/>
			<stop  offset="3.170000e-02" style="stop-color:#E1D8FF"/>
			<stop  offset="7.780000e-02" style="stop-color:#BBA6FF"/>
			<stop  offset="0.1261" style="stop-color:#9979FF"/>
			<stop  offset="0.1759" style="stop-color:#7C54FF"/>
			<stop  offset="0.2275" style="stop-color:#6535FF"/>
			<stop  offset="0.2814" style="stop-color:#531EFF"/>
			<stop  offset="0.3386" style="stop-color:#460DFF"/>
			<stop  offset="0.4016" style="stop-color:#3E03FF"/>
			<stop  offset="0.4811" style="stop-color:#3C00FF"/>
			<stop  offset="0.6085" style="stop-color:#3E02FF"/>
			<stop  offset="0.6797" style="stop-color:#440AFF"/>
			<stop  offset="0.7369" style="stop-color:#4F18FF"/>
			<stop  offset="0.7868" style="stop-color:#5E2CFF"/>
			<stop  offset="0.8319" style="stop-color:#7145FF"/>
			<stop  offset="0.8735" style="stop-color:#8965FF"/>
			<stop  offset="0.9125" style="stop-color:#A68AFF"/>
			<stop  offset="0.9494" style="stop-color:#C7B5FF"/>
			<stop  offset="0.9834" style="stop-color:#EBE5FF"/>
			<stop  offset="1" style="stop-color:#FFFFFF"/>
		</linearGradient>
		<path style="fill:url(#SVGID_00000034066094468506491270000012978504619572512702_);" d="M622.2,2240c0,17.9-110.6,32.4-247,32.4
			c-136.4,0-247.1-14.5-247.1-32.4c0-17.9,110.6-32.4,247.1-32.4C511.6,2207.6,622.2,2222.1,622.2,2240z"/>
		
			<linearGradient id="SVGID_00000088828620138921616100000004470169933135739026_" gradientUnits="userSpaceOnUse" x1="809.941" y1="260.015" x2="1404.375" y2="260.015" gradientTransform="matrix(1 0 0 -1 0 2500)">
			<stop  offset="0" style="stop-color:#FFFFFF"/>
			<stop  offset="3.170000e-02" style="stop-color:#E1D8FF"/>
			<stop  offset="7.780000e-02" style="stop-color:#BBA6FF"/>
			<stop  offset="0.1261" style="stop-color:#9979FF"/>
			<stop  offset="0.1759" style="stop-color:#7C54FF"/>
			<stop  offset="0.2275" style="stop-color:#6535FF"/>
			<stop  offset="0.2814" style="stop-color:#531EFF"/>
			<stop  offset="0.3386" style="stop-color:#460DFF"/>
			<stop  offset="0.4016" style="stop-color:#3E03FF"/>
			<stop  offset="0.4811" style="stop-color:#3C00FF"/>
			<stop  offset="0.6085" style="stop-color:#3E02FF"/>
			<stop  offset="0.6797" style="stop-color:#440AFF"/>
			<stop  offset="0.7369" style="stop-color:#4F18FF"/>
			<stop  offset="0.7868" style="stop-color:#5E2CFF"/>
			<stop  offset="0.8319" style="stop-color:#7145FF"/>
			<stop  offset="0.8735" style="stop-color:#8965FF"/>
			<stop  offset="0.9125" style="stop-color:#A68AFF"/>
			<stop  offset="0.9494" style="stop-color:#C7B5FF"/>
			<stop  offset="0.9834" style="stop-color:#EBE5FF"/>
			<stop  offset="1" style="stop-color:#FFFFFF"/>
		</linearGradient>
		<path style="fill:url(#SVGID_00000088828620138921616100000004470169933135739026_);" d="M1404.4,2240
			c0,17.9-133.1,32.4-297.2,32.4c-164.2,0-297.2-14.5-297.2-32.4c0-17.9,133.1-32.4,297.2-32.4
			C1271.3,2207.6,1404.4,2222.1,1404.4,2240z"/>
		<g>
			<g>
				<g>
					<path class="st15" d="M1887.1,1422.6c-16.1,0-31.8,18.7-35,41.5l-100.9,739.3c-3.1,22.9,0.6,41.6,8.3,41.6s17.9-18.2,22.6-40.5
						l157.3-741.4c4.7-22.3-4.6-40.5-20.7-40.5L1887.1,1422.6L1887.1,1422.6z"/>
					<path class="st15" d="M2191.7,1422.6c16.1,0,31.8,18.7,35,41.5l100.9,739.3c3.1,22.9-0.6,41.6-8.3,41.6
						c-7.7,0-17.9-18.2-22.6-40.5l-157.3-741.4c-4.7-22.3,4.6-40.5,20.7-40.5L2191.7,1422.6L2191.7,1422.6z"/>
				</g>
				<g>
					
						<linearGradient id="SVGID_00000044860182818134353830000001023599029408530093_" gradientUnits="userSpaceOnUse" x1="1845.4467" y1="1095.8021" x2="1845.4467" y2="-81.7657" gradientTransform="matrix(1 0 0 -1 0 2500)">
						<stop  offset="0" style="stop-color:#01433C"/>
						<stop  offset="1" style="stop-color:#000000"/>
					</linearGradient>
					<path style="fill:url(#SVGID_00000044860182818134353830000001023599029408530093_);" d="M1887.1,1422.6
						c-16.1,0-31.8,18.7-35,41.5l-100.9,739.3c-3.1,22.9,0.6,41.6,8.3,41.6s17.9-18.2,22.6-40.5l157.3-741.4
						c4.7-22.3-4.6-40.5-20.7-40.5L1887.1,1422.6L1887.1,1422.6z"/>
					
						<linearGradient id="SVGID_00000026129790323207060570000012018402678446288785_" gradientUnits="userSpaceOnUse" x1="2233.3682" y1="1095.8021" x2="2233.3682" y2="-29.903" gradientTransform="matrix(1 0 0 -1 0 2500)">
						<stop  offset="0" style="stop-color:#01433C"/>
						<stop  offset="0.9832" style="stop-color:#000000"/>
					</linearGradient>
					<path style="fill:url(#SVGID_00000026129790323207060570000012018402678446288785_);" d="M2191.7,1422.6
						c16.1,0,31.8,18.7,35,41.5l100.9,739.3c3.1,22.9-0.6,41.6-8.3,41.6c-7.7,0-17.9-18.2-22.6-40.5l-157.3-741.4
						c-4.7-22.3,4.6-40.5,20.7-40.5L2191.7,1422.6L2191.7,1422.6z"/>
				</g>
			</g>
			<path class="st15" d="M2296.9,1448.3c0,12.7-10.4,23.1-23.1,23.1H414.2c-12.7,0-23.1-10.4-23.1-23.1v-7.7
				c0-12.7,10.4-23.1,23.1-23.1h1859.6c12.7,0,23.1,10.4,23.1,23.1V1448.3z"/>
			
				<linearGradient id="SVGID_00000118398708933581870460000016002444745926780056_" gradientUnits="userSpaceOnUse" x1="228.5259" y1="1055.5276" x2="2269.8691" y2="1055.5276" gradientTransform="matrix(1 0 0 -1 0 2500)">
				<stop  offset="0" style="stop-color:#01433C"/>
				<stop  offset="0.2842" style="stop-color:#01433C"/>
				<stop  offset="0.4845" style="stop-color:#01433C"/>
				<stop  offset="0.6591" style="stop-color:#01433C"/>
				<stop  offset="0.8189" style="stop-color:#000000"/>
				<stop  offset="0.9673" style="stop-color:#F8F8F8"/>
				<stop  offset="1" style="stop-color:#000000"/>
			</linearGradient>
			<path style="fill:url(#SVGID_00000118398708933581870460000016002444745926780056_);" d="M2296.9,1448.3
				c0,12.7-10.4,23.1-23.1,23.1H414.2c-12.7,0-23.1-10.4-23.1-23.1v-7.7c0-12.7,10.4-23.1,23.1-23.1h1859.6
				c12.7,0,23.1,10.4,23.1,23.1V1448.3z"/>
		</g>
		<g>
			<path class="st19" d="M2020.1,1242.8c0,14.9-12.3,27.2-27.2,27.2h-843.2c-15,0-27.2-12.3-27.2-27.2V663.6
				c0-15,12.2-27.2,27.2-27.2h843.2c14.9,0,27.2,12.2,27.2,27.2V1242.8z"/>
			<path class="st20" d="M1122.5,1134.2v108.6c0,14.9,12.2,27.2,27.2,27.2h843.2c14.9,0,27.2-12.3,27.2-27.2v-108.6H1122.5z"/>
			<path class="st21" d="M1168.8,1242.8V663.6c0-15,12.3-27.2,27.2-27.2h-46.3c-15,0-27.2,12.2-27.2,27.2v579.1
				c0,15,12.2,27.2,27.2,27.2h46.3C1181.1,1270,1168.8,1257.7,1168.8,1242.8z"/>
			
				<linearGradient id="SVGID_00000166656412455494957060000013089542501389061297_" gradientUnits="userSpaceOnUse" x1="1159.2485" y1="726.0336" x2="1159.2485" y2="1590.1765" gradientTransform="matrix(1 0 0 -1 0 2500)">
				<stop  offset="0" style="stop-color:#A0A0A0"/>
				<stop  offset="0.2727" style="stop-color:#A3A3A3"/>
				<stop  offset="0.465" style="stop-color:#ACACAC"/>
				<stop  offset="0.6325" style="stop-color:#BCBCBC"/>
				<stop  offset="0.7858" style="stop-color:#D2D2D2"/>
				<stop  offset="0.9282" style="stop-color:#EEEEEE"/>
				<stop  offset="1" style="stop-color:#FFFFFF"/>
			</linearGradient>
			<path style="fill:url(#SVGID_00000166656412455494957060000013089542501389061297_);" d="M1168.8,1242.8V663.6
				c0-15,12.3-27.2,27.2-27.2h-46.3c-15,0-27.2,12.2-27.2,27.2v579.1c0,15,12.2,27.2,27.2,27.2h46.3
				C1181.1,1270,1168.8,1257.7,1168.8,1242.8z"/>
			<g>
				
					<linearGradient id="SVGID_00000134967808247971609540000001340405682079441594_" gradientUnits="userSpaceOnUse" x1="1594.4429" y1="721.1584" x2="1594.4429" y2="1711.7706" gradientTransform="matrix(1 0 0 -1 0 2500)">
					<stop  offset="0" style="stop-color:#E0E0E0"/>
					<stop  offset="0.413" style="stop-color:#E3E3E3"/>
					<stop  offset="0.7041" style="stop-color:#ECECEC"/>
					<stop  offset="0.9569" style="stop-color:#FCFCFC"/>
					<stop  offset="1" style="stop-color:#FFFFFF"/>
				</linearGradient>
				<path style="fill:url(#SVGID_00000134967808247971609540000001340405682079441594_);" d="M1992.9,636.4H1196
					c-14.9,0-27.2,12.2-27.2,27.2v579.2c0,14.9,12.3,27.2,27.2,27.2h796.8c14.9,0,27.2-12.3,27.2-27.2V663.6
					C2020.1,648.7,2007.8,636.4,1992.9,636.4z"/>
			</g>
			<g>
				<path class="st24" d="M1683.5,1268.9h-194.7c-18.8,21.8-29.8,47-29.8,73.8c0,26.8,10.9,51.9,29.8,73.8h194.7
					c-18.9-21.9-29.8-47-29.8-73.8C1653.7,1315.9,1664.6,1290.8,1683.5,1268.9z"/>
				<path class="st20" d="M1509,1268.9h-20.2c-18.8,21.8-29.8,47-29.8,73.8c0,26.8,10.9,51.9,29.8,73.8h20.2
					c-19.3-21.9-30.4-47-30.4-73.8C1478.6,1315.9,1489.7,1290.8,1509,1268.9z"/>
				<g>
					<path class="st25" d="M1702.1,1407c0,5.3-4.3,9.5-9.5,9.5h-197.1c-5.2,0-9.5-4.3-9.5-9.5v-3.1c0-5.2,4.3-9.5,9.5-9.5h197.1
						c5.2,0,9.5,4.3,9.5,9.5V1407z"/>
					<path class="st20" d="M1547.1,1407c0,5.3-4.3,9.5-9.5,9.5h-42c-5.2,0-9.5-4.3-9.5-9.5v-3.1c0-5.2,4.3-9.5,9.5-9.5h42
						c5.2,0,9.5,4.3,9.5,9.5V1407z"/>
				</g>
			</g>
			
				<linearGradient id="SVGID_00000033352538423916838720000003560527348613091494_" gradientUnits="userSpaceOnUse" x1="1580.5809" y1="1317.6976" x2="1580.5809" y2="1146.8702" gradientTransform="matrix(1 0 0 -1 0 2500)">
				<stop  offset="0" style="stop-color:#A0A0A0"/>
				<stop  offset="0.2727" style="stop-color:#A3A3A3"/>
				<stop  offset="0.465" style="stop-color:#ACACAC"/>
				<stop  offset="0.6325" style="stop-color:#BCBCBC"/>
				<stop  offset="0.7858" style="stop-color:#D2D2D2"/>
				<stop  offset="0.9282" style="stop-color:#EEEEEE"/>
				<stop  offset="1" style="stop-color:#FFFFFF"/>
			</linearGradient>
			<path style="fill:url(#SVGID_00000033352538423916838720000003560527348613091494_);" d="M1692.6,1394.3h-24.8
				c-9-16.1-14.1-33.5-14.1-51.6c0-26.8,10.9-52,29.8-73.8H1509h-20.2c-18.8,21.8-29.8,47-29.8,73.8c0,26.8,10.9,51.9,29.8,73.8h6.8
				h13.4h28.6h145.9h9.1c5.2,0,9.5-4.3,9.5-9.5v-3.1C1702.1,1398.7,1697.9,1394.3,1692.6,1394.3z"/>
			<g>
				<g>
					
						<linearGradient id="SVGID_00000075883849794194769550000006541494446006940811_" gradientUnits="userSpaceOnUse" x1="1251.533" y1="2160.2109" x2="1251.533" y2="1630.4817" gradientTransform="matrix(1 0 0 -1 0 2500)">
						<stop  offset="0" style="stop-color:#3D3D3D"/>
						<stop  offset="0.2093" style="stop-color:#404040"/>
						<stop  offset="0.3569" style="stop-color:#494949"/>
						<stop  offset="0.4856" style="stop-color:#595959"/>
						<stop  offset="0.6033" style="stop-color:#6F6F6F"/>
						<stop  offset="0.7138" style="stop-color:#8B8B8B"/>
						<stop  offset="0.8187" style="stop-color:#AEAEAE"/>
						<stop  offset="0.9174" style="stop-color:#D7D7D7"/>
						<stop  offset="1" style="stop-color:#FFFFFF"/>
					</linearGradient>
					
						<rect x="931.8" y="445.5" style="fill:url(#SVGID_00000075883849794194769550000006541494446006940811_);" width="639.4" height="432.8"/>
					<rect x="931.8" y="445.5" class="st28" width="639.4" height="45.6"/>
					<g>
						<path class="st29" d="M1135.2,512.8H970.3c-4.5,0-8,3.6-8,8.1c0,4.4,3.6,8.1,8,8.1h164.9c4.4,0,8-3.6,8-8.1
							C1143.2,516.4,1139.6,512.8,1135.2,512.8z"/>
						<path class="st30" d="M1344.5,512.8h-183c-4.4,0-8,3.6-8,8.1c0,4.4,3.6,8.1,8,8.1h183c4.5,0,8.1-3.6,8.1-8.1
							C1352.5,516.4,1348.9,512.8,1344.5,512.8z"/>
						<path class="st30" d="M1147.4,541.4h-139.8c-4.5,0-8.1,3.6-8.1,8.1c0,4.4,3.6,8,8.1,8h139.8c4.4,0,8-3.6,8-8
							C1155.4,545,1151.8,541.4,1147.4,541.4z"/>
						<path class="st30" d="M1276.9,541.4h-103.3c-4.5,0-8.1,3.6-8.1,8.1c0,4.4,3.6,8,8.1,8h103.3c4.5,0,8.1-3.6,8.1-8
							C1285,545,1281.4,541.4,1276.9,541.4z"/>
						<path class="st30" d="M1179.1,567.3h-155.5c-4.5,0-8.1,3.6-8.1,8c0,4.4,3.6,8.1,8.1,8.1h155.5c4.5,0,8.1-3.6,8.1-8.1
							C1187.2,570.9,1183.6,567.3,1179.1,567.3z"/>
						<path class="st29" d="M1302,567.3h-96.6c-4.5,0-8,3.6-8,8c0,4.4,3.6,8.1,8,8.1h96.6c4.5,0,8.1-3.6,8.1-8.1
							C1310,570.9,1306.4,567.3,1302,567.3z"/>
						<path class="st30" d="M1080.8,596.8H970.3c-4.5,0-8,3.6-8,8.1c0,4.4,3.6,8,8,8h110.5c4.4,0,8.1-3.6,8.1-8
							C1088.8,600.4,1085.2,596.8,1080.8,596.8z"/>
						<path class="st30" d="M1147.9,596.8H1107c-4.5,0-8,3.6-8,8.1c0,4.4,3.6,8,8,8h40.8c4.5,0,8.1-3.6,8.1-8
							C1155.9,600.4,1152.3,596.8,1147.9,596.8z"/>
						<path class="st30" d="M1155.5,628H1045c-4.5,0-8.1,3.6-8.1,8.1c0,4.4,3.6,8,8.1,8h110.5c4.4,0,8-3.6,8-8
							C1163.6,631.7,1160,628,1155.5,628z"/>
						<path class="st30" d="M1321.5,628h-139.7c-4.4,0-8,3.6-8,8.1c0,4.4,3.6,8,8,8h139.7c4.5,0,8.1-3.6,8.1-8
							C1329.6,631.7,1325.9,628,1321.5,628z"/>
						<path class="st29" d="M1125.4,657.4h-101.7c-4.4,0-8,3.6-8,8.1c0,4.4,3.6,8,8,8h101.7c4.5,0,8-3.6,8-8
							C1133.5,661,1129.9,657.4,1125.4,657.4z"/>
						<path class="st30" d="M1192.5,657.4h-40.9c-4.4,0-8,3.6-8,8.1c0,4.4,3.6,8,8,8h40.9c4.4,0,8.1-3.6,8.1-8
							C1200.6,661,1197,657.4,1192.5,657.4z"/>
						<path class="st30" d="M1219.8,686H986.3c-4.5,0-8.1,3.6-8.1,8.1c0,4.4,3.6,8,8.1,8h233.5c4.4,0,8-3.6,8-8
							C1227.8,689.6,1224.2,686,1219.8,686z"/>
						<path class="st30" d="M1312.5,686H1246c-4.4,0-8,3.6-8,8.1c0,4.4,3.6,8,8,8h66.5c4.5,0,8-3.6,8-8
							C1320.6,689.6,1317,686,1312.5,686z"/>
						<path class="st29" d="M1124.6,711.9H983.9c-4.5,0-8.1,3.6-8.1,8.1c0,4.4,3.6,8.1,8.1,8.1h140.7c4.4,0,8-3.6,8-8.1
							C1132.6,715.6,1129,711.9,1124.6,711.9z"/>
						<path class="st30" d="M1261.3,711.9h-110.4c-4.5,0-8.1,3.6-8.1,8.1c0,4.4,3.6,8.1,8.1,8.1h110.4c4.5,0,8.1-3.6,8.1-8.1
							C1269.3,715.6,1265.8,711.9,1261.3,711.9z"/>
						<path class="st30" d="M1241.8,741.5H979c-4.5,0-8.1,3.6-8.1,8.1c0,4.4,3.6,8,8.1,8h262.8c4.4,0,8-3.6,8-8
							C1249.8,745.1,1246.2,741.5,1241.8,741.5z"/>
						<path class="st30" d="M1308.8,741.5H1268c-4.4,0-8,3.6-8,8.1c0,4.4,3.6,8,8,8h40.8c4.5,0,8.1-3.6,8.1-8
							C1316.9,745.1,1313.3,741.5,1308.8,741.5z"/>
						<path class="st30" d="M1146.6,772.7H970.3c-4.5,0-8,3.6-8,8.1c0,4.4,3.6,8.1,8,8.1h176.3c4.4,0,8.1-3.6,8.1-8.1
							C1154.6,776.3,1151,772.7,1146.6,772.7z"/>
						<path class="st29" d="M1213.7,772.7h-40.8c-4.5,0-8,3.6-8,8.1c0,4.4,3.6,8.1,8,8.1h40.8c4.5,0,8.1-3.6,8.1-8.1
							C1221.7,776.3,1218.1,772.7,1213.7,772.7z"/>
						<path class="st30" d="M1195.4,803.7h-187.7c-4.5,0-8.1,3.6-8.1,8.1c0,4.4,3.6,8,8.1,8h187.7c4.5,0,8.1-3.6,8.1-8
							C1203.4,807.3,1199.8,803.7,1195.4,803.7z"/>
						<path class="st30" d="M1296.6,803.7h-75c-4.4,0-8,3.6-8,8.1c0,4.4,3.6,8,8,8h75c4.5,0,8.1-3.6,8.1-8
							C1304.7,807.3,1301.1,803.7,1296.6,803.7z"/>
						<path class="st30" d="M1168.5,834.9H970.3c-4.5,0-8,3.6-8,8.1c0,4.4,3.6,8.1,8,8.1h198.3c4.4,0,8.1-3.6,8.1-8.1
							C1176.6,838.6,1173,834.9,1168.5,834.9z"/>
						<path class="st29" d="M1280.8,834.9h-86c-4.5,0-8,3.6-8,8.1c0,4.4,3.6,8.1,8,8.1h86c4.4,0,8-3.6,8-8.1
							C1288.8,838.6,1285.2,834.9,1280.8,834.9z"/>
					</g>
					<path class="st31" d="M1552.1,468.2c0-6.4-5.2-11.6-11.6-11.6c-6.4,0-11.6,5.2-11.6,11.6c0,6.4,5.2,11.6,11.6,11.6
						C1546.9,479.8,1552.1,474.6,1552.1,468.2z"/>
					<path class="st32" d="M1519.6,468.2c0-6.4-5.2-11.6-11.6-11.6c-6.4,0-11.6,5.2-11.6,11.6c0,6.4,5.2,11.6,11.6,11.6
						C1514.4,479.8,1519.6,474.6,1519.6,468.2z"/>
					<path class="st33" d="M1484.6,468.2c0-6.4-5.2-11.6-11.6-11.6c-6.4,0-11.6,5.2-11.6,11.6c0,6.4,5.2,11.6,11.6,11.6
						C1479.4,479.8,1484.6,474.6,1484.6,468.2z"/>
				</g>
				<path class="st29" d="M1542.7,643.1c0,10.7-8.8,19.5-19.5,19.5h-131.8c-10.7,0-19.5-8.8-19.5-19.5V532.5
					c0-10.7,8.8-19.5,19.5-19.5h131.8c10.7,0,19.5,8.8,19.5,19.5V643.1z"/>
				<g>
					<path class="st34" d="M1446,750.7c0,5.2-4.2,9.5-9.5,9.5h-55.2c-5.2,0-9.5-4.3-9.5-9.5V697c0-5.2,4.3-9.5,9.5-9.5h55.2
						c5.2,0,9.5,4.3,9.5,9.5V750.7z"/>
					<path class="st35" d="M1529.2,687.5h-65.1c-5.3,0-9.7,4.4-9.7,9.7c0,5.3,4.3,9.7,9.7,9.7h65.1c5.4,0,9.7-4.3,9.7-9.7
						C1538.9,691.8,1534.6,687.5,1529.2,687.5z"/>
					<path class="st30" d="M1520.9,713.9h-62.8c-2,0-3.7,1.7-3.7,3.7c0,2,1.7,3.7,3.7,3.7h62.8c2.1,0,3.7-1.7,3.7-3.7
						C1524.6,715.6,1522.9,713.9,1520.9,713.9z"/>
					<path class="st30" d="M1510.9,726.9h-52.8c-2,0-3.7,1.7-3.7,3.7s1.7,3.7,3.7,3.7h52.8c2.1,0,3.7-1.7,3.7-3.7
						S1513,726.9,1510.9,726.9z"/>
					<path class="st30" d="M1521.2,739.8h-63.1c-2,0-3.7,1.7-3.7,3.7c0,2,1.7,3.7,3.7,3.7h63.1c2.1,0,3.7-1.7,3.7-3.7
						C1524.9,741.5,1523.3,739.8,1521.2,739.8z"/>
					<path class="st30" d="M1541.2,752.8h-83.1c-2,0-3.7,1.7-3.7,3.7c0,2,1.7,3.7,3.7,3.7h83.1c2.1,0,3.7-1.7,3.7-3.7
						C1545,754.5,1543.3,752.8,1541.2,752.8z"/>
				</g>
				<g>
					<path class="st34" d="M1446,839.4c0,5.2-4.2,9.5-9.5,9.5h-55.2c-5.2,0-9.5-4.3-9.5-9.5v-53.7c0-5.2,4.3-9.5,9.5-9.5h55.2
						c5.2,0,9.5,4.3,9.5,9.5V839.4z"/>
					<path class="st35" d="M1529.2,776.1h-65.1c-5.3,0-9.7,4.4-9.7,9.7c0,5.3,4.3,9.7,9.7,9.7h65.1c5.4,0,9.7-4.3,9.7-9.7
						C1538.9,780.5,1534.6,776.1,1529.2,776.1z"/>
					<path class="st30" d="M1520.9,802.6h-62.8c-2,0-3.7,1.7-3.7,3.7c0,2,1.7,3.7,3.7,3.7h62.8c2.1,0,3.7-1.7,3.7-3.7
						C1524.6,804.2,1522.9,802.6,1520.9,802.6z"/>
					<path class="st30" d="M1510.9,815.6h-52.8c-2,0-3.7,1.6-3.7,3.7c0,2,1.7,3.7,3.7,3.7h52.8c2.1,0,3.7-1.7,3.7-3.7
						C1514.6,817.2,1513,815.6,1510.9,815.6z"/>
					<path class="st30" d="M1521.2,828.5h-63.1c-2,0-3.7,1.7-3.7,3.7c0,2,1.7,3.7,3.7,3.7h63.1c2.1,0,3.7-1.7,3.7-3.7
						C1524.9,830.2,1523.3,828.5,1521.2,828.5z"/>
					<path class="st30" d="M1541.2,841.5h-83.1c-2,0-3.7,1.7-3.7,3.7c0,2,1.7,3.7,3.7,3.7h83.1c2.1,0,3.7-1.7,3.7-3.7
						C1545,843.1,1543.3,841.5,1541.2,841.5z"/>
				</g>
				<path class="st30" d="M1497.2,633.7h-79.8c-3.8,0-6.9,3.1-6.9,7c0,3.8,3.1,6.9,6.9,6.9h79.8c3.9,0,7-3.1,7-6.9
					C1504.2,636.8,1501.1,633.7,1497.2,633.7z"/>
			</g>
			<g>
				
					<linearGradient id="SVGID_00000111175237652997460300000017679917142513126841_" gradientUnits="userSpaceOnUse" x1="1853.5015" y1="2097.2358" x2="1853.5015" y2="1708.8452" gradientTransform="matrix(1 0 0 -1 0 2500)">
					<stop  offset="0" style="stop-color:#AFAFAF"/>
					<stop  offset="0.2906" style="stop-color:#B2B2B2"/>
					<stop  offset="0.4955" style="stop-color:#BBBBBB"/>
					<stop  offset="0.674" style="stop-color:#CBCBCB"/>
					<stop  offset="0.837" style="stop-color:#E0E0E0"/>
					<stop  offset="0.9888" style="stop-color:#FDFDFD"/>
					<stop  offset="1" style="stop-color:#FFFFFF"/>
				</linearGradient>
				
					<rect x="1607.2" y="456.5" style="fill:url(#SVGID_00000111175237652997460300000017679917142513126841_);" width="492.6" height="389.7"/>
				<rect x="1607.5" y="456.5" class="st19" width="491.9" height="57.3"/>
				<path class="st30" d="M1955.1,465.5h-245.4c-10.9,0-19.7,8.9-19.7,19.7c0,10.9,8.8,19.7,19.7,19.7h245.4
					c11,0,19.7-8.8,19.7-19.7C1974.8,474.3,1966.1,465.5,1955.1,465.5z"/>
				<path class="st37" d="M1665.4,465.5h-24.1c-10.8,0-19.7,8.9-19.7,19.7c0,10.9,8.8,19.7,19.7,19.7h24.1
					c10.9,0,19.7-8.8,19.7-19.7C1685.1,474.3,1676.3,465.5,1665.4,465.5z"/>
				<path class="st29" d="M2084,485.2c0-7-5.7-12.6-12.7-12.6c-7,0-12.7,5.6-12.7,12.6c0,7,5.7,12.7,12.7,12.7
					C2078.3,497.8,2084,492.2,2084,485.2z"/>
				<path class="st30" d="M2049.1,485.2c0-7-5.7-12.6-12.7-12.6c-7,0-12.6,5.6-12.6,12.6c0,7,5.6,12.7,12.6,12.7
					C2043.4,497.8,2049.1,492.2,2049.1,485.2z"/>
				<path class="st37" d="M2014.2,485.2c0-7-5.7-12.6-12.7-12.6c-7,0-12.7,5.6-12.7,12.6c0,7,5.7,12.7,12.7,12.7
					C2008.5,497.8,2014.2,492.2,2014.2,485.2z"/>
				<g>
					<path class="st19" d="M1976.2,674.4h-245.4c-10.8,0-19.7,8.9-19.7,19.7c0,10.8,8.8,19.7,19.7,19.7h245.4
						c10.9,0,19.7-8.8,19.7-19.7C1995.9,683.3,1987.1,674.4,1976.2,674.4z"/>
					<g>
						<path class="st30" d="M1852.1,725h-79.8c-7.4,0-13.4,6-13.4,13.4c0,7.4,6,13.4,13.4,13.4h79.8c7.5,0,13.5-6,13.5-13.4
							C1865.6,731.1,1859.6,725,1852.1,725z"/>
						<path class="st38" d="M1934.7,725h-47.1c-7.4,0-13.4,6-13.4,13.4c0,7.4,6,13.4,13.4,13.4h47.1c7.5,0,13.4-6,13.4-13.4
							C1948.1,731.1,1942.2,725,1934.7,725z"/>
					</g>
					<g>
						<path class="st29" d="M1849.3,620.7c0-7.9-6.4-14.3-14.4-14.3s-14.3,6.4-14.3,14.3c0,7.9,6.4,14.3,14.3,14.3
							S1849.3,628.6,1849.3,620.7z"/>
						<path class="st30" d="M1809.8,620.7c0-7.9-6.5-14.3-14.4-14.3c-7.9,0-14.3,6.4-14.3,14.3c0,7.9,6.4,14.3,14.3,14.3
							C1803.3,635,1809.8,628.6,1809.8,620.7z"/>
						<path class="st37" d="M1770.3,620.7c0-7.9-6.4-14.3-14.3-14.3s-14.3,6.4-14.3,14.3c0,7.9,6.4,14.3,14.3,14.3
							S1770.3,628.6,1770.3,620.7z"/>
						<path class="st29" d="M1965.4,620.7c0-7.9-6.4-14.3-14.4-14.3c-7.9,0-14.3,6.4-14.3,14.3c0,7.9,6.4,14.3,14.3,14.3
							C1958.9,635,1965.4,628.6,1965.4,620.7z"/>
						<path class="st30" d="M1925.9,620.7c0-7.9-6.5-14.3-14.4-14.3c-7.9,0-14.3,6.4-14.3,14.3c0,7.9,6.4,14.3,14.3,14.3
							C1919.4,635,1925.9,628.6,1925.9,620.7z"/>
						<path class="st37" d="M1886.4,620.7c0-7.9-6.5-14.3-14.4-14.3c-7.9,0-14.3,6.4-14.3,14.3c0,7.9,6.4,14.3,14.3,14.3
							C1879.9,635,1886.4,628.6,1886.4,620.7z"/>
					</g>
				</g>
			</g>
			<g>
				
					<linearGradient id="SVGID_00000053518385804130946800000008525294031640159665_" gradientUnits="userSpaceOnUse" x1="1881.4695" y1="1709.782" x2="1881.4695" y2="1204.9037" gradientTransform="matrix(1 0 0 -1 0 2500)">
					<stop  offset="0" style="stop-color:#2584FF"/>
					<stop  offset="8.660000e-02" style="stop-color:#2986FF"/>
					<stop  offset="0.1805" style="stop-color:#368EFF"/>
					<stop  offset="0.278" style="stop-color:#4C9AFF"/>
					<stop  offset="0.3779" style="stop-color:#6BABFF"/>
					<stop  offset="0.4798" style="stop-color:#92C1FF"/>
					<stop  offset="0.5832" style="stop-color:#C2DCFF"/>
					<stop  offset="0.686" style="stop-color:#F9FCFF"/>
					<stop  offset="0.6956" style="stop-color:#FFFFFF"/>
				</linearGradient>
				
					<rect x="1626.6" y="876.8" style="fill:url(#SVGID_00000053518385804130946800000008525294031640159665_);" width="509.7" height="288"/>
				<g>
					<path class="st30" d="M2116.3,1045.4c0,12.3-10.1,22.5-22.5,22.5h-151.9c-12.4,0-22.5-10.1-22.5-22.5V917.9
						c0-12.4,10.1-22.5,22.5-22.5h151.9c12.4,0,22.5,10.1,22.5,22.5V1045.4z"/>
					<g>
						<path class="st35" d="M2064.6,1077.2h-132.8c-5.2,0-9.4,4.3-9.4,9.5s4.2,9.4,9.4,9.4h132.8c5.3,0,9.5-4.2,9.5-9.4
							S2069.9,1077.2,2064.6,1077.2z"/>
						<path class="st30" d="M2056.5,1103.1H1926c-2,0-3.6,1.6-3.6,3.6c0,2,1.6,3.6,3.6,3.6h130.4c2,0,3.6-1.6,3.6-3.6
							C2060.1,1104.7,2058.5,1103.1,2056.5,1103.1z"/>
						<path class="st30" d="M2046.7,1115.8H1926c-2,0-3.6,1.6-3.6,3.6c0,2,1.6,3.6,3.6,3.6h120.7c2,0,3.6-1.6,3.6-3.6
							C2050.4,1117.4,2048.8,1115.8,2046.7,1115.8z"/>
						<path class="st30" d="M2056.8,1128.5H1926c-2,0-3.6,1.6-3.6,3.6s1.6,3.6,3.6,3.6h130.8c2,0,3.6-1.6,3.6-3.6
							S2058.8,1128.5,2056.8,1128.5z"/>
						<path class="st30" d="M2076.4,1141.1H1926c-2,0-3.6,1.6-3.6,3.6s1.6,3.6,3.6,3.6h150.4c2,0,3.6-1.7,3.6-3.6
							S2078.4,1141.1,2076.4,1141.1z"/>
					</g>
					<g>
						<g>
							<path class="st30" d="M1744.9,956.3c0,5.2-4.2,9.5-9.5,9.5h-79.3c-5.2,0-9.5-4.3-9.5-9.5v-53.7c0-5.2,4.2-9.5,9.5-9.5h79.3
								c5.2,0,9.5,4.3,9.5,9.5V956.3z"/>
							<g>
								<path class="st35" d="M1823.4,893.9h-55.8c-5.2,0-9.4,4.2-9.4,9.5s4.2,9.4,9.4,9.4h55.8c5.3,0,9.5-4.2,9.5-9.4
									C1832.9,898.1,1828.7,893.9,1823.4,893.9z"/>
								<path class="st30" d="M1858.3,919.8h-96.5c-2,0-3.6,1.6-3.6,3.6c0,2,1.6,3.6,3.6,3.6h96.5c2,0,3.6-1.6,3.6-3.6
									C1861.9,921.4,1860.3,919.8,1858.3,919.8z"/>
								<path class="st30" d="M1848.6,932.4h-86.8c-2,0-3.6,1.6-3.6,3.6c0,2,1.6,3.6,3.6,3.6h86.8c2,0,3.6-1.6,3.6-3.6
									C1852.1,934.1,1850.6,932.4,1848.6,932.4z"/>
								<path class="st30" d="M1858.6,945.1h-96.8c-2,0-3.6,1.6-3.6,3.6c0,2,1.6,3.6,3.6,3.6h96.8c2,0,3.6-1.6,3.6-3.6
									C1862.2,946.7,1860.6,945.1,1858.6,945.1z"/>
								<path class="st30" d="M1878.2,957.8h-116.4c-2,0-3.6,1.6-3.6,3.6c0,2,1.6,3.6,3.6,3.6h116.4c2,0,3.6-1.6,3.6-3.6
									C1881.8,959.4,1880.2,957.8,1878.2,957.8z"/>
							</g>
						</g>
						<g>
							<path class="st30" d="M1744.9,1047.6c0,5.2-4.2,9.5-9.5,9.5h-79.3c-5.2,0-9.5-4.3-9.5-9.5v-53.7c0-5.2,4.2-9.5,9.5-9.5h79.3
								c5.2,0,9.5,4.3,9.5,9.5V1047.6z"/>
							<g>
								<path class="st35" d="M1823.4,985.2h-55.8c-5.2,0-9.4,4.2-9.4,9.5s4.2,9.4,9.4,9.4h55.8c5.3,0,9.5-4.2,9.5-9.4
									C1832.9,989.4,1828.7,985.2,1823.4,985.2z"/>
								<path class="st30" d="M1858.3,1011h-96.5c-2,0-3.6,1.6-3.6,3.6c0,2,1.6,3.6,3.6,3.6h96.5c2,0,3.6-1.6,3.6-3.6
									C1861.9,1012.7,1860.3,1011,1858.3,1011z"/>
								<path class="st30" d="M1848.6,1023.7h-86.8c-2,0-3.6,1.6-3.6,3.6c0,2,1.6,3.6,3.6,3.6h86.8c2,0,3.6-1.6,3.6-3.6
									C1852.1,1025.3,1850.6,1023.7,1848.6,1023.7z"/>
								<path class="st30" d="M1858.6,1036.4h-96.8c-2,0-3.6,1.6-3.6,3.6c0,2,1.6,3.6,3.6,3.6h96.8c2,0,3.6-1.6,3.6-3.6
									C1862.2,1038,1860.6,1036.4,1858.6,1036.4z"/>
								<path class="st30" d="M1878.2,1049.1h-116.4c-2,0-3.6,1.6-3.6,3.6c0,2,1.6,3.6,3.6,3.6h116.4c2,0,3.6-1.6,3.6-3.6
									C1881.8,1050.7,1880.2,1049.1,1878.2,1049.1z"/>
							</g>
						</g>
						<g>
							<path class="st30" d="M1744.9,1138.9c0,5.2-4.2,9.5-9.5,9.5h-79.3c-5.2,0-9.5-4.3-9.5-9.5v-53.7c0-5.2,4.2-9.5,9.5-9.5h79.3
								c5.2,0,9.5,4.3,9.5,9.5V1138.9z"/>
							<g>
								<path class="st35" d="M1823.4,1076.4h-55.8c-5.2,0-9.4,4.2-9.4,9.5c0,5.2,4.2,9.4,9.4,9.4h55.8c5.3,0,9.5-4.2,9.5-9.4
									C1832.9,1080.7,1828.7,1076.4,1823.4,1076.4z"/>
								<path class="st30" d="M1858.3,1102.3h-96.5c-2,0-3.6,1.6-3.6,3.6c0,2,1.6,3.6,3.6,3.6h96.5c2,0,3.6-1.6,3.6-3.6
									C1861.9,1103.9,1860.3,1102.3,1858.3,1102.3z"/>
								<path class="st30" d="M1848.6,1115h-86.8c-2,0-3.6,1.6-3.6,3.6c0,2,1.6,3.6,3.6,3.6h86.8c2,0,3.6-1.6,3.6-3.6
									C1852.1,1116.6,1850.6,1115,1848.6,1115z"/>
								<path class="st30" d="M1858.6,1127.7h-96.8c-2,0-3.6,1.6-3.6,3.6c0,2,1.6,3.6,3.6,3.6h96.8c2,0,3.6-1.6,3.6-3.6
									C1862.2,1129.3,1860.6,1127.7,1858.6,1127.7z"/>
								<path class="st30" d="M1878.2,1140.3h-116.4c-2,0-3.6,1.6-3.6,3.6c0,2,1.6,3.6,3.6,3.6h116.4c2,0,3.6-1.6,3.6-3.6
									C1881.8,1142,1880.2,1140.3,1878.2,1140.3z"/>
							</g>
						</g>
					</g>
					<path class="st40" d="M2003.9,949.4c-3.6-2.3-6.6-0.7-6.6,3.6v57.3c0,4.3,3,5.9,6.6,3.6l43.6-28c3.6-2.3,3.6-6.1,0-8.4
						L2003.9,949.4z"/>
				</g>
			</g>
			<g>
				
					<linearGradient id="SVGID_00000181085973648048341260000012254132045570676869_" gradientUnits="userSpaceOnUse" x1="1222.1591" y1="1690.8442" x2="1222.1591" y2="1192.1871" gradientTransform="matrix(1 0 0 -1 0 2500)">
					<stop  offset="0" style="stop-color:#2584FF"/>
					<stop  offset="0.1685" style="stop-color:#4496FF"/>
					<stop  offset="0.5382" style="stop-color:#94C3FF"/>
					<stop  offset="1" style="stop-color:#FFFFFF"/>
				</linearGradient>
				<path style="fill:url(#SVGID_00000181085973648048341260000012254132045570676869_);" d="M1405.4,1267.7
					c0,31-25.4,56.4-56.4,56.4h-253.7c-31,0-56.4-25.4-56.4-56.4v-310c0-31,25.4-56.4,56.4-56.4H1349c31,0,56.4,25.4,56.4,56.4
					V1267.7z"/>
				<path class="st19" d="M1095.3,1230.1c-15.5,0-28.2-12.6-28.2-28.2V957.7c0-15.6,12.7-28.2,28.2-28.2H1349
					c15.5,0,28.2,12.6,28.2,28.2v244.3c0,15.6-12.6,28.2-28.2,28.2H1095.3z"/>
				<path class="st30" d="M1151.7,1141.7c0,0,88.5,61,162.9-24.3c74.4-85.3,28.2-173-29.8-157.4c-57.9,15.7-51.7,90-101.8,58.7
					C1132.9,987.4,1067.9,1093.1,1151.7,1141.7z"/>
				<g>
					<g>
						<path class="st19" d="M1188.3,1143.3c0,0-20.8-22.2-20.3-50.8c0.4-28.6,25.7-22.7,27.2-33.3c1.4-10.6-20.1-18-20.1-44.4
							c0-26.4,27.8-20.7,33.3-31.2c5.9-11.1,6.9-37,20.6-34.4c13.8,2.7,12.3,38.1,20.1,42.8c5.6,3.4,24,6.3,26.9,19.6
							c2.9,13.2-22.1,38.1-21.1,48.1c1,10,30.4,6.4,28.4,34.4c-1.9,28-15.2,40.2-27.9,50.8
							C1242.7,1155.5,1190.7,1147.5,1188.3,1143.3z"/>
						<path class="st42" d="M1230,1152.3c-15.3,0-40.9-3.4-43.5-7.9c-0.6-0.5-21.2-22.8-20.7-51.8c0.3-19.3,11.4-24.1,19.5-27.6
							c4.7-2,7.4-3.3,7.8-6c0.5-3.4-2.5-6.8-6.1-11.1c-5.9-7-14-16.5-14-33c0-18.4,12.9-22.7,22.3-25.9c5.2-1.7,9.6-3.2,11.2-6.3
							c1.7-3.2,3-7.7,4.3-12.6c3.3-11.6,7.1-25.1,18.5-22.9c9.3,1.8,12.3,15.2,15,27c1.5,6.8,3.3,14.5,5.8,16.1
							c1.2,0.7,3.3,1.5,5.7,2.4c7.9,2.9,19.7,7.4,22.2,18.5c1.8,8.2-5.2,19.2-12,29.8c-4.7,7.3-9.5,14.8-9.1,18.6
							c0.3,2.4,4,4.1,8.3,6c8.6,3.8,21.5,9.5,20.1,28.7c-2,27.9-14.7,40.6-28.7,52.2C1252.2,1150.3,1243.1,1152.3,1230,1152.3z
							 M1227,951.2c-6.5,0-9.4,10.2-12.2,20c-1.4,5.1-2.8,9.9-4.6,13.4c-2.4,4.5-7.9,6.4-13.7,8.3c-9.5,3.2-19.4,6.6-19.4,21.9
							c0,14.9,7.2,23.4,13,30.2c4.2,5,7.8,9.2,7.1,14.5c-0.7,5.1-5.4,7.1-10.3,9.3c-7.8,3.4-16.6,7.2-16.9,23.8
							c-0.5,27.4,19.6,49.1,19.8,49.3c2.1,2,20.8,6.2,40.2,6.2c11.8,0,20.4-1.7,24.1-4.8c13.8-11.4,25.3-23,27.2-49.3
							c1.1-16.3-8.8-20.7-17.6-24.6c-5.3-2.3-10.3-4.6-10.8-9.5c-0.5-5.2,4.2-12.7,9.7-21.3c6-9.4,12.8-20.1,11.4-26.6
							c-2-8.8-12.1-12.6-19.5-15.4c-2.6-1-4.9-1.8-6.5-2.8c-4.1-2.4-5.7-10-7.7-18.7c-2.4-10.6-5.1-22.5-11.7-23.8
							C1228,951.3,1227.5,951.2,1227,951.2z"/>
					</g>
					<g>
						<polygon class="st43" points="1252.5,1196 1194.7,1196 1178.5,1142.1 1268.7,1142.1 						"/>
					</g>
					<g>
						<path class="st19" d="M1225.9,1154.4c0,0,4.5-68.7,4-94.6c-0.5-25.9-0.9-110.5-0.9-110.5"/>
						<path class="st42" d="M1228,1154.6l-4.2-0.3c0-0.7,4.5-68.9,4-94.4c-0.5-25.6-1-109.7-1-110.5l4.2,0c0,0.9,0.5,84.9,1,110.5
							C1232.5,1085.4,1228,1153.9,1228,1154.6z"/>
					</g>
					<g>
						<line class="st44" x1="1207.2" y1="986.8" x2="1229.4" y2="1008"/>
						<polygon class="st42" points="1228,1009.5 1205.8,988.3 1208.7,985.3 1230.9,1006.4 						"/>
					</g>
					<g>
						<line class="st44" x1="1275.8" y1="1018.5" x2="1230.9" y2="1037.6"/>
						<polygon class="st42" points="1231.7,1039.5 1230.1,1035.6 1275,1016.6 1276.6,1020.5 						"/>
					</g>
					<g>
						<line class="st44" x1="1188.6" y1="1045.5" x2="1229.9" y2="1065.6"/>
						<polygon class="st42" points="1229,1067.5 1187.7,1047.4 1189.5,1043.6 1230.8,1063.7 						"/>
					</g>
					<g>
						<line class="st44" x1="1276" y1="1074.6" x2="1228.9" y2="1092"/>
						<polygon class="st42" points="1229.6,1094 1228.2,1090 1275.2,1072.6 1276.7,1076.6 						"/>
					</g>
					<g>
						<line class="st44" x1="1168.4" y1="1088.8" x2="1228.9" y2="1108.4"/>
						<polygon class="st42" points="1228.3,1110.4 1167.8,1090.8 1169.1,1086.8 1229.6,1106.4 						"/>
					</g>
					<g>
						<line class="st44" x1="1277.8" y1="1119" x2="1227.4" y2="1127.4"/>
						<polygon class="st42" points="1227.7,1129.5 1227,1125.4 1277.5,1116.9 1278.1,1121.1 						"/>
					</g>
				</g>
			</g>
			<g>
				
					<linearGradient id="SVGID_00000068665973018045175020000001993227722836668092_" gradientUnits="userSpaceOnUse" x1="1511.2305" y1="1540.3093" x2="1511.2305" y2="1242.799" gradientTransform="matrix(1 0 0 -1 0 2500)">
					<stop  offset="0" style="stop-color:#A0A0A0"/>
					<stop  offset="0.3592" style="stop-color:#BFBFBF"/>
					<stop  offset="1" style="stop-color:#FFFFFF"/>
				</linearGradient>
				<path style="fill:url(#SVGID_00000068665973018045175020000001993227722836668092_);" d="M1584.2,1281.7
					c0,12.4-10.1,22.5-22.5,22.5h-101c-12.4,0-22.5-10.1-22.5-22.5v-371c0-12.3,10.1-22.5,22.5-22.5h101c12.4,0,22.5,10.1,22.5,22.5
					V1281.7z"/>
				<g>
					<path class="st19" d="M1465.1,1016.7c-5.6,0-10.2-4.6-10.2-10.2v-88.8c0-5.7,4.6-10.3,10.2-10.3h92.3c5.7,0,10.3,4.6,10.3,10.3
						v88.8c0,5.7-4.6,10.2-10.3,10.2H1465.1z"/>
					<path class="st35" d="M1497.4,1000.3c0,0,38.6,6.4,49.8-33.2c11.3-39.6-17.5-61.3-34.1-47.2c-16.7,14.1-3.1,37.6-24.4,35.1
						C1467.3,952.4,1462.3,997.3,1497.4,1000.3z"/>
				</g>
				<g>
					<path class="st19" d="M1465.1,1144.4c-5.6,0-10.2-4.6-10.2-10.3v-88.8c0-5.7,4.6-10.2,10.2-10.2h92.3c5.7,0,10.3,4.6,10.3,10.2
						v88.8c0,5.7-4.6,10.3-10.3,10.3H1465.1z"/>
					<path class="st30" d="M1545.7,1112.3c0,0,16-35.7-19.4-56.6c-35.4-21-63.7,1.3-54.3,21c9.4,19.7,35.6,12.5,27.7,32.5
						C1491.7,1129.2,1533.8,1145.5,1545.7,1112.3z"/>
				</g>
				<g>
					<path class="st19" d="M1465.1,1272.2c-5.6,0-10.2-4.6-10.2-10.3v-88.8c0-5.7,4.6-10.3,10.2-10.3h92.3c5.7,0,10.3,4.6,10.3,10.3
						v88.8c0,5.7-4.6,10.3-10.3,10.3H1465.1z"/>
					<path class="st29" d="M1469.9,1212.5c0,0,3,39,44.2,40.4c41.2,1.4,55.3-31.7,37.6-44.5c-17.7-12.8-37.2,6.1-39.9-15.3
						C1509.2,1171.8,1464.4,1177.7,1469.9,1212.5z"/>
				</g>
			</g>
		</g>
		<g>
			<g>
				<path class="st46" d="M974.5,1448.3c0,12.7-10.4,23.1-23.1,23.1H414.2c-12.7,0-23.1-10.4-23.1-23.1v-7.7
					c0-12.7,10.4-23.1,23.1-23.1h537.2c12.7,0,23.1,10.4,23.1,23.1L974.5,1448.3L974.5,1448.3z"/>
				<g>
					<path class="st46" d="M530.5,1422.6c-16.1,0-31.8,18.7-35,41.5l-100.9,739.3c-3.1,22.9,0.6,41.6,8.4,41.6
						c7.7,0,17.9-18.2,22.6-40.5l157.3-741.4c4.7-22.3-4.6-40.5-20.7-40.5L530.5,1422.6L530.5,1422.6z"/>
					<path class="st46" d="M835.1,1422.6c16.1,0,31.8,18.7,34.9,41.5L971,2203.5c3.1,22.9-0.7,41.6-8.3,41.6
						c-7.7,0-17.9-18.2-22.6-40.5l-157.3-741.4c-4.8-22.3,4.6-40.5,20.7-40.5L835.1,1422.6L835.1,1422.6z"/>
				</g>
			</g>
			<g>
				<path class="st47" d="M974.5,1448.3c0,12.7-10.4,23.1-23.1,23.1H414.2c-12.7,0-23.1-10.4-23.1-23.1v-7.7
					c0-12.7,10.4-23.1,23.1-23.1h537.2c12.7,0,23.1,10.4,23.1,23.1L974.5,1448.3L974.5,1448.3z"/>
				<g>
					
						<linearGradient id="SVGID_00000003092557410131684090000010169134971978771588_" gradientUnits="userSpaceOnUse" x1="488.8589" y1="1134.911" x2="488.8589" y2="244.4852" gradientTransform="matrix(1 0 0 -1 0 2500)">
						<stop  offset="0" style="stop-color:#01433C"/>
						<stop  offset="0.2842" style="stop-color:#01433C"/>
						<stop  offset="0.4845" style="stop-color:#01433C"/>
						<stop  offset="0.9673" style="stop-color:#000000"/>
					</linearGradient>
					<path style="fill:url(#SVGID_00000003092557410131684090000010169134971978771588_);" d="M530.5,1422.6
						c-16.1,0-31.8,18.7-35,41.5l-100.9,739.3c-3.1,22.9,0.6,41.6,8.4,41.6c7.7,0,17.9-18.2,22.6-40.5l157.3-741.4
						c4.7-22.3-4.6-40.5-20.7-40.5L530.5,1422.6L530.5,1422.6z"/>
					
						<linearGradient id="SVGID_00000105416057096868120560000008764683204395462028_" gradientUnits="userSpaceOnUse" x1="876.7853" y1="1134.911" x2="876.7853" y2="27.2287" gradientTransform="matrix(1 0 0 -1 0 2500)">
						<stop  offset="0" style="stop-color:#01433C"/>
						<stop  offset="0.9673" style="stop-color:#000000"/>
					</linearGradient>
					<path style="fill:url(#SVGID_00000105416057096868120560000008764683204395462028_);" d="M835.1,1422.6
						c16.1,0,31.8,18.7,34.9,41.5L971,2203.5c3.1,22.9-0.7,41.6-8.3,41.6c-7.7,0-17.9-18.2-22.6-40.5l-157.3-741.4
						c-4.8-22.3,4.6-40.5,20.7-40.5L835.1,1422.6L835.1,1422.6z"/>
				</g>
			</g>
		</g>
		<g>
			
				<linearGradient id="SVGID_00000170985765468048765570000017689239308019805850_" gradientUnits="userSpaceOnUse" x1="1590.313" y1="1121.6027" x2="1590.313" y2="1064.5383" gradientTransform="matrix(1 0 0 -1 0 2500)">
				<stop  offset="0" style="stop-color:#E0E0E0"/>
				<stop  offset="0.413" style="stop-color:#E3E3E3"/>
				<stop  offset="0.7041" style="stop-color:#ECECEC"/>
				<stop  offset="0.9569" style="stop-color:#FCFCFC"/>
				<stop  offset="1" style="stop-color:#FFFFFF"/>
			</linearGradient>
			<path style="fill:url(#SVGID_00000170985765468048765570000017689239308019805850_);" d="M1652.8,1417.6
				c-3-22.5-29.6-40.2-62.5-40.2c-32.8,0-59.5,17.7-62.5,40.2H1652.8z"/>
			
				<linearGradient id="SVGID_00000088116935072730436970000004251198065349688464_" gradientUnits="userSpaceOnUse" x1="1590.313" y1="1008.2688" x2="1590.313" y2="1103.1996" gradientTransform="matrix(1 0 0 -1 0 2500)">
				<stop  offset="0" style="stop-color:#A0A0A0"/>
				<stop  offset="0.2727" style="stop-color:#A3A3A3"/>
				<stop  offset="0.465" style="stop-color:#ACACAC"/>
				<stop  offset="0.6325" style="stop-color:#BCBCBC"/>
				<stop  offset="0.7858" style="stop-color:#D2D2D2"/>
				<stop  offset="0.9282" style="stop-color:#EEEEEE"/>
				<stop  offset="1" style="stop-color:#FFFFFF"/>
			</linearGradient>
			<path style="fill:url(#SVGID_00000088116935072730436970000004251198065349688464_);" d="M1652.8,1417.6
				c-3-22.5-29.6-40.2-62.5-40.2c-32.8,0-59.5,17.7-62.5,40.2H1652.8z"/>
		</g>
		<g>
			<path class="st43" d="M1278.5,1298.6v66.2c2.3,23.4,16.8,43.1,37.2,52.6h55c20.4-9.5,35-29.2,37.2-52.6v-66.2H1278.5z"/>
			<path class="st43" d="M1280.7,1303.5c-26.1,0-47.2,21.1-47.2,47.2c0,26.1,21.2,47.2,47.2,47.2c26.1,0,47.2-21.1,47.2-47.2
				C1327.9,1324.7,1306.8,1303.5,1280.7,1303.5z M1280.7,1379.5c-15.8,0-28.7-12.9-28.7-28.7c0-15.9,12.9-28.7,28.7-28.7
				c15.8,0,28.7,12.9,28.7,28.7C1309.4,1366.6,1296.5,1379.5,1280.7,1379.5z"/>
		</g>
		<g>
			<g>
				<polygon class="st52" points="1017.4,1390.8 706.4,1390.8 695,1415.6 1017.4,1415.6 1132.6,1166.1 1132.6,1141.4 				"/>
				<polygon class="st53" points="810.2,1141.4 1132.6,1141.4 1017.4,1390.8 695,1390.8 				"/>
				<polygon class="st19" points="712.5,1379.1 816.9,1153.1 1115.1,1153.1 1010.7,1379.1 				"/>
				
					<linearGradient id="SVGID_00000134245365283954860940000012906006500367145402_" gradientUnits="userSpaceOnUse" x1="847.8869" y1="1067.4326" x2="952.1733" y2="1330.7535" gradientTransform="matrix(1 0 0 -1 0 2500)">
					<stop  offset="0" style="stop-color:#AFAFAF"/>
					<stop  offset="0.2906" style="stop-color:#B2B2B2"/>
					<stop  offset="0.4955" style="stop-color:#BBBBBB"/>
					<stop  offset="0.674" style="stop-color:#CBCBCB"/>
					<stop  offset="0.837" style="stop-color:#E0E0E0"/>
					<stop  offset="0.9888" style="stop-color:#FDFDFD"/>
					<stop  offset="1" style="stop-color:#FFFFFF"/>
				</linearGradient>
				<polygon style="fill:url(#SVGID_00000134245365283954860940000012906006500367145402_);" points="810.2,1141.4 1132.6,1141.4 
					1017.4,1390.8 695,1390.8 				"/>
			</g>
			<g>
				<path class="st55" d="M1021,1406.1c0,6.3-5.1,11.4-11.4,11.4H743.7c-6.3,0-11.4-5.1-11.4-11.4v-3.8c0-6.3,5.2-11.5,11.4-11.5
					h265.8c6.3,0,11.4,5.1,11.4,11.5V1406.1z"/>
				<path class="st52" d="M816.7,1406.1c0,6.3-5.1,11.4-11.4,11.4H539.5c-6.3,0-11.4-5.1-11.4-11.4v-3.8c0-6.3,5.1-11.5,11.4-11.5
					h265.8c6.3,0,11.4,5.1,11.4,11.5V1406.1z"/>
			</g>
			<g>
				
					<linearGradient id="SVGID_00000078756569452568150100000016045369592298292145_" gradientUnits="userSpaceOnUse" x1="832.3834" y1="1449.5054" x2="693.5539" y2="1094.4225" gradientTransform="matrix(1 0 0 -1 0 2500)">
					<stop  offset="0" style="stop-color:#AFAFAF"/>
					<stop  offset="0.2906" style="stop-color:#B2B2B2"/>
					<stop  offset="0.4955" style="stop-color:#BBBBBB"/>
					<stop  offset="0.674" style="stop-color:#CBCBCB"/>
					<stop  offset="0.837" style="stop-color:#E0E0E0"/>
					<stop  offset="0.9888" style="stop-color:#FDFDFD"/>
					<stop  offset="1" style="stop-color:#FFFFFF"/>
				</linearGradient>
				<polygon style="fill:url(#SVGID_00000078756569452568150100000016045369592298292145_);" points="856.2,1338.1 563.6,1338.1 
					694.4,1054.9 987,1054.9 				"/>
				<g>
					<polygon class="st19" points="834.9,1300.9 619.3,1300.9 717.6,1088 933.2,1088 					"/>
					<g>
						<path class="st30" d="M933.2,1088H717.6l-44.5,96.4c8.1,5.9,34.4,15.1,114.9-6.7c61-16.6,92.8-22.4,113.7-21.4L933.2,1088z"/>
					</g>
					<g>
						<path class="st29" d="M857.9,1149.1c0,0-68.5,7-49-21c14.9-21.3,28,3.2,43.4-10c15.4-13.2,54.4-32.3,51.8-5.2
							C901.5,1140.1,876.8,1148.5,857.9,1149.1z"/>
					</g>
					<g>
						<g>
							<path class="st19" d="M764.8,1122.1h-49.1c-1.4,0-3.1,1.1-3.7,2.5c-0.6,1.4,0,2.5,1.4,2.5h49.1c1.4,0,3.1-1.1,3.7-2.5
								C766.9,1123.2,766.2,1122.1,764.8,1122.1z"/>
						</g>
						<g>
							<path class="st19" d="M831,1095H728.2c-1.4,0-3.1,1.1-3.8,2.5c-0.6,1.3,0,2.5,1.4,2.5h102.9c1.4,0,3.1-1.1,3.7-2.5
								C833.1,1096.1,832.5,1095,831,1095z"/>
						</g>
						<g>
							<path class="st19" d="M798.5,1104H724c-1.4,0-3.1,1.1-3.7,2.5c-0.6,1.3,0,2.5,1.4,2.5h74.5c1.4,0,3.1-1.1,3.7-2.5
								C800.6,1105.2,799.9,1104,798.5,1104z"/>
						</g>
						<g>
							<path class="st19" d="M804.6,1113h-84.8c-1.4,0-3.1,1.1-3.7,2.5c-0.6,1.3,0,2.5,1.4,2.5h84.7c1.5,0,3.1-1.1,3.8-2.5
								C806.7,1114.2,806,1113,804.6,1113z"/>
						</g>
						<g>
							<path class="st19" d="M774.1,1158.1H699c-1.4,0-3.1,1.1-3.7,2.5c-0.6,1.4,0,2.5,1.4,2.5h75.1c1.4,0,3.1-1.1,3.7-2.5
								C776.2,1159.3,775.6,1158.1,774.1,1158.1z"/>
						</g>
						<g>
							<path class="st19" d="M786,1167.1h-91.1c-1.4,0-3.1,1.1-3.7,2.5c-0.6,1.3,0,2.5,1.4,2.5h91.1c1.4,0,3.1-1.1,3.7-2.5
								C788.1,1168.3,787.5,1167.1,786,1167.1z"/>
						</g>
						<g>
							<path class="st19" d="M752.3,1176.2h-61.6c-1.4,0-3.1,1.1-3.7,2.5c-0.6,1.3,0,2.5,1.4,2.5H750c1.4,0,3.1-1.1,3.7-2.5
								C754.4,1177.3,753.7,1176.2,752.3,1176.2z"/>
						</g>
						<g>
							<path class="st19" d="M788.7,1131.1h-77.1c-1.4,0-3.1,1.1-3.7,2.5c-0.7,1.4,0,2.5,1.4,2.5h77.2c1.4,0,3-1.1,3.7-2.5
								C790.7,1132.2,790.1,1131.1,788.7,1131.1z"/>
						</g>
						<g>
							<path class="st19" d="M761.7,1140.1h-54.4c-1.4,0-3.1,1.1-3.7,2.5c-0.7,1.4,0,2.5,1.4,2.5h54.4c1.4,0,3.1-1.1,3.7-2.5
								C763.8,1141.2,763.2,1140.1,761.7,1140.1z"/>
						</g>
						<g>
							<path class="st19" d="M795.5,1149.1h-92.3c-1.4,0-3.1,1.1-3.7,2.5c-0.6,1.4,0,2.5,1.4,2.5h92.3c1.4,0,3.1-1.1,3.7-2.5
								C797.6,1150.2,797,1149.1,795.5,1149.1z"/>
						</g>
					</g>
					<g>
						<g>
							<path class="st30" d="M691.2,1235.1l8.7-18.8c3-6.4,0.1-11.6-6.5-11.6c-6.6,0-14.3,5.2-17.3,11.6l-8.7,18.8
								c-3,6.4,0,11.7,6.5,11.7C680.5,1246.7,688.2,1241.5,691.2,1235.1z"/>
						</g>
						<g>
							<path class="st35" d="M730.3,1235.1l8.7-18.8c3-6.4,0.1-11.6-6.5-11.6c-6.5,0-14.3,5.2-17.3,11.6l-8.7,18.8
								c-3,6.4,0,11.7,6.5,11.7C719.6,1246.7,727.3,1241.5,730.3,1235.1z"/>
						</g>
						<g>
							<path class="st30" d="M769.4,1235.1l8.7-18.8c2.9-6.4,0-11.6-6.5-11.6c-6.6,0-14.3,5.2-17.3,11.6l-8.7,18.8
								c-3,6.4,0,11.7,6.6,11.7C758.7,1246.7,766.4,1241.5,769.4,1235.1z"/>
						</g>
						<g>
							<path class="st35" d="M808.4,1235.1l8.7-18.8c2.9-6.4,0.1-11.6-6.5-11.6c-6.6,0-14.4,5.2-17.3,11.6l-8.7,18.8
								c-3,6.4,0,11.7,6.5,11.7C797.7,1246.7,805.4,1241.5,808.4,1235.1z"/>
						</g>
						<g>
							<path class="st30" d="M847.5,1235.1l8.7-18.8c2.9-6.4,0.1-11.6-6.5-11.6s-14.3,5.2-17.3,11.6l-8.7,18.8
								c-3,6.4,0,11.7,6.6,11.7C836.8,1246.7,844.5,1241.5,847.5,1235.1z"/>
						</g>
					</g>
					<path class="st30" d="M846.6,1275.5c-33.5-19.2-98.8-9.2-149.4-7.1c-43.4,1.8-50.4-16.5-51.2-25.6l-26.8,58h215.6L846.6,1275.5
						z"/>
				</g>
				<g>
					<polygon class="st19" points="971.7,1088 679.1,1088 694.4,1054.9 987,1054.9 					"/>
					<g>
						<path class="st30" d="M898.8,1060h-146c-6.4,0-14,5.1-17,11.4c-2.9,6.3,0,11.4,6.4,11.4h146c6.5,0,14.1-5.1,17-11.4
							C908.1,1065.2,905.3,1060,898.8,1060z"/>
					</g>
					<g>
						<path class="st37" d="M726.4,1060h-14.3c-6.5,0-14.1,5.1-17,11.4c-2.9,6.3,0,11.4,6.5,11.4h14.3c6.5,0,14.1-5.1,17-11.4
							C735.8,1065.2,732.9,1060,726.4,1060z"/>
					</g>
					<g>
						<path class="st29" d="M970.2,1071.4c1.9-4,0-7.3-4.2-7.3c-4.2,0-9,3.3-10.9,7.3c-1.9,4,0,7.3,4.1,7.3
							C963.4,1078.8,968.3,1075.5,970.2,1071.4z"/>
					</g>
					<g>
						<path class="st57" d="M949.4,1071.4c1.9-4,0-7.3-4.2-7.3c-4.2,0-9,3.3-10.9,7.3c-1.9,4,0,7.3,4.2,7.3
							C942.6,1078.8,947.5,1075.5,949.4,1071.4z"/>
					</g>
					<g>
						<path class="st37" d="M928.7,1071.4c1.9-4,0-7.3-4.2-7.3c-4.2,0-9,3.3-10.9,7.3c-1.9,4,0,7.3,4.1,7.3
							S926.8,1075.5,928.7,1071.4z"/>
					</g>
				</g>
			</g>
			<g>
				
					<linearGradient id="SVGID_00000126312490726674159430000005637503962747166630_" gradientUnits="userSpaceOnUse" x1="1084.6024" y1="1292.9861" x2="911.0771" y2="1018.1385" gradientTransform="matrix(1 0 0 -1 0 2500)">
					<stop  offset="0" style="stop-color:#AFAFAF"/>
					<stop  offset="0.2906" style="stop-color:#B2B2B2"/>
					<stop  offset="0.4955" style="stop-color:#BBBBBB"/>
					<stop  offset="0.674" style="stop-color:#CBCBCB"/>
					<stop  offset="0.837" style="stop-color:#E0E0E0"/>
					<stop  offset="0.9888" style="stop-color:#FDFDFD"/>
					<stop  offset="1" style="stop-color:#FFFFFF"/>
				</linearGradient>
				<polygon style="fill:url(#SVGID_00000126312490726674159430000005637503962747166630_);" points="1116.8,1374.9 863.8,1374.9 
					933.2,1228 1186.1,1228 				"/>
				<g>
					<polygon class="st19" points="1186.1,1228 933.2,1228 948.5,1194.8 1201.4,1194.8 					"/>
					<g>
						<path class="st30" d="M1113.2,1200h-146c-6.4,0-14.1,5.1-17,11.4c-2.9,6.3,0,11.4,6.4,11.4h146c6.5,0,14.1-5.1,17-11.4
							C1122.5,1205.1,1119.7,1200,1113.2,1200z"/>
					</g>
					<g>
						<path class="st29" d="M1184.6,1211.4c1.9-4,0-7.3-4.2-7.3c-4.1,0-9,3.3-10.9,7.3s0,7.3,4.2,7.3
							C1177.8,1218.7,1182.7,1215.4,1184.6,1211.4z"/>
					</g>
					<g>
						<path class="st30" d="M1163.8,1211.4c1.9-4,0-7.3-4.2-7.3c-4.2,0-9,3.3-10.9,7.3c-1.9,4,0,7.3,4.2,7.3
							C1157.1,1218.7,1162,1215.4,1163.8,1211.4z"/>
					</g>
					<g>
						<path class="st37" d="M1143.1,1211.4c1.9-4,0-7.3-4.2-7.3c-4.2,0-9,3.3-10.9,7.3c-1.9,4,0,7.3,4.2,7.3
							S1141.2,1215.4,1143.1,1211.4z"/>
					</g>
				</g>
				<g>
					<g>
						<path class="st29" d="M1146.7,1245.7H956.2c-8.4,0-18.3,6.7-22.1,14.9c-3.8,8.2,0,14.8,8.4,14.8H1133
							c8.5,0,18.4-6.7,22.1-14.8C1158.9,1252.4,1155.2,1245.7,1146.7,1245.7z"/>
					</g>
					<path class="st29" d="M1146.7,1245.7h-52.6l-13.7,29.7h52.6c8.5,0,18.4-6.7,22.1-14.8
						C1158.9,1252.4,1155.2,1245.7,1146.7,1245.7z"/>
				</g>
				<g>
					<g>
						<path class="st55" d="M973.6,1284.8h-45.5c-2.9,0-6.3,2.3-7.7,5.2c-1.3,2.8,0,5.1,2.9,5.1h45.5c3,0,6.4-2.3,7.7-5.1
							C977.9,1287.2,976.6,1284.8,973.6,1284.8z"/>
					</g>
					<g>
						<path class="st55" d="M1005.8,1301.3h-85.3c-2.9,0-6.4,2.3-7.6,5.2c-1.3,2.8,0,5.1,2.9,5.1h85.3c3,0,6.4-2.3,7.7-5.1
							C1010.1,1303.7,1008.8,1301.3,1005.8,1301.3z"/>
					</g>
					<g>
						<path class="st55" d="M1018.8,1317.8H912.9c-2.9,0-6.4,2.3-7.7,5.2c-1.3,2.8,0,5.1,2.9,5.1h105.9c3,0,6.4-2.3,7.7-5.1
							C1023,1320.2,1021.8,1317.8,1018.8,1317.8z"/>
					</g>
					<g>
						<path class="st55" d="M988,1334.3h-82.7c-2.9,0-6.4,2.3-7.6,5.2c-1.3,2.8,0,5.1,2.9,5.1h82.7c3,0,6.4-2.3,7.7-5.1
							C992.2,1336.6,991,1334.3,988,1334.3z"/>
					</g>
					<g>
						<path class="st55" d="M1035.1,1350.8H897.7c-2.9,0-6.4,2.3-7.7,5.1c-1.3,2.8,0,5.1,2.9,5.1h137.4c3,0,6.4-2.3,7.7-5.1
							C1039.4,1353.1,1038,1350.8,1035.1,1350.8z"/>
					</g>
				</g>
			</g>
		</g>
		<g>
			<path class="st42" d="M1159.7,2089.3c0,0,8.3-167.9,145.3-153.6c137,14.3,65.5,117.9-2.4,104.8s-127.4,29.8-129.8,54.8
				C1170.5,2120.3,1159.7,2089.3,1159.7,2089.3z"/>
			<g>
				<path class="st59" d="M1147.1,2171.8c-1,0-1.9-0.4-2.6-1.2c-2-2.3-18.1-25.1,25.4-121.7c44.5-99.1,158.6-65.7,159.7-65.4
					c1.9,0.5,2.9,2.6,2.4,4.4c-0.6,1.9-2.7,2.9-4.5,2.4c-4.4-1.3-109.2-31.8-151.1,61.5c-41.5,92.4-26.6,114-26.4,114.2
					c1.2,1.5,0.9,3.8-0.6,5C1148.8,2171.5,1147.9,2171.8,1147.1,2171.8z"/>
			</g>
			<path class="st30" d="M1146.6,2094.1c0,0-13.1-366.8-145.3-366.8s-117.9,101.2-48.8,127.4c69.1,26.2,146.5,62,170.3,238.2
				C1146.6,2269.2,1146.6,2094.1,1146.6,2094.1z"/>
			<g>
				<path class="st60" d="M1138.3,2120.9c-1.9,0-3.5-1.6-3.6-3.5c0-1.2-3.3-127.2-56.7-227.9c-52.8-99.5-88.7-112.5-89.1-112.6
					c-1.9-0.6-2.9-2.7-2.3-4.5c0.6-1.9,2.7-2.9,4.5-2.3c1.6,0.5,38.6,13.2,93.2,116.1c54.3,102.3,57.6,229.9,57.6,231.2
					C1141.9,2119.2,1140.3,2120.8,1138.3,2120.9L1138.3,2120.9z"/>
			</g>
			<path class="st43" d="M1139.5,2098.8c0,0-23.8-110.8-15.4-265.6c8.3-154.8,103.6-208.4,156-135.8c52.4,72.7-45.3,82.2-84.5,163.2
				c-39.3,81-38.1,220.3-33.4,234.6C1166.9,2109.6,1139.5,2098.8,1139.5,2098.8z"/>
			<path class="st29" d="M1155,2098.8c1.2-4.8-20.3-146.5,78.6-251.3c98.9-104.8,240.6-91.7,229.9-10.7
				c-10.7,81-102.4,58.4-167.9,64.3c-65.5,6-128.6,173.9-125.1,201.3C1174,2129.8,1155,2098.8,1155,2098.8z"/>
			<path class="st61" d="M1139.5,2098.8c0,0-19-164.4-150.1-181c-131-16.7-150.1,117.9-64.3,131s164.4-8.3,191.8,52.4
				C1144.2,2162,1139.5,2098.8,1139.5,2098.8z"/>
			<g>
				<path class="st62" d="M1138.3,2161.1L1138.3,2161.1c-2.1-0.1-3.6-1.7-3.6-3.7c0-1,1.8-99.5-65.4-144.3
					c-67.7-45.2-125.5-37.1-126.1-37c-2,0.3-3.8-1-4.1-3c-0.3-1.9,1.1-3.8,3-4.1c2.5-0.4,61.1-8.6,131.1,38.1
					c70.5,47,68.6,149.4,68.6,150.5C1141.8,2159.5,1140.2,2161.1,1138.3,2161.1z"/>
			</g>
			<g>
				<path class="st59" d="M1143.7,2110.1c-1.8,0-3.3-1.3-3.5-3.1c-0.2-1.4-19.5-143,5.4-248.8c25.1-106.8,69-126.7,70.9-127.5
					c1.8-0.8,3.9,0.1,4.7,1.9c0.8,1.8-0.1,3.9-1.9,4.7c-0.4,0.2-42.5,19.9-66.7,122.6c-24.6,104.5-5.5,244.7-5.3,246.1
					c0.2,2-1.1,3.8-3,4C1144,2110.1,1143.8,2110.1,1143.7,2110.1z"/>
			</g>
			<g>
				<path class="st63" d="M1153.5,2114.6L1153.5,2114.6c-2,0-3.6-1.6-3.6-3.5c0-1.4,0.9-141.8,78.8-218.7
					c78.1-77.2,164.9-61,165.8-60.8c1.9,0.4,3.2,2.3,2.8,4.2c-0.4,1.9-2.2,3.2-4.2,2.8c-0.8-0.1-84-15.6-159.4,58.9
					c-75.7,74.9-76.7,212.2-76.7,213.7C1157.1,2113,1155.5,2114.6,1153.5,2114.6z"/>
			</g>
			<polygon class="st43" points="1079.5,2245 1213.3,2245 1247,2084 1045.8,2084 			"/>
		</g>
		<g>
			<path class="st29" d="M373.2,2121.5c0,0-19.1-164.4-150.1-181.1c-131-16.7-150.1,117.9-64.3,131c85.7,13.1,164.4-8.3,191.7,52.4
				C377.9,2184.6,373.2,2121.5,373.2,2121.5z"/>
			<g>
				<path class="st19" d="M371.9,2183.7C371.9,2183.7,371.9,2183.7,371.9,2183.7c-2.1-0.1-3.6-1.7-3.6-3.7c0-1,1.8-99.5-65.4-144.3
					c-67.7-45.2-125.5-37.1-126.1-37c-2.1,0.3-3.8-1.1-4.1-3c-0.3-2,1-3.8,3-4.1c2.5-0.4,61.1-8.6,131.1,38.1
					c70.5,47,68.6,149.4,68.6,150.5C375.4,2182.2,373.9,2183.7,371.9,2183.7z"/>
			</g>
			<g>
				<path class="st29" d="M364.3,2076.4c0,0-118.7-115.2-52.1-229.3c66.6-114,184.9-47.1,143.1,28.8c-41.9,76-106.8,125.3-75.3,184
					C411.4,2118.7,364.3,2076.4,364.3,2076.4z"/>
				<g>
					<path class="st19" d="M414.3,2113.4C414.4,2113.4,414.4,2113.4,414.3,2113.4c1.2-1.7,0.9-3.9-0.7-5.1
						c-0.8-0.6-80-59.2-74.6-139.8c5.5-81.2,47.1-122.1,47.6-122.5c1.5-1.4,1.5-3.6,0.1-5c-1.4-1.4-3.6-1.5-5.1-0.1
						c-1.8,1.7-44.1,43.2-49.7,127.2c-5.7,84.5,76.6,145.5,77.5,146.1C411,2115.3,413.1,2115,414.3,2113.4z"/>
				</g>
			</g>
			<path class="st43" d="M377.9,2089.3c0,0,8.3-167.9,145.3-153.6c137,14.3,65.5,117.9-2.4,104.8c-67.9-13.1-127.4,29.8-129.8,54.8
				C388.6,2120.3,377.9,2089.3,377.9,2089.3z"/>
			<g>
				<path class="st59" d="M365.3,2171.8c-1,0-1.9-0.4-2.6-1.2c-2-2.3-18.1-25,25.4-121.7c44.6-99.1,158.6-65.7,159.7-65.4
					c1.9,0.6,3,2.6,2.4,4.5c-0.6,1.9-2.7,2.9-4.5,2.4c-4.4-1.3-109.2-31.8-151.1,61.5c-41.5,92.4-26.5,114-26.4,114.2
					c1.1,1.5,0.9,3.8-0.6,5C366.9,2171.5,366.1,2171.8,365.3,2171.8z"/>
			</g>
			<path class="st35" d="M379.1,2148.8c0,0-13.1-366.9-145.3-366.9c-132.2,0-117.9,101.2-48.8,127.5
				c69.1,26.2,146.5,61.9,170.3,238.2C379.1,2323.9,379.1,2148.8,379.1,2148.8z"/>
			<g>
				<path class="st64" d="M370.7,2175.6c-1.9,0-3.5-1.6-3.6-3.5c0-1.2-3.3-127.2-56.7-228c-52.8-99.4-88.7-112.5-89.1-112.6
					c-1.9-0.6-2.9-2.6-2.3-4.5c0.6-1.9,2.7-2.9,4.5-2.3c1.6,0.5,38.7,13.2,93.2,116.1c54.3,102.3,57.6,229.9,57.6,231.2
					C374.3,2174,372.8,2175.6,370.7,2175.6C370.8,2175.6,370.8,2175.6,370.7,2175.6z"/>
			</g>
			<path class="st30" d="M373.2,2210c-0.3-4.9-65-132.9-3.7-263.3c61.3-130.4,200-162.2,215.1-81.9s-79.1,87.4-139.5,113.5
				c-60.4,26.1-68,205.3-56,230.2C401,2233.4,373.2,2210,373.2,2210z"/>
			<g>
				<path class="st34" d="M376.7,2225.4L376.7,2225.4c-1.9,0.6-3.9-0.4-4.5-2.3c-0.5-1.3-43.4-134.9,6.6-232.4
					c50.1-97.8,137.7-109.4,138.5-109.5c2-0.2,3.8,1.2,4,3.1c0.3,2-1.1,3.7-3.1,4c-0.9,0.1-84.7,11.4-133.1,105.6
					c-48.6,94.8-6.6,225.6-6.2,226.9C379.6,2222.8,378.6,2224.8,376.7,2225.4z"/>
			</g>
			<polygon class="st43" points="297.6,2245 431.4,2245 465.1,2084 263.9,2084 			"/>
		</g>
		<g>
			
				<linearGradient id="SVGID_00000049195731052744239100000006309813498997481913_" gradientUnits="userSpaceOnUse" x1="1554.7968" y1="295.2605" x2="1617.275" y2="459.8839" gradientTransform="matrix(1 0 0 -1 0 2500)">
				<stop  offset="0" style="stop-color:#FFD1AE"/>
				<stop  offset="1" style="stop-color:#F9AC78"/>
			</linearGradient>
			<polygon style="fill:url(#SVGID_00000049195731052744239100000006309813498997481913_);" points="1571.9,2064.7 1534.9,2176.5 
				1586.3,2189.1 1638.6,2079.1 			"/>
			
				<linearGradient id="SVGID_00000074439559023885893900000008187560748145513115_" gradientUnits="userSpaceOnUse" x1="2380.5149" y1="1036.2417" x2="2442.9993" y2="1200.8807" gradientTransform="matrix(0.8001 -0.5998 -0.5998 -0.8001 636.0289 4467.6831)">
				<stop  offset="0" style="stop-color:#FFD1AE"/>
				<stop  offset="1" style="stop-color:#F9AC78"/>
			</linearGradient>
			<polygon style="fill:url(#SVGID_00000074439559023885893900000008187560748145513115_);" points="1848.8,2088.5 1886.2,2200.1 
				1935,2179.3 1910.8,2060 			"/>
			<path class="st43" d="M2077.8,1629.9c0,0-284.6,38.6-300.4,84.4c-15.8,45.9,59.3,400.6,59.6,406c0.3,5.4,89.5-16.6,89.5-16.6
				s-25.6-303.4-14.9-305.7c10.7-2.3,58.8,8.9,201.2,8.9c177.9,0,197.2,16.8,197.2-229.2C2309.9,1362.2,2077.8,1629.9,2077.8,1629.9
				z"/>
			<path class="st43" d="M2009.3,1630.3c0,0-266.8-34.9-284.8,10.2c-18.1,45.1-173.1,441.7-173.1,447.1s79.3,33,79.3,33
				s193.5-328.7,204.3-330.5c10.8-1.8,33.1,18,175.5,14.4c142.4-3.6,262-1.2,233.2-215.1C2214.9,1375.8,2009.3,1630.3,2009.3,1630.3
				z"/>
			
				<linearGradient id="SVGID_00000183242491395005132100000018096071589721595327_" gradientUnits="userSpaceOnUse" x1="2156.2368" y1="1455.5768" x2="2156.2368" y2="1187.6881" gradientTransform="matrix(1 0 0 -1 0 2500)">
				<stop  offset="0" style="stop-color:#E72100"/>
				<stop  offset="1" style="stop-color:#E93701"/>
			</linearGradient>
			<path style="fill:url(#SVGID_00000183242491395005132100000018096071589721595327_);" d="M2283.8,1077.7
				c101.2,83.5,35.1,477.9,32,521.4c-3.1,43.5-215,39.7-265.7,39.1c-49.2-0.6-77.5-7.9-77.5-7.9s22.7-149.2,30.7-233.5
				c9.5-100.1-15.2-150.4,9.6-220.8c29.6-84.2,92.3-121.8,133.2-117.5C2186.9,1062.8,2259,1057.2,2283.8,1077.7z"/>
			<path class="st43" d="M1596.5,2167.5c0,0-2.6,13.8-7.2,48.7c-4.6,34.8-6.6,30.6-6.6,30.6s-89.7,1.8-130.6,1.8s-44.9-1.8-44.9-7.2
				c0-25.3,60.7-25.3,88.4-51.1c29.4-27.4,42.8-25.6,47.4-25.6C1547.7,2164.7,1559.6,2183.7,1596.5,2167.5z"/>
			<path class="st43" d="M1932.4,2145.7c0,0,3.4,13.6,13.9,47.2c10.5,33.6,6.9,30.6,6.9,30.6s-24.6,10.9-52,24.2
				c0,0-129.3,2.9-131.6-2.1c-10.7-22.9,64.4-27.8,71.5-40.9c19.8-36.6,37.4-37,41.6-39C1886.9,2163.8,1905.7,2175.9,1932.4,2145.7z
				"/>
			
				<linearGradient id="SVGID_00000145766390114932619500000000920504335480003252_" gradientUnits="userSpaceOnUse" x1="2003.2667" y1="1776.839" x2="1891.467" y2="1502.658" gradientTransform="matrix(0.9961 -8.780000e-02 -8.230000e-02 -0.9331 347.4202 2671.1797)">
				<stop  offset="0" style="stop-color:#FFD1AE"/>
				<stop  offset="1" style="stop-color:#F9AC78"/>
			</linearGradient>
			<path style="fill:url(#SVGID_00000145766390114932619500000000920504335480003252_);" d="M2073.7,791.7c0,0-26.7,196.6,21,206
				c58.2,11.5,56.2,66.3,56.2,66.3s100.6,18.5,106.4,5.6c5.7-13-48.5-50.5,5.3-133.6c16.2-25.1-16.4-187-94.5-182.6
				C2090,757.9,2082.5,767.2,2073.7,791.7z"/>
			
				<linearGradient id="SVGID_00000075851454605898937810000011218066097620590216_" gradientUnits="userSpaceOnUse" x1="2185.0645" y1="1710.9254" x2="2099.5132" y2="1501.1169" gradientTransform="matrix(1 0 0 -1 0 2500)">
				<stop  offset="0" style="stop-color:#E72100"/>
				<stop  offset="1" style="stop-color:#E93701"/>
			</linearGradient>
			<path style="fill:url(#SVGID_00000075851454605898937810000011218066097620590216_);" d="M2070.7,847.6
				c28.8,15.2,46.9,3.9,46.9,3.9s9.8,30.6,13.7,34.5c3.9,3.9,27.6-13.3,39.8,0c17.9,19.6-11.8,41.7-18.3,45
				c-6.5,3.3,30.9,66.9,56.4,68.4c31.6,2,76.6-11.7,90.3-77.2c13.7-65.5-5.9-144.7-56.7-175s-89,20.5-159.4-24.4
				C2053.1,703.4,1967,793.1,2070.7,847.6z"/>
			<path class="st43" d="M2141.5,1060.5c0,0,1-12.2,5.9-14.7c4.9-2.4,38.6,10.8,68.9,6.8c30.3-3.9,30.8-6.8,35.7-5.4
				c4.9,1.5,12.7,18.6,8.8,24.4c-3.9,5.9-16.6,7.3-51.3,3.4C2174.8,1071.3,2148.9,1066.4,2141.5,1060.5z"/>
			
				<linearGradient id="SVGID_00000104689062017159681360000000799997152714241681_" gradientUnits="userSpaceOnUse" x1="2137.106" y1="797.5952" x2="2202.6807" y2="1584.4984" gradientTransform="matrix(1 0 0 -1 0 2500)">
				<stop  offset="0" style="stop-color:#A12601"/>
				<stop  offset="0.2906" style="stop-color:#A12601"/>
				<stop  offset="0.4955" style="stop-color:#A12601"/>
				<stop  offset="0.674" style="stop-color:#A12601"/>
				<stop  offset="0.837" style="stop-color:#A12601"/>
				<stop  offset="0.9257" style="stop-color:#000000"/>
				<stop  offset="0.9888" style="stop-color:#000000"/>
			</linearGradient>
			<path style="fill:url(#SVGID_00000104689062017159681360000000799997152714241681_);" d="M2283.8,1077.7
				c-24.8-20.5-96.9-14.8-137.7-19.2c-40.9-4.4-103.5,33.3-133.2,117.5c-22.7,64.5-4,112.2-8,196.5c-0.4,7.8-0.8,15.8-1.6,24.3
				c-0.5,5.6-1.1,11.5-1.8,17.7c0,0.3-0.1,0.6-0.1,0.9c-0.6,5.9-1.3,12-2.1,18.3l0,0c-9.7,84.7-26.8,196.6-26.8,196.6
				s20.8,5.2,57.4,7.1c-3.1-19.8-6-47.8-3.8-75.5c3.4-43.5,19-126.7,23.6-150c9.5-5.8,18.4-12.6,24.7-20.7
				c22.2-28.7,49.5-65.2,63.9-147.3c14.4-82.1,17-162.9,23.5-165.5c6.5-2.6,47,23.5,79.5,15.6c32.6-7.8,57.4-5.2,61.3,45.6
				c3.9,50.8,10.4,340.3-22.1,434.1c-8.9,25.7-18.3,43-26.8,55.5c35.4-5.8,61.1-15.2,62.2-30.2
				C2318.9,1555.5,2385,1161.2,2283.8,1077.7z"/>
			
				<linearGradient id="SVGID_00000180338227084279807740000015516473042621863599_" gradientUnits="userSpaceOnUse" x1="1781.4954" y1="1110.0977" x2="1937.9253" y2="1274.3491" gradientTransform="matrix(1 0 0 -1 0 2500)">
				<stop  offset="0" style="stop-color:#FFD1AE"/>
				<stop  offset="1" style="stop-color:#F9AC78"/>
			</linearGradient>
			<path style="fill:url(#SVGID_00000180338227084279807740000015516473042621863599_);" d="M1918.1,1312.3c0,0-43,78.2-58.7,89.9
				c-15.6,11.7-161-43.3-240.2-43.3c-79.2,0-82.5,32.6-76.6,32.6c5.9,0,26.7-17,64.9-11.1c38.1,5.9,31.3,34.2,46,34.2
				c14.7,0,27.4-6.8,51.8,2c24.4,8.8,164.9,83.4,198.1,84.4s124.2-117.3,145.7-143.7c21.5-26.4-119.3-56.7-126.1-46.9"/>
			<g>
				<g>
					<path class="st19" d="M2200.9,1831.9l41-14.5l37.6,397.6c2.3,15.9,0.2,30.4-4.6,32.1c-4.8,1.7-11.5-10-14.9-26.1L2200.9,1831.9
						z"/>
					
						<linearGradient id="SVGID_00000165953590897211055150000013449919890406574517_" gradientUnits="userSpaceOnUse" x1="2479.0493" y1="1137.9324" x2="2479.0493" y2="947.4095" gradientTransform="matrix(0.9434 -0.3316 -0.2955 -0.8408 177.9731 3598.571)">
						<stop  offset="0" style="stop-color:#3C00FF"/>
						<stop  offset="0.1892" style="stop-color:#3B00FC"/>
						<stop  offset="0.3226" style="stop-color:#3900F3"/>
						<stop  offset="0.4388" style="stop-color:#3500E3"/>
						<stop  offset="0.5453" style="stop-color:#3000CD"/>
						<stop  offset="0.6451" style="stop-color:#2A00B1"/>
						<stop  offset="0.74" style="stop-color:#21008E"/>
						<stop  offset="0.831" style="stop-color:#180064"/>
						<stop  offset="0.9165" style="stop-color:#0D0035"/>
						<stop  offset="1" style="stop-color:#000000"/>
					</linearGradient>
					<path style="fill:url(#SVGID_00000165953590897211055150000013449919890406574517_);" d="M2200.9,1831.9l41-14.5l37.6,397.6
						c2.3,15.9,0.2,30.4-4.6,32.1c-4.8,1.7-11.5-10-14.9-26.1L2200.9,1831.9z"/>
				</g>
				<g>
					<path class="st19" d="M2205.2,1826.9l-42.9-6.5l27.5,443.9c0.4,18,4.7,33.4,9.8,34.2c4.9,0.7,9.7-13.6,10.5-31.9L2205.2,1826.9
						z"/>
					
						<linearGradient id="SVGID_00000142158958536678060170000004241053779735187123_" gradientUnits="userSpaceOnUse" x1="2125.8337" y1="677.8235" x2="2125.8337" y2="207.952" gradientTransform="matrix(0.9883 0.1523 0.1523 -0.9883 42.7706 1997.2791)">
						<stop  offset="0" style="stop-color:#3C00FF"/>
						<stop  offset="0.1892" style="stop-color:#3B00FC"/>
						<stop  offset="0.3226" style="stop-color:#3900F3"/>
						<stop  offset="0.4388" style="stop-color:#3500E3"/>
						<stop  offset="0.5453" style="stop-color:#3000CD"/>
						<stop  offset="0.6451" style="stop-color:#2A00B1"/>
						<stop  offset="0.74" style="stop-color:#21008E"/>
						<stop  offset="0.831" style="stop-color:#180064"/>
						<stop  offset="0.9165" style="stop-color:#0D0035"/>
						<stop  offset="1" style="stop-color:#000000"/>
					</linearGradient>
					<path style="fill:url(#SVGID_00000142158958536678060170000004241053779735187123_);" d="M2205.2,1826.9l-42.9-6.5l27.5,443.9
						c0.4,18,4.7,33.4,9.8,34.2c4.9,0.7,9.7-13.6,10.5-31.9L2205.2,1826.9z"/>
				</g>
				<g>
					<path class="st19" d="M1951.4,1818.3l43.4,1.5l-112.5,431c-3.8,17.6-11.1,31.9-16.2,31.7c-5.1-0.2-6.9-15.2-4.2-33.3
						L1951.4,1818.3z"/>
					
						<linearGradient id="SVGID_00000054224370312456579060000001604005736627204246_" gradientUnits="userSpaceOnUse" x1="2001.9655" y1="678.1146" x2="1878.7721" y2="367.1982" gradientTransform="matrix(1 0 0 -1 0 2500)">
						<stop  offset="0.2606" style="stop-color:#3C00FF"/>
						<stop  offset="0.3059" style="stop-color:#3800ED"/>
						<stop  offset="0.566" style="stop-color:#200089"/>
						<stop  offset="0.7759" style="stop-color:#0F003F"/>
						<stop  offset="0.9252" style="stop-color:#040012"/>
						<stop  offset="1" style="stop-color:#000000"/>
					</linearGradient>
					<path style="fill:url(#SVGID_00000054224370312456579060000001604005736627204246_);" d="M1951.4,1818.3l43.4,1.5l-112.5,431
						c-3.8,17.6-11.1,31.9-16.2,31.7c-5.1-0.2-6.9-15.2-4.2-33.3L1951.4,1818.3z"/>
				</g>
				<g>
					<path class="st19" d="M2460.9,1820.1l-43.4,5.4l112.6,392.6c3.8,16.1,11.1,28.8,16.1,28.2c5-0.6,7-14.8,4.2-31.5L2460.9,1820.1
						z"/>
					
						<linearGradient id="SVGID_00000028321175479253513230000000209571324800638653_" gradientUnits="userSpaceOnUse" x1="2525.1826" y1="773.0334" x2="2525.1826" y2="478.0016" gradientTransform="matrix(0.9971 -7.670000e-02 -7.940000e-02 -1.0329 7.8329 2754.5667)">
						<stop  offset="0.1829" style="stop-color:#3C00FF"/>
						<stop  offset="0.3375" style="stop-color:#3B00FC"/>
						<stop  offset="0.4465" style="stop-color:#3900F3"/>
						<stop  offset="0.5415" style="stop-color:#3500E3"/>
						<stop  offset="0.6284" style="stop-color:#3000CD"/>
						<stop  offset="0.71" style="stop-color:#2A00B1"/>
						<stop  offset="0.7875" style="stop-color:#21008E"/>
						<stop  offset="0.8619" style="stop-color:#180064"/>
						<stop  offset="0.9318" style="stop-color:#0D0035"/>
						<stop  offset="1" style="stop-color:#000000"/>
					</linearGradient>
					<path style="fill:url(#SVGID_00000028321175479253513230000000209571324800638653_);" d="M2460.9,1820.1l-43.4,5.4l112.6,392.6
						c3.8,16.1,11.1,28.8,16.1,28.2c5-0.6,7-14.8,4.2-31.5L2460.9,1820.1z"/>
				</g>
				<g>
					<path class="st20" d="M2547.8,1245.7c0-7.9-6.5-14.4-14.4-14.4h-4.8h-308.7l3.3,497.5l-12.6,64.9l-21.6,19.8l-48.7,25.2h317.3
						v0.1c86.9,0,90.1-56.4,90.3-150.4c0-0.1,0.1-0.1,0.1-0.2L2547.8,1245.7L2547.8,1245.7z"/>
					
						<linearGradient id="SVGID_00000018920160873533877540000004555629914418601866_" gradientUnits="userSpaceOnUse" x1="2344.0229" y1="1360.1844" x2="2344.0229" y2="625.4773" gradientTransform="matrix(1 0 0 -1 0 2500)">
						<stop  offset="8.720000e-02" style="stop-color:#3C00FF"/>
						<stop  offset="0.1722" style="stop-color:#3800EE"/>
						<stop  offset="0.3401" style="stop-color:#2E00C2"/>
						<stop  offset="0.5751" style="stop-color:#1D007C"/>
						<stop  offset="0.8653" style="stop-color:#07001C"/>
						<stop  offset="0.9455" style="stop-color:#000000"/>
					</linearGradient>
					<path style="fill:url(#SVGID_00000018920160873533877540000004555629914418601866_);" d="M2547.8,1245.7
						c0-7.9-6.5-14.4-14.4-14.4h-4.8h-308.7l3.3,497.5l-12.6,64.9l-21.6,19.8l-48.7,25.2h317.3v0.1c86.9,0,90.1-56.4,90.3-150.4
						c0-0.1,0.1-0.1,0.1-0.2L2547.8,1245.7L2547.8,1245.7z"/>
					<path class="st19" d="M2239.1,1245.7c0-7.9-6.5-14.4-14.4-14.4h-4.8c-7.9,0-14.4,6.5-14.4,14.4v431.8l0,0
						c0,106.8-5.1,125.5-46.8,127.6c-0.1,0-0.2-0.1-0.4-0.1h-293.8c-7.9,0-14.4,6.5-14.4,14.4v4.8c0,7.9,6.5,14.4,14.4,14.4h284.4
						v0.3c2.5,0,4.6-0.2,7-0.3h2.5c0.2,0,0.5-0.1,0.7-0.1c76.7-4.5,80-59.9,80.1-150c0-0.1,0-0.1,0-0.2L2239.1,1245.7L2239.1,1245.7
						z"/>
					<path class="st77" d="M2239.1,1245.7c0-7.9-6.5-14.4-14.4-14.4h-4.8c-7.9,0-14.4,6.5-14.4,14.4v431.8l0,0
						c0,106.8-5.1,125.5-46.8,127.6c-0.1,0-0.2-0.1-0.4-0.1h-293.8c-7.9,0-14.4,6.5-14.4,14.4v4.8c0,7.9,6.5,14.4,14.4,14.4h284.4
						v0.3c2.5,0,4.6-0.2,7-0.3h2.5c0.2,0,0.5-0.1,0.7-0.1c76.7-4.5,80-59.9,80.1-150c0-0.1,0-0.1,0-0.2L2239.1,1245.7L2239.1,1245.7
						z"/>
				</g>
			</g>
			
				<linearGradient id="SVGID_00000124159312443558531980000011661764554158530221_" gradientUnits="userSpaceOnUse" x1="2156.3389" y1="1098.0345" x2="1738.8907" y2="1079.4595" gradientTransform="matrix(1 0 0 -1 0 2500)">
				<stop  offset="0" style="stop-color:#B58767"/>
				<stop  offset="0.2906" style="stop-color:#B58767"/>
				<stop  offset="0.4955" style="stop-color:#B58767"/>
				<stop  offset="0.674" style="stop-color:#B58767"/>
				<stop  offset="0.837" style="stop-color:#B58767"/>
				<stop  offset="0.9028" style="stop-color:#B58767"/>
				<stop  offset="0.9888" style="stop-color:#B58767"/>
			</linearGradient>
			<path style="fill:url(#SVGID_00000124159312443558531980000011661764554158530221_);" d="M1999.6,1321.1
				c-14.4,24.1-70.5,116.8-94.3,138.8c-27.4,25.4-184.8-50.8-199.4-56.7c-14.5-5.8-63.4-0.1-64.4,0c3.5,6.3,5.9,11.4,12.1,11.4
				c14.7,0,27.4-6.8,51.8,2c24.4,8.8,164.9,83.4,198.1,84.4s124.2-117.3,145.7-143.7C2059.6,1344.5,2031.7,1330.7,1999.6,1321.1z"/>
			<path class="st43" d="M2111.7,1064c0,0-115.4,25.4-160.3,115.4c-45,90-43,129.1-43,129.1s109.5,54.8,156.4,54.8
				c23.5-31.3,29.3-66.5,48.9-115.4C2134.2,1196.4,2189.9,1065.9,2111.7,1064z"/>
		</g>
	</g>
</g>
</svg>
