<?xml version="1.0" encoding="UTF-8"?><svg id="a" xmlns="http://www.w3.org/2000/svg" xmlns:xlink="http://www.w3.org/1999/xlink" viewBox="0 0 2827.5 2155.7"><defs><style>.au{fill:url(#j);}.av{fill:url(#p);}.aw{fill:url(#m);}.ax{fill:url(#aa);}.ay{fill:url(#al);}.az{fill:url(#am);}.ba{fill:#fff;}.bb{fill:#3d3d3d;}.bc{fill:url(#aq);}.bd{fill:url(#r);}.be{fill:url(#h);}.bf{fill:url(#t);}.bg{fill:#d8d8d8;}.bh{fill:#073535;}.bi{fill:url(#i);}.bj{fill:url(#l);}.bk{fill:#025e55;}.bl{fill:url(#ah);}.bm{fill:url(#at);}.bn{fill:#e2e2e2;}.bo{fill:url(#af);}.bp{fill:#222;}.bq{fill:#a0a0a0;}.br{fill:url(#as);}.bs{fill:url(#ap);}.bt{fill:#be1e2d;}.bu{fill:url(#s);}.bv{fill:url(#q);}.bw{fill:url(#f);}.bx{fill:#c9c9c9;}.by{fill:url(#g);}.bz{fill:#a4eded;}.ca{fill:#06443f;}.cb{fill:#2584ff;}.cc{fill:#1c37d3;}.cd{fill:url(#n);}.ce{fill:url(#ad);}.cf{fill:url(#e);}.cg{fill:#01433c;}.ch{fill:url(#ai);}.ci{fill:#bc4b9b;}.cj{fill:#eaeaea;}.ck{fill:url(#v);}.cl{fill:url(#ar);}.cm{fill:url(#aj);}.cn{fill:url(#y);}.co{fill:url(#o);}.cp{fill:#1cd3d3;}.cq{fill:url(#d);}.cr{fill:#e5e5e5;}.cs{fill:url(#x);}.ct{fill:#ff3400;}.cu{fill:#d3d3d3;}.cv{fill:url(#b);}.cw{fill:none;}.cx{fill:url(#u);}.cy{fill:url(#ae);}.cz{fill:url(#z);}.da{fill:#0f3657;}.db{fill:#009fff;}.dc{fill:url(#ag);}.dd{fill:url(#an);}.de{fill:url(#c);}.df{fill:#ef4136;}.dg{fill:url(#w);}.dh{fill:#00d9ff;}.di{fill:url(#ao);}.dj{fill:#cecece;}.dk{fill:#0f36ff;}.dl{fill:#b5b5b5;}.dm{fill:#d2f6f6;}.dn{fill:url(#ab);}.do{fill:url(#k);}.dp{fill:#1e1e1e;}.dq{fill:url(#ac);}.dr{fill:#6a0e00;}.ds{fill:#254aff;}.dt{fill:url(#ak);}</style><linearGradient id="b" x1="792.8" y1="-1781.82" x2="792.8" y2="-29.31" gradientTransform="translate(0 1775)" gradientUnits="userSpaceOnUse"><stop offset="0" stop-color="#911efd"/><stop offset=".13" stop-color="#8f1ef9"/><stop offset=".26" stop-color="#881cee"/><stop offset=".39" stop-color="#7d1adb"/><stop offset=".51" stop-color="#6e17c0"/><stop offset=".63" stop-color="#5a139d"/><stop offset=".75" stop-color="#420e73"/><stop offset=".87" stop-color="#250841"/><stop offset=".99" stop-color="#040108"/><stop offset="1" stop-color="#000"/></linearGradient><linearGradient id="c" x1="1288.92" y1="-1781.82" x2="1288.92" y2="-29.3" gradientTransform="translate(0 1775)" gradientUnits="userSpaceOnUse"><stop offset="0" stop-color="#911efd"/><stop offset=".13" stop-color="#8f1ef9"/><stop offset=".26" stop-color="#881cee"/><stop offset=".39" stop-color="#7d1adb"/><stop offset=".51" stop-color="#6e17c0"/><stop offset=".63" stop-color="#5a139d"/><stop offset=".75" stop-color="#420e73"/><stop offset=".87" stop-color="#250841"/><stop offset=".99" stop-color="#040108"/><stop offset="1" stop-color="#000"/></linearGradient><linearGradient id="d" x1="1701.08" y1="-1781.82" x2="1701.08" y2="-29.3" gradientTransform="translate(0 1775)" gradientUnits="userSpaceOnUse"><stop offset="0" stop-color="#911efd"/><stop offset=".13" stop-color="#8f1ef9"/><stop offset=".26" stop-color="#881cee"/><stop offset=".39" stop-color="#7d1adb"/><stop offset=".51" stop-color="#6e17c0"/><stop offset=".63" stop-color="#5a139d"/><stop offset=".75" stop-color="#420e73"/><stop offset=".87" stop-color="#250841"/><stop offset=".99" stop-color="#040108"/><stop offset="1" stop-color="#000"/></linearGradient><linearGradient id="e" x1="2113.55" y1="-1781.79" x2="2113.55" y2="-29.33" gradientTransform="translate(0 1775)" gradientUnits="userSpaceOnUse"><stop offset="0" stop-color="#911efd"/><stop offset=".13" stop-color="#8f1ef9"/><stop offset=".26" stop-color="#881cee"/><stop offset=".39" stop-color="#7d1adb"/><stop offset=".51" stop-color="#6e17c0"/><stop offset=".63" stop-color="#5a139d"/><stop offset=".75" stop-color="#420e73"/><stop offset=".87" stop-color="#250841"/><stop offset=".99" stop-color="#040108"/><stop offset="1" stop-color="#000"/></linearGradient><linearGradient id="f" x1="2066.32" y1="-1781.82" x2="2066.32" y2="-29.29" gradientTransform="translate(0 1775)" gradientUnits="userSpaceOnUse"><stop offset="0" stop-color="#911efd"/><stop offset=".13" stop-color="#8f1ef9"/><stop offset=".26" stop-color="#881cee"/><stop offset=".39" stop-color="#7d1adb"/><stop offset=".51" stop-color="#6e17c0"/><stop offset=".63" stop-color="#5a139d"/><stop offset=".75" stop-color="#420e73"/><stop offset=".87" stop-color="#250841"/><stop offset=".99" stop-color="#040108"/><stop offset="1" stop-color="#000"/></linearGradient><linearGradient id="g" x1="814.15" y1="-1781.8" x2="814.15" y2="-29.33" gradientTransform="translate(0 1775)" gradientUnits="userSpaceOnUse"><stop offset="0" stop-color="#911efd"/><stop offset=".13" stop-color="#8f1ef9"/><stop offset=".26" stop-color="#881cee"/><stop offset=".39" stop-color="#7d1adb"/><stop offset=".51" stop-color="#6e17c0"/><stop offset=".63" stop-color="#5a139d"/><stop offset=".75" stop-color="#420e73"/><stop offset=".87" stop-color="#250841"/><stop offset=".99" stop-color="#040108"/><stop offset="1" stop-color="#000"/></linearGradient><linearGradient id="h" x1="517.7" y1="-1187.11" x2="1860.1" y2="-1187.11" gradientTransform="translate(0 1775)" gradientUnits="userSpaceOnUse"><stop offset="0" stop-color="#911efd"/><stop offset=".13" stop-color="#8f1ef9"/><stop offset=".26" stop-color="#881cee"/><stop offset=".39" stop-color="#7d1adb"/><stop offset=".51" stop-color="#6e17c0"/><stop offset=".63" stop-color="#5a139d"/><stop offset=".75" stop-color="#420e73"/><stop offset=".87" stop-color="#250841"/><stop offset=".99" stop-color="#040108"/><stop offset="1" stop-color="#000"/></linearGradient><linearGradient id="i" x1="1956.93" y1="-1682.74" x2="1956.93" y2="408.73" gradientTransform="translate(0 1775)" gradientUnits="userSpaceOnUse"><stop offset=".2" stop-color="#911efd"/><stop offset=".3" stop-color="#8f1ef9"/><stop offset=".4" stop-color="#881cee"/><stop offset=".5" stop-color="#7d1adb"/><stop offset=".6" stop-color="#6e17c0"/><stop offset=".7" stop-color="#5a139d"/><stop offset=".79" stop-color="#420e73"/><stop offset=".89" stop-color="#250841"/><stop offset=".98" stop-color="#040108"/><stop offset=".99" stop-color="#000"/></linearGradient><linearGradient id="j" x1="2985.02" y1="-1389.4" x2="2985.52" y2="-1389.4" gradientTransform="translate(0 1775)" gradientUnits="userSpaceOnUse"><stop offset="0" stop-color="#911efd"/><stop offset=".13" stop-color="#8f1ef9"/><stop offset=".26" stop-color="#881cee"/><stop offset=".39" stop-color="#7d1adb"/><stop offset=".51" stop-color="#6e17c0"/><stop offset=".63" stop-color="#5a139d"/><stop offset=".75" stop-color="#420e73"/><stop offset=".87" stop-color="#250841"/><stop offset=".99" stop-color="#040108"/><stop offset="1" stop-color="#000"/></linearGradient><linearGradient id="k" x1="1178.33" y1="-1766.17" x2="1178.33" y2="-13.66" gradientTransform="translate(0 1775)" gradientUnits="userSpaceOnUse"><stop offset="0" stop-color="#911efd"/><stop offset=".13" stop-color="#8f1ef9"/><stop offset=".26" stop-color="#881cee"/><stop offset=".39" stop-color="#7d1adb"/><stop offset=".51" stop-color="#6e17c0"/><stop offset=".63" stop-color="#5a139d"/><stop offset=".75" stop-color="#420e73"/><stop offset=".87" stop-color="#250841"/><stop offset=".99" stop-color="#040108"/><stop offset="1" stop-color="#000"/></linearGradient><linearGradient id="l" x1="1246.4" y1="287.7" x2="2626.9" y2="287.7" gradientTransform="translate(0 1775)" gradientUnits="userSpaceOnUse"><stop offset="0" stop-color="#fff"/><stop offset=".03" stop-color="#e1d8ff"/><stop offset=".08" stop-color="#bba6ff"/><stop offset=".13" stop-color="#9979ff"/><stop offset=".18" stop-color="#7c54ff"/><stop offset=".23" stop-color="#6535ff"/><stop offset=".28" stop-color="#531eff"/><stop offset=".34" stop-color="#460dff"/><stop offset=".4" stop-color="#3e03ff"/><stop offset=".48" stop-color="#3c00ff"/><stop offset=".61" stop-color="#3e02ff"/><stop offset=".68" stop-color="#440aff"/><stop offset=".74" stop-color="#4f18ff"/><stop offset=".79" stop-color="#5e2cff"/><stop offset=".83" stop-color="#7145ff"/><stop offset=".87" stop-color="#8965ff"/><stop offset=".91" stop-color="#a68aff"/><stop offset=".95" stop-color="#c7b5ff"/><stop offset=".98" stop-color="#ebe5ff"/><stop offset="1" stop-color="#fff"/></linearGradient><linearGradient id="m" x1="1948.3" y1="348.3" x2="2296.4" y2="348.3" gradientTransform="translate(0 1775)" gradientUnits="userSpaceOnUse"><stop offset="0" stop-color="#fff"/><stop offset=".03" stop-color="#e1d8ff"/><stop offset=".07" stop-color="#bba6ff"/><stop offset=".12" stop-color="#9979ff"/><stop offset=".16" stop-color="#7c54ff"/><stop offset=".21" stop-color="#6535ff"/><stop offset=".26" stop-color="#531eff"/><stop offset=".31" stop-color="#460dff"/><stop offset=".37" stop-color="#3e03ff"/><stop offset=".44" stop-color="#3c00ff"/><stop offset=".58" stop-color="#3e02ff"/><stop offset=".66" stop-color="#440aff"/><stop offset=".72" stop-color="#4f18ff"/><stop offset=".77" stop-color="#5e2cff"/><stop offset=".82" stop-color="#7145ff"/><stop offset=".86" stop-color="#8965ff"/><stop offset=".91" stop-color="#a68aff"/><stop offset=".95" stop-color="#c7b5ff"/><stop offset=".98" stop-color="#ebe5ff"/><stop offset="1" stop-color="#fff"/></linearGradient><linearGradient id="n" x1="41.8" y1="292.9" x2="535.9" y2="292.9" gradientTransform="translate(0 1775)" gradientUnits="userSpaceOnUse"><stop offset="0" stop-color="#fff"/><stop offset=".03" stop-color="#e1d8ff"/><stop offset=".08" stop-color="#bba6ff"/><stop offset=".13" stop-color="#9979ff"/><stop offset=".18" stop-color="#7c54ff"/><stop offset=".23" stop-color="#6535ff"/><stop offset=".28" stop-color="#531eff"/><stop offset=".34" stop-color="#460dff"/><stop offset=".4" stop-color="#3e03ff"/><stop offset=".48" stop-color="#3c00ff"/><stop offset=".61" stop-color="#3e02ff"/><stop offset=".68" stop-color="#440aff"/><stop offset=".74" stop-color="#4f18ff"/><stop offset=".79" stop-color="#5e2cff"/><stop offset=".83" stop-color="#7145ff"/><stop offset=".87" stop-color="#8965ff"/><stop offset=".91" stop-color="#a68aff"/><stop offset=".95" stop-color="#c7b5ff"/><stop offset=".98" stop-color="#ebe5ff"/><stop offset="1" stop-color="#fff"/></linearGradient><linearGradient id="o" x1="723.7" y1="292.9" x2="1318.1" y2="292.9" gradientTransform="translate(0 1775)" gradientUnits="userSpaceOnUse"><stop offset="0" stop-color="#fff"/><stop offset=".03" stop-color="#e1d8ff"/><stop offset=".08" stop-color="#bba6ff"/><stop offset=".13" stop-color="#9979ff"/><stop offset=".18" stop-color="#7c54ff"/><stop offset=".23" stop-color="#6535ff"/><stop offset=".28" stop-color="#531eff"/><stop offset=".34" stop-color="#460dff"/><stop offset=".4" stop-color="#3e03ff"/><stop offset=".48" stop-color="#3c00ff"/><stop offset=".61" stop-color="#3e02ff"/><stop offset=".68" stop-color="#440aff"/><stop offset=".74" stop-color="#4f18ff"/><stop offset=".79" stop-color="#5e2cff"/><stop offset=".83" stop-color="#7145ff"/><stop offset=".87" stop-color="#8965ff"/><stop offset=".91" stop-color="#a68aff"/><stop offset=".95" stop-color="#c7b5ff"/><stop offset=".98" stop-color="#ebe5ff"/><stop offset="1" stop-color="#fff"/></linearGradient><linearGradient id="p" x1="1759.06" y1="-542.9" x2="1759.06" y2="634.67" gradientTransform="translate(0 1775)" gradientUnits="userSpaceOnUse"><stop offset="0" stop-color="#01433c"/><stop offset="1" stop-color="#000"/></linearGradient><linearGradient id="q" x1="2147.14" y1="-542.9" x2="2147.14" y2="582.8" gradientTransform="translate(0 1775)" gradientUnits="userSpaceOnUse"><stop offset="0" stop-color="#01433c"/><stop offset=".98" stop-color="#000"/></linearGradient><linearGradient id="r" x1="142.23" y1="-502.65" x2="2183.57" y2="-502.65" gradientTransform="translate(0 1775)" gradientUnits="userSpaceOnUse"><stop offset="0" stop-color="#01433c"/><stop offset=".28" stop-color="#01433c"/><stop offset=".48" stop-color="#01433c"/><stop offset=".66" stop-color="#01433c"/><stop offset=".82" stop-color="#000"/><stop offset=".97" stop-color="#f8f8f8"/><stop offset="1" stop-color="#000"/></linearGradient><linearGradient id="s" x1="1072.95" y1="-173.13" x2="1072.95" y2="-1037.28" gradientTransform="translate(0 1775)" gradientUnits="userSpaceOnUse"><stop offset="0" stop-color="#a0a0a0"/><stop offset=".27" stop-color="#a3a3a3"/><stop offset=".47" stop-color="#acacac"/><stop offset=".63" stop-color="#bcbcbc"/><stop offset=".79" stop-color="#d2d2d2"/><stop offset=".93" stop-color="#eee"/><stop offset="1" stop-color="#fff"/></linearGradient><linearGradient id="t" x1="1508.1" y1="-168.26" x2="1508.1" y2="-1158.87" gradientTransform="translate(0 1775)" gradientUnits="userSpaceOnUse"><stop offset="0" stop-color="#e0e0e0"/><stop offset=".41" stop-color="#e3e3e3"/><stop offset=".7" stop-color="#ececec"/><stop offset=".96" stop-color="#fcfcfc"/><stop offset="1" stop-color="#fff"/></linearGradient><linearGradient id="u" x1="1494.25" y1="-764.8" x2="1494.25" y2="-593.97" gradientTransform="translate(0 1775)" gradientUnits="userSpaceOnUse"><stop offset="0" stop-color="#a0a0a0"/><stop offset=".27" stop-color="#a3a3a3"/><stop offset=".47" stop-color="#acacac"/><stop offset=".63" stop-color="#bcbcbc"/><stop offset=".79" stop-color="#d2d2d2"/><stop offset=".93" stop-color="#eee"/><stop offset="1" stop-color="#fff"/></linearGradient><linearGradient id="v" x1="1165.2" y1="-1607.31" x2="1165.2" y2="-1077.58" gradientTransform="translate(0 1775)" gradientUnits="userSpaceOnUse"><stop offset="0" stop-color="#3d3d3d"/><stop offset=".21" stop-color="#404040"/><stop offset=".36" stop-color="#494949"/><stop offset=".49" stop-color="#595959"/><stop offset=".6" stop-color="#6f6f6f"/><stop offset=".71" stop-color="#8b8b8b"/><stop offset=".82" stop-color="#aeaeae"/><stop offset=".92" stop-color="#d7d7d7"/><stop offset="1" stop-color="#fff"/></linearGradient><linearGradient id="w" x1="1767.2" y1="-1544.34" x2="1767.2" y2="-1155.95" gradientTransform="translate(0 1775)" gradientUnits="userSpaceOnUse"><stop offset="0" stop-color="#afafaf"/><stop offset=".29" stop-color="#b2b2b2"/><stop offset=".5" stop-color="#bbb"/><stop offset=".67" stop-color="#cbcbcb"/><stop offset=".84" stop-color="#e0e0e0"/><stop offset=".99" stop-color="#fdfdfd"/><stop offset="1" stop-color="#fff"/></linearGradient><linearGradient id="x" x1="1795.15" y1="-1156.88" x2="1795.15" y2="-652" gradientTransform="translate(0 1775)" gradientUnits="userSpaceOnUse"><stop offset="0" stop-color="#2584ff"/><stop offset=".09" stop-color="#2986ff"/><stop offset=".18" stop-color="#368eff"/><stop offset=".28" stop-color="#4c9aff"/><stop offset=".38" stop-color="#6babff"/><stop offset=".48" stop-color="#92c1ff"/><stop offset=".58" stop-color="#c2dcff"/><stop offset=".69" stop-color="#f9fcff"/><stop offset=".7" stop-color="#fff"/></linearGradient><linearGradient id="y" x1="1135.85" y1="-1137.94" x2="1135.85" y2="-639.29" gradientTransform="translate(0 1775)" gradientUnits="userSpaceOnUse"><stop offset="0" stop-color="#2584ff"/><stop offset=".17" stop-color="#4496ff"/><stop offset=".54" stop-color="#94c3ff"/><stop offset="1" stop-color="#fff"/></linearGradient><linearGradient id="z" x1="1424.9" y1="-987.41" x2="1424.9" y2="-689.9" gradientTransform="translate(0 1775)" gradientUnits="userSpaceOnUse"><stop offset="0" stop-color="#a0a0a0"/><stop offset=".36" stop-color="#bfbfbf"/><stop offset="1" stop-color="#fff"/></linearGradient><linearGradient id="aa" x1="402.51" y1="-582.01" x2="402.51" y2="308.41" gradientTransform="translate(0 1775)" gradientUnits="userSpaceOnUse"><stop offset="0" stop-color="#01433c"/><stop offset=".28" stop-color="#01433c"/><stop offset=".48" stop-color="#01433c"/><stop offset=".97" stop-color="#000"/></linearGradient><linearGradient id="ab" x1="790.51" y1="-582.01" x2="790.51" y2="525.67" gradientTransform="translate(0 1775)" gradientUnits="userSpaceOnUse"><stop offset="0" stop-color="#01433c"/><stop offset=".97" stop-color="#000"/></linearGradient><linearGradient id="ac" x1="1504" y1="-568.7" x2="1504" y2="-511.64" gradientTransform="translate(0 1775)" gradientUnits="userSpaceOnUse"><stop offset="0" stop-color="#e0e0e0"/><stop offset=".41" stop-color="#e3e3e3"/><stop offset=".7" stop-color="#ececec"/><stop offset=".96" stop-color="#fcfcfc"/><stop offset="1" stop-color="#fff"/></linearGradient><linearGradient id="ad" x1="1504" y1="-455.37" x2="1504" y2="-550.3" gradientTransform="translate(0 1775)" gradientUnits="userSpaceOnUse"><stop offset="0" stop-color="#a0a0a0"/><stop offset=".27" stop-color="#a3a3a3"/><stop offset=".47" stop-color="#acacac"/><stop offset=".63" stop-color="#bcbcbc"/><stop offset=".79" stop-color="#d2d2d2"/><stop offset=".93" stop-color="#eee"/><stop offset="1" stop-color="#fff"/></linearGradient><linearGradient id="ae" x1="761.57" y1="-514.54" x2="865.86" y2="-777.86" gradientTransform="translate(0 1775)" gradientUnits="userSpaceOnUse"><stop offset="0" stop-color="#afafaf"/><stop offset=".29" stop-color="#b2b2b2"/><stop offset=".5" stop-color="#bbb"/><stop offset=".67" stop-color="#cbcbcb"/><stop offset=".84" stop-color="#e0e0e0"/><stop offset=".99" stop-color="#fdfdfd"/><stop offset="1" stop-color="#fff"/></linearGradient><linearGradient id="af" x1="746.08" y1="-896.6" x2="607.26" y2="-541.52" gradientTransform="translate(0 1775)" gradientUnits="userSpaceOnUse"><stop offset="0" stop-color="#afafaf"/><stop offset=".29" stop-color="#b2b2b2"/><stop offset=".5" stop-color="#bbb"/><stop offset=".67" stop-color="#cbcbcb"/><stop offset=".84" stop-color="#e0e0e0"/><stop offset=".99" stop-color="#fdfdfd"/><stop offset="1" stop-color="#fff"/></linearGradient><linearGradient id="ag" x1="998.32" y1="-740.08" x2="824.79" y2="-465.23" gradientTransform="translate(0 1775)" gradientUnits="userSpaceOnUse"><stop offset="0" stop-color="#afafaf"/><stop offset=".29" stop-color="#b2b2b2"/><stop offset=".5" stop-color="#bbb"/><stop offset=".67" stop-color="#cbcbcb"/><stop offset=".84" stop-color="#e0e0e0"/><stop offset=".99" stop-color="#fdfdfd"/><stop offset="1" stop-color="#fff"/></linearGradient><linearGradient id="ah" x1="1468.53" y1="257.65" x2="1531.01" y2="93.03" gradientTransform="translate(0 1775)" gradientUnits="userSpaceOnUse"><stop offset="0" stop-color="#ffd1ae"/><stop offset="1" stop-color="#f9ac78"/></linearGradient><linearGradient id="ai" x1="3012.12" y1="-863.95" x2="3074.61" y2="-1028.59" gradientTransform="translate(-58.97 4536.57) rotate(-36.86)" gradientUnits="userSpaceOnUse"><stop offset="0" stop-color="#ffd1ae"/><stop offset="1" stop-color="#f9ac78"/></linearGradient><linearGradient id="aj" x1="2069.93" y1="-902.68" x2="2069.93" y2="-634.79" gradientTransform="translate(0 1775)" gradientUnits="userSpaceOnUse"><stop offset="0" stop-color="#e72100"/><stop offset="1" stop-color="#e93701"/></linearGradient><linearGradient id="ak" x1="1998.52" y1="-1367.35" x2="1886.72" y2="-1093.17" gradientTransform="translate(232.21 2116.59) rotate(-5.04) scale(1 .94)" gradientUnits="userSpaceOnUse"><stop offset="0" stop-color="#ffd1ae"/><stop offset="1" stop-color="#f9ac78"/></linearGradient><linearGradient id="al" x1="2098.79" y1="-1158.02" x2="2013.23" y2="-948.21" gradientTransform="translate(0 1775)" gradientUnits="userSpaceOnUse"><stop offset="0" stop-color="#e72100"/><stop offset="1" stop-color="#e93701"/></linearGradient><linearGradient id="am" x1="2050.8" y1="-244.7" x2="2116.37" y2="-1031.6" gradientTransform="translate(0 1775)" gradientUnits="userSpaceOnUse"><stop offset="0" stop-color="#a12601"/><stop offset=".29" stop-color="#a12601"/><stop offset=".5" stop-color="#a12601"/><stop offset=".67" stop-color="#a12601"/><stop offset=".84" stop-color="#a12601"/><stop offset=".93" stop-color="#000"/><stop offset=".99" stop-color="#000"/></linearGradient><linearGradient id="an" x1="1695.14" y1="-557.25" x2="1851.57" y2="-721.5" gradientTransform="translate(0 1775)" gradientUnits="userSpaceOnUse"><stop offset="0" stop-color="#ffd1ae"/><stop offset="1" stop-color="#f9ac78"/></linearGradient><linearGradient id="ao" x1="2739.44" y1="-983.03" x2="2739.44" y2="-792.5" gradientTransform="translate(-199.76 3382.57) rotate(-19.37) scale(1 .89)" gradientUnits="userSpaceOnUse"><stop offset="0" stop-color="#3c00ff"/><stop offset=".19" stop-color="#3b00fc"/><stop offset=".32" stop-color="#3900f3"/><stop offset=".44" stop-color="#3500e3"/><stop offset=".55" stop-color="#3000cd"/><stop offset=".65" stop-color="#2a00b1"/><stop offset=".74" stop-color="#21008e"/><stop offset=".83" stop-color="#180064"/><stop offset=".92" stop-color="#0d0035"/><stop offset="1" stop-color="#000"/></linearGradient><linearGradient id="ap" x1="1915.29" y1="27.04" x2="1915.29" y2="496.92" gradientTransform="translate(271.94 1160.63) rotate(8.76)" gradientUnits="userSpaceOnUse"><stop offset="0" stop-color="#3c00ff"/><stop offset=".19" stop-color="#3b00fc"/><stop offset=".32" stop-color="#3900f3"/><stop offset=".44" stop-color="#3500e3"/><stop offset=".55" stop-color="#3000cd"/><stop offset=".65" stop-color="#2a00b1"/><stop offset=".74" stop-color="#21008e"/><stop offset=".83" stop-color="#180064"/><stop offset=".92" stop-color="#0d0035"/><stop offset="1" stop-color="#000"/></linearGradient><linearGradient id="aq" x1="1915.63" y1="-125.23" x2="1792.44" y2="185.69" gradientTransform="translate(0 1775)" gradientUnits="userSpaceOnUse"><stop offset=".26" stop-color="#3c00ff"/><stop offset=".31" stop-color="#3800ed"/><stop offset=".57" stop-color="#200089"/><stop offset=".78" stop-color="#0f003f"/><stop offset=".93" stop-color="#040012"/><stop offset="1" stop-color="#000"/></linearGradient><linearGradient id="ar" x1="2509.66" y1="-255.69" x2="2509.66" y2="39.35" gradientTransform="translate(-104.05 2046.91) rotate(-4.4) scale(1 1.04)" gradientUnits="userSpaceOnUse"><stop offset=".18" stop-color="#3c00ff"/><stop offset=".34" stop-color="#3b00fc"/><stop offset=".45" stop-color="#3900f3"/><stop offset=".54" stop-color="#3500e3"/><stop offset=".63" stop-color="#3000cd"/><stop offset=".71" stop-color="#2a00b1"/><stop offset=".79" stop-color="#21008e"/><stop offset=".86" stop-color="#180064"/><stop offset=".93" stop-color="#0d0035"/><stop offset="1" stop-color="#000"/></linearGradient><linearGradient id="as" x1="2257.85" y1="-807.28" x2="2257.85" y2="-72.58" gradientTransform="translate(0 1775)" gradientUnits="userSpaceOnUse"><stop offset=".09" stop-color="#3c00ff"/><stop offset=".17" stop-color="#3800ee"/><stop offset=".34" stop-color="#2e00c2"/><stop offset=".58" stop-color="#1d007c"/><stop offset=".87" stop-color="#07001c"/><stop offset=".95" stop-color="#000"/></linearGradient><linearGradient id="at" x1="2070.04" y1="-545.14" x2="1652.59" y2="-526.57" gradientTransform="translate(0 1775)" gradientUnits="userSpaceOnUse"><stop offset="0" stop-color="#b58767"/><stop offset=".29" stop-color="#b58767"/><stop offset=".5" stop-color="#b58767"/><stop offset=".67" stop-color="#b58767"/><stop offset=".84" stop-color="#b58767"/><stop offset=".9" stop-color="#b58767"/><stop offset=".99" stop-color="#b58767"/></linearGradient></defs><g><path class="cv" d="M1551.4,753.5c-1,1.8-53,88.9-155.1,193-20.4-28.6-62.3-76.6-120-89.7-83.7-19-169.1,42.5-169.1,42.5,0,0,50.4,92.5,134.1,111.5,33.1,7.5,66.3,2.4,94.5-6.5-46.3,41.5-99.9,83.6-161,122.6-14.5-31.1-47.4-88.5-103.8-112.3-79.1-33.4-173.9,12.3-173.9,12.3,0,0,33.3,99.8,112.4,133.3,30,12.7,62.1,13.9,90.7,10.7-56.7,30.4-118.5,57.6-185.8,78.9-6.3,2-12.4,3.8-18.7,5.7-8.2-31.1-31.7-98.5-86.7-132.6-72.9-45.3-173.8-14.9-173.8-14.9,0,0,17.5,103.8,90.4,149.1,24.6,15.3,52.3,21.8,78.3,23.9-81.4,20.3-154,32-217.7,38.2-2.9-33.1-14.5-101.1-61.4-143.4-63.7-57.5-168.3-45.6-168.3-45.6,0,0-1.3,105.3,62.4,162.8,16.2,14.7,35.1,24.8,54.2,31.8-107.1-.2-174.7-16.6-199.8-24.1-21.1-22.1-68.4-64.2-126.2-67.8-78.8-4.9-147.1,63.7-147.1,63.7,0,0,59.4,76.4,138.2,81.3,47.9,3,92-21.3,119.1-40.7,13.4,4.4,40.8,12,81.7,18.2-24.3,8-49,20.5-69,40.4-60.8,60.6-54.4,165.7-54.4,165.7,0,0,105,6.8,165.9-53.8,43.6-43.4,52.6-109.5,54.2-143.6,48.3,1.8,105.7,.4,172.2-7-16.7,10.1-32.7,23.1-45.4,39.6-52.4,68.1-32.2,171.4-32.2,171.4,0,0,105-7,157.4-75,39-50.8,37.7-121,34.5-153.6,62.2-12,130.1-28.8,204.1-52.2,2.7-.9,5.3-1.9,8-2.7-18.1,13-35.1,29.5-47.3,50.3-43.4,74.1-10.5,174.1-10.5,174.1,0,0,103.4-20,146.8-94.1,37.5-64,18-147.3,12.1-168.8,75.4-33,143.1-72.5,203.1-114.4-11.9,21-21,45.3-22.9,71.7-6,85.6,68,160.6,68,160.6,0,0,83.7-63.9,89.6-149.6,4.3-61.7-32.7-117.5-53.8-144.1,175.7-144.8,264.8-294.6,266.2-297l-34.2-19.8Z"/><path class="de" d="M1459.3,598.7c-33.2-2.1-93.4-.2-137.5,34.3-64,50-70,149.4-70,149.4,0,0,97.9,18.4,162-31.6,25.3-19.7,41.4-47.1,51.7-73.1,2.8,58.8,1.6,123.3-6.4,191.4-31.5-8-93.3-18.1-144.4,8.9-71.8,38-95.1,134.9-95.1,134.9,0,0,93.2,35.3,165-2.7,27.2-14.4,47.4-37.2,62.1-60.1-11.6,59.8-28.7,121.4-53.3,183.5-2.3,5.9-4.6,11.4-7,17.1-27.7-12.6-91.1-35.7-149.1-15.7-76.8,26.4-114.8,118.5-114.8,118.5,0,0,86.6,49.3,163.4,22.9,25.9-8.9,47.3-25.4,64.4-43.1-33.8,71.8-68.7,132.1-102.2,182.4-26-17.7-82.9-49.8-142-40.8-80.3,12.3-134.1,96.1-134.1,96.1,0,0,76.4,64,156.7,51.6,20.5-3.1,39.1-10.9,55.7-20.8-64.2,78.4-116.7,118.2-137.2,132.1-28.9,2.2-88,11.7-125.3,52-50.7,54.8-41.3,146-41.3,146,0,0,91.6,2.2,142.3-52.7,30.9-33.4,39.4-80.1,41.4-111.6,11.2-7.3,33.2-22.7,62.3-49-8.6,22.6-14.3,48.2-11.6,74.8,8.1,80.8,89,139,89,139,0,0,67.9-72.9,59.8-153.8-5.8-58-48.8-104.1-72.9-125.7,30.2-34.3,63.5-77.2,97.9-130.4-2.6,18.3-2.6,37.7,1.9,57,18.6,79.1,106.4,126.1,106.4,126.1,0,0,57.7-81.2,39.1-160.3-13.9-59-66.2-100.1-91.9-117.2,28.5-52.8,56.7-112.6,83.8-180.9,.9-2.5,1.8-5,2.8-7.5-1.2,21.1,.6,43.3,8.6,64.7,28.3,76.2,121.4,111.8,121.4,111.8,0,0,47.1-87.8,18.8-163.9-24.5-65.8-97.3-101.3-116.6-109.8,20.9-75,32.4-148.3,37.6-217.4,8.3,21.3,20.6,42.6,38.8,59.7,59.2,55.6,158.4,46.2,158.4,46.2,0,0,3.1-99.6-56.1-155.2-42.7-40.1-105.8-46.3-137.9-46.8-.8-215.3-59.8-267.5-44.6-130.3Z"/><path class="cq" d="M1530.9,580.2c33.2-2.1,93.4-.2,137.6,34.3,64,50,70,149.4,70,149.4,0,0-97.9,18.4-162-31.6-25.3-19.7-41.4-47.1-51.7-73.1-2.8,58.8-1.6,123.3,6.4,191.4,31.5-8,93.3-18.1,144.4,8.9,71.8,38,95,134.9,95,134.9,0,0-93.2,35.3-165-2.7-27.2-14.4-47.4-37.2-62.1-60.1,11.6,59.8,28.7,121.4,53.3,183.5,2.3,5.9,4.6,11.4,7,17.1,27.7-12.6,91.1-35.7,149.1-15.7,76.8,26.4,114.8,118.5,114.8,118.5,0,0-86.6,49.3-163.4,22.9-25.9-8.9-47.3-25.4-64.4-43.1,33.9,71.8,68.7,132.1,102.2,182.4,26-17.7,82.9-49.8,141.9-40.8,80.3,12.3,134.1,96.1,134.1,96.1,0,0-76.4,64-156.7,51.6-20.5-3.1-39.1-10.9-55.7-20.8,64.2,78.4,116.7,118.2,137.1,132.1,28.9,2.2,88,11.7,125.3,52,50.7,54.8,41.3,146,41.3,146,0,0-91.6,2.2-142.3-52.7-30.9-33.4-39.4-80.1-41.4-111.6-11.2-7.3-33.2-22.7-62.3-49,8.6,22.6,14.3,48.2,11.6,74.8-8.1,80.8-89,139-89,139,0,0-67.9-72.9-59.8-153.8,5.8-58,48.9-104.1,72.9-125.7-30.2-34.3-63.5-77.2-97.9-130.4,2.6,18.3,2.6,37.7-1.9,57-18.6,79.1-106.4,126.1-106.4,126.1,0,0-57.7-81.2-39.1-160.3,13.9-59,66.2-100.1,91.9-117.2-28.5-52.8-56.7-112.6-83.8-180.9-1-2.5-1.8-5-2.8-7.5,1.2,21.1-.6,43.4-8.6,64.7-28.3,76.2-121.4,111.8-121.4,111.8,0,0-47.1-87.8-18.8-163.9,24.5-65.8,97.3-101.4,116.6-109.8-20.9-75-32.4-148.3-37.6-217.3-8.3,21.3-20.6,42.6-38.8,59.7-59.2,55.6-158.4,46.2-158.4,46.2,0,0-3.1-99.6,56.1-155.2,42.7-40.1,105.7-46.4,137.9-46.8,1-215.4,60-267.6,44.8-130.4Z"/><path class="cf" d="M1469.5,821.6c14.6-29.9,46.1-81.3,97.9-102.5,75.2-30.9,164.5,13.2,164.5,13.2,0,0-32.5,94.2-107.6,125.1-29.7,12.2-61.4,12.6-89.2,8.7,49.7,31.5,106.4,62.4,169.5,89.2,8.6-31.3,30.4-90,79.2-121.1,68.6-43.6,164.2-15.8,164.2-15.8,0,0-15.4,98.4-84,142-26,16.5-55.8,22.7-82.9,24.2,57.6,19.5,119.6,35.2,185.8,44.5,6.2,.9,12.2,1.6,18.3,2.4,2.8-30.3,14.1-96.8,60.1-137.3,61-53.7,159.8-41.1,159.8-41.1,0,0,0,99.6-61,153.3-20.6,18.1-45.5,28.5-69.4,34.6,79.2,6.2,148.8,5.7,209.1,1.5-2.5-31.3-2.3-96.7,34.9-143.5,50.4-63.7,149.9-68.9,149.9-68.9,0,0,17.7,98.1-32.7,161.7-12.8,16.2-28.9,28.6-45.6,38.1,99.9-17,160.5-42.9,182.7-53.8,16.2-24,53.8-70.7,107.2-83.1,72.7-16.9,147.3,36.4,147.3,36.4,0,0-43.4,80.6-116.2,97.5-44.3,10.3-89.1-5.4-117.5-19.3-11.9,6.2-36.2,17.6-73.4,29.8,23.9,3.7,48.9,11.5,70.8,26.9,66.2,47,76.7,146.1,76.7,146.1,0,0-96.9,22.9-163.2-24.1-47.5-33.7-66.2-94-73.1-125.5-44.8,9.3-98.6,17-161.7,20.5,17.2,6.8,34.1,16.4,48.6,29.8,59.5,55.3,56.9,154.9,56.9,154.9,0,0-99.1,10-158.7-45.4-44.4-41.2-54.2-107-56.3-137.9-59.9-1.4-126-6.4-198.7-16.8-2.6-.4-5.3-.9-7.9-1.2,18.9,9.3,37.4,22,52,39.5,52.2,62.3,37.1,160.8,37.1,160.8,0,0-99.6-2.5-151.7-64.8-45.1-53.9-39.9-134.7-37.7-155.6-75.6-19-144.9-45.2-207.5-74.9,14.4,17.8,26.7,39,32.6,63.3,19,79-38.3,160.5-38.3,160.5,0,0-88.1-46.5-107.1-125.5-13.7-56.9,12.1-114.8,27.7-143-186.9-107.4-203-184.6-91.4-103.4Z"/><path class="bw" d="M1560,1003c-12.9-30.7-30.7-88.2-12.6-141.2,26.2-76.9,118.3-115,118.3-115,0,0,49.4,86.5,23.2,163.4-10.4,30.4-31,54.5-52.2,72.8,56.4-16.6,117-38.9,178.8-68.7-17.9-27.1-47.7-82.2-38.8-139.4,12.4-80.3,96.3-134,96.3-134,0,0,63.8,76.5,51.4,156.8-4.7,30.4-19.7,57-36.5,78.3,52.7-30.5,105.3-66.9,155.9-110.4,4.8-4.1,9.3-8.1,13.9-12.2-21-22.1-63.6-74.4-63.7-135.7-.2-81.2,74.4-147.3,74.4-147.3,0,0,74.9,65.6,75.1,146.9,.1,27.4-8.5,53-19.6,75,56.8-55.5,102.4-108.1,138.9-156.3-25.2-18.8-74.2-62-85-120.8-14.7-79.9,46.9-158.2,46.9-158.2,0,0,85.5,51.2,100.1,131.1,3.8,20.4,2.5,40.6-1.4,59.5,53.1-86.4,73.4-148.9,79.9-172.9-7.4-28-17.7-87,8.1-135.4,35.2-65.9,124.4-86.8,124.4-86.8,0,0,32.1,85.8-3.2,151.7-21.4,40.1-62.8,63.5-91.9,75.7-3.2,13-10.6,38.8-25.9,74.9,18.5-15.6,40.9-29.3,66.9-35.5,79-18.9,160.5,38.5,160.5,38.5,0,0-46.7,88-125.7,106.9-56.7,13.5-114.4-12.1-142.7-27.7-22.5,39.8-52.2,85.3-91.2,135.2,16.4-8.4,34.8-14.8,54.5-16.9,80.8-8.3,154,59.3,154,59.3,0,0-57.8,81.1-138.6,89.5-60.3,6.2-116.2-29.8-140.8-48.5-40.5,44.2-87.8,90.5-143.5,138.4-2.1,1.7-4.2,3.4-6.2,5.1,19.5-8.1,41.2-13.6,64-13.1,81.3,1.9,145.4,78.1,145.4,78.1,0,0-67.5,73.3-148.8,71.4-70.2-1.6-127.6-58.7-141.9-74.2-64.1,44.3-129.5,79.2-193.1,106.7,22.8,.9,47,5.6,69.1,17.2,72,37.7,95.5,134.6,95.5,134.6,0,0-93,35.6-165-2.2-51.8-27.2-78.4-84.7-89.3-115-203.9,69.6-272.5,30.9-137.9,.4Z"/><path class="by" d="M1593.5,753.8c-1.7,1.1-83.4,55.4-216,103.5-5.9-33.5-22.3-92.8-67.1-128.4-65.1-51.6-165.3-33.6-165.3-33.6,0,0,5.3,101.7,70.3,153.3,25.7,20.4,56.8,29.8,85.1,33.8-57.7,16.9-122.1,31.2-191.7,39.7,.4-33.2-4.4-97.1-43.6-141.4-55-62.2-156.9-62-156.9-62,0,0-12.6,101.2,42.4,163.4,20.9,23.6,48.4,38.1,74.6,47.2-62.1,2.9-127.5,.7-195.1-8.9-6.3-.9-12.5-1.9-18.7-2.8,5.9-30.6,13.6-99.1-20.2-151.9-44.7-70-145.3-85.6-145.3-85.6,0,0-28.2,97.9,16.5,167.9,15.1,23.6,36.5,40.9,58.3,53.6-79.5-16.3-147.8-36.4-205.8-57.7,11.3-30.1,29.6-94.3,6.3-150.8-31.4-76.9-127.6-110.2-127.6-110.2,0,0-45.2,91.3-13.6,168.1,8,19.6,20.3,36.3,34,50.4-93.4-44.9-145.5-87.5-164.2-104.5-9.2-28.2-32.8-84.6-81.8-111.9-66.7-37.2-155-6-155-6,0,0,19.9,91.5,86.6,128.7,40.5,22.7,89.1,19.9,120.9,14.3,9.9,9.4,30.6,27.6,63.7,50.1-24.5-3.2-51.3-2.6-77.1,6.4-78.5,27.4-116.8,121.8-116.8,121.8,0,0,88.8,49.9,167.2,22.5,56.2-19.7,91.7-73.6,107.4-102.6,41.4,21.8,92,44.5,153.1,65.9-18.8,1.8-38.1,6.4-56.2,15.6-74.2,37.5-99.8,136.1-99.8,136.1,0,0,94.5,37.8,168.7,.4,55.2-28,83.5-89.8,94.3-119.5,59.2,15.6,125.5,29.3,199.9,39.8,2.7,.4,5.4,.6,8.1,1-21.2,3.8-42.9,11-62.2,24.1-68.8,46.5-81.9,147.4-81.9,147.4,0,0,98.5,25.7,167.4-20.7,59.5-40.2,77.3-121,81.1-142.2,79.6,2.7,155.1-3.4,225-14.9-19.1,13.4-37.3,30.7-49.9,52.9-41.1,72.2-7.8,168.5-7.8,168.5,0,0,99.7-20.8,140.7-93,29.5-52,20.6-116.2,13.3-148.2,213.8-52.8,354.2-146.3,356.4-147.8l-21.7-31.8Z"/><path class="be" d="M1857.2,973.7c-1.9,.2-96.9,6.9-232-15.9,11.1-31.1,25.6-89.1,4.7-140.6-30.3-74.7-123.5-107.5-123.5-107.5,0,0-44.2,88.4-14,163.1,11.9,29.5,33.7,52.3,55.7,69.3-56.8-13.3-118.1-32.1-180.9-58.2,16.2-27.8,42.7-84.1,30.8-140.2-16.7-78.9-102.8-127.4-102.8-127.4,0,0-59,79.3-42.3,158.1,6.3,29.9,22.6,55.4,40.4,75.6-53.9-27.3-108-60.4-160.5-100.8-4.9-3.8-9.6-7.5-14.4-11.3,19.6-23,58.8-77.3,55.6-137.9-4.3-80.5-81.8-141.8-81.8-141.8,0,0-70.6,69.2-66.3,149.7,1.4,27.1,11.3,52,23.6,73.2-59.3-51.8-107.3-101.5-146.2-147.2,24-20,70.1-65.5,77.5-124.3,10.1-80-55.2-154.1-55.2-154.1,0,0-81.8,55.4-91.8,135.4-2.6,20.4-.2,40.3,4.6,58.8-57.3-82.6-81-143.5-88.7-166.8,5.7-28.2,12.8-87.2-15.5-133.7-38.5-63.3-128-79.2-128-79.2,0,0-27,86.8,11.5,150.1,23.4,38.5,65.8,59.4,95.3,69.9,3.8,12.7,12.6,37.9,29.8,72.7-19.2-14.4-42.1-26.7-68.2-31.4-79.3-14.3-156.9,47-156.9,47,0,0,51.1,84.6,130.4,98.9,56.9,10.3,112.6-18.3,139.7-35.3,24.6,38.2,56.4,81.6,97.8,128.9-16.7-7.5-35.3-12.8-54.9-13.7-80.5-3.8-149.3,67.2-149.3,67.2,0,0,61.7,77.2,142.3,81,60,2.8,113.5-35.9,136.8-55.8,42.6,41.5,92,84.8,149.8,129.2,2.1,1.6,4.3,3.1,6.4,4.7-19.7-6.9-41.5-11.2-64.1-9.4-80.4,6.3-139.7,85.4-139.7,85.4,0,0,70.9,68.8,151.2,62.6,69.5-5.5,123.2-65.2,136.5-81.3,65.9,40.4,132.7,71.4,197.1,95.1-22.5,2.2-46.2,8.1-67.5,20.8-69.2,41.3-87.2,138.6-87.2,138.6,0,0,94.1,30.1,163.3-11.2,49.8-29.8,73-88.3,82.1-118.8,205.9,57.7,369.1,45.8,371.7,45.6l-2.9-37.1Z"/><path class="bi" d="M2096.9,398.9c66.4-46.8,77.1-145.8,77.1-145.8,0,0-97-23.1-163.3,23.7-21.8,15.4-37.6,36.4-49,57.7,.9-39.2-1.8-65.9-3.7-79.2,22.5-22.1,52.3-59.2,57.4-104.4,8.3-74.2-53.3-142.1-53.3-142.1,0,0-75.1,52.5-83.4,126.8-6.1,54.5,25.4,105.5,42.6,128.7,2.9,24.6,7.1,90.3-10.1,190.2-3.4-19-9.7-38.2-20.7-55.7-43.2-68.8-141.6-84.7-141.6-84.7,0,0-28.2,95.5,15,164.3,31.8,50.6,93.3,72.6,123.7,80.7-10.9,39.3-25.1,82.3-42.9,128.2l26.6,35c4.6-11.2,9.1-22.4,13.2-33.3,29.8,8.3,95.1,21,148.8-7.1,72-37.7,95.6-134.5,95.6-134.5,0,0-93-35.7-165,2-17.5,9.2-32.2,21.9-44.3,35.9,17.7-60.7,28.4-114,34.6-159.3,32,4,95.1,6.4,142.7-27.1Z"/><path class="au" d="M1722.8,374.1c52.9-61.6,39.2-160.3,39.2-160.3,0,0-99.6,1.2-152.6,62.8-17.4,20.3-27.5,44.5-33.4,67.9-8.7-38.2-17.8-63.5-22.9-75.9,16.4-27,36.3-70.2,30.1-115.2-10-74-86.3-124.8-86.3-124.8,0,0-60,69.3-49.9,143.3,7.4,54.3,50.4,96,72.8,114.4,8.8,23.2,29,85.8,36.6,186.9-7.9-17.6-18.7-34.7-33.7-49-58.7-56.2-158-47.6-158-47.6,0,0-4,99.5,54.7,155.7,43.2,41.3,108.2,47.6,139.6,48-.9,40.8-4.2,85.9-10.2,134.8l34.3,27.5c1.7-12,3.3-23.9,4.6-35.5,30.9,.8,97.3-2.9,142.5-43.2,60.6-54.2,59.9-153.8,59.9-153.8,0,0-98.9-11.9-159.5,42.3-14.8,13.2-25.9,29.1-34.2,45.6,2.4-63.2-.3-117.5-5.4-163,32.1-3.6,93.8-16.7,131.8-60.9Z"/><path class="do" d="M1033,345.5c-52.9-61.6-39.2-160.3-39.2-160.3,0,0,99.6,1.2,152.6,62.8,17.4,20.3,27.5,44.5,33.4,67.9,8.7-38.2,17.8-63.5,22.9-75.9-16.4-27-36.2-70.2-30.1-115.2C1182.6,50.8,1258.9,0,1258.9,0c0,0,60,69.3,49.9,143.3-7.5,54.3-50.4,96.1-72.8,114.4-8.8,23.2-29,85.8-36.6,186.9,7.9-17.6,18.8-34.7,33.7-49,58.7-56.1,157.9-47.6,157.9-47.6,0,0,4,99.5-54.7,155.7-43.2,41.3-108.2,47.6-139.6,48,1,40.8,4.3,85.9,10.3,134.8l-34.3,27.5c-1.7-12-3.3-23.9-4.7-35.5-30.9,.8-97.3-2.9-142.5-43.2-60.6-54.2-59.9-153.8-59.9-153.8,0,0,98.9-11.9,159.5,42.3,14.7,13.2,25.9,29.1,34.2,45.6-2.4-63.2,.3-117.5,5.4-162.9-31.9-3.8-93.6-16.9-131.7-61Z"/></g><path class="bj" d="M2626.9,2062.7c0,17.9-309,32.4-690.2,32.4s-690.3-14.5-690.3-32.4,309.1-32.4,690.3-32.4c381.1-.1,690.2,14.5,690.2,32.4Z"/><path class="aw" d="M2296.4,2123.3c0,17.9-77.9,32.4-174,32.4s-174.1-14.5-174.1-32.4,77.9-32.4,174.1-32.4,174,14.5,174,32.4Z"/><path class="cd" d="M535.9,2067.9c0,17.9-110.6,32.4-247,32.4s-247.1-14.5-247.1-32.4,110.6-32.4,247.1-32.4,247,14.5,247,32.4Z"/><path class="co" d="M1318.1,2067.9c0,17.9-133.1,32.4-297.2,32.4s-297.2-14.5-297.2-32.4,133.1-32.4,297.2-32.4,297.2,14.5,297.2,32.4Z"/><g><g><g><path class="bk" d="M1800.8,1250.5c-16.1,0-31.8,18.7-35,41.5l-100.9,739.3c-3.1,22.9,.6,41.6,8.3,41.6s17.9-18.2,22.6-40.5l157.3-741.4c4.7-22.3-4.6-40.5-20.7-40.5h-31.6Z"/><path class="bk" d="M2105.4,1250.5c16.1,0,31.8,18.7,35,41.5l100.9,739.3c3.1,22.9-.6,41.6-8.3,41.6s-17.9-18.2-22.6-40.5l-157.3-741.4c-4.7-22.3,4.6-40.5,20.7-40.5h31.6Z"/></g><g><path class="av" d="M1800.8,1250.5c-16.1,0-31.8,18.7-35,41.5l-100.9,739.3c-3.1,22.9,.6,41.6,8.3,41.6s17.9-18.2,22.6-40.5l157.3-741.4c4.7-22.3-4.6-40.5-20.7-40.5h-31.6Z"/><path class="bv" d="M2105.4,1250.5c16.1,0,31.8,18.7,35,41.5l100.9,739.3c3.1,22.9-.6,41.6-8.3,41.6s-17.9-18.2-22.6-40.5l-157.3-741.4c-4.7-22.3,4.6-40.5,20.7-40.5h31.6Z"/></g></g><path class="bk" d="M2210.6,1276.2c0,12.7-10.4,23.1-23.1,23.1H327.9c-12.7,0-23.1-10.4-23.1-23.1v-7.7c0-12.7,10.4-23.1,23.1-23.1h1859.6c12.7,0,23.1,10.4,23.1,23.1v7.7h0Z"/><path class="bd" d="M2210.6,1276.2c0,12.7-10.4,23.1-23.1,23.1H327.9c-12.7,0-23.1-10.4-23.1-23.1v-7.7c0-12.7,10.4-23.1,23.1-23.1h1859.6c12.7,0,23.1,10.4,23.1,23.1v7.7h0Z"/></g><g><path class="ba" d="M1933.8,1070.7c0,14.9-12.3,27.2-27.2,27.2h-843.2c-15,0-27.2-12.3-27.2-27.2V491.5c0-15,12.2-27.2,27.2-27.2h843.2c14.9,0,27.2,12.2,27.2,27.2v579.2h0Z"/><path class="cj" d="M1036.2,962.1v108.6c0,14.9,12.2,27.2,27.2,27.2h843.2c14.9,0,27.2-12.3,27.2-27.2v-108.6h-897.6Z"/><path class="dj" d="M1082.5,1070.7V491.5c0-15,12.3-27.2,27.2-27.2h-46.3c-15,0-27.2,12.2-27.2,27.2v579.1c0,15,12.2,27.2,27.2,27.2h46.3c-14.9,.1-27.2-12.2-27.2-27.1Z"/><path class="bu" d="M1082.5,1070.7V491.5c0-15,12.3-27.2,27.2-27.2h-46.3c-15,0-27.2,12.2-27.2,27.2v579.1c0,15,12.2,27.2,27.2,27.2h46.3c-14.9,.1-27.2-12.2-27.2-27.1Z"/><path class="bf" d="M1906.6,464.3h-796.9c-14.9,0-27.2,12.2-27.2,27.2v579.2c0,14.9,12.3,27.2,27.2,27.2h796.8c14.9,0,27.2-12.3,27.2-27.2V491.5c.1-14.9-12.2-27.2-27.1-27.2Z"/><g><path class="cu" d="M1597.2,1096.8h-194.7c-18.8,21.8-29.8,47-29.8,73.8s10.9,51.9,29.8,73.8h194.7c-18.9-21.9-29.8-47-29.8-73.8s10.9-51.9,29.8-73.8Z"/><path class="cj" d="M1422.7,1096.8h-20.2c-18.8,21.8-29.8,47-29.8,73.8s10.9,51.9,29.8,73.8h20.2c-19.3-21.9-30.4-47-30.4-73.8s11.1-51.9,30.4-73.8Z"/><g><path class="dl" d="M1615.8,1234.9c0,5.3-4.3,9.5-9.5,9.5h-197.1c-5.2,0-9.5-4.3-9.5-9.5v-3.1c0-5.2,4.3-9.5,9.5-9.5h197.1c5.2,0,9.5,4.3,9.5,9.5v3.1Z"/><path class="cj" d="M1460.8,1234.9c0,5.3-4.3,9.5-9.5,9.5h-42c-5.2,0-9.5-4.3-9.5-9.5v-3.1c0-5.2,4.3-9.5,9.5-9.5h42c5.2,0,9.5,4.3,9.5,9.5v3.1Z"/></g></g><path class="cx" d="M1606.3,1222.2h-24.8c-9-16.1-14.1-33.5-14.1-51.6,0-26.8,10.9-52,29.8-73.8h-194.7c-18.8,21.8-29.8,47-29.8,73.8s10.9,51.9,29.8,73.8h203.8c5.2,0,9.5-4.3,9.5-9.5v-3.1c0-5.2-4.2-9.6-9.5-9.6Z"/><g><g><rect class="ck" x="845.5" y="273.4" width="639.4" height="432.8"/><rect class="dp" x="845.5" y="273.4" width="639.4" height="45.6"/><g><path class="ct" d="M1048.9,340.7h-164.9c-4.5,0-8,3.6-8,8.1s3.6,8.1,8,8.1h164.9c4.4,0,8-3.6,8-8.1s-3.6-8.1-8-8.1Z"/><path class="cb" d="M1258.2,340.7h-183c-4.4,0-8,3.6-8,8.1s3.6,8.1,8,8.1h183c4.5,0,8.1-3.6,8.1-8.1-.1-4.5-3.7-8.1-8.1-8.1Z"/><path class="cb" d="M1061.1,369.3h-139.8c-4.5,0-8.1,3.6-8.1,8.1s3.6,8,8.1,8h139.8c4.4,0,8-3.6,8-8s-3.6-8.1-8-8.1Z"/><path class="cb" d="M1190.6,369.3h-103.3c-4.5,0-8.1,3.6-8.1,8.1s3.6,8,8.1,8h103.3c4.5,0,8.1-3.6,8.1-8s-3.6-8.1-8.1-8.1Z"/><path class="cb" d="M1092.8,395.2h-155.5c-4.5,0-8.1,3.6-8.1,8s3.6,8.1,8.1,8.1h155.5c4.5,0,8.1-3.6,8.1-8.1s-3.6-8-8.1-8Z"/><path class="ct" d="M1215.7,395.2h-96.6c-4.5,0-8,3.6-8,8s3.6,8.1,8,8.1h96.6c4.5,0,8.1-3.6,8.1-8.1-.1-4.4-3.7-8-8.1-8Z"/><path class="cb" d="M994.5,424.7h-110.5c-4.5,0-8,3.6-8,8.1s3.6,8,8,8h110.5c4.4,0,8.1-3.6,8.1-8-.1-4.5-3.7-8.1-8.1-8.1Z"/><path class="cb" d="M1061.6,424.7h-40.9c-4.5,0-8,3.6-8,8.1s3.6,8,8,8h40.8c4.5,0,8.1-3.6,8.1-8s-3.6-8.1-8-8.1Z"/><path class="cb" d="M1069.2,455.9h-110.5c-4.5,0-8.1,3.6-8.1,8.1s3.6,8,8.1,8h110.5c4.4,0,8-3.6,8-8,.1-4.4-3.5-8.1-8-8.1Z"/><path class="cb" d="M1235.2,455.9h-139.7c-4.4,0-8,3.6-8,8.1s3.6,8,8,8h139.7c4.5,0,8.1-3.6,8.1-8s-3.7-8.1-8.1-8.1Z"/><path class="ct" d="M1039.1,485.3h-101.7c-4.4,0-8,3.6-8,8.1s3.6,8,8,8h101.7c4.5,0,8-3.6,8-8,.1-4.5-3.5-8.1-8-8.1Z"/><path class="cb" d="M1106.2,485.3h-40.9c-4.4,0-8,3.6-8,8.1s3.6,8,8,8h40.9c4.4,0,8.1-3.6,8.1-8s-3.6-8.1-8.1-8.1Z"/><path class="cb" d="M1133.5,513.9h-233.5c-4.5,0-8.1,3.6-8.1,8.1s3.6,8,8.1,8h233.5c4.4,0,8-3.6,8-8s-3.6-8.1-8-8.1Z"/><path class="cb" d="M1226.2,513.9h-66.5c-4.4,0-8,3.6-8,8.1s3.6,8,8,8h66.5c4.5,0,8-3.6,8-8,.1-4.5-3.5-8.1-8-8.1Z"/><path class="ct" d="M1038.3,539.8h-140.7c-4.5,0-8.1,3.6-8.1,8.1s3.6,8.1,8.1,8.1h140.7c4.4,0,8-3.6,8-8.1s-3.6-8.1-8-8.1Z"/><path class="cb" d="M1175,539.8h-110.4c-4.5,0-8.1,3.6-8.1,8.1s3.6,8.1,8.1,8.1h110.4c4.5,0,8.1-3.6,8.1-8.1-.1-4.4-3.6-8.1-8.1-8.1Z"/><path class="cb" d="M1155.5,569.4h-262.8c-4.5,0-8.1,3.6-8.1,8.1s3.6,8,8.1,8h262.8c4.4,0,8-3.6,8-8s-3.6-8.1-8-8.1Z"/><path class="cb" d="M1222.5,569.4h-40.8c-4.4,0-8,3.6-8,8.1s3.6,8,8,8h40.8c4.5,0,8.1-3.6,8.1-8s-3.6-8.1-8.1-8.1Z"/><path class="cb" d="M1060.3,600.6h-176.3c-4.5,0-8,3.6-8,8.1s3.6,8.1,8,8.1h176.3c4.4,0,8.1-3.6,8.1-8.1-.1-4.5-3.7-8.1-8.1-8.1Z"/><path class="ct" d="M1127.4,600.6h-40.8c-4.5,0-8,3.6-8,8.1s3.6,8.1,8,8.1h40.8c4.5,0,8.1-3.6,8.1-8.1-.1-4.5-3.7-8.1-8.1-8.1Z"/><path class="cb" d="M1109.1,631.6h-187.7c-4.5,0-8.1,3.6-8.1,8.1s3.6,8,8.1,8h187.7c4.5,0,8.1-3.6,8.1-8-.1-4.5-3.7-8.1-8.1-8.1Z"/><path class="cb" d="M1210.3,631.6h-75c-4.4,0-8,3.6-8,8.1s3.6,8,8,8h75c4.5,0,8.1-3.6,8.1-8s-3.6-8.1-8.1-8.1Z"/><path class="cb" d="M1082.2,662.8h-198.2c-4.5,0-8,3.6-8,8.1s3.6,8.1,8,8.1h198.3c4.4,0,8.1-3.6,8.1-8.1-.1-4.4-3.7-8.1-8.2-8.1Z"/><path class="ct" d="M1194.5,662.8h-86c-4.5,0-8,3.6-8,8.1s3.6,8.1,8,8.1h86c4.4,0,8-3.6,8-8.1s-3.6-8.1-8-8.1Z"/></g><path class="bz" d="M1465.8,296.1c0-6.4-5.2-11.6-11.6-11.6s-11.6,5.2-11.6,11.6,5.2,11.6,11.6,11.6c6.4,0,11.6-5.2,11.6-11.6Z"/><path class="ci" d="M1433.3,296.1c0-6.4-5.2-11.6-11.6-11.6s-11.6,5.2-11.6,11.6,5.2,11.6,11.6,11.6c6.4,0,11.6-5.2,11.6-11.6Z"/><path class="bb" d="M1398.3,296.1c0-6.4-5.2-11.6-11.6-11.6s-11.6,5.2-11.6,11.6,5.2,11.6,11.6,11.6c6.4,0,11.6-5.2,11.6-11.6Z"/></g><path class="ct" d="M1456.4,471c0,10.7-8.8,19.5-19.5,19.5h-131.8c-10.7,0-19.5-8.8-19.5-19.5v-110.6c0-10.7,8.8-19.5,19.5-19.5h131.8c10.7,0,19.5,8.8,19.5,19.5v110.6Z"/><g><path class="ds" d="M1359.7,578.6c0,5.2-4.2,9.5-9.5,9.5h-55.2c-5.2,0-9.5-4.3-9.5-9.5v-53.7c0-5.2,4.3-9.5,9.5-9.5h55.2c5.2,0,9.5,4.3,9.5,9.5v53.7Z"/><path class="dh" d="M1442.9,515.4h-65.1c-5.3,0-9.7,4.4-9.7,9.7s4.3,9.7,9.7,9.7h65.1c5.4,0,9.7-4.3,9.7-9.7,0-5.4-4.3-9.7-9.7-9.7Z"/><path class="cb" d="M1434.6,541.8h-62.8c-2,0-3.7,1.7-3.7,3.7s1.7,3.7,3.7,3.7h62.8c2.1,0,3.7-1.7,3.7-3.7s-1.7-3.7-3.7-3.7Z"/><path class="cb" d="M1424.6,554.8h-52.8c-2,0-3.7,1.7-3.7,3.7s1.7,3.7,3.7,3.7h52.8c2.1,0,3.7-1.7,3.7-3.7s-1.6-3.7-3.7-3.7Z"/><path class="cb" d="M1434.9,567.7h-63.1c-2,0-3.7,1.7-3.7,3.7s1.7,3.7,3.7,3.7h63.1c2.1,0,3.7-1.7,3.7-3.7,0-2-1.6-3.7-3.7-3.7Z"/><path class="cb" d="M1454.9,580.7h-83.1c-2,0-3.7,1.7-3.7,3.7s1.7,3.7,3.7,3.7h83.1c2.1,0,3.7-1.7,3.7-3.7,.1-2-1.6-3.7-3.7-3.7Z"/></g><g><path class="ds" d="M1359.7,667.3c0,5.2-4.2,9.5-9.5,9.5h-55.2c-5.2,0-9.5-4.3-9.5-9.5v-53.7c0-5.2,4.3-9.5,9.5-9.5h55.2c5.2,0,9.5,4.3,9.5,9.5v53.7Z"/><path class="dh" d="M1442.9,604h-65.1c-5.3,0-9.7,4.4-9.7,9.7s4.3,9.7,9.7,9.7h65.1c5.4,0,9.7-4.3,9.7-9.7,0-5.3-4.3-9.7-9.7-9.7Z"/><path class="cb" d="M1434.6,630.5h-62.8c-2,0-3.7,1.7-3.7,3.7s1.7,3.7,3.7,3.7h62.8c2.1,0,3.7-1.7,3.7-3.7,0-2.1-1.7-3.7-3.7-3.7Z"/><path class="cb" d="M1424.6,643.5h-52.8c-2,0-3.7,1.6-3.7,3.7s1.7,3.7,3.7,3.7h52.8c2.1,0,3.7-1.7,3.7-3.7,0-2.1-1.6-3.7-3.7-3.7Z"/><path class="cb" d="M1434.9,656.4h-63.1c-2,0-3.7,1.7-3.7,3.7s1.7,3.7,3.7,3.7h63.1c2.1,0,3.7-1.7,3.7-3.7,0-2-1.6-3.7-3.7-3.7Z"/><path class="cb" d="M1454.9,669.4h-83.1c-2,0-3.7,1.7-3.7,3.7s1.7,3.7,3.7,3.7h83.1c2.1,0,3.7-1.7,3.7-3.7,.1-2.1-1.6-3.7-3.7-3.7Z"/></g><path class="cb" d="M1410.9,461.6h-79.8c-3.8,0-6.9,3.1-6.9,7s3.1,6.9,6.9,6.9h79.8c3.9,0,7-3.1,7-6.9s-3.1-7-7-7Z"/></g><g><rect class="dg" x="1520.9" y="284.4" width="492.6" height="389.7"/><rect class="ba" x="1521.2" y="284.4" width="491.9" height="57.3"/><path class="cb" d="M1868.8,293.4h-245.4c-10.9,0-19.7,8.9-19.7,19.7s8.8,19.7,19.7,19.7h245.4c11,0,19.7-8.8,19.7-19.7,0-10.9-8.7-19.7-19.7-19.7Z"/><path class="bg" d="M1579.1,293.4h-24.1c-10.8,0-19.7,8.9-19.7,19.7s8.8,19.7,19.7,19.7h24.1c10.9,0,19.7-8.8,19.7-19.7s-8.8-19.7-19.7-19.7Z"/><path class="ct" d="M1997.7,313.1c0-7-5.7-12.6-12.7-12.6s-12.7,5.6-12.7,12.6,5.7,12.7,12.7,12.7c7-.1,12.7-5.7,12.7-12.7Z"/><path class="cb" d="M1962.8,313.1c0-7-5.7-12.6-12.7-12.6s-12.6,5.6-12.6,12.6,5.6,12.7,12.6,12.7c7-.1,12.7-5.7,12.7-12.7Z"/><path class="bg" d="M1927.9,313.1c0-7-5.7-12.6-12.7-12.6s-12.7,5.6-12.7,12.6,5.7,12.7,12.7,12.7c7-.1,12.7-5.7,12.7-12.7Z"/><g><path class="ba" d="M1889.9,502.3h-245.4c-10.8,0-19.7,8.9-19.7,19.7s8.8,19.7,19.7,19.7h245.4c10.9,0,19.7-8.8,19.7-19.7,0-10.8-8.8-19.7-19.7-19.7Z"/><g><path class="cb" d="M1765.8,552.9h-79.8c-7.4,0-13.4,6-13.4,13.4s6,13.4,13.4,13.4h79.8c7.5,0,13.5-6,13.5-13.4s-6-13.4-13.5-13.4Z"/><path class="bq" d="M1848.4,552.9h-47.1c-7.4,0-13.4,6-13.4,13.4s6,13.4,13.4,13.4h47.1c7.5,0,13.4-6,13.4-13.4s-5.9-13.4-13.4-13.4Z"/></g><g><path class="ct" d="M1763,448.6c0-7.9-6.4-14.3-14.4-14.3s-14.3,6.4-14.3,14.3,6.4,14.3,14.3,14.3,14.4-6.4,14.4-14.3Z"/><path class="cb" d="M1723.5,448.6c0-7.9-6.5-14.3-14.4-14.3s-14.3,6.4-14.3,14.3,6.4,14.3,14.3,14.3,14.4-6.4,14.4-14.3Z"/><path class="bg" d="M1684,448.6c0-7.9-6.4-14.3-14.3-14.3s-14.3,6.4-14.3,14.3,6.4,14.3,14.3,14.3,14.3-6.4,14.3-14.3Z"/><path class="ct" d="M1879.1,448.6c0-7.9-6.4-14.3-14.4-14.3s-14.3,6.4-14.3,14.3,6.4,14.3,14.3,14.3,14.4-6.4,14.4-14.3Z"/><path class="cb" d="M1839.6,448.6c0-7.9-6.5-14.3-14.4-14.3s-14.3,6.4-14.3,14.3,6.4,14.3,14.3,14.3,14.4-6.4,14.4-14.3Z"/><path class="bg" d="M1800.1,448.6c0-7.9-6.5-14.3-14.4-14.3s-14.3,6.4-14.3,14.3,6.4,14.3,14.3,14.3,14.4-6.4,14.4-14.3Z"/></g></g></g><g><rect class="cs" x="1540.3" y="704.7" width="509.7" height="288"/><g><path class="cb" d="M2030,873.3c0,12.3-10.1,22.5-22.5,22.5h-151.9c-12.4,0-22.5-10.1-22.5-22.5v-127.5c0-12.4,10.1-22.5,22.5-22.5h151.9c12.4,0,22.5,10.1,22.5,22.5v127.5Z"/><g><path class="dh" d="M1978.3,905.1h-132.8c-5.2,0-9.4,4.3-9.4,9.5s4.2,9.4,9.4,9.4h132.8c5.3,0,9.5-4.2,9.5-9.4s-4.2-9.5-9.5-9.5Z"/><path class="cb" d="M1970.2,931h-130.5c-2,0-3.6,1.6-3.6,3.6s1.6,3.6,3.6,3.6h130.4c2,0,3.6-1.6,3.6-3.6,.1-2-1.5-3.6-3.5-3.6Z"/><path class="cb" d="M1960.4,943.7h-120.7c-2,0-3.6,1.6-3.6,3.6s1.6,3.6,3.6,3.6h120.7c2,0,3.6-1.6,3.6-3.6,.1-2-1.5-3.6-3.6-3.6Z"/><path class="cb" d="M1970.5,956.4h-130.8c-2,0-3.6,1.6-3.6,3.6s1.6,3.6,3.6,3.6h130.8c2,0,3.6-1.6,3.6-3.6s-1.6-3.6-3.6-3.6Z"/><path class="cb" d="M1990.1,969h-150.4c-2,0-3.6,1.6-3.6,3.6s1.6,3.6,3.6,3.6h150.4c2,0,3.6-1.7,3.6-3.6s-1.6-3.6-3.6-3.6Z"/></g><g><g><path class="cb" d="M1658.6,784.2c0,5.2-4.2,9.5-9.5,9.5h-79.3c-5.2,0-9.5-4.3-9.5-9.5v-53.7c0-5.2,4.2-9.5,9.5-9.5h79.3c5.2,0,9.5,4.3,9.5,9.5v53.7Z"/><g><path class="dh" d="M1737.1,721.8h-55.8c-5.2,0-9.4,4.2-9.4,9.5s4.2,9.4,9.4,9.4h55.8c5.3,0,9.5-4.2,9.5-9.4s-4.2-9.5-9.5-9.5Z"/><path class="cb" d="M1772,747.7h-96.5c-2,0-3.6,1.6-3.6,3.6s1.6,3.6,3.6,3.6h96.5c2,0,3.6-1.6,3.6-3.6s-1.6-3.6-3.6-3.6Z"/><path class="cb" d="M1762.3,760.3h-86.8c-2,0-3.6,1.6-3.6,3.6s1.6,3.6,3.6,3.6h86.8c2,0,3.6-1.6,3.6-3.6-.1-1.9-1.6-3.6-3.6-3.6Z"/><path class="cb" d="M1772.3,773h-96.8c-2,0-3.6,1.6-3.6,3.6s1.6,3.6,3.6,3.6h96.8c2,0,3.6-1.6,3.6-3.6s-1.6-3.6-3.6-3.6Z"/><path class="cb" d="M1791.9,785.7h-116.4c-2,0-3.6,1.6-3.6,3.6s1.6,3.6,3.6,3.6h116.4c2,0,3.6-1.6,3.6-3.6,0-2-1.6-3.6-3.6-3.6Z"/></g></g><g><path class="cb" d="M1658.6,875.5c0,5.2-4.2,9.5-9.5,9.5h-79.3c-5.2,0-9.5-4.3-9.5-9.5v-53.7c0-5.2,4.2-9.5,9.5-9.5h79.3c5.2,0,9.5,4.3,9.5,9.5v53.7Z"/><g><path class="dh" d="M1737.1,813.1h-55.8c-5.2,0-9.4,4.2-9.4,9.5s4.2,9.4,9.4,9.4h55.8c5.3,0,9.5-4.2,9.5-9.4s-4.2-9.5-9.5-9.5Z"/><path class="cb" d="M1772,838.9h-96.5c-2,0-3.6,1.6-3.6,3.6s1.6,3.6,3.6,3.6h96.5c2,0,3.6-1.6,3.6-3.6s-1.6-3.6-3.6-3.6Z"/><path class="cb" d="M1762.3,851.6h-86.8c-2,0-3.6,1.6-3.6,3.6s1.6,3.6,3.6,3.6h86.8c2,0,3.6-1.6,3.6-3.6-.1-2-1.6-3.6-3.6-3.6Z"/><path class="cb" d="M1772.3,864.3h-96.8c-2,0-3.6,1.6-3.6,3.6s1.6,3.6,3.6,3.6h96.8c2,0,3.6-1.6,3.6-3.6s-1.6-3.6-3.6-3.6Z"/><path class="cb" d="M1791.9,877h-116.4c-2,0-3.6,1.6-3.6,3.6s1.6,3.6,3.6,3.6h116.4c2,0,3.6-1.6,3.6-3.6,0-2-1.6-3.6-3.6-3.6Z"/></g></g><g><path class="cb" d="M1658.6,966.8c0,5.2-4.2,9.5-9.5,9.5h-79.3c-5.2,0-9.5-4.3-9.5-9.5v-53.7c0-5.2,4.2-9.5,9.5-9.5h79.3c5.2,0,9.5,4.3,9.5,9.5v53.7Z"/><g><path class="dh" d="M1737.1,904.3h-55.8c-5.2,0-9.4,4.2-9.4,9.5s4.2,9.4,9.4,9.4h55.8c5.3,0,9.5-4.2,9.5-9.4s-4.2-9.5-9.5-9.5Z"/><path class="cb" d="M1772,930.2h-96.5c-2,0-3.6,1.6-3.6,3.6s1.6,3.6,3.6,3.6h96.5c2,0,3.6-1.6,3.6-3.6s-1.6-3.6-3.6-3.6Z"/><path class="cb" d="M1762.3,942.9h-86.8c-2,0-3.6,1.6-3.6,3.6s1.6,3.6,3.6,3.6h86.8c2,0,3.6-1.6,3.6-3.6-.1-2-1.6-3.6-3.6-3.6Z"/><path class="cb" d="M1772.3,955.6h-96.8c-2,0-3.6,1.6-3.6,3.6s1.6,3.6,3.6,3.6h96.8c2,0,3.6-1.6,3.6-3.6s-1.6-3.6-3.6-3.6Z"/><path class="cb" d="M1791.9,968.2h-116.4c-2,0-3.6,1.6-3.6,3.6s1.6,3.6,3.6,3.6h116.4c2,0,3.6-1.6,3.6-3.6,0-1.9-1.6-3.6-3.6-3.6Z"/></g></g></g><path class="dk" d="M1917.6,777.3c-3.6-2.3-6.6-.7-6.6,3.6v57.3c0,4.3,3,5.9,6.6,3.6l43.6-28c3.6-2.3,3.6-6.1,0-8.4l-43.6-28.1Z"/></g></g><g><path class="cn" d="M1319.1,1095.6c0,31-25.4,56.4-56.4,56.4h-253.7c-31,0-56.4-25.4-56.4-56.4v-310c0-31,25.4-56.4,56.4-56.4h253.7c31,0,56.4,25.4,56.4,56.4v310Z"/><path class="ba" d="M1009,1058c-15.5,0-28.2-12.6-28.2-28.2v-244.2c0-15.6,12.7-28.2,28.2-28.2h253.7c15.5,0,28.2,12.6,28.2,28.2v244.3c0,15.6-12.6,28.2-28.2,28.2h-253.7v-.1Z"/><path class="cb" d="M1065.4,969.6s88.5,61,162.9-24.3c74.4-85.3,28.2-173-29.8-157.4-57.9,15.7-51.7,90-101.8,58.7-50.1-31.3-115.1,74.4-31.3,123Z"/><g><g><path class="ba" d="M1102,971.2s-20.8-22.2-20.3-50.8c.4-28.6,25.7-22.7,27.2-33.3,1.4-10.6-20.1-18-20.1-44.4s27.8-20.7,33.3-31.2c5.9-11.1,6.9-37,20.6-34.4,13.8,2.7,12.3,38.1,20.1,42.8,5.6,3.4,24,6.3,26.9,19.6,2.9,13.2-22.1,38.1-21.1,48.1s30.4,6.4,28.4,34.4c-1.9,28-15.2,40.2-27.9,50.8-12.7,10.6-64.7,2.6-67.1-1.6Z"/><path class="bh" d="M1143.7,980.2c-15.3,0-40.9-3.4-43.5-7.9-.6-.5-21.2-22.8-20.7-51.8,.3-19.3,11.4-24.1,19.5-27.6,4.7-2,7.4-3.3,7.8-6,.5-3.4-2.5-6.8-6.1-11.1-5.9-7-14-16.5-14-33,0-18.4,12.9-22.7,22.3-25.9,5.2-1.7,9.6-3.2,11.2-6.3,1.7-3.2,3-7.7,4.3-12.6,3.3-11.6,7.1-25.1,18.5-22.9,9.3,1.8,12.3,15.2,15,27,1.5,6.8,3.3,14.5,5.8,16.1,1.2,.7,3.3,1.5,5.7,2.4,7.9,2.9,19.7,7.4,22.2,18.5,1.8,8.2-5.2,19.2-12,29.8-4.7,7.3-9.5,14.8-9.1,18.6,.3,2.4,4,4.1,8.3,6,8.6,3.8,21.5,9.5,20.1,28.7-2,27.9-14.7,40.6-28.7,52.2-4.4,3.8-13.5,5.8-26.6,5.8Zm-3-201.1c-6.5,0-9.4,10.2-12.2,20-1.4,5.1-2.8,9.9-4.6,13.4-2.4,4.5-7.9,6.4-13.7,8.3-9.5,3.2-19.4,6.6-19.4,21.9s7.2,23.4,13,30.2c4.2,5,7.8,9.2,7.1,14.5-.7,5.1-5.4,7.1-10.3,9.3-7.8,3.4-16.6,7.2-16.9,23.8-.5,27.4,19.6,49.1,19.8,49.3,2.1,2,20.8,6.2,40.2,6.2,11.8,0,20.4-1.7,24.1-4.8,13.8-11.4,25.3-23,27.2-49.3,1.1-16.3-8.8-20.7-17.6-24.6-5.3-2.3-10.3-4.6-10.8-9.5-.5-5.2,4.2-12.7,9.7-21.3,6-9.4,12.8-20.1,11.4-26.6-2-8.8-12.1-12.6-19.5-15.4-2.6-1-4.9-1.8-6.5-2.8-4.1-2.4-5.7-10-7.7-18.7-2.4-10.6-5.1-22.5-11.7-23.8-.6,0-1.1-.1-1.6-.1Z"/></g><polygon class="da" points="1166.2 1023.9 1108.4 1023.9 1092.2 970 1182.4 970 1166.2 1023.9"/><g><path class="ba" d="M1139.6,982.3s4.5-68.7,4-94.6-.9-110.5-.9-110.5"/><path class="bh" d="M1141.7,982.5l-4.2-.3c0-.7,4.5-68.9,4-94.4-.5-25.6-1-109.7-1-110.5h4.2c0,.9,.5,84.9,1,110.5,.5,25.5-4,94-4,94.7Z"/></g><g><line class="cw" x1="1120.9" y1="814.7" x2="1143.1" y2="835.9"/><polygon class="bh" points="1141.7 837.4 1119.5 816.2 1122.4 813.2 1144.6 834.3 1141.7 837.4"/></g><g><line class="cw" x1="1189.5" y1="846.4" x2="1144.6" y2="865.5"/><polygon class="bh" points="1145.4 867.4 1143.8 863.5 1188.7 844.5 1190.3 848.4 1145.4 867.4"/></g><g><line class="cw" x1="1102.3" y1="873.4" x2="1143.6" y2="893.5"/><polygon class="bh" points="1142.7 895.4 1101.4 875.3 1103.2 871.5 1144.5 891.6 1142.7 895.4"/></g><g><line class="cw" x1="1189.7" y1="902.5" x2="1142.6" y2="919.9"/><polygon class="bh" points="1143.3 921.9 1141.9 917.9 1188.9 900.5 1190.4 904.5 1143.3 921.9"/></g><g><line class="cw" x1="1082.1" y1="916.7" x2="1142.6" y2="936.3"/><polygon class="bh" points="1142 938.3 1081.5 918.7 1082.8 914.7 1143.3 934.3 1142 938.3"/></g><g><line class="cw" x1="1191.5" y1="946.9" x2="1141.1" y2="955.3"/><polygon class="bh" points="1141.4 957.4 1140.7 953.3 1191.2 944.8 1191.8 949 1141.4 957.4"/></g></g></g><g><path class="cz" d="M1497.9,1109.6c0,12.4-10.1,22.5-22.5,22.5h-101c-12.4,0-22.5-10.1-22.5-22.5v-371c0-12.3,10.1-22.5,22.5-22.5h101c12.4,0,22.5,10.1,22.5,22.5v371Z"/><g><path class="ba" d="M1378.8,844.6c-5.6,0-10.2-4.6-10.2-10.2v-88.8c0-5.7,4.6-10.3,10.2-10.3h92.3c5.7,0,10.3,4.6,10.3,10.3v88.8c0,5.7-4.6,10.2-10.3,10.2h-92.3Z"/><path class="dh" d="M1411.1,828.2s38.6,6.4,49.8-33.2c11.3-39.6-17.5-61.3-34.1-47.2-16.7,14.1-3.1,37.6-24.4,35.1-21.4-2.6-26.4,42.3,8.7,45.3Z"/></g><g><path class="ba" d="M1378.8,972.3c-5.6,0-10.2-4.6-10.2-10.3v-88.8c0-5.7,4.6-10.2,10.2-10.2h92.3c5.7,0,10.3,4.6,10.3,10.2v88.8c0,5.7-4.6,10.3-10.3,10.3h-92.3Z"/><path class="cb" d="M1459.4,940.2s16-35.7-19.4-56.6c-35.4-21-63.7,1.3-54.3,21,9.4,19.7,35.6,12.5,27.7,32.5-8,20,34.1,36.3,46,3.1Z"/></g><g><path class="ba" d="M1378.8,1100.1c-5.6,0-10.2-4.6-10.2-10.3v-88.8c0-5.7,4.6-10.3,10.2-10.3h92.3c5.7,0,10.3,4.6,10.3,10.3v88.8c0,5.7-4.6,10.3-10.3,10.3h-92.3Z"/><path class="ct" d="M1383.6,1040.4s3,39,44.2,40.4c41.2,1.4,55.3-31.7,37.6-44.5-17.7-12.8-37.2,6.1-39.9-15.3-2.6-21.3-47.4-15.4-41.9,19.4Z"/></g></g></g><g><g><path class="ca" d="M888.2,1276.2c0,12.7-10.4,23.1-23.1,23.1H327.9c-12.7,0-23.1-10.4-23.1-23.1v-7.7c0-12.7,10.4-23.1,23.1-23.1H865.1c12.7,0,23.1,10.4,23.1,23.1v7.7h0Z"/><g><path class="ca" d="M444.2,1250.5c-16.1,0-31.8,18.7-35,41.5l-100.9,739.3c-3.1,22.9,.6,41.6,8.4,41.6s17.9-18.2,22.6-40.5l157.3-741.4c4.7-22.3-4.6-40.5-20.7-40.5h-31.7Z"/><path class="ca" d="M748.8,1250.5c16.1,0,31.8,18.7,34.9,41.5l101,739.4c3.1,22.9-.7,41.6-8.3,41.6s-17.9-18.2-22.6-40.5l-157.3-741.4c-4.8-22.3,4.6-40.5,20.7-40.5l31.6-.1h0Z"/></g></g><g><path class="cg" d="M888.2,1276.2c0,12.7-10.4,23.1-23.1,23.1H327.9c-12.7,0-23.1-10.4-23.1-23.1v-7.7c0-12.7,10.4-23.1,23.1-23.1H865.1c12.7,0,23.1,10.4,23.1,23.1v7.7h0Z"/><g><path class="ax" d="M444.2,1250.5c-16.1,0-31.8,18.7-35,41.5l-100.9,739.3c-3.1,22.9,.6,41.6,8.4,41.6s17.9-18.2,22.6-40.5l157.3-741.4c4.7-22.3-4.6-40.5-20.7-40.5h-31.7Z"/><path class="dn" d="M748.8,1250.5c16.1,0,31.8,18.7,34.9,41.5l101,739.4c3.1,22.9-.7,41.6-8.3,41.6s-17.9-18.2-22.6-40.5l-157.3-741.4c-4.8-22.3,4.6-40.5,20.7-40.5l31.6-.1h0Z"/></g></g></g><g><path class="dq" d="M1566.5,1245.5c-3-22.5-29.6-40.2-62.5-40.2s-59.5,17.7-62.5,40.2h125Z"/><path class="ce" d="M1566.5,1245.5c-3-22.5-29.6-40.2-62.5-40.2s-59.5,17.7-62.5,40.2h125Z"/></g><g><path class="da" d="M1192.2,1126.5v66.2c2.3,23.4,16.8,43.1,37.2,52.6h55c20.4-9.5,35-29.2,37.2-52.6v-66.2h-129.4Z"/><path class="da" d="M1194.4,1131.4c-26.1,0-47.2,21.1-47.2,47.2s21.2,47.2,47.2,47.2,47.2-21.1,47.2-47.2c0-26-21.1-47.2-47.2-47.2Zm0,76c-15.8,0-28.7-12.9-28.7-28.7s12.9-28.7,28.7-28.7,28.7,12.9,28.7,28.7c0,15.8-12.9,28.7-28.7,28.7Z"/></g><g><g><polygon class="bx" points="931.1 1218.7 620.1 1218.7 608.7 1243.5 931.1 1243.5 1046.3 994 1046.3 969.3 931.1 1218.7"/><polygon class="bn" points="723.9 969.3 1046.3 969.3 931.1 1218.7 608.7 1218.7 723.9 969.3"/><polygon class="ba" points="626.2 1207 730.6 981 1028.8 981 924.4 1207 626.2 1207"/><polygon class="cy" points="723.9 969.3 1046.3 969.3 931.1 1218.7 608.7 1218.7 723.9 969.3"/></g><g><path class="cr" d="M934.7,1234c0,6.3-5.1,11.4-11.4,11.4h-265.9c-6.3,0-11.4-5.1-11.4-11.4v-3.8c0-6.3,5.2-11.5,11.4-11.5h265.8c6.3,0,11.4,5.1,11.4,11.5v3.8h.1Z"/><path class="bx" d="M730.4,1234c0,6.3-5.1,11.4-11.4,11.4H453.2c-6.3,0-11.4-5.1-11.4-11.4v-3.8c0-6.3,5.1-11.5,11.4-11.5h265.8c6.3,0,11.4,5.1,11.4,11.5v3.8Z"/></g><g><polygon class="bo" points="769.9 1166 477.3 1166 608.1 882.8 900.7 882.8 769.9 1166"/><g><polygon class="ba" points="748.6 1128.8 533 1128.8 631.3 915.9 846.9 915.9 748.6 1128.8"/><path class="cb" d="M846.9,915.9h-215.6l-44.5,96.4c8.1,5.9,34.4,15.1,114.9-6.7,61-16.6,92.8-22.4,113.7-21.4l31.5-68.3Z"/><path class="ct" d="M771.6,977s-68.5,7-49-21c14.9-21.3,28,3.2,43.4-10,15.4-13.2,54.4-32.3,51.8-5.2-2.6,27.2-27.3,35.6-46.2,36.2Z"/><g><path class="ba" d="M678.5,950h-49.1c-1.4,0-3.1,1.1-3.7,2.5-.6,1.4,0,2.5,1.4,2.5h49.1c1.4,0,3.1-1.1,3.7-2.5,.7-1.4,0-2.5-1.4-2.5Z"/><path class="ba" d="M744.7,922.9h-102.8c-1.4,0-3.1,1.1-3.8,2.5-.6,1.3,0,2.5,1.4,2.5h102.9c1.4,0,3.1-1.1,3.7-2.5,.7-1.4,.1-2.5-1.4-2.5Z"/><path class="ba" d="M712.2,931.9h-74.5c-1.4,0-3.1,1.1-3.7,2.5-.6,1.3,0,2.5,1.4,2.5h74.5c1.4,0,3.1-1.1,3.7-2.5,.7-1.3,0-2.5-1.4-2.5Z"/><path class="ba" d="M718.3,940.9h-84.8c-1.4,0-3.1,1.1-3.7,2.5-.6,1.3,0,2.5,1.4,2.5h84.7c1.5,0,3.1-1.1,3.8-2.5,.7-1.3,0-2.5-1.4-2.5Z"/><path class="ba" d="M687.8,986h-75.1c-1.4,0-3.1,1.1-3.7,2.5-.6,1.4,0,2.5,1.4,2.5h75.1c1.4,0,3.1-1.1,3.7-2.5,.7-1.3,.1-2.5-1.4-2.5Z"/><path class="ba" d="M699.7,995h-91.1c-1.4,0-3.1,1.1-3.7,2.5-.6,1.3,0,2.5,1.4,2.5h91.1c1.4,0,3.1-1.1,3.7-2.5,.7-1.3,.1-2.5-1.4-2.5Z"/><path class="ba" d="M666,1004.1h-61.6c-1.4,0-3.1,1.1-3.7,2.5-.6,1.3,0,2.5,1.4,2.5h61.6c1.4,0,3.1-1.1,3.7-2.5,.7-1.4,0-2.5-1.4-2.5Z"/><path class="ba" d="M702.4,959h-77.1c-1.4,0-3.1,1.1-3.7,2.5-.7,1.4,0,2.5,1.4,2.5h77.2c1.4,0,3-1.1,3.7-2.5,.5-1.4-.1-2.5-1.5-2.5Z"/><path class="ba" d="M675.4,968h-54.4c-1.4,0-3.1,1.1-3.7,2.5-.7,1.4,0,2.5,1.4,2.5h54.4c1.4,0,3.1-1.1,3.7-2.5,.7-1.4,.1-2.5-1.4-2.5Z"/><path class="ba" d="M709.2,977h-92.3c-1.4,0-3.1,1.1-3.7,2.5-.6,1.4,0,2.5,1.4,2.5h92.3c1.4,0,3.1-1.1,3.7-2.5,.7-1.4,.1-2.5-1.4-2.5Z"/></g><g><path class="cb" d="M604.9,1063l8.7-18.8c3-6.4,.1-11.6-6.5-11.6s-14.3,5.2-17.3,11.6l-8.7,18.8c-3,6.4,0,11.7,6.5,11.7,6.6-.1,14.3-5.3,17.3-11.7Z"/><path class="dh" d="M644,1063l8.7-18.8c3-6.4,.1-11.6-6.5-11.6s-14.3,5.2-17.3,11.6l-8.7,18.8c-3,6.4,0,11.7,6.5,11.7,6.6-.1,14.3-5.3,17.3-11.7Z"/><path class="cb" d="M683.1,1063l8.7-18.8c2.9-6.4,0-11.6-6.5-11.6s-14.3,5.2-17.3,11.6l-8.7,18.8c-3,6.4,0,11.7,6.6,11.7,6.5-.1,14.2-5.3,17.2-11.7Z"/><path class="dh" d="M722.1,1063l8.7-18.8c2.9-6.4,.1-11.6-6.5-11.6s-14.4,5.2-17.3,11.6l-8.7,18.8c-3,6.4,0,11.7,6.5,11.7,6.6-.1,14.3-5.3,17.3-11.7Z"/><path class="cb" d="M761.2,1063l8.7-18.8c2.9-6.4,.1-11.6-6.5-11.6s-14.3,5.2-17.3,11.6l-8.7,18.8c-3,6.4,0,11.7,6.6,11.7,6.5-.1,14.2-5.3,17.2-11.7Z"/></g><path class="cb" d="M760.3,1103.4c-33.5-19.2-98.8-9.2-149.4-7.1-43.4,1.8-50.4-16.5-51.2-25.6l-26.8,58h215.6l11.8-25.3Z"/></g><g><polygon class="ba" points="885.4 915.9 592.8 915.9 608.1 882.8 900.7 882.8 885.4 915.9"/><path class="cb" d="M812.5,887.9h-146c-6.4,0-14,5.1-17,11.4-2.9,6.3,0,11.4,6.4,11.4h146c6.5,0,14.1-5.1,17-11.4,2.9-6.2,.1-11.4-6.4-11.4Z"/><path class="bg" d="M640.1,887.9h-14.3c-6.5,0-14.1,5.1-17,11.4-2.9,6.3,0,11.4,6.5,11.4h14.3c6.5,0,14.1-5.1,17-11.4,2.9-6.2,0-11.4-6.5-11.4Z"/><path class="ct" d="M883.9,899.3c1.9-4,0-7.3-4.2-7.3s-9,3.3-10.9,7.3,0,7.3,4.1,7.3c4.2,.1,9.1-3.2,11-7.3Z"/><path class="cp" d="M863.1,899.3c1.9-4,0-7.3-4.2-7.3s-9,3.3-10.9,7.3,0,7.3,4.2,7.3c4.1,.1,9-3.2,10.9-7.3Z"/><path class="bg" d="M842.4,899.3c1.9-4,0-7.3-4.2-7.3s-9,3.3-10.9,7.3,0,7.3,4.1,7.3,9.1-3.2,11-7.3Z"/></g></g><g><polygon class="dc" points="1030.5 1202.8 777.5 1202.8 846.9 1055.9 1099.8 1055.9 1030.5 1202.8"/><g><polygon class="ba" points="1099.8 1055.9 846.9 1055.9 862.2 1022.7 1115.1 1022.7 1099.8 1055.9"/><path class="cb" d="M1026.9,1027.9h-146c-6.4,0-14.1,5.1-17,11.4-2.9,6.3,0,11.4,6.4,11.4h146c6.5,0,14.1-5.1,17-11.4,2.9-6.3,.1-11.4-6.4-11.4Z"/><path class="ct" d="M1098.3,1039.3c1.9-4,0-7.3-4.2-7.3s-9,3.3-10.9,7.3,0,7.3,4.2,7.3c4.1,0,9-3.3,10.9-7.3Z"/><path class="cb" d="M1077.5,1039.3c1.9-4,0-7.3-4.2-7.3s-9,3.3-10.9,7.3,0,7.3,4.2,7.3c4.2,0,9.1-3.3,10.9-7.3Z"/><path class="bg" d="M1056.8,1039.3c1.9-4,0-7.3-4.2-7.3s-9,3.3-10.9,7.3,0,7.3,4.2,7.3,9-3.3,10.9-7.3Z"/></g><g><path class="ct" d="M1060.4,1073.6h-190.5c-8.4,0-18.3,6.7-22.1,14.9-3.8,8.2,0,14.8,8.4,14.8h190.5c8.5,0,18.4-6.7,22.1-14.8,3.8-8.2,.1-14.9-8.4-14.9Z"/><path class="ct" d="M1060.4,1073.6h-52.6l-13.7,29.7h52.6c8.5,0,18.4-6.7,22.1-14.8,3.8-8.2,.1-14.9-8.4-14.9Z"/></g><g><path class="cr" d="M887.3,1112.7h-45.5c-2.9,0-6.3,2.3-7.7,5.2-1.3,2.8,0,5.1,2.9,5.1h45.5c3,0,6.4-2.3,7.7-5.1,1.4-2.8,.1-5.2-2.9-5.2Z"/><path class="cr" d="M919.5,1129.2h-85.3c-2.9,0-6.4,2.3-7.6,5.2-1.3,2.8,0,5.1,2.9,5.1h85.3c3,0,6.4-2.3,7.7-5.1,1.3-2.8,0-5.2-3-5.2Z"/><path class="cr" d="M932.5,1145.7h-105.9c-2.9,0-6.4,2.3-7.7,5.2-1.3,2.8,0,5.1,2.9,5.1h105.9c3,0,6.4-2.3,7.7-5.1,1.3-2.8,.1-5.2-2.9-5.2Z"/><path class="cr" d="M901.7,1162.2h-82.7c-2.9,0-6.4,2.3-7.6,5.2-1.3,2.8,0,5.1,2.9,5.1h82.7c3,0,6.4-2.3,7.7-5.1,1.2-2.9,0-5.2-3-5.2Z"/><path class="cr" d="M948.8,1178.7h-137.4c-2.9,0-6.4,2.3-7.7,5.1-1.3,2.8,0,5.1,2.9,5.1h137.4c3,0,6.4-2.3,7.7-5.1,1.4-2.8,0-5.1-2.9-5.1Z"/></g></g></g><g><path class="bh" d="M1073.4,1917.2s8.3-167.9,145.3-153.6,65.5,117.9-2.4,104.8-127.4,29.8-129.8,54.8c-2.3,25-13.1-6-13.1-6Z"/><path class="dm" d="M1060.8,1999.7c-1,0-1.9-.4-2.6-1.2-2-2.3-18.1-25.1,25.4-121.7,44.5-99.1,158.6-65.7,159.7-65.4,1.9,.5,2.9,2.6,2.4,4.4-.6,1.9-2.7,2.9-4.5,2.4-4.4-1.3-109.2-31.8-151.1,61.5-41.5,92.4-26.6,114-26.4,114.2,1.2,1.5,.9,3.8-.6,5-.6,.5-1.5,.8-2.3,.8Z"/><path class="cb" d="M1060.3,1922s-13.1-366.8-145.3-366.8-117.9,101.2-48.8,127.4c69.1,26.2,146.5,62,170.3,238.2,23.8,176.3,23.8,1.2,23.8,1.2Z"/><path class="cc" d="M1052,1948.8c-1.9,0-3.5-1.6-3.6-3.5,0-1.2-3.3-127.2-56.7-227.9-52.8-99.5-88.7-112.5-89.1-112.6-1.9-.6-2.9-2.7-2.3-4.5,.6-1.9,2.7-2.9,4.5-2.3,1.6,.5,38.6,13.2,93.2,116.1,54.3,102.3,57.6,229.9,57.6,231.2,0,1.8-1.6,3.4-3.6,3.5h0Z"/><path class="da" d="M1053.2,1926.7s-23.8-110.8-15.4-265.6c8.3-154.8,103.6-208.4,156-135.8,52.4,72.7-45.3,82.2-84.5,163.2-39.3,81-38.1,220.3-33.4,234.6,4.7,14.4-22.7,3.6-22.7,3.6Z"/><path class="ct" d="M1068.7,1926.7c1.2-4.8-20.3-146.5,78.6-251.3s240.6-91.7,229.9-10.7c-10.7,81-102.4,58.4-167.9,64.3-65.5,6-128.6,173.9-125.1,201.3,3.5,27.4-15.5-3.6-15.5-3.6Z"/><path class="df" d="M1053.2,1926.7s-19-164.4-150.1-181c-131-16.7-150.1,117.9-64.3,131,85.8,13.1,164.4-8.3,191.8,52.4,27.3,60.8,22.6-2.4,22.6-2.4Z"/><path class="bt" d="M1052,1989h0c-2.1-.1-3.6-1.7-3.6-3.7,0-1,1.8-99.5-65.4-144.3-67.7-45.2-125.5-37.1-126.1-37-2,.3-3.8-1-4.1-3-.3-1.9,1.1-3.8,3-4.1,2.5-.4,61.1-8.6,131.1,38.1,70.5,47,68.6,149.4,68.6,150.5,0,1.9-1.6,3.5-3.5,3.5Z"/><path class="dm" d="M1057.4,1938c-1.8,0-3.3-1.3-3.5-3.1-.2-1.4-19.5-143,5.4-248.8,25.1-106.8,69-126.7,70.9-127.5,1.8-.8,3.9,.1,4.7,1.9,.8,1.8-.1,3.9-1.9,4.7-.4,.2-42.5,19.9-66.7,122.6-24.6,104.5-5.5,244.7-5.3,246.1,.2,2-1.1,3.8-3,4-.3,.1-.5,.1-.6,.1Z"/><path class="dr" d="M1067.2,1942.5h0c-2,0-3.6-1.6-3.6-3.5,0-1.4,.9-141.8,78.8-218.7,78.1-77.2,164.9-61,165.8-60.8,1.9,.4,3.2,2.3,2.8,4.2-.4,1.9-2.2,3.2-4.2,2.8-.8-.1-84-15.6-159.4,58.9-75.7,74.9-76.7,212.2-76.7,213.7,.1,1.8-1.5,3.4-3.5,3.4Z"/><polygon class="da" points="993.2 2072.9 1127 2072.9 1160.7 1911.9 959.5 1911.9 993.2 2072.9"/></g><g><path class="ct" d="M286.9,1949.4s-19.1-164.4-150.1-181.1-150.1,117.9-64.3,131c85.7,13.1,164.4-8.3,191.7,52.4,27.4,60.8,22.7-2.3,22.7-2.3Z"/><path class="ba" d="M285.6,2011.6h0c-2.1-.1-3.6-1.7-3.6-3.7,0-1,1.8-99.5-65.4-144.3-67.7-45.2-125.5-37.1-126.1-37-2.1,.3-3.8-1.1-4.1-3-.3-2,1-3.8,3-4.1,2.5-.4,61.1-8.6,131.1,38.1,70.5,47,68.6,149.4,68.6,150.5,0,2-1.5,3.5-3.5,3.5Z"/><g><path class="ct" d="M278,1904.3s-118.7-115.2-52.1-229.3c66.6-114,184.9-47.1,143.1,28.8-41.9,76-106.8,125.3-75.3,184,31.4,58.8-15.7,16.5-15.7,16.5Z"/><path class="ba" d="M328,1941.3q.1,0,0,0c1.2-1.7,.9-3.9-.7-5.1-.8-.6-80-59.2-74.6-139.8,5.5-81.2,47.1-122.1,47.6-122.5,1.5-1.4,1.5-3.6,.1-5s-3.6-1.5-5.1-.1c-1.8,1.7-44.1,43.2-49.7,127.2-5.7,84.5,76.6,145.5,77.5,146.1,1.6,1.1,3.7,.8,4.9-.8Z"/></g><path class="da" d="M291.6,1917.2s8.3-167.9,145.3-153.6c137,14.3,65.5,117.9-2.4,104.8-67.9-13.1-127.4,29.8-129.8,54.8s-13.1-6-13.1-6Z"/><path class="dm" d="M279,1999.7c-1,0-1.9-.4-2.6-1.2-2-2.3-18.1-25,25.4-121.7,44.6-99.1,158.6-65.7,159.7-65.4,1.9,.6,3,2.6,2.4,4.5s-2.7,2.9-4.5,2.4c-4.4-1.3-109.2-31.8-151.1,61.5-41.5,92.4-26.5,114-26.4,114.2,1.1,1.5,.9,3.8-.6,5-.7,.4-1.5,.7-2.3,.7Z"/><path class="dh" d="M292.8,1976.7s-13.1-366.9-145.3-366.9-117.9,101.2-48.8,127.5c69.1,26.2,146.5,61.9,170.3,238.2,23.8,176.3,23.8,1.2,23.8,1.2Z"/><path class="db" d="M284.4,2003.5c-1.9,0-3.5-1.6-3.6-3.5,0-1.2-3.3-127.2-56.7-228-52.8-99.4-88.7-112.5-89.1-112.6-1.9-.6-2.9-2.6-2.3-4.5,.6-1.9,2.7-2.9,4.5-2.3,1.6,.5,38.7,13.2,93.2,116.1,54.3,102.3,57.6,229.9,57.6,231.2,0,2-1.5,3.6-3.6,3.6q.1,0,0,0Z"/><path class="cb" d="M286.9,2037.9c-.3-4.9-65-132.9-3.7-263.3,61.3-130.4,200-162.2,215.1-81.9s-79.1,87.4-139.5,113.5c-60.4,26.1-68,205.3-56,230.2,11.9,24.9-15.9,1.5-15.9,1.5Z"/><path class="ds" d="M290.4,2053.3h0c-1.9,.6-3.9-.4-4.5-2.3-.5-1.3-43.4-134.9,6.6-232.4,50.1-97.8,137.7-109.4,138.5-109.5,2-.2,3.8,1.2,4,3.1,.3,2-1.1,3.7-3.1,4-.9,.1-84.7,11.4-133.1,105.6-48.6,94.8-6.6,225.6-6.2,226.9,.7,2-.3,4-2.2,4.6Z"/><polygon class="da" points="211.3 2072.9 345.1 2072.9 378.8 1911.9 177.6 1911.9 211.3 2072.9"/></g><g><polygon class="bl" points="1485.6 1892.6 1448.6 2004.4 1500 2017 1552.3 1907 1485.6 1892.6"/><polygon class="ch" points="1762.5 1916.4 1799.9 2028 1848.7 2007.2 1824.5 1887.9 1762.5 1916.4"/><path class="da" d="M1991.5,1457.8s-284.6,38.6-300.4,84.4c-15.8,45.9,59.3,400.6,59.6,406,.3,5.4,89.5-16.6,89.5-16.6,0,0-25.6-303.4-14.9-305.7,10.7-2.3,58.8,8.9,201.2,8.9,177.9,0,197.2,16.8,197.2-229.2-.1-215.5-232.2,52.2-232.2,52.2Z"/><path class="da" d="M1923,1458.2s-266.8-34.9-284.8,10.2c-18.1,45.1-173.1,441.7-173.1,447.1s79.3,33,79.3,33c0,0,193.5-328.7,204.3-330.5,10.8-1.8,33.1,18,175.5,14.4,142.4-3.6,262-1.2,233.2-215.1-28.8-213.6-234.4,40.9-234.4,40.9Z"/><path class="cm" d="M2197.5,905.6c101.2,83.5,35.1,477.9,32,521.4s-215,39.7-265.7,39.1c-49.2-.6-77.5-7.9-77.5-7.9,0,0,22.7-149.2,30.7-233.5,9.5-100.1-15.2-150.4,9.6-220.8,29.6-84.2,92.3-121.8,133.2-117.5,40.8,4.3,112.9-1.3,137.7,19.2Z"/><path class="da" d="M1510.2,1995.4s-2.6,13.8-7.2,48.7c-4.6,34.8-6.6,30.6-6.6,30.6,0,0-89.7,1.8-130.6,1.8s-44.9-1.8-44.9-7.2c0-25.3,60.7-25.3,88.4-51.1,29.4-27.4,42.8-25.6,47.4-25.6s16.6,19,53.5,2.8Z"/><path class="da" d="M1846.1,1973.6s3.4,13.6,13.9,47.2c10.5,33.6,6.9,30.6,6.9,30.6,0,0-24.6,10.9-52,24.2,0,0-129.3,2.9-131.6-2.1-10.7-22.9,64.4-27.8,71.5-40.9,19.8-36.6,37.4-37,41.6-39,4.2-1.9,23,10.2,49.7-20Z"/><path class="dt" d="M1987.4,619.6s-26.7,196.6,21,206c58.2,11.5,56.2,66.3,56.2,66.3,0,0,100.6,18.5,106.4,5.6,5.7-13-48.5-50.5,5.3-133.6,16.2-25.1-16.4-187-94.5-182.6-78.1,4.5-85.6,13.8-94.4,38.3Z"/><path class="ay" d="M1984.4,675.5c28.8,15.2,46.9,3.9,46.9,3.9,0,0,9.8,30.6,13.7,34.5s27.6-13.3,39.8,0c17.9,19.6-11.8,41.7-18.3,45s30.9,66.9,56.4,68.4c31.6,2,76.6-11.7,90.3-77.2,13.7-65.5-5.9-144.7-56.7-175-50.8-30.3-89,20.5-159.4-24.4-30.3-19.4-116.4,70.3-12.7,124.8Z"/><path class="da" d="M2055.2,888.4s1-12.2,5.9-14.7c4.9-2.4,38.6,10.8,68.9,6.8,30.3-3.9,30.8-6.8,35.7-5.4,4.9,1.5,12.7,18.6,8.8,24.4-3.9,5.9-16.6,7.3-51.3,3.4-34.7-3.7-60.6-8.6-68-14.5Z"/><path class="az" d="M2197.5,905.6c-24.8-20.5-96.9-14.8-137.7-19.2-40.9-4.4-103.5,33.3-133.2,117.5-22.7,64.5-4,112.2-8,196.5-.4,7.8-.8,15.8-1.6,24.3-.5,5.6-1.1,11.5-1.8,17.7,0,.3-.1,.6-.1,.9-.6,5.9-1.3,12-2.1,18.3h0c-9.7,84.7-26.8,196.6-26.8,196.6,0,0,20.8,5.2,57.4,7.1-3.1-19.8-6-47.8-3.8-75.5,3.4-43.5,19-126.7,23.6-150,9.5-5.8,18.4-12.6,24.7-20.7,22.2-28.7,49.5-65.2,63.9-147.3,14.4-82.1,17-162.9,23.5-165.5s47,23.5,79.5,15.6c32.6-7.8,57.4-5.2,61.3,45.6,3.9,50.8,10.4,340.3-22.1,434.1-8.9,25.7-18.3,43-26.8,55.5,35.4-5.8,61.1-15.2,62.2-30.2,3-43.5,69.1-437.8-32.1-521.3Z"/><path class="dd" d="M1831.8,1140.2s-43,78.2-58.7,89.9c-15.6,11.7-161-43.3-240.2-43.3s-82.5,32.6-76.6,32.6,26.7-17,64.9-11.1c38.1,5.9,31.3,34.2,46,34.2s27.4-6.8,51.8,2c24.4,8.8,164.9,83.4,198.1,84.4,33.2,1,124.2-117.3,145.7-143.7,21.5-26.4-119.3-56.7-126.1-46.9"/><g><g><path class="ba" d="M2114.6,1659.8l41-14.5,37.6,397.6c2.3,15.9,.2,30.4-4.6,32.1-4.8,1.7-11.5-10-14.9-26.1l-59.1-389.1Z"/><path class="di" d="M2114.6,1659.8l41-14.5,37.6,397.6c2.3,15.9,.2,30.4-4.6,32.1-4.8,1.7-11.5-10-14.9-26.1l-59.1-389.1Z"/></g><g><path class="ba" d="M2118.9,1654.8l-42.9-6.5,27.5,443.9c.4,18,4.7,33.4,9.8,34.2,4.9,.7,9.7-13.6,10.5-31.9l-4.9-439.7Z"/><path class="bs" d="M2118.9,1654.8l-42.9-6.5,27.5,443.9c.4,18,4.7,33.4,9.8,34.2,4.9,.7,9.7-13.6,10.5-31.9l-4.9-439.7Z"/></g><g><path class="ba" d="M1865.1,1646.2l43.4,1.5-112.5,431c-3.8,17.6-11.1,31.9-16.2,31.7s-6.9-15.2-4.2-33.3l89.5-430.9Z"/><path class="bc" d="M1865.1,1646.2l43.4,1.5-112.5,431c-3.8,17.6-11.1,31.9-16.2,31.7s-6.9-15.2-4.2-33.3l89.5-430.9Z"/></g><g><path class="ba" d="M2374.6,1648l-43.4,5.4,112.6,392.6c3.8,16.1,11.1,28.8,16.1,28.2s7-14.8,4.2-31.5l-89.5-394.7Z"/><path class="cl" d="M2374.6,1648l-43.4,5.4,112.6,392.6c3.8,16.1,11.1,28.8,16.1,28.2s7-14.8,4.2-31.5l-89.5-394.7Z"/></g><g><path class="cj" d="M2461.5,1073.6c0-7.9-6.5-14.4-14.4-14.4h-313.5l3.3,497.5-12.6,64.9-21.6,19.8-48.7,25.2h317.3v.1c86.9,0,90.1-56.4,90.3-150.4,0-.1,.1-.1,.1-.2l-.2-442.5h0Z"/><path class="br" d="M2461.5,1073.6c0-7.9-6.5-14.4-14.4-14.4h-313.5l3.3,497.5-12.6,64.9-21.6,19.8-48.7,25.2h317.3v.1c86.9,0,90.1-56.4,90.3-150.4,0-.1,.1-.1,.1-.2l-.2-442.5h0Z"/><path class="ba" d="M2152.8,1073.6c0-7.9-6.5-14.4-14.4-14.4h-4.8c-7.9,0-14.4,6.5-14.4,14.4v431.8h0c0,106.8-5.1,125.5-46.8,127.6-.1,0-.2-.1-.4-.1h-293.8c-7.9,0-14.4,6.5-14.4,14.4v4.8c0,7.9,6.5,14.4,14.4,14.4h284.4v.3c2.5,0,4.6-.2,7-.3h2.5c.2,0,.5-.1,.7-.1,76.7-4.5,80-59.9,80.1-150v-.2l-.1-442.6h0Z"/><path class="bp" d="M2152.8,1073.6c0-7.9-6.5-14.4-14.4-14.4h-4.8c-7.9,0-14.4,6.5-14.4,14.4v431.8h0c0,106.8-5.1,125.5-46.8,127.6-.1,0-.2-.1-.4-.1h-293.8c-7.9,0-14.4,6.5-14.4,14.4v4.8c0,7.9,6.5,14.4,14.4,14.4h284.4v.3c2.5,0,4.6-.2,7-.3h2.5c.2,0,.5-.1,.7-.1,76.7-4.5,80-59.9,80.1-150v-.2l-.1-442.6h0Z"/></g></g><path class="bm" d="M1913.3,1149c-14.4,24.1-70.5,116.8-94.3,138.8-27.4,25.4-184.8-50.8-199.4-56.7-14.5-5.8-63.4-.1-64.4,0,3.5,6.3,5.9,11.4,12.1,11.4,14.7,0,27.4-6.8,51.8,2,24.4,8.8,164.9,83.4,198.1,84.4s124.2-117.3,145.7-143.7c10.4-12.8-17.5-26.6-49.6-36.2Z"/><path class="da" d="M2025.4,891.9s-115.4,25.4-160.3,115.4c-45,90-43,129.1-43,129.1,0,0,109.5,54.8,156.4,54.8,23.5-31.3,29.3-66.5,48.9-115.4,20.5-51.5,76.2-182-2-183.9Z"/></g></svg>