<?xml version="1.0" encoding="utf-8"?>
<!-- Generator: Adobe Illustrator 26.4.1, SVG Export Plug-In . SVG Version: 6.00 Build 0)  -->
<svg version="1.1" xmlns="http://www.w3.org/2000/svg" xmlns:xlink="http://www.w3.org/1999/xlink" x="0px" y="0px"
	 viewBox="0 0 630 630" enable-background="new 0 0 630 630" xml:space="preserve">
<g id="design">
	<g>
		<g>
			<g>
				<path fill="#E0E9FF" d="M586.402,369.671c-0.283-36.256-0.009-72.617,0.821-109.056c0.022-0.965,0.042-1.931,0.059-2.897
					c0.58-32.394-1.552-65.179-11.144-92.819c-5.231-15.072-12.68-28.614-23.117-39.729c-25.941-27.625-52.527-40.455-83.568-38.825
					c-31.185,1.637-62.055,1.72-91.466-14.008C334.86,49.275,274.884,57.546,230.941,84.49
					c-38.152,23.393-65.745,69.576-83.055,113.456c-18.402,46.65-32.161,109.638-19.385,162.107
					c5.797,23.808,19.401,47.35,40.028,57.215c17.509,8.374,37.824,6.423,56.945,9.051c33.514,4.605,63.593,23.502,89.317,48.217
					c39.417,37.871,67.53,104.292,117.632,122.7c19.052,7,41.145,5.634,62.958-3.893c41.237-18.011,79.709-68.06,90.336-122.227
					C592.126,438.457,586.654,401.998,586.402,369.671z"/>
			</g>
			<path fill="#CCDBFF" d="M253.541,193.497h-12.974c-2.104-8.426-5.43-16.365-9.787-23.618l9.177-9.177
				c3.045-3.045,3.045-7.982,0-11.026l-18.892-18.892c-3.045-3.045-7.981-3.045-11.026,0l-9.177,9.177
				c-7.253-4.357-15.192-7.683-23.617-9.787V117.2c0-4.306-3.491-7.797-7.797-7.797h-26.718c-4.306,0-7.797,3.49-7.797,7.797v12.974
				c-8.425,2.103-16.365,5.43-23.618,9.786l-9.177-9.177c-3.045-3.045-7.981-3.045-11.026,0l-18.892,18.892
				c-3.045,3.045-3.045,7.982,0,11.026l9.177,9.177c-4.357,7.253-7.683,15.192-9.787,23.618H58.635
				c-4.306,0-7.797,3.491-7.797,7.797v26.718c0,4.306,3.491,7.797,7.797,7.797h12.974c2.104,8.425,5.43,16.365,9.787,23.618
				l-9.177,9.177c-3.045,3.045-3.045,7.981,0,11.026l18.892,18.892c3.045,3.045,7.981,3.045,11.026,0l9.177-9.177
				c7.253,4.357,15.192,7.683,23.618,9.786v12.974c0,4.306,3.491,7.797,7.797,7.797h26.718c4.306,0,7.797-3.491,7.797-7.797v-12.974
				c8.426-2.103,16.365-5.43,23.617-9.786l9.177,9.177c3.045,3.045,7.981,3.045,11.026,0l18.892-18.892
				c3.045-3.045,3.045-7.982,0-11.026l-9.177-9.177c4.357-7.253,7.683-15.192,9.787-23.618h12.974c4.306,0,7.797-3.491,7.797-7.797
				v-26.718C261.338,196.988,257.847,193.497,253.541,193.497z M156.088,267.358c-29.108,0-52.705-23.597-52.705-52.705
				c0-29.108,23.597-52.705,52.705-52.705c29.108,0,52.705,23.597,52.705,52.705C208.793,243.761,185.196,267.358,156.088,267.358z"
				/>
			<g>
				<path fill="#E0E9FF" d="M161.823,498.17h-5.099c-0.827-3.311-2.134-6.431-3.846-9.281l3.607-3.606
					c1.197-1.197,1.197-3.137,0-4.333l-7.425-7.425c-1.197-1.197-3.137-1.197-4.333,0l-3.607,3.607
					c-2.85-1.712-5.97-3.02-9.281-3.846v-5.099c0-1.692-1.372-3.064-3.064-3.064h-10.5c-1.692,0-3.064,1.372-3.064,3.064v5.099
					c-3.311,0.827-6.431,2.134-9.281,3.846l-3.607-3.606c-1.197-1.197-3.137-1.197-4.333,0l-7.425,7.425
					c-1.197,1.197-1.197,3.137,0,4.333l3.606,3.606c-1.712,2.85-3.019,5.97-3.846,9.281h-5.099c-1.692,0-3.064,1.372-3.064,3.064
					v10.5c0,1.692,1.372,3.064,3.064,3.064h5.099c0.827,3.311,2.134,6.431,3.846,9.281l-3.606,3.607
					c-1.197,1.197-1.197,3.137,0,4.333l7.425,7.425c1.197,1.197,3.137,1.197,4.333,0l3.607-3.606c2.85,1.712,5.97,3.019,9.281,3.846
					v5.099c0,1.692,1.372,3.064,3.064,3.064h10.5c1.692,0,3.064-1.372,3.064-3.064v-5.099c3.311-0.826,6.431-2.134,9.281-3.846
					l3.607,3.606c1.197,1.197,3.137,1.197,4.333,0l7.425-7.425c1.197-1.197,1.197-3.137,0-4.333l-3.607-3.607
					c1.712-2.85,3.019-5.97,3.846-9.281h5.099c1.692,0,3.064-1.372,3.064-3.064v-10.5
					C164.887,499.542,163.516,498.17,161.823,498.17z M123.525,527.197c-11.439,0-20.713-9.273-20.713-20.712
					c0-11.439,9.273-20.713,20.713-20.713c11.439,0,20.713,9.273,20.713,20.713C144.238,517.923,134.964,527.197,123.525,527.197z"
					/>
				<path fill="#E0E9FF" d="M112.284,446.148h-3.107c-0.504-2.018-1.301-3.92-2.344-5.657l2.198-2.198
					c0.729-0.729,0.729-1.912,0-2.641l-4.525-4.525c-0.729-0.729-1.912-0.729-2.641,0l-2.198,2.198
					c-1.737-1.044-3.639-1.84-5.657-2.344v-3.108c0-1.031-0.836-1.867-1.868-1.867h-6.399c-1.031,0-1.867,0.836-1.867,1.867v3.108
					c-2.018,0.504-3.92,1.3-5.657,2.344l-2.198-2.198c-0.729-0.729-1.912-0.729-2.641,0l-4.525,4.525
					c-0.729,0.729-0.729,1.912,0,2.641l2.198,2.198c-1.044,1.737-1.84,3.639-2.344,5.657h-3.107c-1.031,0-1.867,0.836-1.867,1.867
					v6.399c0,1.031,0.836,1.867,1.867,1.867h3.107c0.504,2.018,1.3,3.919,2.344,5.657l-2.198,2.198
					c-0.729,0.729-0.729,1.912,0,2.641l4.525,4.525c0.729,0.729,1.912,0.729,2.641,0l2.198-2.198
					c1.737,1.044,3.639,1.84,5.657,2.344v3.108c0,1.031,0.836,1.867,1.867,1.867h6.399c1.031,0,1.868-0.836,1.868-1.867v-3.108
					c2.018-0.504,3.92-1.301,5.657-2.344l2.198,2.198c0.729,0.729,1.912,0.729,2.641,0l4.525-4.525c0.729-0.729,0.729-1.912,0-2.641
					l-2.198-2.198c1.044-1.737,1.84-3.639,2.344-5.657h3.107c1.031,0,1.867-0.836,1.867-1.867v-6.399
					C114.151,446.984,113.315,446.148,112.284,446.148z M88.942,463.838c-6.972,0-12.624-5.652-12.624-12.624
					c0-6.972,5.652-12.624,12.624-12.624c6.972,0,12.624,5.652,12.624,12.624C101.566,458.187,95.914,463.838,88.942,463.838z"/>
			</g>
		</g>
		<g>
			<ellipse fill="#F1F2F2" cx="225.483" cy="571.627" rx="187.329" ry="21.896"/>
			<g>
				<g>
					<g>
						<defs>
							<path id="SVGID_1_" d="M467.37,406.819c-27.78,23.976-44.374,58.363-44.374,95.059l0,0H282.472v-0.008
								c0-36.577-16.385-70.987-44.121-94.832c-38.013-32.682-61.875-81.341-61.09-135.591
								c1.323-91.573,75.666-168.482,167.151-172.708c100.705-4.651,183.814,75.618,183.814,175.3
								C528.227,327.126,504.63,374.662,467.37,406.819z M423.719,513.681h-141.97v22.055h141.97V513.681z M423.719,549.236
								L423.719,549.236h-141.97l0,0c0,21.25,17.226,38.476,38.476,38.476h65.018C406.493,587.712,423.719,570.486,423.719,549.236z
								"/>
						</defs>
						<use xlink:href="#SVGID_1_"  overflow="visible" fill="#96B3FF"/>
						<clipPath id="SVGID_00000065765664425971499450000007483104827686285978_">
							<use xlink:href="#SVGID_1_"  overflow="visible"/>
						</clipPath>
						<g clip-path="url(#SVGID_00000065765664425971499450000007483104827686285978_)">
							<g>
								<path fill="#F4D87E" d="M413.474,400.143l8.184,11.379l5.15,1.81c1.915,0.673,4.45,3.712,3.757,5.62
									c-3.549,9.78-15.166,36.232-18.108,40.046c0,0-3.924-3.267-2.497-6.595c1.427-3.327,3.5-28.376,3.5-28.376l-7.809-10.495
									L413.474,400.143z"/>
								<path fill="#0B53FF" d="M432.571,418.082c0,0-5.191-6.077-8.3-5.642c0,0,2.723,4.3,1.699,10.03
									c-1.541,4.744-5.365,20.222-13.934,16.856c-1.468,5.307-3.411,15.946-2.587,21.016c0,0,2.745,0.635,4.329-1.038
									c0,0,5.837-8.141,7.812-11.248l9.822-24.165l7.014-0.242l1.243-2.817L432.571,418.082z"/>
								<path fill="#0B53FF" d="M440.068,303.117c0,0-77.746,14.265-87.879,19.507c-10.134,5.242-1.567,17.547,12.118,36.225
									c13.684,18.679,43.734,61.961,43.734,61.961l11.786-13.468l-33.742-59.903c0,0,81.013,1.643,88.995-7.79
									c7.982-9.434,7.717-22.132,3.628-37.174L440.068,303.117z"/>
							</g>
							<g>
								<path fill="#0B53FF" d="M377.953,146.759c-7.696-0.18-25.626,31.291,25.542,48.996c17.472,6.046,50.865-1.385,57.759-10.523
									c0,0-27.698-60.262-57.117-57.332C379.575,130.346,377.953,146.759,377.953,146.759z"/>
								<g>
									<path fill="#F4D87E" d="M317.285,278.995l11.606-7.456l15.273,2.367l52.119-10.794l1.762,15.274l-52.012,1.526
										l-5.571,1.255c-1.621,0.365-3.319,0.13-4.781-0.661l-6.958-3.766l-10.224,5.887L317.285,278.995z"/>
									<path fill="#D31C24" d="M411.627,196.692c-11.983,1.547-6.079,19.393-11.275,63.425l-50.798,8.527l2.751,12.346
										c0,0,55.061-0.671,63.459-2.059C424.979,256.12,431.873,194.077,411.627,196.692z"/>
								</g>
								<path fill="#F4D87E" d="M433.909,194.285c-5.357,4.986-4.494,11.11-12.284,10.786
									c-12.153,1.702-11.769-14.274-11.769-14.274c-4.674,1.546-13.263,2.316-20.099-7.971
									c-7.781-11.708-9.941-22.167-11.092-32.084c-0.739-6.362,1.948-10.472,12.687-13.445
									c10.738-2.984,18.696,0.252,27.481,11.685c7.191,9.384,8.425,31.424,8.425,31.424
									C429.151,184.457,433.909,194.285,433.909,194.285z"/>
								<path fill="#ED1C24" d="M478.708,302.474c0,0-25.349,2.084-38.64,0.643c-5.061-39.707-10.992-48.906-10.992-48.906
									c-13.667-1.698-17.704-6.084-17.699-12.662c-2.291-26.534-5.829-41.064-5.829-41.064c1.806-2.932,5.22-3.588,5.22-3.588
									s1.325,9.294,10.862,8.169c10.289-1.214,5.631-12.975,5.631-12.975c5.495-3.603,11.339-3.875,17.394-2.517
									c6.055,1.358,11.272,5.269,15.43,9.875c9.785,10.843,10.237,22.292,11.83,36.811c1.592,14.518-1.025,20.047-0.223,37.726
									C472.259,286.512,477.908,299.382,478.708,302.474z"/>
								<g>
									<path fill="#F4D87E" d="M358.729,298.027l6.757-11.126c0.869-1.174,2.165-1.958,3.608-2.182l13.726-2.137l57.307-9.663
										l0.616,14.692l-53.926,0.87l-5.072,3.206c-1.476,0.933-3.242,1.24-4.972,0.866l-8.239-1.784l-8.027,9.773L358.729,298.027z
										"/>
									<path fill="#FB1518" d="M436.053,198.412c2.321-5.281,4.587-8.959,10.928-8.73c17.75,0.641,5.549,26.982,18.034,78.258
										c1.265,5.196,1.983,19.092-12.727,19.92c-14.709,0.828-56.779,5.393-56.779,5.393l-5.753-16.928l51.592-7.138
										C441.349,269.188,430.044,212.083,436.053,198.412z"/>
								</g>
							</g>
							<g>
								<path fill="#D1D3D4" d="M343.447,295.75h-92.116l-15.944-51.115c-1.339-4.292,1.868-8.651,6.363-8.651h78.15
									c2.917,0,5.495,1.896,6.364,4.681L343.447,295.75z"/>
								<path fill="#A7A9AC" d="M390.861,301.112H255.346c-2.217,0-4.015-1.797-4.015-4.015v-1.347h139.529
									c1.009,0,1.827,0.818,1.827,1.828v1.707C392.688,300.294,391.87,301.112,390.861,301.112z"/>
								<path fill="#BCBEC0" d="M340.612,301.112h-85.185c-2.262,0-4.095-1.834-4.095-4.095v-1.267h92.116v2.526
									C343.447,299.843,342.178,301.112,340.612,301.112z"/>
								<path fill="#F1F2F2" d="M284.325,259.886c-0.204,0-0.398,0.044-0.595,0.073c-0.031,3.023-1.914,5.48-4.338,5.837
									c0,0.025-0.006,0.048-0.006,0.073c0,3.304,2.211,5.982,4.939,5.982c2.728,0,4.939-2.678,4.939-5.982
									C289.264,262.564,287.052,259.886,284.325,259.886z"/>
							</g>
							<g>
								<g>
									<path fill="#F4D87E" d="M384.195,438.031l1.045,11.872l1.643,5.206c0.611,1.936-0.299,5.787-2.241,6.378
										c-9.953,3.03-38.084,9.613-42.9,9.549c0,0,0.259-5.1,3.777-5.955c3.518-0.855,24.798-14.23,24.798-14.23l-0.092-10.048
										L384.195,438.031z"/>
									<path fill="#0B53FF" d="M387.071,464.234c0,0,0.471-9.701-0.906-12.239c0,0-1.897,5.307-7.095,7.928
										c-4.72,1.615-19.395,7.844-21.845-1.03c-5.126,2.011-14.802,6.841-18.363,10.543c0,0,1.14,2.577,3.428,2.84
										c0,0,10.015-0.217,13.686-0.502l26.252-5.37l3.375,4.19l3-0.697L387.071,464.234z"/>
								</g>
								<path fill="#2175FB" d="M478.708,302.474c6.92,14.499,20.55,48.687-14.218,50.731c-40.029,2.352-89.888,1.938-89.888,1.938
									l11.769,87.652l-18.823,3.571c0,0-5.061-30.677-12.144-57.958c-7.083-27.281-22.788-54.168-2.032-61.669
									C374.128,319.238,478.708,302.474,478.708,302.474z"/>
							</g>
							<g>
								<g>
									<path fill="#1C1C1D" d="M377.327,503.248H246.23c-4.368,0-8.175-2.945-9.938-7.687c-1.761-4.742-1.025-10.065,1.921-13.889
										l68.696-89.192l-60.986-79.181c-1.339-1.739-1.237-4.437,0.229-6.027c1.465-1.589,3.741-1.468,5.08,0.272l60.547,78.612
										l60.547-78.612c1.339-1.739,3.615-1.859,5.079-0.272c1.466,1.59,1.568,4.288,0.229,6.027l-60.986,79.181l68.696,89.192
										c2.946,3.824,3.682,9.147,1.921,13.887C385.504,500.302,381.695,503.248,377.327,503.248z M311.779,398.804l-68.257,88.623
										c-1.498,1.944-0.876,4.084-0.65,4.692c0.227,0.61,1.138,2.598,3.358,2.598h131.097c2.22,0,3.132-1.988,3.359-2.598
										c0.226-0.61,0.848-2.748-0.65-4.692L311.779,398.804z"/>
								</g>
								<g>
									<path fill="#A97C50" d="M428.086,311.265H195.472c-2.804,0-5.076-2.273-5.076-5.076l0,0c0-2.804,2.273-5.076,5.076-5.076
										h232.614c2.804,0,5.076,2.273,5.076,5.076l0,0C433.162,308.992,430.89,311.265,428.086,311.265z"/>
								</g>
							</g>
							<g>
								<g>
									<polygon fill="#1C1C1D" points="495.608,489.784 435.613,489.784 449.371,361.893 454.137,362.406 440.951,484.99 
										490.271,484.99 477.128,362.813 481.893,362.301 									"/>
								</g>
								<g>
									<path fill="#1C1C1D" d="M481.79,503.604h-60.001L437.888,355.4h27.804L481.79,503.604z M427.133,498.81h49.314
										l-15.057-138.616H442.19L427.133,498.81z"/>
								</g>
								<g>
									<rect x="418.166" y="352.897" fill="#A97C50" width="75.468" height="10.361"/>
									<polygon fill="#A97C50" points="497.296,363.258 490.069,363.258 497.296,324.193 504.523,324.193 									"/>
								</g>
							</g>
						</g>
					</g>
				</g>
				<g>
					<path fill="#2175FB" d="M434.54,194.908c-20.746,6.326-17.752-14.239-17.752-14.239c7.877,1.74,5.722-17.133-2.311-18.199
						c-5.119-0.679-3.981,7.058-3.981,7.058c-18.253,11.028-40.791-8.649-38.706-22.715c1.126-7.597,3-12.583,11.8-17.897
						c10.795-6.518,21.468-4.068,31.141-0.389c20.806,7.913,21.153,28.917,42.836,29.919c49.196,2.272,37.751,34.844,65.434,42.948
						c15.912,4.658,36.203,9.053,37.488,35.309c1.559,31.842-54.499,32.824-71.431,29.208
						c-22.037-4.706-24.962-41.513-29.527-55.379C453.9,193.429,448.279,190.718,434.54,194.908z"/>
				</g>
			</g>
		</g>
		<g>
			<g>
				<path fill="#0B53FF" d="M224.835,257.824c-10.727,0-14.968,4.432-14.968,13.968c0,0.877-1.668,0.877-1.668,0
					c0-9.536-3.393-13.968-14.968-13.968c-0.865,0-0.865-1.671,0-1.671c11.932,0,14.968-5.524,14.968-13.951
					c0-0.877,1.667-0.877,1.667,0c0,10.038,4.062,13.951,14.967,13.951C225.699,256.152,225.7,257.824,224.835,257.824z"/>
			</g>
			<g>
				<path fill="#0B53FF" d="M173.036,212.025c-14.953,0-20.865,6.178-20.865,19.471c0,1.222-2.324,1.222-2.324,0
					c0-13.292-4.73-19.471-20.865-19.471c-1.206,0-1.206-2.329,0.001-2.329c16.632,0,20.864-7.7,20.864-19.448
					c0-1.222,2.324-1.222,2.324,0c0,13.992,5.662,19.448,20.864,19.448C174.241,209.696,174.242,212.025,173.036,212.025z"/>
			</g>
			<g>
				<path fill="#0B53FF" d="M232.057,122.241c-26.798,0-37.392,11.072-37.392,34.894c0,2.19-4.166,2.19-4.166,0
					c0-23.822-8.478-34.894-37.392-34.894c-2.162,0-2.161-4.175,0.001-4.175c29.808,0,37.392-13.8,37.392-34.853
					c0-2.19,4.165-2.19,4.165,0c0,25.075,10.147,34.853,37.391,34.853C234.218,118.066,234.219,122.241,232.057,122.241z"/>
			</g>
		</g>
		<g>
			<g>
				<path fill="#E6E7E8" d="M215.326,578.147c0,3.753-17.012,6.794-37.997,6.794s-37.997-3.042-37.997-6.794
					c0-3.752,17.012-6.794,37.997-6.794S215.326,574.394,215.326,578.147z"/>
			</g>
			<g>
				<g>
					<g>
						<path fill="#BCBEC0" d="M212.834,580.023c-8.084,2.448-20.598,2.276-29.377,0c-2.081-0.54-4-1.518-4.42-3.626l-8.352-41.898
							h54.921l-8.352,41.898C216.833,578.505,214.891,579.4,212.834,580.023z"/>
					</g>
					<g>
						<ellipse fill="#808285" cx="198.231" cy="534.499" rx="27.375" ry="4.011"/>
					</g>
					<g>
						<path fill="#D1D3D4" d="M224.462,540.239c-5.727,4.701-12.005,8.731-18.675,11.958c-1.891,0.915-3.9,1.836-5.129,3.539
							c-1.229,1.703-1.274,4.465,0.488,5.609c0.744,0.483,1.853,0.834,1.852,1.721c-0.001,0.392-0.249,0.738-0.507,1.033
							c-1.857,2.122-4.668,3.134-6.831,4.943c-2.163,1.809-3.558,5.292-1.651,7.369c0.857,0.934,1.918,1.726,3.103,2.176
							c1.553,0.591,1.894,3.199,2.504,3.2c8.227,0.007,13.219-1.765,13.219-1.765c2.149,0,4-1.518,4.42-3.626L224.462,540.239z"/>
					</g>
				</g>
				<g>
					<g>
						<path fill="#2175FB" d="M188.664,325.585c-1.76-7.25-1.386-13.917-0.173-21.278c1.213-7.361,4.456-14.297,11.79-12.931
							c7.019,1.307,9.546,9.846,9.949,16.004c0.559,8.542-2.186,16.749-3.118,25.154c-1.412,12.729,1.506,26.643,4.843,39.008
							c2.677,9.918,6.018,17.939,8.619,29.522c1.599,7.121,2.039,17.02-0.292,26.599c-2.354,9.675-17.735,44.289-20.723,79.791
							c-1.421-45.403-10.437-58.131-13.436-73.619c-1.238-6.393-2.594-12.729-2.018-19.215c1.469-16.537,6.053-32.624,8.808-48.996
							C195.666,349.251,192.825,342.725,188.664,325.585z"/>
					</g>
					<g>
						<g>
							<path fill="#08104E" d="M197.921,535.461c-0.027,0-0.055-0.001-0.084-0.004c-0.529-0.045-0.922-0.512-0.876-1.042
								c7.009-81.513,1.405-221.32,1.347-222.723c-0.022-0.531,0.391-0.98,0.922-1.001c0.516-0.022,0.98,0.392,1.001,0.922
								c0.057,1.404,5.666,141.333-1.353,222.967C198.836,535.082,198.416,535.461,197.921,535.461z"/>
						</g>
						<g>
							<path fill="#08104E" d="M201.314,451.716c-0.015,0-0.029,0-0.044-0.001c-0.531-0.023-0.942-0.474-0.919-1.005
								c1.076-23.967,12.021-31.403,12.487-31.709c0.446-0.292,1.042-0.166,1.333,0.278c0.291,0.444,0.167,1.039-0.275,1.332l0,0
								c-0.106,0.07-10.593,7.296-11.621,30.185C202.251,451.312,201.825,451.716,201.314,451.716z"/>
						</g>
						<g>
							<path fill="#08104E" d="M201.459,434.345c-0.506,0-0.93-0.395-0.96-0.906c-1.439-24.329-10.468-27.744-10.559-27.776
								c-0.498-0.173-0.77-0.717-0.602-1.218c0.167-0.501,0.699-0.774,1.204-0.611c0.421,0.135,10.35,3.632,11.879,29.492
								c0.032,0.53-0.373,0.986-0.905,1.017C201.497,434.344,201.477,434.345,201.459,434.345z"/>
						</g>
						<g>
							<path fill="#08104E" d="M201.373,404.445c-0.031,0-0.062-0.001-0.093-0.005c-0.529-0.051-0.917-0.521-0.866-1.05
								c1.812-18.867,7.792-24.342,8.045-24.565c0.4-0.351,1.007-0.314,1.36,0.085c0.351,0.398,0.314,1.003-0.081,1.356
								c-0.082,0.074-5.685,5.381-7.408,23.309C202.282,404.073,201.864,404.445,201.373,404.445z"/>
						</g>
					</g>
				</g>
				<g>
					<g>
						<path fill="#2175FB" d="M137.974,392.513c-2.114-5.234-11.218-25.027-9.735-31.783c3.916,1.561,14.816,18.45,18.397,26.015
							c4.353,8.794,12.838,21.849,18.657,29.847c4.675,6.4,7.331,8.082,10.831,15.277c2.584,5.105,6.603,26.305,6.888,33.928
							c0.614,14.235-3.076,17.056,1.086,43.937c-8.882-33.806-27.811-53.941-30.874-63.956c-3.516-11.423-3.617-16.064-6.325-28.276
							C144.039,405.324,144.661,408.404,137.974,392.513z"/>
					</g>
					<g>
						<g>
							<path fill="#08104E" d="M187.749,536.424c-0.497,0-0.919-0.383-0.959-0.887c-4.78-60.578-44.274-144.951-47.949-149.626
								c-0.085-0.051-0.164-0.115-0.233-0.194c-0.351-0.4-0.31-1.008,0.089-1.359c0.274-0.239,0.698-0.306,1.035-0.17
								c1.623,0.66,13.278,25.321,23.499,52.181c10.167,26.715,22.84,65.58,25.478,99.015c0.041,0.53-0.354,0.994-0.884,1.036
								C187.8,536.423,187.775,536.424,187.749,536.424z M139.963,385.81c-0.046,0.04-0.094,0.074-0.145,0.104
								C139.868,385.886,139.916,385.851,139.963,385.81z M139.965,385.809c0,0.001-0.001,0.001-0.001,0.001
								C139.964,385.81,139.964,385.81,139.965,385.809z"/>
						</g>
						<g>
							<path fill="#08104E" d="M174.652,473.771c-0.428,0-0.818-0.288-0.931-0.721c-4.468-17.214,0.809-25.917,1.681-26.469
								c0.448-0.285,1.044-0.151,1.328,0.299c0.228,0.36,0.187,0.815-0.071,1.127c-0.254,0.355-5.406,7.873-1.075,24.559
								c0.133,0.514-0.175,1.04-0.69,1.173C174.814,473.762,174.732,473.771,174.652,473.771z"/>
						</g>
						<g>
							<path fill="#08104E" d="M170.784,461.081c-0.384,0-0.746-0.23-0.896-0.608c-6.507-16.413-13.337-17.168-14.094-17.2
								c-0.452-0.019-0.857-0.352-0.935-0.796l0.948-0.167l0.059-0.96c1.453,0.061,9.002,1.236,15.812,18.415
								c0.196,0.494-0.046,1.054-0.54,1.25C171.022,461.059,170.902,461.081,170.784,461.081z"/>
						</g>
						<g>
							<path fill="#08104E" d="M163.294,439.526c-0.427,0-0.817-0.285-0.93-0.717c-3.625-13.735-1.426-19.979-0.537-20.335
								c0.496-0.197,1.054,0.043,1.252,0.537c0.111,0.277,0.084,0.576-0.049,0.819c-0.137,0.314-2.234,5.488,1.196,18.488
								c0.136,0.514-0.171,1.041-0.685,1.176C163.458,439.516,163.375,439.526,163.294,439.526z"/>
						</g>
					</g>
				</g>
				<g>
					<g>
						<path fill="#628AEC" d="M248.407,435.515c2.739-3.181,15.05-14.232,20.529-13.695c-0.64,3.092-9.99,13.978-13.701,18.48
							c-4.682,5.154-9.792,14.871-11.784,21.325c-1.635,5.177-1.274,7.381-3.454,12.149c-1.662,3.264-10.255,14.448-13.436,18.536
							c-5.946,7.43-12.479,10.124-18.773,28.655c4.201-24.206,7.584-47.776,12.19-54.781c5.042-7.618,7.946-9.782,14.708-16.293
							C241.667,443.599,239.592,444.954,248.407,435.515z"/>
					</g>
					<g>
						<g>
							<path fill="#08104E" d="M204.238,536.424c-0.063,0-0.128-0.007-0.193-0.019c-0.521-0.106-0.857-0.614-0.752-1.136
								c4.652-22.933,14.772-49.266,26.408-68.723c8.801-15.48,18.53-26.596,22.192-30.781c0.561-0.641,1.095-1.251,1.286-1.498
								c0.176-0.455,0.679-0.71,1.154-0.578c0.32,0.088,0.578,0.342,0.673,0.659c0.175,0.584,0.14,0.623-1.664,2.685
								c-3.628,4.145-13.262,15.153-21.978,30.483c-11.543,19.3-21.572,45.402-26.184,68.137
								C205.088,536.109,204.687,536.424,204.238,536.424z"/>
						</g>
						<g>
							<path fill="#08104E" d="M218.004,492.79c-0.14,0-0.283-0.031-0.418-0.096c-0.479-0.231-0.679-0.808-0.448-1.286
								c5.396-11.154,12.833-12.234,14.269-12.337l0.1,0.957l0.963,0.034c-0.018,0.492-0.434,0.894-0.924,0.93
								c-0.766,0.054-7.634,0.839-12.673,11.255C218.705,492.589,218.362,492.79,218.004,492.79z"/>
						</g>
						<g>
							<path fill="#08104E" d="M221.901,484.21c-0.123,0-0.247-0.023-0.368-0.073c-0.492-0.202-0.725-0.765-0.522-1.257
								c4.756-11.516,1.931-15.795,1.71-16.098c-0.283-0.27-0.385-0.698-0.221-1.078c0.211-0.489,0.779-0.711,1.265-0.505
								c0.056,0.025,4.931,4.117-0.975,18.416C222.637,483.986,222.279,484.21,221.901,484.21z"/>
						</g>
						<g>
							<path fill="#08104E" d="M229.482,469.857c-0.202,0-0.407-0.064-0.581-0.195c-0.423-0.322-0.507-0.925-0.185-1.349
								c5.591-7.369,10.163-8.486,11.431-8.653l0.181,0.946l0.944,0.187c-0.081,0.405-0.464,0.722-0.873,0.777
								c-0.77,0.101-4.876,0.958-10.148,7.908C230.061,469.725,229.774,469.857,229.482,469.857z"/>
						</g>
					</g>
				</g>
			</g>
		</g>
		<g>
			<g>
				<circle fill="#0B53FF" cx="355.358" cy="97.834" r="22.34"/>
				<g>
					<path fill="#F4D37E" d="M340.213,96.538l9.226-3.897l0.837,2.597l-6.737,2.627l6.737,2.629l-0.837,2.596l-9.226-3.899V96.538z"
						/>
					<path fill="#F4D37E" d="M354.073,108.26h-3.282l7.211-20.77h3.238L354.073,108.26z"/>
					<path fill="#F4D37E" d="M371.817,99.19l-9.227,3.899l-0.836-2.596l6.737-2.629l-6.737-2.627l0.836-2.597l9.227,3.897V99.19z"/>
				</g>
			</g>
			<g>
				<circle fill="#0B53FF" cx="315.179" cy="57.575" r="26.555"/>
				<g>
					<path fill="#F4D37E" d="M301.441,52.84c0.12,0.412,0.253,0.877,0.398,1.395c0.147,0.518,0.302,1.053,0.467,1.606
						c0.166,0.553,0.334,1.106,0.505,1.659c0.17,0.553,0.336,1.065,0.496,1.538c0.132-0.513,0.266-1.071,0.402-1.674
						c0.136-0.603,0.265-1.227,0.386-1.87c0.121-0.644,0.24-1.284,0.356-1.923c0.116-0.638,0.225-1.254,0.325-1.847h2.443
						c-0.353,1.75-0.761,3.524-1.221,5.323c-0.46,1.8-0.958,3.509-1.494,5.127h-2.151c-0.352-0.965-0.692-1.978-1.023-3.039
						c-0.331-1.06-0.657-2.124-0.979-3.189c-0.322,1.065-0.644,2.129-0.966,3.189c-0.322,1.061-0.659,2.074-1.012,3.039h-2.149
						c-0.536-1.618-1.033-3.327-1.492-5.127c-0.459-1.799-0.865-3.573-1.219-5.323h2.548c0.102,0.593,0.212,1.209,0.334,1.847
						c0.121,0.639,0.247,1.279,0.379,1.923c0.131,0.643,0.265,1.267,0.401,1.87c0.136,0.603,0.275,1.161,0.416,1.674
						c0.182-0.493,0.357-1.015,0.529-1.568c0.171-0.553,0.337-1.105,0.498-1.659c0.161-0.553,0.31-1.085,0.446-1.598
						c0.136-0.513,0.259-0.97,0.37-1.372H301.441z"/>
					<path fill="#F4D37E" d="M316.143,52.84c0.12,0.412,0.253,0.877,0.398,1.395c0.147,0.518,0.302,1.053,0.467,1.606
						c0.166,0.553,0.334,1.106,0.505,1.659c0.17,0.553,0.336,1.065,0.496,1.538c0.132-0.513,0.266-1.071,0.402-1.674
						c0.136-0.603,0.265-1.227,0.386-1.87c0.121-0.644,0.24-1.284,0.356-1.923c0.116-0.638,0.225-1.254,0.325-1.847h2.443
						c-0.353,1.75-0.761,3.524-1.221,5.323c-0.46,1.8-0.958,3.509-1.494,5.127h-2.151c-0.352-0.965-0.692-1.978-1.023-3.039
						c-0.331-1.06-0.657-2.124-0.979-3.189c-0.322,1.065-0.643,2.129-0.966,3.189c-0.322,1.061-0.659,2.074-1.012,3.039h-2.149
						c-0.536-1.618-1.033-3.327-1.492-5.127c-0.459-1.799-0.865-3.573-1.219-5.323h2.548c0.102,0.593,0.212,1.209,0.334,1.847
						c0.121,0.639,0.247,1.279,0.379,1.923c0.131,0.643,0.265,1.267,0.401,1.87c0.136,0.603,0.275,1.161,0.416,1.674
						c0.182-0.493,0.358-1.015,0.529-1.568c0.171-0.553,0.337-1.105,0.498-1.659c0.161-0.553,0.31-1.085,0.446-1.598
						c0.136-0.513,0.259-0.97,0.37-1.372H316.143z"/>
					<path fill="#F4D37E" d="M330.845,52.84c0.12,0.412,0.253,0.877,0.398,1.395c0.146,0.518,0.302,1.053,0.467,1.606
						c0.166,0.553,0.334,1.106,0.505,1.659c0.17,0.553,0.336,1.065,0.496,1.538c0.132-0.513,0.266-1.071,0.402-1.674
						c0.136-0.603,0.265-1.227,0.386-1.87c0.121-0.644,0.24-1.284,0.357-1.923c0.116-0.638,0.225-1.254,0.325-1.847h2.443
						c-0.353,1.75-0.761,3.524-1.221,5.323c-0.46,1.8-0.958,3.509-1.494,5.127h-2.151c-0.352-0.965-0.692-1.978-1.023-3.039
						c-0.331-1.06-0.657-2.124-0.978-3.189c-0.322,1.065-0.644,2.129-0.966,3.189c-0.322,1.061-0.659,2.074-1.012,3.039h-2.149
						c-0.536-1.618-1.033-3.327-1.492-5.127c-0.459-1.799-0.865-3.573-1.219-5.323h2.548c0.102,0.593,0.212,1.209,0.334,1.847
						c0.121,0.639,0.247,1.279,0.379,1.923c0.131,0.643,0.265,1.267,0.401,1.87c0.136,0.603,0.275,1.161,0.416,1.674
						c0.182-0.493,0.357-1.015,0.529-1.568c0.171-0.553,0.337-1.105,0.498-1.659c0.161-0.553,0.31-1.085,0.446-1.598
						c0.136-0.513,0.259-0.97,0.37-1.372H330.845z"/>
				</g>
			</g>
			<g>
				
					<ellipse transform="matrix(0.7557 -0.6549 0.6549 0.7557 -16.1368 228.4741)" fill="#E0E9FF" cx="298.17" cy="135.866" rx="15.692" ry="15.692"/>
				<circle fill="#E0E9FF" cx="273.589" cy="174.426" r="7.846"/>
				<path fill="#E0E9FF" d="M283.997,215.383c0-2.003-1.624-3.627-3.626-3.627s-3.627,1.624-3.627,3.627s1.624,3.626,3.627,3.626
					S283.997,217.386,283.997,215.383z"/>
			</g>
			<g>
				<circle fill="#0B53FF" cx="329.948" cy="139.027" r="18.853"/>
				<g>
					<path fill="#F4D37E" d="M321.513,134.805h1.645v7.306h-1.645v-3.1h-2.762v3.1h-1.645v-7.306h1.645v2.794h2.762V134.805z"/>
					<path fill="#F4D37E" d="M330.264,134.805v1.402h-2.204v5.904h-1.645v-5.904h-2.203v-1.402H330.264z"/>
					<path fill="#F4D37E" d="M333.152,134.805c0.127,0.232,0.273,0.518,0.439,0.859c0.166,0.341,0.339,0.71,0.519,1.107
						c0.18,0.397,0.357,0.803,0.533,1.218c0.177,0.414,0.342,0.805,0.497,1.17c0.155-0.365,0.32-0.755,0.497-1.17
						c0.176-0.415,0.353-0.821,0.533-1.218c0.18-0.397,0.353-0.766,0.519-1.107c0.165-0.341,0.311-0.628,0.438-0.859h1.497
						c0.07,0.485,0.136,1.028,0.195,1.629c0.06,0.601,0.112,1.227,0.158,1.876c0.045,0.65,0.088,1.302,0.126,1.956
						c0.039,0.653,0.072,1.269,0.101,1.845h-1.602c-0.022-0.71-0.05-1.483-0.085-2.319c-0.035-0.836-0.088-1.68-0.157-2.53
						c-0.128,0.295-0.269,0.622-0.424,0.98c-0.155,0.358-0.309,0.717-0.46,1.075s-0.298,0.701-0.439,1.028
						c-0.142,0.327-0.261,0.607-0.359,0.838h-1.149c-0.099-0.232-0.219-0.511-0.359-0.838c-0.142-0.327-0.288-0.669-0.439-1.028
						s-0.305-0.717-0.46-1.075c-0.155-0.358-0.296-0.685-0.423-0.98c-0.07,0.851-0.123,1.694-0.158,2.53
						c-0.035,0.836-0.064,1.609-0.084,2.319h-1.603c0.027-0.576,0.062-1.191,0.1-1.845c0.039-0.654,0.081-1.306,0.127-1.956
						c0.046-0.65,0.099-1.275,0.158-1.876s0.124-1.144,0.195-1.629H333.152z"/>
					<path fill="#F4D37E" d="M345.55,140.699v1.413h-4.881v-7.306h1.645v5.893H345.55z"/>
				</g>
			</g>
			<g>
				
					<ellipse transform="matrix(0.9697 -0.2445 0.2445 0.9697 -28.9469 76.3632)" fill="#0B53FF" cx="293.159" cy="154.795" rx="15.035" ry="15.035"/>
				<g>
					<path fill="#F4D37E" d="M287.536,158.669c-1.232,0-2.171-0.343-2.816-1.028c-0.646-0.685-0.968-1.659-0.968-2.92
						c0-0.627,0.099-1.187,0.295-1.679c0.197-0.492,0.467-0.908,0.81-1.247c0.343-0.339,0.751-0.596,1.226-0.771
						c0.474-0.175,0.987-0.262,1.542-0.262c0.32,0,0.612,0.023,0.875,0.071c0.263,0.048,0.492,0.103,0.689,0.164
						c0.197,0.062,0.361,0.126,0.492,0.191c0.132,0.066,0.227,0.117,0.284,0.153l-0.491,1.378c-0.234-0.124-0.506-0.229-0.815-0.317
						c-0.31-0.088-0.661-0.131-1.056-0.131c-0.262,0-0.52,0.044-0.771,0.131c-0.252,0.087-0.475,0.228-0.667,0.421
						c-0.193,0.193-0.349,0.443-0.465,0.749c-0.117,0.307-0.176,0.678-0.176,1.116c0,0.35,0.039,0.676,0.115,0.979
						c0.076,0.303,0.2,0.563,0.372,0.782c0.171,0.219,0.396,0.392,0.673,0.52c0.276,0.128,0.612,0.191,1.006,0.191
						c0.248,0,0.471-0.014,0.667-0.044c0.197-0.029,0.372-0.064,0.525-0.104c0.153-0.04,0.288-0.085,0.404-0.137
						c0.116-0.051,0.223-0.099,0.317-0.142l0.47,1.367c-0.24,0.146-0.579,0.277-1.017,0.393
						C288.619,158.611,288.112,158.669,287.536,158.669z"/>
					<path fill="#F4D37E" d="M293.421,157.214c0.24,0,0.438-0.02,0.596-0.06c0.157-0.04,0.282-0.095,0.378-0.164
						c0.094-0.069,0.16-0.151,0.196-0.246c0.036-0.095,0.055-0.2,0.055-0.317c0-0.248-0.116-0.454-0.35-0.618
						c-0.233-0.164-0.635-0.341-1.203-0.53c-0.248-0.087-0.496-0.188-0.744-0.301c-0.248-0.113-0.47-0.255-0.667-0.427
						c-0.197-0.171-0.357-0.379-0.481-0.624c-0.124-0.244-0.186-0.541-0.186-0.891c0-0.35,0.065-0.666,0.196-0.946
						c0.132-0.28,0.317-0.52,0.559-0.716c0.24-0.197,0.532-0.348,0.875-0.454c0.342-0.105,0.728-0.158,1.159-0.158
						c0.51,0,0.951,0.055,1.323,0.164c0.372,0.109,0.678,0.23,0.919,0.361l-0.492,1.345c-0.212-0.109-0.447-0.206-0.706-0.29
						c-0.259-0.083-0.57-0.126-0.935-0.126c-0.408,0-0.702,0.057-0.881,0.169c-0.179,0.113-0.268,0.286-0.268,0.52
						c0,0.139,0.032,0.255,0.099,0.35c0.065,0.095,0.158,0.18,0.278,0.257c0.12,0.077,0.259,0.146,0.416,0.208
						c0.156,0.062,0.329,0.126,0.52,0.191c0.394,0.146,0.736,0.29,1.028,0.432c0.291,0.142,0.533,0.308,0.726,0.497
						c0.193,0.19,0.338,0.412,0.433,0.667c0.095,0.255,0.142,0.565,0.142,0.93c0,0.707-0.248,1.256-0.743,1.646
						c-0.496,0.39-1.243,0.585-2.242,0.585c-0.336,0-0.639-0.021-0.908-0.061c-0.27-0.04-0.509-0.089-0.716-0.148
						c-0.208-0.058-0.387-0.12-0.536-0.186c-0.149-0.065-0.275-0.128-0.378-0.186l0.482-1.356c0.227,0.124,0.505,0.235,0.837,0.333
						C292.533,157.165,292.94,157.214,293.421,157.214z"/>
					<path fill="#F4D37E" d="M299.786,157.214c0.24,0,0.439-0.02,0.596-0.06c0.157-0.04,0.282-0.095,0.378-0.164
						c0.094-0.069,0.16-0.151,0.196-0.246c0.036-0.095,0.055-0.2,0.055-0.317c0-0.248-0.116-0.454-0.35-0.618
						c-0.233-0.164-0.635-0.341-1.203-0.53c-0.248-0.087-0.496-0.188-0.744-0.301c-0.248-0.113-0.47-0.255-0.667-0.427
						c-0.197-0.171-0.357-0.379-0.481-0.624c-0.124-0.244-0.186-0.541-0.186-0.891c0-0.35,0.065-0.666,0.196-0.946
						c0.132-0.28,0.317-0.52,0.559-0.716c0.24-0.197,0.532-0.348,0.875-0.454c0.342-0.105,0.728-0.158,1.159-0.158
						c0.51,0,0.951,0.055,1.323,0.164c0.372,0.109,0.678,0.23,0.919,0.361l-0.492,1.345c-0.212-0.109-0.447-0.206-0.706-0.29
						c-0.259-0.083-0.57-0.126-0.935-0.126c-0.408,0-0.702,0.057-0.881,0.169c-0.179,0.113-0.268,0.286-0.268,0.52
						c0,0.139,0.032,0.255,0.099,0.35c0.065,0.095,0.158,0.18,0.278,0.257c0.12,0.077,0.259,0.146,0.416,0.208
						c0.156,0.062,0.329,0.126,0.52,0.191c0.393,0.146,0.736,0.29,1.028,0.432c0.291,0.142,0.533,0.308,0.727,0.497
						c0.193,0.19,0.338,0.412,0.433,0.667c0.095,0.255,0.142,0.565,0.142,0.93c0,0.707-0.248,1.256-0.743,1.646
						c-0.496,0.39-1.243,0.585-2.242,0.585c-0.336,0-0.639-0.021-0.908-0.061c-0.27-0.04-0.509-0.089-0.716-0.148
						c-0.208-0.058-0.387-0.12-0.536-0.186c-0.149-0.065-0.275-0.128-0.378-0.186l0.482-1.356c0.227,0.124,0.505,0.235,0.837,0.333
						C298.898,157.165,299.305,157.214,299.786,157.214z"/>
				</g>
			</g>
			<g>
				<circle fill="#0B53FF" cx="304.986" cy="177.394" r="13.288"/>
				<g>
					<path fill="#F4D37E" d="M298.36,173.906c0.999,0,1.766,0.176,2.301,0.527c0.534,0.352,0.802,0.927,0.802,1.726
						c0,0.806-0.271,1.387-0.811,1.745c-0.542,0.358-1.315,0.537-2.32,0.537h-0.474v2.243h-1.508v-6.602
						c0.328-0.064,0.677-0.11,1.044-0.136C297.761,173.919,298.083,173.906,298.36,173.906z M298.457,175.191
						c-0.11,0-0.218,0.003-0.324,0.01c-0.106,0.006-0.198,0.013-0.275,0.02v1.933h0.474c0.522,0,0.915-0.071,1.18-0.213
						c0.264-0.142,0.397-0.406,0.397-0.792c0-0.187-0.034-0.341-0.102-0.464c-0.068-0.123-0.165-0.221-0.29-0.295
						c-0.126-0.074-0.279-0.125-0.46-0.155C298.876,175.206,298.676,175.191,298.457,175.191z"/>
					<path fill="#F4D37E" d="M306.616,173.983h1.508v6.699h-1.508v-2.842h-2.533v2.842h-1.508v-6.699h1.508v2.562h2.533V173.983z"/>
					<path fill="#F4D37E" d="M311.681,173.906c0.999,0,1.766,0.176,2.301,0.527c0.534,0.352,0.802,0.927,0.802,1.726
						c0,0.806-0.27,1.387-0.811,1.745c-0.542,0.358-1.314,0.537-2.32,0.537h-0.474v2.243h-1.508v-6.602
						c0.328-0.064,0.677-0.11,1.044-0.136C311.081,173.919,311.403,173.906,311.681,173.906z M311.777,175.191
						c-0.11,0-0.218,0.003-0.324,0.01c-0.106,0.006-0.198,0.013-0.275,0.02v1.933h0.474c0.522,0,0.915-0.071,1.18-0.213
						c0.264-0.142,0.396-0.406,0.396-0.792c0-0.187-0.034-0.341-0.102-0.464c-0.068-0.123-0.165-0.221-0.29-0.295
						c-0.126-0.074-0.279-0.125-0.46-0.155C312.196,175.206,311.996,175.191,311.777,175.191z"/>
				</g>
			</g>
			<g>
				
					<ellipse transform="matrix(0.9813 -0.1927 0.1927 0.9813 -33.4752 58.3473)" fill="#0B53FF" cx="283.204" cy="201.257" rx="9.615" ry="9.615"/>
				<g>
					<path fill="#F4D37E" d="M281.87,202.322c0,0.373-0.043,0.723-0.126,1.052c-0.085,0.329-0.23,0.616-0.438,0.86
						c-0.209,0.245-0.49,0.438-0.845,0.581c-0.354,0.142-0.802,0.213-1.342,0.213c-0.497,0-0.925-0.06-1.283-0.181
						c-0.357-0.121-0.653-0.261-0.888-0.422l0.57-1.326c0.212,0.124,0.438,0.234,0.68,0.329c0.241,0.095,0.504,0.143,0.789,0.143
						c0.416,0,0.716-0.103,0.898-0.307c0.183-0.205,0.275-0.548,0.275-1.03v-4.954h1.71V202.322z"/>
					<path fill="#F4D37E" d="M285.585,203.571c0.241,0,0.44-0.02,0.598-0.061c0.157-0.04,0.283-0.095,0.378-0.164
						c0.095-0.069,0.161-0.152,0.197-0.247c0.036-0.095,0.055-0.201,0.055-0.318c0-0.248-0.117-0.455-0.351-0.62
						c-0.234-0.164-0.636-0.341-1.206-0.531c-0.248-0.088-0.496-0.188-0.745-0.302c-0.248-0.113-0.471-0.255-0.668-0.427
						c-0.197-0.172-0.358-0.38-0.482-0.625c-0.125-0.245-0.187-0.542-0.187-0.893c0-0.351,0.065-0.666,0.197-0.948
						c0.132-0.281,0.317-0.521,0.559-0.718c0.241-0.197,0.533-0.349,0.877-0.455c0.344-0.105,0.73-0.159,1.162-0.159
						c0.512,0,0.953,0.055,1.326,0.164c0.373,0.109,0.68,0.23,0.921,0.361l-0.493,1.348c-0.212-0.109-0.448-0.206-0.707-0.29
						c-0.26-0.084-0.572-0.127-0.938-0.127c-0.409,0-0.703,0.057-0.882,0.17c-0.18,0.114-0.269,0.287-0.269,0.521
						c0,0.139,0.032,0.256,0.099,0.351c0.065,0.095,0.158,0.181,0.279,0.257c0.12,0.077,0.259,0.146,0.416,0.209
						c0.157,0.062,0.331,0.126,0.522,0.192c0.395,0.146,0.737,0.291,1.03,0.433c0.292,0.143,0.535,0.309,0.729,0.499
						c0.193,0.19,0.338,0.413,0.433,0.668c0.095,0.256,0.143,0.566,0.143,0.932c0,0.709-0.248,1.259-0.745,1.649
						c-0.497,0.391-1.246,0.586-2.247,0.586c-0.336,0-0.64-0.02-0.909-0.06c-0.271-0.041-0.51-0.09-0.719-0.148
						c-0.208-0.059-0.387-0.121-0.537-0.187c-0.149-0.066-0.275-0.127-0.378-0.186l0.482-1.359c0.227,0.124,0.506,0.236,0.839,0.334
						C284.695,203.522,285.103,203.571,285.585,203.571z"/>
				</g>
			</g>
			<g>
				<path fill="#0B53FF" d="M298.17,222.98c0-3.575-2.898-6.472-6.472-6.472c-3.575,0-6.472,2.898-6.472,6.472
					s2.898,6.472,6.472,6.472C295.272,229.453,298.17,226.555,298.17,222.98z"/>
				<g>
					<path fill="#F4D37E" d="M288.882,222.645c0.222,0,0.382-0.064,0.48-0.192c0.098-0.128,0.148-0.295,0.148-0.502v-1.114
						c0-0.211,0.026-0.399,0.081-0.564c0.054-0.165,0.144-0.304,0.269-0.417c0.126-0.113,0.293-0.199,0.502-0.258
						c0.209-0.059,0.469-0.088,0.778-0.088h0.147v0.878h-0.184c-0.222,0-0.371,0.049-0.447,0.148
						c-0.076,0.099-0.114,0.251-0.114,0.458v0.981c0,0.256-0.034,0.473-0.102,0.649c-0.069,0.177-0.207,0.33-0.414,0.458
						c0.207,0.128,0.345,0.28,0.414,0.458c0.068,0.177,0.102,0.393,0.102,0.649v0.981c0,0.206,0.038,0.359,0.114,0.458
						c0.076,0.098,0.225,0.147,0.447,0.147h0.184v0.878h-0.147c-0.31,0-0.569-0.029-0.778-0.088
						c-0.209-0.059-0.376-0.145-0.502-0.258c-0.125-0.113-0.215-0.252-0.269-0.417c-0.055-0.165-0.081-0.352-0.081-0.564v-1.114
						c0-0.207-0.05-0.374-0.148-0.502c-0.099-0.127-0.259-0.191-0.48-0.191V222.645z"/>
					<path fill="#F4D37E" d="M294.505,223.516c-0.222,0-0.382,0.064-0.48,0.191c-0.098,0.128-0.147,0.295-0.147,0.502v1.114
						c0,0.212-0.026,0.399-0.081,0.564c-0.054,0.165-0.144,0.304-0.27,0.417c-0.125,0.113-0.292,0.199-0.501,0.258
						c-0.209,0.059-0.469,0.088-0.778,0.088H292.1v-0.878h0.184c0.222,0,0.37-0.049,0.447-0.147
						c0.076-0.099,0.114-0.251,0.114-0.458v-0.981c0-0.256,0.034-0.472,0.103-0.649c0.069-0.177,0.207-0.33,0.413-0.458
						c-0.206-0.128-0.344-0.28-0.413-0.458c-0.068-0.177-0.103-0.393-0.103-0.649v-0.981c0-0.207-0.038-0.359-0.114-0.458
						c-0.077-0.098-0.226-0.148-0.447-0.148H292.1v-0.878h0.147c0.31,0,0.569,0.029,0.778,0.088
						c0.209,0.059,0.376,0.145,0.501,0.258c0.126,0.113,0.216,0.252,0.27,0.417c0.055,0.165,0.081,0.353,0.081,0.564v1.114
						c0,0.206,0.05,0.374,0.147,0.502c0.099,0.128,0.259,0.192,0.48,0.192V223.516z"/>
				</g>
			</g>
		</g>
	</g>
</g>
<g id="title_text" display="none">
	<g display="inline">
		<path fill="#231F20" d="M-189.09,237.244c0.415,1.422,0.874,3.026,1.376,4.812c0.503,1.787,1.039,3.634,1.61,5.541
			c0.571,1.908,1.151,3.815,1.74,5.723c0.588,1.908,1.16,3.677,1.714,5.307c0.453-1.769,0.915-3.694,1.385-5.775
			c0.47-2.081,0.915-4.231,1.333-6.451c0.417-2.219,0.827-4.431,1.228-6.633c0.401-2.202,0.775-4.327,1.125-6.374h8.431
			c-1.221,6.035-2.626,12.157-4.213,18.366c-1.588,6.209-3.306,12.105-5.155,17.689h-7.423c-1.212-3.33-2.389-6.824-3.532-10.483
			c-1.143-3.659-2.268-7.327-3.375-11.004c-1.111,3.677-2.223,7.345-3.334,11.004c-1.111,3.66-2.274,7.154-3.49,10.483h-7.418
			c-1.847-5.584-3.562-11.48-5.146-17.689c-1.585-6.208-2.987-12.331-4.206-18.366h8.792c0.348,2.047,0.732,4.171,1.15,6.374
			c0.418,2.203,0.854,4.414,1.307,6.633c0.453,2.22,0.914,4.37,1.385,6.451c0.471,2.081,0.95,4.006,1.438,5.775
			c0.625-1.699,1.233-3.503,1.824-5.411c0.59-1.907,1.164-3.815,1.72-5.723c0.556-1.907,1.068-3.746,1.537-5.515
			c0.469-1.769,0.895-3.347,1.277-4.734H-189.09z"/>
		<path fill="#231F20" d="M-167.535,255.974c0-2.427,0.372-4.552,1.119-6.373c0.745-1.821,1.725-3.338,2.939-4.552
			c1.213-1.214,2.609-2.133,4.188-2.758c1.578-0.624,3.2-0.936,4.865-0.936c3.884,0,6.954,1.188,9.208,3.564
			c2.254,2.376,3.382,5.871,3.382,10.483c0,0.451-0.018,0.945-0.052,1.483c-0.035,0.538-0.07,1.015-0.104,1.431h-17.585
			c0.173,1.596,0.919,2.861,2.237,3.798c1.318,0.936,3.086,1.405,5.307,1.405c1.422,0,2.817-0.13,4.188-0.39
			c1.37-0.26,2.489-0.581,3.356-0.962l1.04,6.295c-0.416,0.208-0.972,0.416-1.665,0.624c-0.694,0.208-1.465,0.39-2.315,0.546
			c-0.851,0.156-1.761,0.286-2.731,0.39c-0.972,0.104-1.943,0.156-2.914,0.156c-2.463,0-4.605-0.364-6.425-1.093
			c-1.821-0.729-3.33-1.725-4.526-2.992c-1.197-1.266-2.081-2.765-2.653-4.5C-167.249,259.859-167.535,257.986-167.535,255.974z
			 M-149.325,253.008c-0.035-0.659-0.148-1.301-0.338-1.925c-0.191-0.624-0.486-1.179-0.884-1.664
			c-0.399-0.485-0.902-0.885-1.509-1.197c-0.607-0.312-1.362-0.468-2.263-0.468c-0.868,0-1.613,0.148-2.237,0.442
			c-0.625,0.295-1.145,0.685-1.561,1.17c-0.417,0.486-0.737,1.05-0.963,1.691c-0.226,0.642-0.39,1.292-0.494,1.951H-149.325z"/>
		<path fill="#231F20" d="M-110.409,255.766c0,2.185-0.321,4.162-0.962,5.931c-0.642,1.769-1.57,3.278-2.784,4.526
			c-1.214,1.249-2.705,2.211-4.474,2.887c-1.769,0.677-3.781,1.015-6.035,1.015c-0.937,0-1.917-0.044-2.939-0.13
			c-1.023-0.087-2.029-0.2-3.018-0.338c-0.989-0.139-1.934-0.303-2.835-0.494c-0.902-0.19-1.7-0.39-2.393-0.598v-38.24l7.752-1.249
			v13.631c0.866-0.381,1.768-0.676,2.705-0.885c0.937-0.208,1.942-0.312,3.018-0.312c1.942,0,3.659,0.338,5.151,1.015
			c1.491,0.676,2.739,1.639,3.746,2.887c1.005,1.249,1.768,2.75,2.289,4.501C-110.669,251.665-110.409,253.616-110.409,255.766z
			 M-118.317,255.558c0-4.995-1.839-7.492-5.515-7.492c-0.798,0-1.587,0.104-2.367,0.312c-0.78,0.208-1.414,0.468-1.899,0.78v14.099
			c0.381,0.07,0.866,0.13,1.456,0.182c0.589,0.052,1.231,0.078,1.925,0.078c2.115,0,3.711-0.729,4.787-2.185
			C-118.855,259.876-118.317,257.951-118.317,255.558z"/>
		<path fill="#231F20" d="M-96.571,263.882c1.422,0,2.427-0.138,3.018-0.416c0.589-0.277,0.884-0.815,0.884-1.613
			c0-0.625-0.382-1.171-1.145-1.639c-0.763-0.468-1.925-0.997-3.486-1.587c-1.214-0.45-2.315-0.919-3.304-1.404
			c-0.988-0.485-1.83-1.067-2.523-1.743c-0.694-0.676-1.231-1.483-1.613-2.419c-0.382-0.936-0.572-2.063-0.572-3.381
			c0-2.566,0.954-4.596,2.862-6.087c1.907-1.491,4.526-2.237,7.856-2.237c1.664,0,3.26,0.148,4.786,0.442
			c1.526,0.295,2.74,0.616,3.642,0.962l-1.353,6.035c-0.902-0.312-1.882-0.589-2.939-0.833c-1.059-0.242-2.246-0.364-3.564-0.364
			c-2.428,0-3.642,0.676-3.642,2.029c0,0.312,0.052,0.59,0.156,0.833c0.104,0.243,0.312,0.477,0.624,0.702
			c0.312,0.226,0.737,0.47,1.275,0.732c0.537,0.262,1.223,0.551,2.055,0.865c1.699,0.63,3.104,1.251,4.214,1.862
			c1.11,0.612,1.985,1.273,2.628,1.982c0.642,0.71,1.093,1.497,1.353,2.362c0.26,0.865,0.39,1.869,0.39,3.01
			c0,2.7-1.015,4.742-3.044,6.126c-2.029,1.383-4.899,2.076-8.61,2.076c-2.428,0-4.448-0.208-6.061-0.624
			c-1.613-0.416-2.731-0.763-3.356-1.04l1.301-6.295c1.318,0.521,2.671,0.929,4.058,1.223
			C-99.294,263.735-97.924,263.882-96.571,263.882z"/>
		<path fill="#231F20" d="M-70.714,234.174c0,1.423-0.46,2.542-1.378,3.356c-0.919,0.815-2.003,1.223-3.252,1.223
			c-1.249,0-2.333-0.407-3.252-1.223c-0.919-0.814-1.379-1.933-1.379-3.356c0-1.421,0.459-2.54,1.379-3.355
			c0.919-0.814,2.003-1.223,3.252-1.223c1.249,0,2.332,0.408,3.252,1.223C-71.174,231.634-70.714,232.753-70.714,234.174z
			 M-71.442,269.449h-7.752v-27.366h7.752V269.449z"/>
		<path fill="#231F20" d="M-64.419,235.267l7.752-1.249v8.064h9.313v6.451h-9.313v9.625c0,1.631,0.286,2.932,0.858,3.902
			c0.572,0.971,1.725,1.457,3.46,1.457c0.832,0,1.691-0.078,2.575-0.234c0.884-0.156,1.691-0.373,2.419-0.65l1.092,6.035
			c-0.937,0.382-1.977,0.711-3.122,0.988c-1.144,0.277-2.549,0.417-4.214,0.417c-2.116,0-3.868-0.286-5.254-0.858
			c-1.388-0.573-2.498-1.37-3.33-2.394c-0.833-1.022-1.414-2.263-1.743-3.72c-0.33-1.457-0.494-3.07-0.494-4.838V235.267z"/>
		<path fill="#231F20" d="M-43.401,255.974c0-2.427,0.372-4.552,1.119-6.373c0.745-1.821,1.725-3.338,2.939-4.552
			c1.213-1.214,2.609-2.133,4.188-2.758c1.578-0.624,3.2-0.936,4.865-0.936c3.884,0,6.954,1.188,9.209,3.564
			c2.254,2.376,3.382,5.871,3.382,10.483c0,0.451-0.018,0.945-0.052,1.483c-0.035,0.538-0.07,1.015-0.104,1.431h-17.585
			c0.173,1.596,0.918,2.861,2.237,3.798c1.318,0.936,3.086,1.405,5.307,1.405c1.422,0,2.817-0.13,4.188-0.39
			c1.37-0.26,2.489-0.581,3.356-0.962l1.041,6.295c-0.416,0.208-0.972,0.416-1.665,0.624c-0.694,0.208-1.465,0.39-2.315,0.546
			c-0.851,0.156-1.761,0.286-2.731,0.39c-0.972,0.104-1.943,0.156-2.914,0.156c-2.463,0-4.605-0.364-6.425-1.093
			c-1.821-0.729-3.33-1.725-4.526-2.992c-1.197-1.266-2.081-2.765-2.653-4.5C-43.115,259.859-43.401,257.986-43.401,255.974z
			 M-25.191,253.008c-0.035-0.659-0.148-1.301-0.338-1.925c-0.191-0.624-0.486-1.179-0.884-1.664
			c-0.399-0.485-0.902-0.885-1.509-1.197c-0.607-0.312-1.362-0.468-2.263-0.468c-0.868,0-1.613,0.148-2.237,0.442
			c-0.625,0.295-1.145,0.685-1.561,1.17c-0.417,0.486-0.737,1.05-0.963,1.691c-0.226,0.642-0.39,1.292-0.494,1.951H-25.191z"/>
		<path fill="#231F20" d="M-248.384,300.918c0,3.122-0.486,5.845-1.457,8.168c-0.971,2.324-2.35,4.25-4.136,5.775
			c-1.787,1.527-3.963,2.671-6.529,3.434c-2.567,0.762-5.446,1.145-8.636,1.145c-1.457,0-3.157-0.061-5.099-0.182
			c-1.943-0.122-3.85-0.372-5.723-0.754v-35.118c1.873-0.346,3.824-0.581,5.853-0.702c2.029-0.121,3.772-0.182,5.228-0.182
			c3.087,0,5.887,0.347,8.402,1.04c2.515,0.694,4.674,1.787,6.478,3.277c1.803,1.492,3.191,3.4,4.162,5.723
			C-248.871,294.866-248.384,297.659-248.384,300.918z M-271.849,312.364c0.381,0.035,0.824,0.061,1.327,0.078
			c0.503,0.018,1.101,0.026,1.795,0.026c4.058,0,7.067-1.022,9.027-3.069c1.959-2.046,2.939-4.873,2.939-8.48
			c0-3.78-0.937-6.642-2.81-8.584c-1.873-1.942-4.838-2.914-8.896-2.914c-0.555,0-1.127,0.009-1.717,0.026
			c-0.59,0.018-1.145,0.061-1.665,0.13V312.364z"/>
		<path fill="#231F20" d="M-243.442,305.497c0-2.427,0.372-4.552,1.119-6.373c0.745-1.821,1.725-3.338,2.939-4.552
			c1.213-1.214,2.609-2.133,4.188-2.758c1.578-0.624,3.2-0.936,4.865-0.936c3.884,0,6.954,1.188,9.208,3.564
			c2.254,2.377,3.382,5.871,3.382,10.483c0,0.451-0.018,0.945-0.052,1.483c-0.035,0.538-0.07,1.015-0.104,1.431h-17.585
			c0.173,1.596,0.918,2.861,2.237,3.798c1.318,0.937,3.086,1.405,5.307,1.405c1.422,0,2.817-0.13,4.188-0.39
			c1.37-0.26,2.489-0.581,3.356-0.962l1.04,6.295c-0.416,0.208-0.972,0.416-1.665,0.624c-0.694,0.208-1.465,0.39-2.315,0.546
			c-0.851,0.156-1.761,0.286-2.731,0.39c-0.972,0.104-1.943,0.156-2.914,0.156c-2.463,0-4.604-0.364-6.425-1.093
			c-1.821-0.728-3.33-1.725-4.526-2.992c-1.197-1.266-2.081-2.765-2.653-4.5C-243.156,309.382-243.442,307.509-243.442,305.497z
			 M-225.232,302.531c-0.035-0.659-0.148-1.301-0.338-1.925c-0.191-0.624-0.486-1.179-0.884-1.665
			c-0.399-0.485-0.902-0.885-1.509-1.197c-0.607-0.312-1.362-0.468-2.263-0.468c-0.868,0-1.613,0.148-2.237,0.442
			c-0.624,0.295-1.145,0.685-1.561,1.17c-0.417,0.486-0.737,1.05-0.963,1.691c-0.226,0.642-0.39,1.292-0.494,1.951H-225.232z"/>
		<path fill="#231F20" d="M-204.279,318.972c-1.775-3.468-3.578-7.526-5.405-12.174c-1.828-4.647-3.56-9.711-5.195-15.192h8.22
			c0.348,1.353,0.757,2.818,1.228,4.397c0.47,1.579,0.958,3.173,1.463,4.786c0.505,1.613,1.01,3.183,1.515,4.709
			c0.506,1.527,1.002,2.914,1.49,4.162c0.452-1.249,0.939-2.635,1.461-4.162c0.522-1.526,1.036-3.096,1.54-4.709
			c0.505-1.613,0.993-3.207,1.462-4.786c0.47-1.578,0.88-3.044,1.228-4.397h8.017c-1.636,5.481-3.366,10.544-5.192,15.192
			c-1.826,4.648-3.626,8.707-5.4,12.174H-204.279z"/>
		<path fill="#231F20" d="M-185.172,305.497c0-2.427,0.372-4.552,1.119-6.373c0.745-1.821,1.725-3.338,2.939-4.552
			c1.213-1.214,2.609-2.133,4.188-2.758c1.578-0.624,3.2-0.936,4.865-0.936c3.884,0,6.954,1.188,9.209,3.564
			c2.254,2.377,3.382,5.871,3.382,10.483c0,0.451-0.018,0.945-0.052,1.483c-0.035,0.538-0.07,1.015-0.104,1.431h-17.585
			c0.173,1.596,0.918,2.861,2.237,3.798c1.318,0.937,3.086,1.405,5.307,1.405c1.422,0,2.817-0.13,4.188-0.39
			c1.37-0.26,2.489-0.581,3.356-0.962l1.041,6.295c-0.416,0.208-0.972,0.416-1.665,0.624c-0.694,0.208-1.465,0.39-2.315,0.546
			c-0.851,0.156-1.761,0.286-2.731,0.39c-0.972,0.104-1.943,0.156-2.914,0.156c-2.463,0-4.605-0.364-6.425-1.093
			c-1.821-0.728-3.33-1.725-4.526-2.992c-1.197-1.266-2.081-2.765-2.653-4.5C-184.886,309.382-185.172,307.509-185.172,305.497z
			 M-166.962,302.531c-0.035-0.659-0.148-1.301-0.338-1.925c-0.191-0.624-0.486-1.179-0.884-1.665
			c-0.399-0.485-0.902-0.885-1.509-1.197c-0.607-0.312-1.362-0.468-2.263-0.468c-0.868,0-1.613,0.148-2.237,0.442
			c-0.624,0.295-1.145,0.685-1.561,1.17c-0.417,0.486-0.737,1.05-0.963,1.691c-0.226,0.642-0.39,1.292-0.494,1.951H-166.962z"/>
		<path fill="#231F20" d="M-142.562,319.492c-2.255-0.035-4.084-0.278-5.489-0.728c-1.405-0.451-2.515-1.083-3.33-1.899
			c-0.815-0.815-1.371-1.803-1.665-2.966c-0.295-1.162-0.442-2.471-0.442-3.928v-30.124l7.752-1.249v29.812
			c0,0.694,0.052,1.319,0.156,1.873c0.104,0.555,0.303,1.023,0.599,1.405c0.294,0.382,0.719,0.694,1.274,0.937
			c0.555,0.243,1.301,0.399,2.237,0.468L-142.562,319.492z"/>
		<path fill="#231F20" d="M-111.45,305.237c0,2.151-0.312,4.119-0.937,5.905c-0.625,1.787-1.527,3.312-2.706,4.579
			c-1.18,1.266-2.593,2.246-4.24,2.939c-1.648,0.693-3.495,1.04-5.541,1.04c-2.012,0-3.842-0.347-5.489-1.04
			c-1.648-0.693-3.061-1.673-4.24-2.939c-1.179-1.266-2.099-2.792-2.757-4.579c-0.659-1.786-0.988-3.754-0.988-5.905
			c0-2.15,0.338-4.11,1.015-5.879c0.676-1.768,1.613-3.277,2.809-4.526c1.197-1.249,2.619-2.219,4.266-2.914
			c1.647-0.693,3.442-1.04,5.385-1.04c1.977,0,3.789,0.347,5.437,1.04c1.647,0.694,3.06,1.665,4.24,2.914
			c1.179,1.249,2.098,2.758,2.757,4.526C-111.78,301.126-111.45,303.086-111.45,305.237z M-119.358,305.237
			c0-2.393-0.477-4.274-1.431-5.645c-0.955-1.37-2.315-2.055-4.084-2.055c-1.769,0-3.14,0.685-4.11,2.055
			c-0.972,1.371-1.457,3.251-1.457,5.645c0,2.393,0.485,4.292,1.457,5.697c0.971,1.405,2.341,2.107,4.11,2.107
			c1.769,0,3.129-0.702,4.084-2.107C-119.835,309.529-119.358,307.63-119.358,305.237z"/>
		<path fill="#231F20" d="M-80.026,305.289c0,2.116-0.26,4.041-0.78,5.775c-0.521,1.735-1.284,3.226-2.289,4.475
			c-1.007,1.249-2.255,2.22-3.746,2.913c-1.492,0.694-3.209,1.041-5.151,1.041c-1.075,0-2.081-0.104-3.018-0.312
			c-0.937-0.208-1.839-0.503-2.705-0.884v10.301h-7.752v-36.055c0.693-0.208,1.491-0.407,2.393-0.598
			c0.901-0.19,1.847-0.355,2.835-0.495c0.988-0.138,1.994-0.251,3.018-0.338c1.022-0.086,2.003-0.13,2.939-0.13
			c2.254,0,4.266,0.338,6.035,1.014c1.769,0.676,3.26,1.631,4.474,2.862c1.214,1.232,2.142,2.732,2.784,4.5
			C-80.348,301.126-80.026,303.103-80.026,305.289z M-87.935,305.497c0-2.393-0.538-4.309-1.613-5.749
			c-1.075-1.438-2.671-2.159-4.787-2.159c-0.694,0-1.335,0.026-1.925,0.078c-0.59,0.052-1.076,0.113-1.457,0.182v13.996
			c0.485,0.312,1.119,0.572,1.899,0.78c0.78,0.208,1.569,0.312,2.367,0.312C-89.773,312.936-87.935,310.457-87.935,305.497z"/>
		<path fill="#231F20" d="M-59.008,304.456c0-2.497-0.321-4.266-0.962-5.307c-0.643-1.041-1.743-1.561-3.304-1.561
			c-0.486,0-0.989,0.026-1.509,0.078c-0.521,0.052-1.023,0.113-1.509,0.182v21.123h-7.752v-26.43
			c0.658-0.173,1.431-0.355,2.315-0.546c0.884-0.19,1.821-0.364,2.81-0.52c0.988-0.156,2.003-0.277,3.043-0.364
			c1.041-0.086,2.063-0.13,3.07-0.13c1.977,0,3.581,0.252,4.812,0.754c1.23,0.503,2.245,1.101,3.043,1.795
			c1.109-0.798,2.384-1.422,3.824-1.873c1.439-0.451,2.766-0.676,3.98-0.676c2.186,0,3.98,0.304,5.385,0.91
			c1.405,0.607,2.523,1.466,3.356,2.575c0.833,1.111,1.405,2.428,1.717,3.954c0.313,1.527,0.468,3.226,0.468,5.099v15.452h-7.752
			v-14.516c0-2.497-0.321-4.266-0.962-5.307c-0.642-1.041-1.743-1.561-3.304-1.561c-0.417,0-0.997,0.104-1.743,0.312
			c-0.746,0.208-1.361,0.468-1.847,0.78c0.242,0.798,0.398,1.639,0.468,2.523c0.069,0.884,0.104,1.83,0.104,2.835v14.932h-7.752
			V304.456z"/>
		<path fill="#231F20" d="M-30.498,305.497c0-2.427,0.372-4.552,1.119-6.373c0.745-1.821,1.725-3.338,2.939-4.552
			c1.213-1.214,2.609-2.133,4.188-2.758c1.578-0.624,3.2-0.936,4.865-0.936c3.884,0,6.954,1.188,9.208,3.564
			c2.254,2.377,3.382,5.871,3.382,10.483c0,0.451-0.018,0.945-0.052,1.483c-0.035,0.538-0.07,1.015-0.104,1.431h-17.585
			c0.173,1.596,0.918,2.861,2.237,3.798c1.318,0.937,3.086,1.405,5.307,1.405c1.422,0,2.817-0.13,4.188-0.39
			c1.37-0.26,2.489-0.581,3.356-0.962l1.041,6.295c-0.416,0.208-0.972,0.416-1.665,0.624c-0.694,0.208-1.465,0.39-2.315,0.546
			c-0.851,0.156-1.761,0.286-2.731,0.39c-0.972,0.104-1.943,0.156-2.914,0.156c-2.463,0-4.604-0.364-6.425-1.093
			c-1.821-0.728-3.33-1.725-4.526-2.992c-1.197-1.266-2.081-2.765-2.653-4.5C-30.211,309.382-30.498,307.509-30.498,305.497z
			 M-12.288,302.531c-0.035-0.659-0.148-1.301-0.338-1.925c-0.191-0.624-0.486-1.179-0.884-1.665
			c-0.399-0.485-0.902-0.885-1.509-1.197c-0.608-0.312-1.362-0.468-2.263-0.468c-0.868,0-1.613,0.148-2.237,0.442
			c-0.624,0.295-1.145,0.685-1.561,1.17c-0.417,0.486-0.737,1.05-0.963,1.691c-0.226,0.642-0.39,1.292-0.494,1.951H-12.288z"/>
		<path fill="#231F20" d="M1.187,292.542c1.317-0.381,3.018-0.736,5.099-1.066c2.081-0.329,4.266-0.494,6.555-0.494
			c2.323,0,4.257,0.304,5.801,0.91c1.543,0.607,2.766,1.466,3.668,2.575c0.902,1.111,1.543,2.428,1.925,3.954
			c0.381,1.527,0.572,3.226,0.572,5.099v15.452h-7.752v-14.516c0-2.497-0.33-4.266-0.989-5.307
			c-0.659-1.041-1.891-1.561-3.694-1.561c-0.555,0-1.145,0.026-1.769,0.078c-0.624,0.052-1.179,0.113-1.665,0.182v21.123H1.187
			V292.542z"/>
		<path fill="#231F20" d="M31.57,284.79l7.752-1.249v8.064h9.313v6.451h-9.313v9.625c0,1.631,0.286,2.932,0.858,3.902
			c0.572,0.971,1.725,1.456,3.46,1.456c0.832,0,1.691-0.078,2.575-0.234c0.884-0.156,1.691-0.372,2.42-0.65l1.092,6.035
			c-0.937,0.382-1.977,0.711-3.122,0.988c-1.145,0.277-2.549,0.417-4.214,0.417c-2.116,0-3.868-0.286-5.254-0.858
			c-1.388-0.573-2.498-1.37-3.33-2.394c-0.833-1.022-1.414-2.263-1.743-3.72c-0.33-1.457-0.494-3.07-0.494-4.838V284.79z"/>
	</g>
	<g display="inline">
		<g>
			<path fill="#FB1518" d="M-93.275,396.948h-74.523c-9.394,0-17.009-7.615-17.009-17.009l0,0c0-9.394,7.615-17.009,17.009-17.009
				h74.523c9.394,0,17.009,7.615,17.009,17.009l0,0C-76.266,389.333-83.882,396.948-93.275,396.948z"/>
		</g>
		<g>
			<g>
				<path fill="#FFFFFF" d="M-159.992,382.095c0,0.661-0.074,1.283-0.223,1.865c-0.149,0.583-0.408,1.092-0.778,1.526
					c-0.369,0.434-0.868,0.778-1.496,1.03c-0.629,0.253-1.422,0.38-2.381,0.38c-0.882,0-1.639-0.107-2.274-0.321
					c-0.635-0.214-1.16-0.463-1.574-0.749l1.011-2.352c0.376,0.221,0.777,0.416,1.205,0.583c0.427,0.169,0.894,0.253,1.399,0.253
					c0.739,0,1.27-0.182,1.594-0.544c0.324-0.362,0.486-0.972,0.486-1.827v-8.785h3.032V382.095z"/>
			</g>
			<g>
				<path fill="#FFFFFF" d="M-144.25,379.88c0,1.153-0.172,2.166-0.515,3.041c-0.344,0.875-0.813,1.607-1.409,2.197
					c-0.596,0.59-1.305,1.033-2.128,1.331c-0.823,0.298-1.707,0.447-2.653,0.447c-0.92,0-1.788-0.15-2.604-0.447
					c-0.816-0.298-1.529-0.741-2.138-1.331c-0.609-0.59-1.088-1.322-1.438-2.197c-0.35-0.875-0.524-1.888-0.524-3.041
					c0-1.154,0.181-2.167,0.544-3.042c0.362-0.875,0.852-1.61,1.467-2.206c0.615-0.596,1.328-1.042,2.138-1.341
					c0.809-0.298,1.662-0.447,2.555-0.447c0.92,0,1.788,0.149,2.604,0.447c0.816,0.299,1.529,0.745,2.138,1.341
					c0.609,0.596,1.088,1.332,1.438,2.206C-144.425,377.712-144.25,378.726-144.25,379.88z M-154.531,379.88
					c0,0.66,0.081,1.257,0.243,1.788c0.162,0.532,0.395,0.988,0.7,1.37c0.304,0.382,0.677,0.677,1.117,0.884
					c0.441,0.207,0.946,0.311,1.516,0.311c0.557,0,1.06-0.104,1.507-0.311c0.447-0.207,0.822-0.502,1.127-0.884
					c0.304-0.382,0.537-0.839,0.7-1.37c0.162-0.531,0.243-1.127,0.243-1.788c0-0.661-0.081-1.26-0.243-1.798
					c-0.163-0.537-0.396-0.997-0.7-1.38c-0.304-0.381-0.68-0.677-1.127-0.883c-0.447-0.208-0.949-0.312-1.507-0.312
					c-0.57,0-1.075,0.107-1.516,0.321c-0.44,0.214-0.813,0.512-1.117,0.894c-0.304,0.383-0.538,0.843-0.7,1.38
					C-154.45,378.638-154.531,379.232-154.531,379.88z"/>
			</g>
			<g>
				<path fill="#FFFFFF" d="M-141.724,373.155h3.032v13.468h-3.032V373.155z"/>
			</g>
			<g>
				<path fill="#FFFFFF" d="M-126.545,386.623c-0.868-1.542-1.807-3.064-2.818-4.568c-1.011-1.503-2.086-2.922-3.226-4.256v8.823
					h-2.993v-13.468h2.468c0.428,0.428,0.9,0.952,1.419,1.574c0.518,0.622,1.046,1.286,1.584,1.992
					c0.538,0.707,1.072,1.438,1.604,2.197c0.531,0.758,1.03,1.487,1.496,2.186v-7.949h3.012v13.468H-126.545z"/>
			</g>
			<g>
				<path fill="#FFFFFF" d="M-110.959,386.896c-0.946,0-1.762-0.133-2.449-0.398c-0.687-0.266-1.253-0.635-1.7-1.108
					c-0.447-0.472-0.777-1.036-0.991-1.69c-0.214-0.654-0.321-1.377-0.321-2.167v-8.377h3.032v8.124c0,0.544,0.061,1.008,0.185,1.39
					c0.123,0.382,0.292,0.693,0.505,0.933c0.214,0.24,0.473,0.411,0.778,0.515c0.304,0.104,0.638,0.155,1.001,0.155
					c0.738,0,1.338-0.226,1.798-0.68c0.46-0.453,0.69-1.225,0.69-2.313v-8.124h3.032v8.377c0,0.79-0.11,1.516-0.33,2.177
					c-0.221,0.66-0.558,1.227-1.011,1.7c-0.454,0.474-1.03,0.839-1.73,1.098C-109.171,386.765-110,386.896-110.959,386.896z"/>
			</g>
			<g>
				<path fill="#FFFFFF" d="M-98.812,384.31c0.427,0,0.78-0.035,1.059-0.107c0.278-0.071,0.502-0.168,0.67-0.291
					c0.169-0.123,0.285-0.268,0.35-0.438c0.065-0.168,0.097-0.356,0.097-0.563c0-0.441-0.207-0.807-0.622-1.099
					c-0.415-0.291-1.127-0.605-2.138-0.943c-0.441-0.155-0.881-0.333-1.321-0.534c-0.441-0.2-0.836-0.453-1.186-0.758
					c-0.35-0.304-0.635-0.673-0.855-1.108c-0.22-0.434-0.33-0.962-0.33-1.584c0-0.622,0.117-1.182,0.35-1.681
					c0.233-0.498,0.564-0.923,0.991-1.273c0.428-0.349,0.946-0.618,1.555-0.807c0.609-0.187,1.295-0.281,2.06-0.281
					c0.907,0,1.691,0.097,2.352,0.291c0.661,0.195,1.205,0.408,1.632,0.641l-0.874,2.39c-0.376-0.194-0.794-0.366-1.254-0.515
					c-0.46-0.149-1.014-0.224-1.662-0.224c-0.726,0-1.247,0.101-1.565,0.302c-0.317,0.2-0.476,0.508-0.476,0.923
					c0,0.246,0.058,0.454,0.175,0.622c0.117,0.169,0.282,0.321,0.495,0.457c0.214,0.136,0.46,0.259,0.739,0.369
					c0.279,0.11,0.586,0.223,0.923,0.34c0.699,0.259,1.308,0.515,1.827,0.767c0.518,0.253,0.949,0.547,1.292,0.884
					c0.343,0.337,0.599,0.732,0.768,1.185c0.168,0.454,0.253,1.005,0.253,1.652c0,1.257-0.44,2.233-1.322,2.926
					c-0.882,0.693-2.209,1.04-3.984,1.04c-0.596,0-1.134-0.036-1.613-0.107s-0.904-0.159-1.273-0.263
					c-0.369-0.103-0.687-0.214-0.952-0.33c-0.265-0.116-0.489-0.227-0.67-0.33l0.855-2.41c0.401,0.22,0.897,0.417,1.486,0.592
					C-100.39,384.223-99.668,384.31-98.812,384.31z"/>
			</g>
		</g>
	</g>
</g>
</svg>
