<?xml version="1.0" encoding="UTF-8"?><svg id="a" xmlns="http://www.w3.org/2000/svg" xmlns:xlink="http://www.w3.org/1999/xlink" viewBox="0 0 868.78 570.62"><defs><style>.c{fill:#f4d87e;}.d{fill:#f4d37e;}.e{fill:#a7a9ac;}.f{fill:#e0e9ff;}.g{fill:#fb1518;}.h{fill:#1c1c1d;}.i{fill:#d31c24;}.j{clip-path:url(#b);}.k{fill:#a97c50;}.l{fill:#628aec;}.m{fill:#f1f2f2;}.n{fill:#808285;}.o{fill:#08104e;}.p{fill:#2175fb;}.q{fill:#ed1c24;}.r{fill:#d1d3d4;}.s{fill:#ccdbff;}.t{fill:#e6e7e8;}.u{fill:#96b3ff;}.v{fill:#bcbec0;}.w{fill:#0b53ff;}</style><clipPath id="b"><path class="u" d="M747.33,375.8c-27.78,23.98-44.37,58.36-44.37,95.06h-140.52c0-36.59-16.39-71-44.12-94.84-38.01-32.68-61.87-81.34-61.09-135.59,1.32-91.57,75.67-168.48,167.15-172.71,100.7-4.65,183.81,75.62,183.81,175.3,0,53.09-23.6,100.62-60.86,132.78Zm-43.65,106.86h-141.97v22.06h141.97v-22.06Zm0,35.55h-141.97c0,21.25,17.23,38.48,38.48,38.48h65.02c21.25,0,38.48-17.23,38.48-38.48Z"/></clipPath></defs><g><path class="f" d="M866.37,338.65c-.28-36.26,0-72.62,.82-109.06,.02-.97,.04-1.93,.06-2.9,.58-32.39-1.55-65.18-11.14-92.82-5.23-15.07-12.68-28.61-23.12-39.73-25.94-27.62-52.53-40.46-83.57-38.83-31.18,1.64-62.06,1.72-91.47-14.01-43.13-23.06-103.1-14.79-147.05,12.15-38.15,23.39-65.74,69.58-83.05,113.46-18.4,46.65-32.16,109.64-19.38,162.11,5.8,23.81,19.4,47.35,40.03,57.21,17.51,8.37,37.82,6.42,56.95,9.05,33.51,4.6,63.59,23.5,89.32,48.22,39.42,37.87,67.53,104.29,117.63,122.7,19.05,7,41.14,5.63,62.96-3.89,41.24-18.01,79.71-68.06,90.34-122.23,6.41-32.66,.94-69.12,.68-101.44Z"/><path class="s" d="M533.51,162.48h-12.97c-2.1-8.43-5.43-16.36-9.79-23.62l9.18-9.18c3.04-3.04,3.04-7.98,0-11.03l-18.89-18.89c-3.04-3.05-7.98-3.05-11.03,0l-9.18,9.18c-7.25-4.36-15.19-7.68-23.62-9.79v-12.97c0-4.31-3.49-7.8-7.8-7.8h-26.72c-4.31,0-7.8,3.49-7.8,7.8v12.97c-8.43,2.1-16.36,5.43-23.62,9.79l-9.18-9.18c-3.04-3.05-7.98-3.05-11.03,0l-18.89,18.89c-3.04,3.04-3.04,7.98,0,11.03l9.18,9.18c-4.36,7.25-7.68,15.19-9.79,23.62h-12.97c-4.31,0-7.8,3.49-7.8,7.8v26.72c0,4.31,3.49,7.8,7.8,7.8h12.97c2.1,8.43,5.43,16.36,9.79,23.62l-9.18,9.18c-3.04,3.04-3.04,7.98,0,11.03l18.89,18.89c3.04,3.05,7.98,3.05,11.03,0l9.18-9.18c7.25,4.36,15.19,7.68,23.62,9.79v12.97c0,4.31,3.49,7.8,7.8,7.8h26.72c4.31,0,7.8-3.49,7.8-7.8v-12.97c8.43-2.1,16.36-5.43,23.62-9.79l9.18,9.18c3.04,3.05,7.98,3.05,11.03,0l18.89-18.89c3.04-3.04,3.04-7.98,0-11.03l-9.18-9.18c4.36-7.25,7.68-15.19,9.79-23.62h12.97c4.31,0,7.8-3.49,7.8-7.8v-26.72c0-4.31-3.49-7.8-7.8-7.8Zm-97.45,73.86c-29.11,0-52.7-23.6-52.7-52.7s23.6-52.7,52.7-52.7,52.7,23.6,52.7,52.7-23.6,52.7-52.7,52.7Z"/><g><path class="f" d="M441.79,467.15h-5.1c-.83-3.31-2.13-6.43-3.85-9.28l3.61-3.61c1.2-1.2,1.2-3.14,0-4.33l-7.42-7.42c-1.2-1.2-3.14-1.2-4.33,0l-3.61,3.61c-2.85-1.71-5.97-3.02-9.28-3.85v-5.1c0-1.69-1.37-3.06-3.06-3.06h-10.5c-1.69,0-3.06,1.37-3.06,3.06v5.1c-3.31,.83-6.43,2.13-9.28,3.85l-3.61-3.61c-1.2-1.2-3.14-1.2-4.33,0l-7.42,7.42c-1.2,1.2-1.2,3.14,0,4.33l3.61,3.61c-1.71,2.85-3.02,5.97-3.85,9.28h-5.1c-1.69,0-3.06,1.37-3.06,3.06v10.5c0,1.69,1.37,3.06,3.06,3.06h5.1c.83,3.31,2.13,6.43,3.85,9.28l-3.61,3.61c-1.2,1.2-1.2,3.14,0,4.33l7.42,7.42c1.2,1.2,3.14,1.2,4.33,0l3.61-3.61c2.85,1.71,5.97,3.02,9.28,3.85v5.1c0,1.69,1.37,3.06,3.06,3.06h10.5c1.69,0,3.06-1.37,3.06-3.06v-5.1c3.31-.83,6.43-2.13,9.28-3.85l3.61,3.61c1.2,1.2,3.14,1.2,4.33,0l7.42-7.42c1.2-1.2,1.2-3.14,0-4.33l-3.61-3.61c1.71-2.85,3.02-5.97,3.85-9.28h5.1c1.69,0,3.06-1.37,3.06-3.06v-10.5c0-1.69-1.37-3.06-3.06-3.06Zm-38.3,29.03c-11.44,0-20.71-9.27-20.71-20.71s9.27-20.71,20.71-20.71,20.71,9.27,20.71,20.71-9.27,20.71-20.71,20.71Z"/><path class="f" d="M392.25,415.13h-3.11c-.5-2.02-1.3-3.92-2.34-5.66l2.2-2.2c.73-.73,.73-1.91,0-2.64l-4.52-4.52c-.73-.73-1.91-.73-2.64,0l-2.2,2.2c-1.74-1.04-3.64-1.84-5.66-2.34v-3.11c0-1.03-.84-1.87-1.87-1.87h-6.4c-1.03,0-1.87,.84-1.87,1.87v3.11c-2.02,.5-3.92,1.3-5.66,2.34l-2.2-2.2c-.73-.73-1.91-.73-2.64,0l-4.52,4.52c-.73,.73-.73,1.91,0,2.64l2.2,2.2c-1.04,1.74-1.84,3.64-2.34,5.66h-3.11c-1.03,0-1.87,.84-1.87,1.87v6.4c0,1.03,.84,1.87,1.87,1.87h3.11c.5,2.02,1.3,3.92,2.34,5.66l-2.2,2.2c-.73,.73-.73,1.91,0,2.64l4.52,4.53c.73,.73,1.91,.73,2.64,0l2.2-2.2c1.74,1.04,3.64,1.84,5.66,2.34v3.11c0,1.03,.84,1.87,1.87,1.87h6.4c1.03,0,1.87-.84,1.87-1.87v-3.11c2.02-.5,3.92-1.3,5.66-2.34l2.2,2.2c.73,.73,1.91,.73,2.64,0l4.52-4.53c.73-.73,.73-1.91,0-2.64l-2.2-2.2c1.04-1.74,1.84-3.64,2.34-5.66h3.11c1.03,0,1.87-.84,1.87-1.87v-6.4c0-1.03-.84-1.87-1.87-1.87Zm-23.34,17.69c-6.97,0-12.62-5.65-12.62-12.62s5.65-12.62,12.62-12.62,12.62,5.65,12.62,12.62-5.65,12.62-12.62,12.62Z"/></g></g><g><ellipse class="m" cx="505.45" cy="540.61" rx="187.33" ry="21.9"/><g><g><path class="u" d="M747.33,375.8c-27.78,23.98-44.37,58.36-44.37,95.06h-140.52c0-36.59-16.39-71-44.12-94.84-38.01-32.68-61.87-81.34-61.09-135.59,1.32-91.57,75.67-168.48,167.15-172.71,100.7-4.65,183.81,75.62,183.81,175.3,0,53.09-23.6,100.62-60.86,132.78Zm-43.65,106.86h-141.97v22.06h141.97v-22.06Zm0,35.55h-141.97c0,21.25,17.23,38.48,38.48,38.48h65.02c21.25,0,38.48-17.23,38.48-38.48Z"/><g class="j"><g><g><path class="c" d="M693.44,369.12l8.18,11.38,5.15,1.81c1.91,.67,4.45,3.71,3.76,5.62-3.55,9.78-15.17,36.23-18.11,40.05,0,0-3.92-3.27-2.5-6.59,1.43-3.33,3.5-28.38,3.5-28.38l-7.81-10.49,7.82-13.39Z"/><path class="w" d="M712.54,387.06s-5.19-6.08-8.3-5.64c0,0,2.72,4.3,1.7,10.03-1.54,4.74-5.37,20.22-13.93,16.86-1.47,5.31-3.41,15.95-2.59,21.02,0,0,2.75,.64,4.33-1.04,0,0,5.84-8.14,7.81-11.25l9.82-24.16,7.01-.24,1.24-2.82-7.1-2.75Z"/><path class="w" d="M720.03,272.1s-77.75,14.26-87.88,19.51c-10.13,5.24-1.57,17.55,12.12,36.23,13.68,18.68,43.73,61.96,43.73,61.96l11.79-13.47-33.74-59.9s81.01,1.64,89-7.79c7.98-9.43,7.72-22.13,3.63-37.17l-38.64,.64Z"/></g><g><path class="w" d="M657.92,115.74c-7.7-.18-25.63,31.29,25.54,49,17.47,6.05,50.86-1.39,57.76-10.52,0,0-27.7-60.26-57.12-57.33-24.56,2.45-26.18,18.86-26.18,18.86Z"/><g><path class="c" d="M597.25,247.97l11.61-7.46,15.27,2.37,52.12-10.79,1.76,15.27-52.01,1.53-5.57,1.26c-1.62,.37-3.32,.13-4.78-.66l-6.96-3.77-10.22,5.89-1.22-3.63Z"/><path class="i" d="M691.59,165.67c-11.98,1.55-6.08,19.39-11.27,63.43l-50.8,8.53,2.75,12.35s55.06-.67,63.46-2.06c9.22-22.81,16.11-84.85-4.14-82.24Z"/></g><path class="c" d="M713.87,163.26c-5.36,4.99-4.49,11.11-12.28,10.79-12.15,1.7-11.77-14.27-11.77-14.27-4.67,1.55-13.26,2.32-20.1-7.97-7.78-11.71-9.94-22.17-11.09-32.08-.74-6.36,1.95-10.47,12.69-13.44,10.74-2.98,18.7,.25,27.48,11.69,7.19,9.38,8.43,31.42,8.43,31.42,1.89,4.05,6.65,13.88,6.65,13.88Z"/><path class="q" d="M758.67,271.45s-25.35,2.08-38.64,.64c-5.06-39.71-10.99-48.91-10.99-48.91-13.67-1.7-17.7-6.08-17.7-12.66-2.29-26.53-5.83-41.06-5.83-41.06,1.81-2.93,5.22-3.59,5.22-3.59,0,0,1.33,9.29,10.86,8.17,10.29-1.21,5.63-12.98,5.63-12.98,5.5-3.6,11.34-3.88,17.39-2.52,6.05,1.36,11.27,5.27,15.43,9.88,9.79,10.84,10.24,22.29,11.83,36.81,1.59,14.52-1.03,20.05-.22,37.73,.57,12.53,6.22,25.4,7.02,28.49Z"/><g><path class="c" d="M638.69,267.01l6.76-11.13c.87-1.17,2.17-1.96,3.61-2.18l13.73-2.14,57.31-9.66,.62,14.69-53.93,.87-5.07,3.21c-1.48,.93-3.24,1.24-4.97,.87l-8.24-1.78-8.03,9.77-1.78-2.52Z"/><path class="g" d="M716.02,167.39c2.32-5.28,4.59-8.96,10.93-8.73,17.75,.64,5.55,26.98,18.03,78.26,1.26,5.2,1.98,19.09-12.73,19.92-14.71,.83-56.78,5.39-56.78,5.39l-5.75-16.93,51.59-7.14s-11.3-57.1-5.3-70.78Z"/></g></g><g><path class="r" d="M623.41,264.73h-92.12l-15.94-51.11c-1.34-4.29,1.87-8.65,6.36-8.65h78.15c2.92,0,5.49,1.9,6.36,4.68l17.18,55.08Z"/><path class="e" d="M531.3,264.73h139.53c1.01,0,1.83,.82,1.83,1.83v1.71c0,1.01-.82,1.83-1.83,1.83h-135.51c-2.22,0-4.01-1.8-4.01-4.01v-1.35h0Z"/><path class="v" d="M531.3,264.73h92.12v2.53c0,1.56-1.27,2.84-2.84,2.84h-85.19c-2.26,0-4.1-1.83-4.1-4.1v-1.27h0Z"/><path class="m" d="M564.29,228.87c-.2,0-.4,.04-.6,.07-.03,3.02-1.91,5.48-4.34,5.84,0,.02,0,.05,0,.07,0,3.3,2.21,5.98,4.94,5.98s4.94-2.68,4.94-5.98-2.21-5.98-4.94-5.98Z"/></g><g><g><path class="c" d="M664.16,407.01l1.05,11.87,1.64,5.21c.61,1.94-.3,5.79-2.24,6.38-9.95,3.03-38.08,9.61-42.9,9.55,0,0,.26-5.1,3.78-5.96,3.52-.86,24.8-14.23,24.8-14.23l-.09-10.05,13.97-2.77Z"/><path class="w" d="M667.04,433.21s.47-9.7-.91-12.24c0,0-1.9,5.31-7.09,7.93-4.72,1.61-19.4,7.84-21.85-1.03-5.13,2.01-14.8,6.84-18.36,10.54,0,0,1.14,2.58,3.43,2.84,0,0,10.01-.22,13.69-.5l26.25-5.37,3.38,4.19,3-.7-1.53-5.66Z"/></g><path class="p" d="M758.67,271.45c6.92,14.5,20.55,48.69-14.22,50.73-40.03,2.35-89.89,1.94-89.89,1.94l11.77,87.65-18.82,3.57s-5.06-30.68-12.14-57.96c-7.08-27.28-22.79-54.17-2.03-61.67,20.76-7.5,125.34-24.27,125.34-24.27Z"/></g><g><path class="h" d="M657.29,472.23h-131.1c-4.37,0-8.18-2.95-9.94-7.69-1.76-4.74-1.03-10.06,1.92-13.89l68.7-89.19-60.99-79.18c-1.34-1.74-1.24-4.44,.23-6.03,1.47-1.59,3.74-1.47,5.08,.27l60.55,78.61,60.55-78.61c1.34-1.74,3.62-1.86,5.08-.27,1.47,1.59,1.57,4.29,.23,6.03l-60.99,79.18,68.7,89.19c2.95,3.82,3.68,9.15,1.92,13.89-1.76,4.74-5.57,7.69-9.94,7.69Zm-65.55-104.44l-68.26,88.62c-1.5,1.94-.88,4.08-.65,4.69,.23,.61,1.14,2.6,3.36,2.6h131.1c2.22,0,3.13-1.99,3.36-2.6,.23-.61,.85-2.75-.65-4.69l-68.26-88.62Z"/><path class="k" d="M708.05,280.24h-232.61c-2.8,0-5.08-2.27-5.08-5.08h0c0-2.8,2.27-5.08,5.08-5.08h232.61c2.8,0,5.08,2.27,5.08,5.08h0c0,2.8-2.27,5.08-5.08,5.08Z"/></g><g><polygon class="h" points="775.57 458.76 715.58 458.76 729.34 330.87 734.1 331.39 720.92 453.97 770.24 453.97 757.09 331.79 761.86 331.28 775.57 458.76"/><path class="h" d="M761.76,472.58h-60l16.1-148.2h27.8l16.1,148.2Zm-54.66-4.79h49.31l-15.06-138.62h-19.2l-15.06,138.62Z"/><g><rect class="k" x="698.13" y="321.88" width="75.47" height="10.36"/><polygon class="k" points="777.26 332.24 770.03 332.24 777.26 293.17 784.49 293.17 777.26 332.24"/></g></g></g></g></g><path class="p" d="M714.5,163.89c-20.75,6.33-17.75-14.24-17.75-14.24,7.88,1.74,5.72-17.13-2.31-18.2-5.12-.68-3.98,7.06-3.98,7.06-18.25,11.03-40.79-8.65-38.71-22.71,1.13-7.6,3-12.58,11.8-17.9,10.79-6.52,21.47-4.07,31.14-.39,20.81,7.91,21.15,28.92,42.84,29.92,49.2,2.27,37.75,34.84,65.43,42.95,15.91,4.66,36.2,9.05,37.49,35.31,1.56,31.84-54.5,32.82-71.43,29.21-22.04-4.71-24.96-41.51-29.53-55.38-5.63-17.1-11.25-19.81-24.99-15.62Z"/></g></g><g><path class="w" d="M504.8,226.8c-10.73,0-14.97,4.43-14.97,13.97,0,.88-1.67,.88-1.67,0,0-9.54-3.39-13.97-14.97-13.97-.87,0-.86-1.67,0-1.67,11.93,0,14.97-5.52,14.97-13.95,0-.88,1.67-.88,1.67,0,0,10.04,4.06,13.95,14.97,13.95,.87,0,.87,1.67,0,1.67Z"/><path class="w" d="M453,181.01c-14.95,0-20.86,6.18-20.86,19.47,0,1.22-2.32,1.22-2.32,0,0-13.29-4.73-19.47-20.86-19.47-1.21,0-1.21-2.33,0-2.33,16.63,0,20.86-7.7,20.86-19.45,0-1.22,2.32-1.22,2.32,0,0,13.99,5.66,19.45,20.86,19.45,1.21,0,1.21,2.33,0,2.33Z"/><path class="w" d="M512.02,91.22c-26.8,0-37.39,11.07-37.39,34.89,0,2.19-4.17,2.19-4.17,0,0-23.82-8.48-34.89-37.39-34.89-2.16,0-2.16-4.17,0-4.17,29.81,0,37.39-13.8,37.39-34.85,0-2.19,4.17-2.19,4.17,0,0,25.07,10.15,34.85,37.39,34.85,2.16,0,2.16,4.17,0,4.17Z"/></g><g><path class="t" d="M495.29,547.13c0,3.75-17.01,6.79-38,6.79s-38-3.04-38-6.79,17.01-6.79,38-6.79,38,3.04,38,6.79Z"/><g><g><path class="v" d="M492.8,549c-8.08,2.45-20.6,2.28-29.38,0-2.08-.54-4-1.52-4.42-3.63l-8.35-41.9h54.92l-8.35,41.9c-.42,2.11-2.36,3-4.42,3.63Z"/><ellipse class="n" cx="478.2" cy="503.48" rx="27.37" ry="4.01"/><path class="r" d="M504.43,509.22c-5.73,4.7-12,8.73-18.67,11.96-1.89,.91-3.9,1.84-5.13,3.54-1.23,1.7-1.27,4.46,.49,5.61,.74,.48,1.85,.83,1.85,1.72,0,.39-.25,.74-.51,1.03-1.86,2.12-4.67,3.13-6.83,4.94-2.16,1.81-3.56,5.29-1.65,7.37,.86,.93,1.92,1.73,3.1,2.18,1.55,.59,1.89,3.2,2.5,3.2,8.23,0,13.22-1.77,13.22-1.77,2.15,0,4-1.52,4.42-3.63l7.21-36.16Z"/></g><g><path class="p" d="M468.63,294.56c-1.76-7.25-1.39-13.92-.17-21.28,1.21-7.36,4.46-14.3,11.79-12.93,7.02,1.31,9.55,9.85,9.95,16,.56,8.54-2.19,16.75-3.12,25.15-1.41,12.73,1.51,26.64,4.84,39.01,2.68,9.92,6.02,17.94,8.62,29.52,1.6,7.12,2.04,17.02-.29,26.6-2.35,9.67-17.74,44.29-20.72,79.79-1.42-45.4-10.44-58.13-13.44-73.62-1.24-6.39-2.59-12.73-2.02-19.22,1.47-16.54,6.05-32.62,8.81-49,2.75-16.37-.09-22.9-4.25-40.04Z"/><g><path class="o" d="M477.89,504.44s-.06,0-.08,0c-.53-.05-.92-.51-.88-1.04,7.01-81.51,1.4-221.32,1.35-222.72-.02-.53,.39-.98,.92-1,.52-.02,.98,.39,1,.92,.06,1.4,5.67,141.33-1.35,222.97-.04,.5-.46,.88-.96,.88Z"/><path class="o" d="M481.28,420.7s-.03,0-.04,0c-.53-.02-.94-.47-.92-1.01,1.08-23.97,12.02-31.4,12.49-31.71,.45-.29,1.04-.17,1.33,.28,.29,.44,.17,1.04-.28,1.33h0c-.11,.07-10.59,7.3-11.62,30.19-.02,.52-.45,.92-.96,.92Z"/><path class="o" d="M481.42,403.33c-.51,0-.93-.39-.96-.91-1.44-24.33-10.47-27.74-10.56-27.78-.5-.17-.77-.72-.6-1.22,.17-.5,.7-.77,1.2-.61,.42,.14,10.35,3.63,11.88,29.49,.03,.53-.37,.99-.9,1.02-.02,0-.04,0-.06,0Z"/><path class="o" d="M481.34,373.42s-.06,0-.09,0c-.53-.05-.92-.52-.87-1.05,1.81-18.87,7.79-24.34,8.04-24.57,.4-.35,1.01-.31,1.36,.08,.35,.4,.31,1-.08,1.36-.08,.07-5.68,5.38-7.41,23.31-.05,.5-.47,.87-.96,.87Z"/></g></g><g><path class="p" d="M417.94,361.49c-2.11-5.23-11.22-25.03-9.73-31.78,3.92,1.56,14.82,18.45,18.4,26.01,4.35,8.79,12.84,21.85,18.66,29.85,4.68,6.4,7.33,8.08,10.83,15.28,2.58,5.1,6.6,26.31,6.89,33.93,.61,14.24-3.08,17.06,1.09,43.94-8.88-33.81-27.81-53.94-30.87-63.96-3.52-11.42-3.62-16.06-6.32-28.28-2.86-12.18-2.24-9.1-8.93-24.99Z"/><g><path class="o" d="M467.71,505.4c-.5,0-.92-.38-.96-.89-4.78-60.58-44.27-144.95-47.95-149.63-.09-.05-.16-.11-.23-.19-.35-.4-.31-1.01,.09-1.36,.27-.24,.7-.31,1.04-.17,1.62,.66,13.28,25.32,23.5,52.18,10.17,26.71,22.84,65.58,25.48,99.01,.04,.53-.35,.99-.88,1.04-.03,0-.05,0-.08,0Zm-47.79-150.61s-.09,.07-.14,.1c.05-.03,.1-.06,.14-.1Zm0,0s0,0,0,0c0,0,0,0,0,0Z"/><path class="o" d="M454.62,442.75c-.43,0-.82-.29-.93-.72-4.47-17.21,.81-25.92,1.68-26.47,.45-.28,1.04-.15,1.33,.3,.23,.36,.19,.82-.07,1.13-.25,.36-5.41,7.87-1.07,24.56,.13,.51-.17,1.04-.69,1.17-.08,.02-.16,.03-.24,.03Z"/><path class="o" d="M450.75,430.06c-.38,0-.75-.23-.9-.61-6.51-16.41-13.34-17.17-14.09-17.2-.45-.02-.86-.35-.94-.8l.95-.17,.06-.96c1.45,.06,9,1.24,15.81,18.42,.2,.49-.05,1.05-.54,1.25-.12,.05-.24,.07-.35,.07Z"/><path class="o" d="M443.26,408.51c-.43,0-.82-.28-.93-.72-3.63-13.74-1.43-19.98-.54-20.34,.5-.2,1.05,.04,1.25,.54,.11,.28,.08,.58-.05,.82-.14,.31-2.23,5.49,1.2,18.49,.14,.51-.17,1.04-.68,1.18-.08,.02-.16,.03-.25,.03Z"/></g></g><g><path class="l" d="M528.37,404.49c2.74-3.18,15.05-14.23,20.53-13.7-.64,3.09-9.99,13.98-13.7,18.48-4.68,5.15-9.79,14.87-11.78,21.32-1.63,5.18-1.27,7.38-3.45,12.15-1.66,3.26-10.25,14.45-13.44,18.54-5.95,7.43-12.48,10.12-18.77,28.66,4.2-24.21,7.58-47.78,12.19-54.78,5.04-7.62,7.95-9.78,14.71-16.29,6.98-6.29,4.91-4.94,13.72-14.38Z"/><g><path class="o" d="M484.2,505.4c-.06,0-.13,0-.19-.02-.52-.11-.86-.61-.75-1.14,4.65-22.93,14.77-49.27,26.41-68.72,8.8-15.48,18.53-26.6,22.19-30.78,.56-.64,1.1-1.25,1.29-1.5,.18-.46,.68-.71,1.15-.58,.32,.09,.58,.34,.67,.66,.17,.58,.14,.62-1.66,2.69-3.63,4.14-13.26,15.15-21.98,30.48-11.54,19.3-21.57,45.4-26.18,68.14-.09,.46-.49,.77-.94,.77Z"/><path class="o" d="M497.97,461.77c-.14,0-.28-.03-.42-.1-.48-.23-.68-.81-.45-1.29,5.4-11.15,12.83-12.23,14.27-12.34l.1,.96,.96,.03c-.02,.49-.43,.89-.92,.93-.77,.05-7.63,.84-12.67,11.25-.17,.34-.51,.54-.87,.54Z"/><path class="o" d="M501.87,453.19c-.12,0-.25-.02-.37-.07-.49-.2-.72-.77-.52-1.26,4.76-11.52,1.93-15.79,1.71-16.1-.28-.27-.38-.7-.22-1.08,.21-.49,.78-.71,1.26-.51,.06,.02,4.93,4.12-.98,18.42-.15,.37-.51,.6-.89,.6Z"/><path class="o" d="M509.45,438.84c-.2,0-.41-.06-.58-.2-.42-.32-.51-.93-.19-1.35,5.59-7.37,10.16-8.49,11.43-8.65l.18,.95,.94,.19c-.08,.41-.46,.72-.87,.78-.77,.1-4.88,.96-10.15,7.91-.19,.25-.48,.38-.77,.38Z"/></g></g></g></g><g><g><circle class="w" cx="635.32" cy="66.81" r="22.34"/><g><path class="d" d="M620.18,65.52l9.23-3.9,.84,2.6-6.74,2.63,6.74,2.63-.84,2.6-9.23-3.9v-2.65Z"/><path class="d" d="M634.04,77.24h-3.28l7.21-20.77h3.24l-7.17,20.77Z"/><path class="d" d="M651.78,68.17l-9.23,3.9-.84-2.6,6.74-2.63-6.74-2.63,.84-2.6,9.23,3.9v2.65Z"/></g></g><g><circle class="w" cx="595.14" cy="26.55" r="26.55"/><g><path class="d" d="M581.41,21.82c.12,.41,.25,.88,.4,1.39,.15,.52,.3,1.05,.47,1.61,.17,.55,.33,1.11,.5,1.66,.17,.55,.34,1.07,.5,1.54,.13-.51,.27-1.07,.4-1.67,.14-.6,.26-1.23,.39-1.87,.12-.64,.24-1.28,.36-1.92,.12-.64,.22-1.25,.33-1.85h2.44c-.35,1.75-.76,3.52-1.22,5.32-.46,1.8-.96,3.51-1.49,5.13h-2.15c-.35-.96-.69-1.98-1.02-3.04-.33-1.06-.66-2.12-.98-3.19-.32,1.07-.64,2.13-.97,3.19-.32,1.06-.66,2.07-1.01,3.04h-2.15c-.54-1.62-1.03-3.33-1.49-5.13-.46-1.8-.87-3.57-1.22-5.32h2.55c.1,.59,.21,1.21,.33,1.85,.12,.64,.25,1.28,.38,1.92,.13,.64,.26,1.27,.4,1.87,.14,.6,.28,1.16,.42,1.67,.18-.49,.36-1.02,.53-1.57,.17-.55,.34-1.11,.5-1.66,.16-.55,.31-1.09,.45-1.6,.14-.51,.26-.97,.37-1.37h2Z"/><path class="d" d="M596.11,21.82c.12,.41,.25,.88,.4,1.39,.15,.52,.3,1.05,.47,1.61,.17,.55,.33,1.11,.5,1.66,.17,.55,.34,1.07,.5,1.54,.13-.51,.27-1.07,.4-1.67,.14-.6,.26-1.23,.39-1.87,.12-.64,.24-1.28,.36-1.92,.12-.64,.22-1.25,.33-1.85h2.44c-.35,1.75-.76,3.52-1.22,5.32-.46,1.8-.96,3.51-1.49,5.13h-2.15c-.35-.96-.69-1.98-1.02-3.04-.33-1.06-.66-2.12-.98-3.19-.32,1.07-.64,2.13-.97,3.19-.32,1.06-.66,2.07-1.01,3.04h-2.15c-.54-1.62-1.03-3.33-1.49-5.13-.46-1.8-.87-3.57-1.22-5.32h2.55c.1,.59,.21,1.21,.33,1.85,.12,.64,.25,1.28,.38,1.92,.13,.64,.26,1.27,.4,1.87,.14,.6,.28,1.16,.42,1.67,.18-.49,.36-1.02,.53-1.57,.17-.55,.34-1.11,.5-1.66,.16-.55,.31-1.09,.45-1.6,.14-.51,.26-.97,.37-1.37h2Z"/><path class="d" d="M610.81,21.82c.12,.41,.25,.88,.4,1.39,.15,.52,.3,1.05,.47,1.61,.17,.55,.33,1.11,.5,1.66,.17,.55,.34,1.07,.5,1.54,.13-.51,.27-1.07,.4-1.67,.14-.6,.26-1.23,.39-1.87,.12-.64,.24-1.28,.36-1.92,.12-.64,.22-1.25,.33-1.85h2.44c-.35,1.75-.76,3.52-1.22,5.32-.46,1.8-.96,3.51-1.49,5.13h-2.15c-.35-.96-.69-1.98-1.02-3.04-.33-1.06-.66-2.12-.98-3.19-.32,1.07-.64,2.13-.97,3.19-.32,1.06-.66,2.07-1.01,3.04h-2.15c-.54-1.62-1.03-3.33-1.49-5.13-.46-1.8-.87-3.57-1.22-5.32h2.55c.1,.59,.21,1.21,.33,1.85,.12,.64,.25,1.28,.38,1.92,.13,.64,.26,1.27,.4,1.87,.14,.6,.28,1.16,.42,1.67,.18-.49,.36-1.02,.53-1.57,.17-.55,.34-1.11,.5-1.66,.16-.55,.31-1.09,.45-1.6,.14-.51,.26-.97,.37-1.37h2Z"/></g></g><g><circle class="f" cx="578.14" cy="104.85" r="15.69" transform="translate(72.58 404.25) rotate(-40.91)"/><circle class="f" cx="553.55" cy="143.41" r="7.85"/><path class="f" d="M563.96,184.36c0-2-1.62-3.63-3.63-3.63s-3.63,1.62-3.63,3.63,1.62,3.63,3.63,3.63,3.63-1.62,3.63-3.63Z"/></g><g><circle class="w" cx="609.91" cy="108.01" r="18.85"/><g><path class="d" d="M601.48,103.78h1.64v7.31h-1.64v-3.1h-2.76v3.1h-1.64v-7.31h1.64v2.79h2.76v-2.79Z"/><path class="d" d="M610.23,103.78v1.4h-2.2v5.9h-1.64v-5.9h-2.2v-1.4h6.05Z"/><path class="d" d="M613.12,103.78c.13,.23,.27,.52,.44,.86,.17,.34,.34,.71,.52,1.11s.36,.8,.53,1.22c.18,.41,.34,.8,.5,1.17,.16-.37,.32-.76,.5-1.17,.18-.41,.35-.82,.53-1.22s.35-.77,.52-1.11c.16-.34,.31-.63,.44-.86h1.5c.07,.48,.14,1.03,.2,1.63,.06,.6,.11,1.23,.16,1.88,.04,.65,.09,1.3,.13,1.96,.04,.65,.07,1.27,.1,1.84h-1.6c-.02-.71-.05-1.48-.08-2.32s-.09-1.68-.16-2.53c-.13,.3-.27,.62-.42,.98-.16,.36-.31,.72-.46,1.08s-.3,.7-.44,1.03c-.14,.33-.26,.61-.36,.84h-1.15c-.1-.23-.22-.51-.36-.84-.14-.33-.29-.67-.44-1.03-.15-.36-.3-.72-.46-1.08-.16-.36-.3-.69-.42-.98-.07,.85-.12,1.69-.16,2.53-.04,.84-.06,1.61-.08,2.32h-1.6c.03-.58,.06-1.19,.1-1.84,.04-.65,.08-1.31,.13-1.96,.05-.65,.1-1.28,.16-1.88s.12-1.14,.2-1.63h1.57Z"/><path class="d" d="M625.51,109.68v1.41h-4.88v-7.31h1.64v5.89h3.24Z"/></g></g><g><circle class="w" cx="573.12" cy="123.78" r="15.03" transform="translate(-12.87 143.86) rotate(-14.15)"/><g><path class="d" d="M567.5,127.65c-1.23,0-2.17-.34-2.82-1.03-.65-.68-.97-1.66-.97-2.92,0-.63,.1-1.19,.29-1.68,.2-.49,.47-.91,.81-1.25,.34-.34,.75-.6,1.23-.77,.47-.17,.99-.26,1.54-.26,.32,0,.61,.02,.87,.07,.26,.05,.49,.1,.69,.16,.2,.06,.36,.13,.49,.19,.13,.07,.23,.12,.28,.15l-.49,1.38c-.23-.12-.51-.23-.82-.32-.31-.09-.66-.13-1.06-.13-.26,0-.52,.04-.77,.13-.25,.09-.47,.23-.67,.42-.19,.19-.35,.44-.46,.75-.12,.31-.18,.68-.18,1.12,0,.35,.04,.68,.12,.98,.08,.3,.2,.56,.37,.78,.17,.22,.4,.39,.67,.52,.28,.13,.61,.19,1.01,.19,.25,0,.47-.01,.67-.04,.2-.03,.37-.06,.53-.1,.15-.04,.29-.09,.4-.14,.12-.05,.22-.1,.32-.14l.47,1.37c-.24,.15-.58,.28-1.02,.39-.44,.12-.94,.18-1.52,.18Z"/><path class="d" d="M573.39,126.19c.24,0,.44-.02,.6-.06s.28-.09,.38-.16c.09-.07,.16-.15,.2-.25,.04-.09,.05-.2,.05-.32,0-.25-.12-.45-.35-.62-.23-.16-.63-.34-1.2-.53-.25-.09-.5-.19-.74-.3-.25-.11-.47-.26-.67-.43-.2-.17-.36-.38-.48-.62-.12-.24-.19-.54-.19-.89s.07-.67,.2-.95c.13-.28,.32-.52,.56-.72,.24-.2,.53-.35,.88-.45,.34-.11,.73-.16,1.16-.16,.51,0,.95,.05,1.32,.16,.37,.11,.68,.23,.92,.36l-.49,1.35c-.21-.11-.45-.21-.71-.29-.26-.08-.57-.13-.93-.13-.41,0-.7,.06-.88,.17-.18,.11-.27,.29-.27,.52,0,.14,.03,.26,.1,.35,.07,.09,.16,.18,.28,.26,.12,.08,.26,.15,.42,.21,.16,.06,.33,.13,.52,.19,.39,.15,.74,.29,1.03,.43,.29,.14,.53,.31,.73,.5,.19,.19,.34,.41,.43,.67,.09,.26,.14,.57,.14,.93,0,.71-.25,1.26-.74,1.65-.5,.39-1.24,.59-2.24,.59-.34,0-.64-.02-.91-.06-.27-.04-.51-.09-.72-.15-.21-.06-.39-.12-.54-.19-.15-.07-.28-.13-.38-.19l.48-1.36c.23,.12,.5,.23,.84,.33,.33,.1,.74,.15,1.22,.15Z"/><path class="d" d="M579.75,126.19c.24,0,.44-.02,.6-.06,.16-.04,.28-.09,.38-.16,.09-.07,.16-.15,.2-.25,.04-.09,.05-.2,.05-.32,0-.25-.12-.45-.35-.62-.23-.16-.63-.34-1.2-.53-.25-.09-.5-.19-.74-.3-.25-.11-.47-.26-.67-.43-.2-.17-.36-.38-.48-.62-.12-.24-.19-.54-.19-.89s.07-.67,.2-.95c.13-.28,.32-.52,.56-.72,.24-.2,.53-.35,.87-.45,.34-.11,.73-.16,1.16-.16,.51,0,.95,.05,1.32,.16s.68,.23,.92,.36l-.49,1.35c-.21-.11-.45-.21-.71-.29-.26-.08-.57-.13-.93-.13-.41,0-.7,.06-.88,.17-.18,.11-.27,.29-.27,.52,0,.14,.03,.26,.1,.35,.07,.09,.16,.18,.28,.26,.12,.08,.26,.15,.42,.21,.16,.06,.33,.13,.52,.19,.39,.15,.74,.29,1.03,.43,.29,.14,.53,.31,.73,.5,.19,.19,.34,.41,.43,.67,.09,.26,.14,.57,.14,.93,0,.71-.25,1.26-.74,1.65-.5,.39-1.24,.59-2.24,.59-.34,0-.64-.02-.91-.06-.27-.04-.51-.09-.72-.15-.21-.06-.39-.12-.54-.19-.15-.07-.28-.13-.38-.19l.48-1.36c.23,.12,.5,.23,.84,.33s.74,.15,1.22,.15Z"/></g></g><g><circle class="w" cx="584.95" cy="146.37" r="13.29"/><g><path class="d" d="M578.33,142.89c1,0,1.77,.18,2.3,.53,.53,.35,.8,.93,.8,1.73s-.27,1.39-.81,1.74c-.54,.36-1.31,.54-2.32,.54h-.47v2.24h-1.51v-6.6c.33-.06,.68-.11,1.04-.14,.37-.03,.69-.04,.97-.04Zm.1,1.29c-.11,0-.22,0-.32,0-.11,0-.2,.01-.28,.02v1.93h.47c.52,0,.91-.07,1.18-.21,.26-.14,.4-.41,.4-.79,0-.19-.03-.34-.1-.46-.07-.12-.17-.22-.29-.29-.13-.07-.28-.13-.46-.15-.18-.03-.38-.04-.6-.04Z"/><path class="d" d="M586.58,142.96h1.51v6.7h-1.51v-2.84h-2.53v2.84h-1.51v-6.7h1.51v2.56h2.53v-2.56Z"/><path class="d" d="M591.65,142.89c1,0,1.77,.18,2.3,.53,.53,.35,.8,.93,.8,1.73s-.27,1.39-.81,1.74c-.54,.36-1.31,.54-2.32,.54h-.47v2.24h-1.51v-6.6c.33-.06,.68-.11,1.04-.14,.37-.03,.69-.04,.97-.04Zm.1,1.29c-.11,0-.22,0-.32,0-.11,0-.2,.01-.28,.02v1.93h.47c.52,0,.91-.07,1.18-.21,.26-.14,.4-.41,.4-.79,0-.19-.03-.34-.1-.46-.07-.12-.17-.22-.29-.29-.13-.07-.28-.13-.46-.15-.18-.03-.38-.04-.6-.04Z"/></g></g><g><circle class="w" cx="563.17" cy="170.24" r="9.62" transform="translate(-22.25 111.72) rotate(-11.11)"/><g><path class="d" d="M561.83,171.3c0,.37-.04,.72-.13,1.05-.08,.33-.23,.62-.44,.86-.21,.24-.49,.44-.84,.58-.35,.14-.8,.21-1.34,.21-.5,0-.92-.06-1.28-.18-.36-.12-.65-.26-.89-.42l.57-1.33c.21,.12,.44,.23,.68,.33,.24,.1,.5,.14,.79,.14,.42,0,.72-.1,.9-.31,.18-.2,.27-.55,.27-1.03v-4.95h1.71v5.04Z"/><path class="d" d="M565.55,172.55c.24,0,.44-.02,.6-.06,.16-.04,.28-.09,.38-.16,.09-.07,.16-.15,.2-.25,.04-.1,.05-.2,.05-.32,0-.25-.12-.46-.35-.62-.23-.16-.64-.34-1.21-.53-.25-.09-.5-.19-.75-.3-.25-.11-.47-.26-.67-.43-.2-.17-.36-.38-.48-.62-.12-.24-.19-.54-.19-.89s.07-.67,.2-.95c.13-.28,.32-.52,.56-.72,.24-.2,.53-.35,.88-.46,.34-.11,.73-.16,1.16-.16,.51,0,.95,.05,1.33,.16,.37,.11,.68,.23,.92,.36l-.49,1.35c-.21-.11-.45-.21-.71-.29-.26-.08-.57-.13-.94-.13-.41,0-.7,.06-.88,.17-.18,.11-.27,.29-.27,.52,0,.14,.03,.26,.1,.35,.07,.1,.16,.18,.28,.26,.12,.08,.26,.15,.42,.21,.16,.06,.33,.13,.52,.19,.39,.15,.74,.29,1.03,.43,.29,.14,.54,.31,.73,.5,.19,.19,.34,.41,.43,.67,.09,.26,.14,.57,.14,.93,0,.71-.25,1.26-.75,1.65-.5,.39-1.25,.59-2.25,.59-.34,0-.64-.02-.91-.06-.27-.04-.51-.09-.72-.15-.21-.06-.39-.12-.54-.19-.15-.07-.28-.13-.38-.19l.48-1.36c.23,.12,.51,.24,.84,.33,.33,.1,.74,.15,1.22,.15Z"/></g></g><g><path class="w" d="M578.13,191.96c0-3.57-2.9-6.47-6.47-6.47s-6.47,2.9-6.47,6.47,2.9,6.47,6.47,6.47,6.47-2.9,6.47-6.47Z"/><g><path class="d" d="M568.85,191.63c.22,0,.38-.06,.48-.19,.1-.13,.15-.3,.15-.5v-1.11c0-.21,.03-.4,.08-.56,.05-.16,.14-.3,.27-.42,.13-.11,.29-.2,.5-.26,.21-.06,.47-.09,.78-.09h.15v.88h-.18c-.22,0-.37,.05-.45,.15-.08,.1-.11,.25-.11,.46v.98c0,.26-.03,.47-.1,.65-.07,.18-.21,.33-.41,.46,.21,.13,.34,.28,.41,.46,.07,.18,.1,.39,.1,.65v.98c0,.21,.04,.36,.11,.46,.08,.1,.23,.15,.45,.15h.18v.88h-.15c-.31,0-.57-.03-.78-.09s-.38-.15-.5-.26c-.12-.11-.21-.25-.27-.42-.05-.16-.08-.35-.08-.56v-1.11c0-.21-.05-.37-.15-.5-.1-.13-.26-.19-.48-.19v-.87Z"/><path class="d" d="M574.47,192.5c-.22,0-.38,.06-.48,.19-.1,.13-.15,.3-.15,.5v1.11c0,.21-.03,.4-.08,.56-.05,.16-.14,.3-.27,.42-.12,.11-.29,.2-.5,.26s-.47,.09-.78,.09h-.15v-.88h.18c.22,0,.37-.05,.45-.15,.08-.1,.11-.25,.11-.46v-.98c0-.26,.03-.47,.1-.65,.07-.18,.21-.33,.41-.46-.21-.13-.34-.28-.41-.46-.07-.18-.1-.39-.1-.65v-.98c0-.21-.04-.36-.11-.46-.08-.1-.23-.15-.45-.15h-.18v-.88h.15c.31,0,.57,.03,.78,.09,.21,.06,.38,.15,.5,.26,.13,.11,.22,.25,.27,.42,.05,.16,.08,.35,.08,.56v1.11c0,.21,.05,.37,.15,.5,.1,.13,.26,.19,.48,.19v.87Z"/></g></g></g></svg>