<?xml version="1.0" encoding="UTF-8"?><svg id="a" xmlns="http://www.w3.org/2000/svg" xmlns:xlink="http://www.w3.org/1999/xlink" viewBox="0 0 1140.41 725.74"><defs><style>.c{fill:#f4d87e;}.d{fill:#f4d37e;}.e{fill:#a7a9ac;}.f{fill:#e0e9ff;}.g{fill:#fb1518;}.h{fill:#1c1c1d;}.i{fill:#d31c24;}.j{opacity:.75;}.j,.k{fill:#96b3ff;}.l{clip-path:url(#b);}.m{fill:#a97c50;}.n{fill:#e5c613;}.o{fill:#628aec;}.p{fill:#f1f2f2;}.q{fill:#808285;}.r{fill:#08104e;}.s{fill:#2175fb;}.t{fill:#ed1c24;}.u{fill:#d1d3d4;}.v{fill:#e6e7e8;}.w{fill:#bcbec0;}.x{fill:#0b53ff;}.y{fill:#ffde17;}</style><clipPath id="b"><path class="k" d="M730.91,475.29c-35.28,30.45-56.35,74.12-56.35,120.72h-178.46c0-46.46-20.81-90.16-56.03-120.45-48.28-41.51-78.58-103.3-77.58-172.2,1.68-116.3,96.1-213.97,212.28-219.34,127.89-5.91,233.44,96.03,233.44,222.63,0,67.42-29.97,127.79-77.29,168.63Zm-55.44,135.71h-180.3v28.01h180.3v-28.01Zm0,45.15h-180.3c0,26.99,21.88,48.86,48.86,48.86h82.57c26.99,0,48.86-21.88,48.86-48.86Z"/></clipPath></defs><g><path class="f" d="M10.52,389.86c4.05-49.6,7.5-99.43,10.35-149.44,.08-1.32,.15-2.65,.23-3.97,2.71-44.43,8.42-89.03,21.78-125.55,7.28-19.92,16.84-37.43,29.41-51.21,31.25-34.25,61.69-48.15,95.51-41.65,33.98,6.54,67.77,10.91,101.59-6.58,49.6-25.63,114.41-6.05,159.75,36.9,39.36,37.29,64.81,104.32,79.24,166.79,15.34,66.41,23.9,154.55,4.5,224.63-8.8,31.8-26.13,62.16-49.73,72.82-20.03,9.05-42.08,3.58-63.28,4.55-37.17,1.69-72.05,23.42-102.77,53.71-47.07,46.42-84.7,133.49-141.46,151.8-21.58,6.96-45.63,2.04-68.53-14.01C43.81,678.31,6.85,604.48,.8,528.85c-3.65-45.6,6.11-94.77,9.72-138.99Z"/><path class="f" d="M1137.35,413.96c.21-48.24,1.09-96.62,2.64-145.12,.04-1.28,.08-2.57,.11-3.86,1.19-43.11-.86-86.7-11.92-123.33-6.03-19.97-14.73-37.88-27.05-52.51-30.61-36.36-62.22-53.03-99.38-50.39-37.33,2.65-74.26,3.23-109.21-17.25-51.24-30.03-123.11-18.11-176.09,18.41-46,31.71-79.71,93.58-101.09,152.23-22.72,62.35-40.14,146.37-25.66,215.99,6.57,31.59,22.49,62.71,47.01,75.52,20.82,10.88,45.15,7.97,67.98,11.18,40.02,5.62,75.72,30.3,106.11,62.8,46.58,49.79,79.2,137.74,138.85,161.47,22.69,9.02,49.14,6.87,75.37-6.14,49.61-24.59,96.39-91.77,109.93-164.01,8.16-43.55,2.17-91.98,2.36-134.99Z"/></g><path class="j" d="M459.34,204.38h-16.48c-2.67-10.7-6.9-20.78-12.43-29.99l11.65-11.65c3.87-3.87,3.87-10.14,0-14l-23.99-23.99c-3.87-3.87-10.14-3.87-14,0l-11.65,11.65c-9.21-5.53-19.29-9.76-29.99-12.43v-16.48c0-5.47-4.43-9.9-9.9-9.9h-33.93c-5.47,0-9.9,4.43-9.9,9.9v16.48c-10.7,2.67-20.78,6.9-29.99,12.43l-11.65-11.65c-3.87-3.87-10.14-3.87-14,0l-23.99,23.99c-3.87,3.87-3.87,10.14,0,14l11.65,11.65c-5.53,9.21-9.76,19.29-12.43,29.99h-16.48c-5.47,0-9.9,4.43-9.9,9.9v33.93c0,5.47,4.43,9.9,9.9,9.9h16.48c2.67,10.7,6.9,20.78,12.43,29.99l-11.65,11.65c-3.87,3.87-3.87,10.14,0,14l23.99,23.99c3.87,3.87,10.14,3.87,14,0l11.65-11.65c9.21,5.53,19.29,9.76,29.99,12.43v16.48c0,5.47,4.43,9.9,9.9,9.9h33.93c5.47,0,9.9-4.43,9.9-9.9v-16.48c10.7-2.67,20.78-6.9,29.99-12.43l11.65,11.65c3.87,3.87,10.14,3.87,14,0l23.99-23.99c3.87-3.87,3.87-10.14,0-14l-11.65-11.65c5.53-9.21,9.76-19.29,12.43-29.99h16.48c5.47,0,9.9-4.43,9.9-9.9v-33.93c0-5.47-4.43-9.9-9.9-9.9Zm-123.76,93.8c-36.97,0-66.93-29.97-66.93-66.93s29.97-66.94,66.93-66.94,66.93,29.97,66.93,66.94-29.97,66.93-66.93,66.93Z"/><g><ellipse class="p" cx="423.71" cy="684.6" rx="237.91" ry="27.81"/><g><g><path class="k" d="M730.91,475.29c-35.28,30.45-56.35,74.12-56.35,120.72h-178.46c0-46.46-20.81-90.16-56.03-120.45-48.28-41.51-78.58-103.3-77.58-172.2,1.68-116.3,96.1-213.97,212.28-219.34,127.89-5.91,233.44,96.03,233.44,222.63,0,67.42-29.97,127.79-77.29,168.63Zm-55.44,135.71h-180.3v28.01h180.3v-28.01Zm0,45.15h-180.3c0,26.99,21.88,48.86,48.86,48.86h82.57c26.99,0,48.86-21.88,48.86-48.86Z"/><g class="l"><g><g><path class="c" d="M662.46,466.81l10.39,14.45,6.54,2.3c2.43,.85,5.65,4.71,4.77,7.14-4.51,12.42-19.26,46.01-23,50.86,0,0-4.98-4.15-3.17-8.38,1.81-4.23,4.44-36.04,4.44-36.04l-9.92-13.33,9.94-17Z"/><path class="x" d="M686.71,489.6s-6.59-7.72-10.54-7.17c0,0,3.46,5.46,2.16,12.74-1.96,6.03-6.81,25.68-17.7,21.41-1.86,6.74-4.33,20.25-3.29,26.69,0,0,3.49,.81,5.5-1.32,0,0,7.41-10.34,9.92-14.29l12.47-30.69,8.91-.31,1.58-3.58-9.02-3.49Z"/><path class="x" d="M696.23,343.59s-98.74,18.12-111.61,24.77c-12.87,6.66-1.99,22.28,15.39,46.01,17.38,23.72,55.54,78.69,55.54,78.69l14.97-17.1-42.85-76.08s102.89,2.09,113.02-9.89c10.14-11.98,9.8-28.11,4.61-47.21l-49.07,.82Z"/></g><g><path class="x" d="M617.35,145.02c-9.77-.23-32.54,39.74,32.44,62.22,22.19,7.68,64.6-1.76,73.35-13.36,0,0-35.18-76.53-72.54-72.81-31.19,3.11-33.25,23.95-33.25,23.95Z"/><g><path class="c" d="M540.3,312.96l14.74-9.47,19.4,3.01,66.19-13.71,2.24,19.4-66.06,1.94-7.08,1.59c-2.06,.46-4.22,.17-6.07-.84l-8.84-4.78-12.98,7.48-1.54-4.61Z"/><path class="i" d="M660.11,208.43c-15.22,1.97-7.72,24.63-14.32,80.55l-64.51,10.83,3.49,15.68s69.93-.85,80.59-2.61c11.7-28.97,20.46-107.76-5.25-104.44Z"/></g><path class="c" d="M688.41,205.38c-6.8,6.33-5.71,14.11-15.6,13.7-15.43,2.16-14.95-18.13-14.95-18.13-5.94,1.96-16.84,2.94-25.53-10.12-9.88-14.87-12.62-28.15-14.09-40.75-.94-8.08,2.47-13.3,16.11-17.07,13.64-3.79,23.74,.32,34.9,14.84,9.13,11.92,10.7,39.91,10.7,39.91,2.4,5.14,8.45,17.63,8.45,17.63Z"/><path class="t" d="M745.3,342.77s-32.19,2.65-49.07,.82c-6.43-50.43-13.96-62.11-13.96-62.11-17.36-2.16-22.48-7.73-22.48-16.08-2.91-33.7-7.4-52.15-7.4-52.15,2.29-3.72,6.63-4.56,6.63-4.56,0,0,1.68,11.8,13.79,10.37,13.07-1.54,7.15-16.48,7.15-16.48,6.98-4.58,14.4-4.92,22.09-3.2,7.69,1.72,14.32,6.69,19.6,12.54,12.43,13.77,13,28.31,15.02,46.75,2.02,18.44-1.3,25.46-.28,47.91,.72,15.91,7.9,32.25,8.91,36.18Z"/><g><path class="c" d="M592.93,337.13l8.58-14.13c1.1-1.49,2.75-2.49,4.58-2.77l17.43-2.71,72.78-12.27,.78,18.66-68.49,1.11-6.44,4.07c-1.87,1.18-4.12,1.58-6.31,1.1l-10.46-2.27-10.19,12.41-2.26-3.19Z"/><path class="g" d="M691.13,210.62c2.95-6.71,5.83-11.38,13.88-11.09,22.54,.81,7.05,34.27,22.9,99.39,1.61,6.6,2.52,24.25-16.16,25.3-18.68,1.05-72.11,6.85-72.11,6.85l-7.31-21.5,65.52-9.06s-14.36-72.52-6.72-89.88Z"/></g></g><g><path class="u" d="M573.52,334.24h-116.99l-20.25-64.92c-1.7-5.45,2.37-10.99,8.08-10.99h99.25c3.7,0,6.98,2.41,8.08,5.94l21.82,69.96Z"/><path class="e" d="M456.54,334.24h177.69c1.01,0,1.83,.82,1.83,1.83v3.15c0,1.01-.82,1.83-1.83,1.83h-173.68c-2.22,0-4.01-1.8-4.01-4.01v-2.79h0Z"/><path class="w" d="M456.54,334.24h116.99v3.97c0,1.56-1.27,2.84-2.84,2.84h-110.06c-2.26,0-4.1-1.83-4.1-4.1v-2.71h0Z"/><path class="p" d="M498.44,288.69c-.26,0-.51,.06-.76,.09-.04,3.84-2.43,6.96-5.51,7.41,0,.03,0,.06,0,.09,0,4.2,2.81,7.6,6.27,7.6s6.27-3.4,6.27-7.6-2.81-7.6-6.27-7.6Z"/></g><g><g><path class="c" d="M625.27,514.93l1.33,15.08,2.09,6.61c.78,2.46-.38,7.35-2.85,8.1-12.64,3.85-48.37,12.21-54.48,12.13,0,0,.33-6.48,4.8-7.56,4.47-1.09,31.49-18.07,31.49-18.07l-.12-12.76,17.74-3.52Z"/><path class="x" d="M628.93,548.21s.6-12.32-1.15-15.54c0,0-2.41,6.74-9.01,10.07-5.99,2.05-24.63,9.96-27.74-1.31-6.51,2.55-18.8,8.69-23.32,13.39,0,0,1.45,3.27,4.35,3.61,0,0,12.72-.28,17.38-.64l33.34-6.82,4.29,5.32,3.81-.88-1.95-7.19Z"/></g><path class="s" d="M745.3,342.77c8.79,18.41,26.1,61.83-18.06,64.43-50.84,2.99-114.16,2.46-114.16,2.46l14.95,111.32-23.91,4.53s-6.43-38.96-15.42-73.61c-9-34.65-28.94-68.79-2.58-78.32,26.36-9.53,159.18-30.82,159.18-30.82Z"/></g><g><path class="h" d="M616.55,597.76h-166.49c-5.55,0-10.38-3.74-12.62-9.76-2.24-6.02-1.3-12.78,2.44-17.64l87.24-113.27-77.45-100.56c-1.7-2.21-1.57-5.63,.29-7.65,1.86-2.02,4.75-1.86,6.45,.35l76.89,99.84,76.89-99.84c1.7-2.21,4.59-2.36,6.45-.35,1.86,2.02,1.99,5.45,.29,7.65l-77.45,100.56,87.24,113.27c3.74,4.86,4.68,11.62,2.44,17.64-2.24,6.02-7.08,9.76-12.62,9.76Zm-83.25-132.64l-86.69,112.55c-1.9,2.47-1.11,5.19-.82,5.96,.29,.77,1.44,3.3,4.26,3.3h166.49c2.82,0,3.98-2.53,4.27-3.3,.29-.77,1.08-3.49-.82-5.96l-86.69-112.55Z"/><path class="m" d="M681.02,353.94H385.6c-3.56,0-6.45-2.89-6.45-6.45h0c0-3.56,2.89-6.45,6.45-6.45h295.42c3.56,0,6.45,2.89,6.45,6.45h0c0,3.56-2.89,6.45-6.45,6.45Z"/></g><g><polygon class="h" points="766.77 580.66 690.58 580.66 708.05 418.24 714.1 418.89 697.35 574.57 759.99 574.57 743.3 419.41 749.35 418.75 766.77 580.66"/><path class="h" d="M749.22,598.21h-76.2l20.45-188.22h35.31l20.45,188.22Zm-69.41-6.09h62.63l-19.12-176.04h-24.38l-19.12,176.04Z"/><g><rect class="m" x="668.42" y="406.81" width="95.84" height="13.16"/><polygon class="m" points="768.91 419.97 759.73 419.97 768.91 370.36 778.09 370.36 768.91 419.97"/></g></g></g></g></g><path class="s" d="M689.21,206.17c-26.35,8.03-22.55-18.08-22.55-18.08,10,2.21,7.27-21.76-2.93-23.11-6.5-.86-5.06,8.96-5.06,8.96-23.18,14.01-51.8-10.98-49.16-28.85,1.43-9.65,3.81-15.98,14.99-22.73,13.71-8.28,27.26-5.17,39.55-.49,26.42,10.05,26.86,36.72,54.4,38,62.48,2.89,47.94,44.25,83.1,54.54,20.21,5.92,45.98,11.5,47.61,44.84,1.98,40.44-69.21,41.69-90.72,37.09-27.99-5.98-31.7-52.72-37.5-70.33-7.15-21.72-14.29-25.16-31.74-19.84Z"/></g></g><g><path class="x" d="M422.89,286.07c-13.62,0-19.01,5.63-19.01,17.74,0,1.11-2.12,1.11-2.12,0,0-12.11-4.31-17.74-19.01-17.74-1.1,0-1.1-2.12,0-2.12,15.15,0,19.01-7.02,19.01-17.72,0-1.11,2.12-1.11,2.12,0,0,12.75,5.16,17.72,19.01,17.72,1.1,0,1.1,2.12,0,2.12Z"/><path class="x" d="M357.1,227.91c-18.99,0-26.5,7.85-26.5,24.73,0,1.55-2.95,1.55-2.95,0,0-16.88-6.01-24.73-26.5-24.73-1.53,0-1.53-2.96,0-2.96,21.12,0,26.5-9.78,26.5-24.7,0-1.55,2.95-1.55,2.95,0,0,17.77,7.19,24.7,26.5,24.7,1.53,0,1.53,2.96,0,2.96Z"/><path class="x" d="M432.06,113.88c-34.03,0-47.49,14.06-47.49,44.31,0,2.78-5.29,2.78-5.29,0,0-30.25-10.77-44.31-47.49-44.31-2.75,0-2.74-5.3,0-5.3,37.86,0,47.49-17.53,47.49-44.26,0-2.78,5.29-2.78,5.29,0,0,31.84,12.89,44.26,47.49,44.26,2.75,0,2.75,5.3,0,5.3Z"/></g><g><path class="v" d="M410.81,692.88c0,4.77-21.6,8.63-48.26,8.63s-48.26-3.86-48.26-8.63,21.6-8.63,48.26-8.63,48.26,3.86,48.26,8.63Z"/><g><g><path class="w" d="M407.65,695.26c-10.27,3.11-26.16,2.89-37.31,0-2.64-.69-5.08-1.93-5.61-4.6l-10.61-53.21h69.75l-10.61,53.21c-.53,2.68-3,3.81-5.61,4.6Z"/><ellipse class="q" cx="389.1" cy="637.45" rx="34.77" ry="5.09"/><path class="u" d="M422.41,644.73c-7.27,5.97-15.25,11.09-23.72,15.19-2.4,1.16-4.95,2.33-6.51,4.5-1.56,2.16-1.62,5.67,.62,7.12,.95,.61,2.35,1.06,2.35,2.19,0,.5-.32,.94-.64,1.31-2.36,2.69-5.93,3.98-8.68,6.28-2.75,2.3-4.52,6.72-2.1,9.36,1.09,1.19,2.44,2.19,3.94,2.76,1.97,.75,2.41,4.06,3.18,4.06,10.45,0,16.79-2.24,16.79-2.24,2.73,0,5.08-1.93,5.61-4.6l9.15-45.92Z"/></g><g><path class="s" d="M376.95,372.13c-2.24-9.21-1.76-17.67-.22-27.02,1.54-9.35,5.66-18.16,14.97-16.42,8.91,1.66,12.12,12.5,12.63,20.32,.71,10.85-2.78,21.27-3.96,31.94-1.79,16.17,1.91,33.84,6.15,49.54,3.4,12.6,7.64,22.78,10.95,37.49,2.03,9.04,2.59,21.62-.37,33.78-2.99,12.29-22.52,56.25-26.32,101.33-1.8-57.66-13.25-73.83-17.06-93.5-1.57-8.12-3.29-16.17-2.56-24.4,1.87-21,7.69-41.43,11.19-62.22,3.5-20.79-.11-29.08-5.39-50.85Z"/><g><path class="r" d="M388.71,638.67s-.07,0-.11,0c-.67-.06-1.17-.65-1.11-1.32,8.9-103.52,1.78-281.08,1.71-282.86-.03-.67,.5-1.24,1.17-1.27,.66-.03,1.24,.5,1.27,1.17,.07,1.78,7.2,179.49-1.72,283.17-.06,.64-.59,1.12-1.22,1.12Z"/><path class="r" d="M393.02,532.31s-.04,0-.06,0c-.67-.03-1.2-.6-1.17-1.28,1.37-30.44,15.27-39.88,15.86-40.27,.57-.37,1.32-.21,1.69,.35,.37,.56,.21,1.32-.35,1.69h0c-.14,.09-13.45,9.27-14.76,38.34-.03,.66-.57,1.17-1.22,1.17Z"/><path class="r" d="M393.2,510.25c-.64,0-1.18-.5-1.22-1.15-1.83-30.9-13.29-35.23-13.41-35.27-.63-.22-.98-.91-.76-1.55,.21-.64,.89-.98,1.53-.78,.53,.17,13.14,4.61,15.09,37.45,.04,.67-.47,1.25-1.15,1.29-.02,0-.05,0-.07,0Z"/><path class="r" d="M393.09,472.28s-.08,0-.12,0c-.67-.06-1.16-.66-1.1-1.33,2.3-23.96,9.9-30.91,10.22-31.2,.51-.45,1.28-.4,1.73,.11,.45,.51,.4,1.27-.1,1.72-.1,.09-7.22,6.83-9.41,29.6-.06,.63-.59,1.11-1.22,1.11Z"/></g></g><g><path class="s" d="M312.58,457.12c-2.68-6.65-14.25-31.78-12.36-40.36,4.97,1.98,18.82,23.43,23.36,33.04,5.53,11.17,16.3,27.75,23.69,37.91,5.94,8.13,9.31,10.26,13.76,19.4,3.28,6.48,8.39,33.41,8.75,43.09,.78,18.08-3.91,21.66,1.38,55.8-11.28-42.93-35.32-68.5-39.21-81.22-4.47-14.51-4.59-20.4-8.03-35.91-3.63-15.47-2.84-11.55-11.34-31.74Z"/><g><path class="r" d="M375.79,639.89c-.63,0-1.17-.49-1.22-1.13-6.07-76.93-56.23-184.09-60.89-190.02-.11-.06-.21-.15-.3-.25-.45-.51-.39-1.28,.11-1.73,.35-.3,.89-.39,1.31-.22,2.06,.84,16.86,32.16,29.84,66.27,12.91,33.93,29.01,83.29,32.36,125.75,.05,.67-.45,1.26-1.12,1.32-.03,0-.07,0-.1,0Zm-60.69-191.28c-.06,.05-.12,.09-.18,.13,.06-.04,.12-.08,.18-.13Zm0,0s0,0,0,0c0,0,0,0,0,0Z"/><path class="r" d="M359.16,560.32c-.54,0-1.04-.37-1.18-.92-5.67-21.86,1.03-32.91,2.14-33.61,.57-.36,1.33-.19,1.69,.38,.29,.46,.24,1.04-.09,1.43-.32,.45-6.87,10-1.36,31.19,.17,.65-.22,1.32-.88,1.49-.1,.03-.21,.04-.31,.04Z"/><path class="r" d="M354.24,544.21c-.49,0-.95-.29-1.14-.77-8.26-20.84-16.94-21.8-17.9-21.84-.57-.02-1.09-.45-1.19-1.01l1.2-.21,.08-1.22c1.85,.08,11.43,1.57,20.08,23.39,.25,.63-.06,1.34-.69,1.59-.15,.06-.3,.09-.45,.09Z"/><path class="r" d="M344.73,516.83c-.54,0-1.04-.36-1.18-.91-4.6-17.44-1.81-25.37-.68-25.83,.63-.25,1.34,.05,1.59,.68,.14,.35,.11,.73-.06,1.04-.17,.4-2.84,6.97,1.52,23.48,.17,.65-.22,1.32-.87,1.49-.11,.03-.21,.04-.31,.04Z"/></g></g><g><path class="o" d="M452.82,511.74c3.48-4.04,19.11-18.08,26.07-17.39-.81,3.93-12.69,17.75-17.4,23.47-5.95,6.55-12.44,18.89-14.97,27.08-2.08,6.58-1.62,9.37-4.39,15.43-2.11,4.14-13.02,18.35-17.06,23.54-7.55,9.44-15.85,12.86-23.84,36.39,5.33-30.74,9.63-60.68,15.48-69.57,6.4-9.67,10.09-12.42,18.68-20.69,8.87-7.99,6.23-6.27,17.43-18.26Z"/><g><path class="r" d="M396.73,639.89c-.08,0-.16,0-.24-.02-.66-.13-1.09-.78-.96-1.44,5.91-29.13,18.76-62.57,33.54-87.28,11.18-19.66,23.53-33.78,28.18-39.09,.71-.81,1.39-1.59,1.63-1.9,.22-.58,.86-.9,1.47-.73,.41,.11,.73,.43,.86,.84,.22,.74,.18,.79-2.11,3.41-4.61,5.26-16.84,19.24-27.91,38.71-14.66,24.51-27.4,57.66-33.25,86.53-.12,.58-.63,.98-1.2,.98Z"/><path class="r" d="M414.21,584.48c-.18,0-.36-.04-.53-.12-.61-.29-.86-1.03-.57-1.63,6.85-14.17,16.3-15.54,18.12-15.67l.13,1.22,1.22,.04c-.02,.62-.55,1.14-1.17,1.18-.97,.07-9.7,1.07-16.09,14.29-.21,.44-.65,.69-1.1,.69Z"/><path class="r" d="M419.16,573.58c-.16,0-.31-.03-.47-.09-.62-.26-.92-.97-.66-1.6,6.04-14.62,2.45-20.06,2.17-20.44-.36-.34-.49-.89-.28-1.37,.27-.62,.99-.9,1.61-.64,.07,.03,6.26,5.23-1.24,23.39-.19,.47-.65,.76-1.13,.76Z"/><path class="r" d="M428.79,555.35c-.26,0-.52-.08-.74-.25-.54-.41-.64-1.18-.24-1.71,7.1-9.36,12.91-10.78,14.52-10.99l.23,1.2,1.2,.24c-.1,.51-.59,.92-1.11,.99-.98,.13-6.19,1.22-12.89,10.04-.24,.32-.61,.48-.98,.48Z"/></g></g></g></g><g><g><circle class="x" cx="560.88" cy="110.77" r="28.37"/><g><path class="d" d="M541.65,109.13l11.72-4.95,1.06,3.3-8.56,3.34,8.56,3.34-1.06,3.3-11.72-4.95v-3.37Z"/><path class="d" d="M559.25,124.01h-4.17l9.16-26.38h4.11l-9.1,26.38Z"/><path class="d" d="M581.78,112.49l-11.72,4.95-1.06-3.3,8.56-3.34-8.56-3.34,1.06-3.3,11.72,4.95v3.37Z"/></g></g><g><circle class="x" cx="548.8" cy="36.98" r="33.72"/><g><path class="d" d="M531.35,30.97c.15,.52,.32,1.11,.51,1.77,.19,.66,.38,1.34,.59,2.04,.21,.7,.42,1.4,.64,2.11,.22,.7,.43,1.35,.63,1.95,.17-.65,.34-1.36,.51-2.13,.17-.77,.34-1.56,.49-2.37,.15-.82,.31-1.63,.45-2.44,.15-.81,.29-1.59,.41-2.35h3.1c-.45,2.22-.97,4.47-1.55,6.76-.58,2.29-1.22,4.46-1.9,6.51h-2.73c-.45-1.23-.88-2.51-1.3-3.86-.42-1.35-.83-2.7-1.24-4.05-.41,1.35-.82,2.7-1.23,4.05-.41,1.35-.84,2.63-1.28,3.86h-2.73c-.68-2.05-1.31-4.23-1.9-6.51-.58-2.29-1.1-4.54-1.55-6.76h3.24c.13,.75,.27,1.54,.42,2.35,.15,.81,.31,1.62,.48,2.44,.17,.82,.34,1.61,.51,2.37,.17,.77,.35,1.47,.53,2.13,.23-.63,.45-1.29,.67-1.99,.22-.7,.43-1.4,.63-2.11,.2-.7,.39-1.38,.57-2.03,.17-.65,.33-1.23,.47-1.74h2.55Z"/><path class="d" d="M550.02,30.97c.15,.52,.32,1.11,.51,1.77,.19,.66,.38,1.34,.59,2.04,.21,.7,.42,1.4,.64,2.11,.22,.7,.43,1.35,.63,1.95,.17-.65,.34-1.36,.51-2.13,.17-.77,.34-1.56,.49-2.37,.15-.82,.31-1.63,.45-2.44,.15-.81,.29-1.59,.41-2.35h3.1c-.45,2.22-.97,4.47-1.55,6.76-.58,2.29-1.22,4.46-1.9,6.51h-2.73c-.45-1.23-.88-2.51-1.3-3.86-.42-1.35-.83-2.7-1.24-4.05-.41,1.35-.82,2.7-1.23,4.05-.41,1.35-.84,2.63-1.28,3.86h-2.73c-.68-2.05-1.31-4.23-1.9-6.51-.58-2.29-1.1-4.54-1.55-6.76h3.24c.13,.75,.27,1.54,.42,2.35,.15,.81,.31,1.62,.48,2.44,.17,.82,.34,1.61,.51,2.37,.17,.77,.35,1.47,.53,2.13,.23-.63,.45-1.29,.67-1.99,.22-.7,.43-1.4,.63-2.11,.2-.7,.39-1.38,.57-2.03,.17-.65,.33-1.23,.47-1.74h2.55Z"/><path class="d" d="M568.69,30.97c.15,.52,.32,1.11,.51,1.77,.19,.66,.38,1.34,.59,2.04,.21,.7,.42,1.4,.64,2.11,.22,.7,.43,1.35,.63,1.95,.17-.65,.34-1.36,.51-2.13,.17-.77,.34-1.56,.49-2.37,.15-.82,.31-1.63,.45-2.44,.15-.81,.29-1.59,.41-2.35h3.1c-.45,2.22-.97,4.47-1.55,6.76-.58,2.29-1.22,4.46-1.9,6.51h-2.73c-.45-1.23-.88-2.51-1.3-3.86-.42-1.35-.83-2.7-1.24-4.05-.41,1.35-.82,2.7-1.23,4.05-.41,1.35-.84,2.63-1.28,3.86h-2.73c-.68-2.05-1.31-4.23-1.9-6.51-.58-2.29-1.1-4.54-1.55-6.76h3.24c.13,.75,.27,1.54,.42,2.35,.15,.81,.31,1.62,.48,2.44,.17,.82,.34,1.61,.51,2.37,.17,.77,.35,1.47,.53,2.13,.23-.63,.45-1.29,.67-1.99,.22-.7,.43-1.4,.63-2.11,.2-.7,.39-1.38,.57-2.03,.17-.65,.33-1.23,.47-1.74h2.55Z"/></g></g><g><circle class="f" cx="511.57" cy="139.71" r="19.93" transform="translate(33.48 369.17) rotate(-40.91)"/><circle class="f" cx="480.35" cy="188.68" r="9.96"/><path class="f" d="M493.57,240.7c0-2.54-2.06-4.61-4.61-4.61s-4.61,2.06-4.61,4.61,2.06,4.61,4.61,4.61,4.61-2.06,4.61-4.61Z"/></g><g><circle class="x" cx="453.98" cy="144.34" r="23.94"/><g><path class="d" d="M443.27,138.98h2.09v9.28h-2.09v-3.94h-3.51v3.94h-2.09v-9.28h2.09v3.55h3.51v-3.55Z"/><path class="d" d="M454.38,138.98v1.78h-2.8v7.5h-2.09v-7.5h-2.8v-1.78h7.69Z"/><path class="d" d="M458.05,138.98c.16,.29,.35,.66,.56,1.09,.21,.43,.43,.9,.66,1.41s.45,1.02,.68,1.55c.22,.53,.43,1.02,.63,1.49,.2-.46,.41-.96,.63-1.49,.22-.53,.45-1.04,.68-1.55s.45-.97,.66-1.41c.21-.43,.4-.8,.56-1.09h1.9c.09,.62,.17,1.31,.25,2.07,.08,.76,.14,1.56,.2,2.38,.06,.83,.11,1.65,.16,2.48,.05,.83,.09,1.61,.13,2.34h-2.04c-.03-.9-.06-1.88-.11-2.95s-.11-2.13-.2-3.21c-.16,.38-.34,.79-.54,1.25-.2,.46-.39,.91-.58,1.37s-.38,.89-.56,1.31c-.18,.42-.33,.77-.46,1.06h-1.46c-.13-.29-.28-.65-.46-1.06-.18-.41-.37-.85-.56-1.31-.19-.46-.39-.91-.58-1.37-.2-.46-.38-.87-.54-1.25-.09,1.08-.16,2.15-.2,3.21-.04,1.06-.08,2.04-.11,2.95h-2.04c.03-.73,.08-1.51,.13-2.34,.05-.83,.1-1.66,.16-2.48,.06-.83,.13-1.62,.2-2.38s.16-1.45,.25-2.07h1.99Z"/><path class="d" d="M473.79,146.47v1.79h-6.2v-9.28h2.09v7.48h4.11Z"/></g></g><g><circle class="x" cx="635.01" cy="91.76" r="19.09" transform="translate(-3.16 158.02) rotate(-14.15)"/><g><path class="d" d="M627.87,96.68c-1.57,0-2.76-.44-3.58-1.31-.82-.87-1.23-2.11-1.23-3.71,0-.8,.13-1.51,.37-2.13,.25-.63,.59-1.15,1.03-1.58,.44-.43,.95-.76,1.56-.98,.6-.22,1.25-.33,1.96-.33,.41,0,.78,.03,1.11,.09,.33,.06,.63,.13,.87,.21,.25,.08,.46,.16,.63,.24,.17,.08,.29,.15,.36,.19l-.62,1.75c-.3-.16-.64-.29-1.04-.4-.39-.11-.84-.17-1.34-.17-.33,0-.66,.06-.98,.17-.32,.11-.6,.29-.85,.53-.25,.25-.44,.56-.59,.95-.15,.39-.22,.86-.22,1.42,0,.44,.05,.86,.15,1.24,.1,.38,.25,.72,.47,.99,.22,.28,.5,.5,.85,.66,.35,.16,.78,.24,1.28,.24,.31,0,.6-.02,.85-.06,.25-.04,.47-.08,.67-.13,.19-.05,.37-.11,.51-.17,.15-.06,.28-.13,.4-.18l.6,1.74c-.31,.19-.74,.35-1.29,.5-.56,.15-1.2,.22-1.93,.22Z"/><path class="d" d="M635.34,94.83c.31,0,.56-.03,.76-.08s.36-.12,.48-.21c.12-.09,.2-.19,.25-.31,.05-.12,.07-.25,.07-.4,0-.31-.15-.58-.44-.78-.3-.21-.81-.43-1.53-.67-.32-.11-.63-.24-.95-.38-.31-.14-.6-.32-.85-.54-.25-.22-.45-.48-.61-.79-.16-.31-.24-.69-.24-1.13s.08-.85,.25-1.2c.17-.36,.4-.66,.71-.91,.31-.25,.68-.44,1.11-.58,.43-.13,.93-.2,1.47-.2,.65,0,1.21,.07,1.68,.21,.47,.14,.86,.29,1.17,.46l-.63,1.71c-.27-.14-.57-.26-.9-.37-.33-.11-.72-.16-1.19-.16-.52,0-.89,.07-1.12,.22-.23,.14-.34,.36-.34,.66,0,.18,.04,.32,.13,.44,.08,.12,.2,.23,.35,.33,.15,.1,.33,.19,.53,.26,.2,.08,.42,.16,.66,.24,.5,.19,.94,.37,1.31,.55,.37,.18,.68,.39,.92,.63,.25,.24,.43,.52,.55,.85,.12,.32,.18,.72,.18,1.18,0,.9-.32,1.6-.94,2.09-.63,.5-1.58,.74-2.85,.74-.43,0-.81-.03-1.15-.08-.34-.05-.65-.11-.91-.19-.26-.07-.49-.15-.68-.24-.19-.08-.35-.16-.48-.24l.61-1.72c.29,.16,.64,.3,1.06,.42,.42,.13,.94,.19,1.55,.19Z"/><path class="d" d="M643.43,94.83c.31,0,.56-.03,.76-.08,.2-.05,.36-.12,.48-.21,.12-.09,.2-.19,.25-.31,.05-.12,.07-.25,.07-.4,0-.31-.15-.58-.44-.78-.3-.21-.81-.43-1.53-.67-.31-.11-.63-.24-.95-.38-.32-.14-.6-.32-.85-.54-.25-.22-.45-.48-.61-.79-.16-.31-.24-.69-.24-1.13s.08-.85,.25-1.2c.17-.36,.4-.66,.71-.91,.31-.25,.68-.44,1.11-.58,.43-.13,.93-.2,1.47-.2,.65,0,1.21,.07,1.68,.21s.86,.29,1.17,.46l-.63,1.71c-.27-.14-.57-.26-.9-.37-.33-.11-.72-.16-1.19-.16-.52,0-.89,.07-1.12,.22-.23,.14-.34,.36-.34,.66,0,.18,.04,.32,.13,.44,.08,.12,.2,.23,.35,.33,.15,.1,.33,.19,.53,.26,.2,.08,.42,.16,.66,.24,.5,.19,.94,.37,1.31,.55,.37,.18,.68,.39,.92,.63,.25,.24,.43,.52,.55,.85,.12,.32,.18,.72,.18,1.18,0,.9-.32,1.6-.94,2.09-.63,.5-1.58,.74-2.85,.74-.43,0-.81-.03-1.15-.08-.34-.05-.65-.11-.91-.19-.26-.07-.49-.15-.68-.24-.19-.08-.35-.16-.48-.24l.61-1.72c.29,.16,.64,.3,1.06,.42s.94,.19,1.55,.19Z"/></g></g><g><circle class="x" cx="544.44" cy="176.24" r="21.28"/><g><path class="n" d="M537.63,180.48h-2.11l-3.36-6.08v6.08h-2v-8.72h2.69l2.78,5v-5h2v8.72Z"/><path class="n" d="M545.6,177.19c0,1.08-.3,1.93-.89,2.56s-1.43,.93-2.51,.93-1.91-.31-2.5-.93-.89-1.48-.89-2.56,.3-1.95,.89-2.57,1.43-.93,2.5-.93,1.91,.31,2.51,.93,.89,1.48,.89,2.56Zm-2.1,.01c0-.39-.03-.72-.1-.98s-.15-.47-.27-.62c-.12-.16-.26-.28-.41-.34s-.33-.1-.52-.1c-.18,0-.35,.03-.5,.08s-.29,.17-.41,.33c-.12,.15-.21,.36-.28,.63s-.11,.6-.11,1,.03,.73,.1,.98,.15,.45,.26,.59c.11,.15,.25,.26,.41,.33s.35,.11,.54,.11c.16,0,.33-.04,.5-.11s.31-.18,.41-.32c.12-.17,.21-.37,.28-.61s.09-.56,.09-.98Z"/><path class="n" d="M552.67,180.48h-2.05v-.69c-.13,.11-.28,.23-.45,.35s-.32,.22-.45,.28c-.16,.08-.33,.14-.49,.18s-.35,.06-.57,.06c-.75,0-1.34-.31-1.78-.93s-.66-1.45-.66-2.49c0-.57,.07-1.07,.22-1.49s.35-.79,.62-1.1c.24-.29,.53-.51,.87-.68s.7-.25,1.08-.25c.34,0,.63,.04,.85,.11s.48,.18,.77,.34v-2.8h2.05v9.12Zm-2.05-1.82v-3.23c-.1-.05-.23-.09-.4-.13s-.3-.05-.42-.05c-.49,0-.86,.17-1.11,.52s-.37,.82-.37,1.44c0,.65,.1,1.12,.3,1.41s.52,.43,.96,.43c.18,0,.36-.04,.54-.11s.35-.17,.5-.29Z"/><path class="n" d="M557.61,180.66c-1.24,0-2.19-.3-2.86-.89s-.99-1.44-.99-2.54,.31-1.93,.93-2.57,1.48-.96,2.59-.96c1.01,0,1.77,.27,2.27,.81s.76,1.32,.76,2.33v.74h-4.49c.02,.3,.08,.56,.19,.76s.25,.37,.43,.49c.18,.12,.38,.21,.62,.26s.49,.08,.77,.08c.24,0,.47-.03,.7-.08s.44-.12,.63-.21c.17-.07,.32-.15,.47-.24s.26-.16,.35-.23h.22v1.69c-.17,.07-.32,.13-.46,.18s-.33,.11-.57,.17c-.22,.06-.45,.1-.69,.14s-.52,.05-.86,.05Zm.68-4.31c-.01-.43-.11-.76-.3-.99s-.48-.34-.87-.34-.71,.12-.93,.36-.35,.56-.37,.97h2.48Z"/></g></g><g><circle class="x" cx="515.01" cy="213.82" r="12.21" transform="translate(-31.55 103.25) rotate(-11.11)"/><g><path class="d" d="M513.32,215.18c0,.47-.05,.92-.16,1.34-.11,.42-.29,.78-.56,1.09-.27,.31-.62,.56-1.07,.74-.45,.18-1.02,.27-1.7,.27-.63,0-1.17-.08-1.63-.23-.45-.15-.83-.33-1.13-.54l.72-1.68c.27,.16,.56,.3,.86,.42,.31,.12,.64,.18,1,.18,.53,0,.91-.13,1.14-.39,.23-.26,.35-.7,.35-1.31v-6.29h2.17v6.4Z"/><path class="d" d="M518.04,216.76c.31,0,.56-.03,.76-.08,.2-.05,.36-.12,.48-.21,.12-.09,.2-.19,.25-.31,.05-.12,.07-.26,.07-.4,0-.32-.15-.58-.45-.79-.3-.21-.81-.43-1.53-.67-.32-.11-.63-.24-.95-.38-.31-.14-.6-.32-.85-.54-.25-.22-.46-.48-.61-.79-.16-.31-.24-.69-.24-1.13s.08-.85,.25-1.2c.17-.36,.4-.66,.71-.91,.31-.25,.68-.44,1.11-.58,.44-.13,.93-.2,1.48-.2,.65,0,1.21,.07,1.68,.21,.47,.14,.86,.29,1.17,.46l-.63,1.71c-.27-.14-.57-.26-.9-.37-.33-.11-.73-.16-1.19-.16-.52,0-.89,.07-1.12,.22-.23,.14-.34,.36-.34,.66,0,.18,.04,.32,.13,.45,.08,.12,.2,.23,.35,.33,.15,.1,.33,.19,.53,.26,.2,.08,.42,.16,.66,.24,.5,.19,.94,.37,1.31,.55,.37,.18,.68,.39,.93,.63,.25,.24,.43,.52,.55,.85,.12,.32,.18,.72,.18,1.18,0,.9-.31,1.6-.95,2.09-.63,.5-1.58,.74-2.85,.74-.43,0-.81-.03-1.15-.08-.34-.05-.65-.11-.91-.19-.26-.07-.49-.15-.68-.24-.19-.08-.35-.16-.48-.24l.61-1.73c.29,.16,.64,.3,1.07,.42,.42,.13,.94,.19,1.55,.19Z"/></g></g><g><path class="x" d="M527.2,247.05c0-4.54-3.68-8.22-8.22-8.22s-8.22,3.68-8.22,8.22,3.68,8.22,8.22,8.22,8.22-3.68,8.22-8.22Z"/><g><path class="d" d="M515.4,246.62c.28,0,.49-.08,.61-.24,.12-.16,.19-.38,.19-.64v-1.42c0-.27,.03-.51,.1-.72,.07-.21,.18-.39,.34-.53,.16-.14,.37-.25,.64-.33,.27-.07,.6-.11,.99-.11h.19v1.11h-.23c-.28,0-.47,.06-.57,.19-.1,.13-.15,.32-.15,.58v1.25c0,.32-.04,.6-.13,.82-.09,.23-.26,.42-.53,.58,.26,.16,.44,.36,.53,.58,.09,.23,.13,.5,.13,.82v1.25c0,.26,.05,.46,.15,.58,.1,.12,.29,.19,.57,.19h.23v1.12h-.19c-.39,0-.72-.04-.99-.11s-.48-.18-.64-.33c-.16-.14-.27-.32-.34-.53-.07-.21-.1-.45-.1-.72v-1.42c0-.26-.06-.48-.19-.64-.13-.16-.33-.24-.61-.24v-1.11Z"/><path class="d" d="M522.54,247.73c-.28,0-.49,.08-.61,.24-.12,.16-.19,.38-.19,.64v1.42c0,.27-.03,.51-.1,.72-.07,.21-.18,.39-.34,.53-.16,.14-.37,.25-.64,.33s-.6,.11-.99,.11h-.19v-1.12h.23c.28,0,.47-.06,.57-.19,.1-.13,.15-.32,.15-.58v-1.25c0-.32,.04-.6,.13-.82,.09-.23,.26-.42,.52-.58-.26-.16-.44-.36-.52-.58-.09-.22-.13-.5-.13-.82v-1.25c0-.26-.05-.46-.15-.58-.1-.12-.29-.19-.57-.19h-.23v-1.11h.19c.39,0,.72,.04,.99,.11,.27,.08,.48,.18,.64,.33,.16,.14,.27,.32,.34,.53,.07,.21,.1,.45,.1,.72v1.42c0,.26,.06,.47,.19,.64,.13,.16,.33,.24,.61,.24v1.11Z"/></g></g><g><circle class="x" cx="582.52" cy="232.82" r="24.98"/><g><path class="y" d="M575.47,236.17h-2.67l-2.43-3.2h-.79v3.2h-2.18v-8.72h3.51c.48,0,.91,.03,1.27,.09s.69,.19,1,.38c.31,.2,.56,.45,.74,.76s.28,.7,.28,1.17c0,.67-.15,1.21-.45,1.63s-.7,.75-1.21,.99l2.94,3.71Zm-3.53-6.05c0-.22-.04-.41-.13-.57s-.22-.28-.42-.37c-.14-.06-.29-.1-.46-.11s-.38-.02-.63-.02h-.73v2.35h.63c.3,0,.56-.02,.78-.06s.39-.12,.54-.24c.14-.11,.24-.24,.31-.39s.1-.35,.1-.6Z"/><path class="y" d="M579.36,236.34c-1.24,0-2.19-.3-2.86-.89s-.99-1.44-.99-2.54,.31-1.93,.93-2.57,1.48-.96,2.59-.96c1.01,0,1.77,.27,2.27,.81s.76,1.32,.76,2.33v.74h-4.49c.02,.3,.08,.56,.19,.76s.25,.37,.43,.49c.18,.12,.38,.21,.62,.26s.49,.08,.77,.08c.24,0,.47-.03,.7-.08s.44-.12,.63-.21c.17-.07,.32-.15,.47-.24s.26-.16,.35-.23h.22v1.69c-.17,.07-.32,.13-.46,.18s-.33,.11-.57,.17c-.22,.06-.45,.1-.69,.14s-.52,.05-.86,.05Zm.68-4.31c-.01-.43-.11-.76-.3-.99s-.48-.34-.87-.34-.71,.12-.93,.36-.35,.56-.37,.97h2.48Z"/><path class="y" d="M586.74,235.47c-.14,.12-.27,.22-.38,.32s-.26,.19-.45,.28c-.18,.09-.36,.16-.54,.21s-.42,.07-.73,.07c-.58,0-1.07-.2-1.45-.59s-.58-.88-.58-1.48c0-.49,.1-.88,.29-1.18s.48-.54,.84-.71c.37-.18,.81-.3,1.33-.38s1.07-.12,1.66-.16v-.04c0-.36-.13-.61-.4-.75s-.67-.21-1.2-.21c-.24,0-.53,.04-.85,.13s-.64,.2-.95,.34h-.18v-1.59c.2-.06,.53-.13,.98-.21s.91-.12,1.37-.12c1.13,0,1.96,.19,2.48,.57s.78,.95,.78,1.73v4.48h-2.04v-.7Zm0-1.02v-1.37c-.35,.04-.63,.07-.84,.09s-.43,.08-.63,.15c-.18,.06-.32,.16-.42,.28s-.15,.3-.15,.51c0,.31,.08,.52,.25,.64s.41,.17,.74,.17c.18,0,.36-.04,.55-.12s.36-.2,.51-.35Z"/><path class="y" d="M593.53,236.34c-.54,0-1.04-.07-1.49-.21s-.84-.35-1.17-.63c-.33-.29-.58-.64-.77-1.08s-.28-.94-.28-1.53c0-.63,.1-1.16,.3-1.61s.47-.8,.81-1.09c.33-.27,.71-.48,1.16-.61s.91-.2,1.39-.2c.36,0,.73,.04,1.09,.13s.73,.22,1.1,.4v1.76h-.26c-.08-.08-.18-.16-.3-.26s-.25-.18-.39-.26c-.15-.08-.32-.15-.5-.21s-.4-.08-.63-.08c-.52,0-.93,.18-1.22,.55s-.43,.86-.43,1.47c0,.66,.15,1.15,.46,1.48s.71,.49,1.22,.49c.26,0,.48-.03,.68-.09s.36-.13,.5-.21c.14-.08,.25-.17,.35-.25s.18-.17,.25-.24h.26v1.76c-.12,.05-.25,.11-.41,.18s-.31,.12-.47,.16c-.2,.05-.39,.1-.56,.13s-.4,.04-.69,.04Z"/><path class="y" d="M599.15,236.29c-.84,0-1.44-.17-1.83-.52s-.57-.91-.57-1.69v-3.08h-.79v-1.43h.79v-1.88h2.05v1.88h1.97v1.43h-1.97v2.33c0,.23,0,.43,0,.6s.04,.33,.09,.46c.05,.14,.15,.25,.29,.33s.34,.12,.61,.12c.11,0,.25-.02,.43-.07s.3-.09,.37-.13h.18v1.45c-.22,.06-.46,.1-.71,.14s-.56,.05-.92,.05Z"/></g></g><g><circle class="x" cx="455.89" cy="223.51" r="29"/><g><path class="y" d="M447.38,220.59h-2.67l-2.43-3.2h-.79v3.2h-2.18v-8.72h3.51c.48,0,.91,.03,1.27,.09s.69,.19,1,.38c.31,.2,.56,.45,.74,.76s.28,.7,.28,1.17c0,.67-.15,1.21-.45,1.63s-.7,.75-1.21,.99l2.94,3.71Zm-3.53-6.05c0-.22-.04-.41-.13-.57s-.22-.28-.42-.37c-.14-.06-.29-.1-.46-.11s-.38-.02-.63-.02h-.73v2.35h.63c.3,0,.56-.02,.78-.06s.39-.12,.54-.24c.14-.11,.25-.24,.31-.39s.1-.35,.1-.6Z"/><path class="y" d="M451.28,220.76c-1.24,0-2.19-.3-2.86-.89s-.99-1.44-.99-2.54,.31-1.93,.93-2.57,1.48-.96,2.59-.96c1.01,0,1.77,.27,2.27,.81s.76,1.32,.76,2.33v.74h-4.49c.02,.3,.08,.56,.19,.76s.25,.37,.43,.49c.18,.12,.38,.21,.62,.26s.49,.08,.77,.08c.24,0,.47-.03,.7-.08s.44-.12,.63-.21c.17-.07,.32-.15,.47-.24s.26-.16,.35-.23h.22v1.69c-.17,.07-.32,.13-.46,.18s-.33,.11-.57,.17c-.22,.06-.45,.1-.69,.14s-.52,.05-.86,.05Zm.68-4.31c-.01-.43-.11-.76-.3-.99s-.48-.34-.87-.34-.71,.12-.93,.36-.35,.56-.37,.97h2.48Z"/><path class="y" d="M458.66,219.89c-.14,.12-.27,.22-.38,.32s-.26,.19-.45,.28c-.18,.09-.36,.16-.54,.21s-.42,.07-.73,.07c-.58,0-1.07-.2-1.45-.59s-.58-.88-.58-1.48c0-.49,.1-.88,.29-1.18s.48-.54,.84-.71c.37-.18,.81-.3,1.33-.38s1.07-.12,1.66-.16v-.04c0-.36-.13-.61-.4-.75s-.67-.21-1.2-.21c-.24,0-.53,.04-.85,.13s-.64,.2-.95,.34h-.18v-1.59c.2-.06,.53-.13,.98-.21s.91-.12,1.37-.12c1.13,0,1.96,.19,2.48,.57s.78,.95,.78,1.73v4.48h-2.04v-.7Zm0-1.02v-1.37c-.35,.04-.63,.07-.84,.09s-.43,.08-.63,.15c-.18,.06-.32,.16-.42,.28s-.15,.3-.15,.51c0,.31,.08,.52,.25,.64s.41,.17,.74,.17c.18,0,.36-.04,.55-.12s.36-.2,.51-.35Z"/><path class="y" d="M465.44,220.76c-.54,0-1.04-.07-1.49-.21s-.84-.35-1.17-.63c-.33-.29-.58-.64-.77-1.08s-.28-.94-.28-1.53c0-.63,.1-1.16,.3-1.61s.47-.8,.81-1.09c.33-.27,.71-.48,1.16-.61s.91-.2,1.39-.2c.36,0,.73,.04,1.09,.13s.73,.22,1.1,.4v1.76h-.26c-.08-.08-.18-.16-.3-.26s-.25-.18-.39-.26c-.15-.08-.32-.15-.5-.21s-.4-.08-.63-.08c-.52,0-.93,.18-1.22,.55s-.43,.86-.43,1.47c0,.66,.15,1.15,.46,1.48s.71,.49,1.22,.49c.26,0,.48-.03,.68-.09s.36-.13,.5-.21c.14-.08,.25-.17,.35-.25s.18-.17,.25-.24h.26v1.76c-.12,.05-.25,.11-.41,.18s-.31,.12-.47,.16c-.2,.05-.39,.1-.56,.13s-.4,.04-.69,.04Z"/><path class="y" d="M471.06,220.72c-.84,0-1.44-.17-1.83-.52s-.57-.91-.57-1.69v-3.08h-.79v-1.43h.79v-1.88h2.05v1.88h1.97v1.43h-1.97v2.33c0,.23,0,.43,0,.6s.04,.33,.09,.46c.05,.14,.15,.25,.29,.33s.34,.12,.61,.12c.11,0,.25-.02,.43-.07s.3-.09,.37-.13h.18v1.45c-.22,.06-.46,.1-.71,.14s-.56,.05-.92,.05Z"/><path class="y" d="M444.4,234.99h-2.11l-3.36-6.08v6.08h-2v-8.72h2.69l2.78,5v-5h2v8.72Z"/><path class="y" d="M449.68,234.29c-.14,.12-.27,.22-.38,.32s-.26,.19-.45,.28c-.18,.09-.36,.16-.54,.21s-.42,.07-.73,.07c-.58,0-1.07-.2-1.45-.59s-.58-.88-.58-1.48c0-.49,.1-.88,.29-1.18s.48-.54,.84-.71c.37-.18,.81-.3,1.33-.38s1.07-.12,1.66-.16v-.04c0-.36-.13-.61-.4-.75s-.67-.21-1.2-.21c-.24,0-.53,.04-.85,.13s-.64,.2-.95,.34h-.18v-1.59c.2-.06,.53-.13,.98-.21s.91-.12,1.37-.12c1.13,0,1.96,.19,2.48,.57s.78,.95,.78,1.73v4.48h-2.04v-.7Zm0-1.02v-1.37c-.35,.04-.63,.07-.84,.09s-.43,.08-.63,.15c-.18,.06-.32,.16-.42,.28s-.15,.3-.15,.51c0,.31,.08,.52,.25,.64s.41,.17,.74,.17c.18,0,.36-.04,.55-.12s.36-.2,.51-.35Z"/><path class="y" d="M455.76,235.12c-.84,0-1.44-.17-1.83-.52s-.57-.91-.57-1.69v-3.08h-.79v-1.43h.79v-1.88h2.05v1.88h1.97v1.43h-1.97v2.33c0,.23,0,.43,0,.6s.04,.33,.09,.46c.05,.14,.15,.25,.29,.33s.34,.12,.61,.12c.11,0,.25-.02,.43-.07s.3-.09,.37-.13h.18v1.45c-.22,.06-.46,.1-.71,.14s-.56,.05-.92,.05Z"/><path class="y" d="M460.34,227.47h-2.17v-1.6h2.17v1.6Zm-.06,7.52h-2.05v-6.58h2.05v6.58Z"/><path class="y" d="M468.01,228.41l-2.36,6.58h-2.24l-2.34-6.58h2.16l1.35,4.35,1.33-4.35h2.11Z"/><path class="y" d="M472.16,235.16c-1.24,0-2.19-.3-2.86-.89s-.99-1.44-.99-2.54,.31-1.93,.93-2.57,1.48-.96,2.59-.96c1.01,0,1.77,.27,2.27,.81s.76,1.32,.76,2.33v.74h-4.49c.02,.3,.08,.56,.19,.76s.25,.37,.43,.49c.18,.12,.38,.21,.62,.26s.49,.08,.77,.08c.24,0,.47-.03,.7-.08s.44-.12,.63-.21c.17-.07,.32-.15,.47-.24s.26-.16,.35-.23h.22v1.69c-.17,.07-.32,.13-.46,.18s-.33,.11-.57,.17c-.22,.06-.45,.1-.69,.14s-.52,.05-.86,.05Zm.68-4.31c-.01-.43-.11-.76-.3-.99s-.48-.34-.87-.34-.71,.12-.93,.36-.35,.56-.37,.97h2.48Z"/></g></g><g><circle class="x" cx="466.07" cy="74.98" r="27.39"/><g><path class="y" d="M455.92,79.92h-2.18v-5.78l-1.59,3.73h-1.49l-1.59-3.73v5.78h-2.06v-8.72h2.53l1.93,4.31,1.93-4.31h2.53v8.72Z"/><path class="y" d="M463.75,73.34l-3.32,8.99h-2.2l1-2.57-2.41-6.42h2.16l1.38,4.12,1.29-4.12h2.11Z"/><path class="y" d="M467.33,80.08c-.67,0-1.25-.06-1.76-.19s-.98-.29-1.41-.48v-2.07h.2c.44,.37,.92,.66,1.45,.86s1.04,.3,1.54,.3c.12,0,.29-.01,.5-.04s.37-.07,.5-.13c.15-.07,.28-.16,.39-.28s.16-.28,.16-.47c0-.22-.09-.4-.26-.53s-.38-.24-.62-.3c-.3-.08-.61-.15-.95-.22s-.65-.16-.95-.26c-.68-.24-1.16-.56-1.45-.96s-.44-.91-.44-1.51c0-.82,.35-1.48,1.04-1.98s1.55-.76,2.59-.76c.52,0,1.04,.05,1.55,.16s.97,.25,1.38,.43v1.99h-.19c-.32-.28-.72-.51-1.19-.7s-.95-.29-1.44-.29c-.19,0-.36,.01-.52,.04s-.31,.08-.48,.16c-.14,.06-.25,.16-.35,.28s-.15,.26-.15,.41c0,.22,.08,.4,.24,.53s.46,.25,.92,.35c.29,.07,.58,.13,.85,.19s.56,.15,.87,.26c.61,.22,1.06,.51,1.35,.88s.44,.86,.44,1.46c0,.87-.34,1.56-1.02,2.09s-1.6,.79-2.76,.79Z"/><path class="y" d="M480.17,82.23c-.23,.06-.47,.1-.71,.13s-.61,.04-1.11,.04c-.46,0-.85-.06-1.17-.17s-.59-.28-.81-.49c-.21-.21-.38-.45-.48-.74s-.17-.59-.18-.92c-1.23-.05-2.21-.48-2.92-1.28s-1.06-1.88-1.06-3.23,.38-2.51,1.12-3.33,1.78-1.22,3.1-1.22,2.35,.41,3.1,1.22,1.13,1.92,1.13,3.33c0,1.03-.21,1.91-.64,2.65s-1.03,1.26-1.81,1.57c0,.43,.1,.72,.28,.88s.5,.24,.96,.24c.18,0,.36-.03,.56-.08s.34-.1,.42-.15h.22v1.56Zm-2.84-4.46c.19-.25,.33-.55,.43-.89s.15-.78,.15-1.33-.05-.96-.16-1.33-.25-.67-.43-.9c-.19-.24-.4-.41-.64-.51s-.48-.16-.74-.16c-.27,0-.51,.05-.73,.14s-.43,.27-.63,.51c-.18,.23-.33,.53-.44,.9s-.17,.82-.17,1.34,.05,.98,.16,1.33,.25,.65,.43,.89c.19,.24,.4,.42,.64,.52s.48,.16,.74,.16,.51-.06,.75-.17,.45-.28,.63-.52Z"/><path class="y" d="M487.3,79.92h-5.82v-8.72h2.19v7.06h3.63v1.66Z"/></g></g></g><g><path class="k" d="M792.76,601.46h-6.48c-1.05-4.21-2.71-8.17-4.88-11.79l4.58-4.58c1.52-1.52,1.52-3.98,0-5.5l-9.43-9.43c-1.52-1.52-3.98-1.52-5.5,0l-4.58,4.58c-3.62-2.17-7.58-3.83-11.79-4.88v-6.48c0-2.15-1.74-3.89-3.89-3.89h-13.33c-2.15,0-3.89,1.74-3.89,3.89v6.48c-4.21,1.05-8.17,2.71-11.79,4.88l-4.58-4.58c-1.52-1.52-3.98-1.52-5.5,0l-9.43,9.43c-1.52,1.52-1.52,3.98,0,5.5l4.58,4.58c-2.17,3.62-3.83,7.58-4.88,11.79h-6.48c-2.15,0-3.89,1.74-3.89,3.89v13.33c0,2.15,1.74,3.89,3.89,3.89h6.48c1.05,4.21,2.71,8.17,4.88,11.79l-4.58,4.58c-1.52,1.52-1.52,3.98,0,5.5l9.43,9.43c1.52,1.52,3.98,1.52,5.5,0l4.58-4.58c3.62,2.17,7.58,3.83,11.79,4.88v6.48c0,2.15,1.74,3.89,3.89,3.89h13.33c2.15,0,3.89-1.74,3.89-3.89v-6.48c4.21-1.05,8.17-2.71,11.79-4.88l4.58,4.58c1.52,1.52,3.98,1.52,5.5,0l9.43-9.43c1.52-1.52,1.52-3.98,0-5.5l-4.58-4.58c2.17-3.62,3.83-7.58,4.88-11.79h6.48c2.15,0,3.89-1.74,3.89-3.89v-13.33c0-2.15-1.74-3.89-3.89-3.89Zm-48.64,36.86c-14.53,0-26.3-11.78-26.3-26.3s11.78-26.31,26.3-26.31,26.3,11.78,26.3,26.31-11.78,26.3-26.3,26.3Z"/><path class="k" d="M817.69,537.02h-3.95c-.64-2.56-1.65-4.98-2.98-7.18l2.79-2.79c.93-.93,.93-2.43,0-3.35l-5.75-5.75c-.93-.93-2.43-.93-3.35,0l-2.79,2.79c-2.21-1.33-4.62-2.34-7.18-2.98v-3.95c0-1.31-1.06-2.37-2.37-2.37h-8.13c-1.31,0-2.37,1.06-2.37,2.37v3.95c-2.56,.64-4.98,1.65-7.18,2.98l-2.79-2.79c-.93-.93-2.43-.93-3.35,0l-5.75,5.75c-.93,.93-.93,2.43,0,3.35l2.79,2.79c-1.33,2.21-2.34,4.62-2.98,7.18h-3.95c-1.31,0-2.37,1.06-2.37,2.37v8.13c0,1.31,1.06,2.37,2.37,2.37h3.95c.64,2.56,1.65,4.98,2.98,7.18l-2.79,2.79c-.93,.93-.93,2.43,0,3.35l5.75,5.75c.93,.93,2.43,.93,3.35,0l2.79-2.79c2.21,1.33,4.62,2.34,7.18,2.98v3.95c0,1.31,1.06,2.37,2.37,2.37h8.13c1.31,0,2.37-1.06,2.37-2.37v-3.95c2.56-.64,4.98-1.65,7.18-2.98l2.79,2.79c.93,.93,2.43,.93,3.35,0l5.75-5.75c.93-.93,.93-2.43,0-3.35l-2.79-2.79c1.33-2.21,2.34-4.62,2.98-7.18h3.95c1.31,0,2.37-1.06,2.37-2.37v-8.13c0-1.31-1.06-2.37-2.37-2.37Zm-29.64,22.47c-8.85,0-16.03-7.18-16.03-16.03s7.18-16.03,16.03-16.03,16.03,7.18,16.03,16.03-7.18,16.03-16.03,16.03Z"/></g><g><path class="k" d="M330.18,597.94h-6.48c-1.05-4.21-2.71-8.17-4.88-11.79l4.58-4.58c1.52-1.52,1.52-3.98,0-5.5l-9.43-9.43c-1.52-1.52-3.98-1.52-5.5,0l-4.58,4.58c-3.62-2.17-7.58-3.83-11.79-4.88v-6.48c0-2.15-1.74-3.89-3.89-3.89h-13.33c-2.15,0-3.89,1.74-3.89,3.89v6.48c-4.21,1.05-8.17,2.71-11.79,4.88l-4.58-4.58c-1.52-1.52-3.98-1.52-5.5,0l-9.43,9.43c-1.52,1.52-1.52,3.98,0,5.5l4.58,4.58c-2.17,3.62-3.83,7.58-4.88,11.79h-6.48c-2.15,0-3.89,1.74-3.89,3.89v13.33c0,2.15,1.74,3.89,3.89,3.89h6.48c1.05,4.21,2.71,8.17,4.88,11.79l-4.58,4.58c-1.52,1.52-1.52,3.98,0,5.5l9.43,9.43c1.52,1.52,3.98,1.52,5.5,0l4.58-4.58c3.62,2.17,7.58,3.83,11.79,4.88v6.48c0,2.15,1.74,3.89,3.89,3.89h13.33c2.15,0,3.89-1.74,3.89-3.89v-6.48c4.21-1.05,8.17-2.71,11.79-4.88l4.58,4.58c1.52,1.52,3.98,1.52,5.5,0l9.43-9.43c1.52-1.52,1.52-3.98,0-5.5l-4.58-4.58c2.17-3.62,3.83-7.58,4.88-11.79h6.48c2.15,0,3.89-1.74,3.89-3.89v-13.33c0-2.15-1.74-3.89-3.89-3.89Zm-48.64,36.86c-14.53,0-26.3-11.78-26.3-26.3s11.78-26.31,26.3-26.31,26.3,11.78,26.3,26.31-11.78,26.3-26.3,26.3Z"/><path class="k" d="M260.57,533.53h-3.95c-.64-2.56-1.65-4.98-2.98-7.18l2.79-2.79c.93-.93,.93-2.43,0-3.35l-5.75-5.75c-.93-.93-2.43-.93-3.35,0l-2.79,2.79c-2.21-1.33-4.62-2.34-7.18-2.98v-3.95c0-1.31-1.06-2.37-2.37-2.37h-8.13c-1.31,0-2.37,1.06-2.37,2.37v3.95c-2.56,.64-4.98,1.65-7.18,2.98l-2.79-2.79c-.93-.93-2.43-.93-3.35,0l-5.75,5.75c-.93,.93-.93,2.43,0,3.35l2.79,2.79c-1.33,2.21-2.34,4.62-2.98,7.18h-3.95c-1.31,0-2.37,1.06-2.37,2.37v8.13c0,1.31,1.06,2.37,2.37,2.37h3.95c.64,2.56,1.65,4.98,2.98,7.18l-2.79,2.79c-.93,.93-.93,2.43,0,3.35l5.75,5.75c.93,.93,2.43,.93,3.35,0l2.79-2.79c2.21,1.33,4.62,2.34,7.18,2.98v3.95c0,1.31,1.06,2.37,2.37,2.37h8.13c1.31,0,2.37-1.06,2.37-2.37v-3.95c2.56-.64,4.98-1.65,7.18-2.98l2.79,2.79c.93,.93,2.43,.93,3.35,0l5.75-5.75c.93-.93,.93-2.43,0-3.35l-2.79-2.79c1.33-2.21,2.34-4.62,2.98-7.18h3.95c1.31,0,2.37-1.06,2.37-2.37v-8.13c0-1.31-1.06-2.37-2.37-2.37Zm-29.64,22.47c-8.85,0-16.03-7.18-16.03-16.03s7.18-16.03,16.03-16.03,16.03,7.18,16.03,16.03-7.18,16.03-16.03,16.03Z"/></g></svg>