<?xml version="1.0" encoding="UTF-8"?><svg id="a" xmlns="http://www.w3.org/2000/svg" xmlns:xlink="http://www.w3.org/1999/xlink" viewBox="0 0 1281.81 1335.42"><defs><style>.c{fill:#eef7f6;}.c,.d,.e,.f,.g,.h,.i,.j,.k,.l,.m{fill-rule:evenodd;}.d{fill:#1e3062;}.e{fill:#fff;}.f{fill:#f69b6e;}.n{clip-path:url(#b);}.g{fill:#08a4dd;}.h{fill:#9fc9d0;}.i{fill:#213268;}.j{fill:#243a9d;}.k{fill:#b5ded9;}.o{clip-rule:evenodd;fill:none;}.l{fill:#cae7e4;}.m{fill:#ed7d65;}</style><clipPath id="b"><polygon class="o" points="1281.81 0 0 0 0 1335.42 1281.81 1335.42 1281.81 0 1281.81 0"/></clipPath></defs><g class="n"><path class="c" d="M1073.55,1094.95H217.25s-134.88-172.38-32.88-297.04c102.01-124.66,22.89-255.57,101.56-406.23,78.67-150.67,185.65-186.24,315-129.01,119.8,53.01,132.25,112.78,279.1,70.79,146.44-41.88,198.38-14.01,239.11,91.06,41.95,108.22-104.65,186.16-29.66,322.35,78.63,142.8,39.33,226.01-15.94,348.08h0Z"/><path class="i" d="M845.57,349.21c0-24.48-19.05-44.33-42.55-44.33H478.07c-23.5,0-42.55,19.85-42.55,44.33v695.14c0,24.48,19.05,44.33,42.55,44.33h324.95c23.5,0,42.55-19.85,42.55-44.33V349.21h0Z"/><polygon class="j" points="824.04 382.48 457.05 382.48 457.05 1011.08 824.04 1011.08 824.04 382.48 824.04 382.48"/><path class="j" d="M696.18,345.12c0-3.23-2.51-5.84-5.61-5.84h-100.98c-3.1,0-5.61,2.62-5.61,5.84s2.51,5.84,5.61,5.84h100.98c3.1,0,5.61-2.62,5.61-5.84h0Z"/><path class="l" d="M943.04,353.65c37.84,0,68.57,32.01,68.57,71.43s-30.72,71.43-68.57,71.43-68.57-32.01-68.57-71.43,30.72-71.43,68.57-71.43h0Z"/><path class="g" d="M943.04,371.39c13.21,0,23.94,11.18,23.94,24.94s-10.73,24.94-23.94,24.94-23.94-11.18-23.94-24.94,10.73-24.94,23.94-24.94h0Z"/><path class="g" d="M983.2,449.03c0-7.36-2.81-14.42-7.8-19.63-5-5.21-11.78-8.13-18.84-8.13h-27.02c-7.07,0-13.85,2.92-18.84,8.13-5,5.21-7.8,12.27-7.8,19.63v14.27c0,3.66,2.85,6.63,6.36,6.63h67.6c3.51,0,6.36-2.97,6.36-6.63v-14.27h0Z"/><path class="g" d="M519.02,568.91c-11.18-2.04-22.61-2.04-33.79,0l-2.12,22.91c-7.14,1.89-13.98,4.85-20.32,8.77l-17.05-14.64c-9.29,6.8-17.37,15.22-23.89,24.89l14.06,17.76c-3.76,6.6-6.6,13.73-8.42,21.17l-21.99,2.2c-1.95,11.65-1.95,23.56,0,35.2l21.99,2.2c1.82,7.44,4.65,14.57,8.42,21.17l-14.06,17.76c6.52,9.67,14.61,18.1,23.89,24.89l17.05-14.64c6.34,3.92,13.18,6.87,20.32,8.77l2.12,22.91c11.18,2.04,22.61,2.04,33.79,0l2.12-22.91c7.14-1.89,13.98-4.85,20.32-8.77l17.05,14.64c9.29-6.8,17.37-15.22,23.89-24.89l-14.06-17.76c3.76-6.6,6.6-13.73,8.42-21.17l21.99-2.2c1.95-11.65,1.95-23.56,0-35.2l-21.99-2.2c-1.82-7.44-4.65-14.57-8.42-21.17l14.06-17.76c-6.52-9.67-14.61-18.1-23.89-24.89l-17.05,14.64c-6.34-3.92-13.18-6.87-20.32-8.77l-2.12-22.91h0Zm-16.89,60.5c21.28,0,38.56,18,38.56,40.17s-17.28,40.17-38.56,40.17-38.56-18-38.56-40.17,17.28-40.17,38.56-40.17h0Z"/><path class="e" d="M502.12,608.59c-32.31,0-58.54,27.33-58.54,60.99s26.23,60.99,58.54,60.99,58.54-27.33,58.54-60.99-26.23-60.99-58.54-60.99h0Zm0,3.89c30.25,0,54.8,25.58,54.8,57.09s-24.56,57.09-54.8,57.09-54.8-25.58-54.8-57.09,24.56-57.09,54.8-57.09h0Z"/><path class="f" d="M600.09,447.59c-6.6-1.2-13.35-1.2-19.95,0l-1.25,13.53c-4.22,1.12-8.26,2.86-12,5.18l-10.07-8.65c-5.48,4.01-10.26,8.99-14.11,14.7l8.3,10.49c-2.22,3.9-3.9,8.11-4.97,12.5l-12.99,1.3c-1.15,6.88-1.15,13.91,0,20.79l12.99,1.3c1.07,4.39,2.75,8.6,4.97,12.5l-8.3,10.49c3.85,5.71,8.62,10.69,14.11,14.7l10.07-8.65c3.74,2.32,7.78,4.06,12,5.18l1.25,13.53c6.6,1.2,13.35,1.2,19.95,0l1.25-13.53c4.22-1.12,8.26-2.86,12-5.18l10.07,8.65c5.48-4.01,10.26-8.99,14.11-14.7l-8.3-10.49c2.22-3.9,3.9-8.11,4.97-12.5l12.99-1.3c1.15-6.88,1.15-13.91,0-20.79l-12.99-1.3c-1.07-4.39-2.75-8.6-4.97-12.5l8.3-10.49c-3.85-5.71-8.62-10.69-14.11-14.7l-10.07,8.65c-3.74-2.32-7.78-4.06-12-5.18l-1.25-13.53h0Zm-9.98,35.72c12.57,0,22.77,10.63,22.77,23.72s-10.2,23.72-22.77,23.72-22.77-10.63-22.77-23.72,10.2-23.72,22.77-23.72h0Z"/><path class="d" d="M590.12,471.02c-19.08,0-34.57,16.14-34.57,36.01s15.49,36.01,34.57,36.01,34.57-16.14,34.57-36.01-15.49-36.01-34.57-36.01h0Zm0,2.3c17.86,0,32.36,15.11,32.36,33.71s-14.5,33.71-32.36,33.71-32.36-15.11-32.36-33.71,14.5-33.71,32.36-33.71h0Z"/><path class="f" d="M654.45,575.38c-4.34-.79-8.77-.79-13.11,0l-.82,8.89c-2.77,.73-5.43,1.88-7.88,3.4l-6.61-5.68c-3.6,2.64-6.74,5.9-9.27,9.66l5.45,6.89c-1.46,2.56-2.56,5.33-3.27,8.21l-8.53,.86c-.76,4.52-.76,9.14,0,13.66l8.53,.86c.71,2.89,1.81,5.65,3.27,8.21l-5.45,6.89c2.53,3.75,5.67,7.02,9.27,9.66l6.61-5.68c2.46,1.52,5.11,2.67,7.88,3.4l.82,8.89c4.34,.79,8.77,.79,13.11,0l.82-8.89c2.77-.74,5.43-1.88,7.88-3.4l6.61,5.68c3.6-2.64,6.74-5.9,9.27-9.66l-5.45-6.89c1.46-2.56,2.56-5.33,3.27-8.21l8.53-.86c.76-4.52,.76-9.14,0-13.66l-8.53-.86c-.71-2.89-1.81-5.65-3.27-8.21l5.45-6.89c-2.53-3.75-5.67-7.02-9.27-9.66l-6.61,5.68c-2.46-1.52-5.11-2.67-7.88-3.4l-.82-8.89h0Zm-6.55,23.47c8.26,0,14.96,6.98,14.96,15.58s-6.7,15.58-14.96,15.58-14.96-6.98-14.96-15.58,6.7-15.58,14.96-15.58h0Z"/><path class="d" d="M647.9,590.78c-12.53,0-22.71,10.6-22.71,23.66s10.18,23.66,22.71,23.66,22.71-10.6,22.71-23.66-10.18-23.66-22.71-23.66h0Zm0,1.51c11.73,0,21.26,9.93,21.26,22.15s-9.53,22.15-21.26,22.15-21.26-9.93-21.26-22.15,9.53-22.15,21.26-22.15h0Z"/><path class="f" d="M452.92,411.01c0-7.81-6.08-14.15-13.58-14.15h-68.5c-7.5,0-13.58,6.33-13.58,14.15v71.36c0,7.81,6.08,14.15,13.58,14.15h68.5c7.5,0,13.58-6.33,13.58-14.15v-71.36h0Z"/><path class="e" d="M433.43,425.71c0-.66-.25-1.28-.69-1.75-.44-.46-1.05-.72-1.68-.72h-51.92c-.63,0-1.23,.26-1.68,.72-.44,.46-.69,1.09-.69,1.75h0c0,.66,.25,1.29,.69,1.75,.44,.46,1.05,.72,1.68,.72h51.92c.63,0,1.23-.26,1.68-.72,.44-.46,.69-1.09,.69-1.75h0Z"/><path class="e" d="M433.43,446.69c0-.66-.25-1.28-.69-1.75-.44-.46-1.05-.72-1.68-.72h-51.92c-.63,0-1.23,.26-1.68,.72-.44,.46-.69,1.09-.69,1.75h0c0,.66,.25,1.29,.69,1.75,.44,.46,1.05,.72,1.68,.72h51.92c.63,0,1.23-.26,1.68-.72,.44-.46,.69-1.09,.69-1.75h0Z"/><path class="e" d="M433.43,467.67c0-.66-.25-1.28-.69-1.75-.44-.46-1.05-.72-1.68-.72h-51.92c-.63,0-1.23,.26-1.68,.72-.44,.46-.69,1.09-.69,1.75h0c0,.66,.25,1.29,.69,1.75,.44,.46,1.05,.72,1.68,.72h51.92c.63,0,1.23-.26,1.68-.72,.44-.46,.69-1.09,.69-1.75h0Z"/><path class="h" d="M874.47,541.03c0-7.39-5.75-13.38-12.85-13.38h-64.8c-7.1,0-12.85,5.99-12.85,13.38v67.51c0,7.39,5.75,13.38,12.85,13.38h64.8c7.1,0,12.85-5.99,12.85-13.38v-67.51h0Z"/><polygon class="j" points="829.22 546.04 855.5 566.4 855.5 603.54 834.93 603.54 834.93 589.69 823.52 589.69 823.52 603.54 802.95 603.54 802.95 566.4 829.22 546.04 829.22 546.04"/><path class="h" d="M357.27,715.99c0-7.64-5.95-13.83-13.28-13.83h-105.56c-7.33,0-13.28,6.19-13.28,13.83v69.77c0,7.64,5.94,13.83,13.28,13.83h105.56c7.33,0,13.28-6.19,13.28-13.83v-69.77h0Z"/><polygon class="e" points="251.6 750.88 271.31 730.34 267.13 725.99 243.24 750.88 267.13 775.77 271.31 771.41 251.6 750.88 251.6 750.88"/><polygon class="e" points="330.82 750.88 311.1 730.34 315.28 725.99 339.17 750.88 315.28 775.77 311.1 771.41 330.82 750.88 330.82 750.88"/><polygon class="e" points="282.78 716.65 277.21 718.69 299.64 785.11 305.2 783.07 282.78 716.65 282.78 716.65"/><path class="f" d="M987.01,736.58c0-10.3-8.02-18.66-17.91-18.66h-303.15c-9.89,0-17.91,8.35-17.91,18.66v204.31c0,10.3,8.02,18.66,17.91,18.66h303.15c9.89,0,17.91-8.35,17.91-18.66v-204.31h0Z"/><polygon class="m" points="777.66 776.78 880.6 959.54 674.73 959.54 777.66 776.78 777.66 776.78"/><polygon class="m" points="874.5 807.17 960.32 959.54 788.68 959.54 874.5 807.17 874.5 807.17"/><path class="m" d="M845.44,746.02c9.66,0,17.51,8.17,17.51,18.24s-7.85,18.24-17.51,18.24-17.51-8.17-17.51-18.24,7.85-18.24,17.51-18.24h0Z"/><path class="g" d="M213.69,1079.4c-23.7-24.23-119.11-204.95-77.4-224.46,24.96-11.68,28.03,112.53,85.25,216.21,26.22,47.51-5.2,10.97-7.85,8.25h0Z"/><path class="e" d="M232.37,1095.54s-30.63-38.01-59.7-114.87c-12.95-34.24-25.58-76.17-35.06-125.88-.04-.23-.25-.37-.47-.33-.22,.04-.36,.26-.32,.49,9.26,49.83,21.71,91.9,34.52,126.26,28.83,77.36,59.45,115.7,59.45,115.7,.36,.45,1.01,.51,1.44,.13,.43-.38,.49-1.05,.13-1.5h0Z"/><path class="f" d="M229.18,869.16c-16.05-19.99-13.89-27.2-13.89-27.2,0,0-13.03,18.02-22.27,67.08l17.71,6.38-19.09,1.33c-2.35,15.66-3.32,32.88-1.6,50.77,1.86,19.35,6.45,39.24,13.78,57.65l29.18-4.58-22.56,19.29c11.36,22.42,27.25,41.45,47.71,52.73,24.6,0,46.19,2.71,85.83,2.71,0,0,35.87-43.63,12.3-97.54l-24.24,6.04,21.6-11.61c-8.43-16.57-22.64-33.98-45.3-51.3-8.13-6.21-15.55-12.07-22.32-17.58l-15.77,6.41,10.17-11.02c-24-19.92-39.21-35.17-48.83-46.63l-5.13,3.53,2.71-6.47h0Z"/><path class="e" d="M341.21,1095.83s-5.05-21.38-22.8-52.35c-8.15-14.21-18.94-30.44-33.16-47.53-17.96-21.77-45.15-53.96-60.88-86.88-11.06-23.15-16.46-46.65-9.08-67.1-6.76,20.5-.79,43.67,10.72,66.37,16.41,32.36,44.08,63.76,62.39,85.01,14.67,17.16,25.87,33.47,34.32,47.8,15.08,25.58,21.47,44.85,23.37,51.32-.79,1.58-2.12,2.86-2.12,2.86,0,0-1.41,.56-2.62,.96-.06-.14-.11-.29-.15-.45h0Z"/><path class="h" d="M476.24,1086.91s-45.59-69.97-39.08-141.17c2.74-30.04,14.79-60.28,43.48-85.57,.43-.38,.49-1.05,.13-1.5-.36-.45-1.01-.51-1.44-.13-29.4,25.57-41.84,56.34-44.83,86.93-7.06,72.21,38.74,143.55,38.74,143.55,.56,.86,1.68,1.09,2.51,.51,.83-.58,1.05-1.76,.49-2.62h0Z"/><path class="h" d="M475.32,1085.2s2.71-5.09,7.3-12.12c1.56-2.39,3.34-4.95,5.24-7.69,1.41-2.03,2.9-4.12,4.4-6.28,1.44-2.06,2.86-4.19,4.41-6.27,3.29-4.43,6.81-8.71,11.08-12.19,.33-.22,.44-.67,.23-1.02-.21-.35-.65-.46-.98-.24-5.15,2.55-9.86,5.91-14.06,9.86-1.71,1.61-3.3,3.31-4.77,5.08-1,1.21-1.95,2.45-2.79,3.72-2.28,3.42-4.13,6.91-5.62,10.18-4.23,9.23-5.76,16.44-5.76,16.44-.14,.38,.05,.81,.41,.96,.37,.15,.78-.05,.92-.43h0Z"/><path class="h" d="M468.35,1076.98s.25-6.02,4.55-15.46c1.28-2.81,2.93-5.87,4.97-9.27,1.25-2.09,2.69-4.26,4.2-6.62,1.34-2.09,2.72-4.32,4.28-6.64,2.08-3.1,4.33-6.35,6.98-9.77,2.35-3.04,4.81-6.18,7.71-9.44-3.64,2.4-6.9,4.71-9.89,7.15-2.24,1.83-4.25,3.65-6.13,5.5-2.09,2.06-3.95,4.1-5.6,6.17-1.21,1.52-2.29,3.05-3.24,4.58-1.6,2.58-2.86,5.12-3.89,7.53-.8,1.85-1.44,3.63-1.96,5.34-1.53,4.98-2.17,9.18-2.39,12.54-.35,5.42,.39,8.4,.39,8.4h0Z"/><path class="h" d="M459.86,1060.17s1.65-8.2,7.19-18.81c.78-1.49,1.62-3.01,2.52-4.6,1.22-2.15,2.59-4.35,4.06-6.64,.9-1.41,1.83-2.87,2.81-4.35,1.39-2.1,2.82-4.26,4.46-6.41,1.55-2.03,3.19-4.05,5.02-6.08,2.58-2.86,5.35-5.66,8.62-8.36-3.91,1.77-7.4,3.7-10.61,5.89-2.36,1.61-4.48,3.33-6.47,5.13-2.14,1.95-4.06,3.96-5.77,6.06-1.21,1.49-2.3,3.03-3.25,4.59-1.55,2.52-2.78,5.07-3.82,7.56-.76,1.82-1.39,3.58-1.9,5.32-3.53,11.92-2.88,20.7-2.88,20.7h0Z"/><path class="h" d="M452.66,1043.46s2.22-8.11,8.12-18.16c.84-1.43,1.75-2.89,2.71-4.41,1.31-2.07,2.77-4.17,4.32-6.33,.96-1.35,1.95-2.73,2.98-4.12,1.48-2,3.01-4.03,4.75-6.02,1.66-1.9,3.41-3.76,5.35-5.59,2.77-2.6,5.73-5.09,9.21-7.38-4.03,1.3-7.64,2.85-11,4.75-2.46,1.39-4.68,2.92-6.77,4.57-2.24,1.77-4.26,3.64-6.07,5.63-1.28,1.4-2.43,2.86-3.46,4.36-1.64,2.39-2.99,4.86-4.13,7.28-.83,1.75-1.53,3.47-2.12,5.16-3.98,11.43-3.9,20.27-3.9,20.27h0Z"/><path class="h" d="M444.95,1021.46s3.52-7.28,10.92-16.13c1.04-1.25,2.15-2.52,3.31-3.85,1.58-1.8,3.32-3.62,5.13-5.51,1.13-1.17,2.27-2.39,3.46-3.61,1.71-1.75,3.45-3.55,5.38-5.29,1.84-1.67,3.74-3.3,5.83-4.9,2.97-2.28,6.09-4.46,9.65-6.42-4.02,.93-7.69,2.11-11.17,3.62-2.52,1.09-4.85,2.33-7.07,3.69-2.37,1.44-4.56,2.99-6.57,4.67-1.41,1.18-2.73,2.43-3.92,3.73-1.92,2.08-3.57,4.26-5.03,6.41-1.06,1.57-2,3.11-2.83,4.65-5.68,10.54-7.09,18.94-7.09,18.94h0Z"/><path class="h" d="M440.55,1006.27s3.38-7.17,10.74-15.61c1.04-1.19,2.14-2.39,3.3-3.65,1.58-1.71,3.31-3.41,5.14-5.18,1.13-1.1,2.28-2.23,3.49-3.37,1.72-1.63,3.48-3.29,5.44-4.89,1.86-1.52,3.79-3.01,5.9-4.46,2.99-2.05,6.14-3.98,9.74-5.7-4,.65-7.64,1.56-11.1,2.81-2.53,.91-4.87,1.99-7.1,3.19-2.4,1.29-4.61,2.7-6.64,4.25-1.44,1.1-2.77,2.27-3.98,3.49-1.95,1.97-3.63,4.06-5.1,6.13-1.07,1.51-2.02,3-2.86,4.5-5.69,10.2-6.96,18.49-6.96,18.49h0Z"/><path class="h" d="M435.97,977.33s4.27-5.58,12.28-11.44c1.12-.82,2.31-1.64,3.55-2.5,1.68-1.16,3.51-2.28,5.42-3.45,1.18-.72,2.38-1.48,3.63-2.23,1.79-1.08,3.61-2.19,5.6-3.2,1.9-.97,3.83-1.89,5.94-2.74,2.99-1.2,6.07-2.28,9.55-3.07-3.64-.35-6.98-.38-10.25-.06-2.41,.23-4.66,.66-6.85,1.23-2.36,.61-4.58,1.37-6.66,2.31-1.47,.66-2.86,1.42-4.16,2.25-2.08,1.35-3.93,2.86-5.6,4.4-1.21,1.13-2.3,2.27-3.3,3.43-2.7,3.16-4.68,6.16-6.13,8.71-2.17,3.82-3.02,6.37-3.02,6.37h0Z"/><path class="h" d="M435.3,953.23s3.79-3.06,10.53-6.57c2.15-1.12,4.57-2.23,7.27-3.42,1.73-.76,3.57-1.48,5.47-2.3,1.75-.76,3.54-1.6,5.45-2.4,2.68-1.12,5.44-2.24,8.49-3.2,2.87-.9,5.76-1.76,8.99-2.37-3.32-.53-6.39-.82-9.45-.82-2.23,0-4.32,.17-6.39,.44-2.22,.29-4.32,.72-6.33,1.3-1.42,.41-2.78,.91-4.06,1.49-2.07,.94-3.96,2.04-5.68,3.18-1.27,.84-2.43,1.7-3.5,2.59-7.49,6.27-10.8,12.08-10.8,12.08h0Z"/><path class="h" d="M437.35,934.28s2.78-1.42,7.85-3.14c1.85-.62,3.93-1.18,6.31-1.89,1.92-.57,4-1.11,6.21-1.8,.96-.3,1.92-.68,2.92-1.05,1.44-.53,2.88-1.08,4.42-1.64,3.61-1.31,7.29-2.64,11.59-3.57-2.71-.53-5.18-.91-7.71-1.08-1.82-.12-3.52-.12-5.23-.04-1.83,.09-3.55,.26-5.22,.58-1.18,.22-2.32,.52-3.39,.89-1.76,.6-3.36,1.35-4.83,2.13-1.1,.58-2.1,1.18-3.04,1.81-6.78,4.61-9.89,8.8-9.89,8.8h0Z"/><path class="h" d="M441.14,918.42s4.37-1.26,12.12-2.45c1.02-.16,2.07-.31,3.19-.52,1.49-.27,3.06-.52,4.72-.87,1.01-.22,2.04-.49,3.1-.79,1.51-.43,3.02-.94,4.64-1.44,1.54-.47,3.06-.95,4.71-1.44,2.36-.7,4.65-1.42,7.23-2.05-2.65-.51-5.05-.91-7.52-1.15-1.77-.17-3.42-.24-5.08-.25-1.77,0-3.45,.05-5.08,.24-1.16,.13-2.27,.33-3.34,.59-1.74,.43-3.35,1.01-4.84,1.61-1.12,.45-2.14,.91-3.12,1.42-7.21,3.74-10.72,7.1-10.72,7.1h0Z"/><path class="h" d="M447.52,901.86s3.69-.74,9.42-1.59c.79-.12,1.58-.24,2.43-.4,1.14-.23,2.33-.43,3.55-.75,.76-.2,1.53-.45,2.29-.73,1.14-.41,2.24-.88,3.41-1.35,2.98-1.2,5.76-2.42,8.98-3.13-1.97-.64-3.76-1.1-5.78-1.42-1.36-.21-2.63-.29-3.97-.32-1.36-.03-2.66,.01-3.97,.18-.88,.11-1.74,.3-2.57,.55-1.31,.4-2.52,.93-3.65,1.49-.83,.41-1.59,.83-2.31,1.3-5.07,3.26-7.83,6.18-7.83,6.18h0Z"/><path class="h" d="M457.04,885.12s2.26-.36,7.21,.35c.58,.08,1.15,.19,1.81,.26,.83,.08,1.71,.22,2.68,.26,.58,.02,1.17-.01,1.79-.06,.9-.08,1.78-.24,2.77-.39,2.32-.36,4.49-.88,7.38-1.13-1.46-.99-2.61-1.75-3.99-2.49-1-.54-1.89-.92-2.85-1.29-1.05-.4-2-.7-2.99-.89-.71-.14-1.4-.2-2.06-.19-1.13,.02-2.15,.2-3.1,.43-.75,.19-1.39,.39-2.03,.65-1.51,.63-2.61,1.21-3.58,1.87-2.29,1.55-3.04,2.62-3.04,2.62h0Z"/><path class="h" d="M465.92,873.52s2-.25,6.15,.41c.49,.08,.95,.19,1.5,.25,.69,.07,1.4,.22,2.19,.24,.59,.01,1.2-.07,1.84-.14,.95-.11,1.84-.34,2.91-.52,1.75-.3,3.21-.7,5.29-.9-1.2-1.03-2.08-1.75-3.25-2.52-.84-.56-1.57-.91-2.41-1.3-.9-.41-1.71-.69-2.58-.89-.61-.14-1.22-.19-1.8-.18-.64,.01-1.24,.11-1.81,.24-1,.24-1.84,.51-2.63,.89-1.29,.64-2.18,1.21-2.99,1.88-1.85,1.53-2.41,2.53-2.41,2.53h0Z"/><path class="h" d="M477.23,861.83s1.41-.69,5.91-.3c.48,.04,.94,.13,1.49,.14,.68,.02,1.4,.11,2.2,.07,.47-.02,.96-.11,1.47-.21,.74-.15,1.44-.39,2.26-.65,1.93-.6,3.58-1.35,6.06-2.02-1.33-.8-2.28-1.37-3.51-1.95-.89-.42-1.63-.69-2.47-.97-.92-.3-1.72-.5-2.57-.61-.61-.08-1.19-.07-1.75-.01-.62,.07-1.2,.21-1.73,.38-.98,.32-1.79,.65-2.52,1.08-1.3,.77-2.12,1.4-2.84,2.14-1.8,1.87-2,2.91-2,2.91h0Z"/><path class="h" d="M473.44,865.45s.21-2.39,1.16-6.69c.12-.54,.25-1.05,.35-1.65,.12-.76,.3-1.55,.37-2.41,.04-.52,.03-1.06,.01-1.61-.03-.83-.16-1.62-.25-2.51-.23-2.24-.6-4.2-.55-6.83-1.09,1.19-1.87,2.12-2.7,3.36-.59,.87-.98,1.65-1.41,2.55-.45,.94-.77,1.81-1.01,2.75-.17,.64-.26,1.29-.27,1.92-.03,1.03,.09,1.99,.27,2.9,.14,.69,.29,1.29,.51,1.89,.5,1.38,.95,2.39,1.49,3.35,1.2,2.12,2.02,2.98,2.02,2.98h0Z"/><path class="h" d="M462.82,877.27s-.28-3.4-.16-8.97c.02-.74,.04-1.48,.03-2.29-.02-1.07,0-2.18-.08-3.36-.05-.72-.15-1.45-.27-2.2-.17-1.1-.42-2.17-.64-3.34-.56-2.88-1.19-5.58-1.35-8.84-.96,1.76-1.7,3.3-2.35,5.08-.46,1.24-.76,2.4-1.04,3.64-.29,1.29-.48,2.51-.56,3.75-.05,.86-.04,1.7,.05,2.51,.15,1.31,.44,2.53,.78,3.67,.25,.85,.52,1.62,.85,2.36,2.34,5.29,4.74,7.98,4.74,7.98h0Z"/><path class="h" d="M454.79,888.56s-.86-3.31-1.65-8.71c-.23-1.57-.41-3.24-.64-5.09-.13-1.07-.23-2.18-.41-3.32-.23-1.41-.53-2.85-.83-4.34-.44-2.17-.97-4.3-1.31-6.66-.35-2.43-.69-4.74-.71-7.36-1.06,2.19-1.85,4.21-2.47,6.42-.44,1.56-.71,3.05-.92,4.59-.22,1.61-.31,3.15-.27,4.69,.03,1.06,.14,2.1,.32,3.1,.3,1.59,.76,3.08,1.28,4.47,.38,1.02,.77,1.95,1.23,2.83,3.14,6.13,6.4,9.38,6.4,9.38h0Z"/><path class="h" d="M444.4,909.08s-2.38-3.58-4.63-10.13c-.7-2.05-1.32-4.34-1.97-6.93-.41-1.63-.76-3.37-1.19-5.19-.4-1.66-.88-3.37-1.29-5.2-.58-2.54-1.16-5.17-1.58-8.1-.38-2.71-.75-5.43-.86-8.5-.99,2.97-1.73,5.69-2.23,8.44-.37,2.05-.56,3.97-.66,5.89-.11,2.1-.07,4.07,.13,5.98,.14,1.37,.38,2.69,.7,3.94,.53,2.05,1.25,3.92,2.03,5.63,.58,1.27,1.2,2.43,1.87,3.5,1.85,3,3.7,5.25,5.36,6.95,2.54,2.62,4.33,3.72,4.33,3.72h0Z"/><path class="h" d="M439.29,925.13s-2.78-3.57-6.37-9.23c-1.2-1.89-2.45-3.96-3.77-6.22-.49-.84-.99-1.7-1.51-2.56-.51-.83-1.03-1.66-1.58-2.49-1.07-1.63-2.18-3.24-3.24-4.97-2.27-3.73-4.35-7.49-5.54-11.96-.3,2.89-.28,5.6,.06,8.41,.23,1.93,.64,3.74,1.15,5.58,.52,1.87,1.16,3.64,1.95,5.34,.53,1.16,1.14,2.26,1.81,3.29,1.05,1.61,2.23,3.06,3.42,4.38,.86,.95,1.71,1.81,2.59,2.6,5.94,5.33,11.03,7.84,11.03,7.84h0Z"/><path class="h" d="M436.3,941.3s-4.36-3.94-9.89-10.42c-1.87-2.19-3.85-4.64-5.88-7.32-.76-1.01-1.53-2.04-2.33-3.09-.77-1-1.54-2.02-2.34-3.05-1.55-2-3.12-4.02-4.6-6.19-3.14-4.59-5.96-9.45-7.65-15.2,.02,3.72,.44,7.22,1.26,10.68,.57,2.41,1.34,4.68,2.24,6.91,.93,2.29,1.99,4.46,3.22,6.51,.83,1.4,1.75,2.72,2.72,3.95,1.53,1.93,3.18,3.65,4.85,5.22,1.19,1.12,2.37,2.13,3.57,3.06,8.01,6.19,14.83,8.94,14.83,8.94h0Z"/><path class="h" d="M435.55,962.31s-5.4-1.84-12.55-5.06c-2.51-1.13-5.18-2.4-7.95-3.82-1.06-.54-2.13-1.1-3.21-1.65-1.06-.54-2.13-1.08-3.2-1.61-2.15-1.07-4.27-2.14-6.28-3.38-4.63-2.87-8.62-6.23-10.96-11.13,.73,4.69,2.76,8.79,5.72,12.47,1.92,2.39,4.2,4.49,6.74,6.31,1.85,1.33,3.83,2.48,5.87,3.41,2.08,.94,4.21,1.63,6.31,2.2,2.73,.74,5.34,1.23,7.77,1.57,6.86,.94,11.73,.7,11.73,.7h0Z"/><path class="h" d="M437.3,988.09s-5.19,.33-12.47-.23c-2.49-.19-5.17-.5-8.01-.93-1.07-.16-2.15-.34-3.26-.51-1.07-.16-2.14-.33-3.23-.49-2.14-.32-4.28-.64-6.44-1.17-4.63-1.14-9.1-2.78-13.19-6.07,1.8,2.83,3.83,5.13,6.21,7.14,1.68,1.41,3.45,2.55,5.32,3.56,1.91,1.03,3.87,1.85,5.9,2.46,1.36,.41,2.75,.71,4.12,.89,2.13,.28,4.23,.31,6.26,.21,1.43-.07,2.8-.21,4.12-.43,8.65-1.43,14.67-4.43,14.67-4.43h0Z"/><path class="h" d="M441.51,1009.05s-4.19,.21-10.44,.17c-1.9-.01-3.93-.06-6.12-.08-1.31-.01-2.64-.06-4.02-.02-1.74,.05-3.51,.17-5.3,.28-2.69,.17-5.33,.42-8.03,.39-2.98-.03-5.76-.14-8.57-.78,2.22,1.6,4.53,2.87,7.12,3.93,1.7,.69,3.41,1.21,5.21,1.64,1.78,.43,3.55,.75,5.36,.91,1.21,.11,2.41,.14,3.59,.08,1.84-.09,3.62-.36,5.32-.7,1.22-.24,2.36-.52,3.47-.85,7.47-2.23,12.41-4.98,12.41-4.98h0Z"/><path class="h" d="M435.93,975.81s-6.11-1.32-14.27-3.19c-2.93-.67-6.06-1.46-9.31-2.11-2.05-.41-4.14-.71-6.19-1.03-3.25-.52-6.37-.95-9.24-1.71-3.67-.97-6.77-2.11-9.03-4.04,1.92,3.22,5.28,6,9.6,8.36,2.39,1.31,5,2.42,7.78,3.31,1.98,.63,4.02,1.12,6.07,1.43,2.08,.32,4.16,.43,6.17,.48,2.64,.07,5.12-.02,7.41-.18,6.55-.45,11.01-1.33,11.01-1.33h0Z"/><path class="h" d="M435.27,951.83s-3.55-2.46-8.55-6.18c-1.56-1.16-3.2-2.4-4.97-3.7-1.07-.79-2.15-1.62-3.29-2.38-1.47-.99-3-1.93-4.52-2.87-2.36-1.47-4.67-2.8-6.74-4.38-2.5-1.9-4.63-3.74-6.13-6.04,.52,2.62,1.6,5.14,3.2,7.72,.96,1.57,2.09,3.02,3.36,4.48,1.2,1.38,2.5,2.69,3.92,3.9,.92,.79,1.9,1.51,2.91,2.16,1.54,.99,3.15,1.81,4.73,2.54,1.12,.52,2.2,.96,3.29,1.35,7.18,2.55,12.8,3.4,12.8,3.4h0Z"/><path class="h" d="M439.13,998.73s-5.41,.15-13.1-.13c-2.65-.1-5.51-.24-8.54-.43-1.15-.07-2.32-.15-3.51-.2-1.16-.05-2.32-.09-3.49-.11-2.34-.04-4.66-.05-6.99-.18-5.35-.31-10.42-.99-14.87-3.19,2.3,2.28,4.93,4.11,7.95,5.64,1.94,.98,3.96,1.75,6.09,2.42,2.08,.65,4.19,1.15,6.34,1.48,1.43,.22,2.86,.34,4.29,.37,2.19,.04,4.34-.12,6.4-.36,1.46-.17,2.86-.4,4.21-.68,8.94-1.86,15.22-4.62,15.22-4.62h0Z"/><path class="h" d="M443.93,1019.51s-5.62,1.56-13.5,3.24c-2.76,.59-5.75,1.19-8.9,1.77-1.21,.22-2.43,.44-3.66,.69-1.21,.24-2.42,.49-3.62,.76-2.44,.54-4.84,1.09-7.23,1.47-5.78,.93-11.18,1.16-15.81-.84,3.38,2.87,7.66,4.57,12.55,5.39,2.96,.49,6.04,.63,9.18,.41,2.27-.15,4.54-.5,6.75-1.03,2.24-.55,4.4-1.31,6.45-2.12,2.69-1.07,5.15-2.24,7.38-3.41,6.35-3.34,10.4-6.32,10.4-6.32h0Z"/><path class="h" d="M449.5,1035.12s-5.71,2.14-13.89,4.53c-2.85,.83-5.94,1.69-9.21,2.53-1.25,.32-2.52,.64-3.8,.99-1.25,.34-2.51,.68-3.77,1.04-2.51,.73-5.01,1.45-7.54,2.02-5.85,1.33-11.5,2.04-16.81,.77,3.07,1.78,6.43,2.93,10.1,3.58,2.35,.41,4.74,.57,7.21,.56,2.4,0,4.8-.19,7.19-.57,1.58-.25,3.15-.6,4.67-1.04,2.33-.68,4.57-1.56,6.71-2.49,1.5-.66,2.92-1.35,4.28-2.09,8.92-4.84,14.85-9.83,14.85-9.83h0Z"/><path class="h" d="M456.36,1052.39s-4.74,2.67-12.25,5.52c-2.49,.95-5.24,1.89-8.25,2.82-1.12,.34-2.26,.68-3.42,1.05-1.11,.35-2.25,.71-3.4,1.09-2.22,.73-4.47,1.5-6.85,2.12-1.99,.52-3.97,1.01-6.06,1.38-3.09,.55-6.17,.95-9.49,.96,3.25,1.12,6.37,1.86,9.57,2.26,2.26,.28,4.45,.35,6.64,.3,2.28-.06,4.49-.28,6.64-.68,1.49-.28,2.93-.65,4.31-1.12,2.19-.74,4.22-1.67,6.12-2.66,1.37-.71,2.64-1.46,3.84-2.25,8.12-5.37,12.61-10.78,12.61-10.78h0Z"/><path class="h" d="M463.68,1068.05s-4.63,2.42-11.81,5.21c-2.4,.93-5.03,1.89-7.89,2.86-1.07,.36-2.16,.73-3.26,1.12-1.06,.38-2.14,.77-3.22,1.19-2.11,.81-4.23,1.68-6.46,2.42-1.89,.63-3.75,1.23-5.72,1.73-2.96,.75-5.87,1.36-9.01,1.59,3.13,.88,6.15,1.41,9.29,1.61,2.16,.14,4.25,.09,6.36-.09,2.16-.18,4.26-.49,6.31-.97,1.4-.33,2.76-.75,4.07-1.25,2.05-.79,3.96-1.75,5.75-2.75,1.29-.72,2.48-1.47,3.61-2.25,7.64-5.32,11.99-10.43,11.99-10.43h0Z"/><path class="h" d="M470.89,1081.53s-3.71,2.63-9.25,5.91c-1.9,1.12-3.95,2.28-6.16,3.47-.84,.45-1.68,.9-2.53,1.38-.82,.47,8.91,.94,9.73,.07,5.33-5.66,8.21-10.83,8.21-10.83h0Z"/><path class="l" d="M393.69,1093.69s-5.83,2.61-17.17-.28c-29.04-7.41-81.88-24.84-89.72-55.03-9.26-35.63,56.85,15.32,52.82-9.24-4.03-24.56-65.53-57.52-58.45-77.91,7.08-20.39,49.81,22.85,57.79,12.47,7.97-10.39-39.37-60.51-25.99-85.25,13.38-24.74,23.4,17.73,39.22,50.06,15.82,32.34,33.22-12.42,52.65-7.34,26.49,6.92-23.89,64.23-10.19,86.79,12.63,20.8,45.19-64.12,52.42-8.07,6.76,52.46-25,80.96-41.74,92.13-5.77,3.85-11.63,1.67-11.63,1.67h0Z"/><path class="h" d="M384.23,1069.2c-4.41-.49-22.23-2.65-39.5-7.44-9.59-2.66-19-6.12-25.84-10.56-.2-.13-.46-.09-.57,.11-.11,.19-.04,.46,.17,.59,6.85,4.62,16.33,8.32,26.01,11.19,18.44,5.48,37.57,7.99,40.41,8.34,2.73,9.08,4.92,16.4,6.3,21.06,.19,.64,2.24,.36,2.1-.1-1.86-6.09-5.19-16.99-9.39-30.53,1.81-1.47,17.01-13.92,29.75-29.48,6.19-7.56,11.81-15.85,15.03-23.97,.08-.21-.02-.47-.23-.58-.21-.11-.46-.03-.54,.18-3.34,7.96-9.05,16.05-15.32,23.41-11.9,13.96-25.82,25.29-29.39,28.12-6.04-19.45-13.73-43.91-21.36-67.35-.35-1.07-.7-2.14-1.05-3.21,.15-.07,.27-.17,.37-.31l31.99-48c.13-.18,.07-.45-.12-.6-.19-.15-.45-.12-.58,.06l-32.49,46.32c-8.55-26.08-16.85-50.27-22.5-64.05-.09-.22-.34-.35-.55-.28-.21,.07-.31,.31-.22,.53,5.95,14.81,14.87,41.59,23.86,69.85,.96,3.03,1.93,6.07,2.89,9.12-4.85-2.34-23.85-11.65-38.16-20.32-6.97-4.22-12.83-8.28-15.35-11.3-.16-.19-.42-.23-.59-.09-.17,.14-.18,.41-.03,.6,2.51,3.13,8.39,7.4,15.42,11.85,16.43,10.39,39.13,21.78,39.13,21.78,.14,.07,.28,.1,.41,.11,7.43,23.64,14.64,47.3,19.96,64.96h0Z"/><path class="f" d="M1013.59,1095.55c.2,2.2,2.62-.25,4.83-.47,15.33-21.87,49.55-73.02,76.27-130.06,16.17-34.51,29.59-71.19,34.45-104.84,.09-.59-.3-1.15-.87-1.24-.57-.09-1.1,.32-1.19,.91-5.02,33.4-18.58,69.74-34.84,103.92-28.15,59.18-64.4,111.9-78.65,131.78h0Z"/><path class="k" d="M985.94,1096.46s-17.31-22.58-7.97-47.7c9.35-25.13,20.82,22.13,7.97,47.7h0Z"/><path class="f" d="M1039.21,1060.95s-24.15-38.01-13.44-52.03c10.7-14.01,19.33,25.02,13.44,52.03h0Z"/><path class="f" d="M1058.71,1029.41s-22.38-29.21-15.8-43.12c6.58-13.91,21.65,9.14,15.8,43.12h0Z"/><path class="f" d="M1073.36,1003.73s-23.14-27.28-12.8-43.5c10.34-16.22,19.75,15.71,12.8,43.5h0Z"/><path class="f" d="M1090.22,971.16s-20.36-21.73-13.39-37.76c6.96-16.03,14.87,16.64,13.39,37.76h0Z"/><path class="f" d="M1102.75,943.73s-26.56-28.3-16.1-43.56c10.46-15.26,15.77,30.87,16.1,43.56h0Z"/><path class="f" d="M1117.24,902.54s-25.85-27.45-18.03-41.7c7.83-14.26,17.18,31.13,18.03,41.7h0Z"/><path class="f" d="M1126.89,867.43s-16.62-32.34-3.25-44.71c13.37-12.38,15.36,30.23,3.25,44.71h0Z"/><path class="f" d="M1117.24,902.54s27.84-30.32,37.11-20.9c9.27,9.42-24.76,28.03-37.11,20.9h0Z"/><path class="f" d="M1102.75,943.73s40.27-31.78,44.18-14.18c3.91,17.6-31.63,26.38-44.18,14.18h0Z"/><path class="f" d="M1090.22,971.16s40.81-16.8,42.26-.16c1.45,16.65-28,10.91-42.26,.16h0Z"/><path class="f" d="M1073.36,1003.72s30.89-6.34,38.57,4.45c7.68,10.79-18.78,13.89-38.57-4.45h0Z"/><path class="f" d="M1058.71,1029.41s38.14-2.03,44.64,12.6c6.5,14.63-36.25,3.16-44.64-12.6h0Z"/><path class="f" d="M1039.21,1060.95s35.33-1.3,44.34,12.12c9.02,13.42-29.69,15.66-44.34-12.12h0Z"/><path class="g" d="M1017.9,874.88c13.19-20.28,10.52-26.81,10.52-26.81,0,0,13.82,15.56,26.93,60.54l-15.98,7.71,17.98-.64c3.62,14.41,6.09,30.43,6.11,47.32,.02,18.28-2.46,37.33-7.64,55.27l-27.71-1.41,22.85,15.81c-10.02,25.79-26.25,47.87-49.35,59.76-23.95,.25-72.24,3.56-74.79,.34-9.32-11.78-29.55-43.65-16.09-85.06l23.22,3.26-21.26-8.72c6.37-16.33,18.08-34.02,37.7-52.45,7.04-6.61,13.44-12.82,19.27-18.64l15.33,4.44-10.51-9.3c20.63-21,33.47-36.76,41.43-48.43l5.12,2.8-3.12-5.78h0Z"/><path class="e" d="M929.64,1091.53c-.34,1.52,4.37,4.42,5.15,.8,1.73-8.08,6-24.41,15.52-45.61,6.33-14.1,14.95-30.34,26.69-47.73,14.82-22.14,37.32-54.92,49.03-87.26,8.24-22.74,11.15-45.25,2.39-63.65,8.19,18.51,4.71,40.76-3.99,63.13-12.41,31.88-35.43,63.98-50.62,85.66-12.16,17.49-21.15,33.86-27.75,48.09-9.98,21.51-14.53,38.19-16.41,46.58h0Z"/><path class="h" d="M841.66,1092.68c12.27,2.09,36.99-.89,62.57,.13,27.44-9.45,58.52-24.9,64.39-47.5,9.26-35.63-56.85,15.32-52.82-9.24,4.03-24.56,65.53-57.52,58.45-77.91-7.08-20.39-49.81,22.85-57.79,12.47-7.97-10.39,39.37-60.51,25.99-85.25-13.38-24.74-23.4,17.73-39.22,50.07-15.82,32.34-33.22-12.42-52.65-7.35-26.49,6.92,23.89,64.23,10.19,86.79-12.63,20.8-45.19-64.12-52.42-8.07-5.74,44.53,16.28,71.8,33.3,85.86h0Z"/><path class="e" d="M871.2,1076.13c4.41-.49,22.23-2.65,39.5-7.44,9.59-2.66,19-6.12,25.84-10.56,.2-.13,.46-.09,.57,.11,.11,.19,.04,.46-.17,.59-6.85,4.62-16.34,8.32-26.01,11.19-18.44,5.48-37.57,7.99-40.41,8.34-1.72,5.72-3.23,10.75-4.45,14.85,.31,.45-2.84,2.47-2.1,.06,1.9-6.22,4.49-14.65,7.54-24.48-1.81-1.47-17.01-13.92-29.75-29.48-6.19-7.56-11.81-15.85-15.03-23.97-.08-.21,.02-.47,.23-.58,.21-.11,.46-.03,.54,.18,3.34,7.96,9.05,16.05,15.32,23.41,11.9,13.96,25.81,25.29,29.39,28.12,6.04-19.45,13.73-43.91,21.36-67.35,.35-1.07,.7-2.14,1.05-3.21-.15-.07-.27-.17-.37-.31l-31.99-48c-.13-.18-.07-.45,.12-.6,.19-.15,.45-.12,.58,.06l32.49,46.32c8.55-26.08,16.85-50.27,22.5-64.05,.09-.22,.34-.35,.55-.28,.21,.07,.31,.31,.22,.53-5.95,14.81-14.87,41.59-23.86,69.85-.96,3.03-1.93,6.07-2.89,9.12,4.85-2.34,23.85-11.65,38.16-20.32,6.97-4.22,12.83-8.28,15.35-11.3,.16-.19,.42-.23,.59-.09,.17,.14,.18,.41,.03,.6-2.51,3.13-8.39,7.4-15.42,11.85-16.43,10.39-39.13,21.78-39.13,21.78-.14,.07-.28,.1-.41,.11-7.43,23.64-14.64,47.3-19.96,64.96h0Z"/><path class="l" d="M805.79,1075.53c18.66-24.67,84.57-198.9,44.85-211.46-23.77-7.52-12.78,104.72-52.83,204.97-18.35,45.94,5.9,9.25,7.99,6.49h0Z"/><path class="h" d="M790.76,1092.31s23.38-37.92,41.04-110.63c7.87-32.39,14.6-71.68,17.63-117.58,.01-.21,.19-.37,.39-.35,.2,.01,.35,.19,.34,.4-2.82,46-9.38,85.38-17.1,117.86-17.4,73.14-40.73,111.35-40.73,111.35-.28,.45-.85,.58-1.28,.29-.43-.29-.56-.89-.28-1.34h0Z"/><path class="g" d="M150.98,1093.93c0-2.58,1.1-4.67,2.45-4.67h960.34c1.35,0,2.45,2.09,2.45,4.67h0c0,2.58-1.1,4.68-2.45,4.68H153.43c-1.35,0-2.45-2.09-2.45-4.67h0Z"/></g></svg>