<?xml version="1.0" encoding="utf-8"?>
<!-- Generator: Adobe Illustrator 26.4.1, SVG Export Plug-In . SVG Version: 6.00 Build 0)  -->
<svg version="1.1" id="Layer_1" xmlns="http://www.w3.org/2000/svg" xmlns:xlink="http://www.w3.org/1999/xlink" x="0px" y="0px"
	 viewBox="0 0 1080 1080" enable-background="new 0 0 1080 1080" xml:space="preserve">
<g>
	<g>
		<defs>
			<polygon id="SVGID_1_" points="1188.234,-125.92 -93.577,-125.92 -93.577,1209.496 1188.234,1209.496 1188.234,-125.92 			"/>
		</defs>
		<clipPath id="SVGID_00000172436823855268047710000017970377372801577642_">
			<use xlink:href="#SVGID_1_"  overflow="visible"/>
		</clipPath>
		
			<path clip-path="url(#SVGID_00000172436823855268047710000017970377372801577642_)" fill-rule="evenodd" clip-rule="evenodd" fill="#EEF7F6" d="
			M979.972,969.028H123.671c0,0-134.884-172.38-32.876-297.041s22.89-255.566,101.563-406.234
			C271.033,115.086,378.006,79.512,507.36,136.746c119.799,53.006,132.253,112.78,279.096,70.788
			c146.437-41.877,198.375-14.011,239.109,91.06c41.954,108.22-104.649,186.159-29.656,322.355
			C1074.535,763.747,1035.24,846.955,979.972,969.028L979.972,969.028z"/>
		
			<path clip-path="url(#SVGID_00000172436823855268047710000017970377372801577642_)" fill-rule="evenodd" clip-rule="evenodd" fill="#213268" d="
			M751.993,223.289c0-24.483-19.05-44.33-42.551-44.33c-73.621,0-251.328,0-324.949,0c-23.5,0-42.551,19.847-42.551,44.33
			c0,137.756,0,557.387,0,695.143c0,24.483,19.05,44.33,42.551,44.33c73.621,0,251.328,0,324.949,0
			c23.5,0,42.551-19.847,42.551-44.33C751.993,780.676,751.993,361.045,751.993,223.289L751.993,223.289z"/>
		
			<polygon clip-path="url(#SVGID_00000172436823855268047710000017970377372801577642_)" fill-rule="evenodd" clip-rule="evenodd" fill="#243A9D" points="
			730.459,256.56 363.478,256.56 363.478,885.161 730.459,885.161 730.459,256.56 		"/>
		
			<path clip-path="url(#SVGID_00000172436823855268047710000017970377372801577642_)" fill-rule="evenodd" clip-rule="evenodd" fill="#243A9D" d="
			M602.608,219.205c0-3.225-2.514-5.845-5.61-5.845H496.015c-3.096,0-5.61,2.619-5.61,5.845c0,3.226,2.514,5.845,5.61,5.845h100.982
			C600.094,225.049,602.608,222.431,602.608,219.205L602.608,219.205z"/>
		
			<path clip-path="url(#SVGID_00000172436823855268047710000017970377372801577642_)" fill-rule="evenodd" clip-rule="evenodd" fill="#CAE7E4" d="
			M849.461,227.731c37.843,0,68.566,32.009,68.566,71.434c0,39.425-30.723,71.433-68.566,71.433
			c-37.843,0-68.566-32.008-68.566-71.433C780.896,259.74,811.619,227.731,849.461,227.731L849.461,227.731z"/>
		
			<path clip-path="url(#SVGID_00000172436823855268047710000017970377372801577642_)" fill-rule="evenodd" clip-rule="evenodd" fill="#08A4DD" d="
			M849.461,245.466c13.214,0,23.941,11.177,23.941,24.943c0,13.766-10.728,24.943-23.941,24.943
			c-13.214,0-23.942-11.177-23.942-24.943C825.52,256.642,836.248,245.466,849.461,245.466L849.461,245.466z"/>
		
			<path clip-path="url(#SVGID_00000172436823855268047710000017970377372801577642_)" fill-rule="evenodd" clip-rule="evenodd" fill="#08A4DD" d="
			M889.622,323.114c0-7.363-2.808-14.424-7.805-19.631c-4.997-5.207-11.776-8.132-18.843-8.132c-8.69,0-18.335,0-27.025,0
			c-7.067,0-13.845,2.925-18.843,8.132c-4.997,5.206-7.805,12.268-7.805,19.631c0,5.331,0,10.436,0,14.266
			c0,3.66,2.848,6.628,6.362,6.628c15.025,0,52.572,0,67.597,0c3.513,0,6.362-2.967,6.362-6.628
			C889.622,333.55,889.622,328.445,889.622,323.114L889.622,323.114z"/>
		
			<path clip-path="url(#SVGID_00000172436823855268047710000017970377372801577642_)" fill-rule="evenodd" clip-rule="evenodd" fill="#08A4DD" d="
			M425.439,442.988c-11.178-2.036-22.611-2.036-33.789,0l-2.117,22.913c-7.14,1.895-13.983,4.848-20.319,8.768l-17.048-14.643
			c-9.286,6.795-17.37,15.217-23.892,24.891l14.055,17.762c-3.763,6.6-6.597,13.729-8.416,21.169l-21.994,2.205
			c-1.955,11.646-1.955,23.556,0,35.202l21.994,2.205c1.819,7.44,4.653,14.568,8.416,21.169l-14.055,17.762
			c6.522,9.674,14.606,18.096,23.892,24.891l17.048-14.643c6.336,3.92,13.178,6.873,20.319,8.768l2.117,22.914
			c11.178,2.036,22.611,2.036,33.789,0l2.116-22.914c7.141-1.895,13.984-4.848,20.319-8.768l17.049,14.643
			c9.286-6.795,17.37-15.217,23.893-24.891l-14.056-17.762c3.763-6.601,6.598-13.729,8.416-21.169l21.994-2.205
			c1.954-11.646,1.954-23.556,0-35.202l-21.994-2.205c-1.819-7.44-4.653-14.569-8.416-21.169l14.056-17.762
			c-6.522-9.674-14.606-18.096-23.893-24.891l-17.049,14.643c-6.335-3.92-13.178-6.873-20.319-8.768L425.439,442.988
			L425.439,442.988z M408.544,503.485c21.28,0,38.556,17.999,38.556,40.169c0,22.169-17.276,40.168-38.556,40.168
			c-21.279,0-38.556-17.999-38.556-40.168C369.988,521.484,387.264,503.485,408.544,503.485L408.544,503.485z"/>
		
			<path clip-path="url(#SVGID_00000172436823855268047710000017970377372801577642_)" fill-rule="evenodd" clip-rule="evenodd" fill="#FFFFFF" d="
			M408.544,482.668c-32.308,0-58.538,27.327-58.538,60.986c0,33.659,26.23,60.986,58.538,60.986
			c32.308,0,58.538-27.327,58.538-60.986C467.082,509.995,440.852,482.668,408.544,482.668L408.544,482.668z M408.544,486.561
			c30.246,0,54.801,25.583,54.801,57.093c0,31.51-24.556,57.093-54.801,57.093c-30.246,0-54.801-25.583-54.801-57.093
			C353.743,512.143,378.298,486.561,408.544,486.561L408.544,486.561z"/>
		
			<path clip-path="url(#SVGID_00000172436823855268047710000017970377372801577642_)" fill-rule="evenodd" clip-rule="evenodd" fill="#F69B6E" d="
			M506.517,321.67c-6.6-1.202-13.352-1.202-19.952,0l-1.25,13.53c-4.217,1.119-8.257,2.863-11.999,5.178l-10.067-8.647
			c-5.484,4.013-10.257,8.986-14.109,14.698l8.3,10.488c-2.222,3.898-3.896,8.107-4.97,12.5l-12.987,1.302
			c-1.154,6.877-1.154,13.91,0,20.787l12.987,1.302c1.074,4.393,2.748,8.602,4.97,12.5l-8.3,10.488
			c3.852,5.713,8.625,10.686,14.109,14.698l10.067-8.647c3.741,2.315,7.782,4.059,11.999,5.178l1.25,13.53
			c6.6,1.202,13.352,1.202,19.952,0l1.25-13.53c4.217-1.119,8.257-2.863,11.999-5.178l10.067,8.647
			c5.484-4.013,10.257-8.986,14.108-14.698l-8.3-10.488c2.222-3.898,3.896-8.107,4.97-12.5l12.987-1.302
			c1.154-6.876,1.154-13.91,0-20.787l-12.987-1.302c-1.074-4.393-2.748-8.603-4.97-12.5l8.3-10.488
			c-3.851-5.713-8.625-10.686-14.108-14.698l-10.067,8.647c-3.741-2.315-7.782-4.059-11.999-5.178L506.517,321.67L506.517,321.67z
			 M496.541,357.395c12.566,0,22.768,10.629,22.768,23.72c0,13.091-10.202,23.72-22.768,23.72c-12.566,0-22.768-10.629-22.768-23.72
			C473.773,368.023,483.975,357.395,496.541,357.395L496.541,357.395z"/>
		
			<path clip-path="url(#SVGID_00000172436823855268047710000017970377372801577642_)" fill-rule="evenodd" clip-rule="evenodd" fill="#1E3062" d="
			M496.541,345.102c-19.078,0-34.567,16.137-34.567,36.013s15.489,36.013,34.567,36.013c19.078,0,34.567-16.137,34.567-36.013
			S515.619,345.102,496.541,345.102L496.541,345.102z M496.541,347.401c17.86,0,32.36,15.107,32.36,33.714
			c0,18.607-14.5,33.713-32.36,33.713c-17.86,0-32.36-15.107-32.36-33.713C464.18,362.507,478.681,347.401,496.541,347.401
			L496.541,347.401z"/>
		
			<path clip-path="url(#SVGID_00000172436823855268047710000017970377372801577642_)" fill-rule="evenodd" clip-rule="evenodd" fill="#F69B6E" d="
			M560.874,449.464c-4.336-0.79-8.772-0.79-13.109,0l-0.821,8.89c-2.771,0.735-5.425,1.881-7.883,3.402l-6.614-5.681
			c-3.603,2.636-6.739,5.904-9.27,9.657l5.453,6.891c-1.46,2.561-2.56,5.327-3.265,8.213l-8.533,0.856
			c-0.758,4.518-0.758,9.139,0,13.657l8.533,0.856c0.705,2.886,1.805,5.652,3.265,8.213l-5.453,6.891
			c2.53,3.753,5.667,7.021,9.27,9.657l6.614-5.681c2.458,1.521,5.113,2.667,7.883,3.402l0.821,8.889c4.337,0.79,8.772,0.79,13.109,0
			l0.821-8.889c2.77-0.735,5.425-1.881,7.883-3.402l6.614,5.681c3.603-2.636,6.739-5.904,9.27-9.657l-5.453-6.891
			c1.46-2.561,2.56-5.327,3.266-8.213l8.532-0.856c0.758-4.518,0.758-9.139,0-13.657l-8.532-0.856
			c-0.706-2.886-1.806-5.652-3.266-8.213l5.453-6.891c-2.53-3.753-5.667-7.021-9.27-9.657l-6.614,5.681
			c-2.458-1.521-5.113-2.667-7.883-3.402L560.874,449.464L560.874,449.464z M554.32,472.935c8.256,0,14.959,6.983,14.959,15.584
			c0,8.601-6.703,15.584-14.959,15.584c-8.256,0-14.958-6.983-14.958-15.584C539.362,479.918,546.064,472.935,554.32,472.935
			L554.32,472.935z"/>
		
			<path clip-path="url(#SVGID_00000172436823855268047710000017970377372801577642_)" fill-rule="evenodd" clip-rule="evenodd" fill="#1E3062" d="
			M554.32,464.858c-12.534,0-22.711,10.602-22.711,23.66c0,13.059,10.176,23.66,22.711,23.66c12.534,0,22.711-10.602,22.711-23.66
			C577.031,475.46,566.854,464.858,554.32,464.858L554.32,464.858z M554.32,466.368c11.734,0,21.261,9.925,21.261,22.15
			s-9.527,22.15-21.261,22.15s-21.261-9.925-21.261-22.15S542.586,466.368,554.32,466.368L554.32,466.368z"/>
		
			<path clip-path="url(#SVGID_00000172436823855268047710000017970377372801577642_)" fill-rule="evenodd" clip-rule="evenodd" fill="#F69B6E" d="
			M359.347,285.088c0-7.814-6.08-14.148-13.58-14.148c-18.196,0-50.301,0-68.498,0c-7.5,0-13.58,6.334-13.58,14.148
			c0,18.957,0,52.405,0,71.362c0,7.813,6.08,14.148,13.58,14.148c18.197,0,50.302,0,68.498,0c7.5,0,13.58-6.334,13.58-14.148
			C359.347,337.493,359.347,304.045,359.347,285.088L359.347,285.088z"/>
		
			<path clip-path="url(#SVGID_00000172436823855268047710000017970377372801577642_)" fill-rule="evenodd" clip-rule="evenodd" fill="#FFFFFF" d="
			M339.849,299.789c0-0.655-0.25-1.284-0.695-1.747c-0.445-0.464-1.048-0.724-1.677-0.724c-9.229,0-42.689,0-51.918,0
			c-0.629,0-1.233,0.26-1.677,0.724c-0.445,0.463-0.695,1.092-0.695,1.747c0,0,0,0.001,0,0.001c0,0.655,0.25,1.284,0.695,1.747
			c0.445,0.463,1.048,0.724,1.677,0.724c9.229,0,42.689,0,51.918,0c0.629,0,1.233-0.26,1.677-0.724
			c0.445-0.463,0.695-1.092,0.695-1.747C339.849,299.79,339.849,299.789,339.849,299.789L339.849,299.789z"/>
		
			<path clip-path="url(#SVGID_00000172436823855268047710000017970377372801577642_)" fill-rule="evenodd" clip-rule="evenodd" fill="#FFFFFF" d="
			M339.849,320.768c0-0.655-0.25-1.284-0.695-1.748c-0.445-0.463-1.048-0.724-1.677-0.724c-9.229,0-42.689,0-51.918,0
			c-0.629,0-1.233,0.26-1.677,0.724c-0.445,0.464-0.695,1.092-0.695,1.748c0,0,0,0.001,0,0.001c0,0.656,0.25,1.284,0.695,1.747
			c0.445,0.463,1.048,0.724,1.677,0.724c9.229,0,42.689,0,51.918,0c0.629,0,1.233-0.26,1.677-0.724
			C339.599,322.053,339.849,321.425,339.849,320.768C339.849,320.769,339.849,320.768,339.849,320.768L339.849,320.768z"/>
		
			<path clip-path="url(#SVGID_00000172436823855268047710000017970377372801577642_)" fill-rule="evenodd" clip-rule="evenodd" fill="#FFFFFF" d="
			M339.849,341.747c0-0.656-0.25-1.284-0.695-1.748c-0.445-0.463-1.048-0.724-1.677-0.724c-9.229,0-42.689,0-51.918,0
			c-0.629,0-1.233,0.26-1.677,0.724c-0.445,0.463-0.695,1.092-0.695,1.748c0,0,0,0,0,0.001c0,0.656,0.25,1.284,0.695,1.748
			c0.445,0.463,1.048,0.724,1.677,0.724c9.229,0,42.689,0,51.918,0c0.629,0,1.233-0.26,1.677-0.724
			C339.599,343.033,339.849,342.404,339.849,341.747C339.849,341.748,339.849,341.748,339.849,341.747L339.849,341.747z"/>
		
			<path clip-path="url(#SVGID_00000172436823855268047710000017970377372801577642_)" fill-rule="evenodd" clip-rule="evenodd" fill="#9FC9D0" d="
			M780.896,415.115c0-7.392-5.752-13.384-12.848-13.384c-17.214,0-47.587,0-64.801,0c-7.095,0-12.847,5.992-12.847,13.384
			c0,17.934,0,49.577,0,67.511c0,7.392,5.752,13.385,12.847,13.385c17.214,0,47.587,0,64.801,0c7.096,0,12.848-5.992,12.848-13.385
			C780.896,464.693,780.896,433.049,780.896,415.115L780.896,415.115z"/>
		
			<polygon clip-path="url(#SVGID_00000172436823855268047710000017970377372801577642_)" fill-rule="evenodd" clip-rule="evenodd" fill="#243A9D" points="
			735.648,420.123 761.921,440.48 761.921,477.619 741.353,477.619 741.353,463.766 729.942,463.766 729.942,477.619 
			709.374,477.619 709.374,440.48 735.648,420.123 		"/>
		
			<path clip-path="url(#SVGID_00000172436823855268047710000017970377372801577642_)" fill-rule="evenodd" clip-rule="evenodd" fill="#9FC9D0" d="
			M263.689,590.073c0-7.64-5.945-13.833-13.278-13.833c-17.792,0-87.769,0-105.56,0c-7.333,0-13.278,6.193-13.278,13.833
			c0,18.535,0,51.239,0,69.774c0,7.64,5.945,13.833,13.278,13.833c17.791,0,87.768,0,105.56,0c7.333,0,13.278-6.193,13.278-13.833
			C263.689,641.311,263.689,608.608,263.689,590.073L263.689,590.073z"/>
		
			<polygon clip-path="url(#SVGID_00000172436823855268047710000017970377372801577642_)" fill-rule="evenodd" clip-rule="evenodd" fill="#FFFFFF" points="
			158.023,624.959 177.733,604.424 173.556,600.072 149.668,624.959 173.556,649.846 177.733,645.494 158.023,624.959 		"/>
		
			<polygon clip-path="url(#SVGID_00000172436823855268047710000017970377372801577642_)" fill-rule="evenodd" clip-rule="evenodd" fill="#FFFFFF" points="
			237.239,624.959 217.528,604.424 221.706,600.072 245.594,624.959 221.706,649.846 217.528,645.494 237.239,624.959 		"/>
		
			<polygon clip-path="url(#SVGID_00000172436823855268047710000017970377372801577642_)" fill-rule="evenodd" clip-rule="evenodd" fill="#FFFFFF" points="
			189.203,590.727 183.633,592.768 206.058,659.191 211.628,657.15 189.203,590.727 		"/>
		
			<path clip-path="url(#SVGID_00000172436823855268047710000017970377372801577642_)" fill-rule="evenodd" clip-rule="evenodd" fill="#F69B6E" d="
			M893.433,610.658c0-10.305-8.019-18.658-17.91-18.658c-58.644,0-244.507,0-303.151,0c-9.891,0-17.909,8.354-17.909,18.658
			c0,45.033,0,159.276,0,204.309c0,10.305,8.018,18.658,17.909,18.658c58.644,0,244.507,0,303.151,0
			c9.891,0,17.91-8.354,17.91-18.658C893.433,769.934,893.433,655.691,893.433,610.658L893.433,610.658z"/>
		
			<polygon clip-path="url(#SVGID_00000172436823855268047710000017970377372801577642_)" fill-rule="evenodd" clip-rule="evenodd" fill="#ED7D65" points="
			684.086,650.857 787.023,833.625 581.149,833.625 684.086,650.857 		"/>
		
			<polygon clip-path="url(#SVGID_00000172436823855268047710000017970377372801577642_)" fill-rule="evenodd" clip-rule="evenodd" fill="#ED7D65" points="
			780.926,681.246 866.748,833.625 695.105,833.625 780.926,681.246 		"/>
		
			<path clip-path="url(#SVGID_00000172436823855268047710000017970377372801577642_)" fill-rule="evenodd" clip-rule="evenodd" fill="#ED7D65" d="
			M751.866,620.101c9.664,0,17.51,8.174,17.51,18.242s-7.846,18.242-17.51,18.242c-9.664,0-17.51-8.174-17.51-18.242
			S742.202,620.101,751.866,620.101L751.866,620.101z"/>
		
			<path clip-path="url(#SVGID_00000172436823855268047710000017970377372801577642_)" fill-rule="evenodd" clip-rule="evenodd" fill="#08A4DD" d="
			M120.117,953.478C96.422,929.252,1.009,748.531,42.721,729.014c24.959-11.679,28.031,112.533,85.248,216.21
			C154.187,992.731,122.771,956.191,120.117,953.478L120.117,953.478z"/>
		
			<path clip-path="url(#SVGID_00000172436823855268047710000017970377372801577642_)" fill-rule="evenodd" clip-rule="evenodd" fill="#FFFFFF" d="
			M138.789,969.622c0,0-30.634-38.01-59.698-114.868c-12.946-34.236-25.578-76.17-35.057-125.877
			c-0.042-0.226-0.253-0.374-0.47-0.329c-0.217,0.044-0.358,0.264-0.316,0.49c9.258,49.835,21.712,91.9,34.517,126.257
			c28.832,77.365,59.453,115.696,59.453,115.696c0.362,0.452,1.009,0.512,1.442,0.134
			C139.094,970.748,139.152,970.074,138.789,969.622L138.789,969.622z"/>
		
			<path clip-path="url(#SVGID_00000172436823855268047710000017970377372801577642_)" fill-rule="evenodd" clip-rule="evenodd" fill="#F69B6E" d="
			M135.605,743.24c-16.049-19.987-13.888-27.197-13.888-27.197s-13.029,18.017-22.274,67.082l17.711,6.375l-19.092,1.329
			c-2.351,15.66-3.319,32.884-1.602,50.766c1.858,19.347,6.445,39.238,13.777,57.645l29.18-4.582l-22.557,19.291
			c11.358,22.424,27.255,41.45,47.71,52.735c24.601,0,46.193,2.714,85.833,2.714c0,0,35.869-43.634,12.302-97.541l-24.235,6.041
			l21.604-11.606c-8.427-16.571-22.638-33.984-45.302-51.303c-8.127-6.211-15.548-12.065-22.316-17.576l-15.772,6.411l10.171-11.015
			c-23.998-19.923-39.207-35.173-48.834-46.628l-5.128,3.53L135.605,743.24L135.605,743.24z"/>
		
			<path clip-path="url(#SVGID_00000172436823855268047710000017970377372801577642_)" fill-rule="evenodd" clip-rule="evenodd" fill="#FFFFFF" d="
			M247.635,969.906c0,0-5.05-21.38-22.803-52.346c-8.148-14.213-18.944-30.437-33.161-47.531
			c-17.959-21.774-45.149-53.958-60.876-86.881c-11.057-23.148-16.461-46.646-9.079-67.105c-6.761,20.503-0.793,43.67,10.723,66.371
			c16.414,32.359,44.08,63.761,62.393,85.006c14.667,17.157,25.868,33.473,34.319,47.802c15.083,25.575,21.472,44.851,23.371,51.316
			c-0.788,1.579-2.12,2.859-2.12,2.859s-1.408,0.559-2.623,0.958C247.721,970.212,247.672,970.062,247.635,969.906L247.635,969.906z
			"/>
		
			<path clip-path="url(#SVGID_00000172436823855268047710000017970377372801577642_)" fill-rule="evenodd" clip-rule="evenodd" fill="#9FC9D0" d="
			M382.667,960.992c0,0-45.585-69.975-39.08-141.172c2.745-30.038,14.793-60.285,43.481-85.571c0.432-0.378,0.488-1.051,0.125-1.502
			c-0.364-0.45-1.01-0.509-1.442-0.13c-29.4,25.572-41.838,56.335-44.827,86.93C333.868,891.76,379.664,963.1,379.664,963.1
			c0.558,0.863,1.685,1.092,2.513,0.511C383.006,963.028,383.226,961.855,382.667,960.992L382.667,960.992z"/>
		
			<path clip-path="url(#SVGID_00000172436823855268047710000017970377372801577642_)" fill-rule="evenodd" clip-rule="evenodd" fill="#9FC9D0" d="
			M381.747,959.275c0,0,2.714-5.088,7.304-12.118c1.558-2.385,3.341-4.947,5.238-7.688c1.406-2.031,2.895-4.124,4.404-6.28
			c1.443-2.061,2.861-4.187,4.406-6.268c3.292-4.433,6.813-8.708,11.082-12.19c0.334-0.215,0.438-0.672,0.231-1.02
			c-0.206-0.348-0.645-0.456-0.979-0.241c-5.151,2.548-9.859,5.911-14.062,9.858c-1.712,1.608-3.301,3.306-4.774,5.078
			c-1.003,1.207-1.945,2.445-2.795,3.72c-2.281,3.422-4.128,6.911-5.624,10.178c-4.23,9.234-5.763,16.444-5.763,16.444
			c-0.139,0.382,0.045,0.811,0.412,0.956C381.196,959.85,381.608,959.658,381.747,959.275L381.747,959.275z"/>
		
			<path clip-path="url(#SVGID_00000172436823855268047710000017970377372801577642_)" fill-rule="evenodd" clip-rule="evenodd" fill="#9FC9D0" d="
			M374.772,951.063c0,0,0.251-6.016,4.555-15.461c1.28-2.81,2.934-5.866,4.975-9.275c1.252-2.091,2.687-4.264,4.204-6.623
			c1.342-2.088,2.723-4.317,4.279-6.636c2.079-3.098,4.334-6.348,6.977-9.774c2.348-3.044,4.814-6.183,7.715-9.435
			c-3.645,2.398-6.901,4.713-9.889,7.147c-2.242,1.826-4.253,3.653-6.126,5.504c-2.087,2.062-3.953,4.101-5.596,6.167
			c-1.21,1.521-2.289,3.051-3.236,4.577c-1.598,2.576-2.855,5.115-3.894,7.533c-0.795,1.851-1.439,3.625-1.965,5.339
			c-1.526,4.978-2.169,9.177-2.388,12.542C374.031,948.088,374.772,951.063,374.772,951.063L374.772,951.063z"/>
		
			<path clip-path="url(#SVGID_00000172436823855268047710000017970377372801577642_)" fill-rule="evenodd" clip-rule="evenodd" fill="#9FC9D0" d="
			M366.288,934.251c0,0,1.651-8.203,7.195-18.806c0.778-1.489,1.621-3.01,2.52-4.603c1.215-2.154,2.595-4.35,4.063-6.645
			c0.905-1.414,1.829-2.869,2.805-4.348c1.388-2.103,2.823-4.259,4.465-6.407c1.554-2.033,3.191-4.053,5.025-6.081
			c2.583-2.857,5.353-5.657,8.624-8.361c-3.908,1.772-7.395,3.696-10.61,5.894c-2.36,1.613-4.482,3.33-6.467,5.133
			c-2.141,1.946-4.064,3.958-5.768,6.06c-1.21,1.492-2.298,3.027-3.254,4.586c-1.545,2.518-2.782,5.072-3.816,7.557
			c-0.755,1.816-1.386,3.584-1.901,5.319C365.635,925.469,366.288,934.251,366.288,934.251L366.288,934.251z"/>
		
			<path clip-path="url(#SVGID_00000172436823855268047710000017970377372801577642_)" fill-rule="evenodd" clip-rule="evenodd" fill="#9FC9D0" d="
			M359.083,917.537c0,0,2.22-8.113,8.123-18.158c0.842-1.433,1.747-2.892,2.706-4.413c1.306-2.072,2.773-4.165,4.325-6.334
			c0.964-1.347,1.947-2.728,2.982-4.12c1.484-1.996,3.014-4.027,4.755-6.016c1.661-1.898,3.406-3.76,5.355-5.591
			c2.77-2.601,5.734-5.089,9.214-7.379c-4.027,1.299-7.638,2.854-10.997,4.749c-2.455,1.385-4.677,2.921-6.769,4.571
			c-2.238,1.765-4.262,3.637-6.075,5.627c-1.275,1.4-2.432,2.859-3.46,4.356c-1.645,2.393-2.99,4.857-4.133,7.275
			c-0.827,1.749-1.532,3.465-2.121,5.159C359.009,908.692,359.083,917.537,359.083,917.537L359.083,917.537z"/>
		
			<path clip-path="url(#SVGID_00000172436823855268047710000017970377372801577642_)" fill-rule="evenodd" clip-rule="evenodd" fill="#9FC9D0" d="
			M351.374,895.538c0,0,3.515-7.276,10.916-16.127c1.043-1.248,2.148-2.517,3.313-3.845c1.582-1.804,3.316-3.618,5.134-5.512
			c1.127-1.174,2.272-2.385,3.464-3.609c1.705-1.752,3.449-3.546,5.376-5.292c1.841-1.666,3.745-3.3,5.826-4.899
			c2.972-2.282,6.086-4.458,9.649-6.424c-4.019,0.935-7.687,2.113-11.17,3.621c-2.522,1.092-4.847,2.333-7.07,3.687
			c-2.371,1.444-4.561,2.994-6.57,4.675c-1.414,1.183-2.726,2.43-3.923,3.728c-1.921,2.082-3.571,4.26-5.029,6.411
			c-1.061,1.566-2,3.11-2.828,4.647C352.78,887.143,351.374,895.538,351.374,895.538L351.374,895.538z"/>
		
			<path clip-path="url(#SVGID_00000172436823855268047710000017970377372801577642_)" fill-rule="evenodd" clip-rule="evenodd" fill="#9FC9D0" d="
			M346.972,880.351c0,0,3.381-7.165,10.738-15.613c1.037-1.191,2.138-2.394,3.302-3.654c1.578-1.706,3.313-3.408,5.141-5.183
			c1.13-1.096,2.283-2.227,3.486-3.366c1.719-1.626,3.482-3.291,5.438-4.894c1.859-1.524,3.786-3.013,5.9-4.457
			c2.993-2.046,6.137-3.982,9.738-5.696c-4.001,0.648-7.641,1.558-11.102,2.806c-2.535,0.914-4.869,1.992-7.1,3.19
			c-2.4,1.288-4.611,2.698-6.64,4.25c-1.436,1.098-2.767,2.268-3.981,3.494c-1.954,1.974-3.63,4.059-5.104,6.132
			c-1.074,1.509-2.023,3.003-2.856,4.496C348.238,872.054,346.972,880.351,346.972,880.351L346.972,880.351z"/>
		
			<path clip-path="url(#SVGID_00000172436823855268047710000017970377372801577642_)" fill-rule="evenodd" clip-rule="evenodd" fill="#9FC9D0" d="
			M342.393,851.407c0,0,4.271-5.581,12.275-11.44c1.125-0.823,2.306-1.64,3.552-2.499c1.684-1.161,3.505-2.28,5.418-3.454
			c1.181-0.724,2.384-1.479,3.634-2.231c1.786-1.076,3.609-2.187,5.601-3.201c1.896-0.966,3.834-1.889,5.942-2.737
			c2.99-1.202,6.071-2.282,9.549-3.073c-3.637-0.346-6.98-0.377-10.254-0.062c-2.409,0.232-4.661,0.664-6.854,1.226
			c-2.364,0.606-4.577,1.369-6.658,2.305c-1.473,0.663-2.865,1.419-4.159,2.255c-2.084,1.345-3.934,2.857-5.597,4.404
			c-1.212,1.127-2.302,2.268-3.296,3.429c-2.705,3.159-4.685,6.158-6.134,8.706C343.238,848.861,342.393,851.407,342.393,851.407
			L342.393,851.407z"/>
		
			<path clip-path="url(#SVGID_00000172436823855268047710000017970377372801577642_)" fill-rule="evenodd" clip-rule="evenodd" fill="#9FC9D0" d="
			M341.728,827.309c0,0,3.786-3.058,10.527-6.573c2.153-1.123,4.574-2.232,7.274-3.418c1.726-0.758,3.565-1.481,5.473-2.302
			c1.755-0.755,3.541-1.604,5.445-2.402c2.679-1.121,5.439-2.239,8.49-3.201c2.868-0.905,5.761-1.76,8.992-2.366
			c-3.319-0.531-6.386-0.817-9.45-0.818c-2.226-0.001-4.322,0.167-6.392,0.44c-2.22,0.294-4.32,0.716-6.326,1.298
			c-1.42,0.413-2.778,0.911-4.059,1.489c-2.074,0.936-3.956,2.039-5.679,3.181c-1.267,0.84-2.426,1.696-3.497,2.593
			C345.033,821.498,341.728,827.309,341.728,827.309L341.728,827.309z"/>
		
			<path clip-path="url(#SVGID_00000172436823855268047710000017970377372801577642_)" fill-rule="evenodd" clip-rule="evenodd" fill="#9FC9D0" d="
			M343.777,808.359c0,0,2.781-1.425,7.851-3.142c1.845-0.625,3.93-1.185,6.311-1.895c1.917-0.572,3.997-1.114,6.21-1.798
			c0.963-0.297,1.924-0.679,2.923-1.045c1.436-0.526,2.882-1.079,4.423-1.639c3.605-1.31,7.285-2.643,11.595-3.571
			c-2.712-0.532-5.176-0.907-7.707-1.079c-1.82-0.124-3.522-0.118-5.23-0.038c-1.827,0.085-3.551,0.262-5.222,0.576
			c-1.181,0.222-2.317,0.517-3.393,0.886c-1.756,0.601-3.356,1.35-4.834,2.131c-1.1,0.581-2.103,1.176-3.041,1.813
			C346.878,804.166,343.777,808.359,343.777,808.359L343.777,808.359z"/>
		
			<path clip-path="url(#SVGID_00000172436823855268047710000017970377372801577642_)" fill-rule="evenodd" clip-rule="evenodd" fill="#9FC9D0" d="
			M347.566,792.495c0,0,4.371-1.264,12.118-2.447c1.018-0.156,2.065-0.313,3.186-0.515c1.487-0.269,3.063-0.517,4.719-0.874
			c1.01-0.218,2.04-0.49,3.098-0.79c1.508-0.428,3.019-0.943,4.638-1.435c1.541-0.469,3.063-0.949,4.707-1.44
			c2.356-0.704,4.649-1.423,7.233-2.055c-2.647-0.507-5.046-0.911-7.521-1.151c-1.766-0.171-3.416-0.24-5.081-0.247
			c-1.774-0.008-3.45,0.05-5.084,0.235c-1.156,0.131-2.272,0.326-3.337,0.592c-1.745,0.434-3.349,1.01-4.843,1.608
			c-1.12,0.448-2.145,0.914-3.116,1.418C351.072,789.137,347.566,792.495,347.566,792.495L347.566,792.495z"/>
		
			<path clip-path="url(#SVGID_00000172436823855268047710000017970377372801577642_)" fill-rule="evenodd" clip-rule="evenodd" fill="#9FC9D0" d="
			M353.939,775.938c0,0,3.694-0.744,9.424-1.592c0.792-0.117,1.584-0.235,2.433-0.403c1.144-0.227,2.334-0.434,3.554-0.751
			c0.763-0.198,1.525-0.452,2.295-0.726c1.144-0.409,2.242-0.882,3.409-1.351c2.985-1.201,5.761-2.417,8.975-3.132
			c-1.965-0.642-3.761-1.105-5.782-1.418c-1.357-0.21-2.628-0.292-3.975-0.323c-1.362-0.032-2.662,0.013-3.969,0.183
			c-0.883,0.115-1.745,0.295-2.57,0.546c-1.307,0.398-2.516,0.93-3.654,1.492c-0.832,0.411-1.585,0.831-2.31,1.297
			C356.704,773.018,353.939,775.938,353.939,775.938L353.939,775.938z"/>
		
			<path clip-path="url(#SVGID_00000172436823855268047710000017970377372801577642_)" fill-rule="evenodd" clip-rule="evenodd" fill="#9FC9D0" d="
			M363.468,759.2c0,0,2.263-0.361,7.207,0.355c0.581,0.084,1.151,0.195,1.81,0.261c0.833,0.084,1.708,0.225,2.675,0.259
			c0.575,0.02,1.172-0.012,1.794-0.065c0.899-0.076,1.778-0.235,2.77-0.39c2.323-0.362,4.488-0.882,7.378-1.128
			c-1.463-0.994-2.614-1.752-3.992-2.493c-1.001-0.539-1.886-0.915-2.85-1.288c-1.046-0.405-2.004-0.699-2.991-0.893
			c-0.706-0.138-1.396-0.2-2.059-0.188c-1.127,0.021-2.154,0.2-3.103,0.435c-0.747,0.185-1.394,0.388-2.025,0.651
			c-1.514,0.632-2.608,1.208-3.577,1.865C364.217,758.129,363.468,759.2,363.468,759.2L363.468,759.2z"/>
		
			<path clip-path="url(#SVGID_00000172436823855268047710000017970377372801577642_)" fill-rule="evenodd" clip-rule="evenodd" fill="#9FC9D0" d="
			M372.34,747.6c0,0,2.003-0.249,6.145,0.407c0.488,0.077,0.949,0.192,1.499,0.251c0.687,0.073,1.399,0.225,2.19,0.24
			c0.589,0.011,1.196-0.068,1.839-0.144c0.952-0.112,1.839-0.336,2.908-0.518c1.746-0.298,3.207-0.705,5.294-0.903
			c-1.197-1.03-2.083-1.748-3.248-2.516c-0.843-0.555-1.574-0.913-2.408-1.298c-0.898-0.414-1.715-0.694-2.582-0.89
			c-0.612-0.138-1.216-0.188-1.797-0.177c-0.637,0.013-1.237,0.106-1.806,0.245c-0.998,0.243-1.844,0.505-2.631,0.894
			c-1.293,0.639-2.177,1.208-2.988,1.882C372.909,746.607,372.34,747.6,372.34,747.6L372.34,747.6z"/>
		
			<path clip-path="url(#SVGID_00000172436823855268047710000017970377372801577642_)" fill-rule="evenodd" clip-rule="evenodd" fill="#9FC9D0" d="
			M383.653,735.908c0,0,1.41-0.693,5.911-0.3c0.478,0.042,0.937,0.125,1.49,0.145c0.678,0.024,1.396,0.108,2.2,0.066
			c0.471-0.025,0.958-0.107,1.466-0.213c0.742-0.154,1.44-0.394,2.259-0.651c1.928-0.605,3.582-1.346,6.058-2.02
			c-1.334-0.8-2.283-1.369-3.507-1.954c-0.889-0.425-1.627-0.691-2.467-0.967c-0.917-0.301-1.724-0.498-2.567-0.605
			c-0.607-0.078-1.193-0.073-1.746-0.015c-0.625,0.066-1.198,0.208-1.734,0.385c-0.984,0.324-1.793,0.646-2.523,1.08
			c-1.295,0.769-2.124,1.399-2.837,2.138C383.853,734.865,383.653,735.908,383.653,735.908L383.653,735.908z"/>
		
			<path clip-path="url(#SVGID_00000172436823855268047710000017970377372801577642_)" fill-rule="evenodd" clip-rule="evenodd" fill="#9FC9D0" d="
			M379.86,739.53c0,0,0.212-2.393,1.155-6.687c0.118-0.538,0.255-1.048,0.352-1.647c0.123-0.764,0.298-1.548,0.371-2.407
			c0.044-0.52,0.035-1.057,0.013-1.61c-0.032-0.83-0.158-1.615-0.249-2.505c-0.23-2.245-0.602-4.198-0.547-6.827
			c-1.09,1.19-1.867,2.123-2.7,3.355c-0.588,0.87-0.985,1.654-1.411,2.547c-0.447,0.935-0.767,1.809-1.008,2.745
			c-0.165,0.644-0.256,1.289-0.274,1.918c-0.029,1.031,0.09,1.994,0.273,2.902c0.139,0.691,0.294,1.288,0.511,1.89
			c0.5,1.385,0.952,2.393,1.492,3.348C379.032,738.667,379.86,739.53,379.86,739.53L379.86,739.53z"/>
		
			<path clip-path="url(#SVGID_00000172436823855268047710000017970377372801577642_)" fill-rule="evenodd" clip-rule="evenodd" fill="#9FC9D0" d="
			M369.242,751.348c0,0-0.279-3.396-0.159-8.967c0.016-0.742,0.042-1.48,0.026-2.29c-0.021-1.07-0.003-2.183-0.084-3.355
			c-0.05-0.721-0.151-1.454-0.268-2.203c-0.172-1.104-0.417-2.174-0.642-3.335c-0.558-2.877-1.186-5.58-1.345-8.843
			c-0.958,1.763-1.695,3.303-2.352,5.084c-0.458,1.245-0.764,2.4-1.045,3.638c-0.291,1.287-0.482,2.507-0.562,3.752
			c-0.054,0.856-0.037,1.699,0.053,2.511c0.146,1.309,0.439,2.529,0.781,3.675c0.254,0.85,0.523,1.616,0.851,2.358
			C366.839,748.667,369.242,751.348,369.242,751.348L369.242,751.348z"/>
		
			<path clip-path="url(#SVGID_00000172436823855268047710000017970377372801577642_)" fill-rule="evenodd" clip-rule="evenodd" fill="#9FC9D0" d="
			M361.218,762.641c0,0-0.862-3.315-1.646-8.713c-0.228-1.569-0.412-3.237-0.643-5.094c-0.133-1.071-0.226-2.178-0.414-3.319
			c-0.232-1.406-0.529-2.848-0.831-4.342c-0.438-2.168-0.972-4.304-1.313-6.663c-0.352-2.429-0.693-4.736-0.714-7.364
			c-1.056,2.19-1.85,4.211-2.473,6.425c-0.44,1.561-0.707,3.046-0.915,4.589c-0.217,1.608-0.312,3.152-0.273,4.694
			c0.027,1.063,0.135,2.103,0.323,3.104c0.3,1.594,0.76,3.082,1.276,4.473c0.377,1.015,0.774,1.946,1.228,2.831
			C357.963,759.39,361.218,762.641,361.218,762.641L361.218,762.641z"/>
		
			<path clip-path="url(#SVGID_00000172436823855268047710000017970377372801577642_)" fill-rule="evenodd" clip-rule="evenodd" fill="#9FC9D0" d="
			M350.826,783.158c0,0-2.38-3.575-4.629-10.127c-0.702-2.047-1.322-4.34-1.974-6.935c-0.408-1.629-0.758-3.366-1.193-5.193
			c-0.395-1.661-0.877-3.367-1.294-5.198c-0.581-2.543-1.162-5.168-1.577-8.102c-0.384-2.71-0.745-5.43-0.865-8.501
			c-0.989,2.975-1.726,5.687-2.226,8.444c-0.37,2.046-0.562,3.971-0.661,5.886c-0.107,2.096-0.07,4.074,0.126,5.983
			c0.141,1.372,0.377,2.69,0.699,3.938c0.53,2.052,1.248,3.921,2.033,5.628c0.585,1.271,1.203,2.426,1.868,3.502
			c1.852,2.997,3.704,5.247,5.36,6.954C349.034,782.054,350.826,783.158,350.826,783.158L350.826,783.158z"/>
		
			<path clip-path="url(#SVGID_00000172436823855268047710000017970377372801577642_)" fill-rule="evenodd" clip-rule="evenodd" fill="#9FC9D0" d="
			M345.709,799.211c0,0-2.778-3.568-6.372-9.233c-1.199-1.89-2.447-3.961-3.767-6.22c-0.492-0.842-0.986-1.701-1.515-2.562
			c-0.508-0.828-1.031-1.663-1.58-2.495c-1.075-1.631-2.184-3.245-3.239-4.973c-2.275-3.728-4.355-7.492-5.544-11.959
			c-0.297,2.891-0.277,5.604,0.063,8.405c0.233,1.928,0.64,3.744,1.154,5.575c0.523,1.865,1.163,3.639,1.948,5.342
			c0.532,1.155,1.138,2.257,1.809,3.287c1.05,1.611,2.226,3.058,3.422,4.385c0.856,0.95,1.711,1.812,2.594,2.605
			C340.619,796.695,345.709,799.211,345.709,799.211L345.709,799.211z"/>
		
			<path clip-path="url(#SVGID_00000172436823855268047710000017970377372801577642_)" fill-rule="evenodd" clip-rule="evenodd" fill="#9FC9D0" d="
			M342.726,815.382c0,0-4.355-3.939-9.893-10.419c-1.874-2.192-3.848-4.637-5.884-7.323c-0.764-1.009-1.531-2.043-2.327-3.087
			c-0.766-1.005-1.543-2.025-2.34-3.05c-1.552-1.997-3.116-4.022-4.6-6.195c-3.136-4.594-5.956-9.454-7.651-15.199
			c0.02,3.719,0.438,7.217,1.259,10.682c0.57,2.408,1.338,4.68,2.244,6.912c0.928,2.29,1.994,4.46,3.218,6.507
			c0.835,1.397,1.746,2.721,2.723,3.953c1.528,1.928,3.184,3.649,4.85,5.215c1.188,1.118,2.374,2.134,3.574,3.06
			C335.907,812.625,342.726,815.382,342.726,815.382L342.726,815.382z"/>
		
			<path clip-path="url(#SVGID_00000172436823855268047710000017970377372801577642_)" fill-rule="evenodd" clip-rule="evenodd" fill="#9FC9D0" d="
			M341.978,836.391c0,0-5.398-1.84-12.549-5.057c-2.508-1.128-5.182-2.405-7.947-3.821c-1.062-0.544-2.129-1.104-3.213-1.654
			c-1.06-0.537-2.126-1.077-3.196-1.61c-2.15-1.069-4.268-2.136-6.28-3.384c-4.63-2.87-8.623-6.229-10.957-11.132
			c0.726,4.693,2.755,8.791,5.72,12.471c1.923,2.386,4.203,4.488,6.74,6.312c1.847,1.327,3.83,2.477,5.875,3.405
			c2.076,0.942,4.212,1.632,6.307,2.203c2.729,0.742,5.337,1.233,7.767,1.566C337.106,836.633,341.978,836.391,341.978,836.391
			L341.978,836.391z"/>
		
			<path clip-path="url(#SVGID_00000172436823855268047710000017970377372801577642_)" fill-rule="evenodd" clip-rule="evenodd" fill="#9FC9D0" d="
			M343.721,862.168c0,0-5.195,0.332-12.474-0.229c-2.494-0.192-5.175-0.496-8.015-0.926c-1.071-0.162-2.153-0.345-3.256-0.513
			c-1.065-0.162-2.142-0.329-3.229-0.491c-2.139-0.317-4.28-0.644-6.438-1.175c-4.625-1.138-9.096-2.779-13.195-6.071
			c1.797,2.828,3.835,5.135,6.207,7.137c1.675,1.414,3.45,2.55,5.324,3.561c1.91,1.031,3.874,1.848,5.897,2.46
			c1.363,0.413,2.746,0.711,4.124,0.891c2.127,0.278,4.232,0.308,6.258,0.211c1.429-0.069,2.796-0.208,4.123-0.427
			C337.7,865.168,343.721,862.168,343.721,862.168L343.721,862.168z"/>
		
			<path clip-path="url(#SVGID_00000172436823855268047710000017970377372801577642_)" fill-rule="evenodd" clip-rule="evenodd" fill="#9FC9D0" d="
			M347.937,883.131c0,0-4.188,0.211-10.44,0.17c-1.902-0.013-3.93-0.056-6.124-0.08c-1.307-0.014-2.645-0.064-4.018-0.022
			c-1.739,0.052-3.512,0.169-5.305,0.283c-2.692,0.171-5.332,0.421-8.028,0.393c-2.976-0.03-5.761-0.139-8.566-0.778
			c2.218,1.597,4.525,2.87,7.122,3.926c1.701,0.692,3.413,1.205,5.207,1.642c1.78,0.434,3.554,0.75,5.357,0.913
			c1.205,0.109,2.409,0.138,3.592,0.079c1.838-0.093,3.617-0.364,5.321-0.697c1.216-0.238,2.362-0.517,3.474-0.849
			C343.004,885.882,347.937,883.131,347.937,883.131L347.937,883.131z"/>
		
			<path clip-path="url(#SVGID_00000172436823855268047710000017970377372801577642_)" fill-rule="evenodd" clip-rule="evenodd" fill="#9FC9D0" d="
			M342.351,849.893c0,0-6.111-1.32-14.27-3.189c-2.93-0.671-6.063-1.464-9.311-2.111c-2.05-0.409-4.135-0.708-6.187-1.034
			c-3.253-0.516-6.368-0.949-9.238-1.706c-3.668-0.968-6.771-2.108-9.031-4.035c1.922,3.221,5.279,6.001,9.596,8.361
			c2.389,1.306,4.998,2.424,7.779,3.305c1.976,0.626,4.021,1.119,6.072,1.433c2.082,0.319,4.157,0.43,6.173,0.482
			c2.644,0.068,5.118-0.021,7.407-0.178C337.892,850.774,342.351,849.893,342.351,849.893L342.351,849.893z"/>
		
			<path clip-path="url(#SVGID_00000172436823855268047710000017970377372801577642_)" fill-rule="evenodd" clip-rule="evenodd" fill="#9FC9D0" d="
			M341.689,825.907c0,0-3.546-2.46-8.554-6.178c-1.558-1.156-3.199-2.398-4.973-3.703c-1.072-0.789-2.147-1.617-3.292-2.382
			c-1.475-0.986-3-1.927-4.515-2.867c-2.362-1.465-4.667-2.799-6.745-4.378c-2.503-1.902-4.629-3.742-6.13-6.044
			c0.524,2.624,1.604,5.138,3.196,7.722c0.964,1.566,2.092,3.016,3.363,4.476c1.204,1.383,2.497,2.688,3.917,3.897
			c0.923,0.786,1.896,1.515,2.908,2.162c1.541,0.986,3.146,1.806,4.732,2.54c1.116,0.516,2.204,0.962,3.295,1.35
			C336.074,825.056,341.689,825.907,341.689,825.907L341.689,825.907z"/>
		
			<path clip-path="url(#SVGID_00000172436823855268047710000017970377372801577642_)" fill-rule="evenodd" clip-rule="evenodd" fill="#9FC9D0" d="
			M345.555,872.807c0,0-5.413,0.153-13.098-0.13c-2.649-0.097-5.512-0.239-8.543-0.43c-1.155-0.073-2.324-0.15-3.51-0.2
			c-1.155-0.049-2.321-0.09-3.493-0.108c-2.337-0.036-4.661-0.045-6.987-0.18c-5.353-0.309-10.416-0.989-14.872-3.193
			c2.303,2.276,4.933,4.111,7.953,5.641c1.941,0.984,3.961,1.754,6.086,2.417c2.076,0.648,4.185,1.152,6.34,1.477
			c1.427,0.215,2.863,0.342,4.286,0.369c2.187,0.041,4.335-0.119,6.404-0.361c1.46-0.171,2.856-0.395,4.211-0.677
			C339.275,875.568,345.555,872.807,345.555,872.807L345.555,872.807z"/>
		
			<path clip-path="url(#SVGID_00000172436823855268047710000017970377372801577642_)" fill-rule="evenodd" clip-rule="evenodd" fill="#9FC9D0" d="
			M350.355,893.586c0,0-5.616,1.557-13.497,3.236c-2.765,0.589-5.754,1.189-8.895,1.768c-1.21,0.223-2.433,0.444-3.662,0.691
			c-1.206,0.242-2.417,0.492-3.623,0.76c-2.438,0.543-4.838,1.089-7.233,1.473c-5.777,0.928-11.179,1.155-15.814-0.843
			c3.376,2.874,7.663,4.573,12.553,5.389c2.955,0.493,6.042,0.625,9.185,0.414c2.266-0.152,4.542-0.495,6.749-1.032
			c2.243-0.545,4.396-1.31,6.455-2.124c2.693-1.065,5.153-2.239,7.383-3.411C346.303,896.571,350.355,893.586,350.355,893.586
			L350.355,893.586z"/>
		
			<path clip-path="url(#SVGID_00000172436823855268047710000017970377372801577642_)" fill-rule="evenodd" clip-rule="evenodd" fill="#9FC9D0" d="
			M355.922,909.196c0,0-5.711,2.135-13.888,4.528c-2.845,0.832-5.938,1.688-9.21,2.527c-1.254,0.321-2.524,0.641-3.803,0.986
			c-1.25,0.337-2.508,0.681-3.765,1.043c-2.514,0.725-5.012,1.45-7.536,2.024c-5.846,1.329-11.501,2.039-16.814,0.773
			c3.069,1.784,6.426,2.929,10.104,3.578c2.351,0.415,4.744,0.569,7.211,0.562c2.396-0.008,4.797-0.186,7.191-0.567
			c1.58-0.251,3.146-0.598,4.67-1.043c2.333-0.68,4.574-1.555,6.708-2.491c1.499-0.658,2.922-1.354,4.281-2.092
			C349.988,914.182,355.922,909.196,355.922,909.196L355.922,909.196z"/>
		
			<path clip-path="url(#SVGID_00000172436823855268047710000017970377372801577642_)" fill-rule="evenodd" clip-rule="evenodd" fill="#9FC9D0" d="
			M362.787,926.467c0,0-4.744,2.666-12.251,5.518c-2.493,0.947-5.243,1.892-8.25,2.819c-1.117,0.345-2.259,0.683-3.424,1.049
			c-1.114,0.35-2.248,0.707-3.396,1.087c-2.217,0.731-4.466,1.503-6.847,2.125c-1.986,0.519-3.967,1.006-6.065,1.38
			c-3.087,0.55-6.165,0.95-9.49,0.956c3.249,1.117,6.367,1.862,9.566,2.263c2.261,0.283,4.446,0.354,6.635,0.296
			c2.284-0.06,4.491-0.278,6.639-0.681c1.485-0.278,2.928-0.653,4.309-1.119c2.187-0.738,4.225-1.669,6.125-2.659
			c1.369-0.714,2.644-1.46,3.842-2.251C358.302,931.878,362.787,926.467,362.787,926.467L362.787,926.467z"/>
		
			<path clip-path="url(#SVGID_00000172436823855268047710000017970377372801577642_)" fill-rule="evenodd" clip-rule="evenodd" fill="#9FC9D0" d="
			M370.102,942.134c0,0-4.626,2.415-11.812,5.215c-2.398,0.934-5.031,1.891-7.89,2.865c-1.068,0.364-2.157,0.727-3.262,1.122
			c-1.061,0.38-2.138,0.772-3.222,1.19c-2.11,0.814-4.23,1.681-6.464,2.422c-1.887,0.626-3.752,1.226-5.721,1.728
			c-2.96,0.754-5.875,1.363-9.011,1.593c3.126,0.88,6.153,1.413,9.286,1.615c2.162,0.139,4.254,0.085,6.364-0.087
			c2.165-0.177,4.263-0.489,6.31-0.972c1.4-0.33,2.762-0.747,4.066-1.248c2.052-0.789,3.965-1.749,5.755-2.754
			c1.286-0.722,2.483-1.469,3.611-2.254C365.754,947.242,370.102,942.134,370.102,942.134L370.102,942.134z"/>
		
			<path clip-path="url(#SVGID_00000172436823855268047710000017970377372801577642_)" fill-rule="evenodd" clip-rule="evenodd" fill="#9FC9D0" d="
			M377.313,955.611c0,0-3.708,2.635-9.246,5.908c-1.897,1.121-3.953,2.276-6.161,3.469c-0.835,0.451-1.682,0.9-2.53,1.381
			c-0.822,0.466,8.91,0.936,9.726,0.07C374.432,960.781,377.313,955.611,377.313,955.611L377.313,955.611z"/>
		
			<path clip-path="url(#SVGID_00000172436823855268047710000017970377372801577642_)" fill-rule="evenodd" clip-rule="evenodd" fill="#CAE7E4" d="
			M300.117,967.771c0,0-5.834,2.611-17.167-0.279c-29.043-7.406-81.876-24.835-89.719-55.029
			c-9.255-35.634,56.853,15.319,52.82-9.244s-65.527-57.517-58.449-77.906c7.078-20.388,49.815,22.854,57.789,12.465
			c7.975-10.39-39.375-60.511-25.993-85.253c13.382-24.741,23.396,17.727,39.216,50.065c15.821,32.338,33.219-12.422,52.648-7.345
			c26.486,6.922-23.889,64.228-10.19,86.794c12.629,20.804,45.194-64.124,52.415-8.07c6.759,52.46-25.001,80.964-41.736,92.133
			C305.979,969.955,300.117,967.771,300.117,967.771L300.117,967.771z"/>
		
			<path clip-path="url(#SVGID_00000172436823855268047710000017970377372801577642_)" fill-rule="evenodd" clip-rule="evenodd" fill="#9FC9D0" d="
			M290.65,943.275c-4.411-0.487-22.235-2.649-39.504-7.436c-9.585-2.658-19-6.12-25.842-10.564
			c-0.203-0.134-0.457-0.086-0.567,0.107c-0.111,0.193-0.036,0.459,0.166,0.593c6.855,4.625,16.335,8.317,26.007,11.192
			c18.441,5.481,37.572,7.986,40.412,8.339c2.732,9.076,4.915,16.395,6.303,21.064c0.191,0.644,2.237,0.36,2.096-0.102
			c-1.856-6.093-5.188-16.987-9.386-30.526c1.815-1.468,17.007-13.922,29.746-29.477c6.193-7.562,11.806-15.854,15.028-23.975
			c0.085-0.208-0.021-0.466-0.235-0.575c-0.215-0.109-0.458-0.029-0.543,0.179c-3.336,7.964-9.05,16.053-15.322,23.412
			c-11.9,13.961-25.815,25.287-29.393,28.119c-6.039-19.455-13.726-43.908-21.357-67.346c-0.35-1.073-0.699-2.144-1.049-3.214
			c0.146-0.068,0.274-0.173,0.37-0.315l31.993-48.002c0.125-0.183,0.069-0.451-0.124-0.599c-0.194-0.148-0.453-0.119-0.578,0.064
			l-32.49,46.318c-8.545-26.084-16.847-50.268-22.498-64.051c-0.091-0.225-0.338-0.351-0.549-0.281
			c-0.212,0.069-0.31,0.308-0.219,0.533c5.954,14.807,14.872,41.592,23.858,69.848c0.964,3.029,1.927,6.074,2.887,9.118
			c-4.848-2.345-23.849-11.652-38.164-20.321c-6.972-4.222-12.83-8.278-15.354-11.302c-0.156-0.19-0.42-0.232-0.591-0.093
			c-0.17,0.139-0.183,0.406-0.028,0.596c2.512,3.13,8.392,7.403,15.42,11.849c16.428,10.393,39.129,21.778,39.129,21.778
			c0.135,0.067,0.276,0.104,0.412,0.114C278.119,901.957,285.326,925.614,290.65,943.275L290.65,943.275z"/>
		
			<path clip-path="url(#SVGID_00000172436823855268047710000017970377372801577642_)" fill-rule="evenodd" clip-rule="evenodd" fill="#F69B6E" d="
			M920.015,969.634c0.197,2.2,2.624-0.255,4.829-0.469c15.331-21.866,49.546-73.015,76.268-130.06
			c16.168-34.514,29.591-71.186,34.454-104.843c0.087-0.592-0.303-1.148-0.872-1.238c-0.569-0.091-1.101,0.316-1.189,0.908
			c-5.024,33.401-18.582,69.737-34.84,103.919C970.518,897.032,934.264,949.752,920.015,969.634L920.015,969.634z"/>
		
			<path clip-path="url(#SVGID_00000172436823855268047710000017970377372801577642_)" fill-rule="evenodd" clip-rule="evenodd" fill="#B5DED9" d="
			M892.36,970.544c0,0-17.311-22.576-7.965-47.703C893.741,897.714,905.219,944.975,892.36,970.544L892.36,970.544z"/>
		
			<path clip-path="url(#SVGID_00000172436823855268047710000017970377372801577642_)" fill-rule="evenodd" clip-rule="evenodd" fill="#F69B6E" d="
			M945.63,935.03c0,0-24.148-38.014-13.444-52.029C942.891,868.986,951.517,908.02,945.63,935.03L945.63,935.03z"/>
		
			<path clip-path="url(#SVGID_00000172436823855268047710000017970377372801577642_)" fill-rule="evenodd" clip-rule="evenodd" fill="#F69B6E" d="
			M965.133,903.493c0,0-22.383-29.211-15.803-43.117C955.909,846.47,970.977,869.511,965.133,903.493L965.133,903.493z"/>
		
			<path clip-path="url(#SVGID_00000172436823855268047710000017970377372801577642_)" fill-rule="evenodd" clip-rule="evenodd" fill="#F69B6E" d="
			M979.784,877.812c0,0-23.14-27.283-12.798-43.499C977.327,818.097,986.732,850.025,979.784,877.812L979.784,877.812z"/>
		
			<path clip-path="url(#SVGID_00000172436823855268047710000017970377372801577642_)" fill-rule="evenodd" clip-rule="evenodd" fill="#F69B6E" d="
			M996.648,845.244c0,0-20.357-21.729-13.395-37.761C990.216,791.452,998.119,824.125,996.648,845.244L996.648,845.244z"/>
		
			<path clip-path="url(#SVGID_00000172436823855268047710000017970377372801577642_)" fill-rule="evenodd" clip-rule="evenodd" fill="#F69B6E" d="
			M1009.178,817.806c0,0-26.559-28.302-16.102-43.559C1003.534,758.991,1008.847,805.117,1009.178,817.806L1009.178,817.806z"/>
		
			<path clip-path="url(#SVGID_00000172436823855268047710000017970377372801577642_)" fill-rule="evenodd" clip-rule="evenodd" fill="#F69B6E" d="
			M1023.662,776.62c0,0-25.854-27.448-18.027-41.705C1013.462,720.66,1022.811,766.042,1023.662,776.62L1023.662,776.62z"/>
		
			<path clip-path="url(#SVGID_00000172436823855268047710000017970377372801577642_)" fill-rule="evenodd" clip-rule="evenodd" fill="#F69B6E" d="
			M1033.315,741.507c0,0-16.617-32.335-3.248-44.713C1043.436,684.416,1045.427,727.026,1033.315,741.507L1033.315,741.507z"/>
		
			<path clip-path="url(#SVGID_00000172436823855268047710000017970377372801577642_)" fill-rule="evenodd" clip-rule="evenodd" fill="#F69B6E" d="
			M1023.662,776.62c0,0,27.844-30.322,37.114-20.897C1070.046,765.147,1036.02,783.756,1023.662,776.62L1023.662,776.62z"/>
		
			<path clip-path="url(#SVGID_00000172436823855268047710000017970377372801577642_)" fill-rule="evenodd" clip-rule="evenodd" fill="#F69B6E" d="
			M1009.178,817.806c0,0,40.273-31.777,44.18-14.179C1057.264,821.226,1021.729,830.005,1009.178,817.806L1009.178,817.806z"/>
		
			<path clip-path="url(#SVGID_00000172436823855268047710000017970377372801577642_)" fill-rule="evenodd" clip-rule="evenodd" fill="#F69B6E" d="
			M996.648,845.244c0,0,40.806-16.804,42.256-0.155C1040.353,861.738,1010.907,856.002,996.648,845.244L996.648,845.244z"/>
		
			<path clip-path="url(#SVGID_00000172436823855268047710000017970377372801577642_)" fill-rule="evenodd" clip-rule="evenodd" fill="#F69B6E" d="
			M979.786,877.805c0,0,30.892-6.337,38.568,4.451C1026.03,893.045,999.576,896.146,979.786,877.805L979.786,877.805z"/>
		
			<path clip-path="url(#SVGID_00000172436823855268047710000017970377372801577642_)" fill-rule="evenodd" clip-rule="evenodd" fill="#F69B6E" d="
			M965.133,903.493c0,0,38.137-2.026,44.641,12.602C1016.278,930.724,973.526,919.261,965.133,903.493L965.133,903.493z"/>
		
			<path clip-path="url(#SVGID_00000172436823855268047710000017970377372801577642_)" fill-rule="evenodd" clip-rule="evenodd" fill="#F69B6E" d="
			M945.63,935.03c0,0,35.326-1.303,44.342,12.119C998.989,960.571,960.279,962.808,945.63,935.03L945.63,935.03z"/>
		
			<path clip-path="url(#SVGID_00000172436823855268047710000017970377372801577642_)" fill-rule="evenodd" clip-rule="evenodd" fill="#08A4DD" d="
			M924.328,748.958c13.192-20.276,10.516-26.807,10.516-26.807s13.823,15.564,26.931,60.539l-15.985,7.71l17.977-0.641
			c3.622,14.414,6.094,30.427,6.114,47.32c0.022,18.277-2.46,37.333-7.643,55.272l-27.707-1.406l22.85,15.815
			c-10.022,25.795-26.25,47.868-49.346,59.757c-23.951,0.251-72.238,3.561-74.787,0.337c-9.316-11.784-29.55-43.655-16.094-85.065
			l23.215,3.258l-21.261-8.723c6.374-16.329,18.081-34.017,37.703-52.452c7.036-6.61,13.444-12.819,19.273-18.64l15.334,4.439
			l-10.514-9.298c20.632-21.002,33.47-36.764,41.431-48.428l5.117,2.796L924.328,748.958L924.328,748.958z"/>
		
			<path clip-path="url(#SVGID_00000172436823855268047710000017970377372801577642_)" fill-rule="evenodd" clip-rule="evenodd" fill="#FFFFFF" d="
			M836.062,965.612c-0.341,1.519,4.368,4.422,5.146,0.795c1.733-8.082,6.005-24.414,15.522-45.614
			c6.328-14.096,14.949-30.335,26.691-47.725c14.816-22.136,37.318-54.919,49.033-87.263c8.236-22.74,11.153-45.25,2.389-63.655
			c8.187,18.508,4.712,40.763-3.993,63.131c-12.408,31.883-35.427,63.982-50.623,85.659c-12.157,17.494-21.149,33.858-27.75,48.094
			C842.502,940.548,837.946,957.222,836.062,965.612L836.062,965.612z"/>
		
			<path clip-path="url(#SVGID_00000172436823855268047710000017970377372801577642_)" fill-rule="evenodd" clip-rule="evenodd" fill="#9FC9D0" d="
			M748.084,966.757c12.274,2.089,36.991-0.886,62.567,0.134c27.44-9.446,58.518-24.896,64.388-47.497
			c9.255-35.634-56.853,15.319-52.82-9.244c4.033-24.562,65.527-57.517,58.449-77.906c-7.078-20.388-49.815,22.854-57.789,12.465
			c-7.974-10.39,39.375-60.511,25.993-85.253c-13.382-24.741-23.396,17.727-39.216,50.065c-15.82,32.338-33.219-12.422-52.648-7.345
			c-26.487,6.922,23.889,64.228,10.19,86.794c-12.629,20.804-45.194-64.124-52.415-8.07
			C709.045,925.43,731.061,952.699,748.084,966.757L748.084,966.757z"/>
		
			<path clip-path="url(#SVGID_00000172436823855268047710000017970377372801577642_)" fill-rule="evenodd" clip-rule="evenodd" fill="#FFFFFF" d="
			M777.621,950.207c4.411-0.487,22.235-2.649,39.504-7.436c9.585-2.658,19-6.12,25.842-10.564c0.202-0.134,0.457-0.086,0.567,0.107
			c0.111,0.193,0.036,0.459-0.166,0.593c-6.855,4.625-16.335,8.317-26.007,11.192c-18.441,5.481-37.572,7.986-40.413,8.339
			c-1.722,5.722-3.227,10.746-4.451,14.847c0.309,0.446-2.837,2.468-2.101,0.063c1.901-6.215,4.492-14.649,7.539-24.475
			c-1.815-1.469-17.007-13.922-29.746-29.477c-6.193-7.562-11.806-15.854-15.028-23.975c-0.085-0.208,0.02-0.466,0.235-0.575
			c0.215-0.109,0.458-0.029,0.543,0.179c3.336,7.964,9.049,16.053,15.322,23.412c11.899,13.961,25.815,25.287,29.393,28.119
			c6.039-19.455,13.726-43.908,21.357-67.346c0.35-1.073,0.699-2.144,1.049-3.214c-0.146-0.068-0.274-0.173-0.37-0.315
			l-31.993-48.002c-0.125-0.183-0.069-0.451,0.124-0.599c0.194-0.148,0.453-0.119,0.578,0.064l32.49,46.318
			c8.545-26.084,16.847-50.268,22.498-64.051c0.091-0.225,0.338-0.35,0.55-0.281c0.212,0.069,0.31,0.308,0.219,0.533
			c-5.954,14.807-14.872,41.592-23.858,69.848c-0.963,3.029-1.927,6.074-2.887,9.118c4.848-2.345,23.849-11.652,38.165-20.321
			c6.971-4.222,12.829-8.278,15.353-11.302c0.156-0.19,0.42-0.231,0.591-0.092c0.17,0.139,0.183,0.406,0.028,0.595
			c-2.512,3.13-8.392,7.403-15.42,11.849c-16.428,10.393-39.129,21.777-39.129,21.777c-0.136,0.067-0.276,0.104-0.413,0.114
			C790.151,908.888,782.944,932.546,777.621,950.207L777.621,950.207z"/>
		
			<path clip-path="url(#SVGID_00000172436823855268047710000017970377372801577642_)" fill-rule="evenodd" clip-rule="evenodd" fill="#CAE7E4" d="
			M712.214,949.606c18.657-24.667,84.575-198.9,44.846-211.464c-23.773-7.518-12.783,104.721-52.832,204.974
			C685.877,989.054,710.124,952.369,712.214,949.606L712.214,949.606z"/>
		
			<path clip-path="url(#SVGID_00000172436823855268047710000017970377372801577642_)" fill-rule="evenodd" clip-rule="evenodd" fill="#9FC9D0" d="
			M697.185,966.391c0,0,23.381-37.917,41.044-110.63c7.868-32.391,14.6-71.677,17.632-117.584c0.013-0.209,0.187-0.367,0.387-0.353
			c0.201,0.014,0.353,0.195,0.339,0.404c-2.818,45.996-9.377,85.378-17.104,117.862c-17.399,73.143-40.732,111.347-40.732,111.347
			c-0.276,0.45-0.852,0.583-1.285,0.294C697.035,967.441,696.909,966.841,697.185,966.391L697.185,966.391z"/>
		
			<path clip-path="url(#SVGID_00000172436823855268047710000017970377372801577642_)" fill-rule="evenodd" clip-rule="evenodd" fill="#08A4DD" d="
			M57.399,968.007c0-2.582,1.098-4.675,2.451-4.675c53.887,0,906.457,0,960.343,0c1.354,0,2.452,2.093,2.452,4.675
			c0,0,0,0.001,0,0.001c0,2.582-1.098,4.674-2.452,4.674c-53.887,0-906.456,0-960.343,0c-1.354,0-2.451-2.093-2.451-4.674
			C57.399,968.008,57.399,968.008,57.399,968.007L57.399,968.007z"/>
	</g>
</g>
</svg>
