<?xml version="1.0" encoding="UTF-8"?><svg id="a" xmlns="http://www.w3.org/2000/svg" viewBox="0 0 1139.91 724.91"><defs><style>.b{fill:#eef7f6;}.b,.c,.d,.e,.f,.g,.h,.i,.j,.k,.l{fill-rule:evenodd;}.c{fill:#1e3062;}.d{fill:#fff;}.e{fill:#f69b6e;}.f{fill:#08a4dd;}.g{fill:#9fc9d0;}.h{fill:#213268;}.i{fill:#243a9d;}.j{fill:#b5ded9;}.k{fill:#cae7e4;}.l{fill:#ed7d65;}</style></defs><g><path class="b" d="M796.3,724.1H46.39c-35.68-72.17-67.32-168.37-28.79-249.69,19.35-40.84,37.66-38.37,58.43-81.19,52.34-107.91-35.49-182.39,10.51-277.49C126.03,34.1,228.11,11.71,238.57,9.57c66.13-13.53,123.98,6.48,143.84,14.91,104.91,44.56,115.82,94.8,244.42,59.5,128.24-35.2,173.73-11.78,209.4,76.54,36.74,90.97-91.65,156.48-25.97,270.97,68.86,120.04,34.45,189.98-13.96,292.59Z"/><path class="b" d="M1087.17,724.91H337.27s-118.13-144.9-28.79-249.69c89.33-104.79,20.05-214.83,88.94-341.48C466.32,7.09,560-22.81,673.28,25.3c66.13,28.08,94.91,58.43,139.35,68.19,44.02,9.66,95.23-6.33,105.06-8.68,36.06-8.63,52.57-18.93,85.51-16.61,10.99,.77,37.59,2.96,63.07,19.97,33.6,22.44,45.63,57.03,51.5,76.73,31.43,105.35-36.71,203.03-35.29,210.6,.2,1.04-11.04,5.08,18.64,56.83,68.86,120.04,34.45,189.98-13.96,292.59Z"/><path class="h" d="M771.19,40.53c0-22.38-18.62-40.53-41.6-40.53H411.94c-22.97,0-41.6,18.14-41.6,40.53V676.02c0,22.38,18.62,40.53,41.6,40.53h317.66c22.97,0,41.6-18.14,41.6-40.53V40.53h0Z"/><polygon class="i" points="750.14 70.94 391.39 70.94 391.39 645.6 750.14 645.6 750.14 70.94 750.14 70.94"/><path class="i" d="M617.47,91.51c0-2.71-2.2-4.91-4.91-4.91h-88.44c-2.71,0-4.91,2.2-4.91,4.91s2.2,4.91,4.91,4.91h88.44c2.71,0,4.91-2.2,4.91-4.91h0Z"/><path class="k" d="M1005.64,149.64c33.14,0,60.05,26.91,60.05,60.05s-26.91,60.05-60.05,60.05-60.05-26.91-60.05-60.05,26.91-60.05,60.05-60.05h0Z"/><path class="f" d="M1005.64,164.55c11.57,0,20.97,9.4,20.97,20.97s-9.39,20.97-20.97,20.97-20.97-9.4-20.97-20.97,9.39-20.97,20.97-20.97h0Z"/><path class="f" d="M1040.81,229.82c0-6.19-2.46-12.13-6.84-16.5-4.38-4.38-10.31-6.84-16.5-6.84h-23.67c-6.19,0-12.13,2.46-16.5,6.84-4.38,4.38-6.84,10.31-6.84,16.5v11.99c0,3.08,2.49,5.57,5.57,5.57h59.2c3.08,0,5.57-2.49,5.57-5.57v-11.99h0Z"/><path class="f" d="M404.02,266.6c-9.79-1.71-19.8-1.71-29.59,0l-1.85,19.26c-6.25,1.59-12.25,4.08-17.79,7.37l-14.93-12.31c-8.13,5.71-15.21,12.79-20.92,20.92l12.31,14.93c-3.3,5.55-5.78,11.54-7.37,17.79l-19.26,1.85c-1.71,9.79-1.71,19.8,0,29.59l19.26,1.85c1.59,6.25,4.07,12.25,7.37,17.79l-12.31,14.93c5.71,8.13,12.79,15.21,20.92,20.92l14.93-12.31c5.55,3.3,11.54,5.78,17.79,7.37l1.85,19.26c9.79,1.71,19.8,1.71,29.59,0l1.85-19.26c6.25-1.59,12.25-4.08,17.79-7.37l14.93,12.31c8.13-5.71,15.21-12.79,20.92-20.92l-12.31-14.93c3.3-5.55,5.78-11.54,7.37-17.79l19.26-1.85c1.71-9.79,1.71-19.8,0-29.59l-19.26-1.85c-1.59-6.25-4.08-12.25-7.37-17.79l12.31-14.93c-5.71-8.13-12.79-15.21-20.92-20.92l-14.93,12.31c-5.55-3.3-11.54-5.78-17.79-7.37l-1.85-19.26h0Zm-14.8,50.85c18.64,0,33.77,15.13,33.77,33.77s-15.13,33.77-33.77,33.77-33.77-15.13-33.77-33.77,15.13-33.77,33.77-33.77h0Z"/><path class="d" d="M389.22,299.96c-28.29,0-51.26,22.97-51.26,51.26s22.97,51.26,51.26,51.26,51.26-22.97,51.26-51.26-22.97-51.26-51.26-51.26h0Zm0,3.27c26.49,0,47.99,21.5,47.99,47.99s-21.5,47.99-47.99,47.99-47.99-21.5-47.99-47.99,21.5-47.99,47.99-47.99h0Z"/><path class="e" d="M533.32,177.64c-5.78-1.01-11.69-1.01-17.47,0l-1.09,11.37c-3.69,.94-7.23,2.41-10.51,4.35l-8.82-7.27c-4.8,3.37-8.98,7.55-12.36,12.36l7.27,8.82c-1.95,3.28-3.41,6.81-4.35,10.51l-11.37,1.09c-1.01,5.78-1.01,11.69,0,17.47l11.37,1.09c.94,3.69,2.41,7.23,4.35,10.51l-7.27,8.82c3.37,4.8,7.55,8.98,12.36,12.36l8.82-7.27c3.28,1.95,6.81,3.41,10.51,4.35l1.09,11.37c5.78,1.01,11.69,1.01,17.47,0l1.09-11.37c3.69-.94,7.23-2.41,10.51-4.35l8.82,7.27c4.8-3.37,8.98-7.55,12.36-12.36l-7.27-8.82c1.95-3.28,3.41-6.82,4.35-10.51l11.37-1.09c1.01-5.78,1.01-11.69,0-17.47l-11.37-1.09c-.94-3.69-2.41-7.23-4.35-10.51l7.27-8.82c-3.37-4.8-7.55-8.98-12.36-12.36l-8.82,7.27c-3.28-1.95-6.81-3.41-10.51-4.35l-1.09-11.37h0Zm-8.74,30.03c11,0,19.94,8.93,19.94,19.94s-8.93,19.94-19.94,19.94-19.94-8.93-19.94-19.94,8.93-19.94,19.94-19.94h0Z"/><path class="c" d="M524.58,197.34c-16.71,0-30.27,13.56-30.27,30.27s13.56,30.27,30.27,30.27,30.27-13.56,30.27-30.27-13.56-30.27-30.27-30.27h0Zm0,1.93c15.64,0,28.34,12.7,28.34,28.34s-12.7,28.34-28.34,28.34-28.34-12.7-28.34-28.34,12.7-28.34,28.34-28.34h0Z"/><path class="e" d="M580.92,285.06c-3.8-.66-7.68-.66-11.48,0l-.72,7.47c-2.43,.62-4.75,1.58-6.9,2.86l-5.79-4.78c-3.16,2.22-5.9,4.96-8.12,8.12l4.78,5.79c-1.28,2.15-2.24,4.48-2.86,6.9l-7.47,.72c-.66,3.8-.66,7.68,0,11.48l7.47,.72c.62,2.43,1.58,4.75,2.86,6.9l-4.78,5.79c2.22,3.16,4.96,5.9,8.12,8.12l5.79-4.78c2.15,1.28,4.48,2.24,6.9,2.86l.72,7.47c3.8,.66,7.68,.66,11.48,0l.72-7.47c2.43-.62,4.75-1.58,6.9-2.86l5.79,4.78c3.16-2.22,5.9-4.96,8.12-8.12l-4.78-5.79c1.28-2.15,2.24-4.48,2.86-6.9l7.47-.72c.66-3.8,.66-7.68,0-11.48l-7.47-.72c-.62-2.43-1.58-4.75-2.86-6.9l4.78-5.79c-2.22-3.16-4.96-5.9-8.12-8.12l-5.79,4.78c-2.15-1.28-4.48-2.24-6.9-2.86l-.72-7.47h0Zm-5.74,19.73c7.23,0,13.1,5.87,13.1,13.1s-5.87,13.1-13.1,13.1-13.1-5.87-13.1-13.1,5.87-13.1,13.1-13.1h0Z"/><path class="c" d="M575.18,298.01c-10.98,0-19.89,8.91-19.89,19.89s8.91,19.89,19.89,19.89,19.89-8.91,19.89-19.89-8.91-19.89-19.89-19.89h0Zm0,1.27c10.28,0,18.62,8.34,18.62,18.62s-8.34,18.62-18.62,18.62-18.62-8.34-18.62-18.62,8.34-18.62,18.62-18.62h0Z"/><path class="e" d="M404.43,146.89c0-6.57-5.32-11.89-11.89-11.89h-59.99c-6.57,0-11.89,5.32-11.89,11.89v59.99c0,6.57,5.32,11.89,11.89,11.89h59.99c6.57,0,11.89-5.32,11.89-11.89v-59.99h0Z"/><path class="d" d="M387.36,159.25c0-.55-.22-1.08-.61-1.47-.39-.39-.92-.61-1.47-.61h-45.47c-.55,0-1.08,.22-1.47,.61-.39,.39-.61,.92-.61,1.47h0c0,.55,.22,1.08,.61,1.47,.39,.39,.92,.61,1.47,.61h45.47c.55,0,1.08-.22,1.47-.61,.39-.39,.61-.92,.61-1.47h0Z"/><path class="d" d="M387.36,176.88c0-.55-.22-1.08-.61-1.47-.39-.39-.92-.61-1.47-.61h-45.47c-.55,0-1.08,.22-1.47,.61-.39,.39-.61,.92-.61,1.47h0c0,.55,.22,1.08,.61,1.47,.39,.39,.92,.61,1.47,.61h45.47c.55,0,1.08-.22,1.47-.61,.39-.39,.61-.92,.61-1.47h0Z"/><path class="d" d="M387.36,194.52c0-.55-.22-1.08-.61-1.47-.39-.39-.92-.61-1.47-.61h-45.47c-.55,0-1.08,.22-1.47,.61-.39,.39-.61,.92-.61,1.47h0c0,.55,.22,1.08,.61,1.47,.39,.39,.92,.61,1.47,.61h45.47c.55,0,1.08-.22,1.47-.61,.39-.39,.61-.92,.61-1.47h0Z"/><path class="g" d="M787.81,256.19c0-6.21-5.04-11.25-11.25-11.25h-56.75c-6.21,0-11.25,5.04-11.25,11.25v56.75c0,6.21,5.04,11.25,11.25,11.25h56.75c6.21,0,11.25-5.04,11.25-11.25v-56.75h0Z"/><polygon class="i" points="748.18 260.4 771.19 277.51 771.19 308.73 753.18 308.73 753.18 297.09 743.19 297.09 743.19 308.73 725.17 308.73 725.17 277.51 748.18 260.4 748.18 260.4"/><path class="g" d="M320.66,403.26c0-6.42-5.21-11.63-11.63-11.63h-92.44c-6.42,0-11.63,5.21-11.63,11.63v58.65c0,6.42,5.21,11.63,11.63,11.63h92.44c6.42,0,11.63-5.21,11.63-11.63v-58.65h0Z"/><polygon class="d" points="228.13 432.59 245.39 415.32 241.73 411.67 220.81 432.59 241.73 453.51 245.39 449.85 228.13 432.59 228.13 432.59"/><polygon class="d" points="297.5 432.59 280.24 415.32 283.9 411.67 304.82 432.59 283.9 453.51 280.24 449.85 297.5 432.59 297.5 432.59"/><polygon class="d" points="255.43 403.81 250.55 405.53 270.19 461.36 275.07 459.65 255.43 403.81 255.43 403.81"/><path class="e" d="M911.94,430.93c0-8.18-7.02-14.82-15.68-14.82h-265.48c-8.66,0-15.68,6.63-15.68,14.82v162.25c0,8.18,7.02,14.82,15.68,14.82h265.48c8.66,0,15.68-6.63,15.68-14.82v-162.25h0Z"/><polygon class="l" points="728.61 454.36 818.76 607.99 638.46 607.99 728.61 454.36 728.61 454.36"/><polygon class="l" points="813.42 479.9 888.57 607.99 738.26 607.99 813.42 479.9 813.42 479.9"/><path class="l" d="M787.97,438.17c8.46,0,15.33,6.87,15.33,15.33s-6.87,15.33-15.33,15.33-15.33-6.87-15.33-15.33,6.87-15.33,15.33-15.33h0Z"/><path class="f" d="M194.93,708.74c-20.75-20.36-104.31-172.28-67.78-188.68,21.86-9.82,24.55,94.59,74.66,181.75,22.96,39.93-4.55,9.22-6.88,6.94h0Z"/><path class="d" d="M211.28,722.31s-26.83-31.95-52.28-96.56c-11.34-28.78-22.4-64.03-30.7-105.81-.04-.19-.22-.31-.41-.28-.19,.04-.31,.22-.28,.41,8.11,41.89,19.01,77.25,30.23,106.13,25.25,65.03,52.07,97.25,52.07,97.25,.32,.38,.88,.43,1.26,.11,.38-.32,.43-.88,.11-1.26h0Z"/><path class="e" d="M208.49,532.01c-14.06-16.8-12.16-22.86-12.16-22.86,0,0-11.41,15.15-19.51,56.39l15.51,5.36-16.72,1.12c-2.06,13.16-2.91,27.64-1.4,42.67,1.63,16.26,5.64,32.98,12.06,48.46l25.55-3.85-19.75,16.22c9.95,18.85,23.87,34.84,41.78,44.33,21.54,0,40.45,2.28,75.17,2.28,0,0,31.41-36.68,10.77-81.99l-21.22,5.08,18.92-9.76c-7.38-13.93-19.82-28.57-39.67-43.13-7.12-5.22-13.62-10.14-19.54-14.77l-13.81,5.39,8.91-9.26c-21.02-16.75-34.34-29.57-42.77-39.2l-4.49,2.97,2.37-5.44h0Z"/><path class="d" d="M306.6,722.55s-4.42-17.97-19.97-44c-7.14-11.95-16.59-25.59-29.04-39.95-15.73-18.3-39.54-45.36-53.31-73.03-9.68-19.46-14.42-39.21-7.95-56.41-5.92,17.23-.69,36.71,9.39,55.79,14.37,27.2,38.6,53.6,54.64,71.46,12.84,14.42,22.65,28.14,30.06,40.18,13.21,21.5,18.8,37.7,20.47,43.14-.69,1.33-1.86,2.4-1.86,2.4,0,0-1.23,.47-2.3,.81-.05-.12-.1-.25-.13-.38h0Z"/><path class="g" d="M424.86,715.05s-39.92-58.82-34.22-118.67c2.4-25.25,12.95-50.68,38.08-71.93,.38-.32,.43-.88,.11-1.26-.32-.38-.88-.43-1.26-.11-25.75,21.5-36.64,47.36-39.26,73.07-6.18,60.7,33.93,120.67,33.93,120.67,.49,.73,1.48,.92,2.2,.43,.73-.49,.92-1.48,.43-2.2h0Z"/><path class="g" d="M424.05,713.61s2.38-4.28,6.4-10.19c1.36-2.01,2.93-4.16,4.59-6.46,1.23-1.71,2.54-3.47,3.86-5.28,1.26-1.73,2.51-3.52,3.86-5.27,2.88-3.73,5.97-7.32,9.71-10.25,.29-.18,.38-.57,.2-.86-.18-.29-.56-.38-.86-.2-4.51,2.14-8.63,4.97-12.31,8.29-1.5,1.35-2.89,2.78-4.18,4.27-.88,1.01-1.7,2.06-2.45,3.13-2,2.88-3.62,5.81-4.93,8.56-3.7,7.76-5.05,13.82-5.05,13.82-.12,.32,.04,.68,.36,.8,.32,.12,.68-.04,.8-.36h0Z"/><path class="g" d="M417.94,706.71s.22-5.06,3.99-13c1.12-2.36,2.57-4.93,4.36-7.8,1.1-1.76,2.35-3.58,3.68-5.57,1.18-1.75,2.38-3.63,3.75-5.58,1.82-2.6,3.8-5.34,6.11-8.22,2.06-2.56,4.22-5.2,6.76-7.93-3.19,2.02-6.04,3.96-8.66,6.01-1.96,1.53-3.72,3.07-5.36,4.63-1.83,1.73-3.46,3.45-4.9,5.18-1.06,1.28-2,2.56-2.83,3.85-1.4,2.17-2.5,4.3-3.41,6.33-.7,1.56-1.26,3.05-1.72,4.49-1.34,4.18-1.9,7.71-2.09,10.54-.31,4.56,.34,7.06,.34,7.06h0Z"/><path class="g" d="M410.51,692.58s1.45-6.9,6.3-15.81c.68-1.25,1.42-2.53,2.21-3.87,1.06-1.81,2.27-3.66,3.56-5.59,.79-1.19,1.6-2.41,2.46-3.65,1.22-1.77,2.47-3.58,3.91-5.39,1.36-1.71,2.79-3.41,4.4-5.11,2.26-2.4,4.69-4.76,7.55-7.03-3.42,1.49-6.48,3.11-9.29,4.95-2.07,1.36-3.93,2.8-5.66,4.31-1.87,1.64-3.56,3.33-5.05,5.09-1.06,1.25-2.01,2.54-2.85,3.85-1.35,2.12-2.44,4.26-3.34,6.35-.66,1.53-1.21,3.01-1.66,4.47-3.09,10.02-2.52,17.4-2.52,17.4h0Z"/><path class="g" d="M404.2,678.53s1.94-6.82,7.11-15.26c.74-1.2,1.53-2.43,2.37-3.71,1.14-1.74,2.43-3.5,3.79-5.32,.84-1.13,1.7-2.29,2.61-3.46,1.3-1.68,2.64-3.39,4.16-5.06,1.45-1.6,2.98-3.16,4.69-4.7,2.43-2.19,5.02-4.28,8.07-6.2-3.53,1.09-6.69,2.4-9.63,3.99-2.15,1.16-4.1,2.46-5.93,3.84-1.96,1.48-3.73,3.06-5.32,4.73-1.12,1.18-2.13,2.4-3.03,3.66-1.44,2.01-2.62,4.08-3.62,6.12-.72,1.47-1.34,2.91-1.86,4.34-3.48,9.61-3.42,17.04-3.42,17.04h0Z"/><path class="g" d="M397.45,660.03s3.08-6.12,9.56-13.56c.91-1.05,1.88-2.12,2.9-3.23,1.39-1.52,2.9-3.04,4.5-4.63,.99-.99,1.99-2,3.03-3.03,1.49-1.47,3.02-2.98,4.71-4.45,1.61-1.4,3.28-2.77,5.1-4.12,2.6-1.92,5.33-3.75,8.45-5.4-3.52,.79-6.73,1.78-9.78,3.04-2.21,.92-4.24,1.96-6.19,3.1-2.08,1.21-3.99,2.52-5.75,3.93-1.24,.99-2.39,2.04-3.44,3.13-1.68,1.75-3.13,3.58-4.4,5.39-.93,1.32-1.75,2.61-2.48,3.91-4.98,8.86-6.21,15.92-6.21,15.92h0Z"/><path class="g" d="M393.6,647.27s2.96-6.02,9.4-13.12c.91-1,1.87-2.01,2.89-3.07,1.38-1.43,2.9-2.87,4.5-4.36,.99-.92,2-1.87,3.05-2.83,1.51-1.37,3.05-2.77,4.76-4.11,1.63-1.28,3.32-2.53,5.17-3.75,2.62-1.72,5.37-3.35,8.53-4.79-3.5,.54-6.69,1.31-9.72,2.36-2.22,.77-4.26,1.67-6.22,2.68-2.1,1.08-4.04,2.27-5.82,3.57-1.26,.92-2.42,1.91-3.49,2.94-1.71,1.66-3.18,3.41-4.47,5.15-.94,1.27-1.77,2.52-2.5,3.78-4.99,8.57-6.1,15.55-6.1,15.55h0Z"/><path class="g" d="M389.59,622.94s3.74-4.69,10.75-9.62c.98-.69,2.02-1.38,3.11-2.1,1.47-.98,3.07-1.92,4.75-2.9,1.03-.61,2.09-1.24,3.18-1.88,1.56-.9,3.16-1.84,4.9-2.69,1.66-.81,3.36-1.59,5.2-2.3,2.62-1.01,5.32-1.92,8.36-2.58-3.19-.29-6.11-.32-8.98-.05-2.11,.2-4.08,.56-6,1.03-2.07,.51-4.01,1.15-5.83,1.94-1.29,.56-2.51,1.19-3.64,1.9-1.82,1.13-3.45,2.4-4.9,3.7-1.06,.95-2.02,1.91-2.89,2.88-2.37,2.66-4.1,5.18-5.37,7.32-1.9,3.21-2.64,5.35-2.64,5.35h0Z"/><path class="g" d="M389,602.68s3.32-2.57,9.22-5.53c1.89-.94,4.01-1.88,6.37-2.87,1.51-.64,3.12-1.24,4.79-1.94,1.54-.63,3.1-1.35,4.77-2.02,2.35-.94,4.76-1.88,7.44-2.69,2.51-.76,5.05-1.48,7.88-1.99-2.91-.45-5.59-.69-8.28-.69-1.95,0-3.79,.14-5.6,.37-1.94,.25-3.78,.6-5.54,1.09-1.24,.35-2.43,.77-3.55,1.25-1.82,.79-3.46,1.71-4.97,2.67-1.11,.71-2.12,1.43-3.06,2.18-6.56,5.27-9.46,10.15-9.46,10.15h0Z"/><path class="g" d="M390.8,586.75s2.44-1.2,6.88-2.64c1.62-.53,3.44-1,5.53-1.59,1.68-.48,3.5-.94,5.44-1.51,.84-.25,1.68-.57,2.56-.88,1.26-.44,2.52-.91,3.87-1.38,3.16-1.1,6.38-2.22,10.15-3-2.37-.45-4.53-.76-6.75-.91-1.59-.1-3.08-.1-4.58-.03-1.6,.07-3.11,.22-4.57,.48-1.03,.19-2.03,.43-2.97,.74-1.54,.51-2.94,1.13-4.23,1.79-.96,.49-1.84,.99-2.66,1.52-5.94,3.87-8.66,7.4-8.66,7.4h0Z"/><path class="g" d="M394.12,573.42s3.83-1.06,10.61-2.06c.89-.13,1.81-.26,2.79-.43,1.3-.23,2.68-.43,4.13-.73,.88-.18,1.79-.41,2.71-.66,1.32-.36,2.64-.79,4.06-1.21,1.35-.39,2.68-.8,4.12-1.21,2.06-.59,4.07-1.2,6.33-1.73-2.32-.43-4.42-.77-6.59-.97-1.55-.14-2.99-.2-4.45-.21-1.55,0-3.02,.04-4.45,.2-1.01,.11-1.99,.27-2.92,.5-1.53,.37-2.93,.85-4.24,1.35-.98,.38-1.88,.77-2.73,1.19-6.32,3.15-9.39,5.97-9.39,5.97h0Z"/><path class="g" d="M399.7,559.5s3.24-.63,8.25-1.34c.69-.1,1.39-.2,2.13-.34,1-.19,2.04-.36,3.11-.63,.67-.17,1.34-.38,2.01-.61,1-.34,1.96-.74,2.99-1.14,2.61-1.01,5.05-2.03,7.86-2.63-1.72-.54-3.29-.93-5.06-1.19-1.19-.18-2.3-.25-3.48-.27-1.19-.03-2.33,.01-3.48,.15-.77,.1-1.53,.25-2.25,.46-1.14,.33-2.2,.78-3.2,1.25-.73,.35-1.39,.7-2.02,1.09-4.44,2.74-6.86,5.19-6.86,5.19h0Z"/><path class="g" d="M408.04,545.43s1.98-.3,6.31,.3c.51,.07,1.01,.16,1.58,.22,.73,.07,1.5,.19,2.34,.22,.5,.02,1.03-.01,1.57-.05,.79-.06,1.56-.2,2.43-.33,2.03-.3,3.93-.74,6.46-.95-1.28-.84-2.29-1.47-3.5-2.1-.88-.45-1.65-.77-2.5-1.08-.92-.34-1.75-.59-2.62-.75-.62-.12-1.22-.17-1.8-.16-.99,.02-1.89,.17-2.72,.37-.65,.16-1.22,.33-1.77,.55-1.33,.53-2.28,1.02-3.13,1.57-2,1.3-2.66,2.2-2.66,2.2h0Z"/><path class="g" d="M415.81,535.68s1.75-.21,5.38,.34c.43,.07,.83,.16,1.31,.21,.6,.06,1.22,.19,1.92,.2,.52,0,1.05-.06,1.61-.12,.83-.09,1.61-.28,2.55-.44,1.53-.25,2.81-.59,4.64-.76-1.05-.87-1.82-1.47-2.84-2.11-.74-.47-1.38-.77-2.11-1.09-.79-.35-1.5-.58-2.26-.75-.54-.12-1.07-.16-1.57-.15-.56,.01-1.08,.09-1.58,.21-.87,.2-1.61,.42-2.3,.75-1.13,.54-1.91,1.02-2.62,1.58-1.62,1.29-2.11,2.12-2.11,2.12h0Z"/><path class="g" d="M425.72,525.85s1.23-.58,5.18-.25c.42,.04,.82,.11,1.31,.12,.59,.02,1.22,.09,1.93,.06,.41-.02,.84-.09,1.28-.18,.65-.13,1.26-.33,1.98-.55,1.69-.51,3.14-1.13,5.31-1.7-1.17-.67-2-1.15-3.07-1.64-.78-.36-1.43-.58-2.16-.81-.8-.25-1.51-.42-2.25-.51-.53-.07-1.04-.06-1.53-.01-.55,.06-1.05,.18-1.52,.32-.86,.27-1.57,.54-2.21,.91-1.13,.65-1.86,1.18-2.48,1.8-1.58,1.57-1.75,2.45-1.75,2.45h0Z"/><path class="g" d="M422.4,528.89s.19-2.01,1.01-5.62c.1-.45,.22-.88,.31-1.38,.11-.64,.26-1.3,.32-2.02,.04-.44,.03-.89,.01-1.35-.03-.7-.14-1.36-.22-2.11-.2-1.89-.53-3.53-.48-5.74-.95,1-1.63,1.78-2.36,2.82-.52,.73-.86,1.39-1.24,2.14-.39,.79-.67,1.52-.88,2.31-.14,.54-.22,1.08-.24,1.61-.03,.87,.08,1.68,.24,2.44,.12,.58,.26,1.08,.45,1.59,.44,1.16,.83,2.01,1.31,2.81,1.05,1.78,1.77,2.5,1.77,2.5h0Z"/><path class="g" d="M413.1,538.83s-.24-2.85-.14-7.54c.01-.62,.04-1.24,.02-1.92-.02-.9,0-1.83-.07-2.82-.04-.61-.13-1.22-.23-1.85-.15-.93-.37-1.83-.56-2.8-.49-2.42-1.04-4.69-1.18-7.43-.84,1.48-1.48,2.78-2.06,4.27-.4,1.05-.67,2.02-.91,3.06-.25,1.08-.42,2.11-.49,3.15-.05,.72-.03,1.43,.05,2.11,.13,1.1,.38,2.13,.68,3.09,.22,.71,.46,1.36,.75,1.98,2.05,4.45,4.15,6.7,4.15,6.7h0Z"/><path class="g" d="M406.07,548.32s-.75-2.79-1.44-7.32c-.2-1.32-.36-2.72-.56-4.28-.12-.9-.2-1.83-.36-2.79-.2-1.18-.46-2.39-.73-3.65-.38-1.82-.85-3.62-1.15-5.6-.31-2.04-.61-3.98-.63-6.19-.93,1.84-1.62,3.54-2.17,5.4-.39,1.31-.62,2.56-.8,3.86-.19,1.35-.27,2.65-.24,3.95,.02,.89,.12,1.77,.28,2.61,.26,1.34,.67,2.59,1.12,3.76,.33,.85,.68,1.64,1.08,2.38,2.75,5.15,5.6,7.88,5.6,7.88h0Z"/><path class="g" d="M396.97,565.57s-2.08-3.01-4.05-8.51c-.61-1.72-1.16-3.65-1.73-5.83-.36-1.37-.66-2.83-1.04-4.36-.35-1.4-.77-2.83-1.13-4.37-.51-2.14-1.02-4.34-1.38-6.81-.34-2.28-.65-4.56-.76-7.15-.87,2.5-1.51,4.78-1.95,7.1-.32,1.72-.49,3.34-.58,4.95-.09,1.76-.06,3.42,.11,5.03,.12,1.15,.33,2.26,.61,3.31,.46,1.73,1.09,3.3,1.78,4.73,.51,1.07,1.05,2.04,1.64,2.94,1.62,2.52,3.24,4.41,4.69,5.85,2.22,2.2,3.79,3.13,3.79,3.13h0Z"/><path class="g" d="M392.49,579.06s-2.43-3-5.58-7.76c-1.05-1.59-2.14-3.33-3.3-5.23-.43-.71-.86-1.43-1.33-2.15-.45-.7-.9-1.4-1.38-2.1-.94-1.37-1.91-2.73-2.84-4.18-1.99-3.13-3.81-6.3-4.86-10.05-.26,2.43-.24,4.71,.06,7.07,.2,1.62,.56,3.15,1.01,4.69,.46,1.57,1.02,3.06,1.71,4.49,.47,.97,1,1.9,1.58,2.76,.92,1.35,1.95,2.57,3,3.69,.75,.8,1.5,1.52,2.27,2.19,5.2,4.48,9.66,6.59,9.66,6.59h0Z"/><path class="g" d="M389.88,592.65s-3.81-3.31-8.66-8.76c-1.64-1.84-3.37-3.9-5.15-6.16-.67-.85-1.34-1.72-2.04-2.59-.67-.84-1.35-1.7-2.05-2.56-1.36-1.68-2.73-3.38-4.03-5.21-2.75-3.86-5.22-7.95-6.7-12.78,.02,3.13,.38,6.07,1.1,8.98,.5,2.02,1.17,3.93,1.97,5.81,.81,1.93,1.75,3.75,2.82,5.47,.73,1.17,1.53,2.29,2.38,3.32,1.34,1.62,2.79,3.07,4.25,4.38,1.04,.94,2.08,1.79,3.13,2.57,7.01,5.2,12.99,7.52,12.99,7.52h0Z"/><path class="g" d="M389.22,610.31s-4.73-1.55-10.99-4.25c-2.2-.95-4.54-2.02-6.96-3.21-.93-.46-1.86-.93-2.81-1.39-.93-.45-1.86-.91-2.8-1.35-1.88-.9-3.74-1.8-5.5-2.84-4.05-2.41-7.55-5.24-9.6-9.36,.64,3.95,2.41,7.39,5.01,10.48,1.68,2.01,3.68,3.77,5.9,5.31,1.62,1.12,3.35,2.08,5.14,2.86,1.82,.79,3.69,1.37,5.52,1.85,2.39,.62,4.67,1.04,6.8,1.32,6.01,.79,10.28,.59,10.28,.59h0Z"/><path class="g" d="M390.75,631.98s-4.55,.28-10.92-.19c-2.18-.16-4.53-.42-7.02-.78-.94-.14-1.89-.29-2.85-.43-.93-.14-1.88-.28-2.83-.41-1.87-.27-3.75-.54-5.64-.99-4.05-.96-7.97-2.34-11.56-5.1,1.57,2.38,3.36,4.32,5.44,6,1.47,1.19,3.02,2.14,4.66,2.99,1.67,.87,3.39,1.55,5.16,2.07,1.19,.35,2.41,.6,3.61,.75,1.86,.23,3.71,.26,5.48,.18,1.25-.06,2.45-.17,3.61-.36,7.58-1.2,12.85-3.72,12.85-3.72h0Z"/><path class="g" d="M394.44,649.6s-3.67,.18-9.14,.14c-1.67-.01-3.44-.05-5.36-.07-1.14-.01-2.32-.05-3.52-.02-1.52,.04-3.08,.14-4.65,.24-2.36,.14-4.67,.35-7.03,.33-2.61-.03-5.05-.12-7.5-.65,1.94,1.34,3.96,2.41,6.24,3.3,1.49,.58,2.99,1.01,4.56,1.38,1.56,.36,3.11,.63,4.69,.77,1.06,.09,2.11,.12,3.15,.07,1.61-.08,3.17-.31,4.66-.59,1.06-.2,2.07-.43,3.04-.71,6.55-1.87,10.87-4.19,10.87-4.19h0Z"/><path class="g" d="M389.55,621.66s-5.35-1.11-12.5-2.68c-2.57-.56-5.31-1.23-8.15-1.77-1.8-.34-3.62-.59-5.42-.87-2.85-.43-5.58-.8-8.09-1.43-3.21-.81-5.93-1.77-7.91-3.39,1.68,2.71,4.62,5.04,8.4,7.03,2.09,1.1,4.38,2.04,6.81,2.78,1.73,.53,3.52,.94,5.32,1.2,1.82,.27,3.64,.36,5.41,.4,2.32,.06,4.48-.02,6.49-.15,5.74-.38,9.64-1.12,9.64-1.12h0Z"/><path class="g" d="M388.97,601.5s-3.1-2.07-7.49-5.19c-1.36-.97-2.8-2.02-4.36-3.11-.94-.66-1.88-1.36-2.88-2-1.29-.83-2.63-1.62-3.95-2.41-2.07-1.23-4.09-2.35-5.91-3.68-2.19-1.6-4.05-3.15-5.37-5.08,.46,2.21,1.4,4.32,2.8,6.49,.84,1.32,1.83,2.54,2.95,3.76,1.05,1.16,2.19,2.26,3.43,3.28,.81,.66,1.66,1.27,2.55,1.82,1.35,.83,2.76,1.52,4.14,2.14,.98,.43,1.93,.81,2.89,1.13,6.29,2.15,11.21,2.86,11.21,2.86h0Z"/><path class="g" d="M392.36,640.93s-4.74,.13-11.47-.11c-2.32-.08-4.83-.2-7.48-.36-1.01-.06-2.04-.13-3.07-.17-1.01-.04-2.03-.08-3.06-.09-2.05-.03-4.08-.04-6.12-.15-4.69-.26-9.12-.83-13.02-2.68,2.02,1.91,4.32,3.46,6.97,4.74,1.7,.83,3.47,1.47,5.33,2.03,1.82,.54,3.67,.97,5.55,1.24,1.25,.18,2.51,.29,3.75,.31,1.92,.03,3.8-.1,5.61-.3,1.28-.14,2.5-.33,3.69-.57,7.83-1.57,13.33-3.89,13.33-3.89h0Z"/><path class="g" d="M396.56,658.39s-4.92,1.31-11.82,2.72c-2.42,.5-5.04,1-7.79,1.49-1.06,.19-2.13,.37-3.21,.58-1.06,.2-2.12,.41-3.17,.64-2.14,.46-4.24,.92-6.33,1.24-5.06,.78-9.79,.97-13.85-.71,2.96,2.42,6.71,3.84,10.99,4.53,2.59,.41,5.29,.53,8.04,.35,1.98-.13,3.98-.42,5.91-.87,1.96-.46,3.85-1.1,5.65-1.79,2.36-.9,4.51-1.88,6.47-2.87,5.56-2.81,9.11-5.31,9.11-5.31h0Z"/><path class="g" d="M401.44,671.51s-5,1.79-12.16,3.81c-2.49,.7-5.2,1.42-8.07,2.12-1.1,.27-2.21,.54-3.33,.83-1.09,.28-2.2,.57-3.3,.88-2.2,.61-4.39,1.22-6.6,1.7-5.12,1.12-10.07,1.71-14.72,.65,2.69,1.5,5.63,2.46,8.85,3.01,2.06,.35,4.15,.48,6.32,.47,2.1,0,4.2-.16,6.3-.48,1.38-.21,2.75-.5,4.09-.88,2.04-.57,4.01-1.31,5.87-2.09,1.31-.55,2.56-1.14,3.75-1.76,7.81-4.07,13-8.26,13-8.26h0Z"/><path class="g" d="M407.45,686.03s-4.15,2.24-10.73,4.64c-2.18,.8-4.59,1.59-7.23,2.37-.98,.29-1.98,.57-3,.88-.98,.29-1.97,.59-2.97,.91-1.94,.61-3.91,1.26-6,1.79-1.74,.44-3.47,.85-5.31,1.16-2.7,.46-5.4,.8-8.31,.8,2.84,.94,5.58,1.56,8.38,1.9,1.98,.24,3.89,.3,5.81,.25,2-.05,3.93-.23,5.81-.57,1.3-.23,2.56-.55,3.77-.94,1.92-.62,3.7-1.4,5.36-2.24,1.2-.6,2.32-1.23,3.36-1.89,7.11-4.51,11.04-9.06,11.04-9.06h0Z"/><path class="g" d="M413.85,699.2s-4.05,2.03-10.34,4.38c-2.1,.79-4.41,1.59-6.91,2.41-.94,.31-1.89,.61-2.86,.94-.93,.32-1.87,.65-2.82,1-1.85,.68-3.7,1.41-5.66,2.04-1.65,.53-3.29,1.03-5.01,1.45-2.59,.63-5.14,1.15-7.89,1.34,2.74,.74,5.39,1.19,8.13,1.36,1.89,.12,3.73,.07,5.57-.07,1.9-.15,3.73-.41,5.53-.82,1.23-.28,2.42-.63,3.56-1.05,1.8-.66,3.47-1.47,5.04-2.32,1.13-.61,2.17-1.23,3.16-1.89,6.69-4.48,10.5-8.77,10.5-8.77h0Z"/><path class="g" d="M420.17,710.53s-3.25,2.21-8.1,4.97c-1.66,.94-3.46,1.91-5.4,2.92-.73,.38-1.47,.76-2.22,1.16-.72,.39,7.8,.79,8.52,.06,4.67-4.76,7.19-9.1,7.19-9.1h0Z"/><path class="k" d="M352.56,720.75s-5.11,2.19-15.03-.23c-25.43-6.23-71.7-20.88-78.57-46.26-8.11-29.95,49.79,12.88,46.26-7.77-3.53-20.65-57.39-48.35-51.19-65.49,6.2-17.14,43.63,19.21,50.61,10.48,6.98-8.73-34.48-50.87-22.76-71.66,11.72-20.8,20.49,14.9,34.34,42.08,13.85,27.18,29.09-10.44,46.11-6.17,23.2,5.82-20.92,53.99-8.92,72.96,11.06,17.49,39.58-53.9,45.9-6.78,5.92,44.1-21.89,68.06-36.55,77.45-5.06,3.24-10.19,1.4-10.19,1.4h0Z"/><path class="g" d="M344.27,700.16c-3.86-.41-19.47-2.23-34.6-6.25-8.39-2.23-16.64-5.14-22.63-8.88-.18-.11-.4-.07-.5,.09-.1,.16-.03,.39,.15,.5,6,3.89,14.31,6.99,22.78,9.41,16.15,4.61,32.9,6.71,35.39,7.01,2.39,7.63,4.3,13.78,5.52,17.71,.17,.54,1.96,.3,1.84-.09-1.63-5.12-4.54-14.28-8.22-25.66,1.59-1.23,14.89-11.7,26.05-24.78,5.42-6.36,10.34-13.33,13.16-20.15,.07-.18-.02-.39-.21-.48-.19-.09-.4-.02-.48,.15-2.92,6.69-7.93,13.49-13.42,19.68-10.42,11.74-22.61,21.26-25.74,23.64-5.29-16.35-12.02-36.91-18.7-56.61-.31-.9-.61-1.8-.92-2.7,.13-.06,.24-.15,.32-.26l28.02-40.35c.11-.15,.06-.38-.11-.5-.17-.12-.4-.1-.51,.05l-28.45,38.93c-7.48-21.93-14.75-42.26-19.7-53.84-.08-.19-.3-.29-.48-.24-.19,.06-.27,.26-.19,.45,5.21,12.45,13.02,34.96,20.89,58.71,.84,2.55,1.69,5.11,2.53,7.66-4.25-1.97-20.89-9.79-33.42-17.08-6.11-3.55-11.24-6.96-13.45-9.5-.14-.16-.37-.19-.52-.08-.15,.12-.16,.34-.02,.5,2.2,2.63,7.35,6.22,13.5,9.96,14.39,8.74,34.27,18.31,34.27,18.31,.12,.06,.24,.09,.36,.1,6.51,19.87,12.82,39.76,17.48,54.6h0Z"/><path class="e" d="M895.44,722.32c.17,1.85,2.3-.21,4.23-.39,13.43-18.38,43.39-61.38,66.79-109.33,14.16-29.01,25.91-59.84,30.17-88.13,.08-.5-.27-.96-.76-1.04-.5-.08-.96,.27-1.04,.76-4.4,28.08-16.27,58.62-30.51,87.35-24.65,49.75-56.4,94.06-68.88,110.78h0Z"/><path class="j" d="M871.22,723.08s-15.16-18.98-6.98-40.1c8.18-21.12,18.24,18.61,6.98,40.1h0Z"/><path class="e" d="M917.87,693.23s-21.15-31.95-11.77-43.74c9.37-11.78,16.93,21.03,11.77,43.74h0Z"/><path class="e" d="M934.95,666.72s-19.6-24.55-13.84-36.24c5.76-11.69,18.96,7.68,13.84,36.24h0Z"/><path class="e" d="M947.78,645.13s-20.26-22.93-11.21-36.57c9.06-13.63,17.29,13.21,11.21,36.57h0Z"/><path class="e" d="M962.55,617.76s-17.83-18.27-11.73-31.74c6.1-13.48,13.02,13.99,11.73,31.74h0Z"/><path class="e" d="M973.53,594.69s-23.26-23.79-14.1-36.62c9.16-12.82,13.81,25.95,14.1,36.62h0Z"/><path class="e" d="M986.21,560.07s-22.64-23.07-15.79-35.06c6.85-11.98,15.04,26.16,15.79,35.06h0Z"/><path class="e" d="M994.66,530.56s-14.55-27.18-2.84-37.59c11.71-10.4,13.45,25.41,2.84,37.59h0Z"/><path class="e" d="M986.21,560.07s24.38-25.49,32.5-17.57c8.12,7.92-21.68,23.56-32.5,17.57h0Z"/><path class="e" d="M973.53,594.69s35.27-26.71,38.69-11.92c3.42,14.79-27.7,22.17-38.69,11.92h0Z"/><path class="e" d="M962.55,617.76s35.74-14.13,37.01-.13c1.27,13.99-24.52,9.17-37.01,.13h0Z"/><path class="e" d="M947.79,645.13s27.05-5.33,33.78,3.74c6.72,9.07-16.44,11.68-33.78-3.74h0Z"/><path class="e" d="M934.95,666.72s33.4-1.7,39.09,10.59c5.7,12.3-31.74,2.66-39.09-10.59h0Z"/><path class="e" d="M917.87,693.23s30.94-1.1,38.83,10.19-26,13.16-38.83-10.19h0Z"/><path class="f" d="M899.22,536.82c11.55-17.04,9.21-22.53,9.21-22.53,0,0,12.11,13.08,23.58,50.89l-14,6.48,15.74-.54c3.17,12.12,5.34,25.58,5.35,39.78,.02,15.36-2.15,31.38-6.69,46.46l-24.26-1.18,20.01,13.29c-8.78,21.68-22.99,40.24-43.21,50.23-20.98,.21-63.26,2.99-65.49,.28-8.16-9.91-25.88-36.7-14.09-71.51l20.33,2.74-18.62-7.33c5.58-13.73,15.83-28.59,33.02-44.09,6.16-5.56,11.77-10.78,16.88-15.67l13.43,3.73-9.21-7.82c18.07-17.65,29.31-30.9,36.28-40.71l4.48,2.35-2.74-4.86h0Z"/><path class="d" d="M821.92,718.94c-.3,1.28,3.83,3.72,4.51,.67,1.52-6.79,5.26-20.52,13.59-38.34,5.54-11.85,13.09-25.5,23.37-40.12,12.98-18.61,32.68-46.16,42.94-73.35,7.21-19.12,9.77-38.04,2.09-53.51,7.17,15.56,4.13,34.27-3.5,53.07-10.87,26.8-31.03,53.78-44.33,72-10.65,14.71-18.52,28.46-24.3,40.43-8.74,18.08-12.73,32.1-14.38,39.15h0Z"/><path class="g" d="M744.87,719.9c10.75,1.76,32.39-.74,54.79,.11,24.03-7.94,51.25-20.93,56.39-39.93,8.11-29.95-49.79,12.88-46.26-7.77,3.53-20.65,57.39-48.35,51.19-65.49-6.2-17.14-43.63,19.21-50.61,10.48-6.98-8.73,34.48-50.87,22.76-71.66-11.72-20.8-20.49,14.9-34.34,42.08-13.85,27.18-29.09-10.44-46.11-6.17-23.2,5.82,20.92,53.99,8.92,72.96-11.06,17.49-39.58-53.9-45.9-6.78-5.02,37.43,14.26,60.35,29.16,72.17h0Z"/><path class="d" d="M770.74,705.99c3.86-.41,19.47-2.23,34.6-6.25,8.39-2.23,16.64-5.14,22.63-8.88,.18-.11,.4-.07,.5,.09,.1,.16,.03,.39-.15,.5-6,3.89-14.31,6.99-22.78,9.41-16.15,4.61-32.9,6.71-35.39,7.01-1.51,4.81-2.83,9.03-3.9,12.48,.27,.38-2.48,2.07-1.84,.05,1.67-5.22,3.93-12.31,6.6-20.57-1.59-1.23-14.89-11.7-26.05-24.78-5.42-6.36-10.34-13.33-13.16-20.15-.07-.18,.02-.39,.21-.48,.19-.09,.4-.02,.48,.15,2.92,6.69,7.92,13.49,13.42,19.68,10.42,11.74,22.61,21.26,25.74,23.64,5.29-16.35,12.02-36.91,18.7-56.61,.31-.9,.61-1.8,.92-2.7-.13-.06-.24-.15-.32-.26l-28.02-40.35c-.11-.15-.06-.38,.11-.5,.17-.12,.4-.1,.51,.05l28.45,38.93c7.48-21.93,14.75-42.26,19.7-53.84,.08-.19,.3-.29,.48-.24,.19,.06,.27,.26,.19,.45-5.21,12.45-13.02,34.96-20.89,58.71-.84,2.55-1.69,5.11-2.53,7.66,4.25-1.97,20.89-9.79,33.42-17.08,6.11-3.55,11.24-6.96,13.45-9.5,.14-.16,.37-.19,.52-.08,.15,.12,.16,.34,.02,.5-2.2,2.63-7.35,6.22-13.5,9.96-14.39,8.74-34.27,18.31-34.27,18.31-.12,.06-.24,.09-.36,.1-6.51,19.87-12.82,39.76-17.48,54.6h0Z"/><path class="k" d="M713.46,705.48c16.34-20.73,74.07-167.2,39.27-177.76-20.82-6.32-11.19,88.03-46.27,172.3-16.07,38.62,5.16,7.78,6.99,5.46h0Z"/><path class="g" d="M700.3,719.59s20.48-31.87,35.94-93c6.89-27.23,12.79-60.25,15.44-98.84,.01-.18,.16-.31,.34-.3,.18,.01,.31,.16,.3,.34-2.47,38.66-8.21,71.77-14.98,99.07-15.24,61.48-35.67,93.6-35.67,93.6-.24,.38-.75,.49-1.13,.25-.38-.24-.49-.75-.25-1.12h0Z"/><path class="f" d="M151,720.95c0-2.17,.96-3.93,2.15-3.93H994.17c1.19,0,2.15,1.76,2.15,3.93h0c0,2.17-.96,3.93-2.15,3.93H153.15c-1.19,0-2.15-1.76-2.15-3.93h0Z"/><path class="g" d="M925.35,77.12c0-6.42-5.21-11.63-11.63-11.63h-92.44c-6.42,0-11.63,5.21-11.63,11.63v58.65c0,6.42,5.21,11.63,11.63,11.63h92.44c6.42,0,11.63-5.21,11.63-11.63v-58.65h0Z"/><polygon class="d" points="832.81 106.44 850.08 89.18 846.42 85.52 825.5 106.44 846.42 127.36 850.08 123.71 832.81 106.44 832.81 106.44"/><polygon class="d" points="902.19 106.44 884.93 89.18 888.58 85.52 909.5 106.44 888.58 127.36 884.93 123.71 902.19 106.44 902.19 106.44"/><polygon class="d" points="860.12 77.67 855.24 79.38 874.88 135.22 879.76 133.5 860.12 77.67 860.12 77.67"/><path class="k" d="M524.58,551.47c33.14,0,60.05,26.91,60.05,60.05s-26.91,60.05-60.05,60.05-60.05-26.91-60.05-60.05,26.91-60.05,60.05-60.05h0Z"/><path class="f" d="M524.58,566.38c11.57,0,20.97,9.4,20.97,20.97s-9.39,20.97-20.97,20.97-20.97-9.4-20.97-20.97,9.39-20.97,20.97-20.97h0Z"/><path class="f" d="M559.75,631.65c0-6.19-2.46-12.13-6.84-16.5-4.38-4.38-10.31-6.84-16.5-6.84h-23.67c-6.19,0-12.13,2.46-16.5,6.84-4.38,4.38-6.84,10.31-6.84,16.5v11.99c0,3.08,2.49,5.57,5.57,5.57h59.2c3.08,0,5.57-2.49,5.57-5.57v-11.99h0Z"/><path class="e" d="M161.22,107.2c-5.78-1.01-11.69-1.01-17.47,0l-1.09,11.37c-3.69,.94-7.23,2.41-10.51,4.35l-8.82-7.27c-4.8,3.37-8.98,7.55-12.36,12.36l7.27,8.82c-1.95,3.28-3.41,6.81-4.35,10.51l-11.37,1.09c-1.01,5.78-1.01,11.69,0,17.47l11.37,1.09c.94,3.69,2.41,7.23,4.35,10.51l-7.27,8.82c3.37,4.8,7.55,8.98,12.36,12.36l8.82-7.27c3.28,1.95,6.81,3.41,10.51,4.35l1.09,11.37c5.78,1.01,11.69,1.01,17.47,0l1.09-11.37c3.69-.94,7.23-2.41,10.51-4.35l8.82,7.27c4.8-3.37,8.98-7.55,12.36-12.36l-7.27-8.82c1.95-3.28,3.41-6.82,4.35-10.51l11.37-1.09c1.01-5.78,1.01-11.69,0-17.47l-11.37-1.09c-.94-3.69-2.41-7.23-4.35-10.51l7.27-8.82c-3.37-4.8-7.55-8.98-12.36-12.36l-8.82,7.27c-3.28-1.95-6.81-3.41-10.51-4.35l-1.09-11.37h0Zm-8.74,30.03c11,0,19.94,8.93,19.94,19.94s-8.93,19.94-19.94,19.94-19.94-8.93-19.94-19.94,8.93-19.94,19.94-19.94h0Z"/><path class="c" d="M152.48,126.9c-16.71,0-30.27,13.56-30.27,30.27s13.56,30.27,30.27,30.27,30.27-13.56,30.27-30.27-13.56-30.27-30.27-30.27h0Zm0,1.93c15.64,0,28.34,12.7,28.34,28.34s-12.7,28.34-28.34,28.34-28.34-12.7-28.34-28.34,12.7-28.34,28.34-28.34h0Z"/></g><path class="k" d="M187.65,231.13c33.14,0,60.05,26.91,60.05,60.05s-26.91,60.05-60.05,60.05-60.05-26.91-60.05-60.05,26.91-60.05,60.05-60.05h0Z"/><path class="f" d="M187.65,246.04c11.57,0,20.97,9.4,20.97,20.97s-9.39,20.97-20.97,20.97-20.97-9.4-20.97-20.97,9.39-20.97,20.97-20.97h0Z"/><path class="f" d="M222.82,311.31c0-6.19-2.46-12.13-6.84-16.5-4.38-4.38-10.31-6.84-16.5-6.84h-23.67c-6.19,0-12.13,2.46-16.5,6.84-4.38,4.38-6.84,10.31-6.84,16.5v11.99c0,3.08,2.49,5.57,5.57,5.57h59.2c3.08,0,5.57-2.49,5.57-5.57v-11.99h0Z"/></svg>