<?xml version="1.0" encoding="UTF-8"?><svg id="a" xmlns="http://www.w3.org/2000/svg" xmlns:xlink="http://www.w3.org/1999/xlink" viewBox="0 0 1140 726"><defs><style>.c,.d,.e,.f{stroke:#27aae1;stroke-miterlimit:10;}.c,.g{fill:#231f20;}.h,.d,.i{fill:#fff;}.j{fill:#b8e4fa;}.k{clip-path:url(#b);}.e{fill:#93d8f7;}.f,.l,.m{fill:none;}.l,.n,.o,.i,.m,.p{stroke:#231f20;stroke-linecap:round;stroke-linejoin:round;stroke-width:2px;}.n{fill:#a8d38f;}.o{fill:#f4a5c7;}.q{fill:#00b5e8;}.m{stroke-dasharray:0 0 3 6;}.p{fill:#fff58a;}</style><clipPath id="b"><circle class="d" cx="183.1" cy="220.07" r="94.02" transform="translate(-101.98 193.92) rotate(-45)"/></clipPath></defs><path class="j" d="M1021.23,414.8h-158.62c1.08-5.59,1.67-11.32,1.67-17.17h0c0-31.91-16.76-60.56-42.98-79.6h170.47c65.32,0,118.77-46.62,118.77-103.6h0c0-56.98-53.45-103.6-118.77-103.6h-59.04c.19-2.4,.32-4.8,.32-7.24h0c0-56.98-53.45-103.6-118.77-103.6H118.77C53.45,0,0,46.62,0,103.6H0c0,56.98,53.45,103.6,118.77,103.6h163.29c-.19,2.4-.32,4.8-.32,7.24h0c0,31.91,16.76,60.56,42.98,79.6H154.26c-65.32,0-118.77,46.62-118.77,103.6h0c0,56.98,53.45,103.6,118.77,103.6h158.62c-1.04,5.4-1.62,10.94-1.66,16.58H162.09c-65.32,0-118.77,46.62-118.77,103.6h0c0,56.98,53.45,103.6,118.77,103.6H753.35c65.1,0,118.39-46.3,118.75-103.01h149.13c65.32,0,118.77-46.62,118.77-103.6h0c0-56.98-53.45-103.6-118.77-103.6Z"/><g><path class="h" d="M968.87,349.18h-16.75c-3.19,0-5.99-2.16-6.73-5.26-2.56-10.67-6.76-20.7-12.34-29.79-1.67-2.72-1.22-6.23,1.03-8.48l11.84-11.84c2.72-2.72,2.72-7.12,0-9.83l-16.97-16.97c-2.72-2.72-7.12-2.72-9.83,0l-11.84,11.84c-2.26,2.26-5.76,2.7-8.48,1.03-9.1-5.58-19.13-9.78-29.79-12.34-3.1-.74-5.26-3.54-5.26-6.73v-16.75c0-3.84-3.11-6.95-6.95-6.95h-24c-3.84,0-6.95,3.11-6.95,6.95v16.75c0,3.19-2.16,5.99-5.26,6.73-10.67,2.56-20.7,6.76-29.79,12.34-2.72,1.67-6.23,1.22-8.48-1.03l-11.84-11.84c-2.72-2.72-7.12-2.72-9.83,0l-16.97,16.97c-2.72,2.72-2.72,7.12,0,9.83l11.84,11.84c2.26,2.26,2.7,5.76,1.03,8.48-5.58,9.1-9.78,19.12-12.34,29.79-.74,3.1-3.54,5.26-6.73,5.26h-16.75c-3.84,0-6.95,3.11-6.95,6.95v24c0,3.84,3.11,6.95,6.95,6.95h16.75c3.19,0,5.99,2.16,6.73,5.26,2.56,10.67,6.76,20.7,12.34,29.8,1.67,2.72,1.22,6.23-1.03,8.48l-11.84,11.84c-2.72,2.72-2.72,7.12,0,9.83l16.97,16.97c2.72,2.72,7.12,2.72,9.83,0l11.84-11.84c2.26-2.26,5.76-2.7,8.48-1.03,9.1,5.58,19.13,9.78,29.79,12.34,3.1,.74,5.26,3.54,5.26,6.73v16.75c0,3.84,3.11,6.95,6.95,6.95h24c3.84,0,6.95-3.11,6.95-6.95v-16.75c0-3.19,2.16-5.99,5.26-6.73,10.67-2.56,20.7-6.76,29.79-12.34,2.72-1.67,6.23-1.22,8.48,1.03l11.84,11.84c2.72,2.72,7.12,2.72,9.83,0l16.97-16.97c2.72-2.72,2.72-7.12,0-9.83l-11.84-11.84c-2.26-2.26-2.7-5.76-1.03-8.48,5.58-9.1,9.78-19.12,12.34-29.79,.74-3.1,3.54-5.26,6.73-5.26h16.75c3.84,0,6.95-3.11,6.95-6.95v-24c0-3.84-3.11-6.95-6.95-6.95Zm-124.08,69.49c-27.91,0-50.53-22.63-50.53-50.54s22.63-50.54,50.53-50.54,50.54,22.63,50.54,50.54-22.63,50.54-50.54,50.54Z"/><path class="g" d="M856.79,502.22h-24c-5.51,0-10-4.49-10-10v-16.75c0-1.81-1.2-3.35-2.92-3.76-10.85-2.6-21.17-6.87-30.68-12.7-1.51-.93-3.46-.68-4.74,.59l-11.84,11.84c-3.9,3.9-10.24,3.9-14.14,0l-16.97-16.97c-1.89-1.89-2.93-4.4-2.93-7.07s1.04-5.18,2.93-7.07l11.84-11.84c1.27-1.27,1.52-3.22,.59-4.74-5.83-9.51-10.1-19.83-12.7-30.68-.41-1.72-1.96-2.93-3.76-2.93h-16.75c-5.51,0-10-4.48-10-10v-24.01c0-5.51,4.49-10,10-10h16.75c1.8,0,3.35-1.2,3.76-2.92,2.6-10.84,6.87-21.16,12.7-30.68,.93-1.51,.69-3.46-.59-4.74l-11.84-11.84c-3.9-3.9-3.9-10.24,0-14.14l16.97-16.97c3.9-3.9,10.24-3.9,14.14,0l11.84,11.84c1.28,1.28,3.22,1.52,4.74,.59,9.51-5.83,19.83-10.1,30.68-12.7,1.72-.41,2.92-1.96,2.92-3.76v-16.75c0-5.51,4.49-10,10-10h24c5.51,0,10,4.49,10,10v16.75c0,1.8,1.2,3.35,2.92,3.76,10.85,2.6,21.17,6.87,30.68,12.7,1.51,.93,3.46,.69,4.74-.59l11.84-11.84c3.78-3.78,10.37-3.78,14.14,0l16.97,16.97c3.9,3.9,3.9,10.24,0,14.14l-11.84,11.84c-1.27,1.28-1.52,3.22-.59,4.74,5.83,9.51,10.1,19.83,12.7,30.68,.41,1.72,1.96,2.92,3.76,2.92h16.75c5.51,0,10,4.49,10,10v24.01c0,5.51-4.49,10-10,10h-16.75c-1.8,0-3.35,1.2-3.76,2.92-2.6,10.85-6.87,21.17-12.7,30.68-.93,1.51-.69,3.46,.59,4.73l11.84,11.84c1.89,1.89,2.93,4.4,2.93,7.07s-1.04,5.18-2.93,7.07l-16.97,16.97c-3.9,3.9-10.24,3.9-14.14,0l-11.84-11.84c-1.27-1.27-3.22-1.51-4.74-.59-9.51,5.83-19.83,10.1-30.68,12.7-1.72,.41-2.92,1.96-2.92,3.76v16.75c0,5.51-4.49,10-10,10Zm-69.59-49.88c1.78,0,3.57,.48,5.17,1.46,8.96,5.49,18.69,9.52,28.91,11.97,4.47,1.07,7.6,5.06,7.6,9.69v16.75c0,2.15,1.75,3.91,3.91,3.91h24c2.15,0,3.91-1.75,3.91-3.91v-16.75c0-4.64,3.12-8.62,7.6-9.69,10.22-2.45,19.95-6.48,28.91-11.97,3.93-2.41,8.96-1.8,12.23,1.48l11.84,11.84c1.52,1.52,4,1.52,5.52,0l16.97-16.98c.74-.74,1.14-1.72,1.14-2.76s-.41-2.02-1.14-2.76l-11.84-11.84c-3.28-3.27-3.88-8.3-1.48-12.23,5.49-8.96,9.52-18.69,11.97-28.91,1.07-4.47,5.06-7.6,9.69-7.6h16.75c2.15,0,3.91-1.75,3.91-3.9v-24.01c0-2.15-1.75-3.91-3.91-3.91h-16.75c-4.64,0-8.62-3.12-9.69-7.6-2.45-10.22-6.48-19.95-11.97-28.91-2.41-3.93-1.8-8.96,1.48-12.23l11.84-11.84c1.52-1.52,1.52-4,0-5.52l-16.97-16.97c-1.52-1.53-4-1.52-5.52,0l-11.84,11.84c-3.27,3.27-8.3,3.88-12.23,1.48-8.96-5.49-18.69-9.52-28.91-11.97-4.47-1.07-7.6-5.06-7.6-9.69v-16.75c0-2.15-1.75-3.91-3.91-3.91h-24c-2.15,0-3.91,1.75-3.91,3.91v16.75c0,4.63-3.12,8.62-7.6,9.69-10.22,2.45-19.95,6.48-28.91,11.97-3.93,2.4-8.96,1.8-12.23-1.48l-11.84-11.84c-1.52-1.53-4-1.52-5.52,0l-16.97,16.97c-1.52,1.52-1.52,4,0,5.52l11.84,11.84c3.27,3.27,3.88,8.3,1.48,12.23-5.49,8.97-9.52,18.69-11.97,28.91-1.07,4.47-5.06,7.6-9.69,7.6h-16.75c-2.15,0-3.91,1.75-3.91,3.91v24.01c0,2.15,1.75,3.9,3.91,3.9h16.75c4.63,0,8.62,3.12,9.69,7.6,2.45,10.23,6.48,19.95,11.97,28.91,2.41,3.93,1.8,8.96-1.48,12.23l-11.84,11.84c-.74,.74-1.14,1.72-1.14,2.76s.41,2.02,1.14,2.76l16.97,16.98c1.52,1.52,4,1.52,5.52,0l11.84-11.84c1.94-1.94,4.49-2.94,7.06-2.94Zm57.59-30.63c-29.55,0-53.58-24.04-53.58-53.58s24.04-53.58,53.58-53.58,53.58,24.04,53.58,53.58-24.04,53.58-53.58,53.58Zm0-101.07c-26.18,0-47.49,21.3-47.49,47.49s21.3,47.49,47.49,47.49,47.49-21.3,47.49-47.49-21.3-47.49-47.49-47.49Z"/></g><g><circle class="h" cx="183.1" cy="220.07" r="94.02" transform="translate(-101.98 193.92) rotate(-45)"/><g class="k"><g><g><circle class="e" cx="183.1" cy="202.25" r="45.77" transform="translate(-55.81 333.98) rotate(-76.72)"/><path class="c" d="M183.1,251.06c-26.92,0-48.82-21.9-48.82-48.82s21.9-48.82,48.82-48.82,48.82,21.9,48.82,48.82-21.9,48.82-48.82,48.82Zm0-91.54c-23.56,0-42.72,19.16-42.72,42.72s19.16,42.72,42.72,42.72,42.72-19.16,42.72-42.72-19.16-42.72-42.72-42.72Z"/></g><g><path class="e" d="M242.67,319.78c0-.09,0-.17,0-.26,0-32.91-26.68-59.58-59.58-59.58s-59.58,26.68-59.58,59.58c0,.09,0,.17,0,.26h119.15Z"/><path class="c" d="M242.67,322.83H123.52c-1.67,0-3.03-1.35-3.05-3.02,0-34.82,28.09-62.91,62.62-62.91s62.63,28.1,62.63,62.63c0,1.68-1.37,3.31-3.05,3.31Zm-116.04-6.09h112.93c-1.47-29.89-26.23-53.75-56.46-53.75s-55.01,23.86-56.47,53.75Z"/></g></g></g><circle class="f" cx="183.1" cy="220.07" r="94.02" transform="translate(-101.98 193.92) rotate(-45)"/></g><g><path class="h" d="M506.5,115.13h-16.75c-3.19,0-5.99-2.16-6.73-5.26-2.56-10.67-6.76-20.7-12.34-29.79-1.67-2.72-1.22-6.23,1.03-8.48l11.84-11.84c2.72-2.72,2.72-7.12,0-9.83l-16.97-16.97c-2.72-2.72-7.12-2.72-9.83,0l-11.84,11.84c-2.26,2.26-5.76,2.7-8.48,1.03-9.1-5.58-19.13-9.78-29.79-12.34-3.1-.74-5.26-3.54-5.26-6.73V10c0-3.84-3.11-6.95-6.95-6.95h-24c-3.84,0-6.95,3.11-6.95,6.95V26.75c0,3.19-2.16,5.99-5.26,6.73-10.67,2.56-20.7,6.76-29.79,12.34-2.72,1.67-6.23,1.22-8.48-1.03l-11.84-11.84c-2.72-2.72-7.12-2.72-9.83,0l-16.97,16.97c-2.72,2.72-2.72,7.12,0,9.83l11.84,11.84c2.26,2.26,2.7,5.76,1.03,8.48-5.58,9.1-9.78,19.12-12.34,29.79-.74,3.1-3.54,5.26-6.73,5.26h-16.75c-3.84,0-6.95,3.11-6.95,6.95v24c0,3.84,3.11,6.95,6.95,6.95h16.75c3.19,0,5.99,2.16,6.73,5.26,2.56,10.67,6.76,20.7,12.34,29.8,1.67,2.72,1.22,6.23-1.03,8.48l-11.84,11.84c-2.72,2.72-2.72,7.12,0,9.83l16.97,16.97c2.72,2.72,7.12,2.72,9.83,0l11.84-11.84c2.26-2.26,5.76-2.7,8.48-1.03,9.1,5.58,19.13,9.78,29.79,12.34,3.1,.74,5.26,3.54,5.26,6.73v16.75c0,3.84,3.11,6.95,6.95,6.95h24c3.84,0,6.95-3.11,6.95-6.95v-16.75c0-3.19,2.16-5.99,5.26-6.73,10.67-2.56,20.7-6.76,29.79-12.34,2.72-1.67,6.23-1.22,8.48,1.03l11.84,11.84c2.72,2.72,7.12,2.72,9.83,0l16.97-16.97c2.72-2.72,2.72-7.12,0-9.83l-11.84-11.84c-2.26-2.26-2.7-5.76-1.03-8.48,5.58-9.1,9.78-19.12,12.34-29.79,.74-3.1,3.54-5.26,6.73-5.26h16.75c3.84,0,6.95-3.11,6.95-6.95v-24c0-3.84-3.11-6.95-6.95-6.95Zm-124.08,69.49c-27.91,0-50.53-22.63-50.53-50.54s22.63-50.54,50.53-50.54,50.54,22.63,50.54,50.54-22.63,50.54-50.54,50.54Z"/><path class="g" d="M394.42,268.17h-24c-5.51,0-10-4.49-10-10v-16.75c0-1.81-1.2-3.35-2.92-3.76-10.85-2.6-21.17-6.87-30.68-12.7-1.51-.93-3.46-.68-4.74,.59l-11.84,11.84c-3.9,3.9-10.24,3.9-14.14,0l-16.97-16.97c-1.89-1.89-2.93-4.4-2.93-7.07s1.04-5.18,2.93-7.07l11.84-11.84c1.27-1.27,1.52-3.22,.59-4.74-5.83-9.51-10.1-19.83-12.7-30.68-.41-1.72-1.96-2.93-3.76-2.93h-16.75c-5.51,0-10-4.48-10-10v-24.01c0-5.51,4.49-10,10-10h16.75c1.8,0,3.35-1.2,3.76-2.92,2.6-10.84,6.87-21.16,12.7-30.68,.93-1.51,.69-3.46-.59-4.74l-11.84-11.84c-3.9-3.9-3.9-10.24,0-14.14l16.97-16.97c3.9-3.9,10.24-3.9,14.14,0l11.84,11.84c1.28,1.28,3.22,1.52,4.74,.59,9.51-5.83,19.83-10.1,30.68-12.7,1.72-.41,2.92-1.96,2.92-3.76V10c0-5.51,4.49-10,10-10h24c5.51,0,10,4.49,10,10V26.75c0,1.8,1.2,3.35,2.92,3.76,10.85,2.6,21.17,6.87,30.68,12.7,1.51,.93,3.46,.69,4.74-.59l11.84-11.84c3.78-3.78,10.37-3.78,14.14,0l16.97,16.97c3.9,3.9,3.9,10.24,0,14.14l-11.84,11.84c-1.27,1.28-1.52,3.22-.59,4.74,5.83,9.51,10.1,19.83,12.7,30.68,.41,1.72,1.96,2.92,3.76,2.92h16.75c5.51,0,10,4.49,10,10v24.01c0,5.51-4.49,10-10,10h-16.75c-1.8,0-3.35,1.2-3.76,2.92-2.6,10.85-6.87,21.17-12.7,30.68-.93,1.51-.69,3.46,.59,4.73l11.84,11.84c1.89,1.89,2.93,4.4,2.93,7.07s-1.04,5.18-2.93,7.07l-16.97,16.97c-3.9,3.9-10.24,3.9-14.14,0l-11.84-11.84c-1.27-1.27-3.22-1.51-4.74-.59-9.51,5.83-19.83,10.1-30.68,12.7-1.72,.41-2.92,1.96-2.92,3.76v16.75c0,5.51-4.49,10-10,10Zm-69.59-49.88c1.78,0,3.57,.48,5.17,1.46,8.96,5.49,18.69,9.52,28.91,11.97,4.47,1.07,7.6,5.06,7.6,9.69v16.75c0,2.15,1.75,3.91,3.91,3.91h24c2.15,0,3.91-1.75,3.91-3.91v-16.75c0-4.64,3.12-8.62,7.6-9.69,10.22-2.45,19.95-6.48,28.91-11.97,3.93-2.41,8.96-1.8,12.23,1.48l11.84,11.84c1.52,1.52,4,1.52,5.52,0l16.97-16.98c.74-.74,1.14-1.72,1.14-2.76s-.41-2.02-1.14-2.76l-11.84-11.84c-3.28-3.27-3.88-8.3-1.48-12.23,5.49-8.96,9.52-18.69,11.97-28.91,1.07-4.47,5.06-7.6,9.69-7.6h16.75c2.15,0,3.91-1.75,3.91-3.9v-24.01c0-2.15-1.75-3.91-3.91-3.91h-16.75c-4.64,0-8.62-3.12-9.69-7.6-2.45-10.22-6.48-19.95-11.97-28.91-2.41-3.93-1.8-8.96,1.48-12.23l11.84-11.84c1.52-1.52,1.52-4,0-5.52l-16.97-16.97c-1.52-1.53-4-1.52-5.52,0l-11.84,11.84c-3.27,3.27-8.3,3.88-12.23,1.48-8.96-5.49-18.69-9.52-28.91-11.97-4.47-1.07-7.6-5.06-7.6-9.69V10c0-2.15-1.75-3.91-3.91-3.91h-24c-2.15,0-3.91,1.75-3.91,3.91V26.75c0,4.63-3.12,8.62-7.6,9.69-10.22,2.45-19.95,6.48-28.91,11.97-3.93,2.4-8.96,1.8-12.23-1.48l-11.84-11.84c-1.52-1.53-4-1.52-5.52,0l-16.97,16.97c-1.52,1.52-1.52,4,0,5.52l11.84,11.84c3.27,3.27,3.88,8.3,1.48,12.23-5.49,8.97-9.52,18.69-11.97,28.91-1.07,4.47-5.06,7.6-9.69,7.6h-16.75c-2.15,0-3.91,1.75-3.91,3.91v24.01c0,2.15,1.75,3.9,3.91,3.9h16.75c4.63,0,8.62,3.12,9.69,7.6,2.45,10.23,6.48,19.95,11.97,28.91,2.41,3.93,1.8,8.96-1.48,12.23l-11.84,11.84c-.74,.74-1.14,1.72-1.14,2.76s.41,2.02,1.14,2.76l16.97,16.98c1.52,1.52,4,1.52,5.52,0l11.84-11.84c1.94-1.94,4.49-2.94,7.06-2.94Zm57.59-30.63c-29.55,0-53.58-24.04-53.58-53.58s24.04-53.58,53.58-53.58,53.58,24.04,53.58,53.58-24.04,53.58-53.58,53.58Zm0-101.07c-26.18,0-47.49,21.3-47.49,47.49s21.3,47.49,47.49,47.49,47.49-21.3,47.49-47.49-21.3-47.49-47.49-47.49Z"/></g><g><g><g><rect class="i" x="333.73" y="174.02" width="466.66" height="303.52"/><rect class="i" x="333.73" y="113.53" width="466.66" height="60.49"/><rect class="m" x="377.13" y="220.07" width="379.86" height="211.41"/><rect class="o" x="354.32" y="131.65" width="28.1" height="25.29"/><rect class="p" x="397.32" y="131.13" width="28.1" height="25.29"/><rect class="n" x="440.31" y="131.13" width="28.1" height="25.29"/><rect class="q" x="397.32" y="245.07" width="94" height="80.71"/><rect class="q" x="520.06" y="245.07" width="94" height="80.71"/><rect class="q" x="643.99" y="245.07" width="94" height="80.71"/></g><line class="i" x1="567.06" y1="481.33" x2="567.06" y2="590.31"/><polyline class="l" points="411.37 477.53 411.37 586.52 302.89 586.52"/><rect class="i" x="514.38" y="611.18" width="110.17" height="96.75"/><polyline class="m" points="566.43 594.11 643.99 594.11 643.99 725 494.94 725 494.94 594.11 566.43 594.11"/><rect class="i" x="173.27" y="545.74" width="110.17" height="96.75"/><polyline class="m" points="225.33 528.66 302.89 528.66 302.89 659.55 153.83 659.55 153.83 528.66 225.33 528.66"/><polyline class="l" points="716.86 477.53 716.86 586.52 825.34 586.52"/><rect class="i" x="844.79" y="545.74" width="110.17" height="96.75" transform="translate(1799.74 1188.22) rotate(180)"/><polyline class="m" points="902.9 528.66 825.34 528.66 825.34 659.55 974.4 659.55 974.4 528.66 902.9 528.66"/></g><g><path class="q" d="M1016.56,117.41c0-32.92-26.79-59.71-59.71-59.71-3.56,0-7.28,.36-11.08,1.07-.73,.14-1.47,.21-2.2,.21-2.41,0-4.78-.73-6.79-2.12-2.62-1.81-4.41-4.59-4.97-7.73-5.09-28.47-29.78-49.13-58.71-49.13s-53.16,20.3-58.59,48.28c-1.1,5.65-6.05,9.68-11.72,9.68-.28,0-.56,0-.84-.03l-.66-.05c-1.29-.09-2.51-.18-3.57-.18-32.93,0-59.71,26.79-59.71,59.71,0,27.22,22.08,56.58,50.34,59.72,8.06,.89,16.88,0,25.02,0h114.43c22.06,0,42.9,2.82,62.27-10.13,16.42-10.97,26.5-29.84,26.5-49.58Z"/><g><path class="h" d="M803.07,121.67l46.88-24.15v6.97l-39.51,19.81v.2l39.51,19.8v6.97l-46.88-24.15v-5.46Z"/><path class="h" d="M861.78,148.45c7.68-25.46,15.36-51.23,21.62-77.1,.1-.3,.3-2.73,.61-3.03,0,0,.91-.1,1.31-.1,2.32,0,3.33,1.21,3.33,3.54,0,5.96-3.03,11.82-4.65,17.68-5.76,20.01-11.01,40.92-17.58,60.73-.2,.81-.71,1.72-1.72,1.72-2.12,0-3.03-.5-3.03-2.32,0-.1,.1-1.01,.1-1.11Z"/><path class="h" d="M947.27,127.23l-46.88,24.05v-6.97l39.81-19.8v-.2l-39.81-19.81v-6.97l46.88,24.05v5.66Z"/></g></g><g><path class="q" d="M367.64,459.82c0-32.92-26.79-59.71-59.71-59.71-3.56,0-7.28,.36-11.08,1.07-.73,.14-1.47,.21-2.21,.21-2.41,0-4.78-.73-6.79-2.12-2.62-1.81-4.41-4.59-4.98-7.73-5.09-28.47-29.78-49.13-58.71-49.13s-53.16,20.3-58.59,48.28c-1.1,5.65-6.05,9.68-11.72,9.68-.28,0-.56-.01-.84-.03l-.66-.05c-1.29-.09-2.51-.18-3.57-.18-32.92,0-59.71,26.79-59.71,59.71,0,27.22,22.08,56.58,50.34,59.72,8.06,.89,16.88,0,25.02,0h114.43c22.05,0,42.9,2.82,62.27-10.13,16.42-10.97,26.5-29.84,26.5-49.58Z"/><g><path class="h" d="M173.66,430.93l.21-1.03c1.44-7.52,4.74-19.78,13.09-19.78,13.09,0,15.56,11.44,16.69,22.46,.41,4.12,1.34,15.46,1.34,16.18,0,1.34-.93,16.59-1.34,21.64-.72,8.45-4.23,20.5-14.32,20.5-7.11,0-11.13-7.62-12.78-13.7-3.3-11.75-4.22-20.4-4.22-32.46,0-6.7,.21-7.62,1.34-13.81Zm16.07,55.13c4.84,0,7.32-12.57,7.83-15.66l.62-5.36c.82-7.01,.72-8.96,.72-15.66s-.41-10.92-1.44-18.86c-.62-5.26-2.78-15.66-10.1-15.66-2.78,0-6.18,10.82-6.8,12.98-1.44,4.64-2.27,10.61-2.68,15.56,0,.1-.1,2.58-.1,3.5,0,5.98,2.06,39.16,11.95,39.16Z"/><path class="h" d="M215.39,489.87c0-2.27,.62-20.2,.72-22.36v-55.13c.41-1.55,1.55-1.55,2.68-1.55,1.85,0,3.09,1.13,3.5,2.89v27.2l-1.34,52.35c-.62,1.03-2.16,1.44-3.19,1.44-1.55,0-2.47-2.58-2.47-3.71,0-.21,.1-1.13,.1-1.13Z"/><path class="h" d="M233.94,430.93l.21-1.03c1.44-7.52,4.74-19.78,13.09-19.78,13.09,0,15.56,11.44,16.69,22.46,.41,4.12,1.34,15.46,1.34,16.18,0,1.34-.93,16.59-1.34,21.64-.72,8.45-4.22,20.5-14.32,20.5-7.11,0-11.13-7.62-12.78-13.7-3.3-11.75-4.22-20.4-4.22-32.46,0-6.7,.21-7.62,1.34-13.81Zm16.07,55.13c4.84,0,7.32-12.57,7.83-15.66l.62-5.36c.82-7.01,.72-8.96,.72-15.66s-.41-10.92-1.44-18.86c-.62-5.26-2.78-15.66-10.1-15.66-2.78,0-6.18,10.82-6.8,12.98-1.44,4.64-2.27,10.61-2.68,15.56,0,.1-.1,2.58-.1,3.5,0,5.98,2.06,39.16,11.95,39.16Z"/><path class="h" d="M275.67,489.87c0-2.27,.62-20.2,.72-22.36v-55.13c.41-1.55,1.55-1.55,2.68-1.55,1.85,0,3.09,1.13,3.5,2.89v27.2l-1.34,52.35c-.62,1.03-2.16,1.44-3.19,1.44-1.55,0-2.47-2.58-2.47-3.71,0-.21,.1-1.13,.1-1.13Z"/></g></g></g></svg>