<svg id="a" xmlns="http://www.w3.org/2000/svg" xmlns:xlink="http://www.w3.org/1999/xlink" viewBox="0 0 1136.93 726.76"><defs><linearGradient id="bu" x1="-1272.14" y1="549.75" x2="-1272.14" y2="257.06" xlink:href="#c"/><linearGradient id="en" x1="-395.29" y1="206.82" x2="-326.8" y2="216.71" gradientTransform="rotate(-180 28.96 363)" xlink:href="#el"/><linearGradient id="c" x1="-1442.19" y1="751.59" x2="-1442.19" y2="458.88" gradientTransform="rotate(-180 -420.825 363)" gradientUnits="userSpaceOnUse"><stop offset="0" stop-color="#6c6c6c"/><stop offset=".5" stop-color="#b1b1b1"/><stop offset="1" stop-color="#686868"/></linearGradient><linearGradient id="d" x1="-1483.99" y1="626.64" x2="-1483.99" y2="550.12" xlink:href="#c"/><linearGradient id="e" x1="-1487.39" y1="619.54" x2="-1487.39" y2="564.99" xlink:href="#c"/><linearGradient id="f" y1="744.75" y2="452.02" xlink:href="#c"/><linearGradient id="g" x1="-1245" y1="659.73" x2="-1463.86" y2="552.45" xlink:href="#b"/><linearGradient id="h" y1="700.84" y2="408.12" xlink:href="#c"/><linearGradient id="i" x1="-1483.99" y1="575.88" x2="-1483.99" y2="499.39" xlink:href="#c"/><linearGradient id="j" x1="-1487.39" y1="568.79" x2="-1487.39" y2="514.24" xlink:href="#c"/><linearGradient id="k" y1="693.96" y2="401.31" xlink:href="#c"/><linearGradient id="l" x1="-1245.02" y1="608.99" x2="-1463.86" y2="501.71" xlink:href="#b"/><linearGradient id="m" y1="650.09" y2="357.37" xlink:href="#c"/><linearGradient id="n" x1="-1483.99" y1="525.14" x2="-1483.99" y2="448.62" xlink:href="#c"/><linearGradient id="o" x1="-1487.39" y1="518.04" x2="-1487.39" y2="463.48" xlink:href="#c"/><linearGradient id="p" y1="643.24" y2="350.54" xlink:href="#c"/><linearGradient id="q" x1="-1138.55" y1="622.83" x2="-1410.76" y2="489.39" xlink:href="#b"/><linearGradient id="r" x1="-1138.55" y1="622.83" x2="-1410.76" y2="489.39" gradientTransform="rotate(-180 -420.825 363)" gradientUnits="userSpaceOnUse"><stop offset="0" stop-color="#a3a3a3"/><stop offset=".5" stop-color="#969696"/><stop offset="1" stop-color="#848484"/></linearGradient><linearGradient id="s" x1="-1138.55" y1="608.96" x2="-1410.76" y2="475.53" xlink:href="#b"/><linearGradient id="t" x1="-1138.55" y1="608.96" x2="-1410.76" y2="475.53" xlink:href="#r"/><linearGradient id="u" x1="-1138.55" y1="595.12" x2="-1410.76" y2="461.68" xlink:href="#b"/><linearGradient id="v" x1="-1138.55" y1="595.12" x2="-1410.76" y2="461.68" xlink:href="#r"/><linearGradient id="w" x1="-1138.55" y1="581.27" x2="-1410.76" y2="447.83" xlink:href="#b"/><linearGradient id="x" x1="-1138.55" y1="581.27" x2="-1410.76" y2="447.83" xlink:href="#r"/><linearGradient id="y" x1="-1138.55" y1="567.41" x2="-1410.76" y2="433.97" xlink:href="#b"/><linearGradient id="z" x1="-1138.55" y1="567.41" x2="-1410.76" y2="433.97" xlink:href="#r"/><linearGradient id="aa" x1="-1138.54" y1="553.56" x2="-1410.76" y2="420.12" xlink:href="#b"/><linearGradient id="ab" x1="-1138.54" y1="553.56" x2="-1410.76" y2="420.12" xlink:href="#r"/><linearGradient id="ac" x1="-1138.55" y1="539.7" x2="-1410.77" y2="406.26" xlink:href="#b"/><linearGradient id="ad" x1="-1138.55" y1="539.7" x2="-1410.77" y2="406.26" xlink:href="#r"/><linearGradient id="ae" x1="-1138.55" y1="525.85" x2="-1410.77" y2="392.41" xlink:href="#b"/><linearGradient id="af" x1="-1138.55" y1="525.85" x2="-1410.77" y2="392.41" xlink:href="#r"/><linearGradient id="ag" x1="-1415.35" y1="611.91" x2="-1634.21" y2="504.63" xlink:href="#b"/><linearGradient id="ah" x1="-1612.54" y1="653.03" x2="-1612.54" y2="360.3" xlink:href="#c"/><linearGradient id="ai" x1="-1654.34" y1="528.08" x2="-1654.34" y2="451.55" xlink:href="#c"/><linearGradient id="aj" x1="-1657.73" y1="520.98" x2="-1657.73" y2="466.41" xlink:href="#c"/><linearGradient id="ak" x1="-1612.54" y1="646.17" x2="-1612.54" y2="353.45" xlink:href="#c"/><linearGradient id="al" x1="-1415.35" y1="561.16" x2="-1634.21" y2="453.87" xlink:href="#b"/><linearGradient id="am" x1="-1612.54" y1="602.28" x2="-1612.54" y2="309.55" xlink:href="#c"/><linearGradient id="an" x1="-1654.34" y1="477.3" x2="-1654.34" y2="400.82" xlink:href="#c"/><linearGradient id="ao" x1="-1657.73" y1="470.22" x2="-1657.73" y2="415.66" xlink:href="#c"/><linearGradient id="ap" x1="-1612.54" y1="595.4" x2="-1612.54" y2="302.74" xlink:href="#c"/><linearGradient id="aq" x1="-1415.34" y1="510.38" x2="-1634.19" y2="403.1" xlink:href="#b"/><linearGradient id="ar" x1="-1612.54" y1="551.52" x2="-1612.54" y2="258.8" xlink:href="#c"/><linearGradient id="as" x1="-1654.34" y1="426.57" x2="-1654.34" y2="350.04" xlink:href="#c"/><linearGradient id="at" x1="-1657.73" y1="419.48" x2="-1657.73" y2="364.91" xlink:href="#c"/><linearGradient id="au" x1="-1612.54" y1="544.66" x2="-1612.54" y2="251.98" xlink:href="#c"/><linearGradient id="av" x1="-1308.9" y1="524.25" x2="-1581.11" y2="390.82" xlink:href="#b"/><linearGradient id="aw" x1="-1308.9" y1="510.4" x2="-1581.11" y2="376.96" xlink:href="#b"/><linearGradient id="ax" x1="-1308.9" y1="496.55" x2="-1581.11" y2="363.11" xlink:href="#b"/><linearGradient id="ay" x1="-1308.9" y1="482.69" x2="-1581.11" y2="349.26" xlink:href="#b"/><linearGradient id="az" x1="-1308.9" y1="468.84" x2="-1581.11" y2="335.4" xlink:href="#b"/><linearGradient id="ba" x1="-1308.89" y1="454.98" x2="-1581.11" y2="321.55" xlink:href="#b"/><linearGradient id="bb" x1="-1308.89" y1="454.98" x2="-1581.11" y2="321.55" xlink:href="#r"/><linearGradient id="bc" x1="-1308.9" y1="441.12" x2="-1581.11" y2="307.69" xlink:href="#b"/><linearGradient id="bd" x1="-1308.9" y1="441.12" x2="-1581.11" y2="307.69" xlink:href="#r"/><linearGradient id="be" x1="-1308.9" y1="427.27" x2="-1581.11" y2="293.84" xlink:href="#b"/><linearGradient id="bf" x1="-1308.9" y1="427.27" x2="-1581.11" y2="293.84" xlink:href="#r"/><linearGradient id="bg" x1="-1074.95" y1="617" x2="-1293.81" y2="509.72" xlink:href="#b"/><linearGradient id="bh" x1="-1272.14" y1="658.11" x2="-1272.14" y2="365.39" xlink:href="#c"/><linearGradient id="bi" x1="-1313.94" y1="533.16" x2="-1313.94" y2="456.63" xlink:href="#c"/><linearGradient id="bj" x1="-1317.35" y1="526.06" x2="-1317.35" y2="471.49" xlink:href="#c"/><linearGradient id="bk" x1="-1272.14" y1="651.27" x2="-1272.14" y2="358.53" xlink:href="#c"/><linearGradient id="bl" x1="-1074.95" y1="566.24" x2="-1293.8" y2="458.96" xlink:href="#b"/><linearGradient id="bm" x1="-1272.14" y1="607.36" x2="-1272.14" y2="314.64" xlink:href="#c"/><linearGradient id="bn" x1="-1313.94" y1="482.39" x2="-1313.94" y2="405.91" xlink:href="#c"/><linearGradient id="bo" x1="-1317.35" y1="475.31" x2="-1317.35" y2="420.75" xlink:href="#c"/><linearGradient id="bp" x1="-1272.14" y1="600.48" x2="-1272.14" y2="307.83" xlink:href="#c"/><linearGradient id="bq" x1="-1074.95" y1="515.48" x2="-1293.8" y2="408.2" xlink:href="#b"/><linearGradient id="br" x1="-1272.14" y1="556.61" x2="-1272.14" y2="263.88" xlink:href="#c"/><linearGradient id="bs" x1="-1313.94" y1="431.65" x2="-1313.94" y2="355.13" xlink:href="#c"/><linearGradient id="bt" x1="-1317.35" y1="424.56" x2="-1317.35" y2="370" xlink:href="#c"/><linearGradient id="b" x1="-1245" y1="710.48" x2="-1463.85" y2="603.2" gradientTransform="rotate(-180 -420.825 363)" gradientUnits="userSpaceOnUse"><stop offset="0" stop-color="#c3c3c3"/><stop offset=".43" stop-color="#b6b6b6"/><stop offset="1" stop-color="#9e9e9e"/></linearGradient><linearGradient id="bv" x1="-968.5" y1="529.33" x2="-1240.71" y2="395.9" xlink:href="#b"/><linearGradient id="bw" x1="-968.5" y1="529.33" x2="-1240.71" y2="395.9" xlink:href="#r"/><linearGradient id="bx" x1="-968.5" y1="515.49" x2="-1240.72" y2="382.04" xlink:href="#b"/><linearGradient id="by" x1="-968.5" y1="515.49" x2="-1240.72" y2="382.04" xlink:href="#r"/><linearGradient id="bz" x1="-968.5" y1="501.63" x2="-1240.71" y2="368.19" xlink:href="#b"/><linearGradient id="ca" x1="-968.5" y1="501.63" x2="-1240.71" y2="368.19" xlink:href="#r"/><linearGradient id="cb" x1="-968.5" y1="487.77" x2="-1240.71" y2="354.34" xlink:href="#b"/><linearGradient id="cc" x1="-968.5" y1="487.77" x2="-1240.71" y2="354.34" xlink:href="#r"/><linearGradient id="cd" x1="-968.5" y1="473.92" x2="-1240.71" y2="340.48" xlink:href="#b"/><linearGradient id="ce" x1="-968.5" y1="473.92" x2="-1240.71" y2="340.48" xlink:href="#r"/><linearGradient id="cf" x1="-968.49" y1="460.08" x2="-1240.71" y2="326.63" xlink:href="#b"/><linearGradient id="cg" x1="-968.49" y1="460.08" x2="-1240.71" y2="326.63" xlink:href="#r"/><linearGradient id="ch" x1="-968.5" y1="446.21" x2="-1240.71" y2="312.77" xlink:href="#b"/><linearGradient id="ci" x1="-968.5" y1="446.21" x2="-1240.71" y2="312.77" xlink:href="#r"/><linearGradient id="cj" x1="-968.5" y1="432.36" x2="-1240.71" y2="298.92" xlink:href="#b"/><linearGradient id="ck" x1="-968.5" y1="432.36" x2="-1240.71" y2="298.92" xlink:href="#r"/><linearGradient id="cl" x1="-903.98" y1="523.12" x2="-1122.84" y2="415.84" xlink:href="#b"/><linearGradient id="cm" x1="-1101.19" y1="564.26" x2="-1101.19" y2="271.54" xlink:href="#c"/><linearGradient id="cn" x1="-1142.98" y1="439.31" x2="-1142.98" y2="362.79" xlink:href="#c"/><linearGradient id="co" x1="-1146.37" y1="432.21" x2="-1146.37" y2="377.65" xlink:href="#c"/><linearGradient id="cp" x1="-1101.19" y1="557.41" x2="-1101.19" y2="264.69" xlink:href="#c"/><linearGradient id="cq" x1="-904" y1="472.4" x2="-1122.85" y2="365.11" xlink:href="#b"/><linearGradient id="cr" x1="-1101.19" y1="513.51" x2="-1101.19" y2="220.78" xlink:href="#c"/><linearGradient id="cs" x1="-1142.98" y1="388.54" x2="-1142.98" y2="312.06" xlink:href="#c"/><linearGradient id="ct" x1="-1146.37" y1="381.46" x2="-1146.37" y2="326.9" xlink:href="#c"/><linearGradient id="cu" x1="-1101.19" y1="506.63" x2="-1101.19" y2="213.98" xlink:href="#c"/><linearGradient id="cv" x1="-904" y1="421.65" x2="-1122.85" y2="314.37" xlink:href="#b"/><linearGradient id="cw" x1="-1101.19" y1="462.75" x2="-1101.19" y2="170.03" xlink:href="#c"/><linearGradient id="cx" x1="-1142.98" y1="337.81" x2="-1142.98" y2="261.28" xlink:href="#c"/><linearGradient id="cy" x1="-1146.37" y1="330.72" x2="-1146.37" y2="276.15" xlink:href="#c"/><linearGradient id="cz" x1="-1101.19" y1="455.9" x2="-1101.19" y2="163.21" xlink:href="#c"/><linearGradient id="da" x1="-797.55" y1="435.49" x2="-1069.75" y2="302.05" xlink:href="#b"/><linearGradient id="db" x1="-797.55" y1="421.63" x2="-1069.75" y2="288.2" xlink:href="#b"/><linearGradient id="dc" x1="-797.55" y1="407.78" x2="-1069.75" y2="274.35" xlink:href="#b"/><linearGradient id="dd" x1="-797.55" y1="393.93" x2="-1069.75" y2="260.5" xlink:href="#b"/><linearGradient id="de" x1="-797.55" y1="380.07" x2="-1069.75" y2="246.64" xlink:href="#b"/><linearGradient id="df" x1="-797.54" y1="366.22" x2="-1069.75" y2="232.79" xlink:href="#b"/><linearGradient id="dg" x1="-797.55" y1="352.36" x2="-1069.75" y2="218.93" xlink:href="#b"/><linearGradient id="dh" x1="-797.55" y1="338.51" x2="-1069.75" y2="205.08" xlink:href="#b"/><linearGradient id="di" x1="-1245.3" y1="518.43" x2="-1464.15" y2="411.15" xlink:href="#b"/><linearGradient id="dj" x1="-1442.49" y1="559.54" x2="-1442.49" y2="266.82" xlink:href="#c"/><linearGradient id="dk" x1="-1484.28" y1="434.59" x2="-1484.28" y2="358.07" xlink:href="#c"/><linearGradient id="dl" x1="-1487.68" y1="427.5" x2="-1487.68" y2="372.93" xlink:href="#c"/><linearGradient id="dm" x1="-1442.49" y1="552.69" x2="-1442.49" y2="259.97" xlink:href="#c"/><linearGradient id="dn" x1="-1245.3" y1="467.67" x2="-1464.16" y2="360.39" xlink:href="#b"/><linearGradient id="do" x1="-1442.49" y1="508.79" x2="-1442.49" y2="216.06" xlink:href="#c"/><linearGradient id="dp" x1="-1484.28" y1="383.82" x2="-1484.28" y2="307.34" xlink:href="#c"/><linearGradient id="dq" x1="-1487.68" y1="376.74" x2="-1487.68" y2="322.18" xlink:href="#c"/><linearGradient id="dr" x1="-1442.49" y1="501.92" x2="-1442.49" y2="209.26" xlink:href="#c"/><linearGradient id="ds" x1="-1245.31" y1="416.92" x2="-1464.15" y2="309.65" xlink:href="#b"/><linearGradient id="dt" x1="-1442.49" y1="458.04" x2="-1442.49" y2="165.31" xlink:href="#c"/><linearGradient id="du" x1="-1484.28" y1="333.08" x2="-1484.28" y2="256.56" xlink:href="#c"/><linearGradient id="dv" x1="-1487.68" y1="325.99" x2="-1487.68" y2="271.42" xlink:href="#c"/><linearGradient id="dw" x1="-1442.49" y1="451.18" x2="-1442.49" y2="158.49" xlink:href="#c"/><linearGradient id="dx" x1="-1138.85" y1="430.77" x2="-1411.06" y2="297.34" xlink:href="#b"/><linearGradient id="dy" x1="-1138.85" y1="416.91" x2="-1411.06" y2="283.48" xlink:href="#b"/><linearGradient id="dz" x1="-1138.85" y1="403.06" x2="-1411.06" y2="269.62" xlink:href="#b"/><linearGradient id="ea" x1="-1138.85" y1="389.21" x2="-1411.06" y2="255.77" xlink:href="#b"/><linearGradient id="eb" x1="-1138.85" y1="375.35" x2="-1411.06" y2="241.91" xlink:href="#b"/><linearGradient id="ec" x1="-1138.84" y1="361.5" x2="-1411.06" y2="228.06" xlink:href="#b"/><linearGradient id="ed" x1="-1138.85" y1="347.64" x2="-1411.06" y2="214.21" xlink:href="#b"/><linearGradient id="ee" x1="-1138.85" y1="333.79" x2="-1411.06" y2="200.36" xlink:href="#b"/><linearGradient id="ef" x1="-967.88" y1="267.65" x2="-1240.1" y2="134.21" xlink:href="#b"/><linearGradient id="eg" x1="-967.89" y1="253.79" x2="-1240.1" y2="120.36" xlink:href="#b"/><linearGradient id="eh" x1="-967.9" y1="239.95" x2="-1240.11" y2="106.51" xlink:href="#b"/><linearGradient id="ei" x1="-1286.62" y1="429.81" x2="-1286.62" y2="292.9" xlink:href="#r"/><linearGradient id="ej" x1="-1087.52" y1="339.98" x2="-1269.84" y2="254.41" xlink:href="#r"/><linearGradient id="ek" x1="-363.03" y1="280.27" x2="-363.03" y2="199.49" gradientTransform="rotate(-180 28.96 363)" xlink:href="#b"/><linearGradient id="el" x1="3552.76" y1="197.22" x2="3582.77" y2="197.41" gradientTransform="matrix(1 0 0 -1 -3147.34 726)" gradientUnits="userSpaceOnUse"><stop offset="0" stop-color="#e3e3e3"/><stop offset=".41" stop-color="#d6d6d6"/><stop offset="1" stop-color="#bbb"/></linearGradient><linearGradient id="em" x1="-341.23" y1="220.99" x2="-395.76" y2="190.05" gradientTransform="rotate(-180 28.96 363)" xlink:href="#el"/><style>.fn{isolation:isolate}.fn,.he{fill:#fff}.hm{fill:#d2232a}.hz{fill:#082947}.fn,.ig{opacity:.6}.ii{fill:#646464}.ip{fill:none;stroke:#404040;stroke-linecap:round;stroke-linejoin:round}.je{fill:#ff3400}.jv{fill:#ccc}.jz{fill:#f7f7f7}.ip{stroke-width:3.07px}.kc{fill:#00d9ff}</style></defs><path class="ip" d="m95.56 725.23-.47-504.55.47 504.55z"/><path class="kc" d="M1075.79 210.72c-3.83-7.81-9.09-14.7-15.45-20.23-.61-8.95-3.02-17.64-7.05-25.47-10.32-20.64-28.42-32.52-41.84-28.11a86.19 86.19 0 0 0-6.09-15.77c-13.75-27.48-38.59-42.46-55.49-33.48-7.94 4.23-12.75 13-14.11 24-7.05-3.36-14.13-3.85-20.02-.72-13.6 7.24-15.64 31.02-4.58 53.13 5.04 10.09 11.95 18.08 19.26 23.07 8.71 5.98 109.44 69.33 117.52 74.2 8.08 4.87 16.47 6.08 23.26 2.46 13.6-7.18 15.65-30.97 4.59-53.07z"/><path d="M1130.48 404.93a54.352 54.352 0 0 0-14.01-16.85 51.474 51.474 0 0 0-6.38-21.21c-9.35-17.22-25.74-27.13-37.89-23.46a70.651 70.651 0 0 0-5.53-13.16c-12.45-22.93-34.95-35.44-50.26-27.94-7.19 3.53-11.52 10.85-12.79 20-6.38-2.77-12.8-3.21-18.14-.59-12.31 6.03-14.17 25.88-4.15 44.32 4.1 7.79 10.1 14.43 17.44 19.29 7.88 4.99 99.14 57.85 106.45 61.91 7.31 4.07 14.92 5.08 21.08 2.06 12.32-6.08 14.18-25.92 4.17-44.37z" style="fill:#7cd0e6"/><path d="M166.32 532.92 675.77 248.1l332.08 191.99L498.41 725 166.32 532.92z" style="fill:none;stroke:#404040;stroke-linecap:round;stroke-linejoin:round;stroke-width:3.21px"/><path class="jv" d="M765.99 76.25 565.54 59.92v285.14l103.76 60.15 96.69-54.99V76.25z"/><path class="hz" d="m669.32 120.03 103.77-60.11.73 285.86-104.51 59.44V120.03z"/><path class="jz" d="m669.32 0 103.77 59.92-103.77 59.98-103.78-59.98L669.32 0z"/><path class="hz" d="m668.73 13.8 77.29 44.38 2.4-1.36-77.29-44.39-2.4 1.37zM664.73 16.18l77.29 44.38 2.39-1.36-77.29-44.39-2.39 1.37zM660.72 18.42 738 62.79l2.4-1.36-77.28-44.38-2.39 1.37z"/><path d="M574.09 76.16c27.68 16.38 55.83 31.97 83.5 48.35v38.68c-27.67-16.38-55.81-31.97-83.48-48.34l-.02-38.69z" style="fill:url(#b)"/><path d="M622.41 110.11v4.25c-14.62-8.28-29.22-16.58-43.74-25.07v-4.25c14.51 8.44 29.11 16.78 43.74 25.07z" style="fill:url(#c);opacity:.8;isolation:isolate"/><path class="fn" d="m630.44 120.57 3.4 1.95v4.25l-3.4-1.94v-4.26zM637.24 128.74c1.36.77 2.04 1.18 3.4 1.96v4.25c-1.36-.79-2.04-1.19-3.4-1.96v-4.25zM650.85 132.29c1.36.79 2.04 1.21 3.4 2.01v4.25l-3.4-2.01v-4.25zM633.84 126.78l3.4 1.95v4.25l-3.4-1.96v-4.24z"/><path d="m640.64 126.39 3.4 1.97v4.25l-3.4-1.98v-4.24z" style="fill:url(#d);opacity:.8;isolation:isolate"/><path class="fn" d="m644.04 128.34 3.4 1.98v4.25l-3.4-1.96v-4.27zM647.44 134.62l3.4 2v4.25c-1.36-.81-2.05-1.2-3.4-1.99v-4.26z"/><path d="m644.04 132.63 3.4 1.98v4.25l-3.4-1.97v-4.26z" style="fill:url(#e);opacity:.8;isolation:isolate"/><path d="M622.41 116.95v4.25c-14.62-8.29-29.22-16.59-43.74-25.06v-4.25c14.51 8.49 29.11 16.79 43.74 25.06z" style="fill:url(#f);opacity:.8;isolation:isolate"/><path d="M574.09 126.91c27.68 16.38 55.83 31.97 83.5 48.35v38.68c-27.67-16.39-55.81-31.97-83.48-48.34l-.02-38.69z" style="fill:url(#g)"/><path d="M622.41 160.86v4.25c-14.62-8.28-29.22-16.59-43.74-25.06v-4.25c14.51 8.46 29.11 16.77 43.74 25.06z" style="fill:url(#h);opacity:.8;isolation:isolate"/><path class="fn" d="m630.44 171.32 3.4 1.95v4.25l-3.4-1.95v-4.25zM637.24 179.48c1.36.79 2.04 1.19 3.4 1.97v4.25l-3.4-1.96v-4.27zM650.85 183.04l3.4 2.02v4.25c-1.36-.81-2.04-1.2-3.4-2v-4.27zM633.84 177.53l3.4 1.94v4.25c-1.36-.79-2.04-1.16-3.4-1.96v-4.23z"/><path d="m640.64 177.14 3.4 1.96v4.25l-3.4-1.97v-4.24z" style="fill:url(#i);opacity:.8;isolation:isolate"/><path class="fn" d="m644.04 179.12 3.4 1.98v4.25l-3.4-1.98v-4.25zM647.44 185.37l3.4 2v4.25l-3.4-1.98v-4.27z"/><path d="m644.04 183.38 3.4 1.98v4.25l-3.4-1.97v-4.26z" style="fill:url(#j);opacity:.8;isolation:isolate"/><path d="M622.41 167.71v4.25c-14.62-8.28-29.22-16.59-43.74-25.06v-4.25c14.51 8.48 29.11 16.77 43.74 25.06z" style="fill:url(#k);opacity:.8;isolation:isolate"/><path d="M574.09 177.65c27.68 16.38 55.83 31.96 83.5 48.34v38.67c-27.67-16.38-55.81-31.96-83.48-48.34l-.02-38.68z" style="fill:url(#l)"/><path d="M622.41 211.6v4.25c-14.62-8.29-29.22-16.6-43.74-25.07v-4.25c14.51 8.49 29.11 16.79 43.74 25.07z" style="fill:url(#m);opacity:.8;isolation:isolate"/><path class="fn" d="m630.44 222.08 3.4 1.93v4.25l-3.4-1.94v-4.24zM637.24 230.24c1.36.78 2.04 1.18 3.4 1.96v4.25c-1.36-.79-2.04-1.19-3.4-1.96v-4.24zM650.85 233.77l3.4 2.01v4.25l-3.4-2.01v-4.25zM633.84 228.28l3.4 1.95v4.25l-3.4-1.94v-4.26z"/><path d="m640.64 227.89 3.4 1.96v4.25c-1.36-.8-2.04-1.2-3.4-1.98v-4.23z" style="fill:url(#n);opacity:.8;isolation:isolate"/><path class="fn" d="M644.04 229.88c1.36.79 2.03 1.19 3.4 1.97v4.25l-3.4-1.97v-4.25zM647.44 236.12l3.4 1.99v4.25l-3.4-2v-4.24z"/><path d="M644.04 234.13c1.36.78 2.03 1.18 3.4 1.98v4.25l-3.4-1.98v-4.25z" style="fill:url(#o);opacity:.8;isolation:isolate"/><path d="M622.41 218.46v4.25c-14.62-8.27-29.22-16.59-43.74-25.06v-4.25c14.51 8.47 29.11 16.77 43.74 25.06z" style="fill:url(#p);opacity:.8;isolation:isolate"/><path d="M574.76 232.93v5.64l81.22 47.09v-2.58l.02-3.49-79.98-45.89-1.26-.75z" style="fill:url(#q)"/><path d="M574.76 232.93v5.64l81.22 47.09v-2.58l-79.96-46.34v-3.05l-1.26-.75z" style="fill:url(#r)"/><path d="M574.76 246.78v5.63l81.22 47.09v-2.58l.02-3.5-79.98-45.89-1.26-.74z" style="fill:url(#s)"/><path d="M574.76 246.78v5.63l81.22 47.09v-2.58l-79.96-46.35v-3.05l-1.26-.74z" style="fill:url(#t)"/><path d="M574.76 260.64v5.63l81.22 47.09v-2.58l.02-3.5-79.98-45.89-1.26-.74z" style="fill:url(#u)"/><path d="M574.76 260.64v5.63l81.22 47.09v-2.58l-79.96-46.35v-3.05l-1.26-.74z" style="fill:url(#v)"/><path d="M574.76 274.49v5.64l81.22 47.09v-2.58l.02-3.5-79.98-45.89-1.26-.76z" style="fill:url(#w)"/><path d="M574.76 274.49v5.64l81.22 47.09v-2.58l-79.96-46.35v-3.04l-1.26-.76z" style="fill:url(#x)"/><path d="M574.76 288.34v5.63l81.22 47.09v-2.58l.02-3.49-79.98-45.89-1.26-.75z" style="fill:url(#y)"/><path d="M574.76 288.34v5.63l81.22 47.09v-2.58l-79.96-46.34v-3.05l-1.26-.75z" style="fill:url(#z)"/><path d="M574.76 302.19v5.64l81.22 47.09v-2.59l.02-3.49-79.98-45.89-1.26-.75z" style="fill:url(#aa)"/><path d="M574.76 302.19v5.64l81.22 47.09v-2.59l-79.96-46.34v-3.05l-1.26-.75z" style="fill:url(#ab)"/><path d="M574.76 316.05v5.64l81.22 47.09v-2.58l.02-3.51-79.98-45.88-1.26-.76z" style="fill:url(#ac)"/><path d="M574.76 316.05v5.64l81.22 47.09v-2.58l-79.96-46.35v-3.04l-1.26-.76z" style="fill:url(#ad)"/><path d="M574.76 329.9v5.64l81.22 47.09v-2.58l.02-3.5-79.98-45.89-1.26-.76z" style="fill:url(#ae)"/><path d="M574.76 329.9v5.64l81.22 47.09v-2.58l-79.96-46.35v-3.04l-1.26-.76z" style="fill:url(#af)"/><path class="jv" d="m936.34 174.82-200.45-16.33v285.14l103.76 60.16 96.69-54.99V174.82z"/><path class="hz" d="m839.67 218.6 103.77-60.11.73 285.85-104.51 59.45V218.6z"/><path class="jz" d="m839.67 98.57 103.77 59.92-103.77 59.98-103.78-59.98 103.78-59.92z"/><path class="hz" d="m839.08 112.37 77.29 44.37 2.4-1.36-77.29-44.39-2.4 1.38zM835.07 114.75l77.28 44.37 2.4-1.36-77.29-44.38-2.4 1.37zM831.07 116.99l77.29 44.38 2.4-1.37-77.28-44.37-2.4 1.36z"/><path d="M744.44 174.73c27.68 16.38 55.83 31.97 83.5 48.35v38.68c-27.67-16.38-55.81-31.97-83.48-48.34l-.02-38.69z" style="fill:url(#ag)"/><path d="M792.76 208.68v4.25c-14.62-8.28-29.23-16.58-43.74-25.06v-4.25c14.5 8.49 29.11 16.77 43.74 25.06z" style="fill:url(#ah);opacity:.8;isolation:isolate"/><path class="fn" d="m800.78 219.14 3.4 1.94v4.25l-3.4-1.95v-4.24zM807.58 227.31l3.4 1.96v4.25c-1.36-.78-2.04-1.19-3.4-1.96v-4.24zM821.19 230.86l3.4 2.01v4.25l-3.4-2.01v-4.25zM804.18 225.35l3.4 1.95v4.25l-3.4-1.96v-4.24z"/><path d="m810.99 224.95 3.4 1.97v4.25l-3.4-1.97v-4.25z" style="fill:url(#ai);opacity:.8;isolation:isolate"/><path class="fn" d="M814.39 226.97c1.36.8 2.04 1.19 3.4 1.98v4.25l-3.4-1.97v-4.26zM817.79 233.19l3.4 1.99v4.25l-3.4-1.98v-4.26z"/><path d="m814.39 231.22 3.4 1.98v4.25l-3.4-1.97v-4.26z" style="fill:url(#aj);opacity:.8;isolation:isolate"/><path d="M792.76 215.52v4.25c-14.62-8.28-29.23-16.59-43.74-25.06v-4.25c14.5 8.45 29.11 16.78 43.74 25.06z" style="fill:url(#ak);opacity:.8;isolation:isolate"/><path d="M744.44 225.49c27.68 16.38 55.83 31.96 83.5 48.34v38.69c-27.67-16.4-55.81-31.98-83.48-48.34l-.02-38.69z" style="fill:url(#al)"/><path d="M792.76 259.43v4.25c-14.62-8.29-29.23-16.59-43.74-25.07v-4.25c14.5 8.48 29.11 16.79 43.74 25.07z" style="fill:url(#am);opacity:.8;isolation:isolate"/><path class="fn" d="m800.78 269.89 3.4 1.95v4.25l-3.4-1.95v-4.25zM807.58 278.06l3.4 1.97v4.25l-3.4-1.96v-4.27zM821.19 281.6l3.4 2.02v4.25c-1.37-.85-2.05-1.2-3.4-2.01v-4.27zM804.18 276.1l3.4 1.95v4.25l-3.4-1.95v-4.25z"/><path d="m810.99 275.71 3.4 1.96v4.25l-3.4-1.96v-4.25z" style="fill:url(#an);opacity:.8;isolation:isolate"/><path class="fn" d="m814.39 277.7 3.4 1.98v4.25c-1.37-.79-2.05-1.18-3.4-1.98v-4.25zM817.79 283.93l3.4 2v4.25l-3.4-1.98v-4.27z"/><path d="M814.39 281.95c1.36.8 2.04 1.19 3.4 1.98v4.25c-1.36-.8-2.05-1.19-3.4-1.97v-4.26z" style="fill:url(#ao);opacity:.8;isolation:isolate"/><path d="M792.76 266.27v4.25c-14.62-8.28-29.2-16.63-43.74-25.06v-4.25c14.5 8.48 29.11 16.77 43.74 25.06z" style="fill:url(#ap);opacity:.8;isolation:isolate"/><path d="M744.44 276.28c27.68 16.38 55.83 31.97 83.5 48.35v38.67c-27.67-16.39-55.81-31.96-83.48-48.34l-.02-38.68z" style="fill:url(#aq)"/><path d="M792.76 310.18v4.25c-14.62-8.29-29.23-16.59-43.74-25.07v-4.25c14.5 8.48 29.11 16.78 43.74 25.07z" style="fill:url(#ar);opacity:.8;isolation:isolate"/><path class="fn" d="M800.78 320.65c1.36.77 2.04 1.15 3.4 1.93v4.25c-1.36-.79-2.04-1.17-3.4-1.95v-4.23zM807.58 328.81c1.36.78 2.04 1.19 3.4 1.96v4.25c-1.36-.8-2.04-1.19-3.4-1.96v-4.25zM821.19 332.39l3.4 2.01v4.25l-3.4-2.01v-4.25zM804.18 326.86l3.4 1.94v4.25l-3.4-1.94v-4.25z"/><path d="m810.99 326.44 3.4 1.96v4.25c-1.36-.8-2.04-1.19-3.4-1.97v-4.24z" style="fill:url(#as);opacity:.8;isolation:isolate"/><path class="fn" d="M814.39 328.45c1.36.8 2.04 1.19 3.4 1.98v4.25c-1.37-.78-2.05-1.18-3.4-1.97v-4.26zM817.79 334.69c1.35.8 2.04 1.19 3.4 2v4.25l-3.4-1.99v-4.26z"/><path d="M814.39 332.71c1.36.78 2.04 1.17 3.4 1.98v4.25c-1.36-.8-2.05-1.18-3.4-1.98v-4.25z" style="fill:url(#at);opacity:.8;isolation:isolate"/><path d="M792.76 317.03v4.25c-14.62-8.28-29.2-16.63-43.74-25.06v-4.25c14.5 8.46 29.11 16.77 43.74 25.06z" style="fill:url(#au);opacity:.8;isolation:isolate"/><path d="M745.11 331.49v5.64l81.22 47.09v-6.07l-79.98-45.9-1.25-.75z" style="fill:url(#av)"/><path class="hz" d="M745.11 331.49v5.64l81.22 47.09v-2.58l-79.97-46.35v-3.05l-1.25-.75z"/><path d="M745.11 345.35v5.63l81.22 47.09V392l-79.98-45.9-1.25-.74z" style="fill:url(#aw)"/><path class="hz" d="M745.11 345.35v5.63l81.22 47.09v-2.58l-79.97-46.35v-3.05l-1.25-.74z"/><path d="M745.11 359.2v5.63l81.22 47.09v-6.07l-79.98-45.9-1.25-.74z" style="fill:url(#ax)"/><path class="hz" d="M745.11 359.2v5.63l81.22 47.09v-2.58l-79.97-46.35v-3.05l-1.25-.74z"/><path d="M745.11 373.05v5.65l81.22 47.09v-6.08l-79.98-45.89-1.25-.76z" style="fill:url(#ay)"/><path class="hz" d="M745.11 373.05v5.65l81.22 47.09v-2.58l-79.97-46.35v-3.04l-1.25-.76z"/><path d="M745.11 386.91v5.64l81.22 47.09v-6.07l-79.98-45.9-1.25-.75z" style="fill:url(#az)"/><path class="hz" d="M745.11 386.91v5.64l81.22 47.09v-2.58l-79.97-46.35v-3.05l-1.25-.75z"/><path d="M745.11 400.76v5.64l81.22 47.09v-6.07l-79.98-45.9-1.25-.75z" style="fill:url(#ba)"/><path d="M745.11 400.76v5.64l81.22 47.09v-2.58l-79.97-46.35v-3.05l-1.25-.75z" style="fill:url(#bb)"/><path d="M745.11 414.62v5.65l81.22 47.09v-6.09l-79.98-45.89-1.25-.76z" style="fill:url(#bc)"/><path d="M745.11 414.62v5.65l81.22 47.09v-2.58l-79.97-46.36v-3.04l-1.25-.76z" style="fill:url(#bd)"/><path d="M745.11 428.47v5.65l81.22 47.09v-6.07l-79.98-45.89-1.25-.76z" style="fill:url(#be)"/><path d="M745.11 428.47v5.65l81.22 47.09v-2.58l-79.97-46.35v-3.04l-1.25-.76z" style="fill:url(#bf)"/><path class="je" d="m935.54 418.09-87.12 49.71v13.6l87.12-49.71v-13.6zM935.54 398.81l-87.12 49.72v13.6l87.12-49.72v-13.6zM935.54 379.55l-87.12 49.71v13.6l87.12-49.71v-13.6zM935.54 360.27l-87.12 49.72v13.6l87.12-49.72v-13.6zM935.54 341.01l-87.12 49.71v13.6l87.12-49.71v-13.6zM935.54 321.73l-87.12 49.72v13.6l87.12-49.72v-13.6zM935.54 302.47l-87.12 49.71v13.6l87.12-49.71v-13.6z"/><path class="ii" d="m935.54 283.19-87.12 49.71v13.6l87.12-49.71v-13.6zM935.54 263.92l-87.12 49.72v13.6l87.12-49.72v-13.6zM935.54 244.65l-87.12 49.71v13.6l87.12-49.71v-13.6zM935.54 225.38l-87.12 49.72v13.6l87.12-49.72v-13.6zM935.54 206.11l-87.12 49.71v13.6l87.12-49.71v-13.6zM935.54 186.84l-87.12 49.71v13.6l87.12-49.71v-13.6z"/><path d="M949.21 444.06a73.087 73.087 0 0 0-18.93-22.77 69.602 69.602 0 0 0-8.62-28.74c-12.64-23.27-34.8-36.67-51.23-31.71a94.242 94.242 0 0 0-7.46-17.78c-16.83-31-47.25-47.9-67.93-37.76-9.73 4.76-15.57 14.66-17.28 27.03-8.62-3.78-17.3-4.34-24.51-.85-16.64 8.15-19.15 34.98-5.61 59.92 6.18 11.38 14.63 20.41 23.59 26.07 10.65 6.74 133.99 78.22 143.88 83.69 9.89 5.47 20.16 6.85 28.48 2.78 16.64-8.12 19.16-34.94 5.62-59.87z" style="fill:#a7ddee"/><path class="jv" d="M595.94 169.74 395.49 153.4v285.14l103.76 60.16 96.69-55V169.74z"/><path class="hz" d="m499.27 213.52 103.77-60.12.73 285.86-104.5 59.45V213.52z"/><path class="jz" d="m499.27 93.49 103.77 59.91-103.77 59.99-103.78-59.99 103.78-59.91z"/><path class="hz" d="m498.67 107.29 77.29 44.37 2.4-1.36-77.29-44.39-2.4 1.38zM494.68 109.67l77.29 44.37 2.39-1.36-77.29-44.38-2.39 1.37zM490.67 111.91l77.28 44.38 2.4-1.37-77.29-44.37-2.39 1.36z"/><path d="M404.03 169.64c27.68 16.38 55.83 31.97 83.5 48.35v38.68c-27.67-16.38-55.81-31.97-83.48-48.34l-.02-38.69z" style="fill:url(#bg)"/><path d="M452.36 203.59v4.25c-14.62-8.28-29.22-16.58-43.74-25.06v-4.25c14.51 8.48 29.11 16.77 43.74 25.06z" style="fill:url(#bh);opacity:.8;isolation:isolate"/><path class="fn" d="M460.4 214.05c1.35.78 2.03 1.17 3.4 1.95v4.25c-1.37-.77-2.05-1.17-3.4-1.95v-4.25zM467.2 222.23l3.4 1.96v4.25c-1.36-.79-2.05-1.19-3.4-1.96v-4.24zM480.8 225.78c1.36.79 2.04 1.21 3.4 2.01v4.25l-3.4-2.01v-4.25zM463.8 220.27l3.4 1.94v4.25c-1.36-.77-2.04-1.16-3.4-1.96v-4.23z"/><path d="m470.6 219.87 3.4 1.97v4.25c-1.36-.79-2.03-1.19-3.4-1.97v-4.25z" style="fill:url(#bi);opacity:.8;isolation:isolate"/><path class="fn" d="m474 221.87 3.4 1.98v4.25l-3.4-1.98v-4.25zM477.4 228.11l3.4 1.99v4.25l-3.4-1.99v-4.25z"/><path d="m474 226.12 3.4 1.98v4.25l-3.4-1.98v-4.25z" style="fill:url(#bj);opacity:.8;isolation:isolate"/><path d="M452.36 210.44v4.25c-14.62-8.29-29.22-16.59-43.74-25.06v-4.25c14.51 8.48 29.11 16.78 43.74 25.06z" style="fill:url(#bk);opacity:.8;isolation:isolate"/><path d="M404.03 220.4c27.68 16.38 55.83 31.96 83.5 48.34v38.69c-27.67-16.4-55.81-31.98-83.48-48.35l-.02-38.68z" style="fill:url(#bl)"/><path d="M452.36 254.34v4.25c-14.62-8.29-29.22-16.59-43.74-25.07v-4.25c14.51 8.48 29.11 16.79 43.74 25.07z" style="fill:url(#bm);opacity:.8;isolation:isolate"/><path class="fn" d="m460.4 264.81 3.4 1.94V271c-1.37-.77-2.05-1.17-3.4-1.95v-4.24zM467.2 272.97l3.4 1.97v4.25c-1.36-.77-2.05-1.16-3.4-1.96v-4.27zM480.8 276.52l3.4 2.02v4.25c-1.36-.85-2.04-1.21-3.4-2.01v-4.26zM463.8 271.02l3.4 1.95v4.25l-3.4-1.95v-4.25z"/><path d="m470.6 270.63 3.4 1.96v4.25c-1.36-.79-2.03-1.19-3.4-1.97v-4.24z" style="fill:url(#bn);opacity:.8;isolation:isolate"/><path class="fn" d="m474 272.61 3.4 1.97v4.25l-3.4-1.98v-4.24zM477.4 278.83l3.4 2v4.25l-3.4-1.98v-4.27z"/><path d="m474 276.87 3.4 1.98v4.25c-1.36-.8-2.04-1.19-3.4-1.97v-4.26z" style="fill:url(#bo);opacity:.8;isolation:isolate"/><path d="M452.36 261.19v4.25c-14.62-8.27-29.22-16.59-43.74-25.06v-4.25c14.51 8.49 29.11 16.77 43.74 25.06z" style="fill:url(#bp);opacity:.8;isolation:isolate"/><path d="M404.03 271.18c27.68 16.38 55.83 31.97 83.5 48.35v38.66c-27.67-16.38-55.81-31.96-83.48-48.34l-.02-38.68z" style="fill:url(#bq)"/><path d="M452.36 305.09v4.25c-14.62-8.29-29.22-16.59-43.74-25.07v-4.25c14.51 8.48 29.11 16.78 43.74 25.07z" style="fill:url(#br);opacity:.8;isolation:isolate"/><path class="fn" d="m460.4 315.56 3.4 1.93v4.25l-3.4-1.95v-4.23zM467.2 323.72l3.4 1.96v4.25c-1.36-.8-2.05-1.19-3.4-1.96v-4.25zM480.8 327.29l3.4 2.01v4.25l-3.4-2.01v-4.25zM463.8 321.77l3.4 1.94v4.25l-3.4-1.94v-4.25z"/><path d="m470.6 321.34 3.4 1.96v4.25c-1.36-.8-2.03-1.19-3.4-1.97v-4.24z" style="fill:url(#bs);opacity:.8;isolation:isolate"/><path class="fn" d="m474 323.36 3.4 1.98v4.25l-3.4-1.97v-4.26zM477.4 329.6l3.4 2v4.25l-3.4-1.99v-4.26z"/><path d="m474 327.62 3.4 1.97v4.25l-3.4-1.98v-4.24z" style="fill:url(#bt);opacity:.8;isolation:isolate"/><path d="M452.36 311.99v4.25c-14.62-8.27-29.2-16.62-43.74-25.06v-4.25c14.51 8.42 29.11 16.72 43.74 25.06z" style="fill:url(#bu);opacity:.8;isolation:isolate"/><path d="M404.71 326.41v5.64l81.22 47.09v-2.58l.02-3.49-79.98-45.9-1.26-.75z" style="fill:url(#bv)"/><path d="M404.71 326.41v5.64l81.22 47.09v-2.58l-79.96-46.35v-3.05l-1.26-.75z" style="fill:url(#bw)"/><path d="M404.71 340.27v5.63l81.22 47.09v-2.58l.02-3.49-79.98-45.9-1.26-.74z" style="fill:url(#bx)"/><path d="M404.71 340.27v5.63l81.22 47.09v-2.58l-79.96-46.35v-3.05l-1.26-.74z" style="fill:url(#by)"/><path d="M404.71 354.12v5.63l81.22 47.09v-2.58l.02-3.49-79.98-45.9-1.26-.74z" style="fill:url(#bz)"/><path d="M404.71 354.12v5.63l81.22 47.09v-2.58l-79.96-46.35v-3.05l-1.26-.74z" style="fill:url(#ca)"/><path d="M404.71 367.97v5.65l81.22 47.09v-2.58l.02-3.5-79.98-45.89-1.26-.76z" style="fill:url(#cb)"/><path d="M404.71 367.97v5.65l81.22 47.09v-2.58l-79.96-46.35v-3.04l-1.26-.76z" style="fill:url(#cc)"/><path d="M404.71 381.83v5.64l81.22 47.09v-2.58l.02-3.5-79.98-45.89-1.26-.75z" style="fill:url(#cd)"/><path d="M404.71 381.83v5.64l81.22 47.09v-2.58l-79.96-46.35v-3.05l-1.26-.75z" style="fill:url(#ce)"/><path d="M404.71 395.68v5.64l81.22 47.09v-2.58l.02-3.49-79.98-45.9-1.26-.75z" style="fill:url(#cf)"/><path d="M404.71 395.68v5.64l81.22 47.09v-2.58l-79.96-46.35v-3.05l-1.26-.75z" style="fill:url(#cg)"/><path d="M404.71 409.53v5.65l81.22 47.08v-2.57l.02-3.51-79.98-45.89-1.26-.76z" style="fill:url(#ch)"/><path d="M404.71 409.53v5.65l81.22 47.08v-2.57l-79.96-46.36v-3.04l-1.26-.76z" style="fill:url(#ci)"/><path d="M404.71 423.38v5.65l81.22 47.08v-2.58l.02-3.49-79.98-45.89-1.26-.76z" style="fill:url(#cj)"/><path d="M404.71 423.38v5.65l81.22 47.08v-2.58l-79.96-46.35v-3.04l-1.26-.76z" style="fill:url(#ck)"/><path class="jv" d="m424.98 263.59-200.44-16.33V532.4l103.76 60.16 96.68-54.99V263.59z"/><path class="hz" d="m328.31 307.36 103.77-60.11.73 285.85-104.51 59.45V307.36z"/><path class="jz" d="m328.31 187.34 103.78 59.92-103.77 59.98-103.78-59.98 103.77-59.92z"/><path class="hz" d="m327.72 201.14 77.29 44.37 2.39-1.36-77.28-44.39-2.4 1.38zM323.71 203.52 401 247.89l2.4-1.36-77.29-44.38-2.4 1.37zM319.71 205.75 397 250.13l2.4-1.37-77.29-44.37-2.4 1.36z"/><path d="M233.08 263.53c27.68 16.39 55.83 31.97 83.5 48.35v38.68c-27.67-16.38-55.81-31.97-83.48-48.34l-.02-38.69z" style="fill:url(#cl)"/><path d="M281.41 297.44v4.25c-14.62-8.28-29.23-16.58-43.74-25.06v-4.25c14.5 8.48 29.11 16.77 43.74 25.06z" style="fill:url(#cm);opacity:.8;isolation:isolate"/><path class="fn" d="m289.42 307.91 3.4 1.94v4.25l-3.4-1.95v-4.24zM296.23 316.08l3.4 1.96v4.25c-1.36-.78-2.04-1.19-3.4-1.96v-4.24zM309.83 319.64l3.4 2.01v4.25l-3.4-2.01v-4.25zM292.83 314.11l3.4 1.95v4.25l-3.4-1.96v-4.24z"/><path d="m299.64 313.69 3.4 1.98v4.25l-3.4-1.97v-4.26z" style="fill:url(#cn);opacity:.8;isolation:isolate"/><path class="fn" d="m303.03 315.71 3.4 1.97v4.25l-3.4-1.97v-4.25zM306.43 321.95l3.4 1.99v4.25c-1.36-.8-2.05-1.19-3.4-1.98v-4.26z"/><path d="m303.03 319.96 3.4 1.98v4.25l-3.4-1.97v-4.26z" style="fill:url(#co);opacity:.8;isolation:isolate"/><path d="M281.41 304.29v4.25c-14.62-8.28-29.23-16.59-43.74-25.06v-4.25c14.5 8.49 29.11 16.78 43.74 25.06z" style="fill:url(#cp);opacity:.8;isolation:isolate"/><path d="M233.08 314.25c27.68 16.38 55.83 31.96 83.5 48.35v38.68c-27.67-16.4-55.81-31.98-83.48-48.34l-.02-38.69z" style="fill:url(#cq)"/><path d="M281.41 348.19v4.25c-14.62-8.29-29.23-16.59-43.74-25.07v-4.25c14.5 8.48 29.11 16.79 43.74 25.07z" style="fill:url(#cr);opacity:.8;isolation:isolate"/><path class="fn" d="m289.42 358.66 3.4 1.95v4.25l-3.4-1.95v-4.25zM296.23 366.82l3.4 1.97v4.25l-3.4-1.96v-4.27zM309.83 370.36l3.4 2.02v4.25l-3.4-2.01v-4.27zM292.83 364.86l3.4 1.95v4.25l-3.4-1.95v-4.25z"/><path d="m299.64 364.47 3.4 1.96v4.25l-3.4-1.96v-4.25z" style="opacity:.8;isolation:isolate;fill:url(#cs)"/><path class="fn" d="m303.03 366.46 3.4 1.98v4.25l-3.4-1.98v-4.25zM306.43 372.7l3.4 2v4.25l-3.4-1.98v-4.27z"/><path d="m303.03 370.72 3.4 1.97v4.25c-1.36-.8-2.04-1.19-3.4-1.97v-4.25z" style="fill:url(#ct);opacity:.8;isolation:isolate"/><path d="M281.41 355.04v4.25c-14.62-8.28-29.23-16.6-43.74-25.06v-4.25c14.5 8.49 29.11 16.78 43.74 25.06z" style="fill:url(#cu);opacity:.8;isolation:isolate"/><path d="M233.08 365c27.68 16.38 55.83 31.97 83.5 48.35v38.67c-27.67-16.39-55.81-31.96-83.48-48.34l-.02-38.68z" style="fill:url(#cv)"/><path d="M281.41 398.94v4.25c-14.62-8.28-29.23-16.59-43.74-25.07v-4.25c14.5 8.48 29.11 16.78 43.74 25.07z" style="fill:url(#cw);opacity:.8;isolation:isolate"/><path class="fn" d="M289.42 409.42c1.36.77 2.04 1.15 3.4 1.93v4.25c-1.36-.79-2.04-1.17-3.4-1.95v-4.23zM296.23 417.57c1.36.78 2.04 1.19 3.4 1.96v4.25c-1.36-.8-2.04-1.19-3.4-1.96v-4.25zM309.83 421.12l3.4 2.01v4.25l-3.4-2.01v-4.25zM292.83 415.62l3.4 1.95v4.25l-3.4-1.94v-4.26z"/><path d="m299.64 415.22 3.4 1.96v4.25c-1.36-.8-2.04-1.19-3.4-1.97v-4.24z" style="fill:url(#cx);opacity:.8;isolation:isolate"/><path class="fn" d="m303.03 417.21 3.4 1.98v4.25l-3.4-1.97v-4.26zM306.43 423.45c1.36.8 2.05 1.19 3.4 2v4.25l-3.4-1.99v-4.26z"/><path d="M303.03 421.47c1.36.78 2.04 1.17 3.4 1.98v4.25l-3.4-1.98v-4.25z" style="fill:url(#cy);opacity:.8;isolation:isolate"/><path d="M281.41 405.79v4.25c-14.62-8.26-29.2-16.62-43.74-25.06v-4.25c14.5 8.46 29.11 16.77 43.74 25.06z" style="fill:url(#cz);opacity:.8;isolation:isolate"/><path d="M233.75 420.26v5.64l81.22 47.09v-6.07l-79.98-45.9-1.25-.75z" style="fill:url(#da)"/><path class="hz" d="M233.75 420.26v5.64l81.22 47.09v-2.58L235 424.06v-3.05l-1.25-.75z"/><path d="M233.75 434.11v5.63l81.22 47.09v-6.07l-79.98-45.9-1.25-.74z" style="fill:url(#db)"/><path class="hz" d="M233.75 434.11v5.63l81.22 47.09v-2.58L235 437.9v-3.05l-1.25-.74z"/><path d="M233.75 447.96v5.63l81.22 47.1v-6.08l-79.98-45.9-1.25-.74z" style="fill:url(#dc)"/><path class="hz" d="M233.75 447.96v5.63l81.22 47.1v-2.59L235 451.75v-3.05l-1.25-.74z"/><path d="M233.75 461.81v5.65l81.22 47.09v-6.08l-79.98-45.89-1.25-.76z" style="fill:url(#dd)"/><path class="hz" d="M233.75 461.81v5.65l81.22 47.09v-2.58L235 465.62v-3.04l-1.25-.76z"/><path d="M233.75 475.67v5.64l81.22 47.09v-6.07l-79.98-45.9-1.25-.75z" style="fill:url(#de)"/><path class="hz" d="M233.75 475.67v5.64l81.22 47.09v-2.58L235 479.47v-3.05l-1.25-.75z"/><path d="M233.75 489.52v5.64l81.22 47.09v-6.07l-79.98-45.9-1.25-.75z" style="fill:url(#df)"/><path class="hz" d="M233.75 489.52v5.64l81.22 47.09v-2.58L235 493.32v-3.05l-1.25-.75z"/><path d="M233.75 503.38v5.65l81.22 47.09v-6.09l-79.98-45.89-1.25-.76z" style="fill:url(#dg)"/><path class="hz" d="M233.75 503.38v5.65l81.22 47.09v-2.58L235 507.18v-3.04l-1.25-.76z"/><path d="M233.75 517.23v5.65l81.22 47.09v-6.07l-79.98-45.89-1.25-.76z" style="fill:url(#dh)"/><path class="hz" d="M233.75 517.23v5.65l81.22 47.09v-2.58L235 521.04V518l-1.25-.76z"/><path class="jv" d="m766.29 268.3-200.45-16.33v285.14l103.76 60.16 96.69-54.99V268.3z"/><path class="hz" d="m669.62 312.08 103.77-60.11.73 285.85-104.51 59.45V312.08z"/><path class="jz" d="m669.62 192.06 103.77 59.92-103.77 59.98-103.78-59.98 103.78-59.92z"/><path class="hz" d="m669.02 205.86 77.29 44.38 2.4-1.37-77.29-44.38-2.4 1.37zM665.02 208.24l77.28 44.38 2.4-1.37-77.29-44.38-2.4 1.37zM661.01 210.48l77.29 44.37 2.4-1.37-77.29-44.37-2.4 1.37z"/><path d="M574.38 268.21c27.68 16.39 55.83 31.97 83.5 48.35v38.69c-27.67-16.39-55.81-31.98-83.48-48.34l-.02-38.69z" style="fill:url(#di)"/><path d="M622.71 302.16v4.25c-14.62-8.29-29.23-16.58-43.74-25.07v-4.25c14.5 8.49 29.11 16.79 43.74 25.07z" style="fill:url(#dj);opacity:.8;isolation:isolate"/><path class="fn" d="m630.73 312.63 3.4 1.95v4.25l-3.4-1.95v-4.25zM637.53 320.8c1.36.77 2.04 1.17 3.4 1.96v4.25l-3.4-1.96v-4.25zM651.13 324.35l3.4 2v4.25l-3.4-2.01v-4.24zM634.13 318.83l3.4 1.95v4.25l-3.4-1.95v-4.25z"/><path d="m640.94 318.44 3.4 1.97v4.25l-3.4-1.97v-4.25z" style="fill:url(#dk);opacity:.8;isolation:isolate"/><path class="fn" d="m644.33 320.43 3.4 1.98v4.25c-1.37-.79-2.05-1.19-3.4-1.96v-4.27zM647.74 326.67l3.4 1.99v4.25c-1.36-.81-2.05-1.2-3.4-1.99v-4.25z"/><path d="M644.33 324.68c1.36.8 2.04 1.19 3.4 1.98v4.25l-3.4-1.97v-4.26z" style="fill:url(#dl);opacity:.8;isolation:isolate"/><path d="M622.71 309v4.25c-14.62-8.28-29.23-16.59-43.74-25.06v-4.25c14.5 8.49 29.11 16.78 43.74 25.06z" style="fill:url(#dm);opacity:.8;isolation:isolate"/><path d="M574.38 318.97c27.68 16.38 55.83 31.97 83.5 48.35V406c-27.67-16.4-55.81-31.97-83.48-48.34l-.02-38.69z" style="fill:url(#dn)"/><path d="M622.71 352.91v4.25c-14.62-8.28-29.23-16.59-43.74-25.07v-4.25c14.5 8.48 29.11 16.79 43.74 25.07z" style="fill:url(#do);opacity:.8;isolation:isolate"/><path class="fn" d="m630.73 363.38 3.4 1.95v4.25l-3.4-1.94v-4.26zM637.53 371.5c1.36.78 2.04 1.19 3.4 1.97v4.25l-3.4-1.95v-4.28zM651.13 375.09l3.4 2.02v4.25l-3.4-2.01v-4.26zM634.13 369.58l3.4 1.95v4.25l-3.4-1.95v-4.25z"/><path d="m640.94 369.19 3.4 1.96v4.25c-1.36-.8-2.04-1.19-3.4-1.97v-4.24z" style="fill:url(#dp);opacity:.8;isolation:isolate"/><path class="fn" d="M644.33 371.18c1.36.8 2.04 1.19 3.4 1.98v4.25l-3.4-1.97v-4.26zM647.74 377.46l3.4 2.01v4.25l-3.4-1.98v-4.28z"/><path d="m644.33 375.44 3.4 1.98v4.25c-1.36-.8-2.05-1.19-3.4-1.97v-4.26z" style="fill:url(#dq);opacity:.8;isolation:isolate"/><path d="M622.71 359.75V364c-14.62-8.28-29.23-16.6-43.74-25.06v-4.25c14.5 8.49 29.11 16.78 43.74 25.06z" style="fill:url(#dr);opacity:.8;isolation:isolate"/><path d="M574.38 369.72c27.68 16.38 55.83 31.97 83.5 48.35v38.67c-27.67-16.38-55.81-31.96-83.48-48.34l-.02-38.69z" style="fill:url(#ds)"/><path d="M622.71 403.66v4.25c-14.62-8.28-29.23-16.59-43.74-25.07v-4.25c14.5 8.48 29.11 16.78 43.74 25.07z" style="fill:url(#dt);opacity:.8;isolation:isolate"/><path class="fn" d="m630.73 414.13 3.4 1.93v4.25c-1.36-.79-2.04-1.17-3.4-1.95v-4.23zM637.53 422.3c1.36.78 2.04 1.18 3.4 1.96v4.25c-1.36-.79-2.04-1.19-3.4-1.96v-4.24zM651.13 425.84l3.4 2.01v4.25c-1.37-.85-2.05-1.21-3.4-2.01v-4.25zM634.13 420.34l3.4 1.95v4.25l-3.4-1.93v-4.27z"/><path d="m640.94 419.97 3.4 1.96v4.25l-3.4-1.97v-4.23z" style="fill:url(#du);opacity:.8;isolation:isolate"/><path class="fn" d="M644.33 421.93c1.36.8 2.04 1.19 3.4 1.98v4.25l-3.4-1.97v-4.26zM647.74 428.18l3.4 1.99v4.25l-3.4-2v-4.24z"/><path d="M644.33 426.19c1.36.78 2.04 1.17 3.4 1.98v4.25l-3.4-1.97v-4.26z" style="fill:url(#dv);opacity:.8;isolation:isolate"/><path d="M622.71 410.51v4.25c-14.62-8.27-29.23-16.59-43.74-25.06v-4.25c14.5 8.47 29.11 16.77 43.74 25.06z" style="fill:url(#dw);opacity:.8;isolation:isolate"/><path d="M575.06 424.97v5.64l81.22 47.09v-6.07l-79.97-45.9-1.26-.75z" style="fill:url(#dx)"/><path class="hz" d="M575.06 424.97v5.64l81.22 47.09v-2.58l-79.96-46.34v-3.06l-1.26-.75z"/><path d="M575.06 438.83v5.63l81.22 47.1v-6.08l-79.97-45.89-1.26-.75z" style="fill:url(#dy)"/><path class="hz" d="M575.06 438.83v5.63l81.22 47.1v-2.59l-79.96-46.34v-3.05l-1.26-.75z"/><path d="M575.06 452.69v5.62l81.22 47.1v-6.08l-79.97-45.89-1.26-.74z" style="fill:url(#dz)"/><path class="hz" d="M575.06 452.69v5.62l81.22 47.1v-2.59l-79.96-46.34v-3.05l-1.26-.74z"/><path d="M575.06 466.54v5.64l81.22 47.09v-6.08l-79.97-45.89-1.26-.75z" style="fill:url(#ea)"/><path class="hz" d="M575.06 466.54v5.64l81.22 47.09v-2.58l-79.96-46.35v-3.05l-1.26-.75z"/><path d="M575.06 480.4v5.63l81.22 47.09v-6.07l-79.97-45.89-1.26-.75z" style="fill:url(#eb)"/><path class="hz" d="M575.06 480.4v5.63l81.22 47.09v-2.58l-79.96-46.35v-3.04l-1.26-.75z"/><path d="M575.06 494.25v5.63l81.22 47.1v-6.08l-79.97-45.89-1.26-.75z" style="fill:url(#ec)"/><path class="hz" d="M575.06 494.25v5.63l81.22 47.1v-2.59l-79.96-46.34V495l-1.26-.75z"/><path d="M575.06 508.1v5.65l81.22 47.09v-6.09l-79.97-45.89-1.26-.76z" style="fill:url(#ed)"/><path class="hz" d="M575.06 508.1v5.65l81.22 47.09v-2.58l-79.96-46.35v-3.04l-1.26-.76z"/><path d="M575.06 521.96v5.64l81.22 47.09v-6.07l-79.97-45.89-1.26-.75z" style="fill:url(#ee)"/><path class="hz" d="M575.06 521.96v5.64l81.22 47.09v-2.58l-79.96-46.35v-3.04l-1.26-.75z"/><path class="jv" d="m595.33 362.15-200.45-16.33v285.15l103.77 60.15 96.68-54.99V362.15z"/><path class="hz" d="m498.66 405.93 103.77-60.11.72 285.86-104.5 59.44V405.93z"/><path class="jz" d="m498.66 285.9 103.78 59.92-103.77 59.98-103.79-59.98 103.78-59.92z"/><path class="hz" d="m498.07 299.7 77.29 44.38 2.39-1.37-77.28-44.38-2.4 1.37zM494.06 302.08l77.29 44.38 2.4-1.37-77.29-44.38-2.4 1.37zM490.06 304.33l77.28 44.37 2.4-1.37-77.29-44.37-2.39 1.37z"/><path d="M404.1 588.1v5.64l81.22 47.09v-6.09l-79.97-45.89-1.25-.75z" style="fill:url(#ef)"/><path class="hz" d="M404.1 588.1v5.64l81.22 47.09v-2.59l-79.97-46.34v-3.05l-1.25-.75z"/><path d="M404.1 601.96v5.64l81.22 47.09v-6.09l-79.97-45.89-1.25-.75z" style="fill:url(#eg)"/><path class="hz" d="M404.1 601.96v5.64l81.22 47.09v-2.58l-79.97-46.35v-3.04l-1.25-.75z"/><path d="M404.1 615.81v5.64l81.22 47.09v-6.08l-79.97-45.89-1.25-.76z" style="fill:url(#eh)"/><path class="hz" d="M404.1 615.81v5.64l81.22 47.09v-2.58l-79.97-46.35v-3.04l-1.25-.76zM408.42 421.48l72.13 43.23-.03 72.27-72.11-43.22v-72.29z"/><path d="M402.99 500v-89.66l83.97 50.33v89.66l-83.97-50.32zm1.11-87.57v86.82l81.75 49.01v-86.82l-81.75-49.01z" style="fill:url(#ei)"/><path d="M408.42 421.48v72.29l72.11 43.22v-6.9l-67.78-40.62v-65.38l-4.33-2.59z" style="fill:url(#ej)"/><path d="m408.42 497.63 72.11 39.36v3.72l-47.02 19.46-72.13-43.09v-3.73l47.04-15.72z" style="fill:url(#ek)"/><path class="jz" d="m408.42 493.88 72.11 43.09-47.02 19.45-72.13-43.08 47.04-19.46z"/><g class="ig"><g class="ig"><path class="he" d="M468.88 465.98v7.36l2.21 1.31v-7.37l-2.21-1.3zM460.78 461.17v7.34l2.21 1.32v-7.34l-2.21-1.32zM456.73 458.76v7.31l2.2 1.32v-7.33l-2.2-1.3zM452.68 456.37v7.29l2.21 1.32v-7.33l-2.21-1.28zM428.37 441.94v7.19l2.19 1.32v-7.2l-2.19-1.31zM424.32 439.55v7.18l2.22 1.32v-7.19l-2.22-1.3z"/></g><g class="ig"><path class="he" d="M464.83 463.83v7.36l2.2 1.3v-7.36l-2.2-1.3zM456.73 459.02v7.33l2.2 1.33v-7.34l-2.2-1.32zM452.68 456.61v7.31l2.2 1.3v-7.31l-2.2-1.3zM448.63 454.2v7.3l2.2 1.33v-7.32l-2.2-1.31zM436.45 447v7.24l2.23 1.3v-7.24l-2.23-1.3zM424.3 439.79v7.19l2.2 1.32v-7.19l-2.2-1.32zM420.27 437.4v7.18l2.21 1.3v-7.19l-2.21-1.28z"/></g><g class="ig"><path class="he" d="M444.62 451.59v7.36l2.22 1.3v-7.35l-2.22-1.32zM436.5 446.77v7.34l2.2 1.32v-7.34l-2.2-1.32zM432.45 444.37v7.33l2.23 1.3v-7.33l-2.23-1.3zM428.42 441.96v7.31l2.21 1.32v-7.31l-2.21-1.32z"/></g><g class="ig"><path class="he" d="M422.48 478.8v-7.38l-2.21-1.28v7.36l2.21 1.3zM430.56 483.61v-7.34l-2.19-1.32v7.34l2.19 1.32zM434.63 486.02v-7.33l-2.21-1.3v7.31l2.21 1.32zM438.68 488.41v-7.29l-2.23-1.32v7.32l2.23 1.29zM450.83 495.63v-7.25l-2.2-1.31v7.24l2.2 1.32zM462.99 502.83v-7.18l-2.21-1.32v7.18l2.21 1.32zM467.03 505.23v-7.18l-2.2-1.31v7.18l2.2 1.3z"/></g><g class="ig"><path class="he" d="M438.69 488.55v-7.35l-2.21-1.32v7.34l2.21 1.33zM442.75 490.93v-7.31l-2.2-1.31v7.32l2.2 1.3zM446.79 493.35v-7.31l-2.22-1.33v7.33l2.22 1.31zM458.94 500.55v-7.24l-2.21-1.31v7.24l2.21 1.31zM471.09 507.77v-7.19l-2.19-1.33v7.21l2.19 1.32z"/></g><g class="ig"><path class="he" d="M422.48 467.41v-7.37l-2.21-1.3v7.36l2.21 1.31zM430.56 472.21v-7.34l-2.19-1.32v7.35l2.19 1.31zM434.63 474.63v-7.31l-2.21-1.32v7.32l2.21 1.31zM438.68 477.03v-7.32l-2.23-1.32v7.31l2.23 1.33zM450.83 484.23v-7.24l-2.2-1.31v7.24l2.2 1.31zM462.99 491.44v-7.2l-2.21-1.32v7.21l2.21 1.31zM467.03 493.84v-7.18l-2.2-1.32v7.19l2.2 1.3z"/></g><g class="ig"><path class="he" d="M426.54 469.56v-7.37l-2.22-1.3v7.36l2.22 1.31zM434.63 474.38v-7.34l-2.21-1.33v7.35l2.21 1.32zM438.69 476.78v-7.31l-2.21-1.31v7.31l2.21 1.31zM442.74 479.18v-7.29l-2.22-1.33v7.32l2.22 1.3zM467.04 493.6v-7.18l-2.2-1.32v7.18l2.2 1.32z"/></g><g class="ig"><path class="he" d="M422.48 456.47v-7.36l-2.21-1.3v7.36l2.21 1.3zM430.56 461.29v-7.34l-2.19-1.32v7.34l2.19 1.32zM434.63 463.69v-7.32l-2.21-1.3v7.32l2.21 1.3zM438.68 466.09v-7.29l-2.23-1.33v7.31l2.23 1.31zM450.83 473.31v-7.24l-2.2-1.33v7.24l2.2 1.33zM462.99 480.51v-7.19l-2.21-1.32v7.19l2.21 1.32zM467.03 482.92v-7.18l-2.2-1.31v7.19l2.2 1.3z"/></g><g class="ig"><path class="he" d="M426.54 458.63v-7.37l-2.22-1.31v7.37l2.22 1.31zM434.63 463.46v-7.35l-2.21-1.31v7.34l2.21 1.33zM438.69 465.84v-7.31l-2.21-1.3v7.31l2.21 1.3zM442.74 468.25v-7.3l-2.22-1.33v7.31l2.22 1.32zM454.89 475.45v-7.24l-2.21-1.3v7.24l2.21 1.3zM467.04 482.67v-7.19l-2.2-1.31v7.19l2.2 1.31zM471.09 485.07v-7.18l-2.21-1.31v7.18l2.21 1.31z"/></g><g class="ig"><path class="he" d="M446.75 470.87v-7.36l-2.22-1.3v7.36l2.22 1.3zM454.84 475.68v-7.34l-2.21-1.32v7.34l2.21 1.32zM458.9 478.09v-7.32l-2.21-1.3v7.31l2.21 1.31z"/></g></g><path d="M401.94 521.36c-.32-.14-.69-.14-1.01 0-3.67 1.49-7.35 2.98-11.05 4.46-.29.12-.33.34-.09.48 5.63 3.31 11.26 6.6 16.89 9.88.32.16.69.18 1.02.06 3.74-1.46 7.48-2.93 11.22-4.41.31-.1.34-.33.09-.48-5.69-3.34-11.38-6.67-17.08-9.98z" style="fill:url(#el)"/><path d="M410.76 499.67c-.62-.26-1.31-.26-1.93 0-7 2.96-13.96 5.95-20.95 8.9-.56.24-.65.65-.18.93 19.4 11.38 38.92 22.56 58.3 34.01.61.29 1.3.31 1.93.08 7.03-2.83 14.02-5.8 20.98-8.88.57-.26.66-.68.2-.98-19.27-11.73-38.8-22.91-58.35-34.05z" style="fill:url(#em)"/><path d="M468.9 534.75c-.05.04-.11.07-.18.09-19.2-11.72-38.65-22.85-58.14-33.95-.61-.26-1.3-.26-1.9 0-6.94 2.93-13.86 5.86-20.77 8.8l-.22-.13c-.47-.27-.38-.69.18-.93 6.99-2.98 13.95-5.95 20.95-8.9.62-.26 1.31-.26 1.93 0 19.56 11.14 39.11 22.29 58.35 34.06.48.25.39.67-.2.96z" style="fill:url(#en)"/><path class="hz" d="m412.09 508.19-2.55 1.05c16.15 9.35 32.37 18.65 48.39 28.26.99-.42 1.48-.63 2.47-1.06-15.98-9.64-32.15-18.98-48.31-28.24zM405.28 503.84c-.99.43-1.47.65-2.47 1.06l4.65 2.68c.99-.43 1.49-.65 2.5-1.06l-4.68-2.68zM410.23 501.94l-2.51 1.07 4.68 2.66 2.5-1.05-4.68-2.68zM415.73 505.13c-1.01.42-1.5.63-2.55 1.06l4.72 2.69c1.01-.43 1.51-.63 2.55-1.07-1.88-1.08-2.84-1.62-4.72-2.68zM421.29 508.39c-1.02.42-1.52.63-2.55 1.06 1.89 1.07 2.83 1.62 4.74 2.71 1.01-.43 1.52-.65 2.55-1.06l-4.74-2.71zM426.82 511.59l-2.55 1.07c1.9 1.09 2.86 1.62 4.77 2.73l2.55-1.08c-1.91-1.08-2.85-1.67-4.77-2.72zM432.4 514.85c-1.02.43-1.51.65-2.55 1.06 1.91 1.1 2.88 1.65 4.79 2.75 1.01-.42 1.51-.65 2.55-1.08-1.9-1.1-2.87-1.65-4.79-2.74zM437.99 518.12l-2.55 1.08c1.9 1.11 2.86 1.65 4.76 2.76l2.55-1.07-4.76-2.77zM443.54 521.43c-.99.43-1.5.65-2.51 1.08l4.78 2.78c.99-.43 1.5-.65 2.51-1.07-1.9-1.13-2.87-1.68-4.78-2.79zM449.12 524.74l-2.55 1.09 4.74 2.78c1-.43 1.5-.64 2.49-1.07-1.84-1.11-2.75-1.67-4.68-2.8zM454.65 528.07l-2.55 1.08 4.72 2.8 2.48-1.08c-1.83-1.11-2.76-1.68-4.65-2.8zM460.12 531.41l-2.47 1.08c1.87 1.11 2.81 1.7 4.66 2.8.99-.43 1.47-.64 2.46-1.09-1.82-1.11-2.78-1.67-4.64-2.79zM401.03 505.79c-.98.43-1.49.64-2.45 1.06 18.52 10.7 37.09 21.32 55.49 32.31.99-.41 1.47-.61 2.47-1.05-18.4-11.02-36.96-21.64-55.51-32.33zM397.48 507.43c-.98.42-1.45.64-2.46 1.05 18.44 10.72 36.91 21.32 55.26 32.25l2.48-1.05c-18.32-10.94-36.83-21.56-55.29-32.26zM393.8 508.92c-.97.42-1.47.62-2.45 1.03 18.38 10.77 36.86 21.36 55.17 32.23 1.01-.4 1.5-.6 2.49-1.02-18.33-10.92-36.81-21.51-55.21-32.24z"/><path class="hm" d="M440.52 449.15v7.24l2.22 1.3v-7.23l-2.22-1.32zM430.59 483.72v-7.36l-2.21-1.3v7.36l2.21 1.3zM454.89 486.38v-7.24l-2.21-1.28v7.23l2.21 1.3zM471.09 496v-7.18l-2.21-1.33v7.21l2.21 1.3zM462.95 480.48v-7.29l-2.21-1.32v7.33l2.21 1.28z"/><path class="ip" d="m95.56 725.23 231.89-98.81-231.89 98.81z"/><path class="je" d="m594.93 606.71-87.12 49.72v13.6l87.12-49.72v-13.6zM594.93 587.44l-87.12 49.71v13.6l87.12-49.71v-13.6zM594.93 568.17l-87.12 49.71v13.6l87.12-49.71v-13.6zM594.93 548.89l-87.12 49.72v13.6l87.12-49.72v-13.6zM594.93 529.63l-87.12 49.71v13.6l87.12-49.71v-13.6z"/><path class="ii" d="m594.93 510.35-87.12 49.72v13.6l87.12-49.72v-13.6zM594.93 491.09l-87.12 49.71v13.6l87.12-49.71v-13.6zM594.93 471.81l-87.12 49.72v13.6l87.12-49.72v-13.6zM594.93 452.55l-87.12 49.71v13.6l87.12-49.71v-13.6zM594.93 433.27l-87.12 49.72v13.6l87.12-49.71v-13.6zM594.93 414.01l-87.12 49.71v13.6l87.12-49.71v-13.6zM594.93 394.73l-87.12 49.71v13.6l87.12-49.71v-13.6zM594.93 375.46l-87.12 49.72v13.6l87.12-49.72v-13.6z"/><path class="je" d="m765.94 512.46-87.13 49.71v13.6l87.13-49.71v-13.6zM765.94 493.19l-87.13 49.72v13.6l87.13-49.72v-13.6zM765.94 473.92l-87.13 49.71v13.6l87.13-49.71v-13.6zM765.94 454.65l-87.13 49.72v13.6l87.13-49.72v-13.6zM765.94 435.38l-87.13 49.71v13.6l87.13-49.71v-13.6zM765.94 416.11l-87.13 49.71v13.6l87.13-49.71v-13.6zM765.94 396.84l-87.13 49.71v13.6l87.13-49.72v-13.6zM765.94 377.57l-87.13 49.71v13.6l87.13-49.71v-13.6zM765.94 358.29l-87.13 49.72v13.6l87.13-49.72v-13.6zM765.94 339.03l-87.13 49.71v13.6l87.13-49.71v-13.6zM765.94 319.75l-87.13 49.72v13.6l87.13-49.72v-13.6z"/><path class="ii" d="m765.94 300.48-87.13 49.71v13.6l87.13-49.71v-13.6zM765.94 281.21l-87.13 49.71v13.6l87.13-49.71v-13.6z"/><path class="kc" d="M985.08 678.18a57.163 57.163 0 0 0-14.75-17.75 53.97 53.97 0 0 0-6.73-22.39c-9.84-18.14-27.11-28.58-39.92-24.72a73.813 73.813 0 0 0-5.82-13.89c-13.11-24.15-36.82-37.32-52.94-29.43-7.58 3.71-12.15 11.43-13.47 21.07-6.72-2.95-13.49-3.38-19.09-.63-12.97 6.36-14.93 27.26-4.34 46.69 4.82 8.87 11.4 15.9 18.38 20.32 8.31 5.26 104.43 60.94 112.14 65.23 7.71 4.29 15.71 5.35 22.2 2.16 12.94-6.33 14.9-27.23 4.35-46.66z"/><circle class="kc" cx="95.68" cy="596.76" r="95.07"/><path class="he" d="M95.41 661.39a176.49 176.49 0 0 1-21.88-18.99C43 611.04 47.12 561.94 47.12 561.94l48.69-19.72 48.69 19.72s4.13 49.1-26.41 80.46a176.123 176.123 0 0 1-21.84 18.99"/><path class="kc" d="M190.16 140.86c0 52.51-42.57 95.07-95.07 95.07h-.17c-52.51-.08-95-42.71-94.92-95.22.08-52.5 42.72-95 95.22-94.92 52.45.08 94.92 42.62 94.92 95.07h.02z"/><path class="he" d="m156.49 117.14-72.02 50.39v.09l-.06-.06c-5.84 5.84-5.84 15.31 0 21.15 5.84 5.84 15.31 5.84 21.15 0l-.05-.05h.07l50.91-71.52z"/><path class="je" d="m150.28 107.94-33.79 23.48c-10.48-13.77-22.52-23.14-41.14-23.14-22.88 0-39.11 8.5-48.31 27.9 6.2-37.24 41.42-62.4 78.66-56.2 18 3 34.05 13.06 44.58 27.96z"/><g><circle class="kc" cx="96.26" cy="363.3" r="95.07"/><path class="je" d="M132.52 373.42c14.75-20.19 10.33-48.52-9.86-63.26-20.19-14.75-48.52-10.33-63.26 9.86-11.67 15.98-11.61 37.68.14 53.6l-21.73 21.73 24.16 3.57 3.57 24.16 30.61-30.61 30.25 30.26 3.57-24.16 24.16-3.57-21.61-21.58z"/><path class="he" d="m113.74 371.38-17.78-10.72-17.79 10.72 4.71-20.23-15.7-13.6 20.69-1.78 8.09-19.12 8.09 19.12 20.69 1.78-15.7 13.6 4.7 20.23z"/></g><path class="je" d="M95.41 661.39a176.49 176.49 0 0 1-21.88-18.99C43 611.04 47.12 561.94 47.12 561.94l48.69-19.72.44 119.17"/></svg>