<svg id="a" xmlns="http://www.w3.org/2000/svg" viewBox="0 0 1139.96 724.47"><defs><style>.b{fill:#fff}.c{fill:#cce6ff}.d{fill:#e6515c}.f{fill:#ffc0b1}.h{fill:#3c94f8}.i{fill:#0c203f}.j{fill:#102a54}.k{fill:#80c0ff}</style></defs><path d="M56.9 724.47C21.92 713.76-.69 669.07.02 626.19c1.53-92.26 77.29-144.07 136.13-184.63 13.6-9.37 27.84-19.75 34.89-36.44 0-.01 0-.02.02-.04 20.76-49.18-17.92-119.17-22.24-170.22-6.18-73.03 8.79-157.57 61.28-202.98 95.47-82.6 183.65 15.21 266.04 68.6 77.36 50.14 143.3 15.52 218.24-19.36 65.97-30.71 142.89-44.58 212.93-27.64 38.01 9.19 74.81 29.48 101.81 62.56 38.26 46.89 53.59 115.98 49.24 179.97-3.64 53.5-29.43 99.07-38.79 150.71-11.69 64.51 11.55 88.64 54.96 122.18 42.97 33.2 80.56 96.34 59.34 151.76l-1076.96 3.8z" style="fill:#f4f7fd"/><path class="c" d="M640.71 269.66c-35.11 0-68.11 13.67-92.94 38.5s-38.5 57.83-38.5 92.94 13.67 68.11 38.5 92.94c24.83 24.82 57.83 38.5 92.94 38.5s68.11-13.67 92.94-38.5 38.5-57.83 38.5-92.94-13.67-68.11-38.5-92.94-57.83-38.5-92.94-38.5zm0 264.26c-17.93 0-35.32-3.51-51.7-10.44-15.82-6.69-30.02-16.27-42.22-28.46-12.2-12.2-21.77-26.4-28.46-42.22-6.93-16.38-10.44-33.77-10.44-51.7s3.51-35.32 10.44-51.7c6.69-15.82 16.27-30.02 28.46-42.22 12.2-12.2 26.4-21.77 42.22-28.46 16.38-6.93 33.77-10.44 51.7-10.44s35.32 3.51 51.7 10.44c15.82 6.69 30.02 16.27 42.22 28.46 12.2 12.2 21.77 26.4 28.46 42.22 6.93 16.38 10.44 33.77 10.44 51.7s-3.51 35.32-10.44 51.7c-6.69 15.82-16.27 30.02-28.46 42.22-12.2 12.2-26.4 21.77-42.22 28.46-16.38 6.93-33.77 10.44-51.7 10.44z"/><path class="c" d="M515.4 275.78c-16.36 16.36-29.15 35.38-38.01 56.33-9.17 21.7-13.9 44.98-13.9 68.99s4.73 47.29 13.9 68.99c8.86 20.95 21.65 39.97 38.01 56.33s35.38 29.15 56.33 38.01c21.7 9.17 44.98 13.9 68.99 13.9s47.29-4.73 68.99-13.9c20.95-8.86 39.97-21.65 56.33-38.01s29.15-35.38 38.01-56.33c9.17-21.7 13.9-44.98 13.9-68.99s-4.73-47.29-13.9-68.99c-8.86-20.95-21.65-39.97-38.01-56.33s-35.38-29.15-56.33-38.01c-21.7-9.17-44.98-13.9-68.99-13.9s-47.29 4.73-68.99 13.9c-20.95 8.86-39.97 21.65-56.33 38.01zm125.32 303.93c-24.11 0-47.5-4.72-69.52-14.04-21.27-9-40.37-21.87-56.77-38.28-16.4-16.4-29.28-35.5-38.28-56.77-9.31-22.02-14.04-45.41-14.04-69.52s4.72-47.5 14.04-69.52c9-21.27 21.87-40.37 38.28-56.77 16.4-16.4 35.5-29.28 56.77-38.28 22.02-9.31 45.41-14.04 69.52-14.04s47.5 4.72 69.52 14.04c21.27 9 40.37 21.87 56.77 38.28 16.4 16.4 29.28 35.5 38.28 56.77 9.31 22.02 14.04 45.41 14.04 69.52s-4.72 47.5-14.04 69.52c-9 21.27-21.87 40.37-38.28 56.77-16.4 16.4-35.5 29.28-56.77 38.28-22.02 9.31-45.41 14.04-69.52 14.04z"/><path class="c" d="M483.02 243.4c-20.52 20.52-36.61 44.41-47.81 70.89-11.59 27.42-17.51 56.66-17.51 86.81s5.92 59.39 17.51 86.81c11.2 26.48 27.29 50.37 47.81 70.89 20.52 20.52 44.41 36.61 70.89 47.81 27.42 11.59 56.66 17.51 86.81 17.51s59.39-5.92 86.81-17.51c26.48-11.2 50.37-27.29 70.89-47.81 20.52-20.52 36.61-44.41 47.81-70.89 11.59-27.42 17.51-56.66 17.51-86.81s-5.92-59.39-17.51-86.81c-11.2-26.48-27.29-50.37-47.81-70.89-20.52-20.52-44.41-36.61-70.89-47.81-27.42-11.59-56.66-17.51-86.81-17.51s-59.39 5.92-86.81 17.51c-26.48 11.2-50.37 27.29-70.89 47.81zm157.7 382.1c-30.29 0-59.68-5.93-87.35-17.63-26.72-11.3-50.72-27.48-71.33-48.09-20.61-20.61-36.79-44.61-48.09-71.33-11.7-27.67-17.64-57.05-17.64-87.35s5.93-59.68 17.64-87.35c11.3-26.72 27.48-50.72 48.09-71.33 20.61-20.61 44.61-36.79 71.33-48.09 27.67-11.7 57.05-17.64 87.35-17.64s59.68 5.93 87.35 17.64c26.72 11.3 50.72 27.48 71.33 48.09 20.61 20.61 36.79 44.61 48.09 71.33 11.7 27.67 17.63 57.05 17.63 87.35s-5.93 59.68-17.63 87.35c-11.3 26.72-27.48 50.72-48.09 71.33-20.61 20.61-44.61 36.79-71.33 48.09-27.67 11.7-57.05 17.63-87.35 17.63z"/><path class="c" d="M640.71 132.29c-36.29 0-71.49 7.11-104.63 21.12-32.01 13.54-60.76 32.92-85.44 57.61-24.69 24.69-44.07 53.43-57.61 85.44-14.02 33.14-21.12 68.34-21.12 104.63s7.11 71.49 21.12 104.63c13.54 32.01 32.92 60.76 57.61 85.44 24.69 24.69 53.43 44.07 85.44 57.61 33.14 14.02 68.34 21.12 104.63 21.12s71.49-7.11 104.63-21.12c32.01-13.54 60.76-32.92 85.44-57.61 24.69-24.69 44.07-53.44 57.61-85.44 14.02-33.14 21.12-68.34 21.12-104.63s-7.11-71.49-21.12-104.63c-13.54-32.01-32.92-60.76-57.61-85.44-24.69-24.69-53.43-44.07-85.44-57.61-33.14-14.02-68.34-21.12-104.63-21.12zm0 539c-36.48 0-71.86-7.14-105.17-21.23-32.17-13.61-61.07-33.09-85.88-57.9-24.81-24.81-44.3-53.71-57.9-85.88-14.09-33.31-21.23-68.7-21.23-105.17s7.14-71.86 21.23-105.17c13.61-32.17 33.09-61.07 57.9-85.88 24.81-24.81 53.71-44.3 85.88-57.9 33.31-14.09 68.7-21.23 105.17-21.23s71.86 7.14 105.17 21.23c32.17 13.61 61.07 33.09 85.88 57.9 24.81 24.81 44.3 53.71 57.9 85.88 14.09 33.31 21.23 68.7 21.23 105.17s-7.14 71.86-21.23 105.17c-13.61 32.17-33.09 61.07-57.9 85.88-24.81 24.81-53.71 44.3-85.88 57.9-33.31 14.09-68.7 21.23-105.17 21.23z"/><circle class="k" cx="417.77" cy="424.17" r="9.68" transform="rotate(-76.72 417.741 424.164)"/><circle class="k" cx="894.31" cy="494.03" r="7"/><circle class="k" cx="632.32" cy="131.97" r="12.21"/><circle class="k" cx="769.44" cy="377.04" r="5.64" transform="rotate(-45 769.443 377.036)"/><circle class="k" cx="570.61" cy="238.37" r="6.79"/><g><path class="f" d="m408.2 566.56-24.46-30.51c-3.13 2.48-4.15 6.79-2.44 10.4l6.64 14.07-39.62-12.33c-3.26-.85-6.49 1.5-6.67 4.87l-.32 5.69c-.62 11.19 7.59 20.93 18.72 22.22l27.85 3.23 12.12 1.32 8.18-18.96z"/><path class="j" d="M389.79 575.89c-.26 0-.51-.12-.66-.35-4.67-6.93-2.06-14.94-1.94-15.28.14-.42.59-.64 1.01-.5.42.14.64.59.5 1.01-.03.08-2.47 7.61 1.75 13.88.25.36.15.86-.22 1.1-.14.09-.29.14-.44.14z"/><path class="f" d="m533.83 594.73-18.26 26.09-110.08-57.72-10.96 21.04 97.55 76.51a41.49 41.49 0 0 0 29.07 8.7 41.503 41.503 0 0 0 29.15-15.7l29.77-37.87-46.24-21.05z"/><path class="j" d="M523.35 644.37h-.04a.786.786 0 0 1-.75-.83c.69-13.76-7.47-22.07-7.55-22.15a.79.79 0 0 1 0-1.12.79.79 0 0 1 1.12 0c.36.35 8.75 8.86 8.02 23.36-.02.43-.37.76-.79.76zM583.18 496.8l-65.85 99.81 55.68 28.16 10.17-127.97z"/><g><path class="h" d="M613.61 481h82.05c17.3 0 32.11 12.41 35.14 29.44l37.57 210.95H568.25l8.2-204.68c.8-19.95 17.2-35.71 37.17-35.71z"/><path class="f" d="M620.46 481c0 17.46 14.15 31.61 31.61 31.61s31.61-14.15 31.61-31.61h-63.21z"/><path class="f" d="M652.81 501.01c10.76 0 19.23-9.16 18.4-19.89l-5-64.26h-26.09l-5.7 64.05c-.96 10.8 7.54 20.09 18.38 20.09z"/><path class="f" d="M671.04 363.29h-82.53l.69 5.12c2.38 17.7 3.14 35.59 1.95 53.4-.57 8.52.04 18.68 4.3 26.89 8.34 16.11 27.77 23.32 44.25 15.74 16.61-7.64 42.32-31.59 31.34-101.15z"/><path class="j" d="M624.71 423.67h-7.62c-1.21 0-2.32-.55-3.05-1.51s-.96-2.18-.64-3.34l6.61-23.87c.13-.46.61-.73 1.07-.61.46.13.73.61.61 1.07l-6.61 23.87c-.18.63-.05 1.3.35 1.82.4.52 1.01.82 1.66.82h7.62a.87.87 0 0 1 0 1.74z"/><circle class="j" cx="635.08" cy="397.66" r="4.19"/><circle class="j" cx="605.19" cy="396.83" r="4.19"/><path class="j" d="M635.75 466.83a.87.87 0 0 1-.27-1.7c.12-.04 11.68-3.9 19.41-12.99a.872.872 0 1 1 1.33 1.13c-8.05 9.47-19.7 13.35-20.19 13.51-.09.03-.18.04-.27.04zM694.63 363.29c-9.04-23.13-26.47-23.12-30.18-22.85 6.1-3.85 10.16-10.65 10.16-18.4 0-12.02-9.74-21.76-21.76-21.76s-21.76 9.74-21.76 21.76c0 3.21.7 6.25 1.95 9-6.98.05-13.98 1.42-20.6 4.1-33.2 13.45-23.93 36.91-23.93 36.91 22.25 14.11 51.52 5.54 66.87-.76l2.67 26.37 5.94 26.29 4.2 18.6s36.58-53.28 26.42-79.26z"/><path class="j" d="M614.12 390.54c-.45 0-.91-.14-1.31-.43-8.98-6.54-14.52-1.41-14.75-1.18-.87.87-2.27.85-3.14-.02-.87-.87-.85-2.28.02-3.15 2.84-2.83 10.78-6.31 20.49.76.99.72 1.21 2.11.49 3.1a2.2 2.2 0 0 1-1.8.91zM642.94 390.68c-.45 0-.91-.14-1.31-.43-8.98-6.54-14.52-1.41-14.75-1.18-.87.87-2.27.85-3.14-.02-.87-.87-.85-2.28.02-3.15 2.84-2.83 10.78-6.31 20.49.76.99.72 1.21 2.11.49 3.1a2.2 2.2 0 0 1-1.8.91z"/><path class="b" d="M607.66 430.84s8.64 1.42 17.05.05c0 0-.43 11.04-12.26 9.23-8.73-1.33-4.79-9.28-4.79-9.28z"/><path class="j" d="M614.43 441.12c-4.62 0-7.06-2.57-7.19-2.7a.695.695 0 0 1 1.02-.94c.13.14 3.22 3.34 9.21 1.87 5.94-1.46 6.54-8.45 6.55-8.52a.7.7 0 0 1 .74-.64.7.7 0 0 1 .64.74c0 .08-.7 8.06-7.6 9.75-1.23.3-2.35.43-3.37.43z"/><path class="h" d="M671.26 384.88c8.27 1.25 14.65 9.22 14.65 18.86 0 10.51-7.58 19.03-16.92 19.03s-16.92-8.52-16.92-19.03 7.58-19.03 16.92-19.03c.77 0 1.53.06 2.27.17"/><path class="j" d="M667.55 422.7c-.1 0-.2-.02-.3-.06-6.84-2.66-11.43-10.26-11.43-18.9 0-10.95 7.43-19.87 16.56-19.87.46 0 .84.37.84.84s-.38.84-.84.84c-8.21 0-14.88 8.16-14.88 18.19 0 7.96 4.17 14.92 10.37 17.34.43.17.64.65.48 1.08-.13.33-.45.53-.78.53zM656.89 414.54a.869.869 0 0 0-1.07.6c-.05.16-4.39 15.02-16.96 24.04-1.22-1.75-4.95-2.04-8.78-.58-4.16 1.59-6.86 4.65-6.02 6.83.83 2.18 4.88 2.65 9.04 1.06 3.32-1.27 5.71-3.48 6.11-5.42 13.57-9.27 18.09-24.74 18.29-25.45a.869.869 0 0 0-.6-1.07z"/><path class="h" d="M665.13 385.21s-2.05-44.42-52.68-50.07c0 0 7.08-3.4 17-3.96 0 0 42.05 10.87 39.54 53.53l-3.86.5z"/><ellipse class="j" cx="672.37" cy="403.33" rx="4.51" ry="5.66"/><g><path class="j" d="M652.07 512.6s9.44 23.57 24.81 17.59 16.22-49.2 16.22-49.2h-9.43s-2.63 26.39-31.61 31.61zM651.61 512.6s-9.44 23.57-24.81 17.59-16.22-49.2-16.22-49.2h9.43s2.63 26.39 31.61 31.61z"/></g><path class="j" d="M660.71 722.25a.87.87 0 0 1-.87-.83l-9.1-208.78c-.02-.48.35-.88.83-.91.47-.03.88.35.91.83l9.1 208.78c.02.48-.35.88-.83.91h-.04z"/><circle class="j" cx="663.43" cy="553.64" r="4.58" transform="rotate(-45 663.425 553.64)"/><circle class="j" cx="665.29" cy="596.61" r="4.58" transform="rotate(-45 665.284 596.61)"/><circle class="j" cx="667.15" cy="639.59" r="4.58"/><circle class="j" cx="669.01" cy="682.56" r="4.58" transform="rotate(-45 669.014 682.555)"/></g><path class="j" d="m720.82 491.37 87.17 90.55-58.7 39.67s-59.05-53.25-28.47-130.22z"/><g><path class="f" d="m917.17 539.91 19.04-34.15c3.5 1.92 5.22 6 4.14 9.85l-4.2 14.98 37.02-18.75c3.08-1.38 6.65.4 7.39 3.69l1.26 5.56c2.47 10.93-4 21.9-14.76 25.03l-26.93 7.82-11.73 3.31-11.22-17.33z"/><path class="j" d="M936.75 546.06c-.11 0-.22-.02-.33-.07-.4-.18-.58-.65-.4-1.05 3.13-6.9-.54-13.91-.58-13.98a.796.796 0 0 1 .33-1.08c.39-.21.87-.06 1.08.33.17.31 4.08 7.77.62 15.39-.13.29-.42.47-.72.47z"/><path class="f" d="m797.98 588.58 22.35 22.69 98.94-75.23 14.31 18.93-83.47 91.67a41.454 41.454 0 0 1-27.22 13.41 41.453 41.453 0 0 1-31.35-10.64l-35.65-32.39 42.09-28.45z"/><path class="j" d="M816.43 635.8a.8.8 0 0 1-.78-.62c-3.13-14.18 3.73-23.96 4.02-24.36.26-.36.75-.44 1.11-.18.36.26.44.75.18 1.11-.09.12-6.73 9.66-3.76 23.1a.805.805 0 0 1-.78.97z"/></g></g><g><rect class="i" x="146.32" y="458.12" width="311.09" height="209.17" rx="48.82" ry="48.82"/><rect class="j" x="271.57" y="615.33" width="57.74" height="100.26" rx="20.9" ry="20.9"/><rect class="i" x="231.12" y="709.22" width="141.48" height="12.96" rx="5.14" ry="5.14"/></g><g><circle class="c" cx="322.57" cy="245.61" r="100.49"/><path class="d" d="M357.69 209.7h-70.22c-7.94 0-14.55 5.45-16.41 12.74s-38.04 68.8-38.04 68.8 10.19 18.19 19.02 25.94l21.17-30.51-.17-4.96 2.42 52.68c14.05 7.47 30.08 11.7 47.11 11.7s33.14-4.26 47.22-11.76l4.82-106.94c.43-9.64-7.26-17.69-16.91-17.69z"/><path class="d" d="m413.78 239.87-42.42-77.04-16.19 7.24 18.55 53.25-.69 38.99 26.14 2.31c6.97 2.3 14.69-1.82 16.4-9.28 1.2-5.21.56-10.68-1.79-15.49z"/><path class="f" d="m369.51 163.66-.31-5.14c-.25-4.16-1.68-8.16-4.12-11.54l-3.15-4.35-2.35 17.09 1.71 8.69 8.21-4.75z"/><path class="j" d="M361.91 168.96c-.3 0-.54-.24-.55-.54l-.26-8.59v-.02l.9-17.21c.02-.31.28-.54.58-.52.31.02.54.28.52.58l-.89 17.18.26 8.55c0 .31-.23.56-.54.57h-.02z"/><path class="f" d="M322.21 222.09c-6.86 0-12.28-5.83-11.75-12.67l3.14-40.99 16.64-.02 3.69 40.85c.62 6.89-4.8 12.82-11.71 12.83z"/><path class="f" d="m310.47 134.25 52.64-.07-.44 3.27c-1.5 11.29-1.97 22.7-1.2 34.07.37 5.44-.01 11.92-2.72 17.16-5.31 10.28-17.69 14.9-28.21 10.07-10.6-4.86-27.02-20.12-20.07-64.5z"/><path class="j" d="M340.07 172.73c-.31 0-.55-.25-.55-.55 0-.31.25-.55.55-.56h4.86a1.33 1.33 0 0 0 1.28-1.69l-4.24-15.22a.553.553 0 1 1 1.07-.29l4.24 15.22c.21.74.06 1.52-.41 2.13s-1.17.96-1.94.97h-4.86z"/><circle class="j" cx="333.43" cy="156.15" r="2.67" transform="rotate(-45 333.438 156.146)"/><path class="j" d="M355.17 155.6c0 1.48-1.19 2.67-2.67 2.68s-2.67-1.19-2.68-2.67 1.19-2.67 2.67-2.68c1.48 0 2.67 1.19 2.68 2.67zM333.06 200.27c-.06 0-.11 0-.17-.03-.31-.1-7.75-2.57-12.89-8.6a.554.554 0 0 1 .84-.72c4.94 5.79 12.32 8.24 12.39 8.27.29.09.45.41.36.7-.08.23-.29.38-.53.38zM316.1 136.25s.78 18.52-3.64 21.45c-4.42 2.92-5.89-2.69-5.89-2.69s-6.29-18.94 3.79-23.14c6.17-2.58 5.73 4.38 5.73 4.38zM344.24 182.93h-.03c-.22-.01-5.46-.33-10.01-7.35a.56.56 0 0 1 .16-.77c.26-.17.6-.09.77.16 4.21 6.51 9.08 6.84 9.13 6.85a.555.555 0 0 1-.03 1.11z"/><path class="j" d="M305.9 136.31s-4.61-25.08 18.97-27.78c23.58-2.71 48.92.58 54.62-8.35 0 0 6.7 31-16.37 34.01-23.07 3.01-57.21 2.13-57.21 2.13zM332.26 163.93c-4.1 0-7.79-2.88-8.66-7.05a8.77 8.77 0 0 1 1.27-6.65 8.796 8.796 0 0 1 5.6-3.81 8.77 8.77 0 0 1 6.65 1.27 8.796 8.796 0 0 1 3.81 5.6c.99 4.78-2.09 9.47-6.86 10.46-.6.13-1.21.19-1.8.19zm.02-16.59c-.53 0-1.06.05-1.59.16a7.71 7.71 0 0 0-4.9 3.33 7.708 7.708 0 0 0-1.11 5.82c.87 4.18 4.97 6.87 9.15 6 2.02-.42 3.76-1.6 4.9-3.33s1.53-3.79 1.11-5.82a7.71 7.71 0 0 0-3.33-4.9 7.68 7.68 0 0 0-4.23-1.27zM353.63 164.21c-4.1 0-7.79-2.88-8.66-7.05-.99-4.78 2.09-9.47 6.86-10.46a8.77 8.77 0 0 1 6.65 1.27 8.796 8.796 0 0 1 3.81 5.6 8.77 8.77 0 0 1-1.27 6.65 8.796 8.796 0 0 1-5.6 3.81c-.6.13-1.21.19-1.8.19zm.02-16.59c-.53 0-1.06.05-1.59.16-4.18.87-6.87 4.97-6 9.15a7.71 7.71 0 0 0 3.33 4.9 7.716 7.716 0 0 0 5.82 1.11 7.71 7.71 0 0 0 4.9-3.33 7.708 7.708 0 0 0 1.11-5.82 7.71 7.71 0 0 0-3.33-4.9 7.68 7.68 0 0 0-4.23-1.27z"/><path class="j" d="M339.62 151.82a.552.552 0 0 1-.29-1.02c.15-.1 3.82-2.31 6.89-.07.25.18.3.53.12.77-.18.25-.53.3-.77.12-2.47-1.79-5.63.1-5.66.12a.51.51 0 0 1-.29.08zM324.51 152.7h-.07l-11.92-1.45a.553.553 0 1 1 .14-1.1l11.92 1.45c.3.04.52.31.48.62-.03.28-.27.49-.55.49z"/><g><path class="f" d="M313.82 156.17c0 4.76-2.62 8.63-5.87 8.63s-5.89-3.85-5.89-8.62c0-4.76 2.62-8.63 5.87-8.63s5.89 3.85 5.89 8.62z"/><path class="j" d="M309.42 165.1a.552.552 0 0 1-.07-1.1c.05 0 1.62-.3 2.91-3.11.13-.28.46-.4.74-.27.28.13.4.46.27.74-1.6 3.45-3.7 3.73-3.78 3.74h-.06z"/></g><path class="j" d="M373.03 262.87H373a.551.551 0 0 1-.53-.58l.75-16.7c.01-.31.27-.54.58-.53.31.01.54.27.53.58l-.75 16.7a.55.55 0 0 1-.55.53zM399.16 265.18c-.1 0-.21-.03-.3-.09-6.09-3.89-12.65-13.18-19.5-27.63-5.08-10.72-8.43-20.44-8.47-20.53-.1-.29.05-.6.34-.7.29-.1.6.05.7.34.13.38 13.37 38.57 27.51 47.59a.561.561 0 0 1-.3 1.03zM273.21 287.23c-.31 0-.55-.25-.55-.55v-34.65c0-.31.25-.55.55-.55s.55.25.55.55v34.65c0 .31-.25.55-.55.55z"/></g><g><path class="b" d="M794.24 289.01c-43.64 0-79.01 25.73-79.01 57.48 0 19.83 13.8 37.31 34.8 47.64l-14.87 20.31c-1.39 1.9.36 4.49 2.64 3.91l57.41-10.55c44.95-8.57 78.05-29.57 78.05-61.31s-35.38-57.48-79.01-57.48z"/><path class="c" d="M733.54 419.11c-1.04 0-2.02-.51-2.63-1.41-.77-1.13-.74-2.58.07-3.68l14.39-19.65c-21.59-10.88-34.44-28.73-34.44-47.89 0-15.58 8.32-30.21 23.43-41.2 15.04-10.94 35.03-16.97 56.28-16.97s41.24 6.03 56.28 16.97c15.11 10.99 23.43 25.62 23.43 41.2s-7.55 28.87-22.45 39.9c-13.54 10.03-32.96 17.66-56.16 22.09l-57.4 10.54c-.26.06-.52.1-.78.1zm57.09-129.41c-43.19 0-78.32 25.47-78.32 56.78 0 18.84 12.86 36.42 34.41 47.02l.74.36-15.36 20.97c-.56.76-.38 1.58-.04 2.09.35.51 1.04.97 1.95.74h.05l57.41-10.56c22.99-4.39 42.22-11.94 55.59-21.84 14.53-10.75 21.89-23.8 21.89-38.79 0-31.31-35.13-56.78-78.32-56.78z"/><rect class="c" x="740.89" y="330.55" width="100.32" height="6.46" rx="1.76" ry="1.76" transform="rotate(180 791.055 333.78)"/><rect class="c" x="740.89" y="344.82" width="100.32" height="6.46" rx="1.76" ry="1.76" transform="rotate(180 791.055 348.05)"/><rect class="c" x="787.87" y="359.09" width="53.35" height="6.46" rx="1.29" ry="1.29" transform="rotate(180 814.545 362.32)"/></g><g><path d="M1039.56 618.55c-11.28 4.25-22.68 8.56-33.09 14.56 1.48-3.07 2.64-6.27 3.41-9.57 3.69-15.73-.13-33.63-9.96-46.45-8.06 12.51-16.21 25.19-20.95 39.3-.06.17-.11.34-.16.51-.94-1.74-1.95-3.44-3.01-5.1-8.04-12.52-19.04-22.83-29.91-32.99-6.4 14.83-5.73 33.13 1.69 47.48.65 1.25 1.36 2.47 2.12 3.65-8.75-4.43-18.01-7.93-27.21-11.39-.26 16.15 7.33 32.81 19.66 43.25 10.44 8.83 25.01 12.74 38.87 11.95 13.86.79 28.43-3.11 38.87-11.95 12.33-10.43 19.92-27.1 19.66-43.25z" style="fill:#6cb597"/><path class="j" d="M990.99 671.86c-.26 0-.5-.17-.57-.43-5.94-20.78-40.66-40.77-41.01-40.97a.592.592 0 0 1-.22-.81.59.59 0 0 1 .81-.22c.09.05 8.96 5.13 18.45 12.74 12.79 10.26 20.57 20 23.12 28.93.09.32-.09.64-.41.73-.05.02-.11.02-.16.02zM990.99 652.71a.59.59 0 0 1-.59-.55c-1.09-13.61-11.84-35.29-11.95-35.51a.593.593 0 0 1 .27-.8c.29-.15.65-.03.8.27.11.22 10.96 22.1 12.07 35.94.03.33-.22.61-.54.64H991zM989.44 661.4c-.06 0-.12 0-.18-.03a.593.593 0 0 1-.39-.74c4.05-13 17.03-27.76 17.16-27.91a.59.59 0 0 1 .84-.05c.25.22.27.59.05.84-.13.15-12.95 14.72-16.91 27.48a.6.6 0 0 1-.57.42z"/><path class="j" d="M961.06 670.04h45.41v33.5c0 9.93-8.06 17.99-17.99 17.99h-9.42c-9.93 0-17.99-8.06-17.99-17.99v-33.5z"/></g><path class="j" d="M1137.88 724.06H10.86c-1.15 0-2.08-.84-2.08-1.88s.93-1.88 2.08-1.88h1127.02c1.15 0 2.08.84 2.08 1.88s-.93 1.88-2.08 1.88z"/><g><path class="c" d="M887.43 198.57c0-25.73-20.86-46.59-46.59-46.59s-46.59 20.86-46.59 46.59c0 13.97 6.15 26.5 15.89 35.04.85-13.42 10.29-24.5 22.89-27.8-5.8-2.88-9.8-8.86-9.8-15.78 0-9.72 7.88-17.61 17.61-17.61s17.61 7.88 17.61 17.61c0 6.92-3.99 12.9-9.8 15.78 12.6 3.3 22.04 14.38 22.89 27.8 9.74-8.54 15.89-21.07 15.89-35.04z"/><path class="k" d="M848.65 205.81c5.8-2.88 9.8-8.86 9.8-15.78 0-9.72-7.88-17.61-17.61-17.61s-17.61 7.88-17.61 17.61c0 6.92 3.99 12.9 9.8 15.78-12.6 3.3-22.04 14.38-22.89 27.8 8.2 7.19 18.94 11.55 30.7 11.55s22.5-4.36 30.7-11.55c-.85-13.42-10.29-24.5-22.89-27.8z"/></g><rect class="i" x="421.92" y="709.22" width="183.48" height="13.48" rx="5.34" ry="5.34"/><g><path class="i" d="M709.13 690.78h8.32c8.76 0 15.88 7.11 15.88 15.88v15.4h-40.07v-15.4c0-8.76 7.11-15.88 15.88-15.88z"/><path class="b" d="M713.29 715.31a.56.56 0 0 1-.56-.56v-23.97a.56.56 0 1 1 1.12 0v23.97c0 .31-.25.56-.56.56z"/></g></svg>