<?xml version="1.0" encoding="UTF-8"?><svg xmlns="http://www.w3.org/2000/svg" xmlns:xlink="http://www.w3.org/1999/xlink" viewBox="0 0 1138.47 724.6"><defs><style>.aq{fill:url(#j);}.ar{fill:url(#p);}.as{fill:url(#m);}.at{fill:url(#aa);}.au{fill:url(#al);}.av{fill:url(#am);}.aw{fill:#fff;}.ax{fill:#9e86e0;}.ay{fill:url(#r);}.az{fill:#c16810;}.ba{fill:url(#h);}.bb{fill:url(#t);}.bc{fill:url(#i);}.bd{fill:url(#l);}.be{fill:url(#ah);}.bf{fill:url(#af);}.bg{fill:#f2850c;}.bh{fill:url(#ap);}.bi{isolation:isolate;}.bj{fill:#fd8857;}.bk{fill:url(#s);}.bl{fill:url(#q);}.bm{fill:url(#f);}.bn{fill:url(#g);}.bo{fill:#f24b46;}.bp{fill:url(#n);}.bq{fill:url(#ad);}.br{fill:#242e6c;}.bs{fill:url(#e);}.bt{fill:#f0ebff;mix-blend-mode:multiply;}.bu{fill:url(#ai);}.bv{fill:#1b2251;}.bw{fill:#734bc4;}.bx{fill:url(#v);}.by{fill:url(#aj);}.bz{fill:url(#y);}.ca{fill:url(#o);}.cb{fill:url(#d);}.cc{fill:url(#x);}.cd{fill:url(#b);}.ce{fill:url(#u);}.cf{fill:url(#ae);}.cg{fill:url(#z);}.ch{fill:#50448c;}.ci{fill:url(#ag);}.cj{fill:url(#an);}.ck{fill:url(#c);}.cl{fill:url(#w);}.cm{fill:#e07e58;}.cn{fill:url(#ao);}.co{fill:url(#ab);}.cp{fill:url(#k);}.cq{fill:url(#ac);}.cr{fill:url(#ak);}</style><linearGradient id="b" x1="994.94" y1="722.81" x2="994.94" y2="544.13" gradientUnits="userSpaceOnUse"><stop offset="0" stop-color="#c5cfff"/><stop offset=".25" stop-color="#d3dbff"/><stop offset=".55" stop-color="#dce3ff"/><stop offset="1" stop-color="#dfe6ff"/></linearGradient><linearGradient id="c" x1="200.65" y1="722.81" x2="200.65" y2="566.79" xlink:href="#b"/><linearGradient id="d" x1="900.08" y1="1.07" x2="900.08" y2="167.29" gradientUnits="userSpaceOnUse"><stop offset="0" stop-color="#6615b2"/><stop offset=".3" stop-color="#8d27c2"/><stop offset=".58" stop-color="#ac36d0"/><stop offset=".83" stop-color="#bf3fd8"/><stop offset="1" stop-color="#c643db"/></linearGradient><linearGradient id="e" x1="468.4" y1="174.99" x2="468.4" y2="1.64" gradientUnits="userSpaceOnUse"><stop offset="0" stop-color="#f9795a"/><stop offset="1" stop-color="#eb3668"/></linearGradient><linearGradient id="f" x1="560.73" y1="-16.92" x2="586.31" y2="635.58" gradientUnits="userSpaceOnUse"><stop offset="0" stop-color="#f5f0ff"/><stop offset="1" stop-color="#d2c1f7"/></linearGradient><linearGradient id="g" x1="961.65" y1="649.09" x2="386.29" y2="732.42" gradientUnits="userSpaceOnUse"><stop offset="0" stop-color="#c643db"/><stop offset="1" stop-color="#6615b2"/></linearGradient><linearGradient id="h" x1="471.42" y1="65.68" x2="473.47" y2="652.28" gradientUnits="userSpaceOnUse"><stop offset="0" stop-color="#9571cb"/><stop offset="1" stop-color="#6237c0"/></linearGradient><linearGradient id="i" x1="471.47" y1="78.77" x2="473.43" y2="640.98" gradientUnits="userSpaceOnUse"><stop offset="0" stop-color="#fff"/><stop offset="1" stop-color="#f5f0ff"/></linearGradient><linearGradient id="j" x1="480.3" y1="88.01" x2="480.45" y2="130.51" xlink:href="#f"/><linearGradient id="k" x1="763.32" y1="307.4" x2="764.6" y2="672.12" gradientUnits="userSpaceOnUse"><stop offset="0" stop-color="#faad1e"/><stop offset="1" stop-color="#f2830b"/></linearGradient><linearGradient id="l" x1="533.66" y1="399.6" x2="543.86" y2="422.1" gradientUnits="userSpaceOnUse"><stop offset="0" stop-color="#ffc085"/><stop offset="1" stop-color="#fa976e"/></linearGradient><linearGradient id="m" x1="550.1" y1="403.64" x2="564.89" y2="424.03" xlink:href="#l"/><linearGradient id="n" x1="536.72" y1="424.35" x2="532.53" y2="424.68" xlink:href="#l"/><linearGradient id="o" x1="549.63" y1="429.28" x2="537.54" y2="430.22" xlink:href="#l"/><linearGradient id="p" x1="696.57" y1="699.38" x2="755.51" y2="699.38" gradientUnits="userSpaceOnUse"><stop offset="0" stop-color="#263681"/><stop offset="1" stop-color="#1a1248"/></linearGradient><linearGradient id="q" x1="644.68" y1="560.3" x2="758.83" y2="560.3" xlink:href="#p"/><linearGradient id="r" x1="717.31" y1="289.71" x2="716.01" y2="272.96" xlink:href="#l"/><linearGradient id="s" x1="691.46" y1="303.15" x2="739.36" y2="303.15" gradientTransform="translate(10.03 -82.16) rotate(2.07)" xlink:href="#l"/><linearGradient id="t" x1="665.11" y1="293.72" x2="668.86" y2="452.1" xlink:href="#h"/><linearGradient id="u" x1="744.19" y1="425.73" x2="732.22" y2="479.92" gradientTransform="translate(-72.12 147.44) rotate(-10.88)" xlink:href="#p"/><linearGradient id="v" x1="756.49" y1="477.6" x2="730.48" y2="463.66" xlink:href="#l"/><linearGradient id="w" x1="751.26" y1="333.69" x2="727.72" y2="478.13" xlink:href="#h"/><linearGradient id="x" x1="686.33" y1="297.69" x2="745.93" y2="297.69" gradientTransform="translate(10.03 -82.16) rotate(2.07)" xlink:href="#p"/><linearGradient id="y" x1="642.07" x2="701" xlink:href="#p"/><linearGradient id="z" x1="366.85" y1="404.03" x2="377.66" y2="402.89" xlink:href="#h"/><linearGradient id="aa" x1="391.9" y1="671.69" x2="374.84" y2="680.69" xlink:href="#l"/><linearGradient id="ab" x1="478.84" y1="670.75" x2="463.54" y2="678.82" xlink:href="#l"/><linearGradient id="ac" x1="374.6" y1="215.82" x2="363.11" y2="257.68" xlink:href="#p"/><linearGradient id="ad" x1="439.71" y1="241.75" x2="414" y2="335.45" xlink:href="#p"/><linearGradient id="ae" x1="363.53" y1="696.56" x2="418.79" y2="696.56" xlink:href="#p"/><linearGradient id="af" x1="3720.96" y1="705.96" x2="3769.19" y2="705.96" gradientTransform="translate(4677.43) rotate(-180) scale(1.14 -1)" xlink:href="#k"/><linearGradient id="ag" x1="452.36" y1="696.56" x2="507.62" y2="696.56" xlink:href="#p"/><linearGradient id="ah" x1="3643.34" y1="705.96" x2="3691.57" y2="705.96" gradientTransform="translate(4677.43) rotate(-180) scale(1.14 -1)" xlink:href="#k"/><linearGradient id="ai" x1="382.96" y1="305.48" x2="411.07" y2="305.48" xlink:href="#l"/><linearGradient id="aj" x1="408.83" y1="241.41" x2="388.03" y2="299.44" xlink:href="#l"/><linearGradient id="ak" x1="410.53" y1="298.28" x2="397.35" y2="435.96" xlink:href="#h"/><linearGradient id="al" x1="525.91" y1="499.46" x2="384.6" y2="574.04" xlink:href="#k"/><linearGradient id="am" x1="400.22" y1="217.42" x2="363.35" y2="351.79" xlink:href="#p"/><linearGradient id="an" x1="395.82" y1="661.74" x2="376.13" y2="672.14" xlink:href="#k"/><linearGradient id="ao" x1="474.93" y1="341.67" x2="455.24" y2="352.07" gradientTransform="translate(-53.44 410.18) rotate(-10.92)" xlink:href="#k"/><linearGradient id="ap" x1="377.61" y1="375.39" x2="527.43" y2="375.39" xlink:href="#h"/></defs><g class="bi"><g id="a"><path class="cd" d="M1138.47,544.13s-287.05,25.5-287.05,178.68h286.73l.32-178.68Z"/><path class="ck" d="M0,566.79v156.02H401.31S350.65,566.79,0,566.79Z"/><path class="cb" d="M1138.14,1.07V143.95S768.9,252.59,662.02,1.07h476.12Z"/><path class="bs" d="M.34,139s293.65,95.62,537.85-24.88C782.4-6.38,936.45,1.75,936.45,1.75L.34,1.64V139Z"/><g><g><path class="bm" d="M183.86,592.34c-35.49-31.83-55.19-87.76-32.03-129.88,20.57-37.4,69.69-57.21,76.57-99.56,5.3-32.64-17.61-62.28-26.73-94.02-12.73-44.27,4.34-95.85,40.71-123.04,17.05-12.75,37.23-20.17,56.47-29.05,45.05-20.78,85.81-50.06,129.18-74.31C471.4,18.25,519.13-1.31,568.51,.07c16.08,.45,32.68,3.37,45.94,12.7,27.3,19.21,33.01,59.38,58.07,81.57,27.79,24.61,69.28,19.75,105.72,15.09,36.44-4.65,79.46-5.09,102.62,24.12,20.45,25.79,16.17,63.77,29.24,94.19,11.79,27.43,36.46,46.24,56.01,68.53,19.81,22.59,34.8,49.59,43.62,78.59,7.03,23.09,10.13,48.03,4.51,71.52-5.55,23.22-19.14,43.42-32.53,62.99-32.39,47.31-67.24,96.12-117.73,121.82-31.42,15.99-66.8,21.82-101.77,24.62-117.52,9.4-236.49-13.18-353.2,3.72-22.85,3.31-46.35,8.18-69.46,4.74-16.78-2.49-28.08-12.39-43.44-18.27-39.7-15.19-79.34-24.14-112.26-53.66Z"/><ellipse class="bn" cx="569.01" cy="705.96" rx="320.41" ry="18.64"/></g><g><g><rect class="ba" x="265.73" y="101.67" width="413.59" height="557.84" rx="6.59" ry="6.59"/><rect class="bc" x="278.91" y="113.27" width="387.23" height="534.64" rx="1.62" ry="1.62"/><g><rect class="bt" x="314.1" y="165.09" width="330.58" height="13.82"/><rect class="bt" x="314.1" y="199.75" width="330.58" height="13.82"/><rect class="bt" x="314.1" y="234.42" width="330.58" height="13.82"/><rect class="bt" x="314.1" y="269.08" width="330.58" height="13.82"/><rect class="bt" x="314.1" y="303.74" width="330.58" height="13.82"/><rect class="bt" x="314.1" y="338.4" width="330.58" height="13.82"/><rect class="bt" x="314.1" y="373.06" width="330.58" height="13.82"/><rect class="bt" x="314.1" y="407.73" width="330.58" height="13.82"/><rect class="bt" x="314.1" y="442.39" width="330.58" height="13.82"/><rect class="bt" x="314.1" y="477.05" width="330.58" height="13.82"/><rect class="bt" x="314.1" y="511.71" width="330.58" height="13.82"/><rect class="bt" x="314.1" y="546.37" width="330.58" height="13.82"/><rect class="bt" x="314.1" y="581.03" width="330.58" height="13.82"/></g></g><rect class="aq" x="378.32" y="90.91" width="204.11" height="39.84" rx="5.64" ry="5.64"/></g><g><path class="cp" d="M913.77,676.52h-298.4c-6.73,0-12.1-5.61-11.8-12.33l13.93-318.21c.4-9.05,7.85-16.19,16.91-16.19h260.32c9.06,0,16.51,7.13,16.91,16.19l13.93,318.21c.29,6.72-5.07,12.33-11.8,12.33Z"/><path class="bg" d="M833.22,371.22c-1.81,0-3.27-1.46-3.27-3.27v-68.65c0-36.05-29.33-65.38-65.38-65.38s-65.38,29.33-65.38,65.38v68.65c0,1.81-1.46,3.27-3.27,3.27s-3.27-1.46-3.27-3.27v-68.65c0-39.66,32.26-71.92,71.92-71.92s71.92,32.26,71.92,71.92v68.65c0,1.81-1.46,3.27-3.27,3.27Z"/></g><path class="ch" d="M284.68,607.33c-.45,0-.82-.37-.82-.82s.37-.82,.82-.82c2.78,0,5.7-.09,8.67-.26,.49-.06,.84,.32,.86,.77,.03,.45-.32,.84-.77,.86-3,.18-5.95,.27-8.77,.27Zm-13.06-.67s-.06,0-.09,0c-2.97-.32-5.89-.77-8.69-1.32-.44-.09-.73-.52-.64-.96,.09-.44,.51-.74,.96-.64,2.75,.55,5.62,.99,8.55,1.3,.45,.05,.77,.45,.72,.9-.05,.42-.4,.73-.81,.73Zm34.79-.85c-.4,0-.75-.3-.81-.71-.06-.45,.26-.86,.7-.92,2.8-.37,5.69-.81,8.6-1.3,.45-.05,.87,.23,.94,.67,.07,.45-.23,.87-.67,.94-2.93,.5-5.84,.94-8.66,1.31-.04,0-.07,0-.11,0Zm21.47-3.81c-.38,0-.72-.26-.8-.64-.1-.44,.18-.88,.62-.97,2.86-.62,5.68-1.28,8.48-1.95,.44-.12,.88,.16,.99,.6,.11,.44-.16,.88-.6,.99-2.81,.68-5.65,1.34-8.51,1.96-.06,.01-.12,.02-.17,.02Zm-77.4-.42c-.11,0-.22-.02-.32-.07-2.51-1.07-5.18-2.36-7.92-3.84-.4-.21-.55-.71-.33-1.11,.22-.4,.72-.54,1.11-.33,2.7,1.46,5.32,2.73,7.78,3.78,.42,.18,.61,.66,.43,1.07-.13,.31-.43,.5-.75,.5Zm98.57-4.78c-.36,0-.69-.24-.79-.61-.12-.44,.14-.88,.58-1,2.86-.77,5.67-1.53,8.41-2.29,.43-.13,.89,.13,1,.57,.12,.43-.13,.89-.57,1-2.74,.76-5.56,1.53-8.42,2.3-.07,.02-.14,.03-.21,.03Zm21.03-5.79c-.36,0-.69-.24-.79-.6-.12-.43,.14-.88,.57-1,2.93-.8,5.76-1.56,8.44-2.25,.44-.11,.88,.15,.99,.59,.11,.44-.15,.88-.59,.99-2.68,.69-5.49,1.44-8.42,2.24-.07,.02-.14,.03-.21,.03Zm-138.63-.05c-.16,0-.32-.04-.46-.14-2.36-1.6-4.76-3.32-7.12-5.13-.36-.27-.43-.79-.15-1.15,.27-.36,.78-.43,1.15-.15,2.34,1.78,4.71,3.49,7.05,5.07,.37,.25,.47,.76,.22,1.13-.16,.23-.42,.36-.68,.36Zm-17.15-13.46c-.2,0-.39-.07-.55-.21-2.18-1.96-4.32-4-6.35-6.04-.32-.32-.32-.84,0-1.16,.32-.32,.84-.32,1.16,0,2.01,2.02,4.13,4.04,6.29,5.98,.34,.3,.36,.82,.06,1.15-.16,.18-.38,.27-.61,.27Zm-15.16-15.66c-.23,0-.46-.1-.63-.29-1.88-2.24-3.71-4.55-5.44-6.88-.27-.36-.19-.87,.17-1.14,.36-.27,.88-.2,1.14,.17,1.71,2.3,3.53,4.59,5.38,6.81,.29,.34,.24,.86-.1,1.15-.15,.13-.34,.19-.53,.19Zm-12.7-17.7c-.28,0-.55-.14-.7-.4-1.52-2.53-2.96-5.11-4.26-7.67-.2-.4-.04-.89,.36-1.1,.39-.21,.89-.05,1.1,.36,1.29,2.53,2.7,5.08,4.21,7.57,.23,.39,.11,.89-.28,1.12-.13,.08-.28,.12-.42,.12Zm-9.51-19.58c-.33,0-.64-.2-.77-.53-1.03-2.76-1.95-5.57-2.74-8.34-.12-.43,.13-.89,.56-1.01,.45-.12,.89,.13,1.01,.56,.77,2.73,1.68,5.5,2.7,8.22,.16,.42-.06,.89-.48,1.05-.09,.03-.19,.05-.29,.05Zm-5.5-21.05c-.39,0-.74-.29-.81-.69-.47-2.86-.87-5.78-1.22-8.67-.05-.45,.27-.85,.72-.91,.44-.06,.85,.27,.91,.72,.34,2.87,.75,5.76,1.21,8.6,.07,.45-.23,.87-.68,.94-.04,0-.09,.01-.13,.01Zm-2.29-21.67c-.43,0-.8-.34-.82-.78-.13-2.81-.2-5.65-.2-8.44v-.32c0-.45,.37-.82,.82-.82s.82,.37,.82,.82v.32c0,2.76,.07,5.57,.2,8.36,.02,.45-.33,.83-.78,.86h-.04Zm.34-21.79s-.04,0-.07,0c-.45-.04-.78-.43-.75-.88,.24-2.95,.57-5.89,.98-8.72,.06-.45,.46-.77,.93-.69,.45,.06,.76,.48,.69,.93-.4,2.8-.73,5.7-.97,8.62-.04,.43-.39,.75-.82,.75Zm3.47-21.51c-.06,0-.13,0-.2-.02-.44-.11-.7-.55-.6-.99,.72-2.88,1.54-5.72,2.44-8.44,.14-.43,.6-.66,1.03-.52,.43,.14,.66,.6,.52,1.03-.89,2.68-1.7,5.48-2.4,8.32-.09,.37-.43,.62-.79,.62Zm126.72-7.72c-1.87-.04-3.77-.11-5.67-.33-.45-.05-.77-.46-.72-.91,.05-.45,.45-.78,.91-.72,1.8,.21,3.62,.32,5.39,.32,1.17,0,2.11-.04,3.16-.11,.46-.06,.84,.31,.88,.76,.03,.45-.3,.84-.76,.88-1.06,.08-2.12,.12-3.19,.12Zm15.8-3.15c-.32,0-.62-.19-.75-.49-.18-.42,.01-.9,.43-1.08,.82-.35,1.62-.74,2.41-1.15,1.69-.89,3.32-1.96,4.86-3.2,.35-.28,.86-.23,1.15,.13,.28,.35,.23,.87-.13,1.15-1.62,1.3-3.34,2.43-5.12,3.37-.83,.44-1.67,.84-2.53,1.21-.1,.04-.21,.07-.32,.07Zm-34.03-.35c-.1,0-.2-.02-.3-.06-2.07-.8-4.1-1.74-6.04-2.78-.65-.35-1.29-.71-1.92-1.08-.39-.23-.52-.73-.29-1.12,.23-.39,.74-.52,1.12-.29,.62,.36,1.24,.71,1.87,1.05,1.88,1.01,3.85,1.92,5.85,2.69,.42,.16,.63,.64,.47,1.06-.13,.32-.43,.52-.76,.52Zm-101.18-9.29c-.12,0-.24-.03-.36-.08-.41-.2-.58-.69-.38-1.09,1.29-2.68,2.71-5.28,4.2-7.73,.24-.39,.75-.51,1.12-.27,.39,.24,.51,.74,.27,1.12-1.47,2.4-2.86,4.96-4.13,7.59-.14,.29-.43,.46-.74,.46Zm82.78-2.19c-.19,0-.39-.07-.54-.2-2.12-1.86-4.24-3.93-6.29-6.15-.31-.33-.29-.85,.04-1.16,.33-.3,.85-.29,1.16,.04,2.02,2.18,4.1,4.21,6.17,6.04,.34,.3,.37,.81,.07,1.15-.16,.19-.39,.28-.61,.28Zm68.27-2.57c-.14,0-.27-.03-.4-.1-.39-.22-.54-.72-.32-1.11,1.41-2.53,2.47-5.18,3.13-7.88,.11-.44,.55-.7,.99-.6,.44,.11,.71,.55,.6,.99-.7,2.84-1.81,5.63-3.29,8.28-.15,.27-.43,.42-.71,.42Zm-139.22-13.47c-.19,0-.38-.06-.53-.2-.34-.3-.38-.81-.09-1.15,1.91-2.23,3.96-4.37,6.1-6.35,.33-.31,.85-.29,1.15,.04,.31,.33,.29,.85-.04,1.15-2.09,1.94-4.1,4.03-5.97,6.22-.16,.19-.39,.29-.62,.29Zm56.46-.19c-.25,0-.5-.12-.66-.34-1.37-1.9-2.74-3.9-4.08-5.95l-.84-1.31c-.24-.38-.13-.89,.25-1.13,.38-.24,.88-.13,1.13,.25l.83,1.3c1.32,2.03,2.67,4.01,4.03,5.88,.26,.36,.18,.88-.18,1.14-.14,.1-.31,.16-.48,.16Zm86.1-7.38c-.37,0-.7-.25-.79-.62-.24-.98-.54-1.94-.89-2.86-.66-1.71-1.48-3.34-2.45-4.85-.24-.38-.13-.89,.25-1.13,.38-.24,.88-.13,1.13,.25,1.03,1.6,1.9,3.33,2.6,5.15,.38,.99,.7,2.02,.96,3.06,.11,.44-.16,.88-.6,.99-.07,.02-.13,.02-.19,.02Zm-126.22-6.74c-.27,0-.53-.13-.69-.37-.24-.38-.14-.89,.24-1.13,2.4-1.55,4.97-3.02,7.64-4.37,.41-.2,.89-.04,1.1,.36,.2,.4,.04,.9-.36,1.1-2.61,1.32-5.13,2.76-7.49,4.28-.14,.09-.29,.13-.44,.13Zm28.6-4.38c-.29,0-.57-.16-.72-.43-1.09-2.02-2.15-4.07-3.16-6.12-1.65,.48-3.27,1-4.84,1.53-.43,.14-.89-.08-1.04-.51-.15-.43,.08-.89,.51-1.04,1.5-.51,3.05-1.01,4.64-1.48-.03-.06-.06-.13-.09-.19-.2-.41-.02-.9,.38-1.09,.41-.19,.89-.02,1.09,.38,.07,.15,.14,.29,.21,.44,.72-.2,1.45-.4,2.18-.59,.43-.11,.88,.15,1,.58,.11,.44-.15,.88-.59,1-.62,.16-1.24,.33-1.86,.5,.96,1.95,1.97,3.89,3,5.8,.21,.4,.07,.89-.33,1.11-.12,.07-.26,.1-.39,.1Zm84.84-5.84c-.15,0-.3-.04-.43-.12-2.28-1.41-4.87-2.65-7.71-3.67-.43-.15-.65-.62-.49-1.05,.15-.43,.62-.65,1.05-.49,2.94,1.06,5.64,2.35,8.01,3.82,.39,.24,.5,.74,.26,1.13-.15,.25-.42,.39-.69,.39Zm-72.67-4.38c-.39,0-.74-.28-.81-.68-.07-.45,.22-.87,.67-.94,2.76-.47,5.67-.9,8.66-1.28,.44-.05,.86,.26,.91,.71,.06,.45-.26,.86-.71,.91-2.97,.38-5.86,.8-8.59,1.27-.05,0-.09,.01-.14,.01Zm52.11-2.42s-.08,0-.11,0c-2.72-.39-5.61-.66-8.61-.81-.45-.02-.8-.41-.78-.86,.02-.45,.39-.83,.86-.78,3.05,.15,5.99,.43,8.76,.83,.45,.06,.76,.48,.69,.93-.06,.41-.41,.7-.81,.7Zm-30.46-.17c-.42,0-.78-.32-.82-.75-.04-.45,.3-.84,.75-.88,2.43-.19,4.84-.36,7.25-.51l1.47-.09c.56-.03,.84,.32,.86,.77,.02,.45-.32,.84-.77,.86l-1.46,.08c-2.4,.15-4.81,.32-7.22,.51-.02,0-.04,0-.06,0Zm-43-6.95c-.33,0-.63-.2-.76-.52-1.06-2.7-2.08-5.46-3.02-8.22-.15-.43,.08-.89,.51-1.04,.42-.15,.89,.08,1.04,.51,.93,2.74,1.94,5.48,3,8.15,.17,.42-.04,.9-.46,1.06-.1,.04-.2,.06-.3,.06Zm-6.77-20.71c-.36,0-.7-.24-.79-.61-.73-2.81-1.41-5.68-2-8.53-.09-.44,.19-.87,.63-.97,.46-.09,.88,.19,.97,.63,.59,2.82,1.26,5.67,1.98,8.45,.11,.44-.15,.88-.59,1-.07,.02-.14,.03-.21,.03Zm-4.16-21.39c-.41,0-.76-.3-.81-.71-.37-2.9-.67-5.84-.88-8.72-.03-.45,.31-.84,.76-.88,.5,0,.84,.31,.87,.76,.21,2.86,.5,5.76,.87,8.63,.06,.45-.26,.86-.71,.92-.04,0-.07,0-.1,0Zm-1.27-21.75h-.01c-.45,0-.81-.38-.81-.83,.04-2.93,.17-5.88,.38-8.76,.03-.45,.43-.79,.88-.75,.45,.03,.79,.43,.76,.88-.21,2.85-.34,5.77-.38,8.66,0,.45-.37,.81-.82,.81Zm1.97-21.69s-.09,0-.14-.01c-.45-.08-.74-.5-.67-.94,.5-2.89,1.1-5.78,1.78-8.59,.11-.44,.55-.7,.99-.6,.44,.11,.71,.55,.6,.99-.68,2.78-1.27,5.63-1.76,8.48-.07,.4-.41,.68-.8,.68Zm5.54-21.06c-.09,0-.19-.02-.28-.05-.43-.15-.65-.62-.49-1.05,1-2.76,2.1-5.5,3.29-8.14,.18-.41,.67-.6,1.08-.41,.41,.18,.6,.67,.41,1.08-1.16,2.6-2.25,5.3-3.24,8.03-.12,.33-.43,.54-.77,.54Zm477.23-16.8c-.34,0-.66-.21-.77-.55-.94-2.73-1.89-5.47-2.87-8.23-.15-.43,.07-.89,.5-1.04,.42-.15,.89,.07,1.04,.5,.98,2.76,1.94,5.51,2.87,8.25,.15,.43-.08,.89-.51,1.04-.09,.03-.18,.04-.27,.04Zm-468.16-3c-.13,0-.26-.03-.38-.09-.4-.21-.56-.7-.35-1.1,1.36-2.61,2.73-5.18,4.12-7.7,.22-.4,.72-.54,1.11-.32,.4,.22,.54,.71,.32,1.11-1.38,2.52-2.75,5.07-4.1,7.67-.15,.28-.43,.44-.73,.44Zm460.8-17.53c-.33,0-.64-.2-.76-.53-1.03-2.71-2.08-5.41-3.17-8.11-.17-.42,.03-.9,.45-1.06,.42-.17,.9,.03,1.06,.45,1.09,2.71,2.15,5.42,3.19,8.14,.16,.42-.05,.89-.47,1.06-.1,.04-.19,.05-.29,.05Zm-450.2-1.52c-.14,0-.29-.04-.42-.11-.39-.23-.52-.73-.29-1.12,1.5-2.53,3.02-5.02,4.55-7.46,.24-.38,.74-.5,1.13-.26,.38,.24,.5,.74,.26,1.13-1.52,2.43-3.03,4.91-4.53,7.43-.15,.26-.42,.4-.7,.4Zm11.68-18.4c-.16,0-.32-.05-.46-.14-.37-.25-.47-.76-.22-1.13,1.65-2.44,3.32-4.82,5.01-7.17,.27-.37,.78-.45,1.14-.19,.37,.26,.45,.77,.19,1.14-1.67,2.33-3.33,4.71-4.98,7.13-.16,.23-.42,.36-.68,.36Zm430.21-.24c-.31,0-.61-.18-.75-.48-1.22-2.7-2.47-5.34-3.71-7.86-.2-.4-.03-.9,.37-1.1,.41-.2,.89-.03,1.09,.37,1.25,2.54,2.51,5.2,3.73,7.91,.19,.41,0,.9-.41,1.08-.11,.05-.22,.07-.34,.07Zm-417.38-17.36c-.18,0-.36-.06-.5-.17-.36-.28-.42-.79-.14-1.15,1.81-2.32,3.64-4.58,5.49-6.8,.29-.35,.8-.39,1.15-.11,.35,.29,.39,.8,.1,1.15-1.83,2.21-3.65,4.46-5.46,6.77-.16,.21-.4,.31-.64,.31Zm407.52-2.07c-.28,0-.56-.15-.71-.41-1.46-2.55-2.98-5.05-4.5-7.42-.24-.38-.13-.89,.25-1.13,.38-.25,.89-.13,1.13,.25,1.54,2.39,3.06,4.91,4.54,7.49,.23,.39,.09,.89-.3,1.12-.13,.07-.27,.11-.41,.11Zm-393.46-14.58c-.2,0-.39-.07-.55-.21-.33-.3-.36-.82-.05-1.16,1.97-2.17,3.99-4.31,5.99-6.37,.32-.32,.83-.33,1.16-.02,.32,.32,.33,.83,.01,1.16-1.99,2.05-3.99,4.18-5.95,6.33-.16,.18-.38,.27-.6,.27Zm381.42-3.56c-.24,0-.49-.11-.65-.32-1.8-2.32-3.67-4.56-5.54-6.65-.3-.34-.27-.85,.06-1.15,.34-.3,.85-.27,1.15,.06,1.9,2.12,3.79,4.39,5.61,6.74,.28,.36,.21,.87-.14,1.15-.15,.11-.32,.17-.5,.17Zm-366.11-11.94c-.22,0-.44-.09-.6-.26-.31-.33-.29-.85,.04-1.16,2.13-1.99,4.32-3.96,6.5-5.85,.34-.3,.86-.26,1.15,.08,.3,.34,.26,.86-.08,1.15-2.17,1.89-4.34,3.84-6.46,5.82-.16,.15-.36,.22-.56,.22Zm351.26-3.96c-.19,0-.38-.07-.54-.2-2.18-1.91-4.45-3.73-6.74-5.4-.37-.27-.45-.78-.18-1.14,.27-.37,.78-.44,1.14-.18,2.33,1.7,4.64,3.55,6.86,5.49,.34,.3,.37,.81,.08,1.15-.16,.18-.39,.28-.62,.28Zm-334.69-10.19c-.24,0-.48-.11-.65-.32-.28-.36-.21-.87,.14-1.15,2.3-1.79,4.65-3.56,6.99-5.25,.36-.27,.88-.18,1.14,.18,.26,.37,.18,.88-.18,1.14-2.32,1.68-4.66,3.44-6.95,5.22-.15,.12-.33,.17-.5,.17Zm316.82-2.21c-.13,0-.27-.03-.4-.1-2.48-1.37-5.03-2.75-7.66-4.13-.4-.21-.56-.7-.34-1.1,.21-.4,.71-.55,1.1-.34,2.64,1.38,5.21,2.77,7.7,4.15,.4,.22,.54,.72,.32,1.11-.15,.27-.43,.42-.72,.42Zm-19.38-10.01c-.12,0-.24-.03-.35-.08-2.57-1.23-5.2-2.46-7.89-3.68-.41-.19-.59-.67-.41-1.08,.19-.41,.68-.59,1.08-.41,2.7,1.22,5.34,2.45,7.93,3.69,.41,.19,.58,.68,.38,1.09-.14,.29-.43,.46-.74,.46Zm-279.67-.38c-.27,0-.53-.13-.69-.38-.24-.38-.13-.89,.25-1.13,2.46-1.58,4.97-3.12,7.45-4.58,.39-.23,.89-.1,1.12,.29,.23,.39,.1,.89-.29,1.12-2.47,1.45-4.96,2.98-7.4,4.54-.14,.09-.29,.13-.44,.13Zm259.76-8.5c-.1,0-.21-.02-.31-.06-2.65-1.1-5.34-2.18-8.08-3.24-.42-.16-.63-.64-.47-1.06,.16-.42,.63-.63,1.06-.47,2.75,1.07,5.45,2.15,8.12,3.25,.42,.17,.62,.65,.44,1.07-.13,.32-.43,.51-.76,.51Zm-240.87-2.36c-.3,0-.58-.16-.73-.45-.2-.4-.05-.89,.36-1.1,2.57-1.32,5.21-2.61,7.86-3.84,.41-.19,.9-.01,1.09,.4,.19,.41,.01,.9-.4,1.09-2.63,1.22-5.25,2.5-7.8,3.81-.12,.06-.25,.09-.37,.09Zm220.5-5.41c-.09,0-.18-.01-.27-.05-2.71-.95-5.47-1.88-8.25-2.79-.43-.14-.66-.6-.52-1.03,.14-.43,.59-.66,1.03-.52,2.8,.91,5.56,1.84,8.28,2.8,.43,.15,.65,.62,.5,1.04-.12,.34-.43,.55-.77,.55Zm-200.65-3.57c-.33,0-.63-.2-.76-.52-.17-.42,.04-.89,.46-1.06,2.69-1.06,5.45-2.09,8.2-3.06,.42-.15,.89,.07,1.04,.5,.15,.43-.07,.89-.5,1.04-2.73,.96-5.47,1.98-8.14,3.03-.1,.04-.2,.06-.3,.06Zm179.88-3.06c-.07,0-.15-.01-.23-.03-2.77-.8-5.57-1.57-8.39-2.31-.44-.11-.7-.56-.58-1,.11-.44,.55-.7,1-.58,2.84,.75,5.65,1.52,8.43,2.32,.43,.13,.69,.58,.56,1.01-.1,.36-.43,.59-.79,.59Zm-159.25-3.96c-.36,0-.68-.23-.79-.59-.13-.43,.13-.89,.56-1.01,2.8-.8,5.64-1.57,8.45-2.26,.44-.11,.88,.16,.99,.6,.11,.44-.16,.88-.6,.99-2.79,.69-5.62,1.44-8.39,2.24-.07,.02-.15,.03-.23,.03Zm138.13-1.46c-.06,0-.12,0-.18-.02-2.82-.63-5.66-1.23-8.51-1.8-.44-.09-.73-.52-.64-.96,.09-.44,.51-.73,.96-.64,2.87,.57,5.72,1.17,8.55,1.81,.44,.1,.72,.54,.62,.98-.09,.38-.42,.64-.8,.64Zm-116.93-3.58c-.39,0-.73-.27-.8-.67-.09-.44,.21-.87,.65-.96,2.83-.54,5.73-1.03,8.62-1.47,.46-.07,.86,.24,.93,.68,.07,.45-.24,.86-.69,.93-2.88,.44-5.76,.93-8.56,1.46-.05,0-.1,.01-.15,.01Zm95.52-.53s-.09,0-.13-.01c-2.85-.45-5.72-.87-8.61-1.25-.45-.06-.76-.47-.7-.92,.06-.45,.49-.77,.92-.7,2.9,.38,5.79,.8,8.65,1.26,.45,.07,.75,.49,.68,.94-.06,.4-.41,.69-.81,.69Zm-73.93-2.57c-.42,0-.77-.32-.81-.74-.04-.45,.28-.85,.73-.89,2.89-.29,5.83-.53,8.74-.72,.43-.02,.84,.31,.87,.76,.03,.45-.31,.84-.76,.87-2.89,.19-5.81,.43-8.68,.71-.03,0-.06,0-.08,0Zm52.3-.12s-.05,0-.07,0c-2.88-.26-5.78-.47-8.69-.65-.45-.03-.79-.42-.77-.87,.03-.45,.34-.79,.86-.77,2.92,.18,5.83,.39,8.73,.65,.45,.04,.78,.44,.74,.89-.04,.42-.39,.74-.81,.74Zm-30.51-1.14c-.45,0-.81-.36-.82-.8,0-.45,.35-.82,.8-.83,1.53-.03,3.03-.04,4.59-.04,1.39,0,2.78,.01,4.17,.03,.45,0,.81,.38,.8,.83,0,.45-.36,.84-.83,.81-1.44-.02-2.9-.03-4.32-.03-1.46,0-2.92,.01-4.39,.04h-.01Z"/><path class="ch" d="M736.19,636.24c-.42,0-.78-.32-.82-.75-.04-.45,.29-.85,.75-.89,2.89-.25,5.78-.54,8.66-.86,.44-.03,.85,.27,.9,.72,.05,.45-.27,.85-.72,.9-2.9,.32-5.8,.6-8.7,.86-.02,0-.05,0-.07,0Zm21.65-2.52c-.4,0-.75-.29-.81-.7-.07-.45,.24-.86,.69-.93,2.87-.42,5.74-.87,8.6-1.36,.44-.06,.87,.23,.94,.67s-.23,.87-.67,.94c-2.87,.49-5.75,.94-8.63,1.36-.04,0-.08,0-.12,0Zm21.47-3.78c-.38,0-.72-.27-.8-.65-.09-.44,.19-.87,.64-.96,2.84-.59,5.67-1.2,8.5-1.85,.44-.11,.88,.17,.98,.61,.1,.44-.17,.88-.61,.98-2.84,.65-5.69,1.28-8.54,1.86-.06,.01-.11,.02-.16,.02Zm21.21-5.04c-.36,0-.69-.24-.79-.6-.12-.43,.14-.89,.57-1,2.79-.76,5.58-1.57,8.35-2.41,.43-.14,.89,.11,1.02,.54,.13,.43-.11,.89-.54,1.02-2.79,.85-5.59,1.66-8.4,2.43-.07,.02-.14,.03-.21,.03Zm20.8-6.51c-.34,0-.65-.21-.77-.55-.15-.42,.07-.89,.5-1.04,2.73-.97,5.47-1.99,8.15-3.04,.42-.16,.89,.04,1.06,.46,.16,.42-.04,.89-.46,1.06-2.69,1.05-5.45,2.08-8.2,3.06-.09,.03-.18,.05-.27,.05Zm20.24-8.12c-.31,0-.61-.18-.75-.48-.19-.41,0-.9,.41-1.08,2.65-1.2,5.29-2.45,7.86-3.72,.4-.2,.89-.04,1.09,.37,.2,.4,.03,.89-.37,1.09-2.58,1.28-5.24,2.54-7.91,3.74-.11,.05-.22,.07-.34,.07Zm19.44-9.88c-.28,0-.56-.15-.71-.41-.22-.39-.09-.89,.31-1.12,2.52-1.44,5.03-2.94,7.46-4.46,.38-.24,.88-.13,1.13,.26,.24,.38,.13,.89-.26,1.13-2.44,1.54-4.97,3.05-7.52,4.5-.13,.07-.27,.11-.4,.11Zm18.33-11.8c-.25,0-.5-.12-.66-.34-.26-.37-.18-.88,.18-1.14,2.35-1.71,4.68-3.48,6.91-5.27,.35-.28,.87-.23,1.15,.13,.28,.35,.23,.87-.13,1.15-2.25,1.8-4.59,3.59-6.96,5.31-.14,.1-.31,.16-.48,.16Zm16.81-13.86c-.22,0-.43-.09-.6-.26-.31-.33-.29-.85,.04-1.16,2.13-2,4.2-4.05,6.16-6.11,.31-.33,.83-.34,1.16-.03,.33,.31,.34,.83,.03,1.16-1.98,2.08-4.07,4.16-6.22,6.17-.16,.15-.36,.22-.56,.22Zm14.79-15.99c-.18,0-.36-.06-.51-.18-.35-.28-.41-.8-.13-1.15,1.82-2.28,3.56-4.61,5.2-6.93,.26-.37,.77-.45,1.14-.2,.37,.26,.46,.77,.2,1.14-1.65,2.35-3.42,4.71-5.26,7.01-.16,.2-.4,.31-.64,.31Zm12.23-18.01c-.14,0-.28-.03-.4-.11-.39-.22-.53-.72-.31-1.12,1.43-2.51,2.79-5.09,4.04-7.67,.2-.41,.69-.58,1.09-.38,.4,.2,.57,.69,.38,1.09-1.26,2.61-2.64,5.22-4.09,7.76-.15,.26-.43,.41-.71,.41Zm9.21-19.74c-.1,0-.19-.02-.29-.05-.42-.16-.64-.63-.48-1.05,1-2.7,1.94-5.47,2.76-8.21,.13-.43,.59-.67,1.02-.55,.43,.13,.68,.59,.55,1.02-.84,2.78-1.78,5.58-2.8,8.31-.12,.33-.43,.53-.77,.53Zm5.95-20.95c-.05,0-.11,0-.16-.02-.44-.09-.73-.52-.64-.96,.57-2.83,1.05-5.71,1.43-8.55,.06-.45,.46-.76,.92-.7,.45,.06,.76,.47,.7,.92-.39,2.88-.87,5.79-1.44,8.65-.08,.39-.42,.66-.8,.66Zm2.54-21.63h-.03c-.45-.02-.8-.39-.79-.85,.04-1.23,.07-2.46,.07-3.7,0-1.64-.04-3.3-.13-4.95-.03-.45,.32-.84,.77-.86,.44-.04,.84,.32,.86,.77,.09,1.68,.13,3.36,.13,5.04,0,1.26-.03,2.51-.07,3.75-.02,.44-.38,.79-.82,.79Zm-69.57-9.73s-.05,0-.07,0c-3.14-.29-6.08-.82-8.72-1.58-.43-.13-.69-.58-.56-1.01s.59-.69,1.01-.56c2.55,.73,5.38,1.25,8.42,1.53,.45,.04,.78,.44,.74,.89-.04,.42-.39,.74-.81,.74Zm13.06-.09c-.42,0-.77-.31-.81-.73-.05-.45,.28-.85,.73-.9,2.91-.3,5.76-.8,8.48-1.47,.45-.1,.88,.16,.99,.6,.11,.44-.16,.88-.6,.99-2.79,.69-5.72,1.2-8.7,1.51-.03,0-.06,0-.09,0Zm20.78-6.15c-.29,0-.57-.15-.72-.43-.22-.4-.07-.89,.33-1.11,2.59-1.41,4.94-3.05,6.99-4.87,.34-.3,.85-.27,1.15,.07,.3,.34,.27,.85-.07,1.15-2.14,1.9-4.59,3.61-7.29,5.08-.12,.07-.26,.1-.39,.1Zm-53.86-1.41c-.2,0-.39-.07-.55-.21-2.21-2.02-4.06-4.52-5.34-7.23-.19-.41-.02-.9,.39-1.09,.41-.19,.9-.02,1.09,.39,1.19,2.52,2.91,4.84,4.96,6.72,.33,.3,.36,.82,.05,1.16-.16,.18-.38,.27-.6,.27Zm87.73-4.29c-.37,0-.7-.25-.79-.63-.69-2.89-1.58-5.63-2.65-8.16-.17-.42,.02-.89,.44-1.07,.41-.17,.89,.02,1.07,.44,1.1,2.61,2.02,5.44,2.73,8.41,.11,.44-.16,.88-.6,.98-.06,.02-.13,.02-.19,.02Zm-18.96-9.68c-.12,0-.23-.02-.34-.07-.41-.19-.59-.68-.4-1.09,1.12-2.43,2.01-5.08,2.71-8.1,.1-.44,.55-.72,.98-.61,.44,.1,.71,.54,.61,.98-.73,3.13-1.65,5.88-2.82,8.41-.14,.3-.43,.47-.74,.47Zm-75.18-5.73c-.08,0-.16-.01-.24-.04-.43-.13-.67-.59-.54-1.02,.17-.56,.39-1.13,.63-1.68,.94-2.12,2.37-4.11,4.26-5.92,.33-.31,.84-.3,1.16,.03,.31,.33,.3,.84-.03,1.16-1.74,1.66-3.04,3.47-3.89,5.39-.21,.49-.4,1-.56,1.51-.11,.35-.43,.57-.78,.57Zm84.59-3.95c-.23,0-.45-.09-.61-.28-1.82-2.07-3.94-4-6.31-5.73-.36-.27-.44-.78-.18-1.14,.27-.36,.78-.44,1.14-.18,2.47,1.8,4.68,3.81,6.57,5.97,.3,.34,.27,.86-.07,1.15-.16,.14-.35,.2-.54,.2Zm-68.86-10.18c-.31,0-.61-.18-.75-.49-.18-.41,0-.9,.42-1.08,2.67-1.19,5.45-2.23,8.26-3.08,.43-.14,.89,.11,1.02,.54,.13,.43-.11,.89-.54,1.02-2.74,.84-5.46,1.85-8.07,3.01-.11,.05-.22,.07-.33,.07Zm64.07-1.34s-.05,0-.07,0c-.45-.04-.78-.43-.75-.89,.24-2.86,.41-5.77,.5-8.66,.01-.44,.38-.79,.82-.79h.02c.45,.01,.81,.39,.79,.84-.09,2.92-.26,5.87-.5,8.75-.04,.43-.39,.75-.82,.75Zm-13.12-.56c-.1,0-.2-.02-.3-.06-2.63-1.03-5.39-1.89-8.21-2.54-.44-.1-.72-.54-.61-.98,.1-.44,.52-.72,.98-.61,2.9,.67,5.74,1.55,8.44,2.61,.42,.17,.63,.64,.46,1.06-.13,.32-.43,.52-.76,.52Zm-29.99-3.77c-.41,0-.77-.31-.81-.73-.05-.45,.27-.85,.72-.9,2.93-.32,5.88-.46,8.81-.4,.45,0,.81,.38,.8,.83s-.4,.88-.83,.8c-2.85-.06-5.74,.07-8.6,.39-.03,0-.06,0-.09,0Zm43.42-17.45c-.43,0-.79-.33-.82-.77-.17-2.87-.43-5.77-.77-8.63-.05-.45,.27-.85,.72-.91,.43-.06,.85,.26,.91,.72,.34,2.89,.6,5.83,.78,8.73,.03,.45-.32,.84-.77,.86-.01,0-.03,0-.05,0Zm-2.93-21.58c-.38,0-.72-.26-.8-.64-.62-2.83-1.32-5.66-2.11-8.41-.13-.43,.13-.89,.56-1.01,.44-.13,.89,.12,1.01,.56,.8,2.78,1.51,5.64,2.14,8.51,.1,.44-.18,.88-.63,.97-.06,.01-.11,.02-.17,.02Zm-6.35-20.83c-.32,0-.63-.19-.76-.51-1.08-2.7-2.25-5.36-3.5-7.92-.2-.41-.03-.9,.38-1.09,.4-.19,.89-.03,1.09,.38,1.26,2.59,2.45,5.29,3.55,8.03,.17,.42-.04,.9-.46,1.06-.1,.04-.2,.06-.3,.06Zm-9.86-19.41c-.27,0-.54-.14-.69-.38-1.55-2.46-3.2-4.86-4.9-7.13-.27-.36-.2-.87,.17-1.14,.36-.27,.87-.2,1.15,.17,1.72,2.31,3.4,4.74,4.97,7.24,.24,.38,.13,.89-.26,1.13-.14,.09-.29,.13-.44,.13Zm-13.41-17.15c-.21,0-.43-.08-.59-.25-2.02-2.09-4.14-4.08-6.29-5.92-.34-.29-.38-.81-.09-1.15,.29-.35,.81-.38,1.15-.09,2.19,1.87,4.34,3.9,6.4,6.03,.31,.32,.31,.84-.02,1.16-.16,.15-.36,.23-.57,.23Zm-16.9-13.68c-.15,0-.29-.04-.43-.12-2.49-1.53-5.04-2.89-7.6-4.06-.41-.19-.59-.67-.4-1.08,.19-.41,.68-.59,1.08-.4,2.61,1.2,5.23,2.6,7.77,4.16,.38,.24,.5,.74,.27,1.12-.15,.25-.42,.39-.7,.39Zm-19.92-8.72c-.08,0-.17-.01-.25-.04-2.73-.87-5.53-1.68-8.33-2.39-.44-.11-.7-.56-.59-.99,.11-.44,.55-.7,.99-.59,2.83,.72,5.67,1.54,8.43,2.42,.43,.14,.67,.6,.53,1.03-.11,.35-.43,.57-.78,.57Zm-21.17-5.12s-.09,0-.14-.01c-2.8-.48-5.69-.9-8.59-1.25-.45-.05-.77-.46-.71-.91,.05-.45,.48-.77,.91-.71,2.93,.35,5.84,.78,8.67,1.26,.45,.08,.74,.5,.67,.94-.07,.4-.41,.68-.8,.68Zm-73.9-.49c-.41,0-.77-.31-.81-.73-.05-.45,.28-.85,.73-.9,2.89-.31,5.79-.6,8.7-.86,.45-.03,.85,.29,.89,.74,.04,.45-.29,.85-.74,.89-2.9,.26-5.78,.55-8.67,.86-.03,0-.06,0-.09,0Zm21.73-1.81c-.43,0-.79-.34-.82-.77-.03-.45,.32-.84,.77-.86,2.91-.16,5.82-.29,8.73-.37,.43-.01,.83,.34,.84,.79,.01,.45-.34,.83-.79,.84-2.9,.08-5.8,.21-8.69,.37-.01,0-.03,0-.04,0Zm30.51-.11s-.03,0-.05,0c-2.84-.16-5.77-.27-8.68-.33-.45,0-.81-.38-.8-.83,0-.45,.37-.8,.82-.8h.02c2.94,.06,5.88,.17,8.75,.33,.45,.03,.79,.41,.77,.86-.02,.43-.39,.77-.82,.77Z"/><g><g><path class="bd" d="M549.14,407.74c-1.9-1.9-4.01-1.71-6.82-.38-2.81,1.32-5.1,2.08-7.45,2.08s-8.6-3.28-8.6-3.28l-3.98,9.19s17.55,11.41,19.94,13.03c2.39,1.62,5.71,5.76,7.55,6.14,1.83,.38,13.9-4.73,13.69-9.98-.55-1.66-4.75-5.61-6.52-7.38-1.77-1.77-3.37-3.16-4.43-3.79-1.07-.64-3.37-5.63-3.37-5.63Z"/><path class="as" d="M549.65,406.16c-2.96,.2-7.12,3.62-7.12,5.71s-.17,6.14,2.13,6.14,2.43-3.92,3.45-4.95c1.02-1.02,5.63,.55,7.46,3.03,1.83,2.47,7.89,8.44,7.89,8.44,0,0,9.1-3.94,13.32-3.35,0-.55-4.79-10.38-4.79-10.38-7.63,0-18.46-4.9-22.34-4.65Z"/><path class="bp" d="M534.04,422.56c-1.69,.46-3.11,3.5-1.07,4.05,2.05,.55,4.22-1.71,3.24-3.11-.98-1.41-1.24-1.19-2.17-.94Z"/><path class="ca" d="M537.08,425.18c-1.98,.35-2.14,3.9,0,5.34,2.14,1.44,7.69,4.81,9.47,4.02,1.78-.79,3.23-1.46,2.3-2.93-.93-1.47-8.12-7.07-11.77-6.43Z"/><path class="cm" d="M561.66,428c-.07,0-.14-.02-.2-.06-3.67-2.27-6.95-5.31-9.5-8.79-.12-.17-.09-.4,.08-.52,.17-.12,.4-.09,.52,.08,2.49,3.4,5.71,6.38,9.3,8.6,.18,.11,.23,.34,.12,.52-.07,.11-.19,.18-.32,.18Z"/><path class="cm" d="M558.54,430.57c-.06,0-.13-.02-.19-.05-3.27-1.93-6.2-4.5-8.47-7.45-.13-.16-.1-.4,.07-.53,.16-.13,.4-.1,.52,.07,2.22,2.87,5.07,5.39,8.26,7.26,.18,.11,.24,.33,.13,.51-.07,.12-.19,.18-.32,.18Z"/><path class="cm" d="M555.1,432.75c-.06,0-.12-.02-.18-.05-2.77-1.54-5.25-3.59-7.17-5.94-.13-.16-.11-.4,.05-.53,.16-.13,.4-.11,.53,.05,1.87,2.28,4.27,4.27,6.96,5.76,.18,.1,.25,.33,.15,.51-.07,.12-.2,.19-.33,.19Z"/><path class="cm" d="M545.99,433.53s-.08,0-.11-.02c-.2-.06-.31-.27-.24-.47,.25-.77,.38-1.57,.39-2.38,0-.3,0-.64-.13-.93-.1-.26-.3-.45-.5-.51-.24-.06-.54,.05-.79,.27-.24,.22-.41,.52-.59,.84l-.05,.09c-.21,.37-.48,.8-.88,1.09-.08,.06-.29,.19-.53,.14-.14-.02-.26-.1-.33-.21-.13-.19-.09-.41-.08-.48,.09-.44,.27-.84,.45-1.22,.1-.21,.19-.41,.27-.62,.08-.23,.33-1-.05-1.47-.21-.26-.61-.39-1-.31-.36,.07-.73,.31-1.02,.67-.3,.37-.51,.82-.67,1.21l-.03,.08c-.15,.37-.32,.8-.67,.87-.17,.03-.33-.02-.46-.15l-.05-.05-.03-.06c-.08-.16-.05-.33,.03-.91,.08-.54,.18-1.28,.12-1.74-.12-.83-.51-1.52-1.07-1.89-.17-.11-.22-.35-.11-.52,.11-.17,.35-.22,.52-.11,.74,.49,1.25,1.37,1.4,2.41,.04,.3,.03,.66,0,1.03,.12-.23,.27-.46,.44-.67,.4-.49,.92-.82,1.46-.92,.66-.13,1.33,.1,1.72,.57,.43,.53,.49,1.33,.17,2.2-.09,.23-.19,.46-.29,.67-.04,.09-.08,.18-.12,.26,.06-.09,.11-.18,.16-.27l.05-.09c.2-.35,.41-.72,.73-1.02,.44-.41,1-.58,1.49-.45,.44,.12,.81,.47,1.01,.95,.17,.41,.18,.85,.18,1.22-.01,.88-.15,1.76-.42,2.6-.05,.16-.2,.26-.36,.26Zm-6.4-3.82h0Z"/><path class="cm" d="M563.13,424.61c-.1,0-.2-.04-.27-.12l-6.21-6.63c-.91-.97-1.84-1.97-2.89-2.8-1.15-.91-2.31-1.51-3.45-1.78-.54-.13-1.54-.26-2.15,.3-.4,.36-.56,.93-.72,1.53-.06,.22-.12,.45-.2,.66-.37,1.06-1.08,2-2,2.63-.17,.12-.4,.07-.52-.1-.12-.17-.07-.4,.1-.52,.79-.54,1.41-1.35,1.72-2.26,.07-.2,.12-.4,.19-.62,.19-.68,.38-1.38,.94-1.89,.64-.58,1.64-.75,2.82-.47,1.25,.29,2.51,.94,3.75,1.92,1.09,.86,2.04,1.89,2.97,2.87l6.21,6.63c.14,.15,.13,.39-.02,.53-.07,.07-.16,.1-.26,.1Z"/></g><g><g><path class="bw" d="M748.86,676.98c3.05,6.68,5.74,12.18,6.56,16.99,.82,4.8-2.34,8.2-9.84,8.2s-37.02,.47-42.64,0c-5.62-.47-8.08-3.4-5.15-6.33,2.93-2.93,14.76-8.2,23.08-11.6,8.32-3.4,14.06-7.26,14.06-7.26h13.94Z"/><path class="ar" d="M755.51,696.37c-.5,3.5-3.74,5.8-9.9,5.8-7.49,0-37.02,.47-42.64,0-5.28-.43-7.76-3.05-5.64-5.8h58.18Z"/></g><path class="bw" d="M701,696.37c-.5,3.5-3.74,5.8-9.9,5.8-7.49,0-37.02,.47-42.64,0-5.28-.43-7.76-3.05-5.64-5.8,.14-.18,.31-.36,.48-.54,2.93-2.93,14.76-8.19,23.08-11.59,8.32-3.39,14.05-7.27,14.05-7.27h13.96c3.04,6.68,5.73,12.2,6.56,16.99,.14,.84,.16,1.65,.05,2.41Z"/><path class="bl" d="M665.54,445.97c-4.89,22.14-24.22,105.43-20.35,119.84,3.87,14.41,33.39,112.11,33.39,112.11h16.87c-5.86-48.38-15.46-107.19-11.6-120.89,3.87-13.71,18.98-61.5,18.98-61.5,0,0,9.84,41.12,15.46,77.67,5.62,36.55,14.76,105.61,14.76,105.61,0,0,12.3,0,17.57-1.76v-126.34c0-16.52,8.21-99.03,8.21-108.91l-93.29,4.18Z"/><path class="ay" d="M730.48,256.96c-2.12,8.81-2.61,31.01-2.61,31.01-14.04,5.88-23.5,4.57-26.28,1.8l2.45-23.34,26.44-9.47Z"/><path class="bk" d="M702.08,216.84c-8.93,6.31-11.18,13.62-12.14,33.04-.63,12.72-1.41,29.83,3.97,30.03,9.24,.33,29.72-8.89,37.31-20.04,7.59-11.16,8.86-28.26,4.89-35.91-3.97-7.66-20.63-16.59-34.04-7.11Z"/><path class="bb" d="M569.01,410.73c3.87,3.87,6.33,12.18,6.33,12.18,17.81,0,58.96-28.47,66.69-36.21,7.73-7.73,28.34-35.27,28.34-35.27,0,9.37-11.13,70.99-5.51,99.34,11.48,3.51,93.48-3.46,93.48-3.46,10.54-31.45,11.45-131.89-7.07-154.13-9.25-5.74-22.45-5.54-22.45-5.54,0,0-10.4,4.24-15.92,4.3-5.52,.06-9.11-.43-12.31-2.96-10.55,.48-29.76,7.27-44.52,25.55-14.76,18.27-22.84,46.39-34.09,53.42-11.25,7.03-45.48,35.27-52.98,42.77Z"/><rect class="ce" x="688.91" y="420.47" width="98.73" height="64.06" rx="1.35" ry="1.35" transform="translate(98.65 -131.18) rotate(10.88)"/><g><path class="bx" d="M740.66,447.32c0,3.98-.82,10.07-3.05,12.3s-11.13,7.26-11.83,10.43c-.7,3.16-2.11,7.85,0,7.85s4.74-7.32,7.38-7.61c2.64-.29-.97,9.49-4.77,12.24-3.34,1.32-5.21-2.05-6.5,1.23s7.64,5.62,13.74,4.33c6.09-1.29,9.14-4.8,10.54-9.49,1.41-4.69,2.93-16.4,3.52-20.38,.58-3.98,1.87-9.96,1.87-9.96l-10.89-.94Z"/><path class="cm" d="M726.48,488.18c-2.04,0-3.97-1.05-4.83-2.69-.17-.32-.05-.71,.27-.88,.32-.17,.72-.05,.88,.27,.71,1.34,2.42,2.16,4.15,1.97,1.53-.16,3.11-1.03,4.45-2.45,1.25-1.33,2.18-2.96,3.08-4.54,.18-.31,.58-.42,.89-.24,.31,.18,.42,.58,.24,.89-.94,1.64-1.9,3.35-3.26,4.79-1.55,1.65-3.42,2.66-5.27,2.85-.2,.02-.4,.03-.61,.03Z"/><path class="cm" d="M732.24,489.24c-.32,0-.6-.23-.65-.56-.05-.36,.2-.69,.55-.74,1.44-.21,2.8-.89,3.83-1.92s1.72-2.39,1.93-3.83c.05-.36,.37-.61,.74-.55,.36,.05,.6,.38,.55,.74-.25,1.72-1.07,3.34-2.3,4.57-1.23,1.23-2.85,2.04-4.57,2.29-.03,0-.06,0-.09,0Z"/><path class="cm" d="M736.55,488.09c-.06,0-.12,0-.19,0-.36,0-.64-.31-.64-.67,0-.36,.24-.61,.67-.64,1.39,.05,2.87-.45,3.99-1.33,1.12-.88,1.93-2.18,2.23-3.57,.08-.35,.42-.58,.78-.5,.35,.07,.58,.42,.5,.78-.37,1.71-1.33,3.24-2.69,4.32-1.32,1.04-2.97,1.61-4.65,1.61Z"/></g><path class="cl" d="M741.4,292.12c24.96-3.34,22.04,31.21,24.85,57.21,2.81,26.01,5.62,36.78,0,54.24-5.62,17.45-13.82,48.2-13.82,48.2-4.8,0-13.12-2.51-13.12-2.51,4.1-13.71,7.73-54.71,7.73-59.86s-14.85-49.23-18.01-60.48c-3.16-11.25-2.51-34.81,12.37-36.8Z"/><path class="cc" d="M715.35,246.66c.89-2.99,3.39-5.36,6.49-5.74,2.95-.36,5.62,1.01,4.85,5.89-1.41,8.88-8.54,10.3-8.62,12.43-.08,2.12-1.82,9.11,.6,11.72,2.42,2.6,9.26,4.94,9.71,4.96s3.36-18.94,9.94-26.87c5.75-2.4,7.82-7.18,5.48-14.56,3.42-5.17-.14-14.27-7.86-14.55-4.75-13.24-18.61-15.15-22.83-9.97-13.52-10.92-37.46,7.79-22.66,21.28,6.92,6.31,15.59-3.35,15.59-3.35,3.27,5.78,9.69,3.07,9.69,3.07-4.84,10.28-3.42,16.86-1.87,17.35,.73,.23,1.21-.65,1.5-1.64Z"/><path class="bz" d="M701,696.37c-.5,3.5-3.74,5.8-9.9,5.8-7.49,0-37.02,.47-42.64,0-5.28-.43-7.76-3.05-5.64-5.8h58.18Z"/><path class="ch" d="M668.62,375.29s-.02,0-.03,0c-.36-.02-.64-.33-.62-.69,.69-13.19,2.24-26.47,4.62-39.46,.06-.36,.41-.59,.76-.52,.36,.06,.59,.4,.53,.76-2.37,12.93-3.92,26.15-4.6,39.29-.02,.35-.31,.62-.65,.62Z"/><path class="ch" d="M744.85,415.59s-.08,0-.12-.01c-.35-.07-.59-.41-.52-.76,2.94-15.69,2.91-27.62-.09-37.57-1.89-6.23-4.37-12.39-6.78-18.35-1.99-4.92-4.04-10.01-5.76-15.14-4.64-13.85-5.67-25.47-3.15-35.52,.09-.35,.45-.57,.79-.48,.35,.09,.56,.44,.48,.79-2.45,9.81-1.43,21.19,3.12,34.79,1.7,5.09,3.75,10.16,5.73,15.06,2.42,5.98,4.91,12.17,6.82,18.46,3.07,10.15,3.11,22.28,.12,38.18-.06,.31-.33,.53-.64,.53Z"/><path class="ax" d="M626,365.13c-.15,0-.3-.05-.42-.15-.28-.23-.31-.64-.08-.92,7.46-8.91,12.14-18.4,17.09-28.46,.94-1.92,1.9-3.86,2.89-5.82,8.14-16.19,17-25.86,27.87-30.43,.33-.14,.72,.02,.86,.35,.14,.33-.02,.72-.35,.85-10.57,4.44-19.21,13.91-27.21,29.81-.99,1.97-1.94,3.9-2.88,5.82-4.99,10.12-9.7,19.69-17.26,28.72-.13,.15-.31,.23-.5,.23Z"/><path class="aw" d="M691.22,262.29c0,3.69,.18,5.86,3.22,6.74,3.05,.88,7.15-3.34,7.15-6.09s-7.68-.41-10.37-.64Z"/></g><g><path class="cg" d="M391.54,328.9c-11.34-3.3-19.54,5.45-21.13,32.49-1.59,27.04-3.41,49.53-1.36,56.34,2.04,6.82,19.77,57.71,19.77,57.71l12.5-4.32s-12.61-51.57-12.61-60.89,6.34-42.26,8.39-53.39c2.04-11.13,2.41-25.63-5.54-27.94Z"/><path class="at" d="M370.44,672.36c0,.43-.43,14.82-.43,14.82,0,0,12.61,1.62,12.27,0-.34-1.62,1.7-15.93,1.7-15.93l-13.55,1.11Z"/><path class="co" d="M455.46,671.84c.27,1,4,13.29,4,13.29,0,0,12.69,1.02,12.69,.34s-1.62-17.38-1.62-17.38l-15.08,3.75Z"/><path class="cq" d="M383.13,243.73c2.68-11.37-5.9-27.24-20.59-21.34-14.69,5.9-11.05,27.46,10.08,30.67,4.18-1.07,10.51-9.33,10.51-9.33Z"/><path class="bq" d="M416.56,249.8c7.84,16.02,19.91,37.46,28.43,45.98,1.36,15.34-24.71,25.22-35.78,22.66-11.08-2.56,7.36-68.64,7.36-68.64Z"/><path class="cf" d="M363.59,703.05c.47,3.4,3.5,5.63,9.27,5.63,7.02,0,34.67,.45,39.94,0,4.95-.42,7.27-2.96,5.28-5.63-.13-.17-.29-.35-.45-.52-2.74-2.84-13.83-7.94-21.62-11.23-7.79-3.29-13.16-7.05-13.16-7.05h-13.07c-2.84,6.48-5.37,11.83-6.14,16.48-.13,.82-.15,1.6-.05,2.33Z"/><path class="bf" d="M363.59,703.05c.47,3.4,3.5,5.63,9.27,5.63,7.02,0,34.67,.45,39.94,0,4.95-.42,7.27-2.96,5.28-5.63h-54.49Z"/><path class="ci" d="M452.43,703.05c.47,3.4,3.5,5.63,9.27,5.63,7.02,0,34.67,.45,39.94,0,4.95-.42,7.27-2.96,5.28-5.63-.13-.17-.29-.35-.45-.52-2.74-2.84-13.83-7.94-21.62-11.23-7.79-3.29-13.16-7.05-13.16-7.05h-13.07c-2.84,6.48-5.37,11.83-6.14,16.48-.13,.82-.15,1.6-.05,2.33Z"/><path class="be" d="M452.43,703.05c.47,3.4,3.5,5.63,9.27,5.63,7.02,0,34.67,.45,39.94,0,4.95-.42,7.27-2.96,5.28-5.63h-54.49Z"/><path class="bu" d="M382.96,288.97c4.88,7.84,4.09,32.03,4.09,32.03,0,0,21.46,2.02,24.02,.31-1.33-5.56-3.91-22.12-3.91-22.12l-24.2-10.22Z"/><path class="by" d="M419.42,258.47c2.67,10.11,7.75,43.52,0,47.02-5.85,2.63-26.1-4.25-35.81-17.88-9.71-13.63-17.7-19.08-15.99-28.29,1.7-9.2,13.12-21.47,24.71-20.11,11.59,1.36,23.17,4.43,27.09,19.25Z"/><path class="cr" d="M387.1,316.57c4.73,2.56,24.11,2.9,24.11,2.9,7.37,14.65,19.87,20.33,25.09,33.74,7.83,20.09-12.44,67.48-8.52,84.86h-48.96c5.45-16.93-10.91-74.97-6.82-93.66,4.09-18.69,15.1-27.83,15.1-27.83Z"/><path class="au" d="M381.43,434.65c-11.34,8.91-18.28,23.85-18.06,54.87,.06,8.13,1.02,44.05,1.8,56.57,3.75,60.32,3.65,127.63,3.65,127.63,6.82,2.04,18.74,0,18.74,0l24.91-155.58,41.2,154.79c7.84,0,17.72-3.64,17.72-3.64,0,0-10.91-96.27-14.99-118.77-4.09-22.49,.34-77.7-28.63-112.46-8.86,0-46.35-3.41-46.35-3.41Z"/><path class="av" d="M419.42,258.47c-2.12,10.68-24.17,19.31-24.17,19.31-10.54-7.52-10.7,11.88-2.07,15.51,3.52,13.18,4.25,26.71-17.35,39.43-44.77-11.97-26.48-39.9-17.07-65.91,6.91-19.11,18.14-29.02,35.9-29.02,8.88,0,23.57,3.63,24.76,20.67Z"/><path class="aw" d="M420.85,292.23c.74,0,1.32,.62,1.29,1.36-.1,2.07-.58,3.34-2.74,3.92-2.62,.69-7.68-3.27-6.15-4.81,.79-.79,4.93-.48,7.6-.47Z"/><path class="az" d="M403.14,573.84s-.08,0-.12-.01c-.36-.06-.59-.4-.53-.76,.61-3.38,1.21-6.68,1.79-9.91,5.26-28.98,9.41-51.87,10.14-78.65,.01-.36,.27-.66,.67-.64,.36,.01,.65,.31,.64,.67-.73,26.88-4.89,49.81-10.16,78.85-.59,3.23-1.18,6.53-1.79,9.91-.06,.32-.33,.54-.64,.54Z"/><path class="ax" d="M431.38,403.4c-.06,0-.12,0-.18-.03-.35-.1-.54-.47-.44-.81,2.11-7.17,4.3-14.59,5.46-22.1,1.29-8.35,1.12-15.9-.51-22.45-1.8-7.25-5.5-13.91-10.7-19.28-.25-.26-.24-.67,.02-.92,.26-.25,.67-.25,.92,.02,5.36,5.53,9.17,12.4,11.03,19.87,1.67,6.72,1.85,14.45,.53,22.97-1.18,7.59-3.37,15.05-5.5,22.26-.08,.28-.34,.47-.63,.47Z"/><path class="cj" d="M367.06,667.75c-.57,2.15,.8,6.76,.8,6.76,0,0,18,1.07,21.13,0l1.14-6.76h-23.06Z"/><path class="cn" d="M450.5,667.06c-.15,2.22,2.06,6.49,2.06,6.49,0,0,17.88-2.36,20.75-4l-.17-6.86c-7.25,1.4-22.64,4.37-22.64,4.37Z"/><path class="bh" d="M405.66,340.62c18.45,11.38,53.73,41.26,59.55,43.44,7.27,2.73,62.23,21.75,62.23,21.75,0,0-2.65,9.08-4.58,11.01-8.63,0-57.25-9.48-66.79-13.28-7.13-2.84-51.63-25.47-69.11-37.53-12.37-8.54-11.21-24.84-3.75-29.65,7.31-4.72,12.31-2,22.46,4.27Z"/></g></g></g><g><g><path class="bv" d="M587.34,668.29s-6.66-7.77-.41-12.7c0,0,4.56-2.76,8.29-2.54,0,0-5.27,8.84-3.57,9.72,1.71,.88,5.17-10.28,5.17-10.28,0,0,10.39-1.01,13.73,.6,0,0-8.88,7.27-7.01,7.7,1.87,.43,11.46-6.7,11.46-6.7,0,0,9.67,1.65,9.15,7.54-.52,5.9-3.85,7.72-5.31,7.56-1.46-.16-10.03-3.43-10.22-2.23-.19,1.2,4.97,5.12,8.58,5.3,0,0-6.82,7.52-11.35,5.35-4.53-2.17-4.92-5.61-7.74-6.9-2.82-1.29-5.23-1.29-4.07,.03,1.17,1.32,6.28,2.59,7.89,5.45,1.61,2.86,3.06,4.78-1.62,4.08-4.69-.71-12.31-4.13-12.64-8.06l-.33-3.93Z"/><g><path class="bv" d="M619.4,661.8s-26.26-1.01-32.06,6.5c0,0-1.28,3.84-5.23,7.34l-.62,1.68s4.55-4.8,6.18-5.09c0,0-2.55-9.3,31.72-10.42Z"/><path class="bv" d="M582.12,675.63s-5.64,4.17-6.03,11.62l1.02,.09s1.8-7.7,5.05-10.71c3.25-3.01-.05-1-.05-1Z"/></g></g><g><path class="br" d="M564.06,658.52s10.59-5.93,5.65-13.98c0,0-3.96-4.94-8.19-6.22,0,0,2.26,12.01,0,12.29-2.26,.28-1.55-13.56-1.55-13.56,0,0-11.16-5.37-15.54-4.94,0,0,6.92,11.72,4.66,11.44-2.26-.28-10.03-12.15-10.03-12.15,0,0-11.44-2.12-13.28,4.66-1.84,6.78,1.13,10.17,2.83,10.59,1.69,.42,12.57,.28,12.29,1.7-.28,1.41-7.63,3.67-11.72,2.4,0,0,4.52,11.16,10.45,10.59,5.93-.56,7.77-4.24,11.44-4.52,3.67-.28,6.36,.71,4.52,1.69-1.84,.99-8.05,.32-11.02,2.85-2.97,2.52-5.37,4.08,.14,5.21,5.51,1.13,15.4,.42,17.37-3.81l1.98-4.24Z"/><g><path class="bv" d="M531.01,638.18s29.66,9.61,33.05,20.34c0,0-.14,4.8,2.83,10.31v2.12s-3.11-7.2-4.8-8.19c0,0,6.64-9.32-31.08-24.58Z"/><path class="bv" d="M566.88,668.83s4.57,6.95,1.97,15.4l-1.18-.32s1.14-9.31-1.25-14c-2.39-4.68,.46-1.09,.46-1.09Z"/></g></g><g><path class="br" d="M580.91,650.34s-13.97-7.82-7.45-18.43c0,0,5.21-6.52,10.8-8.19,0,0-2.98,15.83,0,16.2,2.98,.37,2.05-17.88,2.05-17.88,0,0,14.71-7.08,20.48-6.52,0,0-9.12,15.45-6.14,15.08,2.98-.37,13.22-16.01,13.22-16.01,0,0,15.08-2.79,17.5,6.14,2.42,8.94-1.49,13.41-3.72,13.97-2.23,.56-16.57,.37-16.2,2.23,.37,1.86,10.05,4.84,15.45,3.17,0,0-5.96,14.71-13.78,13.97-7.82-.74-10.24-5.59-15.08-5.96-4.84-.37-8.38,.93-5.96,2.23,2.42,1.3,10.61,.43,14.52,3.75,3.91,3.32,7.08,5.37-.19,6.86-7.26,1.49-20.3,.56-22.9-5.03l-2.61-5.59Z"/><g><path class="bv" d="M624.49,623.53s-39.1,12.66-43.57,26.81c0,0,.19,6.33-3.72,13.59v2.79s4.1-9.5,6.33-10.8c0,0-8.75-12.29,40.96-32.4Z"/><path class="bv" d="M577.19,663.93s-6.03,9.16-2.59,20.3l1.55-.42s-1.51-12.28,1.65-18.45c3.15-6.18-.61-1.43-.61-1.43Z"/></g></g><path class="bo" d="M580.44,708.41c15.11,0,27.36-12.25,27.36-27.36h-54.71c0,15.11,12.25,27.36,27.36,27.36Z"/><path class="bj" d="M587.17,708.2c-1.11,.14-2.25,.21-3.4,.21-15.11,0-27.35-12.25-27.35-27.36h6.8c0,13.96,10.45,25.47,23.96,27.15Z"/><path class="bo" d="M608.18,709.8h-55.47c0-1.86,1.51-3.37,3.37-3.37h48.72c1.86,0,3.38,1.51,3.38,3.37h0Z"/><rect class="bo" x="552.19" y="681.05" width="56.23" height=".84"/></g></g></g></svg>