<?xml version="1.0" encoding="UTF-8"?><svg xmlns="http://www.w3.org/2000/svg" xmlns:xlink="http://www.w3.org/1999/xlink" viewBox="0 0 1137.7 723.74"><defs><style>.o{fill:#979797;}.p{fill:url(#j);}.q,.r,.s{fill:#fff;}.t{fill:#7fccf1;}.u{fill:#6fcde6;}.v{fill:url(#i);}.w{fill:url(#l);}.x{fill:#cdebf6;}.y{fill:#e9f6fb;}.z,.s,.aa{opacity:.75;}.z,.ab,.ac{fill:#f4f5f5;}.ad{fill:#ed3624;}.ae{isolation:isolate;}.af{fill:#082947;}.ag{fill:#00c1ee;}.r,.ah,.ai,.aj,.ak,.ac,.al{opacity:.5;}.am{fill:#cdcdcd;}.am,.an,.ah,.ao,.aj,.ap,.ak,.aq,.ar,.al,.as{mix-blend-mode:color-burn;}.at{opacity:.25;}.at,.ai{fill:#1cbee4;}.an{fill:#c6c5c5;}.au{fill:#f3f4f5;}.av{fill:#3da9df;}.aw{fill:#a7ddee;}.ax{fill:#ee3e23;}.ay{fill:url(#e);}.ah{fill:#bfbebe;}.az{fill:#4bc5e4;}.ba{fill:#35c3eb;}.ao{fill:url(#n);}.bb{fill:#ee4523;}.aj{fill:url(#h);}.bc{fill:#e5522c;}.bd{fill:url(#d);}.ap{fill:#c6c4c3;}.be{fill:#111b29;}.bf{fill:url(#b);}.bg{fill:#00abe1;}.aa{fill:#dfdfdf;}.bh{fill:#092032;}.bi{fill:#ace0f4;}.bj{fill:#f3a974;}.bk{fill:url(#c);}.aq{fill:url(#f);}.bl{fill:#3cc3e4;}.bm{fill:#f4aa75;}.ar{fill:url(#m);}.al{fill:url(#g);}.bn{fill:url(#k);}.bo{fill:#101b29;}.bp{fill:#7cd0e6;}</style><linearGradient id="b" x1="-1378.68" y1="601.78" x2="-1549.71" y2="601.78" gradientTransform="translate(-688.62) rotate(-180) scale(1 -1)" gradientUnits="userSpaceOnUse"><stop offset="0" stop-color="#858485"/><stop offset="1" stop-color="#fff"/></linearGradient><linearGradient id="c" x1="-1378.67" y1="663.65" x2="-1549.71" y2="663.65" xlink:href="#b"/><linearGradient id="d" x1="-9735.98" x2="-9907.01" gradientTransform="translate(10187.43)" xlink:href="#b"/><linearGradient id="e" x1="-9735.98" y1="663.65" x2="-9907.01" y2="663.65" gradientTransform="translate(10187.43)" xlink:href="#b"/><linearGradient id="f" x1="271.4" y1="589.13" x2="271.4" y2="402.83" gradientUnits="userSpaceOnUse"><stop offset="0" stop-color="#a5a4a4"/><stop offset=".22" stop-color="#bbbaba"/><stop offset=".74" stop-color="#ecebeb"/><stop offset="1" stop-color="#fff"/></linearGradient><linearGradient id="g" x1="271.4" y1="580.49" x2="271.4" y2="519.38" gradientTransform="matrix(1, 0, 0, 1, 0, 0)" xlink:href="#b"/><linearGradient id="h" x1="271.4" y1="452.72" x2="271.4" y2="511.26" gradientTransform="matrix(1, 0, 0, 1, 0, 0)" xlink:href="#b"/><linearGradient id="i" x1="13127.94" y1="747.05" x2="13127.94" y2="563.94" gradientTransform="translate(12751.17 -3120.15) rotate(166.47) scale(1 -1)" gradientUnits="userSpaceOnUse"><stop offset="0" stop-color="#092032"/><stop offset="1" stop-color="#030607"/></linearGradient><linearGradient id="j" x1="13090.23" y1="1059.95" x2="13090.23" y2="876.85" gradientTransform="translate(12796.27 -2921.26) rotate(168.73) scale(1 -1)" xlink:href="#i"/><linearGradient id="k" x1="-19792.07" y1="1578.07" x2="-19758.91" y2="1746.81" gradientTransform="translate(-18826.13 1201.13) rotate(173.38) scale(1 -1)" gradientUnits="userSpaceOnUse"><stop offset="0" stop-color="#101e2c"/><stop offset="1" stop-color="#082947"/></linearGradient><linearGradient id="l" x1="-19603.4" y1="487.28" x2="-19570.24" y2="656.02" gradientTransform="translate(-18579.9) rotate(-180) scale(1 -1)" xlink:href="#k"/><linearGradient id="m" x1="-10793.64" y1="-5864.88" x2="-10793.64" y2="-5738.88" gradientTransform="translate(5774.06 11837.39) rotate(39.29)" gradientUnits="userSpaceOnUse"><stop offset="0" stop-color="#fff"/><stop offset="1" stop-color="#aaa"/></linearGradient><linearGradient id="n" x1="2510.13" y1="463.91" x2="2510.13" y2="501.94" gradientTransform="translate(3634.06 236.19) rotate(-174.42) scale(1 -1)" xlink:href="#m"/></defs><g class="ae"><g id="a"><g><path class="aa" d="M1107.69,715.68c0,4.43-3.95,8.05-8.79,8.05H45.35c-4.83,0-8.79-3.62-8.79-8.05h0c0-4.43,3.95-8.05,8.79-8.05H1098.9c4.83,0,8.79,3.62,8.79,8.05h0Z"/><g><g><g><g><g><path class="av" d="M862.36,624.27c-9.89-23.25-1.81-46.42,8.6-44.93,15.66,2.25,6.45,32.81-8.6,44.93Z"/><path class="av" d="M832.8,662.86c2.15-3.53,4.43-6.98,6.83-10.34-13.23-15.09-13.66-34.24-5.32-36.26,10.57-2.55,14.18,14.47,11.01,28.76,7.81-9.71,16.74-18.57,26.69-26.48,.28-.22,.58-.37,.9-.47,15.68-10.41,36.52-7.1,38.54,3.9,2.04,11.13-19.25,25.14-51.15,14.37-12.17,12.4-21.15,25.53-27.77,38.08l-5.55-1.15c1.82-3.54,3.76-7.02,5.82-10.41Z"/></g><path class="t" d="M788.61,685.91c-8.27,10.98-12,21.11-13.36,29.61h85.6c6.65-10.83,11.16-23.51,6.54-34.73-10.79-26.2-55.42-25.88-78.78,5.12Z"/><g><path class="av" d="M839.07,715.52c15.79-27.88,47.35-37.84,62.47-22.24,6.84,7.06,6.4,15.18,3.59,22.24h-66.07Z"/><path class="av" d="M726.8,655.33c-21.68,.86-34.63,32.15-24.43,57.94,.31,.78,.67,1.53,1.06,2.25h80.79c15.13-14.34,39.74-48.99,24.9-60.19-15.45-11.66-43.89,5.41-59.53,24.79-3.29-12.69-9.21-25.33-22.79-24.79Z"/></g></g><g class="ak"><path class="bf" d="M862.36,624.27c-9.89-23.25-1.81-46.42,8.6-44.93,15.66,2.25,6.45,32.81-8.6,44.93Z"/><path class="bk" d="M726.8,655.33c13.58-.54,19.49,12.1,22.79,24.79,15.64-19.38,44.08-36.45,59.53-24.79,3.42,2.58,4.74,6.4,4.57,10.93,6.53-2.75,13.28-4.2,19.73-4.39,1.97-3.19,4.05-6.3,6.22-9.35-13.23-15.09-13.66-34.24-5.32-36.26,10.57-2.55,14.18,14.47,11.01,28.76,7.81-9.71,16.74-18.57,26.69-26.48,.28-.22,.58-.37,.9-.47,15.68-10.41,36.52-7.1,38.54,3.9,2.04,11.13-19.25,25.14-51.15,14.37-8.23,8.38-15,17.1-20.56,25.74,12.49,1.28,23.1,7.62,27.66,18.7,1.05,2.54,1.62,5.16,1.81,7.81,12.21-4.61,24.49-3.42,32.34,4.68,6.84,7.06,6.4,15.18,3.59,22.24h-201.72c-.39-.72-.75-1.47-1.06-2.25-10.19-25.78,2.75-57.08,24.43-57.94Z"/></g></g><g><path class="q" d="M772.4,675.27c9.8-4.01,27.81-2.11,29.03-7.54,1.22-5.43-8.5-15.37-5.79-28.53,2.7-13.14,9.5-16.39,9.5-16.39,0,0-15.55,2.45-29.44-2.55-13.89-4.99-22.34-10.17-27.58,4.09-5.24,14.26-7.23,21.34-15.25,26.98-8.02,5.64-16.35,4.69-9.37-11.01,6.99-15.7,18.62-25.22,18.62-25.22,0,0-15.16-5.11-37.6,.16-22.45,5.28-31.46,12.99-29.8,28.84,1.66,15.85,15.34,41.21,4.77,46.79-10.58,5.57-17.26-17.78-18.18-30.85-.92-13.05,1.19-22.31,1.19-22.31,0,0-21.33,3.45-26.58,33.73-3.84,22.13,3.23,36.08,17.07,44.04h140.52c4.2-9.02,4.8-15.01,4.8-15.01,0,0-16.5,13.94-33.17,10.83-16.67-3.1-28.45-14.69-7.68-13.22,20.77,1.46,25.69,11.21,37.47-1.01,11.78-12.21,10.22-19.62,10.22-19.62,0,0-12.26,4.48-24.34,6.11-12.09,1.64-18.19-4.33-8.39-8.34Z"/><path class="ax" d="M772.4,675.27c9.8-4.01,27.81-2.11,29.03-7.54,1.22-5.43-8.5-15.37-5.79-28.53,2.7-13.14,9.5-16.39,9.5-16.39,0,0-15.55,2.45-29.44-2.55-13.89-4.99-22.34-10.17-27.58,4.09-5.24,14.26-7.23,21.34-15.25,26.98-8.02,5.64-16.35,4.69-9.36-11.01,6.98-15.7,18.61-25.22,18.61-25.22,0,0-15.16-5.11-37.6,.16-22.45,5.28-31.46,12.99-29.8,28.84,1.66,15.85,15.34,41.21,4.77,46.79-10.58,5.57-17.26-17.78-18.18-30.85-.92-13.05,1.18-22.31,1.18-22.31,0,0-21.33,3.45-26.58,33.73-3.84,22.13,3.23,36.08,17.07,44.04h140.52c4.2-9.02,4.8-15.01,4.8-15.01,0,0-16.5,13.94-33.17,10.83-16.67-3.1-28.45-14.69-7.69-13.22,20.77,1.46,25.69,11.21,37.47-1.01,11.78-12.21,10.22-19.62,10.22-19.62,0,0-12.26,4.48-24.35,6.11-12.09,1.64-18.19-4.33-8.39-8.34Zm-116.09,20.67c-5.17,3.78-16.69-10.56-10.45-14,6.91-3.81,15.63,10.22,10.45,14Zm41.22-1.88c4.3,4.38-8.18,15.54-12.73,7.89-4.55-7.65,7.63-13.09,12.73-7.89Zm10-49.32c-1.51,7.96-12.02,10.28-12.55,.88-.53-9.4,6.18-11.05,9.16-11.61,0,0,4.91,2.77,3.4,10.73Zm-.16,32.01c-9.9-.37-7.16-17.83,1.97-17.24,8.73,.56,7.93,17.62-1.97,17.24Zm69.16-24.61c6.63-4.46,7.59-.99,10.41,1.19,3.88,3.01,2.42,7.36-4.91,7.83-7.33,.47-12.13-4.55-5.5-9.02Zm-21.59,27.54c1,2.45-5.93,8.44-11.19,4.98-5.25-3.46-5.88-7.9,3.58-7.58,0,0,6.61,.15,7.61,2.6Zm11.03-37.98c-4.62,6.2-13.26,6.27-10.51-6.07,2.76-12.34,9.12-9.55,11.68-8.21l-.25-.03c4.84,2.91,3.69,8.11-.93,14.31Z"/><path class="ap" d="M770.8,644.91c-4.51,3.53-9.67,7.9-15.09,12.89-2.71,2.5-5.49,5.16-8.29,7.93-2.79,2.78-5.66,5.69-8.62,8.57-5.91,5.77-12.13,11.55-18.43,16.99-6.29,5.43-12.66,10.52-18.78,14.97-4.83,3.52-9.5,6.62-13.8,9.27h-8.57c1-.54,2.02-1.09,3.09-1.69,5.12-2.86,10.97-6.44,17.11-10.65,6.15-4.21,12.59-9.04,18.99-14.23,6.41-5.19,12.78-10.73,18.85-16.26,3.05-2.77,5.98-5.55,8.89-8.26,2.92-2.69,5.8-5.26,8.61-7.68,5.62-4.82,10.96-9.02,15.61-12.39,4.65-3.38,8.62-5.93,11.44-7.6,2.82-1.68,4.48-2.47,4.48-2.46,0,0-1.63,.85-4.38,2.63-2.75,1.77-6.61,4.46-11.12,7.99Z"/></g></g><g><g><g><g><path class="av" d="M279.13,624.27c9.89-23.25,1.81-46.42-8.6-44.93-15.66,2.25-6.45,32.81,8.6,44.93Z"/><path class="av" d="M308.7,662.86c-2.15-3.53-4.43-6.98-6.83-10.34,13.23-15.09,13.66-34.24,5.32-36.26-10.57-2.55-14.18,14.47-11.01,28.76-7.81-9.71-16.74-18.57-26.69-26.48-.28-.22-.58-.37-.9-.47-15.68-10.41-36.52-7.1-38.54,3.9-2.04,11.13,19.25,25.14,51.15,14.37,12.17,12.4,21.15,25.53,27.77,38.08l5.55-1.15c-1.82-3.54-3.76-7.02-5.82-10.41Z"/></g><path class="t" d="M274.1,680.79c-4.61,11.22-.11,23.9,6.54,34.73h85.6c-1.36-8.51-5.09-18.63-13.36-29.61-23.36-31-67.99-31.32-78.78-5.12Z"/><g><path class="av" d="M302.42,715.52c-15.79-27.88-47.35-37.84-62.47-22.24-6.84,7.06-6.4,15.18-3.59,22.24h66.07Z"/><path class="av" d="M414.7,655.33c21.68,.86,34.63,32.15,24.43,57.94-.31,.78-.67,1.53-1.06,2.25h-80.79c-15.13-14.34-39.74-48.99-24.9-60.19,15.45-11.66,43.89,5.41,59.53,24.79,3.29-12.69,9.21-25.33,22.79-24.79Z"/></g></g><g class="ak"><path class="bd" d="M279.13,624.27c9.89-23.25,1.81-46.42-8.6-44.93-15.66,2.25-6.45,32.81,8.6,44.93Z"/><path class="ay" d="M414.7,655.33c-13.58-.54-19.49,12.1-22.79,24.79-15.64-19.38-44.08-36.45-59.53-24.79-3.42,2.58-4.74,6.4-4.57,10.93-6.53-2.75-13.28-4.2-19.73-4.39-1.97-3.19-4.05-6.3-6.22-9.35,13.23-15.09,13.66-34.24,5.32-36.26-10.57-2.55-14.18,14.47-11.01,28.76-7.81-9.71-16.74-18.57-26.69-26.48-.28-.22-.58-.37-.9-.47-15.68-10.41-36.52-7.1-38.54,3.9-2.04,11.13,19.25,25.14,51.15,14.37,8.23,8.38,15,17.1,20.56,25.74-12.49,1.28-23.1,7.62-27.66,18.7-1.05,2.54-1.62,5.16-1.81,7.81-12.21-4.61-24.49-3.42-32.34,4.68-6.84,7.06-6.4,15.18-3.59,22.24h201.72c.39-.72,.75-1.47,1.06-2.25,10.19-25.78-2.75-57.08-24.43-57.94Z"/></g></g><g><path class="q" d="M378.92,675.27c-9.8-4.01-27.81-2.11-29.03-7.54-1.22-5.43,8.5-15.37,5.79-28.53-2.7-13.14-9.5-16.39-9.5-16.39,0,0,15.55,2.45,29.44-2.55,13.89-4.99,22.34-10.17,27.58,4.09,5.24,14.26,7.23,21.34,15.25,26.98,8.02,5.64,16.35,4.69,9.37-11.01-6.99-15.7-18.62-25.22-18.62-25.22,0,0,15.16-5.11,37.6,.16,22.45,5.28,31.46,12.99,29.8,28.84-1.66,15.85-15.34,41.21-4.77,46.79,10.58,5.57,17.26-17.78,18.18-30.85,.92-13.05-1.19-22.31-1.19-22.31,0,0,21.33,3.45,26.58,33.73,3.84,22.13-3.23,36.08-17.07,44.04h-140.52c-4.2-9.02-4.8-15.01-4.8-15.01,0,0,16.5,13.94,33.17,10.83,16.67-3.1,28.45-14.69,7.68-13.22-20.77,1.46-25.69,11.21-37.47-1.01-11.78-12.21-10.22-19.62-10.22-19.62,0,0,12.26,4.48,24.34,6.11,12.09,1.64,18.19-4.33,8.39-8.34Z"/><path class="ax" d="M370.53,683.61c-12.09-1.64-24.35-6.11-24.35-6.11,0,0-1.57,7.41,10.22,19.62,11.79,12.22,16.7,2.47,37.47,1.01,20.76-1.46,8.98,10.12-7.69,13.22-16.67,3.1-33.17-10.83-33.17-10.83,0,0,.6,5.98,4.8,15.01h140.52c13.84-7.97,20.92-21.92,17.07-44.04-5.25-30.28-26.58-33.73-26.58-33.73,0,0,2.1,9.25,1.18,22.31-.92,13.06-7.6,36.42-18.18,30.85-10.58-5.57,3.11-30.93,4.77-46.79,1.66-15.86-7.35-23.56-29.8-28.84-22.44-5.28-37.6-.16-37.6-.16,0,0,11.63,9.52,18.61,25.22,6.98,15.7-1.34,16.65-9.36,11.01-8.02-5.64-10.01-12.72-15.25-26.98-5.24-14.26-13.69-9.08-27.58-4.09-13.89,5-29.44,2.55-29.44,2.55,0,0,6.8,3.24,9.5,16.39,2.7,13.15-7.01,23.09-5.79,28.53,1.22,5.43,19.23,3.53,29.03,7.54,9.8,4.01,3.7,9.98-8.39,8.34Zm134.93-1.66c6.24,3.44-5.28,17.78-10.45,14-5.18-3.78,3.54-17.8,10.45-14Zm-38.94,20c-4.55,7.65-17.03-3.5-12.73-7.89,5.1-5.2,17.28,.24,12.73,7.89Zm-19.34-67.94c2.98,.56,9.69,2.21,9.16,11.61-.54,9.4-11.05,7.08-12.55-.88-1.51-7.96,3.4-10.73,3.4-10.73Zm-5.21,25.5c9.12-.59,11.87,16.87,1.97,17.24-9.9,.38-10.7-16.68-1.97-17.24Zm-72.69,1.65c-7.33-.47-8.8-4.82-4.91-7.83,2.81-2.18,3.78-5.65,10.41-1.19,6.64,4.47,1.84,9.48-5.5,9.02Zm34.7,15.93c9.46-.32,8.83,4.12,3.58,7.58-5.25,3.46-12.19-2.53-11.19-4.98,1-2.45,7.61-2.6,7.61-2.6Zm-19.57-49.69l-.25,.03c2.56-1.34,8.92-4.13,11.68,8.21,2.76,12.34-5.88,12.27-10.51,6.07-4.62-6.2-5.77-11.4-.93-14.31Z"/><path class="ap" d="M380.52,644.91c4.51,3.53,9.67,7.9,15.09,12.89,2.71,2.5,5.49,5.16,8.29,7.93,2.79,2.78,5.66,5.69,8.62,8.57,5.91,5.77,12.13,11.55,18.43,16.99,6.29,5.43,12.66,10.52,18.78,14.97,4.83,3.52,9.5,6.62,13.8,9.27h8.57c-1-.54-2.02-1.09-3.09-1.69-5.12-2.86-10.97-6.44-17.11-10.65-6.15-4.21-12.59-9.04-18.99-14.23-6.41-5.19-12.78-10.73-18.85-16.26-3.05-2.77-5.98-5.55-8.89-8.26-2.92-2.69-5.8-5.26-8.61-7.68-5.62-4.82-10.96-9.02-15.61-12.39-4.65-3.38-8.62-5.93-11.44-7.6-2.82-1.68-4.48-2.47-4.48-2.46,0,0,1.63,.85,4.38,2.63,2.75,1.77,6.61,4.46,11.12,7.99Z"/></g></g></g><g><path class="ag" d="M499.13,119.83c0,1.63,1.33,2.96,2.96,2.96h140.51c1.62,0,2.96-1.33,2.96-2.96V12.15h-146.42V119.83Z"/><path class="af" d="M642.59,0h-140.51c-1.63,0-2.96,1.33-2.96,2.96V12.15h146.42V2.96c0-1.63-1.33-2.96-2.96-2.96Z"/><g><path class="q" d="M640.95,6.08c0-1.34-1.09-2.43-2.43-2.43s-2.43,1.09-2.43,2.43,1.09,2.43,2.43,2.43,2.43-1.09,2.43-2.43Z"/><path class="s" d="M622.77,6.08c0-1.34-1.09-2.43-2.43-2.43s-2.43,1.09-2.43,2.43,1.09,2.43,2.43,2.43,2.43-1.09,2.43-2.43Z"/><path class="r" d="M604.59,6.08c0-1.34-1.09-2.43-2.43-2.43s-2.43,1.09-2.43,2.43,1.09,2.43,2.43,2.43,2.43-1.09,2.43-2.43Z"/></g><path class="q" d="M549.88,82.13l7.88,7.87c3.74-3.74,8.89-6.05,14.58-6.05s10.85,2.32,14.59,6.05l7.87-7.87c-5.75-5.75-13.69-9.31-22.46-9.31s-16.7,3.56-22.46,9.31Zm14.59,14.58l7.87,7.88,7.87-7.88c-2.01-2.01-4.79-3.26-7.87-3.26s-5.85,1.25-7.87,3.26Zm-30.18-30.19l7.87,7.88c7.73-7.74,18.41-12.53,30.18-12.53s22.45,4.8,30.19,12.53l7.87-7.88c-9.75-9.75-23.21-15.79-38.06-15.79s-28.3,6.04-38.05,15.79Zm38.05-36.18c-20.46,0-39.02,8.32-52.47,21.77l7.87,7.86c11.43-11.43,27.21-18.51,44.6-18.51s33.18,7.08,44.61,18.51l7.87-7.86c-13.44-13.45-32.02-21.77-52.48-21.77Z"/></g><g><circle class="q" cx="572.34" cy="334.12" r="179.15"/><g><path class="bb" d="M572.34,493.02c-42.44,0-82.35-16.53-112.36-46.54-30.01-30.01-46.54-69.92-46.54-112.36s16.53-82.35,46.54-112.36c30.01-30.01,69.92-46.54,112.36-46.54s82.35,16.53,112.36,46.54c30.01,30.01,46.54,69.92,46.54,112.36s-16.53,82.35-46.54,112.36c-30.01,30.01-69.92,46.54-112.36,46.54Zm0-307.51c-81.94,0-148.6,66.66-148.6,148.6s66.66,148.6,148.6,148.6,148.6-66.66,148.6-148.6-66.66-148.6-148.6-148.6Z"/><path class="bb" d="M685.76,439.2c-28.45-17.93-69.79-28.22-113.42-28.22s-84.98,10.28-113.42,28.22l-5.49-8.71c30.05-18.94,73.39-29.8,118.91-29.8s88.87,10.86,118.91,29.8l-5.49,8.71Zm-113.42-171.64c-45.53,0-88.87-10.86-118.91-29.8l5.49-8.71c28.45,17.93,69.79,28.22,113.42,28.22s84.98-10.28,113.42-28.22l5.49,8.71c-30.05,18.94-73.39,29.8-118.91,29.8Z"/><path class="bb" d="M572.34,493.02c-28.55,0-55.22-16.82-75.12-47.37-19.45-29.87-30.16-69.47-30.16-111.53s10.71-81.66,30.16-111.53c19.89-30.55,46.57-47.37,75.12-47.37s55.22,16.82,75.12,47.37c19.45,29.87,30.16,69.47,30.16,111.53s-10.71,81.66-30.16,111.53c-19.89,30.55-46.57,47.37-75.12,47.37Zm0-307.51c-24.95,0-48.56,15.16-66.49,42.69-18.37,28.21-28.49,65.83-28.49,105.91s10.12,77.7,28.49,105.91c17.93,27.53,41.54,42.69,66.49,42.69s48.56-15.16,66.49-42.69c18.37-28.21,28.49-65.83,28.49-105.91s-10.12-77.7-28.49-105.91c-17.93-27.53-41.54-42.69-66.49-42.69Z"/><path class="bb" d="M572.34,493.02c-12.48,0-22.62-16.49-30.13-49.02-6.79-29.41-10.53-68.43-10.53-109.88s3.74-80.47,10.53-109.88c7.51-32.53,17.65-49.02,30.13-49.02s22.62,16.49,30.13,49.02c6.79,29.41,10.53,68.43,10.53,109.88s-3.74,80.47-10.53,109.88c-7.51,32.53-17.65,49.02-30.13,49.02Zm0-307.51c-3.94,0-12.61,8.64-20.1,41.04-6.62,28.67-10.27,66.87-10.27,107.56s3.65,78.89,10.27,107.56c7.48,32.4,16.15,41.04,20.1,41.04s12.61-8.64,20.1-41.04c6.62-28.67,10.27-66.87,10.27-107.56s-3.65-78.89-10.27-107.56c-7.48-32.4-16.15-41.04-20.1-41.04Z"/><rect class="bb" x="420.15" y="328.97" width="304.37" height="10.3"/></g></g><g><g><g><path class="af" d="M354.2,441.11l-79.41-59.4c-1.87-1.39-4.92-1.39-6.78,0l-79.41,59.4c-1.86,1.4-3.39,4.44-3.39,6.77v99.6c0,3.73,3.05,6.77,6.77,6.77h158.84c3.73,0,6.78-3.05,6.78-6.77v-99.6c0-2.33-1.53-5.38-3.39-6.77Z"/><path class="aq" d="M354.2,441.11l-79.41-59.4c-1.87-1.39-4.92-1.39-6.78,0l-79.41,59.4c-1.86,1.4-3.39,4.44-3.39,6.77v99.6c0,3.73,3.05,6.77,6.77,6.77h158.84c3.73,0,6.78-3.05,6.78-6.77v-99.6c0-2.33-1.53-5.38-3.39-6.77Z"/></g><g><path class="bl" d="M336.15,144.69h-93.75l-43.51,43.51v329.63c0,4.27,3.49,7.77,7.76,7.77h129.49c4.27,0,7.76-3.49,7.76-7.77V152.46c0-4.27-3.49-7.76-7.76-7.76Z"/><path class="af" d="M234.63,188.2c4.27,0,7.76-3.49,7.76-7.76v-35.74l-43.51,43.51h35.75Z"/><path class="ad" d="M233.3,170.35l-8.28-8.28-6.01-6.01s-.02,0-.02-.02c-1.9-1.87-4.98-1.86-6.87,.04-1.9,1.9-1.91,4.99-.02,6.89h0s6.01,6.01,6.01,6.01l1.24-1.24-6-6c-1.22-1.22-1.21-3.2,.02-4.43,1.22-1.22,3.21-1.23,4.43-.01,0,0,0,0,.01,0l5.99,5.99,8.28,8.28c1.87,1.87,1.87,4.92,0,6.8-1.87,1.88-4.92,1.88-6.8,0l-8.28-8.28-6.01-6.01c-2.51-2.51-2.51-6.6,0-9.11,2.51-2.51,6.6-2.51,9.11,0l6.01,6,1.24-1.24-6.01-6.01c-3.19-3.19-8.39-3.19-11.58,0-3.19,3.19-3.19,8.39,0,11.58l6.01,6.01,8.28,8.28c2.55,2.56,6.71,2.56,9.27,0,2.55-2.56,2.55-6.72,0-9.27Z"/></g><g><rect class="af" x="205.71" y="200.87" width="131.38" height="323.88" rx="4.16" ry="4.16"/><path class="au" d="M211.39,213.81h120.02c1.05,0,1.9,.85,1.9,1.9v302.79c0,1.05-.85,1.9-1.9,1.9h-120.02c-1.05,0-1.9-.85-1.9-1.9V215.71c0-1.05,.85-1.9,1.9-1.9Z"/><g><path class="ac" d="M291.5,207.33c0-1.29,1.06-2.34,2.35-2.34s2.35,1.05,2.35,2.34-1.05,2.35-2.35,2.35-2.35-1.05-2.35-2.35Z"/><path class="z" d="M307.39,207.33c0-1.29,1.05-2.34,2.34-2.34s2.35,1.05,2.35,2.34-1.05,2.35-2.35,2.35-2.34-1.05-2.34-2.35Z"/><path class="ab" d="M323.28,207.33c0-1.29,1.05-2.34,2.34-2.34s2.35,1.05,2.35,2.34-1.05,2.35-2.35,2.35-2.34-1.05-2.34-2.35Z"/></g></g><path class="al" d="M351.46,559.27c.18-.02,.36-.04,.53-.07,.03,0,.05,0,.08-.01,.18-.03,.35-.07,.52-.12,.02,0,.04-.01,.06-.02,.18-.05,.35-.11,.53-.17,0,0,0,0,0,0,.74-.28,1.41-.68,2-1.18-.31-.35-.64-.67-.99-.92l-54.18-52.79-25.23,18.87c-1.87,1.39-4.92,1.39-6.78,0l-25.23-18.87-54.18,52.79c-.34,.26-.67,.57-.99,.92,.15,.12,.3,.24,.46,.36,0,0,0,0,0,0,.16,.11,.32,.22,.48,.31,0,0,0,0,.01,0,.33,.19,.68,.36,1.04,.5,0,0,.01,0,.02,0,.17,.06,.34,.12,.52,.17,.02,0,.05,.01,.07,.02,.17,.05,.34,.08,.52,.12,.03,0,.06,0,.09,.02,.18,.03,.35,.06,.53,.07,.02,0,.05,0,.07,0,.19,.02,.38,.03,.57,.03h158.84c.19,0,.38-.01,.57-.03,.02,0,.05,0,.07,0Z"/><g><g><path class="az" d="M215.7,355.03h19.45c.56,0,1.01,.45,1.01,1.01v1.84c0,.56-.46,1.02-1.02,1.02h-19.45c-.56,0-1.02-.46-1.02-1.02v-1.83c0-.56,.46-1.02,1.02-1.02Z"/><path class="bg" d="M240.19,355.03h9.36c.56,0,1.02,.46,1.02,1.02v1.83c0,.56-.46,1.02-1.02,1.02h-9.36c-.56,0-1.02-.46-1.02-1.02v-1.84c0-.56,.45-1.01,1.01-1.01Z"/><path class="bg" d="M254.6,355.03h20.97c.56,0,1.02,.46,1.02,1.02v1.83c0,.56-.46,1.02-1.02,1.02h-20.97c-.56,0-1.01-.45-1.01-1.01v-1.84c0-.56,.46-1.02,1.02-1.02Z"/></g><g><path class="az" d="M217.08,405.09h9.88c.56,0,1.02,.46,1.02,1.02v1.83c0,.56-.46,1.02-1.02,1.02h-9.88c-.56,0-1.01-.45-1.01-1.01v-1.84c0-.56,.46-1.02,1.02-1.02Z"/><path class="ad" d="M232,405.09h30.93c.56,0,1.02,.46,1.02,1.02v1.83c0,.56-.46,1.02-1.02,1.02h-30.93c-.56,0-1.02-.46-1.02-1.02v-1.83c0-.56,.46-1.02,1.02-1.02Z"/><path class="az" d="M267.98,405.09h6.47c.56,0,1.02,.46,1.02,1.02v1.83c0,.56-.46,1.02-1.02,1.02h-6.47c-.56,0-1.02-.46-1.02-1.02v-1.83c0-.56,.46-1.02,1.02-1.02Z"/></g><g><path class="bg" d="M240.83,362.19h5.16c.56,0,1.01,.45,1.01,1.01v1.84c0,.56-.46,1.02-1.02,1.02h-5.15c-.56,0-1.02-.46-1.02-1.02v-1.83c0-.56,.46-1.02,1.02-1.02Z"/><path class="az" d="M251.03,362.19h30.98c.56,0,1.02,.46,1.02,1.02v1.83c0,.56-.46,1.02-1.02,1.02h-30.98c-.56,0-1.02-.46-1.02-1.02v-1.83c0-.56,.46-1.02,1.02-1.02Z"/></g><g><path class="bg" d="M224.82,397.94h5.15c.56,0,1.02,.46,1.02,1.02v1.83c0,.56-.46,1.02-1.02,1.02h-5.16c-.56,0-1.02-.46-1.02-1.02v-1.83c0-.56,.46-1.02,1.02-1.02Z"/><path class="az" d="M235.02,397.94h21.48c.56,0,1.02,.46,1.02,1.02v1.84c0,.56-.45,1.02-1.02,1.02h-21.49c-.56,0-1.02-.46-1.02-1.02v-1.83c0-.56,.46-1.02,1.02-1.02Z"/></g><g><path class="bg" d="M246.84,383.64h5.16c.56,0,1.02,.45,1.02,1.02v1.84c0,.56-.45,1.01-1.01,1.01h-5.16c-.56,0-1.02-.46-1.02-1.02v-1.83c0-.56,.45-1.02,1.02-1.02Z"/><path class="ad" d="M257.04,383.64h19.6c.56,0,1.02,.46,1.02,1.02v1.83c0,.56-.45,1.02-1.02,1.02h-19.6c-.56,0-1.02-.46-1.02-1.02v-1.83c0-.56,.45-1.02,1.02-1.02Z"/></g><g><path class="bg" d="M257.03,376.49h9.93c.56,0,1.02,.45,1.02,1.02v1.83c0,.56-.46,1.02-1.02,1.02h-9.93c-.56,0-1.02-.46-1.02-1.02v-1.83c0-.56,.46-1.02,1.02-1.02Z"/><path class="az" d="M271.97,376.49h18.24c.56,0,1.02,.45,1.02,1.02v1.83c0,.56-.46,1.02-1.02,1.02h-18.24c-.56,0-1.02-.46-1.02-1.02v-1.83c0-.56,.45-1.02,1.02-1.02Z"/><path class="bg" d="M295.22,376.49h5.35c.56,0,1.02,.45,1.02,1.02v1.83c0,.56-.46,1.02-1.02,1.02h-5.35c-.56,0-1.01-.45-1.01-1.01v-1.84c0-.56,.45-1.02,1.02-1.02Z"/></g><g><path class="bg" d="M251.58,369.34h5.15c.56,0,1.02,.46,1.02,1.02v1.83c0,.56-.46,1.02-1.02,1.02h-5.16c-.56,0-1.01-.45-1.01-1.01v-1.84c0-.56,.45-1.02,1.02-1.02Z"/><path class="ad" d="M261.78,369.34h12.8c.56,0,1.02,.46,1.02,1.02v1.83c0,.56-.45,1.02-1.02,1.02h-12.8c-.56,0-1.02-.46-1.02-1.02v-1.83c0-.56,.45-1.02,1.02-1.02Z"/></g><g><path class="bg" d="M242.87,390.79h5.15c.56,0,1.02,.46,1.02,1.02v1.83c0,.56-.46,1.02-1.02,1.02h-5.15c-.56,0-1.01-.45-1.01-1.01v-1.84c0-.56,.46-1.02,1.02-1.02Z"/><path class="bg" d="M253.07,390.79h13.01c.56,0,1.02,.46,1.02,1.02v1.83c0,.56-.46,1.02-1.02,1.02h-13.01c-.56,0-1.02-.46-1.02-1.02v-1.84c0-.56,.46-1.02,1.02-1.02Z"/></g><g><path class="bg" d="M217.06,254.92h5.16c.56,0,1.01,.45,1.01,1.01v1.83c0,.56-.46,1.02-1.02,1.02h-5.16c-.56,0-1.02-.46-1.02-1.02v-1.83c0-.56,.45-1.01,1.01-1.01Z"/><path class="az" d="M227.26,254.92h30.98c.56,0,1.01,.45,1.01,1.01v1.84c0,.56-.45,1.02-1.02,1.02h-30.98c-.56,0-1.02-.46-1.02-1.02v-1.83c0-.56,.45-1.01,1.01-1.01Z"/></g><g><path class="bg" d="M223.08,276.37h5.16c.56,0,1.02,.46,1.02,1.02v1.83c0,.56-.45,1.01-1.01,1.01h-5.16c-.56,0-1.01-.45-1.01-1.01v-1.83c0-.56,.46-1.02,1.02-1.02Z"/><path class="bg" d="M233.28,276.37h19.6c.56,0,1.02,.46,1.02,1.02v1.83c0,.56-.45,1.01-1.01,1.01h-19.6c-.56,0-1.01-.45-1.01-1.01v-1.83c0-.56,.46-1.02,1.02-1.02Z"/></g><g><rect class="bg" x="232.25" y="269.22" width="11.96" height="3.87" rx="1.02" ry="1.02"/><path class="az" d="M248.21,269.22h18.24c.56,0,1.02,.46,1.02,1.02v1.83c0,.56-.46,1.02-1.02,1.02h-18.24c-.56,0-1.02-.46-1.02-1.02v-1.83c0-.56,.46-1.02,1.02-1.02Z"/><rect class="bg" x="270.44" y="269.22" width="7.38" height="3.87" rx="1.02" ry="1.02"/></g><g><path class="bg" d="M227.82,262.07h5.16c.56,0,1.02,.46,1.02,1.02v1.83c0,.56-.46,1.02-1.02,1.02h-5.16c-.56,0-1.02-.46-1.02-1.02v-1.83c0-.56,.45-1.02,1.02-1.02Z"/><path class="ad" d="M238.02,262.07h12.8c.56,0,1.02,.46,1.02,1.02v1.83c0,.56-.46,1.02-1.02,1.02h-12.8c-.56,0-1.02-.46-1.02-1.02v-1.83c0-.56,.45-1.02,1.02-1.02Z"/></g><g><path class="bg" d="M219.11,283.52h5.16c.56,0,1.02,.46,1.02,1.02v1.83c0,.56-.46,1.02-1.02,1.02h-5.16c-.56,0-1.02-.46-1.02-1.02v-1.83c0-.56,.45-1.02,1.02-1.02Z"/><path class="ad" d="M229.31,283.52h13.01c.56,0,1.02,.46,1.02,1.02v1.83c0,.56-.46,1.02-1.02,1.02h-13.01c-.56,0-1.02-.46-1.02-1.02v-1.83c0-.56,.45-1.02,1.02-1.02Z"/></g><g><rect class="az" x="229.16" y="469.45" width="11.92" height="3.87" rx="1.02" ry="1.02"/><path class="ad" d="M245.1,469.45h30.93c.56,0,1.01,.45,1.01,1.01v1.84c0,.56-.45,1.01-1.01,1.01h-30.94c-.56,0-1.01-.45-1.01-1.01v-1.84c0-.56,.46-1.02,1.02-1.02Z"/><path class="az" d="M281.08,469.45h6.47c.56,0,1.02,.46,1.02,1.02v1.83c0,.56-.46,1.02-1.02,1.02h-6.47c-.56,0-1.02-.46-1.02-1.02v-1.83c0-.56,.46-1.02,1.02-1.02Z"/></g><g><path class="bg" d="M237.92,462.3h5.15c.56,0,1.02,.46,1.02,1.02v1.83c0,.56-.46,1.02-1.02,1.02h-5.15c-.56,0-1.01-.45-1.01-1.01v-1.84c0-.56,.46-1.02,1.02-1.02Z"/><path class="az" d="M248.12,462.3h21.49c.56,0,1.02,.46,1.02,1.02v1.83c0,.56-.46,1.02-1.02,1.02h-21.48c-.56,0-1.02-.46-1.02-1.02v-1.84c0-.56,.45-1.01,1.01-1.01Z"/></g><g><path class="az" d="M218.89,505.21h9.88c.56,0,1.02,.46,1.02,1.02v1.84c0,.56-.45,1.02-1.02,1.02h-9.88c-.56,0-1.02-.46-1.02-1.02v-1.83c0-.56,.46-1.02,1.02-1.02Z"/><path class="bg" d="M233.81,505.21h30.94c.56,0,1.01,.45,1.01,1.01v1.84c0,.56-.45,1.02-1.02,1.02h-30.93c-.56,0-1.02-.46-1.02-1.02v-1.83c0-.56,.46-1.02,1.02-1.02Z"/><path class="az" d="M269.79,505.21h6.47c.56,0,1.02,.46,1.02,1.02v1.84c0,.56-.45,1.02-1.02,1.02h-6.47c-.56,0-1.02-.46-1.02-1.02v-1.83c0-.56,.46-1.02,1.02-1.02Z"/></g><g><path class="bg" d="M226.63,498.06h5.16c.56,0,1.02,.46,1.02,1.02v1.83c0,.56-.46,1.02-1.02,1.02h-5.16c-.56,0-1.01-.45-1.01-1.01v-1.84c0-.56,.45-1.01,1.01-1.01Z"/><rect class="az" x="235.81" y="498.06" width="23.52" height="3.87" rx="1.02" ry="1.02"/></g><g><path class="bg" d="M259.94,448h5.16c.56,0,1.02,.46,1.02,1.02v1.83c0,.56-.46,1.02-1.02,1.02h-5.16c-.56,0-1.01-.45-1.01-1.01v-1.83c0-.56,.46-1.02,1.02-1.02Z"/><path class="ad" d="M270.14,448h19.6c.56,0,1.02,.46,1.02,1.02v1.83c0,.56-.46,1.02-1.02,1.02h-19.6c-.56,0-1.01-.45-1.01-1.01v-1.83c0-.56,.46-1.02,1.02-1.02Z"/></g><g><path class="bg" d="M270.13,440.85h9.93c.56,0,1.02,.46,1.02,1.02v1.83c0,.56-.46,1.02-1.02,1.02h-9.93c-.56,0-1.02-.46-1.02-1.02v-1.83c0-.56,.45-1.02,1.02-1.02Z"/><path class="az" d="M285.07,440.85h18.24c.56,0,1.02,.46,1.02,1.02v1.83c0,.56-.46,1.02-1.02,1.02h-18.24c-.56,0-1.02-.46-1.02-1.02v-1.83c0-.56,.45-1.02,1.02-1.02Z"/><path class="ad" d="M308.32,440.85h5.35c.56,0,1.02,.46,1.02,1.02v1.83c0,.56-.46,1.02-1.02,1.02h-5.35c-.56,0-1.02-.46-1.02-1.02v-1.83c0-.56,.45-1.02,1.02-1.02Z"/></g><g><path class="bg" d="M255.97,455.15h5.15c.56,0,1.02,.46,1.02,1.02v1.83c0,.56-.45,1.01-1.01,1.01h-5.16c-.56,0-1.02-.46-1.02-1.02v-1.83c0-.56,.45-1.02,1.02-1.02Z"/><path class="bg" d="M266.17,455.15h13.01c.56,0,1.02,.46,1.02,1.02v1.83c0,.56-.45,1.01-1.01,1.01h-13.01c-.56,0-1.02-.46-1.02-1.02v-1.83c0-.56,.45-1.02,1.02-1.02Z"/></g><g><path class="bg" d="M257.12,483.76h5.16c.56,0,1.02,.45,1.02,1.02v1.83c0,.56-.46,1.02-1.02,1.02h-5.16c-.56,0-1.01-.45-1.01-1.01v-1.84c0-.56,.45-1.02,1.02-1.02Z"/><path class="bg" d="M267.32,483.76h19.6c.56,0,1.02,.45,1.02,1.02v1.83c0,.56-.46,1.02-1.02,1.02h-19.6c-.56,0-1.01-.45-1.01-1.01v-1.84c0-.56,.45-1.02,1.02-1.02Z"/></g><g><path class="bg" d="M267.31,476.61h9.93c.56,0,1.02,.46,1.02,1.02v1.83c0,.56-.45,1.02-1.02,1.02h-9.93c-.56,0-1.02-.45-1.02-1.02v-1.83c0-.56,.45-1.02,1.02-1.02Z"/><path class="az" d="M282.25,476.61h18.24c.56,0,1.02,.45,1.02,1.02v1.83c0,.56-.46,1.02-1.02,1.02h-18.24c-.56,0-1.02-.46-1.02-1.02v-1.83c0-.56,.45-1.02,1.02-1.02Z"/><path class="bg" d="M305.5,476.61h5.35c.56,0,1.02,.46,1.02,1.02v1.83c0,.56-.45,1.02-1.02,1.02h-5.35c-.56,0-1.02-.45-1.02-1.02v-1.83c0-.56,.45-1.02,1.02-1.02Z"/></g><g><rect class="bg" x="252.14" y="490.91" width="7.19" height="3.87" rx="1.02" ry="1.02"/><path class="bg" d="M263.35,490.91h13.01c.56,0,1.02,.46,1.02,1.02v1.83c0,.56-.45,1.01-1.01,1.01h-13.01c-.56,0-1.02-.46-1.02-1.02v-1.83c0-.56,.45-1.02,1.02-1.02Z"/></g><g><path class="bg" d="M256.8,433.7h5.16c.56,0,1.01,.45,1.01,1.01v1.84c0,.56-.45,1.01-1.01,1.01h-5.16c-.56,0-1.02-.46-1.02-1.02v-1.83c0-.56,.46-1.02,1.02-1.02Z"/><path class="az" d="M267,433.7h17.66c.56,0,1.02,.46,1.02,1.02v1.83c0,.56-.45,1.01-1.01,1.01h-17.66c-.56,0-1.02-.46-1.02-1.02v-1.83c0-.56,.46-1.02,1.02-1.02Z"/></g><g><path class="az" d="M259.7,419.4h5.16c.56,0,1.01,.45,1.01,1.01v1.83c0,.56-.46,1.02-1.02,1.02h-5.15c-.56,0-1.02-.46-1.02-1.02v-1.83c0-.56,.45-1.02,1.02-1.02Z"/><path class="ad" d="M269.89,419.4h24.22c.56,0,1.02,.46,1.02,1.02v1.83c0,.56-.46,1.02-1.02,1.02h-24.21c-.56,0-1.02-.46-1.02-1.02v-1.83c0-.56,.45-1.02,1.02-1.02Z"/></g><g><path class="bg" d="M237.7,412.24h9.93c.56,0,1.01,.45,1.01,1.01v1.84c0,.56-.45,1.01-1.01,1.01h-9.93c-.56,0-1.02-.46-1.02-1.02v-1.83c0-.56,.45-1.02,1.02-1.02Z"/><path class="bg" d="M252.64,412.24h12.12c.56,0,1.01,.45,1.01,1.01v1.84c0,.56-.46,1.02-1.02,1.02h-12.12c-.56,0-1.02-.46-1.02-1.02v-1.83c0-.56,.45-1.02,1.02-1.02Z"/><path class="bg" d="M269.77,412.24h16.08c.56,0,1.02,.46,1.02,1.02v1.83c0,.56-.46,1.02-1.02,1.02h-16.08c-.56,0-1.02-.46-1.02-1.02v-1.83c0-.56,.45-1.02,1.02-1.02Z"/></g><g><path class="ad" d="M265.75,426.55h5.15c.56,0,1.02,.46,1.02,1.02v1.83c0,.56-.46,1.02-1.02,1.02h-5.16c-.56,0-1.02-.46-1.02-1.02v-1.83c0-.56,.46-1.02,1.02-1.02Z"/><path class="bg" d="M275.95,426.55h17.41c.56,0,1.02,.46,1.02,1.02v1.83c0,.56-.46,1.02-1.02,1.02h-17.42c-.56,0-1.02-.46-1.02-1.02v-1.83c0-.56,.46-1.02,1.02-1.02Z"/></g><g><path class="az" d="M235.58,290.67h19.45c.56,0,1.01,.45,1.01,1.01v1.83c0,.56-.46,1.02-1.02,1.02h-19.45c-.56,0-1.02-.46-1.02-1.02v-1.83c0-.56,.45-1.02,1.02-1.02Z"/><path class="bg" d="M260.07,290.67h9.36c.56,0,1.02,.46,1.02,1.02v1.83c0,.56-.46,1.02-1.02,1.02h-9.36c-.56,0-1.02-.46-1.02-1.02v-1.83c0-.56,.45-1.02,1.02-1.02Z"/><path class="ad" d="M274.48,290.67h20.97c.56,0,1.02,.46,1.02,1.02v1.83c0,.56-.46,1.02-1.02,1.02h-20.97c-.56,0-1.01-.45-1.01-1.01v-1.84c0-.56,.45-1.02,1.02-1.02Z"/></g><g><path class="az" d="M243.6,340.73h9.88c.56,0,1.02,.46,1.02,1.02v1.83c0,.56-.45,1.02-1.02,1.02h-9.89c-.56,0-1.02-.46-1.02-1.02v-1.83c0-.56,.46-1.02,1.02-1.02Z"/><path class="ad" d="M258.53,340.73h30.93c.56,0,1.02,.46,1.02,1.02v1.83c0,.56-.45,1.02-1.02,1.02h-30.94c-.56,0-1.02-.46-1.02-1.02v-1.83c0-.56,.46-1.02,1.02-1.02Z"/><path class="az" d="M294.51,340.73h6.47c.56,0,1.01,.45,1.01,1.01v1.84c0,.56-.45,1.02-1.02,1.02h-6.47c-.56,0-1.01-.45-1.01-1.01v-1.83c0-.56,.46-1.02,1.02-1.02Z"/></g><g><path class="bg" d="M260.71,297.82h5.15c.56,0,1.02,.46,1.02,1.02v1.83c0,.56-.46,1.02-1.02,1.02h-5.15c-.56,0-1.02-.46-1.02-1.02v-1.83c0-.56,.46-1.02,1.02-1.02Z"/><path class="az" d="M270.91,297.82h30.98c.56,0,1.01,.45,1.01,1.01v1.84c0,.56-.46,1.02-1.02,1.02h-30.97c-.56,0-1.02-.46-1.02-1.02v-1.83c0-.56,.46-1.02,1.02-1.02Z"/></g><g><path class="bg" d="M251.35,333.58h5.15c.56,0,1.02,.46,1.02,1.02v1.83c0,.56-.46,1.02-1.02,1.02h-5.16c-.56,0-1.02-.46-1.02-1.02v-1.83c0-.56,.46-1.02,1.02-1.02Z"/><path class="az" d="M261.55,333.58h21.49c.56,0,1.01,.45,1.01,1.01v1.84c0,.56-.46,1.02-1.02,1.02h-21.48c-.56,0-1.02-.46-1.02-1.02v-1.83c0-.56,.46-1.02,1.02-1.02Z"/></g><g><path class="bg" d="M273.36,319.28h5.16c.56,0,1.02,.46,1.02,1.02v1.83c0,.56-.46,1.02-1.02,1.02h-5.15c-.56,0-1.02-.46-1.02-1.02v-1.83c0-.56,.45-1.02,1.02-1.02Z"/><path class="bg" d="M283.56,319.28h19.6c.56,0,1.02,.46,1.02,1.02v1.83c0,.56-.46,1.02-1.02,1.02h-19.6c-.56,0-1.01-.45-1.01-1.01v-1.84c0-.56,.45-1.02,1.02-1.02Z"/></g><g><path class="bg" d="M283.55,312.13h9.93c.56,0,1.02,.46,1.02,1.02v1.83c0,.56-.45,1.02-1.02,1.02h-9.93c-.56,0-1.02-.46-1.02-1.02v-1.83c0-.56,.45-1.02,1.02-1.02Z"/><path class="az" d="M298.49,312.13h18.24c.56,0,1.02,.46,1.02,1.02v1.83c0,.56-.45,1.02-1.02,1.02h-18.24c-.56,0-1.01-.45-1.01-1.01v-1.83c0-.56,.45-1.02,1.02-1.02Z"/><path class="bg" d="M321.75,312.13h5.35c.56,0,1.01,.45,1.01,1.01v1.83c0,.56-.45,1.02-1.02,1.02h-5.35c-.56,0-1.02-.46-1.02-1.02v-1.83c0-.56,.45-1.02,1.02-1.02Z"/></g><g><path class="bg" d="M278.11,304.98h5.16c.56,0,1.02,.46,1.02,1.02v1.83c0,.56-.45,1.02-1.02,1.02h-5.16c-.56,0-1.02-.46-1.02-1.02v-1.83c0-.56,.46-1.02,1.02-1.02Z"/><path class="bg" d="M288.31,304.98h12.8c.56,0,1.02,.46,1.02,1.02v1.83c0,.56-.45,1.02-1.02,1.02h-12.8c-.56,0-1.02-.46-1.02-1.02v-1.83c0-.56,.46-1.02,1.02-1.02Z"/></g><g><path class="bg" d="M269.4,326.43h5.16c.56,0,1.02,.46,1.02,1.02v1.83c0,.56-.46,1.02-1.02,1.02h-5.15c-.56,0-1.02-.46-1.02-1.02v-1.83c0-.56,.46-1.02,1.02-1.02Z"/><path class="bg" d="M279.59,326.43h13.01c.56,0,1.02,.46,1.02,1.02v1.83c0,.56-.46,1.02-1.02,1.02h-13.01c-.56,0-1.02-.46-1.02-1.02v-1.83c0-.56,.46-1.02,1.02-1.02Z"/></g><g><path class="bg" d="M230.34,247.77h5.15c.56,0,1.02,.46,1.02,1.02v1.83c0,.56-.45,1.02-1.02,1.02h-5.16c-.56,0-1.01-.45-1.01-1.01v-1.84c0-.56,.46-1.02,1.02-1.02Z"/><path class="az" d="M240.53,247.77h21.48c.56,0,1.02,.46,1.02,1.02v1.84c0,.56-.45,1.02-1.02,1.02h-21.49c-.56,0-1.02-.46-1.02-1.02v-1.83c0-.56,.46-1.02,1.02-1.02Z"/></g><g><path class="bg" d="M252.35,233.46h5.16c.56,0,1.02,.46,1.02,1.02v1.83c0,.56-.46,1.02-1.02,1.02h-5.16c-.56,0-1.02-.46-1.02-1.02v-1.83c0-.56,.45-1.02,1.02-1.02Z"/><rect class="ad" x="261.54" y="233.46" width="21.63" height="3.87" rx="1.02" ry="1.02"/></g><g><path class="bg" d="M262.54,226.31h9.93c.56,0,1.02,.46,1.02,1.02v1.83c0,.56-.46,1.02-1.02,1.02h-9.93c-.56,0-1.02-.46-1.02-1.02v-1.83c0-.56,.45-1.02,1.02-1.02Z"/><path class="az" d="M277.48,226.31h18.24c.56,0,1.02,.46,1.02,1.02v1.83c0,.56-.46,1.02-1.02,1.02h-18.24c-.56,0-1.02-.46-1.02-1.02v-1.83c0-.56,.45-1.02,1.02-1.02Z"/><path class="ad" d="M300.74,226.31h5.35c.56,0,1.02,.45,1.02,1.02v1.83c0,.56-.46,1.02-1.02,1.02h-5.35c-.56,0-1.02-.46-1.02-1.02v-1.83c0-.56,.45-1.02,1.02-1.02Z"/></g><g><path class="bg" d="M257.1,219.16h5.16c.56,0,1.02,.46,1.02,1.02v1.83c0,.56-.46,1.02-1.02,1.02h-5.16c-.56,0-1.01-.45-1.01-1.01v-1.84c0-.56,.46-1.02,1.02-1.02Z"/><rect class="ad" x="266.28" y="219.16" width="14.83" height="3.87" rx="1.02" ry="1.02"/></g><g><path class="bg" d="M248.38,240.62h5.16c.56,0,1.02,.46,1.02,1.02v1.83c0,.56-.46,1.02-1.02,1.02h-5.15c-.56,0-1.02-.46-1.02-1.02v-1.84c0-.56,.45-1.01,1.01-1.01Z"/><path class="bg" d="M258.58,240.62h13.01c.56,0,1.02,.46,1.02,1.02v1.83c0,.56-.46,1.02-1.02,1.02h-13.01c-.56,0-1.02-.46-1.02-1.02v-1.83c0-.56,.46-1.02,1.02-1.02Z"/></g><g><path class="ad" d="M264.22,347.88h9.93c.56,0,1.02,.46,1.02,1.02v1.83c0,.56-.45,1.01-1.01,1.01h-9.93c-.56,0-1.02-.46-1.02-1.02v-1.83c0-.56,.45-1.01,1.01-1.01Z"/><path class="bg" d="M279.16,347.88h12.12c.56,0,1.02,.46,1.02,1.02v1.83c0,.56-.45,1.01-1.01,1.01h-12.12c-.56,0-1.02-.46-1.02-1.02v-1.83c0-.56,.45-1.01,1.01-1.01Z"/><path class="bg" d="M296.3,347.88h16.09c.56,0,1.02,.46,1.02,1.02v1.83c0,.56-.45,1.01-1.01,1.01h-16.09c-.56,0-1.02-.46-1.02-1.02v-1.83c0-.56,.45-1.01,1.01-1.01Z"/></g></g><g><path class="bg" d="M357.59,456.67c0,2.33-1.53,5.38-3.39,6.77l-79.41,59.4c-1.87,1.39-4.92,1.39-6.78,0l-79.41-59.4c-1.86-1.4-3.39-4.44-3.39-6.77v95.85c0,3.73,3.05,6.77,6.77,6.77h158.84c3.73,0,6.78-3.05,6.78-6.77v-95.86Z"/><path class="aj" d="M354.2,463.44l-79.41,59.4c-1.87,1.39-4.92,1.39-6.78,0l-79.41-59.4c-1.86-1.4-3.39-4.44-3.39-6.77v8.28c0,2.33,1.53,5.37,3.39,6.77l79.41,59.4c1.86,1.39,4.92,1.39,6.78,0l79.41-59.4c1.86-1.4,3.39-4.44,3.39-6.77v-8.28c0,2.33-1.53,5.38-3.39,6.77Z"/></g><path class="af" d="M191.98,559.3h158.84c1.66,0,3.19-.61,4.37-1.61-.31-.35-.64-.67-.99-.92l-79.41-59.4c-1.87-1.4-4.92-1.4-6.78,0l-79.41,59.4c-.34,.26-.67,.57-.99,.92,1.18,1,2.71,1.61,4.37,1.61Z"/></g><g><path class="aw" d="M260.79,114.92h31.58c0-8.02,4.35-14.34,13.07-20.75,.03-.02,.04-.04,.07-.05,12-8.87,19.79-23.12,19.79-39.2,0-26.91-21.81-48.72-48.71-48.72s-48.72,21.81-48.72,48.72c0,16.08,7.79,30.33,19.8,39.2,.02,.02,.04,.04,.06,.05,8.72,6.41,13.07,12.74,13.07,20.75Z"/><path class="bg" d="M282.88,117.32c-.05-.82-.78-15.36,2.59-30.53-.77,.05-1.26,.06-1.35,.07h-15.04c-.1,0-.6-.02-1.38-.07,3.37,15.17,2.63,29.71,2.59,30.53l-2.59-.14c.01-.2,.78-15.35-2.74-30.64-3.81-.46-9.29-1.54-12.14-4.13-4.67-4.24-6.57-9.26-5.1-13.44,.95-2.69,3.18-4.46,5.82-4.62,3.4-.21,6.64,2.23,8.83,6.69,2.03,4.13,3.56,8.61,4.7,13.11,.81,.06,1.51,.1,2.04,.12h14.98c.52-.01,1.21-.05,2.01-.12,1.14-4.49,2.67-8.97,4.7-13.11,2.19-4.45,5.4-6.9,8.83-6.69,2.64,.16,4.87,1.93,5.82,4.62,1.47,4.18-.44,9.2-5.1,13.44-2.86,2.59-8.34,3.68-12.14,4.13-3.52,15.29-2.75,30.44-2.74,30.64l-2.59,.14Zm16.37-50.38c-2.22,0-4.49,1.94-6.12,5.25-1.8,3.65-3.18,7.62-4.25,11.64,3.51-.5,7.68-1.5,9.73-3.35,3.87-3.51,5.51-7.49,4.4-10.65-.6-1.69-1.95-2.8-3.53-2.89-.07,0-.15,0-.22,0Zm-45.34,0c-.07,0-.15,0-.23,0-1.58,.1-2.93,1.2-3.53,2.89-1.11,3.16,.53,7.14,4.4,10.65,2.04,1.85,6.21,2.85,9.73,3.35-1.07-4.02-2.45-7.99-4.25-11.64-1.63-3.31-3.91-5.25-6.13-5.25Z"/><path class="bc" d="M265.53,129.41h22.11c1.9,0,3.44,1.54,3.44,3.44v7.39c0,1.9-1.54,3.44-3.44,3.44h-22.11c-1.9,0-3.44-1.54-3.44-3.44v-7.39c0-1.9,1.54-3.44,3.44-3.44Z"/><path class="af" d="M259.61,114.92h33.96c.95,0,1.73,.77,1.73,1.73v18.17c0,.96-.78,1.73-1.73,1.73h-33.95c-.96,0-1.73-.78-1.73-1.73v-18.17c0-.95,.77-1.73,1.73-1.73Z"/><path class="ah" d="M257.88,130.28h37.42v-1.41h-37.42v1.41Zm0,3.85h37.42v-1.41h-37.42v1.41Zm0-11.55h37.42v-1.41h-37.42v1.41Zm0-5.26v1.41h37.42v-1.41h-37.42Zm0,9.11h37.42v-1.41h-37.42v1.41Z"/></g><g><path class="aw" d="M823.2,595.43h31.58c0-8.02,4.35-14.34,13.07-20.75,.03-.02,.04-.04,.07-.05,12-8.87,19.79-23.12,19.79-39.2,0-26.91-21.81-48.72-48.71-48.72s-48.72,21.81-48.72,48.72c0,16.08,7.79,30.33,19.8,39.2,.02,.02,.04,.04,.06,.05,8.72,6.41,13.07,12.74,13.07,20.75Z"/><path class="bg" d="M845.29,597.84c-.05-.82-.78-15.36,2.59-30.53-.77,.05-1.26,.06-1.35,.07h-15.04c-.1,0-.6-.02-1.38-.07,3.37,15.17,2.63,29.71,2.59,30.53l-2.59-.14c.01-.2,.78-15.35-2.74-30.64-3.81-.46-9.29-1.54-12.14-4.13-4.67-4.24-6.57-9.26-5.1-13.44,.95-2.69,3.18-4.46,5.82-4.62,3.4-.21,6.64,2.23,8.83,6.69,2.03,4.13,3.56,8.61,4.7,13.11,.81,.06,1.51,.1,2.04,.12h14.98c.52-.01,1.21-.05,2.01-.12,1.14-4.49,2.67-8.97,4.7-13.11,2.19-4.45,5.4-6.9,8.83-6.69,2.64,.16,4.87,1.93,5.82,4.62,1.47,4.18-.44,9.2-5.1,13.44-2.86,2.59-8.34,3.68-12.14,4.13-3.52,15.29-2.75,30.44-2.74,30.64l-2.59,.14Zm16.37-50.38c-2.22,0-4.49,1.94-6.12,5.25-1.8,3.65-3.18,7.62-4.25,11.64,3.51-.5,7.68-1.5,9.73-3.35,3.87-3.51,5.51-7.49,4.4-10.65-.6-1.69-1.95-2.8-3.53-2.89-.07,0-.15,0-.22,0Zm-45.34,0c-.07,0-.15,0-.23,0-1.58,.1-2.93,1.2-3.53,2.89-1.11,3.16,.53,7.14,4.4,10.65,2.04,1.85,6.21,2.85,9.73,3.35-1.07-4.02-2.45-7.99-4.25-11.64-1.63-3.31-3.91-5.25-6.13-5.25Z"/><path class="bc" d="M827.94,609.92h22.11c1.9,0,3.44,1.54,3.44,3.44v7.39c0,1.9-1.54,3.44-3.44,3.44h-22.11c-1.9,0-3.44-1.54-3.44-3.44v-7.39c0-1.9,1.54-3.44,3.44-3.44Z"/><path class="af" d="M822.02,595.43h33.96c.95,0,1.73,.77,1.73,1.73v18.17c0,.96-.78,1.73-1.73,1.73h-33.95c-.96,0-1.73-.78-1.73-1.73v-18.17c0-.95,.77-1.73,1.73-1.73Z"/><path class="ah" d="M820.29,610.8h37.42v-1.41h-37.42v1.41Zm0,3.85h37.42v-1.41h-37.42v1.41Zm0-11.55h37.42v-1.41h-37.42v1.41Zm0-5.26v1.41h37.42v-1.41h-37.42Zm0,9.11h37.42v-1.41h-37.42v1.41Z"/></g></g><g><g><rect class="af" x="765.18" y="282.75" width="197.13" height="153.31" rx="4.16" ry="4.16"/><path class="au" d="M773.12,297.59h181.25c1.05,0,1.9,.85,1.9,1.9v127.4c0,1.05-.85,1.9-1.9,1.9h-181.25c-1.05,0-1.9-.85-1.9-1.9v-127.4c0-1.05,.85-1.9,1.9-1.9Z"/><g><path class="ac" d="M911.03,289.48c0-1.6,1.31-2.89,2.9-2.89s2.9,1.29,2.9,2.89-1.29,2.9-2.9,2.9-2.9-1.29-2.9-2.9Z"/><path class="z" d="M930.66,289.48c0-1.6,1.3-2.89,2.89-2.89s2.9,1.29,2.9,2.89-1.29,2.9-2.9,2.9-2.89-1.29-2.89-2.9Z"/><path class="ab" d="M950.28,289.48c0-1.6,1.29-2.89,2.89-2.89s2.9,1.29,2.9,2.89-1.29,2.9-2.9,2.9-2.89-1.29-2.89-2.9Z"/></g><g><g><path class="u" d="M781.25,302.72h29.2c.84,0,1.52,.68,1.52,1.52v2.75c0,.84-.68,1.52-1.52,1.52h-29.2c-.84,0-1.53-.68-1.53-1.53v-2.75c0-.84,.68-1.53,1.53-1.53Z"/><rect class="bg" x="816.49" y="302.72" width="17.11" height="5.8" rx="1.53" ry="1.53"/><path class="bg" d="M839.64,302.72h18.24c.84,0,1.52,.68,1.52,1.52v2.75c0,.84-.68,1.52-1.52,1.52h-18.24c-.84,0-1.52-.68-1.52-1.52v-2.75c0-.84,.68-1.53,1.53-1.53Z"/></g><g><path class="u" d="M783.32,375.99h14.84c.84,0,1.52,.68,1.52,1.52v2.75c0,.84-.68,1.52-1.52,1.52h-14.84c-.84,0-1.53-.68-1.53-1.53v-2.75c0-.84,.68-1.52,1.52-1.52Z"/><path class="bg" d="M805.73,375.99h36.94c.84,0,1.52,.68,1.52,1.52v2.75c0,.84-.68,1.52-1.52,1.52h-36.94c-.84,0-1.53-.68-1.53-1.53v-2.75c0-.84,.68-1.52,1.52-1.52Z"/><path class="u" d="M850.24,375.99h9.71c.84,0,1.52,.68,1.52,1.52v2.75c0,.84-.68,1.52-1.52,1.52h-9.71c-.84,0-1.52-.68-1.52-1.52v-2.75c0-.84,.68-1.52,1.52-1.52Z"/></g><g><path class="bg" d="M818.97,313.18h7.74c.84,0,1.52,.68,1.52,1.52v2.76c0,.84-.68,1.52-1.52,1.52h-7.74c-.84,0-1.53-.68-1.53-1.53v-2.75c0-.84,.68-1.52,1.52-1.52Z"/><path class="u" d="M834.29,313.18h33.25c.84,0,1.52,.68,1.52,1.52v2.76c0,.84-.68,1.52-1.52,1.52h-33.25c-.84,0-1.53-.68-1.53-1.53v-2.75c0-.84,.68-1.53,1.53-1.53Z"/></g><g><rect class="bg" x="793.42" y="365.52" width="10.79" height="5.8" rx="1.53" ry="1.53"/><path class="u" d="M810.26,365.52h22.76c.84,0,1.52,.68,1.52,1.52v2.76c0,.84-.68,1.52-1.52,1.52h-22.76c-.84,0-1.52-.68-1.52-1.52v-2.75c0-.84,.68-1.53,1.53-1.53Z"/></g><g><rect class="bg" x="826.47" y="344.58" width="10.79" height="5.8" rx="1.52" ry="1.52"/><rect class="bg" x="841.78" y="344.58" width="23.29" height="5.8" rx="1.52" ry="1.52"/></g><g><rect class="bg" x="841.77" y="334.12" width="17.95" height="5.8" rx="1.53" ry="1.53"/><path class="u" d="M865.72,334.12h18.2c.84,0,1.52,.68,1.52,1.52v2.75c0,.84-.68,1.52-1.52,1.52h-18.2c-.84,0-1.53-.68-1.53-1.53v-2.75c0-.84,.68-1.53,1.53-1.53Z"/><path class="bg" d="M891.45,334.12h8.03c.84,0,1.52,.68,1.52,1.52v2.75c0,.84-.68,1.52-1.52,1.52h-8.03c-.84,0-1.53-.68-1.53-1.53v-2.75c0-.84,.68-1.53,1.53-1.53Z"/></g><g><path class="bg" d="M835.12,323.65h7.74c.84,0,1.52,.68,1.52,1.52v2.75c0,.84-.68,1.53-1.53,1.53h-7.74c-.84,0-1.53-.68-1.53-1.53v-2.75c0-.84,.68-1.52,1.52-1.52Z"/><path class="bg" d="M850.43,323.65h10.03c.84,0,1.52,.68,1.52,1.52v2.75c0,.84-.68,1.53-1.53,1.53h-10.03c-.84,0-1.53-.68-1.53-1.53v-2.75c0-.84,.68-1.52,1.52-1.52Z"/></g><g><rect class="bg" x="820.52" y="355.05" width="10.79" height="5.8" rx="1.53" ry="1.53"/><rect class="bg" x="835.83" y="355.05" width="13.08" height="5.8" rx="1.53" ry="1.53"/></g><g><rect class="bg" x="841.43" y="417.86" width="10.79" height="5.8" rx="1.53" ry="1.53"/><rect class="u" x="856.74" y="417.86" width="25.81" height="5.8" rx="1.53" ry="1.53"/></g><g><rect class="u" x="845.77" y="396.92" width="10.79" height="5.8" rx="1.53" ry="1.53"/><rect class="bg" x="861.08" y="396.92" width="23.29" height="5.8" rx="1.53" ry="1.53"/></g><g><path class="bg" d="M814.28,386.45h14.9c.84,0,1.52,.68,1.52,1.52v2.75c0,.84-.68,1.52-1.52,1.52h-14.9c-.84,0-1.53-.68-1.53-1.53v-2.75c0-.84,.68-1.53,1.53-1.53Z"/><rect class="bg" x="835.18" y="386.45" width="21.25" height="5.8" rx="1.52" ry="1.52"/><path class="bg" d="M862.42,386.45h8.03c.84,0,1.53,.68,1.53,1.53v2.75c0,.84-.68,1.52-1.52,1.52h-8.03c-.84,0-1.52-.68-1.52-1.52v-2.75c0-.84,.68-1.52,1.52-1.52Z"/></g><g><path class="bg" d="M856.39,407.39h7.74c.84,0,1.53,.68,1.53,1.53v2.75c0,.84-.68,1.53-1.53,1.53h-7.74c-.84,0-1.52-.68-1.52-1.52v-2.76c0-.84,.68-1.52,1.52-1.52Z"/><path class="bg" d="M871.7,407.39h10.03c.84,0,1.53,.68,1.53,1.53v2.75c0,.84-.68,1.53-1.53,1.53h-10.03c-.84,0-1.52-.68-1.52-1.52v-2.76c0-.84,.68-1.52,1.52-1.52Z"/></g></g></g><g><g><g><g><rect class="y" x="768.67" y="119.23" width="88.57" height="43.62"/><path class="y" d="M805.43,118.36l-2.49-3.77c-.32-.47-1.04-.86-1.61-.86h-17.22c-.57,0-1.3,.39-1.61,.86l-2.5,3.77c-.31,.48-1.04,.86-1.61,.86h28.65c-.57,0-1.3-.39-1.61-.86Z"/></g><g class="as"><rect class="o" x="774.1" y="131.73" width="77.72" height="3.62"/><rect class="o" x="774.1" y="124.36" width="58.6" height="3.62"/></g></g><g><g><rect class="x" x="768.67" y="142.68" width="88.57" height="43.62"/><path class="x" d="M823.39,141.81l-2.49-3.77c-.32-.48-1.04-.86-1.61-.86h-17.22c-.57,0-1.3,.39-1.61,.86l-2.5,3.77c-.31,.48-1.04,.86-1.61,.86h28.65c-.57,0-1.3-.39-1.61-.86Z"/></g><g class="as"><rect class="o" x="774.1" y="155.18" width="77.72" height="3.62"/><rect class="o" x="774.1" y="147.81" width="58.6" height="3.62"/></g></g><rect class="ba" x="765.18" y="189.4" width="95.56" height="70.9" rx="1.51" ry="1.51"/><g><g><rect class="bi" x="768.67" y="166.13" width="88.57" height="43.62"/><path class="bi" d="M846.48,165.26l-2.5-3.77c-.32-.48-1.04-.86-1.61-.86h-17.22c-.57,0-1.3,.39-1.61,.86l-2.5,3.77c-.32,.48-1.04,.86-1.61,.86h28.65c-.57,0-1.3-.39-1.61-.86Z"/></g><g class="as"><rect class="o" x="774.1" y="178.63" width="77.72" height="3.62"/><rect class="o" x="774.1" y="171.25" width="58.6" height="3.62"/></g></g><path class="bb" d="M860.74,258.8c0,.83-.68,1.5-1.51,1.5h-92.55c-.83,0-1.51-.68-1.51-1.5v-69.42c0-.83,.68-1.5,1.51-1.5h30.25c.83,0,1.88,.57,2.34,1.25l3.62,5.47c.46,.69,1.51,1.25,2.34,1.25h54c.83,0,1.51,.68,1.51,1.51v61.44Z"/><g><g><polygon class="af" points="793 228.12 801.16 218.47 796.85 214.82 785.59 228.13 796.9 241.4 801.2 237.73 793 228.12"/><polygon class="af" points="832.91 228.04 824.71 218.42 829.01 214.75 840.32 228.02 829.06 241.34 824.75 237.69 832.91 228.04"/></g><rect class="af" x="795.43" y="225.24" width="35.05" height="5.67" transform="translate(276.23 879.87) rotate(-66.2)"/></g></g><g><g><g><path class="bb" d="M891.02,121.67c0,4.39-3.56,7.94-7.94,7.94s-7.94-3.55-7.94-7.94,3.56-7.94,7.94-7.94,7.94,3.56,7.94,7.94Z"/><path class="q" d="M888.22,118.09l-.25-.25c-.39-.39-1.02-.39-1.41,0l-4.63,4.63-2.32-2.32c-.39-.39-1.03-.39-1.42,0l-.25,.25c-.39,.39-.39,1.03,0,1.41l3.98,3.98,6.3-6.29c.39-.39,.39-1.03,0-1.41Z"/></g><g><rect class="ai" x="899.15" y="115.73" width="62.49" height="4.22" rx="1.65" ry="1.65"/><path class="at" d="M900.8,123.38h35.42c.91,0,1.65,.74,1.65,1.65v.91c0,.91-.74,1.65-1.65,1.65h-35.42c-.91,0-1.65-.74-1.65-1.65v-.91c0-.91,.74-1.66,1.66-1.66Z"/></g></g><g><g><path class="bb" d="M891.02,147.81c0,4.39-3.56,7.94-7.94,7.94s-7.94-3.55-7.94-7.94,3.56-7.94,7.94-7.94,7.94,3.56,7.94,7.94Z"/><path class="q" d="M888.22,144.22l-.25-.25c-.39-.39-1.02-.39-1.41,0l-4.63,4.63-2.32-2.32c-.39-.39-1.03-.39-1.42,0l-.25,.25c-.39,.39-.39,1.03,0,1.41l3.98,3.98,6.3-6.29c.39-.39,.39-1.03,0-1.41Z"/></g><g><path class="ai" d="M900.8,141.87h59.18c.91,0,1.65,.74,1.65,1.65v.91c0,.91-.74,1.65-1.65,1.65h-59.18c-.91,0-1.65-.74-1.65-1.65v-.91c0-.91,.74-1.66,1.66-1.66Z"/><path class="at" d="M900.8,149.52h35.42c.91,0,1.65,.74,1.65,1.65v.91c0,.91-.74,1.66-1.66,1.66h-35.42c-.91,0-1.65-.74-1.65-1.65v-.91c0-.91,.74-1.66,1.66-1.66Z"/></g></g><g><g><path class="bb" d="M891.02,173.94c0,4.39-3.56,7.94-7.94,7.94s-7.94-3.55-7.94-7.94,3.56-7.94,7.94-7.94,7.94,3.56,7.94,7.94Z"/><path class="q" d="M888.22,170.36l-.25-.25c-.39-.39-1.02-.39-1.41,0l-4.63,4.63-2.32-2.32c-.39-.39-1.03-.39-1.42,0l-.25,.25c-.39,.39-.39,1.03,0,1.41l3.98,3.98,6.3-6.29c.39-.39,.39-1.03,0-1.41Z"/></g><g><rect class="ai" x="899.15" y="168.01" width="62.49" height="4.22" rx="1.65" ry="1.65"/><path class="at" d="M900.8,175.66h35.42c.91,0,1.65,.74,1.65,1.65v.91c0,.91-.74,1.65-1.65,1.65h-35.42c-.91,0-1.65-.74-1.65-1.65v-.91c0-.91,.74-1.66,1.66-1.66Z"/></g></g><g><g><path class="bb" d="M891.02,200.08c0,4.39-3.56,7.94-7.94,7.94s-7.94-3.55-7.94-7.94,3.56-7.94,7.94-7.94,7.94,3.56,7.94,7.94Z"/><path class="q" d="M888.22,196.5l-.25-.25c-.39-.39-1.02-.39-1.41,0l-4.63,4.63-2.32-2.32c-.39-.39-1.03-.39-1.42,0l-.25,.25c-.39,.39-.39,1.03,0,1.41l3.98,3.98,6.3-6.29c.39-.39,.39-1.03,0-1.41Z"/></g><g><rect class="ai" x="899.15" y="194.15" width="62.49" height="4.22" rx="1.65" ry="1.65"/><path class="at" d="M900.8,201.8h35.42c.91,0,1.65,.74,1.65,1.65v.91c0,.91-.74,1.65-1.65,1.65h-35.42c-.91,0-1.65-.74-1.65-1.65v-.91c0-.91,.74-1.66,1.66-1.66Z"/></g></g><g><g><path class="bb" d="M891.02,226.22c0,4.39-3.56,7.94-7.94,7.94s-7.94-3.55-7.94-7.94,3.56-7.94,7.94-7.94,7.94,3.56,7.94,7.94Z"/><path class="q" d="M888.22,222.64l-.25-.25c-.39-.39-1.02-.39-1.41,0l-4.63,4.63-2.32-2.32c-.39-.39-1.03-.39-1.42,0l-.25,.25c-.39,.39-.39,1.03,0,1.41l3.98,3.98,6.3-6.29c.39-.39,.39-1.03,0-1.41Z"/></g><g><rect class="ai" x="899.15" y="220.29" width="62.49" height="4.22" rx="1.65" ry="1.65"/><path class="at" d="M900.8,227.94h35.42c.91,0,1.66,.74,1.66,1.66v.91c0,.91-.74,1.65-1.65,1.65h-35.42c-.91,0-1.65-.74-1.65-1.65v-.91c0-.91,.74-1.65,1.65-1.65Z"/></g></g><g><g><path class="bb" d="M891.02,252.36c0,4.39-3.56,7.94-7.94,7.94s-7.94-3.55-7.94-7.94,3.56-7.94,7.94-7.94,7.94,3.56,7.94,7.94Z"/><path class="q" d="M888.22,248.78l-.25-.25c-.39-.39-1.02-.39-1.41,0l-4.63,4.63-2.32-2.32c-.39-.39-1.03-.39-1.42,0l-.25,.25c-.39,.39-.39,1.03,0,1.41l3.98,3.98,6.3-6.29c.39-.39,.39-1.03,0-1.41Z"/></g><g><rect class="ai" x="899.15" y="246.43" width="62.49" height="4.22" rx="1.65" ry="1.65"/><path class="at" d="M900.8,254.07h35.42c.91,0,1.65,.74,1.65,1.65v.91c0,.91-.74,1.65-1.65,1.65h-35.42c-.91,0-1.65-.74-1.65-1.65v-.91c0-.91,.74-1.66,1.66-1.66Z"/></g></g></g></g></g><g><g><path class="bj" d="M124.9,426.25s14.42,13.23,19.4,16.37c3.57,2.25,6.29-2.95,8.01-6.12,1.71-3.16-3.98-15.35-11.81-23.58-6-6.3-16.03,11.68-15.6,13.33Z"/><path class="ad" d="M82.63,383.12c9.09,13.49,47.57,52.88,47.57,52.88,0,0,5.36-.46,13.58-7.09,12.32-9.96,13.62-16.7,13.62-16.7,0,0-19.52-31.24-34.63-50.94-11.97-15.58-30.81-18.65-41.58-7.73-8.82,8.95-3.63,22.05,1.45,29.59Z"/></g><g><path class="bj" d="M182.17,365.76c-1.15-1.72-5.08-6.55-6.17-5.65-3.13,2.55,.53,10.47,3.06,13.96,1.87,2.58,3.85,.52,3.85,.52,0,0,1.67-5.24-.74-8.83Z"/><path class="bj" d="M155.14,440.28c13.92-14.16,27.36-52.89,32.37-62.88,14.32-7.66-.76-15.14,8.08-19.37,5.63-2.69,4.36-9.42-3.82-5.49-5.15,2.48-15.95,3.35-12.54,21.39,0,5.34-25.13,37.92-33.13,48.99-3.61,4.99-8.49,12.84-5.65,16.24,4.54,5.42,9.51,6.38,14.68,1.13Z"/></g><g><g><path class="bo" d="M181.35,689.52s-24.6-1.35-26.42-1.55c-2.01-.22-5.2-.69-4.32,5.57,.88,6.26,1.04,8.24,1.04,8.24,0,0,27.12-5.34,29.97-6.25,2.85-.91,4.72-3.57-.27-6.01Z"/><path class="v" d="M142.04,457.37s17.43,78.39,20.27,94.22c2.84,15.84-26.42,26.31-39.55,8.09-13.14-18.21-30.86-43.69-35.9-64.23-5.02-20.54-3.85-37.41,8.06-53.13,11.91-15.72,42.44-6.08,47.11,15.05Z"/><path class="p" d="M162.6,553.93c.28,19.71-1.08,19.82-1.46,43.66-.38,23.84-1.06,92.5-1.06,92.5,0,0-1.54,1.86-3.54,1.77-3.01-.13-3.51-1.78-3.51-1.78,0,0-1.34-16.93-5.22-27.86-3.89-10.93-21.92-79.98-25.11-93.79-3.19-13.8-.73-25.08,15.22-27.41,15.96-2.32,24.56,4.27,24.68,12.91Z"/><g><path class="be" d="M65.51,706.46c-.04-.62-.12-1.14-.21-1.62-.82-4.32-3.38-3.39-5.07-2.83-.31,.11-1.35,.4-2.83,.82-1.49-.38-2.54-.66-2.85-.76-1.7-.52-4.28-1.41-5.01,2.93-.08,.48-.15,1-.18,1.62-.31,6.19-.53,8.12-.53,8.12,0,0,3.79-.02,8.69-.06,4.9-.06,8.69-.12,8.69-.12,0,0-.26-1.93-.7-8.11Z"/><path class="bh" d="M107.8,484.69s-22.13,86.05-26.38,101.23c-4.25,15.17-34.51,11.92-38.32-9.74-3.81-21.66-12.54-65.49,2.94-109.84,8.38-23.98,66.65-2.27,61.76,18.35Z"/><path class="bh" d="M84.75,573.04c-2.98,24.02-24.22,133.74-24.22,133.74,0,0-.53,.98-3.41,.4-2.81-.57-3.16-2.34-3.16-2.34,0,0,.94-15.45-1.34-26.58-2.29-11.14-7.65-62.48-8.87-76.3-1.22-13.82-.04-42.51,15.75-42.59,15.79-.09,25.6,10.9,25.26,13.68Z"/></g><path class="bg" d="M88.11,343.83c25.26-1.2,28.73,21.15,34.15,39.22,12.51,41.75,26.03,97.86,26.03,97.86,0,0-10.95,13.58-50.92,16.63-45.92,3.51-60.19-.42-60.19-.42,0,0-2.18-86.46,1.7-122.59,1.35-12.59,12.29-24.65,32.55-28.85,5.78-1.2,10.45-1.56,16.68-1.85Z"/><g><path class="bh" d="M96.63,317.42c6.99-7.82,6.95-30.82-4.82-33.93-14.54-3.85-13.88,10.99-22.04,12.18-17.74,2.58-20.86,14.71-16.61,28.32,2.64,8.43,10.72,15.67,18.84,18.31,3.53,1.15,1.43-13.92,9.76-19.73,8.33-5.81,14.86-5.15,14.86-5.15Z"/><path class="bh" d="M98.34,345.1c2.25,7.24,9.32,22.97-8.41,24.12-20.82,1.36-27.75-19.54-26.87-22.09,1.99-5.82,10.57-3.76,15.83-4.03,5.26-.27,17.54-4.13,19.45,2.01Z"/><g><path class="bm" d="M68.45,346.08c.99-.2,2-.38,3.05-.54,5.84-.85,10.53-.94,16.76-.86,1.97,.02,3.79,.18,5.49,.47,1.2,4.73,7.5,17.49-5.8,18.73-13.66,1.27-19.27-13.15-19.5-17.8Z"/><g><path class="bm" d="M70.44,346.69c1.94-12.95,1.34-20.3,3.87-31.92-.06-.41,16.98-.23,19.93-9.32,0,0,2.91,10.76,2.83,20.08-.07,8.79-1.87,13.84-10.91,11.09,.68,4.18,2.17,9.07,3.41,12.57,2.5,7.07-1.91,10.3-5.39,10.99-3.49,.69-15.8,.26-13.74-13.49Z"/><path class="bm" d="M65.91,319.47c-.92,2.25,1.03,5.17,4.35,6.53,3.32,1.36,6.76,.64,7.68-1.6,.92-2.25-1.03-5.17-4.35-6.53-3.32-1.37-6.76-.64-7.68,1.6Z"/></g></g></g><g><path class="bh" d="M96.29,367.36l-1.13,7.82-5.74,1.34-6.48-8.7s8.57-5.06,13.35-.47Z"/><path class="bh" d="M95.16,375.18l24.51,75.68-6.49,34.07-18.76-28.15-5-80.25s1.28-4.11,5.74-1.34Z"/></g></g><g><g><path class="bh" d="M117.08,429.32l5.35-20.97c.29-1.16,1.48-2.1,2.64-2.1h28.15c1.16,0,1.86,.95,1.57,2.1l-5.35,20.97h-32.36Z"/><path class="ad" d="M87.81,492.04c-.29,1.16,.41,2.1,1.57,2.1h54.67c1.16,0,2.34-.95,2.64-2.1l19.42-76.08c.3-1.16-.41-2.1-1.57-2.1h-54.67c-1.16,0-2.34,.95-2.64,2.1l-19.42,76.08Z"/></g><g><path class="bm" d="M11.4,410.7S2.02,428.24,.19,433.93c-1.31,4.08,4.49,5.44,8.05,6.34,3.55,.89,14.1-7.78,20.23-17.57,4.68-7.49-15.55-12.83-17.06-11.99Z"/><path class="ad" d="M48.47,356.6c-14.05,13.25-45.32,61.78-45.32,61.78,0,0,1.81,5.17,10.41,11.57,12.92,9.62,19.88,9.19,19.88,9.19,0,0,6.55-5.83,19.27-20.79,6.22-7.31,8.21-13.83,8.11-33.48-.07-12.77-5.62-34.62-12.34-28.28Z"/></g><g><path class="bm" d="M86.52,449.03c2.04-1.46,8.72-5.48,9.88-3.86,2.75,3.85-2.28,4.16-4.49,9.71-1.43,3.58-11.83,2.18-11.83,2.18,0,0,2.18-4.99,6.44-8.03Z"/><path class="bm" d="M10.67,427.97c19.74,2.19,61.93,26.13,71.27,25.92,6.07-.14,7.63-6.12,18.63-2.52,5.33,1.75,6.66,17.17,1.44,19.23-11.94,4.73-18.19,.21-22-7.96-4.37-3.08-52.2-11.97-65.39-15.5C8.68,445.56-.07,442.55,0,438.12c.1-7.06,3.35-10.95,10.67-10.14Z"/></g></g></g></g><g><g><g><path class="bm" d="M909.05,344.8c.41-2.42,1.05-10.03-.88-10.34-4.57-.75-2.66,3.8-6.58,8.14-2.53,2.8,3.2,11.33,3.2,11.33,0,0,3.44-4.07,4.27-9.13Z"/><path class="bm" d="M960.31,402.3c-10.45-16.39-49.71-43.09-53.55-51.39-2.5-5.39,1.83-8.24-5.11-15.99-7.42-8.29-24.34,2.77-21.86,7.67,1.17,2.31,6.66-2.42,7.09-.58,1.71,7.2,2.81,14.76,13.01,14.37,4.59,2.51,33.06,40.66,41.86,50.72,3.97,4.54,10.39,10.92,14.25,8.94,6.16-3.14,8.17-7.67,4.3-13.75Z"/></g><g><path class="bm" d="M964.83,389.61s-14.35,13.15-17.88,17.81c-2.54,3.34,2.38,6.48,5.38,8.46,2.99,1.97,15.55-2.61,24.38-9.67,6.76-5.4-10.2-16.88-11.87-16.6Z"/><path class="ad" d="M1016.31,351.37c-17.29,7.62-61.61,42.53-61.61,42.53,0,0-.02,5.35,5.82,14.07,8.77,13.09,15.33,14.98,15.33,14.98,0,0,30.31-16.71,46.93-26.35,8.13-4.71,19.01-6.91,16.52-27.86-1.42-11.97-14.72-21.02-22.99-17.37Z"/></g></g><g><g><path class="bo" d="M964.47,707.89s23.73-6.1,25.46-6.65c1.91-.6,4.93-1.69,5.3,4.59,.36,6.28,.59,8.24,.59,8.24,0,0-27.48,.06-30.44-.27-2.95-.34-5.29-2.56-.91-5.91Z"/><path class="bn" d="M983.98,476.76s1.39,79.84,2.32,95.81c.93,15.97,31.66,19.29,40.12-1.38,8.47-20.66,19.68-49.42,19.76-70.45,.08-21.03-4.98-37.07-20.15-49.49-15.18-12.43-42.44,4-42.05,25.51Z"/><path class="w" d="M986.44,568.26c-.69,19.59,.66,19.73,.53,43.44-.13,23.71-.91,91.99-.91,91.99,0,0,1.49,1.88,3.48,1.84,2.99-.07,3.53-1.7,3.53-1.7,0,0,1.69-16.8,5.78-27.59,4.1-10.79,23.49-79.05,26.95-92.71,3.47-13.65,1.26-24.92-14.55-27.57-15.82-2.64-24.51,3.72-24.81,12.31Z"/></g><g><path class="be" d="M1054.5,705.97c.04-.61,.11-1.13,.19-1.61,.77-4.31,3.32-3.4,5.01-2.87,.31,.1,1.34,.39,2.83,.78,1.48-.39,2.52-.68,2.83-.78,1.68-.54,4.24-1.44,5.01,2.87,.09,.48,.16,1,.19,1.61,.37,6.15,.61,8.07,.61,8.07,0,0-3.77,.02-8.64,.03-4.87-.01-8.64-.03-8.64-.03,0,0,.24-1.92,.61-8.07Z"/><path class="af" d="M1024.02,481.84s17.64,86.58,21.09,101.86c3.45,15.28,33.67,13.58,38.55-7.74,4.88-21.32,15.76-64.41,2.62-109.23-7.11-24.24-66.08-5.62-62.26,15.11Z"/><path class="af" d="M1042.46,570.74c1.75,24.01,17.3,134.04,17.3,134.04,0,0,.48,1,3.37,.56,2.82-.43,3.26-2.16,3.26-2.16,0,0-.16-15.39,2.68-26.33,2.83-10.95,10.75-61.67,12.66-75.34,1.91-13.67,2.19-42.21-13.49-43.09-15.68-.89-25.98,9.53-25.78,12.31Z"/></g></g><path class="bg" d="M1026.96,348.33c-25.11,1.31-26.34,23.75-29.92,42.17-8.27,42.55-16.11,99.4-16.11,99.4,0,0,12.92,7.99,52.76,9.15,51.74,1.5,57.46-13.03,57.46-13.03,0,0-5.31-71.64-12.71-107.01-2.58-12.33-14.32-28.34-34.78-30.5-5.84-.61-10.5-.51-16.69-.18Z"/><path class="af" d="M1021.68,318.26c-5.52-8.85-4.53-37.22,19.51-25.83,10.44,4.95,2.72,6.53,10.51,9.07,16.94,5.54,17.95,17.96,11.47,30.57-4.02,7.81-14.67,11.5-23.07,12.71-1.24-3.41,2.46-11.85-4.72-18.96-7.17-7.11-13.69-7.57-13.69-7.57Z"/><path class="af" d="M1017.28,350.82c-1.51,7.39-6.96,23.65,10.69,23.04,20.74-.71,25.53-22.07,24.41-24.51-2.54-5.56-10.83-2.68-16.06-2.43-5.23,.26-17.76-2.36-19.05,3.9Z"/><path class="bm" d="M1046.95,348.83c-1-.1-2.02-.18-3.07-.23-5.87-.27-10.51,.11-16.66,.79-1.94,.21-3.74,.55-5.39,1-.72,4.8-5.7,18.05,7.58,17.96,13.64-.09,17.77-14.91,17.54-19.53Z"/><g><path class="bm" d="M1044.67,351.52c0-13.02-.41-20.53-.92-32.35,.13-.39-16.59-3.11-17.94-12.52,0,0-4.68,10.04-6.19,19.19-1.42,8.63-.52,13.88,8.81,12.73-1.38,3.98-1.21,9.32-2.95,12.58-3.5,6.58,.35,10.41,3.67,11.61,3.33,1.19,15.5,2.6,15.51-11.23Z"/><path class="bm" d="M1051.19,325.19c.52,2.36-1.88,4.89-5.37,5.66-3.48,.76-6.73-.52-7.25-2.88-.52-2.36,1.88-4.89,5.38-5.66,3.49-.77,6.73,.52,7.25,2.88Z"/></g><g><path class="ad" d="M1102.82,510.9c-1.28,1.57-3.61,1.8-5.18,.52l-59.69-48.84c-1.57-1.28-1.8-3.62-.52-5.18l34.05-41.61c1.28-1.57,3.61-1.8,5.18-.52l59.69,48.84c1.57,1.28,1.8,3.61,.52,5.18l-34.04,41.61Z"/><path class="ar" d="M1136.35,464.11l-5.51-4.51c1.57,1.28,1.8,3.61,.52,5.18l-34.04,41.61c-1.28,1.57-3.62,1.8-5.19,.52l5.51,4.51c1.57,1.28,3.9,1.05,5.18-.52l34.04-41.61c1.29-1.57,1.05-3.9-.52-5.18Z"/><path class="af" d="M1095.78,470.4c3.9-4.76,3.2-11.79-1.57-15.69-4.76-3.9-11.79-3.2-15.68,1.57-3.9,4.77-3.2,11.79,1.57,15.69,4.76,3.9,11.79,3.2,15.68-1.57Z"/><path class="ao" d="M1094.21,454.72c3.02,2.47,2.3,8.33-1.59,13.1-3.9,4.77-9.51,6.62-12.53,4.16,4.76,3.9,11.79,3.2,15.68-1.57,3.9-4.76,3.2-11.79-1.57-15.69Z"/></g><g><g><path class="bm" d="M1106.35,418.29s18.92,4.56,24.76,4.89c4.19,.24,4.05-5.6,4.01-9.19-.03-3.58-10.85-11.44-21.63-14.82-8.26-2.59-8.31,17.89-7.15,19.11Z"/><path class="ad" d="M1073.42,409.33c17.94,5.75,42.24,14.88,42.24,14.88,0,0,4.45-2.98,8.39-12.71,5.92-14.6,3.8-21.09,3.8-21.09,0,0-45.73-22.99-61.53-31.82-4.48-2.5-8.88,5.82-8.16,17.2,1.57,24.89,6.65,30.77,15.26,33.53Z"/></g><g><path class="bm" d="M1068.45,466.3c-2.44-.26-10.07-.44-10.27,1.5-.48,4.6,3.95,2.43,8.52,6.09,2.95,2.36,11.12-3.87,11.12-3.87,0,0-4.27-3.19-9.37-3.72Z"/><path class="bm" d="M1122.78,411.69c-15.73,11.41-40.04,52.19-48.09,56.53-5.23,2.82-9.45-1.51-17.06,6.87-3.69,4.06,2.64,17.83,8.08,17.06,12.44-1.75,15.57-8.62,14.86-17.41,2.23-4.73,38.61-35.44,48.12-44.82,4.3-4.24,10.28-11.02,8.07-14.76-3.51-5.96-8.15-7.7-13.99-3.46Z"/></g></g></g><g><path class="bg" d="M636.01,517.85h-86.84l-40.3,40.31v149.13c0,3.96,3.24,7.19,7.19,7.19h119.95c3.96,0,7.19-3.24,7.19-7.19v-182.24c0-3.96-3.24-7.19-7.19-7.19Z"/><path class="af" d="M541.97,558.16c3.96,0,7.19-3.24,7.19-7.19v-33.11l-40.3,40.31h33.11Z"/><path class="bb" d="M540.73,541.62l-7.67-7.67-5.56-5.56s-.01-.01-.02-.02c-1.76-1.74-4.61-1.72-6.37,.04-1.76,1.76-1.77,4.62-.02,6.38h0s5.56,5.57,5.56,5.57l1.15-1.14-5.56-5.56c-1.13-1.13-1.12-2.97,.01-4.1,1.13-1.13,2.97-1.14,4.1-.01,0,0,0,0,.01,0l5.55,5.55,7.67,7.67c1.74,1.74,1.74,4.56,0,6.3-1.74,1.74-4.56,1.74-6.3,0l-7.67-7.67-5.56-5.56c-2.33-2.33-2.33-6.11,0-8.44,2.33-2.33,6.11-2.33,8.44,0l5.56,5.56,1.14-1.14-5.56-5.56c-2.96-2.96-7.77-2.96-10.73,0-2.96,2.96-2.96,7.77,0,10.73l5.56,5.56,7.67,7.67c2.37,2.37,6.22,2.37,8.59,0,2.37-2.37,2.37-6.22,0-8.59Z"/><g><g><g><path class="q" d="M563.01,571.15h41.88c.73,0,1.32,.59,1.32,1.32v4.42c0,.73-.59,1.32-1.32,1.32h-41.88c-.73,0-1.32-.59-1.32-1.32v-4.42c0-.73,.59-1.32,1.32-1.32Z"/><path class="q" d="M539.95,571.15h15.3c.73,0,1.33,.59,1.33,1.33v4.42c0,.73-.59,1.32-1.32,1.32h-15.31c-.73,0-1.32-.59-1.32-1.32v-4.42c0-.73,.59-1.32,1.32-1.32Z"/></g><g><path class="af" d="M532.65,574.68c0,3.81-3.09,6.9-6.9,6.9s-6.9-3.09-6.9-6.9,3.09-6.89,6.9-6.89,6.9,3.09,6.9,6.89Z"/><path class="q" d="M530.64,571.27l-.24-.24c-.37-.37-.97-.37-1.35,0l-4.4,4.4-2.2-2.2c-.37-.37-.97-.37-1.35,0l-.24,.24c-.37,.37-.37,.97,0,1.34l3.79,3.79,5.99-5.99c.37-.37,.37-.97,0-1.34Z"/></g></g><g><g><path class="q" d="M574.39,591.37h46.37c.73,0,1.32,.59,1.32,1.32v4.42c0,.73-.59,1.32-1.32,1.32h-46.37c-.73,0-1.32-.59-1.32-1.32v-4.42c0-.73,.59-1.32,1.32-1.32Z"/><path class="q" d="M539.95,591.37h26.69c.73,0,1.33,.59,1.33,1.33v4.42c0,.73-.59,1.32-1.32,1.32h-26.69c-.73,0-1.32-.59-1.32-1.32v-4.42c0-.73,.59-1.32,1.32-1.32Z"/></g><g><path class="af" d="M532.65,594.9c0,3.81-3.09,6.9-6.9,6.9s-6.9-3.09-6.9-6.9,3.09-6.9,6.9-6.9,6.9,3.09,6.9,6.9Z"/><path class="q" d="M530.64,591.5l-.24-.24c-.37-.37-.97-.37-1.35,0l-4.4,4.4-2.2-2.2c-.37-.37-.97-.37-1.35,0l-.24,.24c-.37,.37-.37,.97,0,1.34l3.79,3.79,5.99-5.99c.37-.37,.37-.97,0-1.34Z"/></g></g><g><g><path class="q" d="M564.33,611.59h46.79c.73,0,1.32,.59,1.32,1.32v4.42c0,.73-.59,1.32-1.32,1.32h-46.79c-.73,0-1.32-.59-1.32-1.32v-4.42c0-.73,.59-1.32,1.32-1.32Z"/><path class="q" d="M539.95,611.59h16.63c.73,0,1.33,.59,1.33,1.33v4.42c0,.73-.59,1.32-1.32,1.32h-16.63c-.73,0-1.33-.59-1.33-1.33v-4.42c0-.73,.59-1.32,1.32-1.32Z"/></g><g><path class="af" d="M532.65,615.13c0,3.81-3.09,6.9-6.9,6.9s-6.9-3.09-6.9-6.9,3.09-6.9,6.9-6.9,6.9,3.09,6.9,6.9Z"/><path class="q" d="M530.64,611.72l-.24-.24c-.37-.37-.97-.37-1.35,0l-4.4,4.4-2.2-2.2c-.37-.37-.97-.37-1.35,0l-.24,.24c-.37,.37-.37,.97,0,1.34l3.79,3.79,5.99-5.99c.37-.37,.37-.97,0-1.35Z"/></g></g><g><g><path class="q" d="M575.72,631.82h42c.73,0,1.32,.59,1.32,1.32v4.42c0,.73-.59,1.32-1.32,1.32h-42c-.73,0-1.32-.59-1.32-1.32v-4.42c0-.73,.59-1.32,1.32-1.32Z"/><path class="q" d="M539.95,631.82h28.02c.73,0,1.33,.59,1.33,1.33v4.42c0,.73-.59,1.32-1.32,1.32h-28.02c-.73,0-1.32-.59-1.32-1.32v-4.42c0-.73,.59-1.32,1.32-1.32Z"/></g><g><path class="af" d="M532.65,635.35c0,3.81-3.09,6.9-6.9,6.9s-6.9-3.09-6.9-6.9,3.09-6.9,6.9-6.9,6.9,3.09,6.9,6.9Z"/><path class="q" d="M530.64,631.95l-.24-.24c-.37-.37-.97-.37-1.35,0l-4.4,4.4-2.2-2.2c-.37-.37-.97-.37-1.35,0l-.24,.24c-.37,.37-.37,.97,0,1.34l3.79,3.79,5.99-5.99c.37-.37,.37-.97,0-1.35Z"/></g></g><g><g><path class="q" d="M563.01,652.04h34.94c.73,0,1.32,.59,1.32,1.32v4.42c0,.73-.59,1.32-1.32,1.32h-34.94c-.73,0-1.32-.59-1.32-1.32v-4.42c0-.73,.59-1.32,1.32-1.32Z"/><path class="q" d="M539.95,652.04h15.3c.73,0,1.33,.59,1.33,1.33v4.42c0,.73-.59,1.32-1.32,1.32h-15.31c-.73,0-1.32-.59-1.32-1.32v-4.42c0-.73,.59-1.32,1.32-1.32Z"/></g><g><path class="af" d="M532.65,655.58c0,3.81-3.09,6.9-6.9,6.9s-6.9-3.09-6.9-6.9,3.09-6.9,6.9-6.9,6.9,3.09,6.9,6.9Z"/><path class="q" d="M530.64,652.17l-.24-.24c-.37-.37-.97-.37-1.35,0l-4.4,4.4-2.2-2.2c-.37-.37-.97-.37-1.35,0l-.24,.24c-.37,.37-.37,.97,0,1.34l3.79,3.79,5.99-5.99c.37-.37,.37-.97,0-1.34Z"/></g></g><g><g><path class="q" d="M574.39,672.27h43.98c.73,0,1.32,.59,1.32,1.32v4.42c0,.73-.59,1.32-1.32,1.32h-43.98c-.73,0-1.32-.59-1.32-1.32v-4.42c0-.73,.59-1.32,1.32-1.32Z"/><path class="q" d="M539.95,672.27h26.69c.73,0,1.33,.59,1.33,1.33v4.42c0,.73-.59,1.32-1.32,1.32h-26.7c-.73,0-1.32-.59-1.32-1.32v-4.42c0-.73,.59-1.32,1.32-1.32Z"/></g><g><path class="af" d="M532.65,675.8c0,3.81-3.09,6.9-6.9,6.9s-6.9-3.09-6.9-6.9,3.09-6.9,6.9-6.9,6.9,3.09,6.9,6.9Z"/><path class="q" d="M530.64,672.39l-.24-.24c-.37-.37-.97-.37-1.35,0l-4.4,4.4-2.2-2.2c-.37-.37-.97-.37-1.35,0l-.24,.24c-.37,.37-.37,.97,0,1.34l3.79,3.79,5.99-5.99c.37-.37,.37-.97,0-1.34Z"/></g></g><g><g><g><path class="af" d="M583.31,692.49h28.62c.73,0,1.32,.59,1.32,1.32v4.42c0,.73-.59,1.32-1.32,1.32h-28.62c-.73,0-1.32-.59-1.32-1.32v-4.42c0-.73,.59-1.32,1.32-1.32Z"/><path class="af" d="M539.95,692.49h35.61c.73,0,1.33,.59,1.33,1.33v4.42c0,.73-.59,1.32-1.32,1.32h-35.61c-.73,0-1.33-.59-1.33-1.33v-4.42c0-.73,.59-1.32,1.32-1.32Z"/></g><g><path class="af" d="M532.65,696.02c0,3.81-3.09,6.9-6.9,6.9s-6.9-3.09-6.9-6.9,3.09-6.9,6.9-6.9,6.9,3.09,6.9,6.9Z"/><path class="af" d="M530.64,692.62l-.24-.24c-.37-.37-.97-.37-1.35,0l-4.4,4.4-2.2-2.2c-.37-.37-.97-.37-1.35,0l-.24,.24c-.37,.37-.37,.97,0,1.34l3.79,3.79,5.99-5.99c.37-.37,.37-.97,0-1.34Z"/></g></g><g><g><path class="q" d="M583.31,692.49h28.62c.73,0,1.32,.59,1.32,1.32v4.42c0,.73-.59,1.32-1.32,1.32h-28.62c-.73,0-1.32-.59-1.32-1.32v-4.42c0-.73,.59-1.32,1.32-1.32Z"/><path class="q" d="M539.95,692.49h35.61c.73,0,1.33,.59,1.33,1.33v4.42c0,.73-.59,1.32-1.32,1.32h-35.61c-.73,0-1.33-.59-1.33-1.33v-4.42c0-.73,.59-1.32,1.32-1.32Z"/></g><g><path class="af" d="M532.65,696.02c0,3.81-3.09,6.9-6.9,6.9s-6.9-3.09-6.9-6.9,3.09-6.9,6.9-6.9,6.9,3.09,6.9,6.9Z"/><path class="q" d="M530.64,692.62l-.24-.24c-.37-.37-.97-.37-1.35,0l-4.4,4.4-2.2-2.2c-.37-.37-.97-.37-1.35,0l-.24,.24c-.37,.37-.37,.97,0,1.34l3.79,3.79,5.99-5.99c.37-.37,.37-.97,0-1.34Z"/></g></g></g><g><polygon class="af" points="573.42 542.17 581.58 532.52 577.27 528.87 566.01 542.18 577.32 555.45 581.62 551.78 573.42 542.17"/><polygon class="af" points="613.33 542.09 605.13 532.47 609.43 528.8 620.74 542.07 609.48 555.39 605.17 551.74 613.33 542.09"/></g><rect class="af" x="575.85" y="539.32" width="35.05" height="5.67" transform="translate(-142.13 866.31) rotate(-66.2)"/></g></g><g><rect class="bp" x="682.51" y="629.5" width="128.72" height="86.03"/><g><polygon class="am" points="706.2 715.52 787.54 715.52 746.87 682.21 706.2 715.52"/><polygon class="bg" points="682.51 712.88 682.51 715.52 685.74 715.52 746.87 665.45 807.99 715.52 811.23 715.52 811.23 712.87 746.87 660.16 682.51 712.88"/></g><polygon class="af" points="682.51 629.5 746.87 682.21 811.23 629.5 682.51 629.5 682.51 629.5"/><polygon class="an" points="788.72 629.5 705.01 629.5 746.87 663.78 788.72 629.5"/></g><g><path class="ag" d="M391.72,134.59c-.75,0-1.5-.31-2.04-.91-1.01-1.13-.91-2.86,.21-3.87,23.97-21.46,51.13-38.34,80.72-50.16,1.41-.56,3,.12,3.56,1.53,.56,1.4-.12,3-1.53,3.56-28.99,11.58-55.6,28.12-79.1,49.16-.52,.47-1.18,.7-1.83,.7Z"/><path class="ag" d="M746.41,128.92c-.62,0-1.25-.21-1.76-.64-21.87-18.38-46.31-33.02-72.62-43.54-1.4-.56-2.09-2.15-1.53-3.56,.56-1.4,2.16-2.09,3.56-1.53,26.85,10.73,51.79,25.68,74.11,44.43,1.16,.97,1.31,2.7,.34,3.86-.54,.64-1.32,.98-2.1,.98Z"/><path class="ag" d="M767.62,89.86c-.6,0-1.2-.19-1.7-.59-28.24-22.42-59.78-39.58-93.75-51-1.43-.48-2.2-2.03-1.72-3.47,.48-1.43,2.03-2.21,3.47-1.72,34.57,11.63,66.67,29.09,95.41,51.9,1.18,.94,1.38,2.66,.44,3.85-.54,.68-1.34,1.04-2.15,1.04Z"/><path class="ag" d="M363.31,101.42c-.75,0-1.51-.31-2.05-.92-1.01-1.13-.91-2.86,.22-3.86,32.12-28.59,68.88-49.98,109.27-63.56,1.44-.48,2.99,.29,3.47,1.72,.48,1.43-.29,2.99-1.72,3.47-39.69,13.35-75.82,34.37-107.38,62.46-.52,.46-1.17,.69-1.82,.69Z"/><polygon class="ag" points="678.04 27.57 666.76 33.14 672.33 44.42 678.04 27.57"/><polygon class="ag" points="357.69 91.38 357.02 103.95 369.59 104.61 357.69 91.38"/><polygon class="ag" points="738.95 131.15 751.49 130.1 750.44 117.56 738.95 131.15"/><polygon class="ag" points="472.82 91.37 478.4 80.09 467.12 74.52 472.82 91.37"/><g><path class="af" d="M478.3,35.67c0-3.68-2.99-6.67-6.67-6.67s-6.67,2.99-6.67,6.67,2.99,6.67,6.67,6.67,6.67-2.99,6.67-6.67Z"/><path class="bb" d="M474.33,35.67c0-1.49-1.21-2.7-2.7-2.7s-2.7,1.21-2.7,2.7,1.21,2.7,2.7,2.7,2.7-1.21,2.7-2.7Z"/></g><g><path class="af" d="M398.39,131.85c0-3.68-2.99-6.67-6.67-6.67s-6.67,2.99-6.67,6.67,2.99,6.67,6.67,6.67,6.67-2.99,6.67-6.67Z"/><path class="bb" d="M394.42,131.85c0-1.49-1.21-2.7-2.7-2.7s-2.7,1.21-2.7,2.7,1.21,2.7,2.7,2.7,2.7-1.21,2.7-2.7Z"/></g><g><path class="af" d="M679.71,82.2c0-3.68-2.99-6.67-6.67-6.67s-6.67,2.99-6.67,6.67,2.99,6.67,6.67,6.67,6.67-2.99,6.67-6.67Z"/><path class="bb" d="M675.74,82.2c0-1.49-1.21-2.7-2.7-2.7s-2.7,1.21-2.7,2.7,1.21,2.7,2.7,2.7,2.7-1.21,2.7-2.7Z"/></g><g><path class="af" d="M774.29,87.12c0-3.68-2.99-6.67-6.67-6.67s-6.67,2.99-6.67,6.67,2.99,6.67,6.67,6.67,6.67-2.99,6.67-6.67Z"/><path class="bb" d="M770.32,87.12c0-1.49-1.21-2.7-2.7-2.7s-2.7,1.21-2.7,2.7,1.21,2.7,2.7,2.7,2.7-1.21,2.7-2.7Z"/></g></g></g></g></g></svg>