<svg width="0" height="0" class="hidden">
  <symbol xmlns="http://www.w3.org/2000/svg" id="arrow-right" viewBox="0 0 24 24">
    <path d="M23.124,9.879,18.538,5.293,17.124,6.707l4.262,4.263L0,11l0,2,21.446-.03-4.323,4.323,1.414,1.414,4.587-4.586A3.007,3.007,0,0,0,23.124,9.879Z"></path>
  </symbol>
  <symbol version="1.1" id="clock" xmlns="http://www.w3.org/2000/svg" xmlns:xlink="http://www.w3.org/1999/xlink" x="0px" y="0px" xml:space="preserve" viewBox="0 0 501.656 501.656">
    <g>
      <g>
        <path d="M342.512,328h-200c-2.122,0-4.156,0.844-5.656,2.344l-96,96l11.312,11.312L145.824,344h187.888
			c-1.664,9.496-6.888,24-23.2,24h-88v16h88c31.64,0,40-31.4,40-48C350.512,331.582,346.93,328,342.512,328z"></path>
      </g>
    </g>
    <g>
      <g>
        <path d="M444.168,274.344c-3.124-3.123-8.188-3.123-11.312,0l-72,72l11.312,11.312l65.712-65.712
			c10.828,14.37,8.629,34.68-5.024,46.4L339.2,432H174.512c-2.122,0-4.156,0.844-5.656,2.344l-56,56l11.312,11.312L177.824,448
			h164.688c2.122,0,4.156-0.844,5.656-2.344l96-96C473.96,319.864,457.192,287.368,444.168,274.344z"></path>
      </g>
    </g>
    <g>
      <g>
        <path d="M262.512,0c-83.947,0-152,68.053-152,152s68.053,152,152,152c83.909-0.093,151.907-68.091,152-152
			C414.512,68.053,346.459,0,262.512,0z M262.512,288c-75.111,0-136-60.889-136-136s60.89-136,136-136
			c75.076,0.084,135.916,60.924,136,136C398.512,227.111,337.623,288,262.512,288z"></path>
      </g>
    </g>
    <g>
      <g>
        <path d="M262.512,40c-61.856,0-112,50.144-112,112s50.145,112,112,112c61.828-0.066,111.934-50.172,112-112
			C374.512,90.144,324.368,40,262.512,40z M270.512,247.666V224h-16v23.666c-46.637-3.848-83.817-41.028-87.666-87.666h23.666v-16
			h-23.666c3.849-46.637,41.029-83.817,87.666-87.666V80h16V56.343c46.612,3.893,83.764,41.045,87.657,87.657h-23.657v16h23.666
			C354.33,206.637,317.15,243.817,270.512,247.666z"></path>
      </g>
    </g>
    <g>
      <g>
        <path d="M284.18,162.33c1.494-3.129,2.333-6.631,2.333-10.33c0-10.449-6.68-19.334-16-22.629V96h-16v33.371
			c-9.32,3.295-16,12.18-16,22.629c-0.001,13.255,10.745,24,23.999,24c3.711,0,7.225-0.843,10.362-2.347l23.977,23.977
			l11.314-11.314L284.18,162.33z M262.512,160c-4.418,0-8-3.582-8-8c0-4.418,3.582-8,8-8c4.418,0,8,3.582,8,8
			C270.512,156.418,266.93,160,262.512,160z"></path>
      </g>
    </g>
    <g></g>
    <g></g>
    <g></g>
    <g></g>
    <g></g>
    <g></g>
    <g></g>
    <g></g>
    <g></g>
    <g></g>
    <g></g>
    <g></g>
    <g></g>
    <g></g>
    <g></g>
  </symbol>
  <symbol xmlns="http://www.w3.org/2000/svg" viewBox="0 0 46.89 46.89" id="i-devices">
    <path d="M28.14 9.38V1.04c0-.77.26-1.03 1.01-1.03h15.19c.73 0 .99.27.99 1.01v8.37c.24 0 .46-.01.68 0 .54.04.87.44.76.97-.21 1.02-.43 2.03-.66 3.05-.11.49-.39.67-.98.67h-16.7c-.75 0-.94-.15-1.1-.88-.19-.86-.38-1.71-.56-2.57-.19-.9.08-1.23 1.01-1.24h.37zM43.75 1.6H29.74v7.78c1.7 0 3.36.02 5.02 0 .62 0 1.1.09 1.22.77h1.5c.25-.66.4-.76 1.09-.76h5.18V1.6zM28.76 12.48h15.95c.11-.51.21-1.01.32-1.53h-5.9c-.28.67-.42.77-1.13.77-.83 0-1.66-.02-2.49 0-.59.02-1.03-.14-1.14-.76h-5.93c.11.51.21.99.32 1.51zM11.89 43.76c.17.7.33 1.33.48 1.96.18.77-.12 1.16-.91 1.16H5.75c-.79 0-1.09-.39-.91-1.16.15-.63.31-1.26.48-1.96-1.01 0-1.98.01-2.95 0-1.16-.02-2.09-.8-2.31-1.93-.04-.19-.04-.39-.04-.58v-7.47c0-1.55.98-2.52 2.54-2.52h12.11c1.56 0 2.54.97 2.54 2.52v7.47c0 1.53-.98 2.5-2.5 2.51h-2.8zm3.74-4.71c0-1.86.01-3.68 0-5.5 0-.48-.36-.73-.91-.73H2.52c-.66 0-.94.28-.94.96v5.27h14.05zm-14.06 1.6v.39c0 .93.22 1.16 1.13 1.16H14.66c.58 0 .91-.22.96-.68.03-.28 0-.57 0-.86H1.56zm4.98 4.67h4.11c-.12-.49-.2-.9-.32-1.3-.04-.11-.21-.25-.32-.25-.94-.02-1.88-.02-2.82 0-.11 0-.29.14-.33.24-.13.41-.21.84-.32 1.31zM17.4 20.93c-.38-.49-.7-.9-1.03-1.32-.4-.53-.39-.86.08-1.32.62-.62 1.24-1.25 1.87-1.86.43-.42.77-.44 1.25-.09.44.33.87.66 1.37 1.05.08-.62.14-1.14.22-1.67.1-.67.33-.87.99-.87h2.64c.58 0 .83.22.92.79.09.56.15 1.12.24 1.76.48-.37.9-.7 1.32-1.02.53-.4.86-.39 1.33.07l1.83 1.83c.48.48.49.81.07 1.36-.31.41-.63.82-1.01 1.3.57.07 1.06.13 1.56.2.82.12 1 .32 1 1.14v2.49c0 .61-.21.86-.81.95-.54.08-1.09.15-1.74.24.36.46.68.86.99 1.27.46.6.45.9-.08 1.44-.6.6-1.19 1.2-1.8 1.79-.45.44-.79.46-1.29.09-.43-.32-.84-.66-1.35-1.05-.06.5-.12.92-.17 1.35-.12 1.05-.29 1.21-1.34 1.21h-2.34c-.57 0-.83-.22-.92-.79-.08-.54-.15-1.09-.24-1.76-.45.35-.84.65-1.23.95-.65.51-.93.49-1.51-.09-.6-.6-1.2-1.19-1.79-1.8-.4-.41-.42-.76-.08-1.21.33-.44.68-.87 1.08-1.39-.5-.06-.92-.12-1.35-.17-1.06-.12-1.21-.28-1.21-1.34v-2.34c0-.58.22-.83.79-.92.56-.09 1.11-.15 1.76-.24zm5.25-4.51c-.07.56-.13 1.11-.21 1.65-.14.95-1.33 1.43-2.09.85-.43-.33-.87-.67-1.27-.99-.41.39-.77.74-1.16 1.12.33.42.62.85.97 1.23.36.41.37.81.17 1.3-.21.52-.5.85-1.09.88-.51.03-1.02.12-1.53.19v1.59c.55.07 1.08.13 1.61.2.98.13 1.47 1.33.87 2.11-.33.43-.67.86-.96 1.23.4.42.74.79 1.1 1.18.41-.32.84-.59 1.2-.94.52-.51 1.01-.31 1.56-.08.49.2.6.59.65 1.05.05.49.13.98.19 1.46h1.59c.07-.57.13-1.12.21-1.67.14-.91 1.33-1.39 2.07-.84.44.33.87.67 1.25.97.41-.39.78-.74 1.18-1.11-.31-.41-.62-.83-.96-1.22-.34-.4-.36-.78-.16-1.25.21-.51.47-.87 1.07-.9.52-.03 1.03-.12 1.54-.18v-1.6c-.59-.07-1.16-.13-1.72-.22-.85-.14-1.32-1.34-.8-2.02.34-.45.69-.89.99-1.27-.39-.43-.73-.81-1.09-1.2-.42.33-.84.61-1.21.95-.44.41-.87.35-1.39.14-.52-.21-.77-.54-.81-1.09-.03-.5-.12-.99-.19-1.5h-1.59zM46.89 38.29v6c0 1.63-.95 2.59-2.57 2.59h-5.86c-1.53 0-2.51-.98-2.52-2.49v-12.2c0-1.52.99-2.49 2.52-2.49h5.91c1.55 0 2.51.98 2.52 2.54v6.05zm-8.64-7.04c-.55.11-.74.45-.74.95v12.15c0 .67.28.96.94.96h5.95c.63 0 .92-.29.92-.93V32.23c0-.62-.16-.83-.75-.96-.01.08-.03.15-.04.23-.23 1.32-1.13 2.09-2.47 2.1h-1.02c-1.68 0-2.49-.67-2.79-2.35zm1.61.02c.07.5.33.74.78.76.52.02 1.04.02 1.56 0 .48-.02.7-.27.73-.76h-3.07zM0 8.6V2.55C0 .96.97 0 2.57 0h8.93c1.62 0 2.57.96 2.57 2.59V14.6c0 1.65-.96 2.59-2.61 2.59H2.62C.94 17.19 0 16.24 0 14.55V8.6zm12.5 0V2.59c0-.77-.26-1.02-1.03-1.03H2.58c-.77 0-1.02.26-1.03 1.02v12.01c0 .77.26 1.03 1.02 1.03h8.89c.77 0 1.03-.26 1.03-1.03V8.58zM22.67 33.62h1.56v5.43h10.13v1.56c-.14 0-.3.02-.45.02H23.76c-.84 0-1.08-.24-1.08-1.07v-5.95zM15.65 9.39V7.81H23.17c.8 0 1.06.25 1.06 1.04v4.4h-1.54V9.39h-7.04zM8.61 24.21v5.45H7.07c0-.13-.02-.25-.02-.37v-5.61c0-.76.26-1.01 1.03-1.02h5.19v1.55H8.62zM33.63 23.44v-1.56h2.31v-6.22h1.55c0 .13.03.27.03.41v6.34c0 .77-.26 1.03-1.02 1.03h-2.87z"></path>
    <path d="M19.54 23.44c0-2.16 1.76-3.91 3.92-3.91 2.14 0 3.89 1.75 3.9 3.88a3.92 3.92 0 0 1-3.94 3.93c-2.13-.01-3.87-1.77-3.87-3.91zm6.25-.01a2.35 2.35 0 0 0-2.38-2.33 2.365 2.365 0 0 0-2.31 2.35c0 1.29 1.08 2.34 2.38 2.33 1.27-.01 2.32-1.08 2.31-2.35zM6.29 12.52h1.49v1.52H6.29v-1.52z"></path>
  </symbol>
  <symbol version="1.1" id="i-html-css" xmlns="http://www.w3.org/2000/svg" xmlns:xlink="http://www.w3.org/1999/xlink" x="0px" y="0px" xml:space="preserve" viewBox="0 0 50 50">
    <g>
      <path d="M29.3,49.9c-0.4-0.3-0.5-0.7-0.5-1.1c0-0.9,0-1.8,0-2.8c-0.2,0-0.4,0-0.6,0c-5.4,0-10.8,0-16.2,0c-0.9,0-1.1-0.2-1.1-1.1
		c0-6,0-12,0-18c0-0.9,0.2-1.1,1.1-1.1c12.3,0,24.6,0,36.8,0c0.8,0,1.1,0.2,1.1,1.1c0,6,0,12.1,0,18.1c0,0.8-0.2,1.1-1.1,1.1
		c-4.8,0-9.6,0-14.5,0c-0.3,0-0.6,0.1-0.9,0.3c-1.2,1.2-2.4,2.4-3.6,3.6C29.7,49.9,29.5,49.9,29.3,49.9z M48.3,27.3
		c-12,0-23.9,0-35.8,0c0,5.7,0,11.4,0,17.1c0.2,0,0.3,0,0.5,0c5.5,0,10.9,0,16.4,0c0.8,0,1,0.3,1,1.1c0,0.5,0,1.1,0,1.8
		c0.8-0.8,1.6-1.6,2.3-2.3c0.3-0.3,0.7-0.5,1.2-0.5c4.6,0,9.2,0,13.8,0c0.2,0,0.4,0,0.6,0C48.3,38.7,48.3,33.1,48.3,27.3z"></path>
      <path d="M0,0.5C0.3,0.1,0.7,0,1.1,0c11.7,0,23.5,0,35.2,0c0.9,0,1.1,0.2,1.1,1.1c0,5.5,0,11,0,16.5c0,0.9-0.2,1.1-1.1,1.1
		c-6.4,0-12.8,0-19.2,0c-0.3,0-0.6,0.1-0.8,0.3c-1,1.1-2.1,2.1-3.1,3.1c-0.3,0.3-0.6,0.6-1.1,0.4c-0.4-0.2-0.5-0.6-0.5-1
		c0-0.9,0-1.8,0-2.8c-0.2,0-0.4,0-0.5,0c-3.3,0-6.7,0-10,0c-0.5,0-0.9-0.1-1.1-0.5C0,12.3,0,6.4,0,0.5z M1.6,1.6
		c0,5.2,0,10.4,0,15.6c0.2,0,0.4,0,0.6,0c3.3,0,6.7,0,10,0c0.8,0,1.1,0.2,1.1,1c0,0.5,0,1.1,0,1.8c0.8-0.8,1.6-1.6,2.3-2.3
		c0.3-0.3,0.7-0.5,1.2-0.5c6.2,0,12.4,0,18.6,0c0.2,0,0.4,0,0.6,0c0-5.2,0-10.4,0-15.6C24.4,1.6,13,1.6,1.6,1.6z"></path>
      <path d="M0,29.1c0.3-0.5,0.5-1.1,0.9-1.5c0.4-0.4,0.9-0.7,1.4-1c0-0.2,0-0.6,0.1-0.9c0.4-2.1,2.2-3.7,4.4-3.7c0.8,0,1.7,0,2.5,0
		c0,0.5,0,1,0,1.6c-0.8,0-1.5,0-2.3,0c-0.5,0-1,0.1-1.4,0.3c-1.1,0.5-1.6,1.4-1.7,2.6c0,0.1,0.1,0.4,0.3,0.4c1.3,0.5,2,1.5,2.1,2.9
		c0,1.3-0.7,2.4-2.1,2.9c-0.3,0.1-0.3,0.3-0.3,0.5c0.1,1.5,1.4,2.8,2.9,2.8c0.8,0,1.6,0,2.5,0c0,0.5,0,1,0,1.5
		c-2.1,0-4.3,0.4-5.9-1.5c-0.7-0.8-1-1.6-1.1-3.2c-1.2-0.3-1.9-1.2-2.3-2.4C0,29.8,0,29.5,0,29.1z M4.7,29.6c0-0.8-0.7-1.6-1.6-1.6
		c-0.9,0-1.6,0.7-1.6,1.5c0,0.9,0.7,1.6,1.6,1.6C4,31.2,4.7,30.5,4.7,29.6z"></path>
      <path d="M45.9,19.3c-1.4-0.5-2.3-1.5-2.4-3.1c-0.1-1.4,0.7-2.4,2.4-3.2c0-0.4,0-0.8,0-1.2c-0.1-1.1-1.1-2-2.2-2c-1.4,0-2.7,0-4.1,0
		c0-0.5,0-1,0-1.5c1.6,0,3.3-0.1,4.8,0c1.8,0.2,3.1,1.9,3.1,3.7c0,0.3,0,0.7,0,1c1.6,0.6,2.5,1.6,2.4,3.3c-0.1,1.5-1,2.4-2.2,2.9
		c-0.2,0.7-0.3,1.4-0.5,1.9c-0.6,1.4-1.8,2.2-3.3,2.2c-8.8,0-17.7,0-26.5,0c0,0-0.1,0-0.1,0c0-0.5,0-1,0-1.6c0.2,0,0.4,0,0.6,0
		c8.6,0,17.2,0,25.8,0C45.1,21.8,46.1,20.7,45.9,19.3z M46.8,14.6c-0.9,0-1.6,0.7-1.6,1.6c0,0.9,0.7,1.6,1.6,1.6
		c0.9,0,1.6-0.7,1.6-1.6C48.4,15.3,47.6,14.6,46.8,14.6z"></path>
      <path d="M26.5,39c0.5,0,1,0,1.5,0c0,0.2,0.1,0.3,0.1,0.5c0.3,1.2,1.4,2,2.6,1.8c1.2-0.2,2.1-1.2,2-2.4c0-1.2-1-2.2-2.2-2.2
		c-1.2,0-2.2-0.4-3-1.3c-1.1-1.2-1.3-3.1-0.5-4.6c0.9-1.5,2.6-2.2,4.3-1.8c1.6,0.4,2.9,1.8,3,3.4c0,0.1,0,0.2,0,0.3
		c-0.5,0-1,0-1.5,0c0-0.1-0.1-0.3-0.1-0.4c-0.3-1.2-1.4-2-2.6-1.8c-1.2,0.2-2.1,1.2-2,2.4c0,1.2,1,2.2,2.3,2.2
		c1.9,0.1,3.3,1.1,3.8,2.8c0.4,1.6,0,2.9-1.2,4c-1.2,1.1-2.7,1.3-4.2,0.6C27.3,41.9,26.6,40.7,26.5,39z"></path>
      <path d="M35.9,39c0.5,0,1,0,1.5,0c0,0.1,0,0.3,0.1,0.4c0.3,1.2,1.4,2,2.6,1.9c1.2-0.1,2.1-1.2,2.1-2.4c0-1.2-1-2.2-2.3-2.2
		c-1.9-0.1-3.3-1.1-3.8-2.8c-0.4-1.5,0-2.9,1.1-3.9c1.2-1.1,2.6-1.3,4-0.7c1.5,0.6,2.3,1.7,2.5,3.3c0,0.1,0,0.2,0,0.3
		c-0.5,0-1,0-1.5,0c-0.3-1.4-1.1-2.2-2.2-2.3c-1.3-0.1-2.4,0.9-2.5,2.2c-0.1,1.3,1,2.4,2.3,2.4c1.8,0.1,3.1,1,3.7,2.6
		c0.5,1.5,0.2,2.9-0.9,4.1c-1.1,1.1-2.5,1.5-4,0.9c-1.5-0.5-2.4-1.7-2.6-3.3C35.9,39.3,35.9,39.2,35.9,39z"></path>
      <path d="M23.4,39c0.5,0,1,0,1.5,0c0,1.3-0.5,2.3-1.5,3.1c-1.2,0.9-2.6,1.1-4,0.4c-1.4-0.7-2.2-1.9-2.2-3.5c0-2.1,0-4.3,0-6.4
		c0-2.1,1.7-3.7,3.8-3.8c2.1,0,3.8,1.5,4,3.6c0,0.1,0,0.2,0,0.3c-0.5,0-1,0-1.5,0c0-0.2-0.1-0.4-0.1-0.6c-0.3-1.1-1.4-1.8-2.5-1.7
		c-1.1,0.1-2.1,1.1-2.1,2.2c0,2.1,0,4.3,0,6.4c0,1.2,0.9,2.1,2.1,2.2c1.1,0.1,2.2-0.6,2.5-1.7C23.4,39.4,23.4,39.2,23.4,39z"></path>
      <path d="M23.4,8.7c0.3-0.8,0.5-1.4,0.8-2.1c0.3-0.7,0.5-1.4,0.8-2.1c0.2-0.4,0.5-0.6,0.9-0.6c0.4,0.1,0.6,0.4,0.6,0.8
		c0,3.3,0,6.6,0,9.9c0,0,0,0.1,0,0.1c-0.5,0-1,0-1.5,0c0-1.9,0-3.7,0-5.6c0,0-0.1,0-0.1,0c-0.2,0.6-0.5,1.2-0.7,1.8
		c-0.1,0.4-0.3,0.7-0.8,0.7c-0.5,0-0.7-0.3-0.8-0.7c-0.2-0.6-0.4-1.2-0.7-1.8c0,1.8,0,3.7,0,5.6c-0.5,0-1,0-1.5,0c0-0.1,0-0.2,0-0.4
		c0-3.2,0-6.4,0-9.5c0-0.2,0.1-0.5,0.2-0.7c0.4-0.5,1.1-0.3,1.3,0.4c0.4,1.2,0.9,2.3,1.3,3.5C23.2,8.2,23.3,8.4,23.4,8.7z"></path>
      <path d="M4.7,3.9c0.5,0,1,0,1.5,0c0,1.5,0,3.1,0,4.6c1,0,2.1,0,3.1,0c0-1.5,0-3.1,0-4.6c0.5,0,1,0,1.5,0c0,3.6,0,7.2,0,10.9
		c-0.5,0-1,0-1.5,0c0-1.5,0-3.1,0-4.6c-1,0-2.1,0-3.1,0c0,1.5,0,3.1,0,4.6c-0.5,0-1,0-1.5,0C4.7,11.2,4.7,7.6,4.7,3.9z"></path>
      <path d="M18.7,3.9c0,0.5,0,1,0,1.5c-0.8,0-1.5,0-2.3,0c0,3.1,0,6.2,0,9.3c-0.5,0-1,0-1.6,0c0-3.1,0-6.2,0-9.3c-0.8,0-1.5,0-2.3,0
		c0-0.5,0-1,0-1.5C14.6,3.9,16.6,3.9,18.7,3.9z"></path>
      <path d="M33.5,13.3c0,0.5,0,1,0,1.5c-1.2,0-2.4,0.1-3.6,0c-1.1-0.1-1.8-1.1-1.8-2.1c0-2.9,0-5.7,0-8.6c0,0,0-0.1,0-0.1
		c0.5,0,1,0,1.5,0c0,0.2,0,0.4,0,0.5c0,2.6,0,5.2,0,7.8c0,0.7,0.2,1,1,1C31.5,13.3,32.5,13.3,33.5,13.3z"></path>
    </g>
  </symbol>
  <symbol version="1.1" id="i-javascript" xmlns="http://www.w3.org/2000/svg" xmlns:xlink="http://www.w3.org/1999/xlink" x="0px" y="0px" xml:space="preserve" viewBox="0 0 50 50">
    <g>
      <path d="M30.7,40.1c0.4,1.9,0.9,3.8,1.3,5.7c1.1,0,2.2,0,3.3,0c0.2,0,0.5,0,0.7,0c0.5,0.1,0.7,0.4,0.7,0.9c0,0.5-0.2,0.8-0.7,0.9
		c-0.2,0-0.4,0-0.6,0c-6.9,0-13.7,0-20.6,0c-0.1,0-0.1,0-0.2,0c-0.7,0-1.1-0.3-1.1-0.9c0-0.6,0.4-1,1.1-1c1,0,2,0,3,0
		c0.2,0,0.4,0,0.6,0c0.4-1.9,0.9-3.7,1.3-5.7c-0.3,0-0.5,0-0.6,0c-5.2,0-10.5,0-15.7,0c-1.9,0-3-1.1-3-3.2c0-10.5,0-21,0-31.4
		c0-2,1.1-3.1,3-3.1c14.6,0,29.3,0,43.9,0c1.9,0,3,1.1,3,3.2c0,10.5,0,20.9,0,31.4c0,2.1-1.1,3.2-3,3.2c-5.2,0-10.5,0-15.7,0
		C31.1,40.1,30.9,40.1,30.7,40.1z M1.9,33.5c15.5,0,30.9,0,46.3,0c0-0.3,0-0.5,0-0.7c0-9,0-18.1,0-27.1c0-1.2-0.2-1.4-1.3-1.4
		c-14.5,0-29.1,0-43.6,0c-1.1,0-1.3,0.3-1.3,1.4c0,9,0,18.1,0,27.1C1.9,33,1.9,33.2,1.9,33.5z M1.9,35.4c0,0.5,0,0.9,0,1.4
		c0,1.2,0.2,1.4,1.4,1.4c14.5,0,29.1,0,43.6,0c0.2,0,0.4,0,0.6,0c0.5-0.1,0.8-0.3,0.8-0.8c0-0.6,0-1.3,0-2
		C32.8,35.4,17.4,35.4,1.9,35.4z M20,45.7c3.4,0,6.8,0,10.1,0c-0.4-1.9-0.9-3.8-1.3-5.6c-2.5,0-5,0-7.5,0c-0.4,1.8-0.8,3.5-1.2,5.2
		C20,45.4,20,45.6,20,45.7z"></path>
      <path d="M9.6,18.8c1,0.9,1.3,2.1,1.2,3.4c0,0.6,0,1.3,0,1.9c0,1,0.7,1.7,1.6,1.8c0.7,0.1,1.1,0.4,1,1c-0.1,0.6-0.5,0.9-1.2,0.8
		c-1.8-0.2-3.2-1.7-3.2-3.5c0-0.9,0-1.7,0-2.6c0-1.1-0.6-1.8-1.7-1.9c-0.6-0.1-0.9-0.4-0.9-0.9c0-0.5,0.3-0.8,0.9-0.9
		c1.1-0.1,1.8-0.8,1.8-1.9c0-0.9,0-1.7,0-2.6c0-1.9,1.6-3.4,3.4-3.4c0.3,0,0.7,0.2,0.9,0.4c0.4,0.5,0,1.3-0.7,1.4
		c-1.3,0.2-1.8,0.8-1.8,2.1c0,0.6,0,1.2,0,1.8C10.9,16.8,10.6,17.9,9.6,18.8z"></path>
      <path d="M40.5,18.8c-1-0.9-1.3-2.1-1.2-3.5c0-0.6,0-1.2,0-1.8c0-1-0.7-1.7-1.7-1.8c-0.7-0.1-1-0.4-1-1c0-0.6,0.4-0.8,1.1-0.8
		c1.8,0.1,3.3,1.6,3.3,3.4c0,0.9,0,1.8,0,2.7c0,1.1,0.6,1.8,1.7,1.9c0.6,0.1,0.9,0.4,0.9,0.9c0,0.5-0.3,0.8-0.9,0.9
		c-1.1,0.1-1.7,0.8-1.7,1.9c0,0.9,0,1.8,0,2.7c-0.1,1.8-1.6,3.4-3.4,3.4c-0.4,0-0.8-0.1-1-0.6c-0.2-0.6,0.1-1.1,0.8-1.2
		c1.3-0.2,1.8-0.8,1.8-2.1c0-0.6,0-1.3,0-1.9C39.3,20.5,39.5,19.9,40.5,18.8z"></path>
      <g>
        <path d="M32.2,14.6c-0.7,0.4-1.3,0.9-2,1.2c-0.1-0.2-0.2-0.4-0.4-0.5c-0.4-0.5-1-0.7-1.7-0.5
			c-0.9,0.2-1.1,1.3-0.4,1.9c0.3,0.3,0.7,0.4,1,0.6c0.8,0.4,1.6,0.7,2.3,1.1c0.9,0.4,1.5,1.1,1.8,2.1c0.6,2.1-0.2,4.1-2.7,4.6
			c-1.6,0.3-3.1,0.2-4.5-0.7c-0.7-0.4-1.1-1-1.5-1.7c0.7-0.4,1.4-0.8,2.1-1.2c0.1,0.1,0.2,0.2,0.2,0.3c0.8,1.2,2,1.4,3.1,1.1
			c0.5-0.2,0.9-0.4,1-1c0.1-0.5-0.2-1-0.7-1.2c-0.7-0.4-1.3-0.7-1.9-0.9c-0.7-0.3-1.4-0.7-2-1.1c-1.1-1-1.4-2.2-1-3.6
			c0.3-1.4,1.3-2.1,2.7-2.4c0.7-0.2,1.4-0.1,2.1,0C30.8,12.9,31.6,13.6,32.2,14.6z"></path>
        <path d="M15.1,22.9c0.7-0.4,1.4-0.8,2.1-1.2c0.2,0.2,0.3,0.4,0.4,0.7c0.3,0.5,0.8,0.7,1.4,0.7
			c0.7-0.1,1.1-0.4,1.1-1.1c0.1-0.2,0.1-0.5,0.1-0.7c0-2.7,0-5.4,0-8.1c0-0.1,0-0.2,0-0.3c0.9,0,1.7,0,2.5,0c0,0.1,0,0.2,0,0.2
			c0,2.8,0,5.6,0,8.4c0,0.5-0.1,1-0.2,1.4c-0.3,1.2-1.1,2-2.4,2.3c-1.1,0.3-2.3,0.2-3.4-0.3C16,24.3,15.5,23.8,15.1,22.9z"></path>
      </g>
    </g>
  </symbol>
  <symbol version="1.1" id="i-mobile" xmlns="http://www.w3.org/2000/svg" x="0" y="0" xml:space="preserve" viewBox="0 0 50 50">
    <path d="M0 43.6V7.2l.1-.1c.5-1.2 1.4-1.7 2.7-1.7h18.6c1.7 0 2.7 1 2.7 2.7v4h1.7V7.9c0-1.5 1.1-2.5 2.5-2.5h19.2c1.1 0 2 .7 2.4 1.7 0 .1.1.2.1.2v36.2c0 .1-.1.1-.1.2-.5 1.1-1.3 1.7-2.5 1.7H28.6c-1.6 0-2.7-1-2.7-2.7v-4h-1.6v3.9c0 1.8-1 2.8-2.8 2.8H3.1c-1.3 0-2.3-.5-2.8-1.8H0zM19.2 7.1v1.5c0 1.6-1 2.7-2.7 2.7H7.7C6.1 11.2 5 10.2 5 8.6V7.1H2.8c-.9 0-1.2.3-1.2 1.2v34.3c0 1 .2 1.2 1.2 1.2H21.6c.5-.1.8-.3.8-.8v-4.3c-6.7-1.9-10.7-6.1-10.7-13.1 0-7.1 4-11.4 10.7-13.3V8c0-.5-.3-.8-.8-.8-.8-.2-1.6-.1-2.4-.1zm29.1 3.3H27.5v1.8c6.2 1.7 9.9 5.5 10.7 11.9.3 7.7-3.6 12.3-10.7 14.4v1.8h20.8V10.4zM25 13.7c-6.4 0-11.6 5.2-11.7 11.6 0 6.5 5.1 11.7 11.6 11.7 6.4.1 11.7-5.2 11.7-11.6.1-6.4-5.1-11.7-11.6-11.7zm23.3-5v-.6c0-.7-.3-1-1-1H28.5c-.7 0-1 .3-1 1v.6h20.8zM6.7 7.1V8.5c0 .8.3 1.1 1.1 1.1h8.8c.5 0 .9-.2.9-.7V7.1H6.7zm34.9 36.6h5.9c.5 0 .8-.3.8-.8V42h-6.7v1.7zm-7.4-1.6h-6.7v.4c0 1 .2 1.2 1.2 1.2h5.5v-1.6zm3.7 0h-1.2c-.5 0-.8.3-.9.8 0 .4.3.8.8.8h2.6c.5 0 .8-.4.8-.9 0-.4-.3-.8-.8-.8-.5.1-.9.1-1.3.1z"></path>
    <path d="M12.1 40.4h4.5c.4 0 .7.2.9.6.1.4 0 .7-.3.9-.2.1-.4.2-.6.2h-9c-.6 0-.9-.4-.9-.9s.4-.8 1-.8h4.4z"></path>
    <path d="M26.7 22.2c-.2.7-.4 1.5-.6 2.2-.4 1.4-.7 2.9-1.1 4.3-.2.6-.5.9-1 .8-.5-.1-.7-.6-.6-1.1.5-2.1 1.1-4.3 1.6-6.4.1-.5.5-.8.9-.7.5 0 .8.3.8.9zM30.5 25.4l-1.8-1.8c-.4-.4-.5-.9-.1-1.3s.8-.3 1.3.1l2.3 2.3c.5.5.5.9 0 1.4l-2.3 2.3c-.4.4-.9.4-1.3.1-.3-.4-.3-.8.1-1.2.6-.7 1.2-1.3 1.8-1.9zM19.5 25.4l1.8 1.8c.5.5.5.9.1 1.3s-.8.3-1.3-.1c-.8-.7-1.5-1.5-2.2-2.2-.5-.5-.5-.9 0-1.4l2.3-2.3c.4-.4.9-.4 1.3-.1.3.4.3.8-.1 1.2-.7.6-1.3 1.2-1.9 1.8z"></path>
  </symbol>
  <symbol version="1.1" id="i-mysql" xmlns="http://www.w3.org/2000/svg" xmlns:xlink="http://www.w3.org/1999/xlink" x="0px" y="0px" xml:space="preserve" viewBox="0 0 50 50">
    <g>
      <path d="M0,2.8c0.9-2.1,2.1-2.7,4.4-2.1c1.8,0.5,3.5,1.3,5,2.6c0.5,0.4,0.9,0.6,1.5,0.6c2.6,0,5,0.7,7.2,2.1c4.9,3,9,6.8,11.9,11.8
		c0.8,1.3,1.3,2.7,1.9,4.1c1.2,2.5,2.3,5,3.5,7.5c0.4,0.8,0.9,1.3,1.7,1.6c3.6,1.3,6.6,3.5,9.4,6c0.6,0.5,1.1,1.2,1.6,1.9
		c0.2,0.3,0.1,0.4-0.2,0.5c-0.9,0.2-1.8,0.4-2.7,0.6c-1.4,0.3-2.9,0.6-4.3,0.8c0,0.1-0.1,0.1-0.1,0.2c0.4,0.4,0.7,0.8,1.1,1.1
		c0.6,0.5,1.3,0.9,2,1.3c1.6,0.9,3,2.2,4.2,3.6c0.2,0.2,0.4,0.5,0.6,0.6c0.6,0.5,1,1.1,1.2,1.9c-0.2-0.1-0.3-0.2-0.4-0.3
		c-1.6-1.5-3.4-2.6-5.5-3.5c-1.4-0.6-2.7-1.5-3.9-2.5c-0.9-0.8-1.6-1.8-2-2.9c-0.1-0.3,0.2-0.5,0.4-0.6c1.3-0.4,2.7-0.8,4-1.1
		c1.1-0.2,2.3-0.2,3.5-0.3c-0.2-0.2-0.3-0.5-0.6-0.6c-2.8-1.9-5.5-4.2-9-4.9c-1.4-0.3-2.3-1.1-2.9-2.4c-1.3-2.9-2.8-5.7-4-8.7
		c-1.3-3.1-3-5.8-5.2-8.2c-2.9-3.2-6.3-5.8-10.5-7.3c-0.7-0.3-1.5-0.3-2.3-0.4c-0.7-0.1-1.4,0-2.1-0.2c-0.4,0-0.7-0.3-1-0.5
		C7,3.8,5.2,3.1,3.5,2.5C3.2,2.4,3,2.4,2.7,2.3c-0.8,0-1.4,0.6-1.1,1.4c0.2,0.6,0.6,1.2,1,1.8c0.3,0.4,0.6,0.8,1,1.2
		c1.7,2,2.5,4.5,3.3,6.9c0.3,1.1,0.8,2.1,1.3,3.1c0.3,0.6,0.7,1.1,1.2,1.5c0.6,0.6,0.8,1.2,0.6,2c-0.2,0.7-0.5,1.4-0.7,2.2
		c-1.1,3.6-1,7.1,0.7,10.5c0.3,0.6,0.7,1.1,1.5,1.3c0.1-0.6,0.1-1.1,0.2-1.7c0.2-1,0.3-2,0.6-3c0.3-1.1,1.1-1.9,1.8-2.8
		c0.1,0.2,0.2,0.4,0.3,0.6c1.6,4.4,3.9,8.4,7,11.8c0.3,0.3,0.7,0.6,1,1c-0.2-0.1-0.5-0.3-0.7-0.4c-1.4-1.2-2.7-2.4-4.1-3.7
		c-1.3-1.2-2.2-2.6-2.8-4.1c-0.1-0.4-0.3-0.7-0.6-1c-0.1,0.8-0.3,1.5-0.4,2.3c-0.1,0.5-0.1,1-0.3,1.5c-0.4,1.4-1.8,1.9-3,1.1
		c-1-0.6-1.6-1.5-2-2.5c-1.1-2.2-1.4-4.6-1.3-7.1c0.1-1.8,0.6-3.6,1.1-5.3c0.3-0.9,0-1.3-0.4-1.9c-0.8-1.2-1.5-2.5-2.1-3.8
		S4.9,12.4,4.3,11C4,10.2,3.6,9.6,3.2,9C2.6,8.1,2,7.3,1.4,6.5C0.7,5.7,0.3,4.9,0,3.9C0,3.5,0,3.2,0,2.8z"></path>
      <path d="M10.1,9.1c1.3-0.5,2,0.1,2.5,1.2c0.2,0.5-0.1,1.4-0.6,1.8C11.3,11.1,10.7,10.1,10.1,9.1z"></path>
    </g>
  </symbol>
  <symbol xmlns="http://www.w3.org/2000/svg" viewBox="0 0 24 24" id="i-node">
    <path d="M6.703 20.782a2.29 2.29 0 0 1-1.118-.294l-.536-.299a.5.5 0 1 1 .487-.873l.536.299c.404.225.886.222 1.288-.015.401-.236.64-.654.64-1.119V7.5a.5.5 0 0 1 1 0v10.981c0 .823-.424 1.563-1.134 1.98a2.27 2.27 0 0 1-1.163.321z"></path>
    <path d="M12.002 23.999c-.273 0-.548-.071-.791-.214l-2.465-1.438a.5.5 0 0 1 .504-.864l2.465 1.438a.56.56 0 0 0 .573 0l8.922-5.206a.597.597 0 0 0 .29-.511V6.793a.596.596 0 0 0-.292-.512l-8.919-5.204a.563.563 0 0 0-.572 0L2.788 6.282a.59.59 0 0 0-.288.51v10.412c0 .211.11.405.289.51l2.757 1.608a.5.5 0 0 1-.504.864l-2.757-1.608a1.593 1.593 0 0 1-.785-1.374V6.793a1.591 1.591 0 0 1 .784-1.374L11.21.215a1.57 1.57 0 0 1 1.582-.002l8.921 5.205c.486.285.787.811.787 1.375v10.413a1.602 1.602 0 0 1-.784 1.372l-8.924 5.207a1.558 1.558 0 0 1-.79.214z"></path>
    <path d="M14.5 17c-2.176 0-4.5-.723-4.5-2.75a.5.5 0 0 1 1 0c0 1.701 3.142 1.75 3.5 1.75 1.915 0 3.5-.132 3.5-1.75 0-.822-.831-1.101-2.872-1.585l-.748-.18c-.23-.058-.477-.111-.729-.167C12.024 11.961 10 11.516 10 9.75 10 7.723 12.324 7 14.5 7s4.5.723 4.5 2.75a.5.5 0 0 1-1 0C18 8.049 14.858 8 14.5 8S11 8.049 11 9.75c0 .891 1.242 1.235 2.865 1.592.262.058.516.113.755.173l.738.178c1.954.462 3.642.863 3.642 2.557C19 17 16.072 17 14.5 17z"></path>
  </symbol>
  <symbol version="1.1" id="i-react" xmlns="http://www.w3.org/2000/svg" xmlns:xlink="http://www.w3.org/1999/xlink" x="0px" y="0px" xml:space="preserve" viewBox="0 0 50 50">
    <g>
      <path d="M0,24.6c0.5-2,2-3.1,3.8-4c2.4-1.3,5-1.9,7.7-2.5c0.3-0.1,0.6-0.1,1-0.2c-0.3-0.9-0.6-1.8-0.8-2.7
		c-0.7-2.4-1.3-4.9-1.1-7.4c0.1-1.1,0.3-2.2,1-3.1c0.9-1.3,2.4-1.7,4-1.3c1.5,0.4,2.8,1.2,4,2c1.8,1.3,3.4,2.9,4.9,4.5
		c0.2,0.2,0.4,0.4,0.6,0.6c0,0,0.1,0,0.1,0.1c0.2-0.3,0.5-0.5,0.7-0.8c1.8-2,3.8-3.9,6.1-5.3c0.9-0.5,1.9-1,2.9-1.2
		c2.3-0.5,4.1,0.8,4.5,3.1c0.4,2.3,0.1,4.6-0.4,6.8c-0.4,1.5-0.8,3-1.3,4.5c0.4,0.1,0.9,0.2,1.4,0.3c2.5,0.5,4.9,1.2,7.2,2.4
		c1.2,0.6,2.3,1.3,3.1,2.4c0.3,0.5,0.5,1.1,0.7,1.6c0,0.3,0,0.6,0,1c-0.2,0.5-0.4,1.1-0.7,1.6c-0.7,1.1-1.9,1.8-3,2.4
		c-2.4,1.2-5,1.9-7.6,2.5c-0.3,0.1-0.7,0.1-0.9,0.2c0.4,1.5,0.9,3,1.3,4.5c0.5,2.2,0.9,4.5,0.4,6.8c-0.4,2.3-2.2,3.6-4.5,3.1
		c-1-0.2-2-0.7-2.9-1.2c-2.4-1.4-4.3-3.3-6.1-5.3c-0.2-0.3-0.5-0.5-0.7-0.8c-0.1,0-0.1,0-0.1,0.1c-0.2,0.2-0.4,0.5-0.6,0.7
		c-1.5,1.7-3.1,3.2-4.9,4.5c-1.2,0.9-2.5,1.6-3.9,2c-1.7,0.4-3.1,0-4-1.3c-0.7-0.9-0.9-2-1-3.1c-0.1-2.4,0.4-4.7,1-7
		c0.3-1,0.6-2,0.9-3c-0.2,0-0.3-0.1-0.5-0.1c-2.5-0.5-5-1.1-7.3-2.2c-2-0.9-4-2-4.6-4.5C0,25.2,0,24.9,0,24.6z M13.1,19.8
		c-2.8,0.5-5.6,1.2-8.2,2.5c-0.9,0.4-1.7,1-2.3,1.7c-0.7,0.7-0.7,1.4,0,2.2c0.4,0.4,0.8,0.8,1.3,1.1c2.9,1.8,6.1,2.5,9.3,3.1
		c0.6-1.3,1.1-2.6,1.7-3.8c0.6-1.1,0.6-1.9,0-3C14.2,22.4,13.7,21.1,13.1,19.8z M36.9,19.8c-0.8,1.7-1.6,3.4-2.3,5
		c-0.1,0.2,0,0.4,0.1,0.6c0.6,1.4,1.2,2.7,1.9,4.1c0.1,0.3,0.2,0.5,0.3,0.8c2.8-0.5,5.5-1.2,8-2.4c1-0.5,1.9-1,2.6-1.8
		c0.6-0.7,0.6-1.4,0-2.1c-0.4-0.4-0.9-0.9-1.4-1.2C43.2,21.1,40.1,20.4,36.9,19.8z M23.7,12.2c-1.4-1.4-2.7-2.8-4.1-4.1
		C18.3,7,16.9,6,15.2,5.5c-1.4-0.5-2.3,0-2.5,1.5c-0.1,0.9-0.2,1.8-0.1,2.8c0.2,2.6,1,5.1,1.8,7.5c0.1,0.3,0.2,0.3,0.5,0.3
		c1.7-0.2,3.4-0.4,5.1-0.6c0.2,0,0.4-0.1,0.4-0.2C21.5,15.2,22.5,13.8,23.7,12.2z M26.4,37.8c1.6,1.9,3.3,3.7,5.4,5.2
		c1,0.7,2,1.2,3.1,1.7c1.3,0.5,2.2-0.1,2.4-1.4c0.1-0.9,0.2-1.8,0.2-2.7c-0.2-2.6-1-5.2-1.9-7.6c0-0.1-0.3-0.2-0.4-0.2
		c-1.7,0.2-3.5,0.3-5.2,0.5c-0.2,0-0.3,0.1-0.4,0.2C28.5,34.9,27.5,36.3,26.4,37.8z M26.4,12.3c1.1,1.5,2.1,2.9,3.2,4.4
		c0.1,0.1,0.2,0.2,0.4,0.2c1.8,0.2,3.5,0.4,5.3,0.5c0.1,0,0.3-0.1,0.4-0.2c0.9-2.5,1.7-5.1,1.9-7.8c0.1-1-0.1-1.9-0.3-2.9
		c-0.2-1-0.9-1.3-1.8-1.2c-1,0.1-1.8,0.6-2.7,1.2C30.2,8.1,28.3,10.1,26.4,12.3z M23.6,37.8c-1.1-1.5-2.1-3-3.2-4.4
		c-0.1-0.1-0.3-0.2-0.5-0.2c-1.7-0.2-3.4-0.4-5-0.5c-0.3,0-0.4,0-0.5,0.3c-0.1,0.4-0.3,0.7-0.4,1.1c-0.7,2.3-1.4,4.5-1.5,6.9
		c0,0.9,0.1,1.8,0.3,2.7c0.2,0.9,0.9,1.3,1.8,1.1c0.6-0.1,1.2-0.3,1.7-0.6C19.3,42.6,21.5,40.2,23.6,37.8z M25,31.2
		c1.1,0,2.1,0,3.2,0c0.2,0,0.4-0.1,0.5-0.3c1.1-1.8,2.2-3.7,3.2-5.5c0.1-0.2,0.1-0.4,0-0.6c-1.1-1.9-2.1-3.7-3.2-5.5
		c-0.1-0.2-0.3-0.3-0.5-0.3c-2.1,0-4.2,0-6.3,0c-0.2,0-0.4,0.1-0.5,0.3c-1.1,1.9-2.2,3.7-3.3,5.6c-0.1,0.1-0.1,0.4,0,0.6
		c1.1,1.9,2.2,3.7,3.3,5.6c0.1,0.1,0.3,0.3,0.5,0.3C22.9,31.2,23.9,31.2,25,31.2z M18.9,19c-1.3,0.1-2.4,0.3-3.6,0.4
		c0.5,1.2,1,2.2,1.5,3.3C17.5,21.5,18.2,20.3,18.9,19z M31.1,31c1.3-0.1,2.4-0.3,3.6-0.4c-0.5-1.2-1-2.2-1.5-3.3
		C32.5,28.6,31.8,29.8,31.1,31z M33.3,22.8c0.5-1.1,1-2.2,1.5-3.3c-1.3-0.1-2.4-0.2-3.6-0.4C31.9,20.3,32.5,21.5,33.3,22.8z
		 M16.7,27.3c-0.5,1.1-1,2.2-1.5,3.3c1.3,0.1,2.4,0.2,3.6,0.4C18.2,29.8,17.5,28.6,16.7,27.3z M25,14c-0.7,0.9-1.3,1.8-2,2.7
		c1.4,0,2.7,0,4.1,0C26.3,15.8,25.7,14.9,25,14z M25,36.1c0.7-0.9,1.4-1.8,2-2.7c-1.4,0-2.7,0-4.1,0C23.7,34.3,24.3,35.2,25,36.1z"></path>
      <path d="M29.2,25c0,2.2-1.9,4.1-4.1,4.2c-2.2,0-4.2-1.9-4.2-4.1c0-2.2,1.9-4.1,4.1-4.2C27.2,20.9,29.1,22.7,29.2,25z M25,27.1
		c1.2,0,2.1-0.9,2.1-2c0-1.2-0.9-2.1-2.1-2.1c-1.2,0-2.1,0.9-2.1,2C22.9,26.2,23.8,27.1,25,27.1z"></path>
    </g>
  </symbol>
  <symbol version="1.1" id="i-server" xmlns="http://www.w3.org/2000/svg" xmlns:xlink="http://www.w3.org/1999/xlink" x="0px" y="0px" xml:space="preserve" viewBox="0 0 46.9 46.9">
    <path d="M28.1,9.4V8.8c0-2.6,0-5.2,0-7.8c0-0.8,0.3-1,1-1c5.1,0,10.1,0,15.2,0c0.7,0,1,0.3,1,1c0,2.6,0,5.2,0,7.8v0.6
	c0.2,0,0.5,0,0.7,0c0.5,0,0.9,0.4,0.8,1c-0.2,1-0.4,2-0.7,3.1c-0.1,0.5-0.4,0.7-1,0.7c-2.6,0-5.2,0-7.8,0c-3,0-6,0-8.9,0
	c-0.8,0-0.9-0.1-1.1-0.9c-0.2-0.9-0.4-1.7-0.6-2.6c-0.2-0.9,0.1-1.2,1-1.2C27.9,9.4,28,9.4,28.1,9.4L28.1,9.4z M43.8,1.6h-14v7.8
	c1.7,0,3.4,0,5,0c0.6,0,1.1,0.1,1.2,0.8h1.5c0.2-0.7,0.4-0.8,1.1-0.8c0.9,0,1.8,0,2.7,0c0.8,0,1.7,0,2.5,0V1.6z M28.8,12.5h15.9
	c0.1-0.5,0.2-1,0.3-1.5h-5.9c-0.3,0.7-0.4,0.8-1.1,0.8c-0.8,0-1.7,0-2.5,0c-0.6,0-1-0.1-1.1-0.8h-5.9C28.5,11.5,28.6,12,28.8,12.5
	L28.8,12.5z"></path>
    <path d="M11.9,43.8c0.2,0.7,0.3,1.3,0.5,2c0.2,0.8-0.1,1.2-0.9,1.2c-1.9,0-3.8,0-5.7,0c-0.8,0-1.1-0.4-0.9-1.2
	c0.2-0.6,0.3-1.3,0.5-2c-1,0-2,0-3,0c-1.2,0-2.1-0.8-2.3-1.9c0-0.2,0-0.4,0-0.6c0-2.5,0-5,0-7.5c0-1.5,1-2.5,2.5-2.5
	c4,0,8.1,0,12.1,0c1.6,0,2.5,1,2.5,2.5c0,2.5,0,5,0,7.5c0,1.5-1,2.5-2.5,2.5C13.8,43.8,12.9,43.8,11.9,43.8L11.9,43.8z M15.6,39
	c0-1.9,0-3.7,0-5.5c0-0.5-0.4-0.7-0.9-0.7c-4.1,0-8.1,0-12.2,0c-0.7,0-0.9,0.3-0.9,1c0,1.2,0,2.3,0,3.5c0,0.6,0,1.2,0,1.8H15.6z
	 M1.6,40.6c0,0.2,0,0.3,0,0.4c0,0.9,0.2,1.2,1.1,1.2c1,0,1.9,0,2.9,0c3,0,6,0,9,0c0.6,0,0.9-0.2,1-0.7c0-0.3,0-0.6,0-0.9L1.6,40.6
	L1.6,40.6z M6.5,45.3h4.1c-0.1-0.5-0.2-0.9-0.3-1.3c0-0.1-0.2-0.2-0.3-0.2c-0.9,0-1.9,0-2.8,0c-0.1,0-0.3,0.1-0.3,0.2
	C6.7,44.4,6.7,44.9,6.5,45.3z"></path>
    <path d="M46.9,38.3c0,2,0,4,0,6c0,1.6-1,2.6-2.6,2.6c-2,0-3.9,0-5.9,0c-1.5,0-2.5-1-2.5-2.5c0-4.1,0-8.1,0-12.2c0-1.5,1-2.5,2.5-2.5
	c2,0,3.9,0,5.9,0c1.5,0,2.5,1,2.5,2.5C46.9,34.3,46.9,36.3,46.9,38.3z M38.2,31.2c-0.5,0.1-0.7,0.5-0.7,1c0,4,0,8.1,0,12.1
	c0,0.7,0.3,1,0.9,1c2,0,4,0,6,0c0.6,0,0.9-0.3,0.9-0.9c0-0.9,0-1.8,0-2.7c0-3.2,0-6.3,0-9.5c0-0.6-0.2-0.8-0.8-1c0,0.1,0,0.1,0,0.2
	c-0.2,1.3-1.1,2.1-2.5,2.1c-0.3,0-0.7,0-1,0C39.4,33.6,38.5,32.9,38.2,31.2z M39.9,31.3c0.1,0.5,0.3,0.7,0.8,0.8c0.5,0,1,0,1.6,0
	c0.5,0,0.7-0.3,0.7-0.8C42.9,31.3,39.9,31.3,39.9,31.3z"></path>
    <path d="M0,8.6c0-2,0-4,0-6.1C0,1,1,0,2.6,0c3,0,6,0,8.9,0c1.6,0,2.6,1,2.6,2.6c0,4,0,8,0,12c0,1.6-1,2.6-2.6,2.6
	c-2.9,0-5.9,0-8.8,0c-1.7,0-2.6-1-2.6-2.6C0,12.6,0,10.6,0,8.6z M12.5,8.6c0-2,0-4,0-6c0-0.8-0.3-1-1-1c-3,0-5.9,0-8.9,0
	c-0.8,0-1,0.3-1,1c0,4,0,8,0,12c0,0.8,0.3,1,1,1c3,0,5.9,0,8.9,0c0.8,0,1-0.3,1-1C12.5,12.6,12.5,10.6,12.5,8.6L12.5,8.6z"></path>
    <path d="M22.7,33.6h1.6V39h10.1v1.6c-0.1,0-0.3,0-0.5,0c-3.4,0-6.8,0-10.1,0c-0.8,0-1.1-0.2-1.1-1.1C22.7,37.6,22.7,35.6,22.7,33.6
	L22.7,33.6z"></path>
    <path d="M15.6,9.4V7.8c0.2,0,0.3,0,0.5,0c2.4,0,4.7,0,7.1,0c0.8,0,1.1,0.2,1.1,1c0,1.5,0,2.9,0,4.4h-1.5V9.4
	C22.7,9.4,15.6,9.4,15.6,9.4z"></path>
    <path d="M8.6,24.2v5.5H7.1c0-0.1,0-0.2,0-0.4c0-1.9,0-3.7,0-5.6c0-0.8,0.3-1,1-1c1.7,0,3.4,0,5.2,0v1.5L8.6,24.2L8.6,24.2z"></path>
    <path d="M33.6,23.4v-1.6h2.3v-6.2h1.5c0,0.1,0,0.3,0,0.4c0,2.1,0,4.2,0,6.3c0,0.8-0.3,1-1,1C35.6,23.4,34.6,23.4,33.6,23.4z"></path>
    <path d="M6.3,12.5h1.5V14H6.3V12.5z"></path>
    <path d="M32,23.4c0-1-0.5-2-1.2-2.6c1.4-1.1,1.6-3.3,0.5-4.7c-0.6-0.8-1.5-1.3-2.5-1.3H18.1c-1.8,0-3.2,1.5-3.2,3.3
	c0,1,0.4,2,1.2,2.6c-1.4,1.1-1.6,3.2-0.5,4.7c0.2,0.2,0.3,0.4,0.5,0.6c-1.4,1.1-1.6,3.3-0.5,4.7c0.6,0.8,1.5,1.3,2.5,1.3h10.7
	c1.8,0,3.2-1.5,3.2-3.3c0-1-0.4-2-1.2-2.6C31.6,25.4,32,24.5,32,23.4z M16.3,18.2c0-1,0.8-1.9,1.8-1.9h0.4v0.7
	c0,0.4,0.3,0.7,0.7,0.7c0.4,0,0.7-0.3,0.7-0.7v-0.7h1.4v0.7c0,0.4,0.3,0.7,0.7,0.7c0.4,0,0.7-0.3,0.7-0.7v-0.7h6.1
	c1,0,1.8,0.8,1.8,1.9s-0.8,1.9-1.8,1.9H18.1C17.1,20.1,16.3,19.2,16.3,18.2z M30.6,28.7c0,1-0.8,1.9-1.8,1.9H18.1
	c-1,0-1.8-0.8-1.8-1.9s0.8-1.9,1.8-1.9h0.4v0.7c0,0.4,0.3,0.7,0.7,0.7c0.4,0,0.7-0.3,0.7-0.7v-0.7h1.4v0.7c0,0.4,0.3,0.7,0.7,0.7
	c0.4,0,0.7-0.3,0.7-0.7v-0.7h6.1C29.8,26.8,30.6,27.6,30.6,28.7z M18.1,25.3c-1,0-1.8-0.8-1.8-1.9c0-1,0.8-1.9,1.8-1.9h0.4v0.7
	c0,0.4,0.3,0.7,0.7,0.7c0.4,0,0.7-0.3,0.7-0.7v-0.7h1.4v0.7c0,0.4,0.3,0.7,0.7,0.7c0.4,0,0.7-0.3,0.7-0.7v-0.7h6.1
	c1,0,1.8,0.8,1.8,1.9c0,1-0.8,1.9-1.8,1.9H18.1z"></path>
  </symbol>
  <symbol version="1.1" id="i-typescript" xmlns="http://www.w3.org/2000/svg" xmlns:xlink="http://www.w3.org/1999/xlink" x="0px" y="0px" xml:space="preserve" viewBox="0 0 50 50">
    <g>
      <path d="M30.7,40.1c0.4,1.9,0.9,3.8,1.3,5.7c1.1,0,2.2,0,3.3,0c0.2,0,0.5,0,0.7,0c0.5,0.1,0.7,0.4,0.7,0.9s-0.2,0.8-0.7,0.9
		c-0.2,0-0.4,0-0.6,0c-6.9,0-13.7,0-20.6,0c-0.1,0-0.1,0-0.2,0c-0.7,0-1.1-0.3-1.1-0.9c0-0.6,0.4-1,1.1-1c1,0,2,0,3,0
		c0.2,0,0.4,0,0.6,0c0.4-1.9,0.9-3.7,1.3-5.7c-0.3,0-0.5,0-0.6,0c-5.2,0-10.5,0-15.7,0c-1.9,0-3-1.1-3-3.2c0-10.5,0-21,0-31.4
		c0-2,1.1-3.1,3-3.1c14.6,0,29.3,0,43.9,0c1.9,0,3,1.1,3,3.2c0,10.5,0,20.9,0,31.4c0,2.1-1.1,3.2-3,3.2c-5.2,0-10.5,0-15.7,0
		C31.1,40.1,30.9,40.1,30.7,40.1z M1.9,33.5c15.5,0,30.9,0,46.3,0c0-0.3,0-0.5,0-0.7c0-9,0-18.1,0-27.1c0-1.2-0.2-1.4-1.3-1.4
		c-14.5,0-29.1,0-43.6,0C2.2,4.3,2,4.6,2,5.7c0,9,0,18.1,0,27.1C1.9,33,1.9,33.2,1.9,33.5z M1.9,35.4c0,0.5,0,0.9,0,1.4
		c0,1.2,0.2,1.4,1.4,1.4c14.5,0,29.1,0,43.6,0c0.2,0,0.4,0,0.6,0c0.5-0.1,0.8-0.3,0.8-0.8c0-0.6,0-1.3,0-2
		C32.8,35.4,17.4,35.4,1.9,35.4z M20,45.7c3.4,0,6.8,0,10.1,0c-0.4-1.9-0.9-3.8-1.3-5.6c-2.5,0-5,0-7.5,0c-0.4,1.8-0.8,3.5-1.2,5.2
		C20,45.4,20,45.6,20,45.7z"></path>
      <path d="M9.6,18.8c1,0.9,1.3,2.1,1.2,3.4c0,0.6,0,1.3,0,1.9c0,1,0.7,1.7,1.6,1.8c0.7,0.1,1.1,0.4,1,1s-0.5,0.9-1.2,0.8
		C10.4,27.5,9,26,9,24.2c0-0.9,0-1.7,0-2.6c0-1.1-0.6-1.8-1.7-1.9c-0.6-0.1-0.9-0.4-0.9-0.9s0.3-0.8,0.9-0.9
		c1.1-0.1,1.8-0.8,1.8-1.9c0-0.9,0-1.7,0-2.6c0-1.9,1.6-3.4,3.4-3.4c0.3,0,0.7,0.2,0.9,0.4c0.4,0.5,0,1.3-0.7,1.4
		c-1.3,0.2-1.8,0.8-1.8,2.1c0,0.6,0,1.2,0,1.8C10.9,16.8,10.6,17.9,9.6,18.8z"></path>
      <path d="M40.5,18.8c-1-0.9-1.3-2.1-1.2-3.5c0-0.6,0-1.2,0-1.8c0-1-0.7-1.7-1.7-1.8c-0.7-0.1-1-0.4-1-1s0.4-0.8,1.1-0.8
		c1.8,0.1,3.3,1.6,3.3,3.4c0,0.9,0,1.8,0,2.7c0,1.1,0.6,1.8,1.7,1.9c0.6,0.1,0.9,0.4,0.9,0.9s-0.3,0.8-0.9,0.9
		c-1.1,0.1-1.7,0.8-1.7,1.9c0,0.9,0,1.8,0,2.7c-0.1,1.8-1.6,3.4-3.4,3.4c-0.4,0-0.8-0.1-1-0.6c-0.2-0.6,0.1-1.1,0.8-1.2
		c1.3-0.2,1.8-0.8,1.8-2.1c0-0.6,0-1.3,0-1.9C39.3,20.5,39.5,19.9,40.5,18.8z"></path>
    </g>
    <path d="M26,21.9c0.7,0.6,1.5,0.9,2.4,1.1c0.7,0.1,1.3,0.2,1.9,0c0.2-0.1,0.3-0.1,0.5-0.2c0.7-0.4,0.8-1.2,0.3-1.7
	c-0.4-0.3-0.8-0.6-1.3-0.9c-0.7-0.4-1.5-0.7-2.2-1.1c-1.4-0.8-1.9-2.3-1.6-3.8c0.3-1.3,1.2-2,2.4-2.3c1.7-0.5,3.4-0.4,5.1,0.1
	c0.2,0.1,0.3,0.2,0.3,0.3c0,0.7,0,1.5,0,2.3c-0.6-0.4-1.2-0.6-1.8-0.7c-0.7-0.1-1.3-0.2-2,0c-0.1,0.1-0.2,0.1-0.3,0.1
	c-0.8,0.4-0.9,1.3-0.2,1.8c0.4,0.3,0.9,0.6,1.4,0.8c0.6,0.3,1.3,0.6,1.9,0.9c1.7,1,2.2,3,1.4,4.7c-0.5,0.9-1.3,1.4-2.2,1.7
	c-1.8,0.4-3.6,0.4-5.3-0.2C26,24.6,26,24.6,26,24.2C26,23.4,26,22.7,26,21.9z"></path>
    <path d="M18.7,15.2c-1.2,0-2.3,0-3.5,0c0-0.7,0-1.4,0-2.2c3.2,0,6.5,0,9.7,0c0,0.7,0,1.4,0,2.2c-1.1,0-2.3,0-3.5,0c0,3.3,0,6.6,0,10
	c-0.9,0-1.8,0-2.8,0C18.7,21.8,18.7,18.5,18.7,15.2z"></path>
  </symbol>
  <symbol xmlns="http://www.w3.org/2000/svg" viewBox="0 0 64 64" id="i-web">
    <g id="Computer-Engineer-Coding-Programing-Configulation">
      <path d="m13.293 14.293-3 3a1 1 0 0 0 0 1.414l3 3 1.414-1.414-2.293-2.293 2.293-2.293z"></path>
      <path d="m14.228 17h8.544v2h-8.544z" transform="matrix(.351 -.936 .936 .351 -4.85 29.002)"></path>
      <path d="m23.707 21.707 3-3a1 1 0 0 0 0-1.414l-3-3-1.414 1.414 2.293 2.293-2.293 2.293z"></path>
      <path d="m10 26h4v2h-4z"></path>
      <path d="m16 26h10v2h-10z"></path>
      <path d="m12 30h4v2h-4z"></path>
      <path d="m18 30h10v2h-10z"></path>
      <path d="m30 30h2v2h-2z"></path>
      <path d="m12 34h4v2h-4z"></path>
      <path d="m18 34h10v2h-10z"></path>
      <path d="m30 34h2v2h-2z"></path>
      <path d="m61.142 13.01-2.682-.383a10.86 10.86 0 0 0 -.679-1.639l1.625-2.166a1 1 0 0 0 -.093-1.307l-2.828-2.828a1 1 0 0 0 -1.306-.093l-2.167 1.624a10.9 10.9 0 0 0 -1.639-.678l-.383-2.682a1 1 0 0 0 -.99-.858h-4a1 1 0 0 0 -.99.858l-.383 2.682a10.855 10.855 0 0 0 -1.639.678l-2.167-1.624a1 1 0 0 0 -1.306.093l-2.828 2.828a1 1 0 0 0 -.093 1.307l1.625 2.166a10.86 10.86 0 0 0 -.679 1.639l-2.682.383a1 1 0 0 0 -.858.99v4a1 1 0 0 0 .858.99l2.682.383a10.86 10.86 0 0 0 .679 1.639l-1.625 2.166a1 1 0 0 0 .093 1.307l2.828 2.828a1 1 0 0 0 1.306.093l2.167-1.624a10.855 10.855 0 0 0 1.639.678l.383 2.682a1 1 0 0 0 .99.858h4a1 1 0 0 0 .99-.858l.383-2.682a10.9 10.9 0 0 0 1.639-.678l2.167 1.624a1 1 0 0 0 1.306-.093l2.828-2.828a1 1 0 0 0 .093-1.307l-1.625-2.166a10.86 10.86 0 0 0 .679-1.639l2.682-.383a1 1 0 0 0 .858-.99v-4a1 1 0 0 0 -.858-.99zm-1.142 4.123-2.463.352a1 1 0 0 0 -.827.742 8.923 8.923 0 0 1 -.977 2.357 1 1 0 0 0 .061 1.111l1.492 1.99-1.6 1.6-1.991-1.492a1 1 0 0 0 -1.11-.06 8.859 8.859 0 0 1 -2.356.975 1 1 0 0 0 -.744.828l-.352 2.464h-2.266l-.351-2.463a1 1 0 0 0 -.744-.828 8.859 8.859 0 0 1 -2.356-.975 1 1 0 0 0 -1.11.06l-1.991 1.492-1.6-1.6 1.492-1.99a1 1 0 0 0 .061-1.111 8.923 8.923 0 0 1 -.977-2.357 1 1 0 0 0 -.827-.742l-2.464-.353v-2.266l2.463-.352a1 1 0 0 0 .827-.742 8.923 8.923 0 0 1 .977-2.357 1 1 0 0 0 -.061-1.111l-1.492-1.99 1.6-1.6 1.991 1.492a1 1 0 0 0 1.11.06 8.859 8.859 0 0 1 2.356-.975 1 1 0 0 0 .744-.828l.352-2.464h2.266l.351 2.463a1 1 0 0 0 .744.828 8.859 8.859 0 0 1 2.356.975 1 1 0 0 0 1.11-.06l1.991-1.492 1.6 1.6-1.492 1.99a1 1 0 0 0 -.061 1.111 8.923 8.923 0 0 1 .977 2.357 1 1 0 0 0 .827.742l2.464.353z"></path>
      <path d="m48 10a6 6 0 1 0 6 6 6.006 6.006 0 0 0 -6-6zm0 10a4 4 0 1 1 4-4 4 4 0 0 1 -4 4z"></path>
      <path d="m52 40h-48v-25a3 3 0 0 1 3-3h28v-2h-28a5.006 5.006 0 0 0 -5 5v30a5.006 5.006 0 0 0 5 5h12.867l-.75 6h-2.117a2 2 0 0 0 -2 2v2a2 2 0 0 0 2 2h22a2 2 0 0 0 2-2v-2a2 2 0 0 0 -2-2h-2.117l-.75-6h12.867a5.006 5.006 0 0 0 5-5v-16h-2zm-13 20h-22v-2h22zm-4.133-4h-13.734l.75-6h12.234zm14.133-8h-42a3 3 0 0 1 -3-3v-3h48v3a3 3 0 0 1 -3 3z"></path>
      <path d="m46 44h2v2h-2z"></path>
    </g>
  </symbol>
  <symbol xmlns="http://www.w3.org/2000/svg" viewBox="0 0 50 2" id="line">
    <path fill="#63c3ef" d="M0 0h50v2H0z"></path>
  </symbol>
  <symbol version="1.1" id="quotes" xmlns="http://www.w3.org/2000/svg" xmlns:xlink="http://www.w3.org/1999/xlink" x="0px" y="0px" xml:space="preserve" viewBox="0 0 508.044 508.044">
    <g>
      <g>
        <path d="M0.108,352.536c0,66.794,54.144,120.938,120.937,120.938c66.794,0,120.938-54.144,120.938-120.938
			s-54.144-120.937-120.938-120.937c-13.727,0-26.867,2.393-39.168,6.61C109.093,82.118,230.814-18.543,117.979,64.303
			C-7.138,156.17-0.026,348.84,0.114,352.371C0.114,352.426,0.108,352.475,0.108,352.536z"></path>
        <path d="M266.169,352.536c0,66.794,54.144,120.938,120.938,120.938s120.938-54.144,120.938-120.938S453.9,231.599,387.106,231.599
			c-13.728,0-26.867,2.393-39.168,6.61C375.154,82.118,496.875-18.543,384.04,64.303C258.923,156.17,266.034,348.84,266.175,352.371
			C266.175,352.426,266.169,352.475,266.169,352.536z"></path>
      </g>
    </g>
    <g></g>
    <g></g>
    <g></g>
    <g></g>
    <g></g>
    <g></g>
    <g></g>
    <g></g>
    <g></g>
    <g></g>
    <g></g>
    <g></g>
    <g></g>
    <g></g>
    <g></g>
  </symbol>
  <symbol xmlns="http://www.w3.org/2000/svg" xmlns:xlink="http://www.w3.org/1999/xlink" version="1.1" id="toggler" x="0px" y="0px" xml:space="preserve" viewBox="0 0 490.667 490.667">
    <g>
      <path d="M469.333,224h-448C9.551,224,0,233.551,0,245.333c0,11.782,9.551,21.333,21.333,21.333h448   c11.782,0,21.333-9.551,21.333-21.333C490.667,233.551,481.115,224,469.333,224z"></path>
      <path d="M21.333,117.333h448c11.782,0,21.333-9.551,21.333-21.333s-9.551-21.333-21.333-21.333h-448C9.551,74.667,0,84.218,0,96   S9.551,117.333,21.333,117.333z"></path>
      <path d="M469.333,373.333h-448C9.551,373.333,0,382.885,0,394.667C0,406.449,9.551,416,21.333,416h448   c11.782,0,21.333-9.551,21.333-21.333C490.667,382.885,481.115,373.333,469.333,373.333z"></path>
    </g>
  </symbol>
</svg>