<svg xmlns="http://www.w3.org/2000/svg" viewBox="0 0 113.28 34.78"><defs><linearGradient id="a" x1="-.05" y1="6.3" x2="36.65" y2="6.3" gradientTransform="matrix(1 0 0 -1 0 23.69)" gradientUnits="userSpaceOnUse"><stop offset="0" stop-color="#fff33b"/><stop offset="0" stop-color="#fbd43b"/><stop offset="0" stop-color="#f6aa3b"/><stop offset="0" stop-color="#f2883b"/><stop offset="0" stop-color="#ee6d3b"/><stop offset="0" stop-color="#ec5a3b"/><stop offset="0" stop-color="#ea4f3b"/><stop offset="0" stop-color="#ea4b3b"/><stop offset=".52" stop-color="#ed6d3c"/><stop offset="1" stop-color="#fdc70c"/><stop offset="1" stop-color="#e93e3a"/></linearGradient></defs><path d="M6.48 22.28c-2.4.8-3 .7-3.7-1.7-2.7-1.7.9-3.5 2-4.8-1.8-4 14.2-13.3 17.9-15.2.5-.3 1-.4 1.4.2.1 1.8-2.8 2.4-3.7 3.7 1.8-.3 11.6-8 9.8-2.5 2.3.8-1.6 3.2-2.4 4 1.5-.3 3.9-2.8 5.2-1.2.4.6.1 1.3-.7 2-4.5 3.2-9 6.5-13.2 10.1 4.3-1.5 9.8-8.1 14.2-6.1 1.2 1.4-1.8 2.8-2.4 3.4 2.8 1.7-6.7 5-7.9 7.3 1.4-.4 15-7.6 9.2-.9 1.4-.6 4.8-2.6 4.6.3-2 2.1-4.9 3.3-7.2 5.2 0 .1.1.1.1.2 1.8-.4 7.4-4.1 6.4 0 2.3 2.1-2.6 2.8-5 4.1-1.2.6-3.2 1.4-4.3 1.9-.7 0-4.1 2.6-5.3 1.2-1.6-.7-3.5 1-5.2 1.2-2.3.6-2.9-1.5-1.4-2.8-1.5.6-4.8.7-3.3-1.8-1 .1-2-.2-2.5-1-1.8.9-2.2 1.4-5.4 2.8-.7.4-2.1 0-2.2-.9-4.9-2.2 3.8-6.1 5-8.7z" style="fill:url(#a)"/><g style="isolation:isolate"><path d="M47.88 10.98c.2 0 .3 0 .5.1s.3.2.4.3c.1.1.2.3.3.5s.1.4.1.6c0 .3-.1.5-.2.7-.1.2-.4.2-.6.2-.1 0-.2 0-.3-.1s-.2-.1-.3-.2c-.1-.1-.2-.1-.2-.2s-.1-.1-.2-.1c-.2 0-.5 0-.8.1s-.7.2-1.1.4c-.4.2-.8.4-1.1.7-.4.3-.7.6-1 .9-.3.3-.6.7-.9 1.1-.3.4-.6.8-.8 1.2-.1.2-.2.3-.2.5-.1.2-.1.4-.2.7-.1.2-.1.5-.1.7v.7c0 .2.1.4.2.6.1.2.3.3.4.4s.3.2.5.2.3.1.5.1c.3 0 .5 0 .8-.1l.9-.3c.3-.1.6-.3.8-.5.3-.2.5-.4.8-.6q.1-.1.2-.3c.1-.1.2-.2.3-.4.1-.1.2-.3.3-.4s.1-.2.1-.3v-.7c0-.3.3-.5.8-.5.1 0 .3 0 .4.1.1.1.3.2.4.3l.3.3c.1.1.1.2.1.3 0 0 0 .1-.1.2 0 .1-.1.2-.1.4-.1.1-.1.3-.2.5s-.1.3-.2.5c-.1.1-.1.3-.2.4 0 .1-.1.2-.1.2-.1.2-.1.4-.2.7-.1.3-.1.5-.2.8-.1.3-.1.5-.2.8 0 .2-.1.4-.1.6v.1s0 .1.1.1c0 0 0 .1.1.1v.1c0 .2 0 .3-.1.4 0 .1-.1.2-.2.3-.1.1-.2.2-.3.2-.1.1-.2.1-.4.1s-.3 0-.4-.1c-.1-.1-.2-.1-.3-.2s-.1-.2-.1-.4v-.5c0-.1 0-.3.1-.4 0-.2.1-.4.2-.6.1-.2.1-.4.2-.6.1-.2.1-.4.2-.5-.3.2-.6.5-.9.7-.3.2-.6.4-.9.5-.3.2-.6.3-1 .4-.3.1-.7.1-1.2.1-.4 0-.9-.1-1.3-.2s-.7-.3-1-.6-.5-.5-.7-.9-.3-.7-.3-1.1c0-.8.1-1.5.4-2.4.3-.8.7-1.6 1.3-2.5.2-.3.5-.7.8-1s.5-.6.8-.8c.2-.2.4-.3.6-.5.2-.2.4-.3.7-.5.2-.2.5-.3.7-.4.2-.1.5-.3.7-.4.3-.1.5-.2.7-.3s.5-.2.7-.2c.2-.1.5-.1.7-.1h.6zM62.18 16.78c0 .3-.1.6-.3 1s-.4.7-.7 1.1-.6.7-.9 1c-.3.3-.7.6-1 .9s-.7.5-1 .6-.6.2-.8.2c-.3 0-.5-.1-.7-.2s-.4-.3-.5-.6-.2-.5-.3-.8-.1-.6-.2-1l-.3.6c-.1.2-.2.4-.4.7-.1.2-.3.4-.4.6s-.3.4-.4.5c-.2.2-.3.4-.5.6s-.4.3-.6.5c-.2.1-.4.2-.7.3-.2.1-.5.1-.7.1s-.4-.1-.6-.2c-.2-.1-.3-.2-.4-.4-.1-.2-.2-.4-.2-.6s-.1-.5-.1-.7v-.6c0-.2.1-.4.1-.6s.1-.4.1-.7.1-.4.1-.6v-1.5c0-.1 0-.3.1-.5 0-.1 0-.2.1-.3 0-.1.1-.2.1-.3l.2-.2c.1-.1.2-.1.3-.1.3 0 .5.1.6.3.1.2.2.5.2.9v.4c0 .2 0 .3-.1.5 0 .2 0 .3-.1.5 0 .2-.1.3-.1.5-.1.4-.1.7-.2 1-.1.3-.1.6-.1.9 0 .2 0 .3.1.4s.1.2.2.2c.2 0 .4-.1.6-.2.2-.1.4-.3.6-.5.2-.2.4-.4.6-.7.2-.2.3-.5.5-.7.1-.2.2-.4.3-.7l.3-.9.3-.9c.1-.3.2-.6.3-.8.1-.3.2-.6.4-.7.2-.2.3-.3.4-.3.2 0 .3 0 .4.1.1.1.1.2.1.4v.4c0 .2 0 .4-.1.6s0 .4-.1.6v1.8c0 .1 0 .2.1.3s.1.3.2.4c.1.1.1.3.2.3q.1.1.2.1c.2 0 .5-.1.7-.2.3-.1.5-.3.8-.6l.8-.8c.3-.3.5-.6.8-.9.1-.1.2-.2.3-.4l.3-.3c.1-.1.2-.2.3-.2s.2-.1.2-.1q.1 0 .2.1.4.3.4.4zm-8-3.7c0 .4-.3.5-.8.5h-.3c-.1 0-.2-.1-.3-.1-.1-.1-.2-.1-.2-.2q-.2-.1-.2-.2v-.4c0-.1.1-.3.1-.4s.1-.2.2-.2c.1-.1.2-.1.3-.1.3 0 .6.1.8.3.3.2.4.5.4.8zm2.6-.6c0 .7-.3 1-.9 1-.1 0-.2 0-.3-.1-.1 0-.2-.1-.2-.2-.1-.1-.1-.2-.2-.3 0-.1-.1-.2-.1-.3v-.3c0-.1.1-.2.1-.2q.1-.1.3-.2c.1-.1.2-.1.4-.2h.2c.2 0 .3.1.4.2.2.1.3.3.3.6z"/><path d="M67.58 16.08v2.4c0 .3 0 .7-.1 1.1s-.1.7-.1 1.1-.1.7-.2 1.1-.1.7-.2 1-.1.5-.2.8-.2.5-.2.8c-.1.3-.2.5-.3.8-.1.2-.2.5-.3.7-.5.9-1.1 1.3-2 1.3-.5 0-1.1-.1-1.6-.4l-.6-.3c-.2-.1-.4-.3-.5-.4-.2-.2-.3-.3-.4-.5-.1-.2-.2-.3-.2-.5v-.3c0-.1 0-.2.1-.3s.1-.1.1-.2q.1-.1.2-.1t.2.1c.1 0 .1.1.2.1.2.2.3.4.5.5s.4.3.6.4.4.2.6.2.5.1.7.1c.1 0 .3-.1.4-.2l.4-.4.3-.6c.1-.2.2-.5.3-.7.1-.3.1-.5.2-.8s.1-.5.1-.7c0-.3.1-.5.1-.8s.1-.6.1-.9c-.1.1-.3.3-.5.4s-.4.3-.6.4-.4.3-.6.4l-.6.3c-.2.1-.4.2-.6.2-.2.1-.4.1-.5.1-.3 0-.5-.1-.7-.2s-.3-.3-.5-.5c-.1-.2-.2-.4-.3-.7-.1-.3-.1-.5-.1-.8v-.6c0-.2 0-.5.1-.7s.1-.5.1-.7.1-.4.1-.6c0 0 0-.1.1-.2 0-.1.1-.3.1-.4s.1-.3.1-.4.1-.2.1-.2c.1-.2.1-.4.2-.5.1-.1.1-.3.2-.4.1-.1.2-.2.3-.2s.3-.1.4-.1.2 0 .3.1c.1.1.2.2.2.3.1.1.1.2.1.3v.3s0 .1-.1.3c0 .1-.1.3-.2.4-.1.2-.1.3-.2.4s-.1.2-.1.3c-.1.4-.2.7-.3 1 .1.5.1.9.1 1.2v.4c0 .1.1.2.1.3s.1.2.1.2.1.1.2.1.3 0 .5-.1l.6-.3c.2-.1.4-.3.6-.4.2-.2.4-.3.6-.5s.3-.4.5-.6c.1-.2.2-.4.3-.7v-2.3c.1-.3.2-.5.3-.6.1-.1.3-.2.5-.2s.3 0 .4.1c.1 0 .2.1.2.2.1.1.1.2.1.4.2 0 .2.2.2.4zm0-4.7v.2c0 .1-.1.1-.1.2l-.3.3c-.1.1-.3.3-.6.4l-.2.2c-.1.1-.2.2-.3.2-.1.1-.3.2-.4.3s-.3.2-.4.3-.2.2-.3.2c-.1.1-.2.1-.2.1h-.1l-.1.1c-.1 0-.1.1-.2.1h-.1c-.2 0-.3-.1-.4-.2-.1-.1-.1-.3-.1-.4 0-.3.3-.7.9-1.2.2-.1.4-.3.5-.4s.3-.3.5-.4.3-.3.5-.4c.1-.1.3-.2.4-.3s.2-.1.2-.2.2-.1.3-.1c0 0 .1 0 .2.1.1 0 .1.1.2.2s.1.2.2.3c-.1.2-.1.3-.1.4zM84.18 17.68v.2c0 .1 0 .2-.1.2 0 .1-.1.2-.1.3s-.1.2-.1.3c-.1.1-.2.3-.3.5-.1.2-.3.4-.4.5-.1.2-.3.4-.5.6s-.3.4-.5.5c-.1.1-.3.3-.5.4-.2.2-.4.3-.6.4l-.6.3c-.2.1-.4.1-.6.1s-.3 0-.5-.1-.3-.2-.5-.5-.3-.5-.4-1-.2-.9-.3-1.6v-1.3l-.2.2c-.1.1-.2.3-.3.5s-.2.4-.4.7c-.1.3-.3.6-.4.8-.2.4-.3.7-.5 1s0 .8-.2 1c-.1.2-.3.4-.4.5s-.3.2-.4.2c-.2 0-.4 0-.5-.1s-.2-.2-.3-.4-.1-.4-.2-.7c0-.3-.1-.7-.1-1.1 0-.7 0-1.2-.1-1.6 0-.4-.1-.6-.1-.6-.1 0-.1.1-.3.2s-.3.4-.4.7c-.2.3-.4.6-.6 1l-.6 1.2c-.1.1-.1.3-.2.4-.1.2-.2.3-.2.5-.1.2-.2.3-.2.5-.1.1-.1.3-.2.4l-.3.3c-.1.1-.2.1-.4.1s-.3 0-.5-.1c-.1-.1-.2-.2-.3-.4-.1-.2-.1-.3-.2-.6 0-.2-.1-.4-.1-.7v-1.1c0-.2 0-.4.1-.6s.1-.4.1-.7c0-.2 0-.5.1-.7v-1.4c0-.2 0-.4.1-.5 0-.1.1-.2.1-.3s.1-.2.2-.3c.1-.1.2-.2.3-.2.1-.1.2-.1.4-.1.1 0 .2 0 .3.1l.2.2c0 .1.1.2.1.4v.9c0 .2-.1.5-.1.7s-.1.5-.1.8c-.1.3-.1.6-.2.8 0 .3-.1.5-.1.7s-.1.4-.1.5c0 0 0-.1.1-.2 0-.1.1-.2.2-.3.1-.1.1-.3.2-.4s.1-.3.2-.4.1-.2.2-.3c0-.1.1-.1.1-.2.1-.2.2-.3.3-.5l.3-.6.3-.6c.1-.2.2-.3.3-.5.2-.3.4-.5.6-.6s.5-.2.7-.2c.3 0 .5.1.7.3s.3.5.4.9c0 .1 0 .3.1.5v2.5l.2-.2c.1-.1.2-.3.3-.5l.3-.6.3-.6c.2-.3.3-.6.5-.9s.3-.5.5-.8.3-.4.5-.5.3-.2.4-.2h.3c.1 0 .2.1.3.1s.2.1.2.1l.2.2c.1.1.1.3.2.5 0 .2.1.4.1.6v1.5c0 .5.1 1 .2 1.3s.2.5.4.5c.1 0 .2 0 .3-.1.1-.1.3-.2.4-.3.1-.1.3-.2.4-.3l.4-.4.4-.4.4-.4c.1-.1.3-.3.4-.5s.3-.3.4-.5c.1-.1.2-.2.3-.2.2-.1.2 0 .2.3z"/><path d="M91.58 17.68c0 .1-.1.3-.2.5-.2.4-.5.8-.8 1.2-.3.4-.6.8-.9 1.1l-1 1c-.3.3-.7.6-1.1.8s-.7.4-1.1.5-.7.2-1 .2c-.8 0-1.4-.3-1.8-.8s-.6-1.3-.6-2.3c0-.4 0-.8.1-1.2 0-.4.1-.8.2-1.2.1-.4.3-.8.4-1.1.2-.4.4-.7.7-1.1.1-.1.2-.3.3-.4.1-.1.3-.2.4-.3s.3-.2.5-.2c.2-.1.3-.1.5-.1s.4.1.6.2c.2.1.3.2.4.4s.2.4.2.6c.1.2.1.5.1.7 0 .5-.1 1-.4 1.5s-.7 1-1.2 1.5l-.6.6c-.2.2-.5.4-.7.7 0 .1 0 .3.1.4s.1.2.2.3c.1.1.2.2.3.2s.3.1.5.1.4 0 .7-.1c.2-.1.5-.2.7-.3.2-.1.5-.2.7-.4.2-.1.4-.3.6-.5l.9-.9c.3-.3.6-.7.9-1l.4-.4c.2-.3.5-.4.6-.4s.1 0 .2.1c.2-.1.2 0 .2.1zm-5.2-1.5v-.3c0-.1-.1-.2-.1-.2-.2 0-.3.1-.5.2s-.3.4-.5.7-.3.6-.4 1-.2.8-.3 1.3l.6-.6.6-.6c.2-.2.3-.5.4-.7.1-.3.2-.5.2-.8z"/><path d="M101.98 17.48v.3c0 .1-.1.2-.1.4s-.1.2-.2.3c-.1.1-.1.2-.2.3-.1.2-.3.4-.5.7-.2.2-.4.5-.5.7-.2.2-.4.5-.6.7l-.6.6c-.2.1-.3.2-.4.4-.1.1-.3.2-.4.3s-.3.2-.5.2-.4.1-.6.1c-.3 0-.6-.1-.8-.2-.2-.2-.4-.4-.5-.6s-.2-.6-.3-.9-.1-.7-.2-1.1c-.2-.8-.2-1.2-.3-1.5s-.2-.4-.3-.4-.2 0-.3.1l-.3.3c-.1.2-.3.4-.5.7-.2.3-.4.7-.8 1.3-.1.2-.2.4-.4.6s-.3.4-.5.6-.3.4-.5.5c-.2.2-.3.3-.5.3-.6-.1-.8-.8-.8-1.9 0-.3 0-.7.1-1.3 0-.2.1-.5.1-.8s.1-.6.1-.8.1-.5.2-.8.2-.5.2-.7c.1-.1.1-.2.2-.3l.2-.2c.1 0 .1-.1.2-.1h.2q.1 0 .2.1c.1 0 .1.1.2.2 0 .1.1.2.1.3v.7c0 .1 0 .2-.1.3 0 .1-.1.2-.1.4 0 .1-.1.3-.1.5 0 .1-.1.3-.1.4s-.1.4-.1.5c0 .2-.1.4-.1.6s-.1.3-.1.5c.1-.1.2-.2.3-.4s.2-.3.3-.5.2-.4.4-.6c.1-.2.2-.4.4-.6.2-.2.3-.5.5-.7s.3-.4.5-.5c.2-.2.3-.3.5-.4s.4-.1.7-.1.5.1.7.2.3.3.4.6c.1.2.2.5.2.9.1.3.1.7.1 1.1 0 .2 0 .4.1.6 0 .2.1.4.1.6s.1.3.2.4c.3.1.4.1.6.1s.4-.1.7-.2.5-.3.8-.5.5-.5.8-.8.6-.6.8-1l.3-.3c.1-.1.2-.2.2-.3.1-.1.1-.2.2-.2s.1-.1.2-.1h.2l.1.1v.3z"/><path d="M103.18 15.88v.2c0 .1 0 .2-.1.2 0 .1-.1.2-.1.3s-.1.2-.1.2c-.1.3-.1.8-.1 1.5v2.1c0 .9 0 1.7-.1 2.4 0 .7-.1 1.4-.3 1.9l-.3.9c-.1.3-.3.5-.5.7s-.4.4-.6.5-.5.2-.8.2-.5-.1-.8-.2c-.2-.1-.5-.2-.7-.4-.2-.1-.4-.3-.5-.5s-.2-.3-.2-.4c0-.2 0-.3.1-.3q.1-.1.3-.1s.1 0 .2.1c.1 0 .2.1.4.1.1.1.3.1.5.1s.3.1.5.1.3-.1.4-.2.2-.2.3-.4c.1-.2.2-.4.2-.6.1-.2.1-.5.1-.8s.1-.6.1-.9v-4.1c0-1.2.1-2 .3-2.6.2-.6.5-.9 1-.9.2 0 .4.1.5.2.2.3.3.5.3.7zm1.1-4.2v.2c0 .1-.1.2-.1.3s-.1.2-.2.3-.1.2-.2.3-.1.2-.2.2l-.1.1h-.3c-.1 0-.2-.1-.2-.1l-.2-.2c-.1-.1-.1-.2-.2-.3s-.1-.2-.1-.3v-.2c0-.1 0-.2.1-.3s.1-.2.2-.3.2-.2.3-.2c.1-.1.2-.1.3-.1s.2 0 .4.1.2.1.3.2c.1.1.2.2.2.3 0-.3 0-.2 0 0zM113.28 17.68c0 .1-.1.3-.2.5-.2.4-.5.8-.8 1.2-.3.4-.6.8-.9 1.1l-1 1c-.3.3-.7.6-1.1.8s-.7.4-1.1.5-.7.2-1 .2c-.8 0-1.4-.3-1.8-.8s-.6-1.3-.6-2.3c0-.4 0-.8.1-1.2 0-.4.1-.8.2-1.2.1-.4.3-.8.4-1.1.2-.4.4-.7.7-1.1.1-.1.2-.3.3-.4.1-.1.3-.2.4-.3s.3-.2.5-.2c.2-.1.3-.1.5-.1s.4.1.6.2c.2.1.3.2.4.4s.2.4.2.6c.1.2.1.5.1.7 0 .5-.1 1-.4 1.5s-.7 1-1.2 1.5l-.6.6c-.2.2-.5.4-.7.7 0 .1 0 .3.1.4s.1.2.2.3c.1.1.2.2.3.2s.3.1.5.1.4 0 .7-.1c.2-.1.5-.2.7-.3.2-.1.5-.2.7-.4.2-.1.4-.3.6-.5l.9-.9c.3-.3.6-.7.9-1l.4-.4c.2-.3.5-.4.6-.4s.1 0 .2.1c.1-.1.2 0 .2.1zm-5.2-1.5v-.3c0-.1-.1-.2-.1-.2-.2 0-.3.1-.5.2s-.3.4-.5.7-.3.6-.4 1-.2.8-.3 1.3l.6-.6.6-.6c.2-.2.3-.5.4-.7.1-.3.2-.5.2-.8z"/></g></svg>