<svg width="0" height="0" class="hidden">
  <symbol xmlns="http://www.w3.org/2000/svg" id="arrow-right" viewBox="0 0 24 24">
    <path d="M23.124,9.879,18.538,5.293,17.124,6.707l4.262,4.263L0,11l0,2,21.446-.03-4.323,4.323,1.414,1.414,4.587-4.586A3.007,3.007,0,0,0,23.124,9.879Z"></path>
  </symbol>
  <symbol version="1.1" id="clock" xmlns="http://www.w3.org/2000/svg" xmlns:xlink="http://www.w3.org/1999/xlink" x="0px" y="0px" xml:space="preserve" viewBox="0 0 501.656 501.656">
    <g>
      <g>
        <path d="M342.512,328h-200c-2.122,0-4.156,0.844-5.656,2.344l-96,96l11.312,11.312L145.824,344h187.888
			c-1.664,9.496-6.888,24-23.2,24h-88v16h88c31.64,0,40-31.4,40-48C350.512,331.582,346.93,328,342.512,328z"></path>
      </g>
    </g>
    <g>
      <g>
        <path d="M444.168,274.344c-3.124-3.123-8.188-3.123-11.312,0l-72,72l11.312,11.312l65.712-65.712
			c10.828,14.37,8.629,34.68-5.024,46.4L339.2,432H174.512c-2.122,0-4.156,0.844-5.656,2.344l-56,56l11.312,11.312L177.824,448
			h164.688c2.122,0,4.156-0.844,5.656-2.344l96-96C473.96,319.864,457.192,287.368,444.168,274.344z"></path>
      </g>
    </g>
    <g>
      <g>
        <path d="M262.512,0c-83.947,0-152,68.053-152,152s68.053,152,152,152c83.909-0.093,151.907-68.091,152-152
			C414.512,68.053,346.459,0,262.512,0z M262.512,288c-75.111,0-136-60.889-136-136s60.89-136,136-136
			c75.076,0.084,135.916,60.924,136,136C398.512,227.111,337.623,288,262.512,288z"></path>
      </g>
    </g>
    <g>
      <g>
        <path d="M262.512,40c-61.856,0-112,50.144-112,112s50.145,112,112,112c61.828-0.066,111.934-50.172,112-112
			C374.512,90.144,324.368,40,262.512,40z M270.512,247.666V224h-16v23.666c-46.637-3.848-83.817-41.028-87.666-87.666h23.666v-16
			h-23.666c3.849-46.637,41.029-83.817,87.666-87.666V80h16V56.343c46.612,3.893,83.764,41.045,87.657,87.657h-23.657v16h23.666
			C354.33,206.637,317.15,243.817,270.512,247.666z"></path>
      </g>
    </g>
    <g>
      <g>
        <path d="M284.18,162.33c1.494-3.129,2.333-6.631,2.333-10.33c0-10.449-6.68-19.334-16-22.629V96h-16v33.371
			c-9.32,3.295-16,12.18-16,22.629c-0.001,13.255,10.745,24,23.999,24c3.711,0,7.225-0.843,10.362-2.347l23.977,23.977
			l11.314-11.314L284.18,162.33z M262.512,160c-4.418,0-8-3.582-8-8c0-4.418,3.582-8,8-8c4.418,0,8,3.582,8,8
			C270.512,156.418,266.93,160,262.512,160z"></path>
      </g>
    </g>
    <g></g>
    <g></g>
    <g></g>
    <g></g>
    <g></g>
    <g></g>
    <g></g>
    <g></g>
    <g></g>
    <g></g>
    <g></g>
    <g></g>
    <g></g>
    <g></g>
    <g></g>
  </symbol>
  <symbol xmlns="http://www.w3.org/2000/svg" viewBox="0 0 50 2" id="line">
    <path fill="#63c3ef" d="M0 0h50v2H0z"></path>
  </symbol>
  <symbol version="1.1" id="quotes" xmlns="http://www.w3.org/2000/svg" xmlns:xlink="http://www.w3.org/1999/xlink" x="0px" y="0px" xml:space="preserve" viewBox="0 0 508.044 508.044">
    <g>
      <g>
        <path d="M0.108,352.536c0,66.794,54.144,120.938,120.937,120.938c66.794,0,120.938-54.144,120.938-120.938
			s-54.144-120.937-120.938-120.937c-13.727,0-26.867,2.393-39.168,6.61C109.093,82.118,230.814-18.543,117.979,64.303
			C-7.138,156.17-0.026,348.84,0.114,352.371C0.114,352.426,0.108,352.475,0.108,352.536z"></path>
        <path d="M266.169,352.536c0,66.794,54.144,120.938,120.938,120.938s120.938-54.144,120.938-120.938S453.9,231.599,387.106,231.599
			c-13.728,0-26.867,2.393-39.168,6.61C375.154,82.118,496.875-18.543,384.04,64.303C258.923,156.17,266.034,348.84,266.175,352.371
			C266.175,352.426,266.169,352.475,266.169,352.536z"></path>
      </g>
    </g>
    <g></g>
    <g></g>
    <g></g>
    <g></g>
    <g></g>
    <g></g>
    <g></g>
    <g></g>
    <g></g>
    <g></g>
    <g></g>
    <g></g>
    <g></g>
    <g></g>
    <g></g>
  </symbol>
  <symbol xmlns="http://www.w3.org/2000/svg" xmlns:xlink="http://www.w3.org/1999/xlink" version="1.1" id="toggler" x="0px" y="0px" xml:space="preserve" viewBox="0 0 490.667 490.667">
    <g>
      <path d="M469.333,224h-448C9.551,224,0,233.551,0,245.333c0,11.782,9.551,21.333,21.333,21.333h448   c11.782,0,21.333-9.551,21.333-21.333C490.667,233.551,481.115,224,469.333,224z"></path>
      <path d="M21.333,117.333h448c11.782,0,21.333-9.551,21.333-21.333s-9.551-21.333-21.333-21.333h-448C9.551,74.667,0,84.218,0,96   S9.551,117.333,21.333,117.333z"></path>
      <path d="M469.333,373.333h-448C9.551,373.333,0,382.885,0,394.667C0,406.449,9.551,416,21.333,416h448   c11.782,0,21.333-9.551,21.333-21.333C490.667,382.885,481.115,373.333,469.333,373.333z"></path>
    </g>
  </symbol>
</svg>