<svg version="1.2" baseProfile="tiny" xmlns="http://www.w3.org/2000/svg" viewBox="0 0 40 40" overflow="visible" xml:space="preserve"><linearGradient id="a" gradientUnits="userSpaceOnUse" x1="2.075" y1="20.028" x2="37.964" y2="20.028"><stop offset="0" style="stop-color:#fff33b"/><stop offset="0" style="stop-color:#fbd43b"/><stop offset="0" style="stop-color:#f6aa3b"/><stop offset="0" style="stop-color:#f2883b"/><stop offset="0" style="stop-color:#ee6d3b"/><stop offset="0" style="stop-color:#ec5a3b"/><stop offset="0" style="stop-color:#ea4f3b"/><stop offset="0" style="stop-color:#ea4b3b"/><stop offset=".519" style="stop-color:#ed6d3c"/><stop offset="1" style="stop-color:#fdc70c"/><stop offset="1" style="stop-color:#e93e3a"/></linearGradient><path fill="url(#a)" d="M8.48 24.89c-2.36.75-2.89.65-3.64-1.64-2.64-1.68.91-3.45 1.96-4.66-1.81-3.95 13.85-13 17.47-14.85.49-.26 1.01-.4 1.35.19.18 1.67-2.68 2.24-3.62 3.52 1.79-.29 11.32-7.8 9.58-2.47 2.22.77-1.61 3.1-2.36 3.91 1.51-.3 3.8-2.76 5.07-1.13.39.6.12 1.31-.71 1.92-4.41 3.18-8.81 6.34-12.93 9.92 4.18-1.43 9.61-7.93 13.88-5.92 1.17 1.4-1.73 2.77-2.3 3.28 2.76 1.68-6.57 4.91-7.77 7.14 1.41-.37 14.66-7.45 8.98-.92 1.33-.58 4.72-2.56 4.5.3-1.91 2.04-4.81 3.27-7.02 5.05.04.06.07.13.11.19 1.76-.4 7.27-3.97 6.31-.01 2.21 2.05-2.58 2.76-4.85 4.03-1.16.61-3.08 1.38-4.24 1.84-.66 0-3.98 2.55-5.18 1.14-1.57-.69-3.44 1.01-5.12 1.18-2.27.54-2.85-1.47-1.41-2.74-1.47.62-4.72.64-3.22-1.75-.99.09-1.92-.16-2.4-.94-1.71.9-2.18 1.42-5.3 2.7-.71.39-2.02-.05-2.19-.9-4.6-2.06 3.88-5.82 5.05-8.38z"/></svg>