<svg xmlns="http://www.w3.org/2000/svg" viewBox="0 0 116.91 35.66"><defs><linearGradient id="a" x1="0" y1="19.91" x2="37.72" y2="19.91" gradientTransform="matrix(1 0 0 -1 0 37.74)" gradientUnits="userSpaceOnUse"><stop offset="0" stop-color="#fff33b"/><stop offset="0" stop-color="#fbd43b"/><stop offset="0" stop-color="#f6aa3b"/><stop offset="0" stop-color="#f2883b"/><stop offset="0" stop-color="#ee6d3b"/><stop offset="0" stop-color="#ec5a3b"/><stop offset="0" stop-color="#ea4f3b"/><stop offset="0" stop-color="#ea4b3b"/><stop offset=".52" stop-color="#ed6d3c"/><stop offset="1" stop-color="#fdc70c"/><stop offset="1" stop-color="#e93e3a"/></linearGradient></defs><path d="M6.74 22.94c-2.48.79-3.04.68-3.83-1.72-2.78-1.77.96-3.63 2.06-4.9C3.07 12.16 19.53 2.65 23.34.7c.52-.27 1.06-.42 1.42.2.19 1.76-2.82 2.36-3.81 3.7 1.88-.3 11.9-8.2 10.07-2.6 2.33.81-1.69 3.26-2.48 4.11 1.59-.32 4-2.9 5.33-1.19.41.63.13 1.38-.75 2.02-4.64 3.34-9.26 6.67-13.59 10.43 4.39-1.5 10.1-8.34 14.59-6.22 1.23 1.47-1.82 2.91-2.42 3.45 2.9 1.77-6.91 5.16-8.17 7.51 1.48-.39 15.41-7.83 9.44-.97 1.4-.61 4.96-2.69 4.73.32-2.01 2.14-5.06 3.44-7.38 5.31.04.06.07.14.12.2 1.85-.42 7.64-4.17 6.63-.01 2.32 2.16-2.71 2.9-5.1 4.24-1.22.64-3.24 1.45-4.46 1.93-.69 0-4.18 2.68-5.45 1.2-1.65-.73-3.62 1.06-5.38 1.24-2.39.57-3-1.55-1.48-2.88-1.55.65-4.96.67-3.39-1.84-1.04.09-2.02-.17-2.52-.99-1.8.95-2.29 1.49-5.57 2.84-.75.41-2.12-.05-2.3-.95-4.84-2.17 4.08-6.12 5.31-8.81z" style="fill:url(#a)"/><path d="M41.33 0h.46v35.66h-.46z"/><text transform="matrix(.84 0 0 1 44.59 23.64)" style="font-family:SegoeScript-Bold,'Segoe Script';font-size:16.23px"><tspan x="0" y="0">Güýmenje</tspan></text></svg>