<?xml version="1.0" encoding="UTF-8"?><svg id="a" xmlns="http://www.w3.org/2000/svg" viewBox="0 0 46.89 46.89"><path d="M28.14,9.38v-.58c0-2.59,0-5.17,0-7.76,0-.77,.26-1.03,1.01-1.03,5.06,0,10.12,0,15.19,0,.73,0,.99,.27,.99,1.01,0,2.59,0,5.17,0,7.76v.61c.24,0,.46-.01,.68,0,.54,.04,.87,.44,.76,.97-.21,1.02-.43,2.03-.66,3.05-.11,.49-.39,.67-.98,.67-2.59,0-5.18,0-7.76,0-2.98,0-5.96,0-8.94,0-.75,0-.94-.15-1.1-.88-.19-.86-.38-1.71-.56-2.57-.19-.9,.08-1.23,1.01-1.24,.1,0,.19,0,.37,0ZM43.75,1.6h-14.01v7.78c1.7,0,3.36,.02,5.02,0,.62,0,1.1,.09,1.22,.77h1.5c.25-.66,.4-.76,1.09-.76,.9,0,1.79,0,2.69,0,.82,0,1.65,0,2.49,0V1.6Zm-14.99,10.88h15.95c.11-.51,.21-1.01,.32-1.53h-5.9c-.28,.67-.42,.77-1.13,.77-.83,0-1.66-.02-2.49,0-.59,.02-1.03-.14-1.14-.76h-5.93c.11,.51,.21,.99,.32,1.51Z"/><path d="M11.89,43.76c.17,.7,.33,1.33,.48,1.96,.18,.77-.12,1.16-.91,1.16-1.9,0-3.81,0-5.71,0-.79,0-1.09-.39-.91-1.16,.15-.63,.31-1.26,.48-1.96-1.01,0-1.98,.01-2.95,0-1.16-.02-2.09-.8-2.31-1.93-.04-.19-.04-.39-.04-.58,0-2.49,0-4.98,0-7.47,0-1.55,.98-2.52,2.54-2.52,4.04,0,8.07,0,12.11,0,1.56,0,2.54,.97,2.54,2.52,0,2.49,0,4.98,0,7.47,0,1.53-.98,2.5-2.5,2.51-.91,0-1.82,0-2.8,0Zm3.74-4.71c0-1.86,.01-3.68,0-5.5,0-.48-.36-.73-.91-.73-4.07,0-8.13,0-12.2,0-.66,0-.94,.28-.94,.96,0,1.15,0,2.31,0,3.46,0,.6,0,1.19,0,1.81H15.63Zm-14.06,1.6c0,.16,0,.27,0,.39,0,.93,.22,1.16,1.13,1.16,.98,0,1.95,0,2.93,0,3.01,0,6.02,0,9.03,0,.58,0,.91-.22,.96-.68,.03-.28,0-.57,0-.86H1.56Zm4.98,4.67h4.11c-.12-.49-.2-.9-.32-1.3-.04-.11-.21-.25-.32-.25-.94-.02-1.88-.02-2.82,0-.11,0-.29,.14-.33,.24-.13,.41-.21,.84-.32,1.31Z"/><path d="M17.4,20.93c-.38-.49-.7-.9-1.03-1.32-.4-.53-.39-.86,.08-1.32,.62-.62,1.24-1.25,1.87-1.86,.43-.42,.77-.44,1.25-.09,.44,.33,.87,.66,1.37,1.05,.08-.62,.14-1.14,.22-1.67,.1-.67,.33-.87,.99-.87,.88,0,1.76,0,2.64,0,.58,0,.83,.22,.92,.79,.09,.56,.15,1.12,.24,1.76,.48-.37,.9-.7,1.32-1.02,.53-.4,.86-.39,1.33,.07,.61,.61,1.22,1.22,1.83,1.83,.48,.48,.49,.81,.07,1.36-.31,.41-.63,.82-1.01,1.3,.57,.07,1.06,.13,1.56,.2,.82,.12,1,.32,1,1.14,0,.83,0,1.66,0,2.49,0,.61-.21,.86-.81,.95-.54,.08-1.09,.15-1.74,.24,.36,.46,.68,.86,.99,1.27,.46,.6,.45,.9-.08,1.44-.6,.6-1.19,1.2-1.8,1.79-.45,.44-.79,.46-1.29,.09-.43-.32-.84-.66-1.35-1.05-.06,.5-.12,.92-.17,1.35-.12,1.05-.29,1.21-1.34,1.21-.78,0-1.56,0-2.34,0-.57,0-.83-.22-.92-.79-.08-.54-.15-1.09-.24-1.76-.45,.35-.84,.65-1.23,.95-.65,.51-.93,.49-1.51-.09-.6-.6-1.2-1.19-1.79-1.8-.4-.41-.42-.76-.08-1.21,.33-.44,.68-.87,1.08-1.39-.5-.06-.92-.12-1.35-.17-1.06-.12-1.21-.28-1.21-1.34,0-.78,0-1.56,0-2.34,0-.58,.22-.83,.79-.92,.56-.09,1.11-.15,1.76-.24Zm5.25-4.51c-.07,.56-.13,1.11-.21,1.65-.14,.95-1.33,1.43-2.09,.85-.43-.33-.87-.67-1.27-.99-.41,.39-.77,.74-1.16,1.12,.33,.42,.62,.85,.97,1.23,.36,.41,.37,.81,.17,1.3-.21,.52-.5,.85-1.09,.88-.51,.03-1.02,.12-1.53,.19v1.59c.55,.07,1.08,.13,1.61,.2,.98,.13,1.47,1.33,.87,2.11-.33,.43-.67,.86-.96,1.23,.4,.42,.74,.79,1.1,1.18,.41-.32,.84-.59,1.2-.94,.52-.51,1.01-.31,1.56-.08,.49,.2,.6,.59,.65,1.05,.05,.49,.13,.98,.19,1.46h1.59c.07-.57,.13-1.12,.21-1.67,.14-.91,1.33-1.39,2.07-.84,.44,.33,.87,.67,1.25,.97,.41-.39,.78-.74,1.18-1.11-.31-.41-.62-.83-.96-1.22-.34-.4-.36-.78-.16-1.25,.21-.51,.47-.87,1.07-.9,.52-.03,1.03-.12,1.54-.18v-1.6c-.59-.07-1.16-.13-1.72-.22-.85-.14-1.32-1.34-.8-2.02,.34-.45,.69-.89,.99-1.27-.39-.43-.73-.81-1.09-1.2-.42,.33-.84,.61-1.21,.95-.44,.41-.87,.35-1.39,.14-.52-.21-.77-.54-.81-1.09-.03-.5-.12-.99-.19-1.5h-1.59Z"/><path d="M46.89,38.29c0,2,0,4,0,6,0,1.63-.95,2.59-2.57,2.59-1.95,0-3.91,0-5.86,0-1.53,0-2.51-.98-2.52-2.49,0-4.07,0-8.13,0-12.2,0-1.52,.99-2.49,2.52-2.49,1.97,0,3.94,0,5.91,0,1.55,0,2.51,.98,2.52,2.54,0,2.02,0,4.03,0,6.05Zm-8.64-7.04c-.55,.11-.74,.45-.74,.95,0,4.05,0,8.1,0,12.15,0,.67,.28,.96,.94,.96,1.98,0,3.97,0,5.95,0,.63,0,.92-.29,.92-.93,0-.89,0-1.79,0-2.68,0-3.16,0-6.31,0-9.47,0-.62-.16-.83-.75-.96-.01,.08-.03,.15-.04,.23-.23,1.32-1.13,2.09-2.47,2.1-.34,0-.68,0-1.02,0-1.68,0-2.49-.67-2.79-2.35Zm1.61,.02c.07,.5,.33,.74,.78,.76,.52,.02,1.04,.02,1.56,0,.48-.02,.7-.27,.73-.76h-3.07Z"/><path d="M0,8.6c0-2.02,0-4.03,0-6.05C0,.96,.97,0,2.57,0c2.98,0,5.96,0,8.93,0,1.62,0,2.57,.96,2.57,2.59,0,4,0,8,0,12.01,0,1.65-.96,2.59-2.61,2.59-2.95,0-5.89,0-8.84,0C.94,17.19,0,16.24,0,14.55c0-1.98,0-3.97,0-5.95Zm12.5,0c0-2,0-4,0-6.01,0-.77-.26-1.02-1.03-1.03-2.96,0-5.93,0-8.89,0-.77,0-1.02,.26-1.03,1.02,0,4,0,8.01,0,12.01,0,.77,.26,1.03,1.02,1.03,2.96,0,5.93,0,8.89,0,.77,0,1.03-.26,1.03-1.03,0-2,0-4,0-6.01Z"/><path d="M22.67,33.62h1.56v5.43h10.13v1.56c-.14,0-.3,.02-.45,.02-3.38,0-6.77,0-10.15,0-.84,0-1.08-.24-1.08-1.07,0-1.97,0-3.93,0-5.95Z"/><path d="M15.65,9.39v-1.58c.16,0,.3,0,.45,0,2.36,0,4.71,0,7.07,0,.8,0,1.06,.25,1.06,1.04,0,1.46,0,2.92,0,4.4h-1.54v-3.86h-7.04Z"/><path d="M8.61,24.21v5.45h-1.54c0-.13-.02-.25-.02-.37,0-1.87,0-3.74,0-5.61,0-.76,.26-1.01,1.03-1.02,1.72,0,3.44,0,5.19,0v1.55h-4.65Z"/><path d="M33.63,23.44v-1.56h2.31v-6.22h1.55c0,.13,.03,.27,.03,.41,0,2.11,0,4.22,0,6.34,0,.77-.26,1.03-1.02,1.03-.94,0-1.88,0-2.87,0Z"/><path d="M19.54,23.44c0-2.16,1.76-3.91,3.92-3.91,2.14,0,3.89,1.75,3.9,3.88,0,2.18-1.76,3.94-3.94,3.93-2.13-.01-3.87-1.77-3.87-3.91Zm6.25-.01c-.01-1.3-1.08-2.35-2.38-2.33-1.27,.02-2.31,1.08-2.31,2.35,0,1.29,1.08,2.34,2.38,2.33,1.27-.01,2.32-1.08,2.31-2.35Z"/><path d="M6.29,12.52h1.49v1.52h-1.49v-1.52Z"/></svg>