<?xml version="1.0" encoding="utf-8"?>
<!-- Generator: Adobe Illustrator 26.4.1, SVG Export Plug-In . SVG Version: 6.00 Build 0)  -->
<svg version="1.1" id="Layer_1" xmlns="http://www.w3.org/2000/svg" xmlns:xlink="http://www.w3.org/1999/xlink" x="0px" y="0px"
	 viewBox="0 0 50 50" style="enable-background:new 0 0 50 50;" xml:space="preserve">
<style type="text/css">
	.st0{fill:#030303;}
	.st1{fill:#050505;}
	.st2{fill:#040404;}
</style>
<g>
	<path class="st0" d="M0,43.6C0,31.4,0,19.3,0,7.2c0,0,0.1-0.1,0.1-0.1c0.5-1.2,1.4-1.7,2.7-1.7c6.2,0,12.4,0,18.6,0
		c1.7,0,2.7,1,2.7,2.7c0,1.2,0,2.3,0,3.5c0,0.2,0,0.3,0,0.5c0.6,0,1.1,0,1.7,0c0-0.2,0-0.3,0-0.5c0-1.2,0-2.4,0-3.7
		c0-1.5,1.1-2.5,2.5-2.5c6.4,0,12.8,0,19.2,0c1.1,0,2,0.7,2.4,1.7c0,0.1,0.1,0.2,0.1,0.2c0,12.1,0,24.2,0,36.2
		c0,0.1-0.1,0.1-0.1,0.2c-0.5,1.1-1.3,1.7-2.5,1.7c-6.3,0-12.5,0-18.8,0c-1.6,0-2.7-1-2.7-2.7c0-1.2,0-2.4,0-3.6c0-0.2,0-0.3,0-0.4
		c-0.6,0-1.1,0-1.6,0c0,0,0,0.1,0,0.1c0,1.3,0,2.5,0,3.8c0,1.8-1,2.8-2.8,2.8c-6.1,0-12.3,0-18.4,0c-1.3,0-2.3-0.5-2.8-1.8
		C0.1,43.6,0,43.6,0,43.6z M19.2,7.1c0,0.5,0,1,0,1.5c0,1.6-1,2.7-2.7,2.7c-2.9,0-5.9,0-8.8,0C6.1,11.2,5,10.2,5,8.6
		c0-0.5,0-1,0-1.5c-0.8,0-1.5,0-2.2,0c-0.9,0-1.2,0.3-1.2,1.2c0,11.4,0,22.9,0,34.3c0,1,0.2,1.2,1.2,1.2c6.1,0,12.3,0,18.4,0
		c0.1,0,0.3,0,0.4,0c0.5-0.1,0.8-0.3,0.8-0.8c0-1.5,0-2.9,0-4.3c-6.7-1.9-10.7-6.1-10.7-13.1c0-7.1,4-11.4,10.7-13.3
		c0-1.4,0-2.9,0-4.3c0-0.5-0.3-0.8-0.8-0.8C20.8,7,20,7.1,19.2,7.1z M48.3,10.4c-7,0-13.9,0-20.8,0c0,0.6,0,1.2,0,1.8
		c6.2,1.7,9.9,5.5,10.7,11.9c0.3,7.7-3.6,12.3-10.7,14.4c0,0.6,0,1.2,0,1.8c6.9,0,13.9,0,20.8,0C48.3,30.4,48.3,20.4,48.3,10.4z
		 M25,13.7c-6.4,0-11.6,5.2-11.7,11.6c0,6.5,5.1,11.7,11.6,11.7c6.4,0.1,11.7-5.2,11.7-11.6C36.7,19,31.5,13.7,25,13.7z M48.3,8.7
		c0-0.2,0-0.4,0-0.6c0-0.7-0.3-1-1-1c-6.3,0-12.5,0-18.8,0c-0.7,0-1,0.3-1,1c0,0.2,0,0.4,0,0.6C34.5,8.7,41.4,8.7,48.3,8.7z
		 M6.7,7.1c0,0.1,0,0.1,0,0.1c0,0.4,0,0.8,0,1.3c0,0.8,0.3,1.1,1.1,1.1c1.7,0,3.4,0,5.2,0c1.2,0,2.4,0,3.6,0c0.5,0,0.9-0.2,0.9-0.7
		c0-0.6,0-1.2,0-1.8C13.9,7.1,10.3,7.1,6.7,7.1z M41.6,43.7c1.9,0,3.9,0,5.9,0c0.5,0,0.8-0.3,0.8-0.8c0-0.3,0-0.6,0-0.9
		c-2.3,0-4.5,0-6.7,0C41.6,42.6,41.6,43.2,41.6,43.7z M34.2,42.1c-2.2,0-4.5,0-6.7,0c0,0.2,0,0.3,0,0.4c0,1,0.2,1.2,1.2,1.2
		c0.9,0,1.8,0,2.7,0c0.9,0,1.9,0,2.8,0C34.2,43.2,34.2,42.6,34.2,42.1z M37.9,42.1c-0.4,0-0.8,0-1.2,0c-0.5,0-0.8,0.3-0.9,0.8
		c0,0.4,0.3,0.8,0.8,0.8c0.9,0,1.8,0,2.6,0c0.5,0,0.8-0.4,0.8-0.9c0-0.4-0.3-0.8-0.8-0.8C38.7,42.1,38.3,42.1,37.9,42.1z"/>
	<path class="st1" d="M12.1,40.4c1.5,0,3,0,4.5,0c0.4,0,0.7,0.2,0.9,0.6c0.1,0.4,0,0.7-0.3,0.9c-0.2,0.1-0.4,0.2-0.6,0.2
		c-3,0-6,0-9,0c-0.6,0-0.9-0.4-0.9-0.9c0-0.5,0.4-0.8,1-0.8C9.1,40.4,10.6,40.4,12.1,40.4z"/>
	<path class="st2" d="M26.7,22.2c-0.2,0.7-0.4,1.5-0.6,2.2c-0.4,1.4-0.7,2.9-1.1,4.3c-0.2,0.6-0.5,0.9-1,0.8
		c-0.5-0.1-0.7-0.6-0.6-1.1c0.5-2.1,1.1-4.3,1.6-6.4c0.1-0.5,0.5-0.8,0.9-0.7C26.4,21.3,26.7,21.6,26.7,22.2z"/>
	<path class="st2" d="M30.5,25.4c-0.6-0.6-1.2-1.2-1.8-1.8c-0.4-0.4-0.5-0.9-0.1-1.3c0.4-0.4,0.8-0.3,1.3,0.1
		c0.8,0.8,1.5,1.5,2.3,2.3c0.5,0.5,0.5,0.9,0,1.4c-0.8,0.8-1.5,1.5-2.3,2.3c-0.4,0.4-0.9,0.4-1.3,0.1c-0.3-0.4-0.3-0.8,0.1-1.2
		C29.3,26.6,29.9,26,30.5,25.4z"/>
	<path class="st2" d="M19.5,25.4c0.6,0.6,1.2,1.2,1.8,1.8c0.5,0.5,0.5,0.9,0.1,1.3c-0.4,0.4-0.8,0.3-1.3-0.1
		c-0.8-0.7-1.5-1.5-2.2-2.2c-0.5-0.5-0.5-0.9,0-1.4c0.8-0.8,1.5-1.5,2.3-2.3c0.4-0.4,0.9-0.4,1.3-0.1c0.3,0.4,0.3,0.8-0.1,1.2
		C20.7,24.2,20.1,24.8,19.5,25.4z"/>
</g>
</svg>
