<?xml version="1.0" encoding="utf-8"?>
<!-- Generator: Adobe Illustrator 26.4.1, SVG Export Plug-In . SVG Version: 6.00 Build 0)  -->
<svg version="1.1" id="Layer_1" xmlns="http://www.w3.org/2000/svg" xmlns:xlink="http://www.w3.org/1999/xlink" x="0px" y="0px"
	 viewBox="0 0 116.9 36.9" style="enable-background:new 0 0 116.9 36.9;" xml:space="preserve">
<style type="text/css">
	.st0{fill:url(#SVGID_1_);}
	.st1{enable-background:new    ;}
	.st2{fill:#FFFFFF;}
</style>
<linearGradient id="SVGID_1_" gradientUnits="userSpaceOnUse" x1="0.8685" y1="28.28" x2="38.5866" y2="28.28" gradientTransform="matrix(1 0 0 1 0 -9.85)">
	<stop  offset="0" style="stop-color:#FFF33B"/>
	<stop  offset="0" style="stop-color:#FBD43B"/>
	<stop  offset="0" style="stop-color:#F6AA3B"/>
	<stop  offset="0" style="stop-color:#F2883B"/>
	<stop  offset="0" style="stop-color:#EE6D3B"/>
	<stop  offset="0" style="stop-color:#EC5A3B"/>
	<stop  offset="0" style="stop-color:#EA4F3B"/>
	<stop  offset="0" style="stop-color:#EA4B3B"/>
	<stop  offset="0.52" style="stop-color:#ED6D3C"/>
	<stop  offset="1" style="stop-color:#FDC70C"/>
	<stop  offset="1" style="stop-color:#E93E3A"/>
</linearGradient>
<path class="st0" d="M7.6,23.5c-2.5,0.8-3,0.7-3.8-1.7c-2.8-1.8,1-3.6,2.1-4.9C3.9,12.8,20.4,3.2,24.2,1.3c0.5-0.3,1.1-0.4,1.4,0.2
	c0.2,1.8-2.8,2.4-3.8,3.7C23.7,4.9,33.7-3,31.9,2.6c2.3,0.8-1.7,3.3-2.5,4.1c1.6-0.3,4-2.9,5.3-1.2c0.4,0.6,0.1,1.4-0.8,2
	c-4.6,3.3-9.3,6.7-13.6,10.4c4.4-1.5,10.1-8.3,14.6-6.2c1.2,1.5-1.8,2.9-2.4,3.4c2.9,1.8-6.9,5.2-8.2,7.5c1.5-0.4,15.4-7.8,9.4-1
	c1.4-0.6,5-2.7,4.7,0.3c-2,2.1-5.1,3.4-7.4,5.3c0,0.1,0.1,0.1,0.1,0.2c1.9-0.4,7.6-4.2,6.6,0c2.3,2.2-2.7,2.9-5.1,4.2
	c-1.2,0.6-3.2,1.5-4.5,1.9c-0.7,0-4.2,2.7-5.5,1.2c-1.6-0.7-3.6,1.1-5.4,1.2c-2.4,0.6-3-1.5-1.5-2.9c-1.5,0.7-5,0.7-3.4-1.8
	c-1,0.1-2-0.2-2.5-1c-1.8,0.9-2.3,1.5-5.6,2.8c-0.7,0.4-2.1,0-2.3-1C-2.5,30.2,6.4,26.2,7.6,23.5L7.6,23.5z"/>
<g class="st1">
	<path class="st2" d="M50.8,12.7c0.2,0,0.3,0,0.5,0.1c0.2,0.1,0.3,0.2,0.4,0.3c0.1,0.1,0.2,0.3,0.3,0.5c0.1,0.2,0.1,0.4,0.1,0.6
		c0,0.3-0.1,0.5-0.2,0.7c-0.1,0.2-0.4,0.2-0.6,0.2c-0.1,0-0.2,0-0.3-0.1c-0.1-0.1-0.2-0.1-0.3-0.2c-0.1-0.1-0.2-0.1-0.2-0.2
		s-0.1-0.1-0.2-0.1c-0.2,0-0.5,0-0.8,0.1c-0.3,0.1-0.7,0.2-1.1,0.4c-0.4,0.2-0.8,0.4-1.1,0.7c-0.4,0.3-0.7,0.6-1,0.9
		c-0.3,0.3-0.6,0.7-0.9,1.1c-0.3,0.4-0.6,0.8-0.8,1.2c-0.1,0.2-0.2,0.3-0.2,0.5c-0.1,0.2-0.1,0.4-0.2,0.7c-0.1,0.2-0.1,0.5-0.1,0.7
		s0,0.5,0,0.7c0,0.2,0.1,0.4,0.2,0.6c0.1,0.2,0.3,0.3,0.4,0.4s0.3,0.2,0.5,0.2c0.2,0,0.3,0.1,0.5,0.1c0.3,0,0.5,0,0.8-0.1
		c0.3-0.1,0.6-0.2,0.9-0.3c0.3-0.1,0.6-0.3,0.8-0.5c0.3-0.2,0.5-0.4,0.8-0.6c0.1-0.1,0.1-0.1,0.2-0.3c0.1-0.1,0.2-0.2,0.3-0.4
		c0.1-0.1,0.2-0.3,0.3-0.4c0.1-0.1,0.1-0.2,0.1-0.3c0,0,0-0.1,0-0.2s0-0.1,0-0.2c0-0.1,0-0.1,0-0.2s0-0.1,0-0.1
		c0-0.3,0.3-0.5,0.8-0.5c0.1,0,0.3,0,0.4,0.1c0.1,0.1,0.3,0.2,0.4,0.3s0.2,0.2,0.3,0.3c0.1,0.1,0.1,0.2,0.1,0.3c0,0,0,0.1-0.1,0.2
		c0,0.1-0.1,0.2-0.1,0.4c-0.1,0.1-0.1,0.3-0.2,0.5c-0.1,0.2-0.1,0.3-0.2,0.5c-0.1,0.1-0.1,0.3-0.2,0.4c0,0.1-0.1,0.2-0.1,0.2
		c-0.1,0.2-0.1,0.4-0.2,0.7c-0.1,0.3-0.1,0.5-0.2,0.8c-0.1,0.3-0.1,0.5-0.2,0.8c0,0.2-0.1,0.4-0.1,0.6c0,0,0,0.1,0,0.1
		c0,0,0,0.1,0.1,0.1c0,0,0,0.1,0.1,0.1c0,0,0,0.1,0,0.1c0,0.2,0,0.3-0.1,0.4S50,26,49.9,26.1c-0.1,0.1-0.2,0.2-0.3,0.2
		c-0.1,0.1-0.2,0.1-0.4,0.1c-0.2,0-0.3,0-0.4-0.1s-0.2-0.1-0.3-0.2s-0.1-0.2-0.1-0.4s0-0.3,0-0.5c0-0.1,0-0.3,0.1-0.4
		c0-0.2,0.1-0.4,0.2-0.6c0.1-0.2,0.1-0.4,0.2-0.6c0.1-0.2,0.1-0.4,0.2-0.5c-0.3,0.2-0.6,0.5-0.9,0.7c-0.3,0.2-0.6,0.4-0.9,0.5
		c-0.3,0.2-0.6,0.3-1,0.4c-0.3,0.1-0.7,0.1-1.2,0.1c-0.4,0-0.9-0.1-1.3-0.2s-0.7-0.3-1-0.6s-0.5-0.5-0.7-0.9
		c-0.2-0.3-0.3-0.7-0.3-1.1c0-0.8,0.1-1.5,0.4-2.4s0.7-1.6,1.3-2.5c0.2-0.3,0.5-0.7,0.8-1s0.5-0.6,0.8-0.8c0.2-0.2,0.4-0.3,0.6-0.5
		c0.2-0.2,0.4-0.3,0.7-0.5c0.2-0.2,0.5-0.3,0.7-0.4c0.2-0.1,0.5-0.3,0.7-0.4c0.3-0.1,0.5-0.2,0.7-0.3s0.5-0.2,0.7-0.2
		c0.2-0.1,0.5-0.1,0.7-0.1C50.3,12.7,50.5,12.7,50.8,12.7z"/>
	<path class="st2" d="M65.1,18.5c0,0.3-0.1,0.6-0.3,1c-0.2,0.4-0.4,0.7-0.7,1.1c-0.3,0.4-0.6,0.7-0.9,1c-0.3,0.3-0.7,0.6-1,0.9
		s-0.7,0.5-1,0.6c-0.3,0.2-0.6,0.2-0.8,0.2c-0.3,0-0.5-0.1-0.7-0.2c-0.2-0.1-0.4-0.3-0.5-0.6c-0.1-0.2-0.2-0.5-0.3-0.8
		c-0.1-0.3-0.1-0.6-0.2-1c-0.1,0.2-0.2,0.4-0.3,0.6c-0.1,0.2-0.2,0.4-0.4,0.7s-0.3,0.4-0.4,0.6s-0.3,0.4-0.4,0.5
		c-0.2,0.2-0.3,0.4-0.5,0.6c-0.2,0.2-0.4,0.3-0.6,0.5c-0.2,0.1-0.4,0.2-0.7,0.3c-0.2,0.1-0.5,0.1-0.7,0.1c-0.2,0-0.4-0.1-0.6-0.2
		c-0.2-0.1-0.3-0.2-0.4-0.4c-0.1-0.2-0.2-0.4-0.2-0.6c-0.1-0.2-0.1-0.4-0.1-0.7c0-0.2,0-0.4,0-0.6c0-0.2,0.1-0.4,0.1-0.7
		c0-0.2,0.1-0.4,0.1-0.6s0.1-0.4,0.1-0.6c0-0.2,0-0.3,0-0.5c0-0.2,0-0.4,0-0.5s0-0.4,0-0.5s0-0.3,0.1-0.5c0-0.1,0-0.2,0.1-0.3
		c0-0.1,0.1-0.2,0.1-0.3c0.1-0.1,0.1-0.1,0.2-0.2s0.2-0.1,0.3-0.1c0.3,0,0.5,0.1,0.6,0.3c0.1,0.2,0.2,0.5,0.2,0.9c0,0.1,0,0.3,0,0.4
		c0,0.2,0,0.3-0.1,0.5c0,0.2,0,0.3-0.1,0.5c0,0.2-0.1,0.3-0.1,0.5c-0.1,0.4-0.1,0.7-0.2,1C55,21.9,55,22.2,55,22.4
		c0,0.2,0,0.3,0.1,0.4s0.1,0.2,0.2,0.2c0.2,0,0.4-0.1,0.6-0.2c0.2-0.1,0.4-0.3,0.6-0.5s0.4-0.4,0.6-0.7c0.2-0.2,0.3-0.5,0.5-0.7
		c0.1-0.2,0.2-0.4,0.3-0.7c0.1-0.3,0.2-0.6,0.3-0.9c0.1-0.3,0.2-0.6,0.3-0.9s0.2-0.6,0.3-0.8c0.1-0.3,0.2-0.6,0.4-0.7
		c0.2-0.2,0.3-0.3,0.4-0.3c0.2,0,0.3,0,0.4,0.1c0.1,0.1,0.1,0.2,0.1,0.4c0,0.1,0,0.2,0,0.4c0,0.2,0,0.4-0.1,0.6s0,0.4-0.1,0.6
		c0,0.2,0,0.3,0,0.4c0,0.1,0,0.2,0,0.3c0,0.1,0,0.2,0,0.4c0,0.1,0,0.3,0,0.4c0,0.1,0,0.2,0,0.3c0,0.1,0,0.2,0.1,0.3s0.1,0.3,0.2,0.4
		c0.1,0.1,0.1,0.3,0.2,0.3c0.1,0.1,0.1,0.1,0.2,0.1c0.2,0,0.5-0.1,0.7-0.2c0.3-0.1,0.5-0.3,0.8-0.6c0.3-0.2,0.5-0.5,0.8-0.8
		c0.3-0.3,0.5-0.6,0.8-0.9c0.1-0.1,0.2-0.2,0.3-0.4c0.1-0.1,0.2-0.2,0.3-0.3s0.2-0.2,0.3-0.2s0.2-0.1,0.2-0.1c0.1,0,0.1,0,0.2,0.1
		C65.1,18.4,65.1,18.5,65.1,18.5z M57.1,14.9c0,0.4-0.3,0.5-0.8,0.5c-0.1,0-0.2,0-0.3,0c-0.1,0-0.2-0.1-0.3-0.1
		c-0.1-0.1-0.2-0.1-0.2-0.2c-0.1-0.1-0.1-0.2-0.1-0.2c0-0.2,0-0.3,0-0.4c0-0.1,0.1-0.3,0.1-0.4s0.1-0.2,0.2-0.2
		c0.1-0.1,0.2-0.1,0.3-0.1c0.3,0,0.6,0.1,0.8,0.3C57,14.2,57.1,14.5,57.1,14.9z M59.7,14.2c0,0.7-0.3,1-0.9,1c-0.1,0-0.2,0-0.3-0.1
		c-0.1,0-0.2-0.1-0.2-0.2c-0.1-0.1-0.1-0.2-0.2-0.3c0-0.1-0.1-0.2-0.1-0.3c0-0.1,0-0.2,0-0.3c0-0.1,0.1-0.2,0.1-0.2
		c0.1-0.1,0.1-0.1,0.3-0.2c0.1-0.1,0.2-0.1,0.4-0.2c0,0,0.1,0,0.1,0c0,0,0.1,0,0.1,0c0.2,0,0.3,0.1,0.4,0.2
		C59.6,13.8,59.7,13.9,59.7,14.2z"/>
	<path class="st2" d="M70.5,17.8c0,0.1,0,0.3,0,0.5c0,0.2,0,0.4,0,0.7c0,0.2,0,0.5,0,0.7s0,0.4,0,0.5c0,0.3,0,0.7-0.1,1.1
		c0,0.4-0.1,0.7-0.1,1.1c0,0.4-0.1,0.7-0.2,1.1c-0.1,0.4-0.1,0.7-0.2,1c-0.1,0.3-0.1,0.5-0.2,0.8c-0.1,0.3-0.2,0.5-0.2,0.8
		c-0.1,0.3-0.2,0.5-0.3,0.8c-0.1,0.2-0.2,0.5-0.3,0.7c-0.5,0.9-1.1,1.3-2,1.3c-0.5,0-1.1-0.1-1.6-0.4c-0.2-0.1-0.4-0.2-0.6-0.3
		c-0.2-0.1-0.4-0.3-0.5-0.4c-0.2-0.2-0.3-0.3-0.4-0.5c-0.1-0.2-0.2-0.3-0.2-0.5c0-0.1,0-0.2,0-0.3s0-0.2,0.1-0.3
		c0-0.1,0.1-0.1,0.1-0.2c0.1-0.1,0.1-0.1,0.2-0.1c0.1,0,0.1,0,0.2,0.1c0.1,0,0.1,0.1,0.2,0.1c0.2,0.2,0.3,0.4,0.5,0.5
		s0.4,0.3,0.6,0.4s0.4,0.2,0.6,0.2c0.2,0,0.5,0.1,0.7,0.1c0.1,0,0.3-0.1,0.4-0.2c0.1-0.1,0.3-0.3,0.4-0.4c0.1-0.2,0.2-0.4,0.3-0.6
		c0.1-0.2,0.2-0.5,0.3-0.7c0.1-0.3,0.1-0.5,0.2-0.8c0.1-0.3,0.1-0.5,0.1-0.7c0-0.3,0.1-0.5,0.1-0.8s0.1-0.6,0.1-0.9
		c-0.1,0.1-0.3,0.3-0.5,0.4c-0.2,0.2-0.4,0.3-0.6,0.4c-0.2,0.1-0.4,0.3-0.6,0.4c-0.2,0.1-0.4,0.2-0.6,0.3c-0.2,0.1-0.4,0.2-0.6,0.2
		c-0.2,0.1-0.4,0.1-0.5,0.1c-0.3,0-0.5-0.1-0.7-0.2c-0.2-0.1-0.3-0.3-0.5-0.5c-0.1-0.2-0.2-0.4-0.3-0.7s-0.1-0.5-0.1-0.8
		c0-0.2,0-0.4,0-0.6c0-0.2,0-0.5,0.1-0.7c0-0.2,0.1-0.5,0.1-0.7c0-0.2,0.1-0.4,0.1-0.6c0,0,0-0.1,0.1-0.2c0-0.1,0.1-0.3,0.1-0.4
		c0-0.1,0.1-0.3,0.1-0.4s0.1-0.2,0.1-0.2c0.1-0.2,0.1-0.4,0.2-0.5c0.1-0.1,0.1-0.3,0.2-0.4c0.1-0.1,0.2-0.2,0.3-0.2
		c0.1,0,0.3-0.1,0.4-0.1c0.1,0,0.2,0,0.3,0.1c0.1,0.1,0.2,0.2,0.2,0.3c0.1,0.1,0.1,0.2,0.1,0.3c0,0.1,0,0.2,0,0.3c0,0,0,0.1-0.1,0.3
		c0,0.1-0.1,0.3-0.2,0.4c-0.1,0.2-0.1,0.3-0.2,0.4c-0.1,0.1-0.1,0.2-0.1,0.3c-0.1,0.4-0.2,0.7-0.3,1c-0.1,0.3-0.1,0.6-0.1,0.9
		c0,0.2,0,0.3,0,0.4c0,0.1,0.1,0.2,0.1,0.3s0.1,0.2,0.1,0.2s0.1,0.1,0.2,0.1c0.1,0,0.3,0,0.5-0.1s0.4-0.2,0.6-0.3
		c0.2-0.1,0.4-0.3,0.6-0.4c0.2-0.2,0.4-0.3,0.6-0.5c0.2-0.2,0.3-0.4,0.5-0.6c0.1-0.2,0.2-0.4,0.3-0.7c0-0.1,0-0.1,0-0.2
		c0-0.1,0-0.2,0-0.4c0-0.1,0-0.3,0-0.5c0-0.2,0-0.3,0-0.5c0-0.2,0-0.3,0-0.4c0-0.1,0-0.2,0-0.3c0.1-0.3,0.2-0.5,0.3-0.6
		c0.1-0.1,0.3-0.2,0.5-0.2c0.2,0,0.3,0,0.4,0.1c0.1,0,0.2,0.1,0.2,0.2c0.1,0.1,0.1,0.2,0.1,0.4C70.5,17.5,70.5,17.6,70.5,17.8z
		 M70.5,13.1c0,0.1,0,0.1,0,0.2c0,0.1-0.1,0.1-0.1,0.2c-0.1,0.1-0.2,0.2-0.3,0.3c-0.1,0.1-0.3,0.3-0.6,0.4c0,0-0.1,0.1-0.2,0.2
		c-0.1,0.1-0.2,0.2-0.3,0.2c-0.1,0.1-0.3,0.2-0.4,0.3c-0.1,0.1-0.3,0.2-0.4,0.3s-0.2,0.2-0.3,0.2c-0.1,0.1-0.2,0.1-0.2,0.1
		c0,0,0,0-0.1,0c0,0-0.1,0.1-0.1,0.1c-0.1,0-0.1,0.1-0.2,0.1c-0.1,0-0.1,0-0.1,0c-0.2,0-0.3-0.1-0.4-0.2c-0.1-0.1-0.1-0.3-0.1-0.4
		c0-0.3,0.3-0.7,0.9-1.2c0.2-0.1,0.4-0.3,0.5-0.4s0.3-0.3,0.5-0.4s0.3-0.3,0.5-0.4c0.1-0.1,0.3-0.2,0.4-0.3c0.1-0.1,0.2-0.1,0.2-0.2
		s0.2-0.1,0.3-0.1c0,0,0.1,0,0.2,0.1c0.1,0,0.1,0.1,0.2,0.2c0.1,0.1,0.1,0.2,0.2,0.3C70.5,12.9,70.5,13,70.5,13.1z"/>
	<path class="st2" d="M87.1,19.4c0,0,0,0.1,0,0.2c0,0.1,0,0.2-0.1,0.2S87,20,86.9,20.1s-0.1,0.2-0.1,0.3c-0.1,0.1-0.2,0.3-0.3,0.5
		c-0.1,0.2-0.3,0.4-0.4,0.5c-0.1,0.2-0.3,0.4-0.5,0.6c-0.2,0.2-0.3,0.4-0.5,0.5c-0.1,0.1-0.3,0.3-0.5,0.4c-0.2,0.2-0.4,0.3-0.6,0.4
		c-0.2,0.1-0.4,0.2-0.6,0.3c-0.2,0.1-0.4,0.1-0.6,0.1c-0.2,0-0.3,0-0.5-0.1s-0.3-0.2-0.5-0.5c-0.1-0.2-0.3-0.5-0.4-1
		s-0.2-0.9-0.3-1.6c0-0.1,0-0.2,0-0.3s0-0.3,0-0.4c0-0.1,0-0.3,0-0.4c0-0.1,0-0.2,0-0.2c0,0-0.1,0.1-0.2,0.2s-0.2,0.3-0.3,0.5
		s-0.2,0.4-0.4,0.7c-0.1,0.3-0.3,0.6-0.4,0.8c-0.2,0.4-0.3,0.7-0.5,1c-0.2,0.3-0.3,0.5-0.4,0.7c-0.1,0.2-0.3,0.3-0.4,0.5
		S78.4,24,78.3,24c-0.2,0-0.4,0-0.5-0.1c-0.1-0.1-0.2-0.2-0.3-0.4s-0.1-0.4-0.2-0.7c0-0.3-0.1-0.7-0.1-1.1c0-0.7,0-1.2-0.1-1.6
		s-0.1-0.6-0.1-0.6c-0.1,0-0.1,0.1-0.3,0.2s-0.3,0.4-0.4,0.7c-0.2,0.3-0.4,0.6-0.6,1c-0.2,0.4-0.4,0.8-0.6,1.2
		c-0.1,0.1-0.1,0.2-0.2,0.4s-0.2,0.3-0.2,0.5c-0.1,0.2-0.2,0.3-0.2,0.5c-0.1,0.1-0.1,0.3-0.2,0.4c-0.1,0.1-0.2,0.2-0.3,0.3
		s-0.2,0.1-0.4,0.1c-0.2,0-0.3,0-0.5-0.1c-0.1-0.1-0.2-0.2-0.3-0.4c-0.1-0.2-0.1-0.3-0.2-0.6c0-0.2-0.1-0.4-0.1-0.7
		c0-0.2,0-0.4,0-0.6c0-0.2,0-0.3,0-0.5c0-0.2,0-0.4,0.1-0.6s0.1-0.4,0.1-0.7c0-0.2,0-0.5,0.1-0.7c0-0.2,0-0.5,0-0.7
		c0-0.2,0-0.5,0-0.7s0-0.4,0.1-0.5c0-0.1,0.1-0.2,0.1-0.3c0-0.1,0.1-0.2,0.2-0.3c0.1-0.1,0.2-0.2,0.3-0.2c0.1-0.1,0.2-0.1,0.4-0.1
		c0.1,0,0.2,0,0.3,0.1c0.1,0.1,0.1,0.1,0.2,0.2c0,0.1,0.1,0.2,0.1,0.4s0,0.3,0,0.4c0,0.1,0,0.3,0,0.5c0,0.2-0.1,0.5-0.1,0.7
		s-0.1,0.5-0.1,0.8c-0.1,0.3-0.1,0.6-0.2,0.8c0,0.3-0.1,0.5-0.1,0.7c0,0.2-0.1,0.4-0.1,0.5c0,0,0-0.1,0.1-0.2c0-0.1,0.1-0.2,0.2-0.3
		c0.1-0.1,0.1-0.2,0.2-0.4s0.1-0.3,0.2-0.4c0.1-0.1,0.1-0.2,0.2-0.3c0-0.1,0.1-0.1,0.1-0.2c0.1-0.2,0.2-0.3,0.3-0.5
		c0.1-0.2,0.2-0.4,0.3-0.6s0.2-0.4,0.3-0.6s0.2-0.3,0.3-0.5c0.2-0.3,0.4-0.5,0.6-0.6c0.2-0.1,0.5-0.2,0.7-0.2c0.3,0,0.5,0.1,0.7,0.3
		s0.3,0.5,0.4,0.9c0,0.1,0,0.3,0.1,0.5c0,0.2,0,0.4,0,0.6c0,0.2,0,0.4,0,0.7c0,0.2,0,0.4,0,0.6c0,0.2,0,0.3,0,0.4c0,0.1,0,0.2,0,0.2
		c0,0,0.1-0.1,0.2-0.2c0.1-0.1,0.2-0.3,0.3-0.5c0.1-0.2,0.2-0.4,0.3-0.7c0.1-0.2,0.2-0.4,0.3-0.6c0.2-0.3,0.3-0.6,0.5-0.9
		c0.2-0.3,0.3-0.5,0.5-0.8s0.3-0.4,0.5-0.5s0.3-0.2,0.4-0.2c0.1,0,0.2,0,0.3,0s0.2,0.1,0.3,0.1s0.2,0.1,0.2,0.1
		c0.1,0.1,0.1,0.1,0.2,0.2c0.1,0.1,0.1,0.3,0.2,0.5c0,0.2,0.1,0.4,0.1,0.6c0,0.2,0,0.4,0,0.7c0,0.2,0,0.5,0,0.8c0,0.5,0.1,1,0.2,1.3
		c0.1,0.3,0.2,0.5,0.4,0.5c0.1,0,0.2,0,0.3-0.1c0.1-0.1,0.3-0.2,0.4-0.3c0.1-0.1,0.3-0.2,0.4-0.3c0.2-0.1,0.3-0.3,0.4-0.4
		c0.1-0.1,0.3-0.3,0.4-0.4c0.1-0.1,0.3-0.3,0.4-0.4c0.1-0.2,0.3-0.3,0.4-0.5c0.1-0.2,0.3-0.3,0.4-0.5c0.1-0.1,0.2-0.2,0.3-0.2
		C87.1,19,87.1,19.1,87.1,19.4z"/>
	<path class="st2" d="M94.5,19.4c0,0.1-0.1,0.3-0.2,0.5c-0.2,0.4-0.5,0.8-0.8,1.2c-0.3,0.4-0.6,0.8-0.9,1.1c-0.3,0.3-0.7,0.7-1,1
		c-0.3,0.3-0.7,0.6-1.1,0.8c-0.4,0.2-0.7,0.4-1.1,0.5c-0.4,0.1-0.7,0.2-1,0.2c-0.8,0-1.4-0.3-1.8-0.8s-0.6-1.3-0.6-2.3
		c0-0.4,0-0.8,0.1-1.2s0.1-0.8,0.2-1.2s0.3-0.8,0.4-1.1c0.2-0.4,0.4-0.7,0.7-1.1c0.1-0.1,0.2-0.3,0.3-0.4c0.1-0.1,0.3-0.2,0.4-0.3
		s0.3-0.2,0.5-0.2c0.2-0.1,0.3-0.1,0.5-0.1c0.2,0,0.4,0.1,0.6,0.2c0.2,0.1,0.3,0.2,0.4,0.4c0.1,0.2,0.2,0.4,0.2,0.6
		c0.1,0.2,0.1,0.5,0.1,0.7c0,0.5-0.1,1-0.4,1.5c-0.3,0.5-0.7,1-1.2,1.5c-0.2,0.2-0.4,0.4-0.6,0.6s-0.5,0.4-0.7,0.7
		c0,0.1,0,0.3,0.1,0.4c0.1,0.1,0.1,0.2,0.2,0.3c0.1,0.1,0.2,0.2,0.3,0.2c0.1,0.1,0.3,0.1,0.5,0.1c0.2,0,0.4,0,0.7-0.1
		s0.5-0.2,0.7-0.3c0.2-0.1,0.5-0.2,0.7-0.4c0.2-0.1,0.4-0.3,0.6-0.5c0.3-0.3,0.6-0.6,0.9-0.9c0.3-0.3,0.6-0.7,0.9-1l0.4-0.4
		c0.2-0.3,0.5-0.4,0.6-0.4c0.1,0,0.1,0,0.2,0.1C94.5,19.3,94.5,19.3,94.5,19.4z M89.3,17.9c0-0.1,0-0.2,0-0.3c0-0.1-0.1-0.2-0.1-0.2
		c-0.2,0-0.3,0.1-0.5,0.2s-0.3,0.4-0.5,0.7s-0.3,0.6-0.4,1c-0.1,0.4-0.2,0.8-0.3,1.3c0.2-0.2,0.4-0.4,0.6-0.6
		c0.2-0.2,0.4-0.4,0.6-0.6c0.2-0.2,0.3-0.5,0.4-0.7C89.2,18.5,89.3,18.2,89.3,17.9z"/>
	<path class="st2" d="M104.9,19.2c0,0.1,0,0.2,0,0.3c0,0.1-0.1,0.2-0.1,0.4s-0.1,0.2-0.2,0.3s-0.1,0.2-0.2,0.3
		c-0.1,0.2-0.3,0.4-0.5,0.7c-0.2,0.2-0.4,0.5-0.5,0.7c-0.2,0.2-0.4,0.5-0.6,0.7c-0.2,0.2-0.4,0.4-0.6,0.6c-0.2,0.1-0.3,0.2-0.4,0.4
		c-0.1,0.1-0.3,0.2-0.4,0.3s-0.3,0.2-0.5,0.2c-0.2,0-0.4,0.1-0.6,0.1c-0.3,0-0.6-0.1-0.8-0.2s-0.4-0.4-0.5-0.6s-0.2-0.6-0.3-0.9
		s-0.1-0.7-0.2-1.1c-0.1-0.5-0.1-0.9-0.2-1.2c-0.1-0.3-0.2-0.4-0.3-0.4c-0.1,0-0.2,0-0.3,0.1s-0.2,0.2-0.3,0.3
		c-0.1,0.2-0.3,0.4-0.5,0.7c-0.2,0.3-0.4,0.7-0.8,1.3c-0.1,0.2-0.2,0.4-0.4,0.6c-0.2,0.2-0.3,0.4-0.5,0.6c-0.2,0.2-0.3,0.4-0.5,0.5
		c-0.2,0.2-0.3,0.3-0.5,0.3c-0.6-0.1-0.8-0.8-0.8-1.9c0-0.3,0-0.7,0.1-1.3c0-0.2,0.1-0.5,0.1-0.8c0-0.3,0.1-0.6,0.1-0.8
		s0.1-0.5,0.2-0.8c0.1-0.3,0.2-0.5,0.2-0.7c0.1-0.1,0.1-0.2,0.2-0.3c0.1-0.1,0.1-0.1,0.2-0.2c0.1,0,0.1-0.1,0.2-0.1
		c0.1,0,0.2,0,0.2,0c0.1,0,0.1,0,0.2,0.1c0.1,0,0.1,0.1,0.2,0.2c0,0.1,0.1,0.2,0.1,0.3c0,0.1,0,0.2,0,0.4c0,0.1,0,0.2,0,0.3
		c0,0.1,0,0.2-0.1,0.3c0,0.1-0.1,0.2-0.1,0.4c0,0.1-0.1,0.3-0.1,0.5c0,0.1-0.1,0.3-0.1,0.4c0,0.2-0.1,0.4-0.1,0.5
		c0,0.2-0.1,0.4-0.1,0.6s-0.1,0.3-0.1,0.5c0.1-0.1,0.2-0.2,0.3-0.4c0.1-0.2,0.2-0.3,0.3-0.5s0.2-0.4,0.4-0.6
		c0.1-0.2,0.2-0.4,0.4-0.6c0.2-0.2,0.3-0.5,0.5-0.7c0.2-0.2,0.3-0.4,0.5-0.5c0.2-0.2,0.3-0.3,0.5-0.4c0.2-0.1,0.4-0.1,0.7-0.1
		c0.3,0,0.5,0.1,0.7,0.2c0.2,0.1,0.3,0.3,0.4,0.6c0.1,0.2,0.2,0.5,0.2,0.9c0.1,0.3,0.1,0.7,0.1,1.1c0,0.2,0,0.4,0.1,0.6
		c0,0.2,0.1,0.4,0.1,0.6c0.1,0.2,0.1,0.3,0.2,0.4c0.1,0.1,0.2,0.2,0.3,0.2c0.2,0,0.4-0.1,0.7-0.2s0.5-0.3,0.8-0.5
		c0.3-0.2,0.5-0.5,0.8-0.8c0.3-0.3,0.6-0.6,0.8-1c0.1-0.1,0.2-0.2,0.3-0.3s0.2-0.2,0.2-0.3c0.1-0.1,0.1-0.2,0.2-0.2s0.1-0.1,0.2-0.1
		c0,0,0.1,0,0.1,0c0,0,0.1,0,0.1,0c0,0,0.1,0.1,0.1,0.1C104.9,19.1,104.9,19.1,104.9,19.2z"/>
	<path class="st2" d="M106.1,17.6c0,0.1,0,0.1,0,0.2c0,0.1,0,0.2-0.1,0.2c0,0.1-0.1,0.2-0.1,0.3c0,0.1-0.1,0.2-0.1,0.2
		c-0.1,0.3-0.1,0.8-0.1,1.5c0,0.1,0,0.3,0,0.4c0,0.2,0,0.4,0,0.6c0,0.2,0,0.4,0,0.6c0,0.2,0,0.3,0,0.5c0,0.9,0,1.7-0.1,2.4
		s-0.1,1.4-0.3,1.9c-0.1,0.3-0.2,0.6-0.3,0.9c-0.1,0.3-0.3,0.5-0.5,0.7c-0.2,0.2-0.4,0.4-0.6,0.5c-0.2,0.1-0.5,0.2-0.8,0.2
		c-0.3,0-0.5-0.1-0.8-0.2c-0.2-0.1-0.5-0.2-0.7-0.4c-0.2-0.1-0.4-0.3-0.5-0.5s-0.2-0.3-0.2-0.4c0-0.2,0-0.3,0.1-0.3s0.1-0.1,0.3-0.1
		c0,0,0.1,0,0.2,0.1c0.1,0,0.2,0.1,0.4,0.1c0.1,0.1,0.3,0.1,0.5,0.1c0.2,0,0.3,0.1,0.5,0.1c0.2,0,0.3-0.1,0.4-0.2
		c0.1-0.1,0.2-0.2,0.3-0.4c0.1-0.2,0.2-0.4,0.2-0.6c0.1-0.2,0.1-0.5,0.1-0.8c0-0.3,0.1-0.6,0.1-0.9c0-0.3,0-0.6,0-0.9
		c0-0.1,0-0.3,0-0.5s0-0.4,0-0.6c0-0.2,0-0.4,0-0.6c0-0.2,0-0.4,0-0.6c0-0.2,0-0.4,0-0.5c0-0.2,0-0.3,0-0.4c0-1.2,0.1-2,0.3-2.6
		c0.2-0.6,0.5-0.9,1-0.9c0.2,0,0.4,0.1,0.5,0.2C106,17.2,106.1,17.4,106.1,17.6z M107.2,13.4c0,0,0,0.1,0,0.2c0,0.1-0.1,0.2-0.1,0.3
		s-0.1,0.2-0.2,0.3c-0.1,0.1-0.1,0.2-0.2,0.3c-0.1,0.1-0.1,0.2-0.2,0.2c-0.1,0.1-0.1,0.1-0.1,0.1c-0.1,0-0.2,0-0.3,0
		c-0.1,0-0.2-0.1-0.2-0.1s-0.1-0.1-0.2-0.2c-0.1-0.1-0.1-0.2-0.2-0.3c-0.1-0.1-0.1-0.2-0.1-0.3c0-0.1,0-0.2,0-0.2
		c0-0.1,0-0.2,0.1-0.3s0.1-0.2,0.2-0.3c0.1-0.1,0.2-0.2,0.3-0.2c0.1-0.1,0.2-0.1,0.3-0.1c0.1,0,0.2,0,0.4,0.1s0.2,0.1,0.3,0.2
		c0.1,0.1,0.2,0.2,0.2,0.3C107.2,13.1,107.2,13.2,107.2,13.4z"/>
	<path class="st2" d="M116.1,19.4c0,0.1-0.1,0.3-0.2,0.5c-0.2,0.4-0.5,0.8-0.8,1.2c-0.3,0.4-0.6,0.8-0.9,1.1c-0.3,0.3-0.7,0.7-1,1
		c-0.3,0.3-0.7,0.6-1.1,0.8c-0.4,0.2-0.7,0.4-1.1,0.5c-0.4,0.1-0.7,0.2-1,0.2c-0.8,0-1.4-0.3-1.8-0.8s-0.6-1.3-0.6-2.3
		c0-0.4,0-0.8,0.1-1.2s0.1-0.8,0.2-1.2s0.3-0.8,0.4-1.1c0.2-0.4,0.4-0.7,0.7-1.1c0.1-0.1,0.2-0.3,0.3-0.4c0.1-0.1,0.3-0.2,0.4-0.3
		s0.3-0.2,0.5-0.2c0.2-0.1,0.3-0.1,0.5-0.1c0.2,0,0.4,0.1,0.6,0.2c0.2,0.1,0.3,0.2,0.4,0.4c0.1,0.2,0.2,0.4,0.2,0.6
		c0.1,0.2,0.1,0.5,0.1,0.7c0,0.5-0.1,1-0.4,1.5c-0.3,0.5-0.7,1-1.2,1.5c-0.2,0.2-0.4,0.4-0.6,0.6s-0.5,0.4-0.7,0.7
		c0,0.1,0,0.3,0.1,0.4c0.1,0.1,0.1,0.2,0.2,0.3c0.1,0.1,0.2,0.2,0.3,0.2c0.1,0.1,0.3,0.1,0.5,0.1c0.2,0,0.4,0,0.7-0.1
		s0.5-0.2,0.7-0.3c0.2-0.1,0.5-0.2,0.7-0.4c0.2-0.1,0.4-0.3,0.6-0.5c0.3-0.3,0.6-0.6,0.9-0.9c0.3-0.3,0.6-0.7,0.9-1l0.4-0.4
		c0.2-0.3,0.5-0.4,0.6-0.4c0.1,0,0.1,0,0.2,0.1C116.1,19.3,116.1,19.3,116.1,19.4z M110.9,17.9c0-0.1,0-0.2,0-0.3
		c0-0.1-0.1-0.2-0.1-0.2c-0.2,0-0.3,0.1-0.5,0.2s-0.3,0.4-0.5,0.7s-0.3,0.6-0.4,1c-0.1,0.4-0.2,0.8-0.3,1.3c0.2-0.2,0.4-0.4,0.6-0.6
		c0.2-0.2,0.4-0.4,0.6-0.6c0.2-0.2,0.3-0.5,0.4-0.7C110.9,18.5,110.9,18.2,110.9,17.9z"/>
</g>
</svg>
