<?xml version="1.0" encoding="utf-8"?>
<!-- Generator: Adobe Illustrator 26.4.1, SVG Export Plug-In . SVG Version: 6.00 Build 0)  -->
<svg version="1.1" id="Layer_1" xmlns="http://www.w3.org/2000/svg" xmlns:xlink="http://www.w3.org/1999/xlink" x="0px" y="0px"
	 viewBox="0 0 116.9 35.7" style="enable-background:new 0 0 116.9 35.7;" xml:space="preserve">
<style type="text/css">
	.st0{fill:url(#SVGID_1_);}
	.st1{enable-background:new    ;}
</style>
<linearGradient id="SVGID_1_" gradientUnits="userSpaceOnUse" x1="1.5692" y1="30.09" x2="38.2628" y2="30.09" gradientTransform="matrix(1 0 0 1 0 -12.26)">
	<stop  offset="0" style="stop-color:#FFF33B"/>
	<stop  offset="0" style="stop-color:#FBD43B"/>
	<stop  offset="0" style="stop-color:#F6AA3B"/>
	<stop  offset="0" style="stop-color:#F2883B"/>
	<stop  offset="0" style="stop-color:#EE6D3B"/>
	<stop  offset="0" style="stop-color:#EC5A3B"/>
	<stop  offset="0" style="stop-color:#EA4F3B"/>
	<stop  offset="0" style="stop-color:#EA4B3B"/>
	<stop  offset="0.52" style="stop-color:#ED6D3C"/>
	<stop  offset="1" style="stop-color:#FDC70C"/>
	<stop  offset="1" style="stop-color:#E93E3A"/>
</linearGradient>
<path class="st0" d="M8.1,22.8c-2.4,0.8-3,0.7-3.7-1.7c-2.7-1.7,0.9-3.5,2-4.8c-1.8-4,14.2-13.3,17.9-15.2c0.5-0.3,1-0.4,1.4,0.2
	C25.8,3.1,22.9,3.7,22,5c1.8-0.3,11.6-8,9.8-2.5c2.3,0.8-1.6,3.2-2.4,4c1.5-0.3,3.9-2.8,5.2-1.2c0.4,0.6,0.1,1.3-0.7,2
	c-4.5,3.2-9,6.5-13.2,10.1c4.3-1.5,9.8-8.1,14.2-6.1c1.2,1.4-1.8,2.8-2.4,3.4c2.8,1.7-6.7,5-7.9,7.3c1.4-0.4,15-7.6,9.2-0.9
	c1.4-0.6,4.8-2.6,4.6,0.3c-2,2.1-4.9,3.3-7.2,5.2c0,0.1,0.1,0.1,0.1,0.2c1.8-0.4,7.4-4.1,6.4,0c2.3,2.1-2.6,2.8-5,4.1
	c-1.2,0.6-3.2,1.4-4.3,1.9c-0.7,0-4.1,2.6-5.3,1.2c-1.6-0.7-3.5,1-5.2,1.2c-2.3,0.6-2.9-1.5-1.4-2.8c-1.5,0.6-4.8,0.7-3.3-1.8
	c-1,0.1-2-0.2-2.5-1c-1.8,0.9-2.2,1.4-5.4,2.8c-0.7,0.4-2.1,0-2.2-0.9C-1.8,29.3,6.9,25.4,8.1,22.8L8.1,22.8z"/>
<g class="st1">
	<path d="M49.5,11.5c0.2,0,0.3,0,0.5,0.1c0.2,0.1,0.3,0.2,0.4,0.3c0.1,0.1,0.2,0.3,0.3,0.5c0.1,0.2,0.1,0.4,0.1,0.6
		c0,0.3-0.1,0.5-0.2,0.7c-0.1,0.2-0.4,0.2-0.6,0.2c-0.1,0-0.2,0-0.3-0.1c-0.1-0.1-0.2-0.1-0.3-0.2c-0.1-0.1-0.2-0.1-0.2-0.2
		s-0.1-0.1-0.2-0.1c-0.2,0-0.5,0-0.8,0.1c-0.3,0.1-0.7,0.2-1.1,0.4c-0.4,0.2-0.8,0.4-1.1,0.7c-0.4,0.3-0.7,0.6-1,0.9
		c-0.3,0.3-0.6,0.7-0.9,1.1c-0.3,0.4-0.6,0.8-0.8,1.2c-0.1,0.2-0.2,0.3-0.2,0.5c-0.1,0.2-0.1,0.4-0.2,0.7c-0.1,0.2-0.1,0.5-0.1,0.7
		s0,0.5,0,0.7c0,0.2,0.1,0.4,0.2,0.6c0.1,0.2,0.3,0.3,0.4,0.4s0.3,0.2,0.5,0.2c0.2,0,0.3,0.1,0.5,0.1c0.3,0,0.5,0,0.8-0.1
		c0.3-0.1,0.6-0.2,0.9-0.3c0.3-0.1,0.6-0.3,0.8-0.5c0.3-0.2,0.5-0.4,0.8-0.6c0.1-0.1,0.1-0.1,0.2-0.3c0.1-0.1,0.2-0.2,0.3-0.4
		c0.1-0.1,0.2-0.3,0.3-0.4c0.1-0.1,0.1-0.2,0.1-0.3c0,0,0-0.1,0-0.2s0-0.1,0-0.2c0-0.1,0-0.1,0-0.2c0-0.1,0-0.1,0-0.1
		c0-0.3,0.3-0.5,0.8-0.5c0.1,0,0.3,0,0.4,0.1c0.1,0.1,0.3,0.2,0.4,0.3s0.2,0.2,0.3,0.3c0.1,0.1,0.1,0.2,0.1,0.3c0,0,0,0.1-0.1,0.2
		c0,0.1-0.1,0.2-0.1,0.4c-0.1,0.1-0.1,0.3-0.2,0.5c-0.1,0.2-0.1,0.3-0.2,0.5c-0.1,0.1-0.1,0.3-0.2,0.4c0,0.1-0.1,0.2-0.1,0.2
		c-0.1,0.2-0.1,0.4-0.2,0.7c-0.1,0.3-0.1,0.5-0.2,0.8c-0.1,0.3-0.1,0.5-0.2,0.8c0,0.2-0.1,0.4-0.1,0.6c0,0,0,0.1,0,0.1
		c0,0,0,0.1,0.1,0.1c0,0,0,0.1,0.1,0.1c0,0,0,0.1,0,0.1c0,0.2,0,0.3-0.1,0.4c0,0.1-0.1,0.2-0.2,0.3c-0.1,0.1-0.2,0.2-0.3,0.2
		c-0.1,0.1-0.2,0.1-0.4,0.1c-0.2,0-0.3,0-0.4-0.1c-0.1-0.1-0.2-0.1-0.3-0.2c-0.1-0.1-0.1-0.2-0.1-0.4c0-0.2,0-0.3,0-0.5
		c0-0.1,0-0.3,0.1-0.4c0-0.2,0.1-0.4,0.2-0.6c0.1-0.2,0.1-0.4,0.2-0.6c0.1-0.2,0.1-0.4,0.2-0.5c-0.3,0.2-0.6,0.5-0.9,0.7
		c-0.3,0.2-0.6,0.4-0.9,0.5c-0.3,0.2-0.6,0.3-1,0.4c-0.3,0.1-0.7,0.1-1.2,0.1c-0.4,0-0.9-0.1-1.3-0.2s-0.7-0.3-1-0.6
		s-0.5-0.5-0.7-0.9s-0.3-0.7-0.3-1.1c0-0.8,0.1-1.5,0.4-2.4c0.3-0.8,0.7-1.6,1.3-2.5c0.2-0.3,0.5-0.7,0.8-1s0.5-0.6,0.8-0.8
		c0.2-0.2,0.4-0.3,0.6-0.5c0.2-0.2,0.4-0.3,0.7-0.5c0.2-0.2,0.5-0.3,0.7-0.4c0.2-0.1,0.5-0.3,0.7-0.4c0.3-0.1,0.5-0.2,0.7-0.3
		s0.5-0.2,0.7-0.2c0.2-0.1,0.5-0.1,0.7-0.1C49,11.5,49.2,11.5,49.5,11.5z"/>
	<path d="M63.8,17.3c0,0.3-0.1,0.6-0.3,1c-0.2,0.4-0.4,0.7-0.7,1.1c-0.3,0.4-0.6,0.7-0.9,1c-0.3,0.3-0.7,0.6-1,0.9
		c-0.3,0.3-0.7,0.5-1,0.6s-0.6,0.2-0.8,0.2c-0.3,0-0.5-0.1-0.7-0.2c-0.2-0.1-0.4-0.3-0.5-0.6s-0.2-0.5-0.3-0.8
		c-0.1-0.3-0.1-0.6-0.2-1c-0.1,0.2-0.2,0.4-0.3,0.6c-0.1,0.2-0.2,0.4-0.4,0.7c-0.1,0.2-0.3,0.4-0.4,0.6s-0.3,0.4-0.4,0.5
		c-0.2,0.2-0.3,0.4-0.5,0.6c-0.2,0.2-0.4,0.3-0.6,0.5c-0.2,0.1-0.4,0.2-0.7,0.3c-0.2,0.1-0.5,0.1-0.7,0.1c-0.2,0-0.4-0.1-0.6-0.2
		c-0.2-0.1-0.3-0.2-0.4-0.4c-0.1-0.2-0.2-0.4-0.2-0.6s-0.1-0.5-0.1-0.7c0-0.2,0-0.4,0-0.6c0-0.2,0.1-0.4,0.1-0.6
		c0-0.2,0.1-0.4,0.1-0.7s0.1-0.4,0.1-0.6c0-0.2,0-0.3,0-0.5c0-0.2,0-0.4,0-0.5c0-0.2,0-0.4,0-0.5s0-0.3,0.1-0.5c0-0.1,0-0.2,0.1-0.3
		c0-0.1,0.1-0.2,0.1-0.3c0.1-0.1,0.1-0.1,0.2-0.2s0.2-0.1,0.3-0.1c0.3,0,0.5,0.1,0.6,0.3c0.1,0.2,0.2,0.5,0.2,0.9c0,0.1,0,0.3,0,0.4
		c0,0.2,0,0.3-0.1,0.5c0,0.2,0,0.3-0.1,0.5c0,0.2-0.1,0.3-0.1,0.5c-0.1,0.4-0.1,0.7-0.2,1c-0.1,0.3-0.1,0.6-0.1,0.9
		c0,0.2,0,0.3,0.1,0.4c0.1,0.1,0.1,0.2,0.2,0.2c0.2,0,0.4-0.1,0.6-0.2c0.2-0.1,0.4-0.3,0.6-0.5c0.2-0.2,0.4-0.4,0.6-0.7
		c0.2-0.2,0.3-0.5,0.5-0.7c0.1-0.2,0.2-0.4,0.3-0.7c0.1-0.3,0.2-0.6,0.3-0.9c0.1-0.3,0.2-0.6,0.3-0.9s0.2-0.6,0.3-0.8
		c0.1-0.3,0.2-0.6,0.4-0.7c0.2-0.2,0.3-0.3,0.4-0.3c0.2,0,0.3,0,0.4,0.1c0.1,0.1,0.1,0.2,0.1,0.4c0,0.1,0,0.2,0,0.4
		c0,0.2,0,0.4-0.1,0.6s0,0.4-0.1,0.6c0,0.2,0,0.3,0,0.4c0,0.1,0,0.2,0,0.3s0,0.2,0,0.4c0,0.1,0,0.3,0,0.4s0,0.2,0,0.3
		c0,0.1,0,0.2,0.1,0.3s0.1,0.3,0.2,0.4c0.1,0.1,0.1,0.3,0.2,0.3c0.1,0.1,0.1,0.1,0.2,0.1c0.2,0,0.5-0.1,0.7-0.2
		c0.3-0.1,0.5-0.3,0.8-0.6s0.5-0.5,0.8-0.8c0.3-0.3,0.5-0.6,0.8-0.9c0.1-0.1,0.2-0.2,0.3-0.4c0.1-0.1,0.2-0.2,0.3-0.3
		s0.2-0.2,0.3-0.2s0.2-0.1,0.2-0.1c0.1,0,0.1,0,0.2,0.1C63.8,17.2,63.8,17.2,63.8,17.3z M55.8,13.6c0,0.4-0.3,0.5-0.8,0.5
		c-0.1,0-0.2,0-0.3,0c-0.1,0-0.2-0.1-0.3-0.1c-0.1-0.1-0.2-0.1-0.2-0.2C54,13.7,54,13.7,54,13.6c0-0.2,0-0.3,0-0.4
		c0-0.1,0.1-0.3,0.1-0.4s0.1-0.2,0.2-0.2c0.1-0.1,0.2-0.1,0.3-0.1c0.3,0,0.6,0.1,0.8,0.3C55.7,13,55.8,13.3,55.8,13.6z M58.4,13
		c0,0.7-0.3,1-0.9,1c-0.1,0-0.2,0-0.3-0.1c-0.1,0-0.2-0.1-0.2-0.2c-0.1-0.1-0.1-0.2-0.2-0.3c0-0.1-0.1-0.2-0.1-0.3
		c0-0.1,0-0.2,0-0.3c0-0.1,0.1-0.2,0.1-0.2c0.1-0.1,0.1-0.1,0.3-0.2c0.1-0.1,0.2-0.1,0.4-0.2c0,0,0.1,0,0.1,0c0,0,0.1,0,0.1,0
		c0.2,0,0.3,0.1,0.4,0.2C58.3,12.5,58.4,12.7,58.4,13z"/>
	<path d="M69.2,16.6c0,0.1,0,0.3,0,0.5c0,0.2,0,0.4,0,0.7s0,0.5,0,0.7s0,0.4,0,0.5c0,0.3,0,0.7-0.1,1.1s-0.1,0.7-0.1,1.1
		c0,0.4-0.1,0.7-0.2,1.1c-0.1,0.4-0.1,0.7-0.2,1c-0.1,0.3-0.1,0.5-0.2,0.8c-0.1,0.3-0.2,0.5-0.2,0.8c-0.1,0.3-0.2,0.5-0.3,0.8
		c-0.1,0.2-0.2,0.5-0.3,0.7c-0.5,0.9-1.1,1.3-2,1.3c-0.5,0-1.1-0.1-1.6-0.4c-0.2-0.1-0.4-0.2-0.6-0.3c-0.2-0.1-0.4-0.3-0.5-0.4
		c-0.2-0.2-0.3-0.3-0.4-0.5c-0.1-0.2-0.2-0.3-0.2-0.5c0-0.1,0-0.2,0-0.3s0-0.2,0.1-0.3s0.1-0.1,0.1-0.2c0.1-0.1,0.1-0.1,0.2-0.1
		c0.1,0,0.1,0,0.2,0.1c0.1,0,0.1,0.1,0.2,0.1c0.2,0.2,0.3,0.4,0.5,0.5s0.4,0.3,0.6,0.4c0.2,0.1,0.4,0.2,0.6,0.2
		c0.2,0,0.5,0.1,0.7,0.1c0.1,0,0.3-0.1,0.4-0.2c0.1-0.1,0.3-0.3,0.4-0.4c0.1-0.2,0.2-0.4,0.3-0.6c0.1-0.2,0.2-0.5,0.3-0.7
		c0.1-0.3,0.1-0.5,0.2-0.8c0.1-0.3,0.1-0.5,0.1-0.7c0-0.3,0.1-0.5,0.1-0.8s0.1-0.6,0.1-0.9c-0.1,0.1-0.3,0.3-0.5,0.4
		s-0.4,0.3-0.6,0.4c-0.2,0.1-0.4,0.3-0.6,0.4c-0.2,0.1-0.4,0.2-0.6,0.3c-0.2,0.1-0.4,0.2-0.6,0.2c-0.2,0.1-0.4,0.1-0.5,0.1
		c-0.3,0-0.5-0.1-0.7-0.2c-0.2-0.1-0.3-0.3-0.5-0.5c-0.1-0.2-0.2-0.4-0.3-0.7c-0.1-0.3-0.1-0.5-0.1-0.8c0-0.2,0-0.4,0-0.6
		c0-0.2,0-0.5,0.1-0.7s0.1-0.5,0.1-0.7s0.1-0.4,0.1-0.6c0,0,0-0.1,0.1-0.2c0-0.1,0.1-0.3,0.1-0.4c0-0.1,0.1-0.3,0.1-0.4
		s0.1-0.2,0.1-0.2c0.1-0.2,0.1-0.4,0.2-0.5c0.1-0.1,0.1-0.3,0.2-0.4c0.1-0.1,0.2-0.2,0.3-0.2c0.1,0,0.3-0.1,0.4-0.1
		c0.1,0,0.2,0,0.3,0.1c0.1,0.1,0.2,0.2,0.2,0.3c0.1,0.1,0.1,0.2,0.1,0.3c0,0.1,0,0.2,0,0.3c0,0,0,0.1-0.1,0.3c0,0.1-0.1,0.3-0.2,0.4
		c-0.1,0.2-0.1,0.3-0.2,0.4c-0.1,0.1-0.1,0.2-0.1,0.3c-0.1,0.4-0.2,0.7-0.3,1C64,19.5,64,19.9,64,20.2c0,0.2,0,0.3,0,0.4
		c0,0.1,0.1,0.2,0.1,0.3c0,0.1,0.1,0.2,0.1,0.2s0.1,0.1,0.2,0.1c0.1,0,0.3,0,0.5-0.1c0.2-0.1,0.4-0.2,0.6-0.3
		c0.2-0.1,0.4-0.3,0.6-0.4c0.2-0.2,0.4-0.3,0.6-0.5c0.2-0.2,0.3-0.4,0.5-0.6c0.1-0.2,0.2-0.4,0.3-0.7c0-0.1,0-0.1,0-0.2
		c0-0.1,0-0.2,0-0.4c0-0.1,0-0.3,0-0.5c0-0.2,0-0.3,0-0.5c0-0.2,0-0.3,0-0.4c0-0.1,0-0.2,0-0.3c0.1-0.3,0.2-0.5,0.3-0.6
		c0.1-0.1,0.3-0.2,0.5-0.2c0.2,0,0.3,0,0.4,0.1c0.1,0,0.2,0.1,0.2,0.2c0.1,0.1,0.1,0.2,0.1,0.4C69.2,16.2,69.2,16.4,69.2,16.6z
		 M69.2,11.9c0,0.1,0,0.1,0,0.2c0,0.1-0.1,0.1-0.1,0.2c-0.1,0.1-0.2,0.2-0.3,0.3c-0.1,0.1-0.3,0.3-0.6,0.4c0,0-0.1,0.1-0.2,0.2
		c-0.1,0.1-0.2,0.2-0.3,0.2c-0.1,0.1-0.3,0.2-0.4,0.3c-0.1,0.1-0.3,0.2-0.4,0.3s-0.2,0.2-0.3,0.2c-0.1,0.1-0.2,0.1-0.2,0.1
		c0,0,0,0-0.1,0c0,0-0.1,0.1-0.1,0.1c-0.1,0-0.1,0.1-0.2,0.1c-0.1,0-0.1,0-0.1,0c-0.2,0-0.3-0.1-0.4-0.2c-0.1-0.1-0.1-0.3-0.1-0.4
		c0-0.3,0.3-0.7,0.9-1.2c0.2-0.1,0.4-0.3,0.5-0.4s0.3-0.3,0.5-0.4s0.3-0.3,0.5-0.4c0.1-0.1,0.3-0.2,0.4-0.3c0.1-0.1,0.2-0.1,0.2-0.2
		s0.2-0.1,0.3-0.1c0,0,0.1,0,0.2,0.1c0.1,0,0.1,0.1,0.2,0.2c0.1,0.1,0.1,0.2,0.2,0.3C69.2,11.7,69.2,11.8,69.2,11.9z"/>
	<path d="M85.8,18.2c0,0,0,0.1,0,0.2c0,0.1,0,0.2-0.1,0.2c0,0.1-0.1,0.2-0.1,0.3s-0.1,0.2-0.1,0.3c-0.1,0.1-0.2,0.3-0.3,0.5
		c-0.1,0.2-0.3,0.4-0.4,0.5c-0.1,0.2-0.3,0.4-0.5,0.6c-0.2,0.2-0.3,0.4-0.5,0.5c-0.1,0.1-0.3,0.3-0.5,0.4c-0.2,0.2-0.4,0.3-0.6,0.4
		c-0.2,0.1-0.4,0.2-0.6,0.3c-0.2,0.1-0.4,0.1-0.6,0.1c-0.2,0-0.3,0-0.5-0.1s-0.3-0.2-0.5-0.5s-0.3-0.5-0.4-1s-0.2-0.9-0.3-1.6
		c0-0.1,0-0.2,0-0.3c0-0.1,0-0.3,0-0.4c0-0.1,0-0.3,0-0.4c0-0.1,0-0.2,0-0.2c0,0-0.1,0.1-0.2,0.2c-0.1,0.1-0.2,0.3-0.3,0.5
		s-0.2,0.4-0.4,0.7c-0.1,0.3-0.3,0.6-0.4,0.8c-0.2,0.4-0.3,0.7-0.5,1S78,22,77.8,22.2c-0.1,0.2-0.3,0.4-0.4,0.5
		c-0.1,0.1-0.3,0.2-0.4,0.2c-0.2,0-0.4,0-0.5-0.1c-0.1-0.1-0.2-0.2-0.3-0.4s-0.1-0.4-0.2-0.7c0-0.3-0.1-0.7-0.1-1.1
		c0-0.7,0-1.2-0.1-1.6c0-0.4-0.1-0.6-0.1-0.6c-0.1,0-0.1,0.1-0.3,0.2s-0.3,0.4-0.4,0.7c-0.2,0.3-0.4,0.6-0.6,1
		c-0.2,0.4-0.4,0.8-0.6,1.2c-0.1,0.1-0.1,0.3-0.2,0.4c-0.1,0.2-0.2,0.3-0.2,0.5c-0.1,0.2-0.2,0.3-0.2,0.5c-0.1,0.1-0.1,0.3-0.2,0.4
		c-0.1,0.1-0.2,0.2-0.3,0.3c-0.1,0.1-0.2,0.1-0.4,0.1c-0.2,0-0.3,0-0.5-0.1c-0.1-0.1-0.2-0.2-0.3-0.4c-0.1-0.2-0.1-0.3-0.2-0.6
		c0-0.2-0.1-0.4-0.1-0.7c0-0.2,0-0.4,0-0.6c0-0.2,0-0.3,0-0.5c0-0.2,0-0.4,0.1-0.6s0.1-0.4,0.1-0.7c0-0.2,0-0.5,0.1-0.7
		c0-0.2,0-0.5,0-0.7c0-0.2,0-0.5,0-0.7s0-0.4,0.1-0.5c0-0.1,0.1-0.2,0.1-0.3c0-0.1,0.1-0.2,0.2-0.3c0.1-0.1,0.2-0.2,0.3-0.2
		c0.1-0.1,0.2-0.1,0.4-0.1c0.1,0,0.2,0,0.3,0.1c0.1,0.1,0.1,0.1,0.2,0.2c0,0.1,0.1,0.2,0.1,0.4s0,0.3,0,0.4c0,0.1,0,0.3,0,0.5
		c0,0.2-0.1,0.5-0.1,0.7s-0.1,0.5-0.1,0.8c-0.1,0.3-0.1,0.6-0.2,0.8c0,0.3-0.1,0.5-0.1,0.7c0,0.2-0.1,0.4-0.1,0.5c0,0,0-0.1,0.1-0.2
		c0-0.1,0.1-0.2,0.2-0.3c0.1-0.1,0.1-0.3,0.2-0.4s0.1-0.3,0.2-0.4c0.1-0.1,0.1-0.2,0.2-0.3c0-0.1,0.1-0.1,0.1-0.2
		c0.1-0.2,0.2-0.3,0.3-0.5c0.1-0.2,0.2-0.4,0.3-0.6c0.1-0.2,0.2-0.4,0.3-0.6s0.2-0.3,0.3-0.5c0.2-0.3,0.4-0.5,0.6-0.6
		c0.2-0.1,0.5-0.2,0.7-0.2c0.3,0,0.5,0.1,0.7,0.3s0.3,0.5,0.4,0.9c0,0.1,0,0.3,0.1,0.5c0,0.2,0,0.4,0,0.6s0,0.4,0,0.7
		c0,0.2,0,0.4,0,0.6c0,0.2,0,0.3,0,0.4c0,0.1,0,0.2,0,0.2c0,0,0.1-0.1,0.2-0.2c0.1-0.1,0.2-0.3,0.3-0.5c0.1-0.2,0.2-0.4,0.3-0.6
		c0.1-0.2,0.2-0.4,0.3-0.6c0.2-0.3,0.3-0.6,0.5-0.9c0.2-0.3,0.3-0.5,0.5-0.8s0.3-0.4,0.5-0.5s0.3-0.2,0.4-0.2c0.1,0,0.2,0,0.3,0
		s0.2,0.1,0.3,0.1s0.2,0.1,0.2,0.1c0.1,0.1,0.1,0.1,0.2,0.2c0.1,0.1,0.1,0.3,0.2,0.5c0,0.2,0.1,0.4,0.1,0.6s0,0.4,0,0.7s0,0.5,0,0.8
		c0,0.5,0.1,1,0.2,1.3c0.1,0.3,0.2,0.5,0.4,0.5c0.1,0,0.2,0,0.3-0.1c0.1-0.1,0.3-0.2,0.4-0.3c0.1-0.1,0.3-0.2,0.4-0.3
		s0.3-0.3,0.4-0.4c0.1-0.1,0.3-0.3,0.4-0.4c0.1-0.1,0.3-0.3,0.4-0.4s0.3-0.3,0.4-0.5c0.1-0.2,0.3-0.3,0.4-0.5
		c0.1-0.1,0.2-0.2,0.3-0.2C85.8,17.8,85.8,17.9,85.8,18.2z"/>
	<path d="M93.2,18.2c0,0.1-0.1,0.3-0.2,0.5c-0.2,0.4-0.5,0.8-0.8,1.2c-0.3,0.4-0.6,0.8-0.9,1.1c-0.3,0.3-0.7,0.7-1,1
		c-0.3,0.3-0.7,0.6-1.1,0.8s-0.7,0.4-1.1,0.5c-0.4,0.1-0.7,0.2-1,0.2c-0.8,0-1.4-0.3-1.8-0.8s-0.6-1.3-0.6-2.3c0-0.4,0-0.8,0.1-1.2
		c0-0.4,0.1-0.8,0.2-1.2c0.1-0.4,0.3-0.8,0.4-1.1c0.2-0.4,0.4-0.7,0.7-1.1c0.1-0.1,0.2-0.3,0.3-0.4c0.1-0.1,0.3-0.2,0.4-0.3
		s0.3-0.2,0.5-0.2c0.2-0.1,0.3-0.1,0.5-0.1c0.2,0,0.4,0.1,0.6,0.2c0.2,0.1,0.3,0.2,0.4,0.4c0.1,0.2,0.2,0.4,0.2,0.6
		c0.1,0.2,0.1,0.5,0.1,0.7c0,0.5-0.1,1-0.4,1.5s-0.7,1-1.2,1.5c-0.2,0.2-0.4,0.4-0.6,0.6s-0.5,0.4-0.7,0.7c0,0.1,0,0.3,0.1,0.4
		c0.1,0.1,0.1,0.2,0.2,0.3c0.1,0.1,0.2,0.2,0.3,0.2c0.1,0,0.3,0.1,0.5,0.1c0.2,0,0.4,0,0.7-0.1c0.2-0.1,0.5-0.2,0.7-0.3
		c0.2-0.1,0.5-0.2,0.7-0.4c0.2-0.1,0.4-0.3,0.6-0.5c0.3-0.3,0.6-0.6,0.9-0.9c0.3-0.3,0.6-0.7,0.9-1l0.4-0.4c0.2-0.3,0.5-0.4,0.6-0.4
		c0.1,0,0.1,0,0.2,0.1C93.2,18,93.2,18.1,93.2,18.2z M88,16.7c0-0.1,0-0.2,0-0.3c0-0.1-0.1-0.2-0.1-0.2c-0.2,0-0.3,0.1-0.5,0.2
		s-0.3,0.4-0.5,0.7s-0.3,0.6-0.4,1s-0.2,0.8-0.3,1.3c0.2-0.2,0.4-0.4,0.6-0.6c0.2-0.2,0.4-0.4,0.6-0.6c0.2-0.2,0.3-0.5,0.4-0.7
		C87.9,17.2,88,17,88,16.7z"/>
	<path d="M103.6,18c0,0.1,0,0.2,0,0.3c0,0.1-0.1,0.2-0.1,0.4s-0.1,0.2-0.2,0.3c-0.1,0.1-0.1,0.2-0.2,0.3c-0.1,0.2-0.3,0.4-0.5,0.7
		c-0.2,0.2-0.4,0.5-0.5,0.7c-0.2,0.2-0.4,0.5-0.6,0.7c-0.2,0.2-0.4,0.4-0.6,0.6c-0.2,0.1-0.3,0.2-0.4,0.4c-0.1,0.1-0.3,0.2-0.4,0.3
		s-0.3,0.2-0.5,0.2c-0.2,0-0.4,0.1-0.6,0.1c-0.3,0-0.6-0.1-0.8-0.2c-0.2-0.2-0.4-0.4-0.5-0.6s-0.2-0.6-0.3-0.9s-0.1-0.7-0.2-1.1
		C97,19.4,97,19,96.9,18.7c-0.1-0.3-0.2-0.4-0.3-0.4c-0.1,0-0.2,0-0.3,0.1s-0.2,0.2-0.3,0.3c-0.1,0.2-0.3,0.4-0.5,0.7
		c-0.2,0.3-0.4,0.7-0.8,1.3c-0.1,0.2-0.2,0.4-0.4,0.6s-0.3,0.4-0.5,0.6c-0.2,0.2-0.3,0.4-0.5,0.5c-0.2,0.2-0.3,0.3-0.5,0.3
		c-0.6-0.1-0.8-0.8-0.8-1.9c0-0.3,0-0.7,0.1-1.3c0-0.2,0.1-0.5,0.1-0.8s0.1-0.6,0.1-0.8s0.1-0.5,0.2-0.8c0.1-0.3,0.2-0.5,0.2-0.7
		c0.1-0.1,0.1-0.2,0.2-0.3c0.1-0.1,0.1-0.1,0.2-0.2c0.1,0,0.1-0.1,0.2-0.1c0.1,0,0.2,0,0.2,0c0.1,0,0.1,0,0.2,0.1
		c0.1,0,0.1,0.1,0.2,0.2c0,0.1,0.1,0.2,0.1,0.3c0,0.1,0,0.2,0,0.4c0,0.1,0,0.2,0,0.3c0,0.1,0,0.2-0.1,0.3c0,0.1-0.1,0.2-0.1,0.4
		c0,0.1-0.1,0.3-0.1,0.5c0,0.1-0.1,0.3-0.1,0.4s-0.1,0.4-0.1,0.5c0,0.2-0.1,0.4-0.1,0.6c0,0.2-0.1,0.3-0.1,0.5
		c0.1-0.1,0.2-0.2,0.3-0.4s0.2-0.3,0.3-0.5s0.2-0.4,0.4-0.6c0.1-0.2,0.2-0.4,0.4-0.6c0.2-0.2,0.3-0.5,0.5-0.7
		c0.2-0.2,0.3-0.4,0.5-0.5c0.2-0.2,0.3-0.3,0.5-0.4c0.2-0.1,0.4-0.1,0.7-0.1c0.3,0,0.5,0.1,0.7,0.2c0.2,0.1,0.3,0.3,0.4,0.6
		c0.1,0.2,0.2,0.5,0.2,0.9c0.1,0.3,0.1,0.7,0.1,1.1c0,0.2,0,0.4,0.1,0.6c0,0.2,0.1,0.4,0.1,0.6s0.1,0.3,0.2,0.4
		C99,21,99.1,21,99.3,21c0.2,0,0.4-0.1,0.7-0.2s0.5-0.3,0.8-0.5c0.3-0.2,0.5-0.5,0.8-0.8s0.6-0.6,0.8-1c0.1-0.1,0.2-0.2,0.3-0.3
		s0.2-0.2,0.2-0.3c0.1-0.1,0.1-0.2,0.2-0.2s0.1-0.1,0.2-0.1c0,0,0.1,0,0.1,0c0,0,0.1,0,0.1,0c0,0,0.1,0.1,0.1,0.1
		C103.6,17.8,103.6,17.9,103.6,18z"/>
	<path d="M104.8,16.4c0,0.1,0,0.1,0,0.2c0,0.1,0,0.2-0.1,0.2c0,0.1-0.1,0.2-0.1,0.3c0,0.1-0.1,0.2-0.1,0.2c-0.1,0.3-0.1,0.8-0.1,1.5
		c0,0.1,0,0.3,0,0.4c0,0.2,0,0.4,0,0.6c0,0.2,0,0.4,0,0.6c0,0.2,0,0.3,0,0.5c0,0.9,0,1.7-0.1,2.4c0,0.7-0.1,1.4-0.3,1.9
		c-0.1,0.3-0.2,0.6-0.3,0.9c-0.1,0.3-0.3,0.5-0.5,0.7c-0.2,0.2-0.4,0.4-0.6,0.5c-0.2,0.1-0.5,0.2-0.8,0.2c-0.3,0-0.5-0.1-0.8-0.2
		c-0.2-0.1-0.5-0.2-0.7-0.4c-0.2-0.1-0.4-0.3-0.5-0.5c-0.1-0.2-0.2-0.3-0.2-0.4c0-0.2,0-0.3,0.1-0.3c0.1-0.1,0.1-0.1,0.3-0.1
		c0,0,0.1,0,0.2,0.1c0.1,0,0.2,0.1,0.4,0.1c0.1,0.1,0.3,0.1,0.5,0.1c0.2,0,0.3,0.1,0.5,0.1c0.2,0,0.3-0.1,0.4-0.2
		c0.1-0.1,0.2-0.2,0.3-0.4c0.1-0.2,0.2-0.4,0.2-0.6c0.1-0.2,0.1-0.5,0.1-0.8c0-0.3,0.1-0.6,0.1-0.9c0-0.3,0-0.6,0-0.9
		c0-0.1,0-0.3,0-0.5s0-0.4,0-0.6c0-0.2,0-0.4,0-0.6c0-0.2,0-0.4,0-0.6c0-0.2,0-0.4,0-0.5c0-0.2,0-0.3,0-0.4c0-1.2,0.1-2,0.3-2.6
		c0.2-0.6,0.5-0.9,1-0.9c0.2,0,0.4,0.1,0.5,0.2C104.7,16,104.8,16.2,104.8,16.4z M105.9,12.2c0,0,0,0.1,0,0.2c0,0.1-0.1,0.2-0.1,0.3
		s-0.1,0.2-0.2,0.3c-0.1,0.1-0.1,0.2-0.2,0.3c-0.1,0.1-0.1,0.2-0.2,0.2c-0.1,0.1-0.1,0.1-0.1,0.1c-0.1,0-0.2,0-0.3,0
		c-0.1,0-0.2-0.1-0.2-0.1s-0.1-0.1-0.2-0.2c-0.1-0.1-0.1-0.2-0.2-0.3c-0.1-0.1-0.1-0.2-0.1-0.3c0-0.1,0-0.2,0-0.2
		c0-0.1,0-0.2,0.1-0.3s0.1-0.2,0.2-0.3c0.1-0.1,0.2-0.2,0.3-0.2c0.1-0.1,0.2-0.1,0.3-0.1c0.1,0,0.2,0,0.4,0.1s0.2,0.1,0.3,0.2
		c0.1,0.1,0.2,0.2,0.2,0.3C105.9,11.9,105.9,12,105.9,12.2z"/>
	<path d="M114.9,18.2c0,0.1-0.1,0.3-0.2,0.5c-0.2,0.4-0.5,0.8-0.8,1.2c-0.3,0.4-0.6,0.8-0.9,1.1c-0.3,0.3-0.7,0.7-1,1
		c-0.3,0.3-0.7,0.6-1.1,0.8s-0.7,0.4-1.1,0.5c-0.4,0.1-0.7,0.2-1,0.2c-0.8,0-1.4-0.3-1.8-0.8s-0.6-1.3-0.6-2.3c0-0.4,0-0.8,0.1-1.2
		c0-0.4,0.1-0.8,0.2-1.2c0.1-0.4,0.3-0.8,0.4-1.1c0.2-0.4,0.4-0.7,0.7-1.1c0.1-0.1,0.2-0.3,0.3-0.4c0.1-0.1,0.3-0.2,0.4-0.3
		s0.3-0.2,0.5-0.2c0.2-0.1,0.3-0.1,0.5-0.1c0.2,0,0.4,0.1,0.6,0.2c0.2,0.1,0.3,0.2,0.4,0.4c0.1,0.2,0.2,0.4,0.2,0.6
		c0.1,0.2,0.1,0.5,0.1,0.7c0,0.5-0.1,1-0.4,1.5s-0.7,1-1.2,1.5c-0.2,0.2-0.4,0.4-0.6,0.6s-0.5,0.4-0.7,0.7c0,0.1,0,0.3,0.1,0.4
		c0.1,0.1,0.1,0.2,0.2,0.3c0.1,0.1,0.2,0.2,0.3,0.2c0.1,0,0.3,0.1,0.5,0.1c0.2,0,0.4,0,0.7-0.1c0.2-0.1,0.5-0.2,0.7-0.3
		c0.2-0.1,0.5-0.2,0.7-0.4c0.2-0.1,0.4-0.3,0.6-0.5c0.3-0.3,0.6-0.6,0.9-0.9c0.3-0.3,0.6-0.7,0.9-1l0.4-0.4c0.2-0.3,0.5-0.4,0.6-0.4
		c0.1,0,0.1,0,0.2,0.1C114.8,18,114.9,18.1,114.9,18.2z M109.7,16.7c0-0.1,0-0.2,0-0.3c0-0.1-0.1-0.2-0.1-0.2
		c-0.2,0-0.3,0.1-0.5,0.2s-0.3,0.4-0.5,0.7s-0.3,0.6-0.4,1s-0.2,0.8-0.3,1.3c0.2-0.2,0.4-0.4,0.6-0.6c0.2-0.2,0.4-0.4,0.6-0.6
		c0.2-0.2,0.3-0.5,0.4-0.7C109.6,17.2,109.7,17,109.7,16.7z"/>
</g>
</svg>
