<?xml version="1.0" encoding="UTF-8"?><svg xmlns="http://www.w3.org/2000/svg" xmlns:xlink="http://www.w3.org/1999/xlink" viewBox="0 0 1140.79 724.27"><defs><style>.be{fill:url(#bb);}.bf{fill:url(#j);}.bg{fill:url(#p);}.bh{fill:url(#ba);}.bi{fill:url(#ay);}.bj{fill:url(#m);}.bk{fill:url(#aa);}.bl{fill:url(#al);}.bm{fill:url(#am);}.bn{fill:#f4d87e;}.bo,.bp,.bq{fill:#fff;}.br{fill:url(#aq);}.bp,.bs{opacity:.48;}.bp,.bs,.bq{mix-blend-mode:soft-light;}.bt{fill:url(#r);}.bu{fill:#f4d37e;}.bv{fill:#a7a9ac;}.bw{fill:url(#h);}.bx{fill:url(#t);}.by{fill:url(#i);}.bz{fill:url(#l);}.ca{fill:url(#ah);}.cb{fill:url(#at);}.cc{fill:#e0e9ff;}.cd{fill:url(#af);}.ce{fill:#fb1518;}.cf{fill:url(#as);}.cg{fill:url(#ap);}.ch{fill:#1c1c1d;}.ci{isolation:isolate;}.cj{fill:#d31c24;}.ck{fill:url(#s);}.cl{fill:url(#q);}.cm{fill:url(#f);}.cn{fill:url(#g);}.co{fill:url(#au);}.cp{fill:url(#n);}.cq{clip-path:url(#b);}.cr{fill:url(#bd);}.cs{fill:url(#ad);}.ct{fill:#a97c50;}.cu{fill:url(#bc);}.cv{fill:url(#az);}.cw{fill:#e5c613;}.cx{fill:url(#av);}.cy{fill:url(#e);}.cz{fill:url(#ai);}.da{fill:#628aec;}.db{fill:url(#v);}.dc{fill:url(#aj);}.dd{fill:#f1f2f2;}.de{fill:url(#y);}.df{fill:url(#o);}.dg{fill:url(#d);}.dh{fill:url(#x);}.bq{opacity:.28;}.di{fill:url(#ar);mix-blend-mode:multiply;opacity:.3;}.dj{fill:#808285;}.dk{fill:url(#u);}.dl{fill:url(#ae);}.dm{fill:url(#z);}.dn{fill:url(#ag);}.do{fill:#08104e;}.dp{fill:#2175fb;}.dq{fill:url(#an);}.dr{fill:#ed1c24;}.ds{fill:#d1d3d4;}.dt{fill:url(#c);}.du{fill:#ccdbff;}.dv{fill:#e6e7e8;}.dw{fill:url(#w);}.dx{fill:url(#ao);}.dy{fill:url(#ax);}.dz{fill:#96b3ff;}.ea{fill:#bcbec0;}.eb{fill:#0b53ff;}.ec{fill:url(#ab);}.ed{fill:url(#k);}.ee{fill:url(#aw);}.ef{fill:url(#ac);}.eg{fill:#ffde17;}.eh{fill:url(#ak);}</style><clipPath id="b"><path class="dz" d="M986.41,476.3c-35.31,30.48-56.41,74.19-56.41,120.84h-178.63c0-46.51-20.83-90.25-56.08-120.56-48.32-41.54-78.65-103.4-77.66-172.36,1.68-116.4,96.18-214.17,212.48-219.54,128.01-5.91,233.66,96.12,233.66,222.84,0,67.48-29.99,127.91-77.36,168.79Zm-55.49,135.84h-180.47v28.04h180.47v-28.04Zm0,45.2h-180.47c0,27.01,21.9,48.91,48.91,48.91h82.65c27.01,0,48.91-21.9,48.91-48.91Z"/></clipPath><linearGradient id="c" x1="212.71" y1="-317.23" x2="210.05" y2="914.89" gradientUnits="userSpaceOnUse"><stop offset="0" stop-color="#53d8ff"/><stop offset="1" stop-color="#3840f7"/></linearGradient><linearGradient id="d" x1="226.95" y1="85.06" x2="187.35" y2="1349.77" xlink:href="#c"/><linearGradient id="e" x1="-5306.04" y1="757.81" x2="-5308.08" y2="653.98" gradientTransform="translate(-5096.08 1.46) rotate(178.75) scale(1 -1) skewX(1.25)" xlink:href="#c"/><linearGradient id="f" x1="212.71" y1="-318.59" x2="210.05" y2="915.35" xlink:href="#c"/><linearGradient id="g" x1="226.95" y1="85.06" x2="187.35" y2="1349.77" xlink:href="#c"/><linearGradient id="h" x1="212.53" y1="-317.37" x2="209.87" y2="914.78" xlink:href="#c"/><linearGradient id="i" x1="224.39" y1="84.21" x2="184.79" y2="1348.92" xlink:href="#c"/><linearGradient id="j" x1="-5306.04" y1="675.19" x2="-5308.08" y2="571.37" gradientTransform="translate(-5096.08 1.46) rotate(178.75) scale(1 -1) skewX(1.25)" xlink:href="#c"/><linearGradient id="k" x1="212.53" y1="-318.59" x2="209.87" y2="915.35" xlink:href="#c"/><linearGradient id="l" x1="224.39" y1="84.21" x2="184.79" y2="1348.92" xlink:href="#c"/><linearGradient id="m" x1="212.35" y1="-317.49" x2="209.69" y2="914.66" xlink:href="#c"/><linearGradient id="n" x1="221.83" y1="83.36" x2="182.22" y2="1348.07" xlink:href="#c"/><linearGradient id="o" x1="-5306.04" y1="592.37" x2="-5308.08" y2="488.55" gradientTransform="translate(-5096.08 1.46) rotate(178.75) scale(1 -1) skewX(1.25)" xlink:href="#c"/><linearGradient id="p" x1="212.35" y1="-318.59" x2="209.69" y2="915.35" xlink:href="#c"/><linearGradient id="q" x1="221.83" y1="83.36" x2="182.22" y2="1348.07" xlink:href="#c"/><linearGradient id="r" x1="212.17" y1="-317.61" x2="209.51" y2="914.53" xlink:href="#c"/><linearGradient id="s" x1="219.26" y1="82.51" x2="179.65" y2="1347.22" xlink:href="#c"/><linearGradient id="t" x1="-5306.04" y1="509.55" x2="-5308.08" y2="405.73" gradientTransform="translate(-5096.08 1.46) rotate(178.75) scale(1 -1) skewX(1.25)" xlink:href="#c"/><linearGradient id="u" x1="212.17" y1="-318.59" x2="209.51" y2="915.35" xlink:href="#c"/><linearGradient id="v" x1="219.26" y1="82.51" x2="179.65" y2="1347.22" xlink:href="#c"/><linearGradient id="w" x1="211.99" y1="-317.73" x2="209.33" y2="914.41" xlink:href="#c"/><linearGradient id="x" x1="216.69" y1="81.66" x2="177.09" y2="1346.37" xlink:href="#c"/><linearGradient id="y" x1="-5306.04" y1="426.73" x2="-5308.08" y2="322.91" gradientTransform="translate(-5096.08 1.46) rotate(178.75) scale(1 -1) skewX(1.25)" xlink:href="#c"/><linearGradient id="z" x1="212" y1="-318.59" x2="209.33" y2="915.35" xlink:href="#c"/><linearGradient id="aa" x1="216.69" y1="81.66" x2="177.09" y2="1346.37" xlink:href="#c"/><linearGradient id="ab" x1="211.82" y1="-317.86" x2="209.16" y2="914.29" xlink:href="#c"/><linearGradient id="ac" x1="214.12" y1="80.81" x2="174.52" y2="1345.52" xlink:href="#c"/><linearGradient id="ad" x1="-5306.04" y1="343.92" x2="-5308.08" y2="240.09" gradientTransform="translate(-5096.08 1.46) rotate(178.75) scale(1 -1) skewX(1.25)" xlink:href="#c"/><linearGradient id="ae" x1="211.82" y1="-318.59" x2="209.15" y2="915.35" xlink:href="#c"/><linearGradient id="af" x1="214.12" y1="80.81" x2="174.52" y2="1345.52" xlink:href="#c"/><linearGradient id="ag" x1="211.64" y1="-317.98" x2="208.98" y2="914.18" xlink:href="#c"/><linearGradient id="ah" x1="211.56" y1="79.96" x2="171.95" y2="1344.67" xlink:href="#c"/><linearGradient id="ai" x1="-5306.04" y1="261.1" x2="-5308.08" y2="157.27" gradientTransform="translate(-5096.08 1.46) rotate(178.75) scale(1 -1) skewX(1.25)" xlink:href="#c"/><linearGradient id="aj" x1="211.64" y1="-318.59" x2="208.97" y2="915.35" xlink:href="#c"/><linearGradient id="ak" x1="211.56" y1="79.96" x2="171.95" y2="1344.67" xlink:href="#c"/><linearGradient id="al" x1="259.53" y1="644.93" x2="220.56" y2="661.3" gradientUnits="userSpaceOnUse"><stop offset="0" stop-color="#40447e"/><stop offset="1" stop-color="#3c3b6b"/></linearGradient><linearGradient id="am" x1="207.28" y1="464.15" x2="164.44" y2="482.14" xlink:href="#al"/><linearGradient id="an" x1="25.38" y1="474.39" x2="417.15" y2="474.39" xlink:href="#al"/><linearGradient id="ao" x1="356.66" y1="273.51" x2="29.08" y2="731.28" gradientUnits="userSpaceOnUse"><stop offset="0" stop-color="#ffc444"/><stop offset="1" stop-color="#f36f56"/></linearGradient><linearGradient id="ap" x1="25.38" y1="627.71" x2="579.9" y2="627.71" xlink:href="#al"/><linearGradient id="aq" x1="212.27" y1="467.31" x2="276.15" y2="467.31" gradientUnits="userSpaceOnUse"><stop offset="0" stop-color="#ff9085"/><stop offset="1" stop-color="#fb6fbb"/></linearGradient><linearGradient id="ar" x1="79.76" y1="622.9" x2="486.05" y2="622.9" xlink:href="#al"/><linearGradient id="as" x1="542.52" y1="663.74" x2="431.62" y2="569.13" gradientUnits="userSpaceOnUse"><stop offset="0" stop-color="#444b8c"/><stop offset="1" stop-color="#26264f"/></linearGradient><linearGradient id="at" x1="-1741.03" y1="1631.14" x2="-1337.51" y2="1646.15" gradientTransform="translate(-1180.37 -1045.47) rotate(-90)" xlink:href="#as"/><linearGradient id="au" x1="490.86" y1="536.39" x2="348.92" y2="727.25" xlink:href="#ao"/><linearGradient id="av" x1="433.57" y1="570.58" x2="483.58" y2="570.58" xlink:href="#aq"/><linearGradient id="aw" x1="616.09" y1="688.65" x2="546.77" y2="629.52" xlink:href="#as"/><linearGradient id="ax" x1="-1760.14" y1="1738.61" x2="-1485.44" y2="1748.83" gradientTransform="translate(-1180.37 -1045.47) rotate(-90)" xlink:href="#as"/><linearGradient id="ay" x1="584.01" y1="608.62" x2="493.46" y2="730.37" xlink:href="#ao"/><linearGradient id="az" x1="548.49" y1="630.91" x2="578.06" y2="630.91" xlink:href="#aq"/><linearGradient id="ba" x1="-3843.38" y1="618.68" x2="-3922.3" y2="712.52" gradientTransform="translate(3915.5)" gradientUnits="userSpaceOnUse"><stop offset="0" stop-color="#e38ddd"/><stop offset="1" stop-color="#9571f6"/></linearGradient><linearGradient id="bb" x1="-3723.28" y1="829.84" x2="-3729.53" y2="773.02" gradientTransform="translate(3827.06 94.18) rotate(3.02)" gradientUnits="userSpaceOnUse"><stop offset="0" stop-color="#aa80f9"/><stop offset="1" stop-color="#6165d7"/></linearGradient><linearGradient id="bc" x1="-2988.92" y1="617.72" x2="-3067.83" y2="711.56" gradientTransform="translate(-2045.37) rotate(-180) scale(1.04 -1)" xlink:href="#ba"/><linearGradient id="bd" x1="-2870.05" y1="783.85" x2="-2876.3" y2="727.04" gradientTransform="translate(-1953.36 94.18) rotate(177.1) scale(1.04 -1) skewX(-.23)" xlink:href="#bb"/></defs><g class="ci"><g id="a"><g><g><path class="cc" d="M1137.72,418.76c-.36-47.7-.01-95.54,1.04-143.48,.03-1.27,.05-2.54,.07-3.81,.74-42.62-1.97-85.75-14.17-122.12-6.65-19.83-16.12-37.65-29.39-52.27-32.98-36.34-66.77-53.22-106.23-51.08-39.64,2.15-78.88,2.26-116.27-18.43-54.82-30.34-131.06-19.46-186.92,15.99-48.5,30.78-83.57,91.54-105.58,149.27-23.39,61.37-40.88,144.24-24.64,213.27,7.37,31.32,24.66,62.29,50.88,75.27,22.26,11.02,48.08,8.45,72.39,11.91,42.6,6.06,80.84,30.92,113.54,63.44,50.11,49.82,85.84,137.21,149.53,161.43,24.22,9.21,52.3,7.41,80.03-5.12,52.42-23.7,101.32-89.54,114.83-160.81,8.14-42.97,1.19-90.93,.87-133.46Z"/><path class="du" d="M714.59,186.98h-16.49c-2.67-11.09-6.9-21.53-12.44-31.07l11.67-12.07c3.87-4.01,3.87-10.5,0-14.51l-24.02-24.86c-3.87-4.01-10.15-4.01-14.02,0l-11.67,12.07c-9.22-5.73-19.31-10.11-30.02-12.88v-17.07c0-5.67-4.44-10.26-9.91-10.26h-33.96c-5.47,0-9.91,4.59-9.91,10.26v17.07c-10.71,2.77-20.8,7.14-30.02,12.88l-11.67-12.07c-3.87-4.01-10.15-4.01-14.02,0l-24.02,24.86c-3.87,4.01-3.87,10.5,0,14.51l11.67,12.07c-5.54,9.54-9.77,19.99-12.44,31.07h-16.49c-5.47,0-9.91,4.59-9.91,10.26v35.15c0,5.66,4.44,10.26,9.91,10.26h16.49c2.67,11.08,6.9,21.53,12.44,31.07l-11.67,12.07c-3.87,4.01-3.87,10.5,0,14.51l24.02,24.86c3.87,4.01,10.15,4.01,14.02,0l11.67-12.07c9.22,5.73,19.31,10.11,30.02,12.88v17.07c0,5.67,4.44,10.26,9.91,10.26h33.96c5.47,0,9.91-4.59,9.91-10.26v-17.07c10.71-2.77,20.8-7.14,30.02-12.88l11.67,12.07c3.87,4.01,10.15,4.01,14.02,0l24.02-24.86c3.87-4.01,3.87-10.5,0-14.51l-11.67-12.07c5.54-9.54,9.77-19.99,12.44-31.07h16.49c5.47,0,9.91-4.59,9.91-10.26v-35.15c0-5.67-4.44-10.26-9.91-10.26Zm-123.88,97.17c-37,0-67-31.04-67-69.34s30-69.34,67-69.34,67,31.04,67,69.34-30,69.34-67,69.34Z"/><g><path class="cc" d="M804.49,645.91h-6.48c-1.05-4.36-2.71-8.46-4.89-12.21l4.58-4.74c1.52-1.57,1.52-4.13,0-5.7l-9.44-9.77c-1.52-1.57-3.99-1.57-5.51,0l-4.58,4.74c-3.62-2.25-7.59-3.97-11.8-5.06v-6.71c0-2.23-1.74-4.03-3.89-4.03h-13.35c-2.15,0-3.89,1.8-3.89,4.03v6.71c-4.21,1.09-8.18,2.81-11.8,5.06l-4.58-4.74c-1.52-1.57-3.99-1.57-5.51,0l-9.44,9.77c-1.52,1.57-1.52,4.13,0,5.7l4.58,4.74c-2.18,3.75-3.84,7.85-4.89,12.21h-6.48c-2.15,0-3.89,1.8-3.89,4.03v13.81c0,2.23,1.74,4.03,3.89,4.03h6.48c1.05,4.36,2.71,8.46,4.89,12.21l-4.58,4.74c-1.52,1.57-1.52,4.13,0,5.7l9.44,9.77c1.52,1.57,3.99,1.57,5.51,0l4.58-4.74c3.62,2.25,7.59,3.97,11.8,5.06v6.71c0,2.23,1.74,4.03,3.89,4.03h13.35c2.15,0,3.89-1.8,3.89-4.03v-6.71c4.21-1.09,8.18-2.81,11.8-5.06l4.58,4.74c1.52,1.57,3.99,1.57,5.51,0l9.44-9.77c1.52-1.57,1.52-4.13,0-5.7l-4.58-4.74c2.18-3.75,3.84-7.85,4.89-12.21h6.48c2.15,0,3.89-1.8,3.89-4.03v-13.81c0-2.23-1.74-4.03-3.89-4.03Zm-48.68,38.19c-14.54,0-26.33-12.2-26.33-27.25s11.79-27.25,26.33-27.25,26.33,12.2,26.33,27.25-11.79,27.25-26.33,27.25Z"/><path class="cc" d="M741.51,577.47h-3.95c-.64-2.66-1.65-5.16-2.98-7.44l2.79-2.89c.93-.96,.93-2.52,0-3.47l-5.75-5.95c-.93-.96-2.43-.96-3.36,0l-2.79,2.89c-2.21-1.37-4.63-2.42-7.19-3.08v-4.09c0-1.36-1.06-2.46-2.37-2.46h-8.13c-1.31,0-2.37,1.1-2.37,2.46v4.09c-2.57,.66-4.98,1.71-7.19,3.08l-2.79-2.89c-.93-.96-2.43-.96-3.36,0l-5.75,5.95c-.93,.96-.93,2.52,0,3.47l2.79,2.89c-1.33,2.29-2.34,4.79-2.98,7.44h-3.95c-1.31,0-2.37,1.1-2.37,2.46v8.42c0,1.36,1.06,2.46,2.37,2.46h3.95c.64,2.65,1.65,5.16,2.98,7.44l-2.79,2.89c-.93,.96-.93,2.52,0,3.47l5.75,5.95c.93,.96,2.43,.96,3.36,0l2.79-2.89c2.21,1.37,4.63,2.42,7.19,3.08v4.09c0,1.36,1.06,2.46,2.37,2.46h8.13c1.31,0,2.37-1.1,2.37-2.46v-4.09c2.57-.66,4.98-1.71,7.19-3.08l2.79,2.89c.93,.96,2.43,.96,3.36,0l5.75-5.95c.93-.96,.93-2.52,0-3.47l-2.79-2.89c1.33-2.29,2.34-4.79,2.98-7.44h3.95c1.31,0,2.37-1.1,2.37-2.46v-8.42c0-1.36-1.06-2.46-2.37-2.46Zm-29.67,23.27c-8.86,0-16.05-7.44-16.05-16.61s7.18-16.61,16.05-16.61,16.05,7.44,16.05,16.61-7.18,16.61-16.05,16.61Z"/></g></g><g><ellipse class="dd" cx="678.93" cy="695.72" rx="238.13" ry="27.83"/><g><g><path class="dz" d="M986.41,476.3c-35.31,30.48-56.41,74.19-56.41,120.84h-178.63c0-46.51-20.83-90.25-56.08-120.56-48.32-41.54-78.65-103.4-77.66-172.36,1.68-116.4,96.18-214.17,212.48-219.54,128.01-5.91,233.66,96.12,233.66,222.84,0,67.48-29.99,127.91-77.36,168.79Zm-55.49,135.84h-180.47v28.04h180.47v-28.04Zm0,45.2h-180.47c0,27.01,21.9,48.91,48.91,48.91h82.65c27.01,0,48.91-21.9,48.91-48.91Z"/><g class="cq"><g><g><path class="bn" d="M917.9,467.81l10.4,14.46,6.55,2.3c2.43,.86,5.66,4.72,4.78,7.14-4.51,12.43-19.28,46.06-23.02,50.91,0,0-4.99-4.15-3.17-8.38,1.81-4.23,4.45-36.07,4.45-36.07l-9.93-13.34,9.94-17.02Z"/><path class="eb" d="M942.17,490.61s-6.6-7.73-10.55-7.17c0,0,3.46,5.47,2.16,12.75-1.96,6.03-6.82,25.71-17.71,21.43-1.87,6.75-4.34,20.27-3.29,26.71,0,0,3.49,.81,5.5-1.32,0,0,7.42-10.35,9.93-14.3l12.49-30.72,8.92-.31,1.58-3.58-9.02-3.49Z"/><path class="eb" d="M951.7,344.47s-98.83,18.13-111.71,24.8c-12.88,6.66-1.99,22.3,15.4,46.05,17.4,23.74,55.59,78.76,55.59,78.76l14.98-17.12-42.89-76.15s102.98,2.09,113.13-9.9c10.15-11.99,9.81-28.13,4.61-47.25l-49.12,.82Z"/></g><g><path class="eb" d="M872.74,145.72c-9.78-.23-32.57,39.78,32.47,62.28,22.21,7.69,64.66-1.76,73.42-13.38,0,0-35.21-76.6-72.61-72.88-31.22,3.11-33.28,23.97-33.28,23.97Z"/><g><path class="bn" d="M795.62,313.81l14.75-9.48,19.41,3.01,66.25-13.72,2.24,19.42-66.12,1.94-7.08,1.6c-2.06,.46-4.22,.17-6.08-.84l-8.84-4.79-13,7.48-1.54-4.62Z"/><path class="cj" d="M915.55,209.19c-15.23,1.97-7.73,24.65-14.33,80.62l-64.57,10.84,3.5,15.69s69.99-.85,80.67-2.62c11.71-29,20.48-107.86-5.26-104.54Z"/></g><path class="bn" d="M943.87,206.13c-6.81,6.34-5.71,14.12-15.62,13.71-15.45,2.16-14.96-18.14-14.96-18.14-5.94,1.97-16.86,2.94-25.55-10.13-9.89-14.88-12.64-28.18-14.1-40.78-.94-8.09,2.48-13.31,16.13-17.09,13.65-3.79,23.77,.32,34.93,14.85,9.14,11.93,10.71,39.95,10.71,39.95,2.41,5.15,8.46,17.64,8.46,17.64Z"/><path class="dr" d="M1000.82,343.66s-32.22,2.65-49.12,.82c-6.43-50.47-13.97-62.17-13.97-62.17-17.37-2.16-22.51-7.73-22.5-16.1-2.91-33.73-7.41-52.2-7.41-52.2,2.3-3.73,6.64-4.56,6.64-4.56,0,0,1.68,11.81,13.81,10.38,13.08-1.54,7.16-16.49,7.16-16.49,6.99-4.58,14.41-4.93,22.11-3.2,7.7,1.73,14.33,6.7,19.61,12.55,12.44,13.78,13.01,28.34,15.04,46.79,2.02,18.46-1.3,25.48-.28,47.96,.72,15.92,7.9,32.28,8.92,36.21Z"/><g><path class="bn" d="M848.31,338l8.59-14.14c1.1-1.49,2.75-2.49,4.59-2.77l17.45-2.72,72.85-12.28,.78,18.68-68.55,1.11-6.45,4.08c-1.88,1.19-4.12,1.58-6.32,1.1l-10.47-2.27-10.2,12.42-2.26-3.2Z"/><path class="ce" d="M946.6,211.38c2.95-6.71,5.83-11.39,13.89-11.1,22.56,.81,7.05,34.3,22.92,99.48,1.61,6.6,2.52,24.27-16.18,25.32-18.7,1.05-72.18,6.86-72.18,6.86l-7.31-21.52,65.58-9.07s-14.37-72.59-6.73-89.97Z"/></g></g><g><path class="ds" d="M828.88,335.11h-117.09l-20.27-64.98c-1.7-5.46,2.37-11,8.09-11h99.34c3.71,0,6.99,2.41,8.09,5.95l21.84,70.02Z"/><path class="bv" d="M711.79,335.11h177.86c1.01,0,1.83,.82,1.83,1.83v3.16c0,1.01-.82,1.83-1.83,1.83h-173.85c-2.22,0-4.01-1.8-4.01-4.01v-2.8h0Z"/><path class="ea" d="M711.79,335.11h117.09v3.98c0,1.56-1.27,2.84-2.84,2.84h-110.16c-2.26,0-4.1-1.83-4.1-4.1v-2.72h0Z"/><path class="dd" d="M753.73,289.52c-.26,0-.51,.06-.76,.09-.04,3.84-2.43,6.97-5.51,7.42,0,.03,0,.06,0,.09,0,4.2,2.81,7.6,6.28,7.6s6.28-3.4,6.28-7.6-2.81-7.6-6.28-7.6Z"/></g><g><g><path class="bn" d="M880.68,515.97l1.33,15.09,2.09,6.62c.78,2.46-.38,7.36-2.85,8.11-12.65,3.85-48.41,12.22-54.53,12.14,0,0,.33-6.48,4.8-7.57,4.47-1.09,31.52-18.09,31.52-18.09l-.12-12.77,17.76-3.52Z"/><path class="eb" d="M884.33,549.28s.6-12.33-1.15-15.56c0,0-2.41,6.75-9.02,10.08-6,2.05-24.65,9.97-27.77-1.31-6.52,2.56-18.82,8.7-23.34,13.4,0,0,1.45,3.28,4.36,3.61,0,0,12.73-.28,17.4-.64l33.37-6.83,4.29,5.33,3.81-.89-1.95-7.2Z"/></g><path class="dp" d="M1000.82,343.66c8.8,18.43,26.12,61.89-18.07,64.49-50.88,2.99-114.26,2.46-114.26,2.46l14.96,111.42-23.93,4.54s-6.43-39-15.44-73.67c-9-34.68-28.97-68.86-2.58-78.39,26.38-9.54,159.32-30.85,159.32-30.85Z"/></g><g><path class="ch" d="M871.95,598.87h-166.65c-5.55,0-10.39-3.74-12.63-9.77-2.24-6.03-1.3-12.79,2.44-17.66l87.32-113.38-77.52-100.65c-1.7-2.21-1.57-5.64,.29-7.66,1.86-2.02,4.75-1.87,6.46,.35l76.97,99.93,76.97-99.93c1.7-2.21,4.6-2.36,6.46-.35,1.86,2.02,1.99,5.45,.29,7.66l-77.52,100.65,87.32,113.38c3.74,4.86,4.68,11.63,2.44,17.65-2.24,6.03-7.08,9.77-12.63,9.77Zm-83.32-132.77l-86.77,112.65c-1.9,2.47-1.11,5.19-.83,5.96,.29,.77,1.45,3.3,4.27,3.3h166.65c2.82,0,3.98-2.53,4.27-3.3,.29-.77,1.08-3.49-.83-5.96l-86.77-112.65Z"/><path class="ct" d="M936.47,354.83h-295.69c-3.56,0-6.45-2.89-6.45-6.45h0c0-3.56,2.89-6.45,6.45-6.45h295.69c3.56,0,6.45,2.89,6.45,6.45h0c0,3.56-2.89,6.45-6.45,6.45Z"/></g><g><polygon class="ch" points="1022.3 581.76 946.04 581.76 963.53 419.19 969.59 419.84 952.82 575.67 1015.52 575.67 998.81 420.36 1004.87 419.71 1022.3 581.76"/><path class="ch" d="M1004.74,599.33h-76.27l20.46-188.39h35.34l20.46,188.39Zm-69.48-6.09h62.69l-19.14-176.2h-24.41l-19.14,176.2Z"/><g><rect class="ct" x="923.86" y="407.75" width="95.93" height="13.17"/><polygon class="ct" points="1024.45 420.92 1015.26 420.92 1024.45 371.27 1033.63 371.27 1024.45 420.92"/></g></g></g></g></g><path class="dp" d="M944.67,206.92c-26.37,8.04-22.57-18.1-22.57-18.1,10.01,2.21,7.27-21.78-2.94-23.13-6.51-.86-5.06,8.97-5.06,8.97-23.2,14.02-51.85-10.99-49.2-28.87,1.43-9.66,3.81-16,15-22.75,13.72-8.29,27.29-5.17,39.59-.49,26.45,10.06,26.89,36.76,54.45,38.03,62.54,2.89,47.99,44.29,83.18,54.59,20.23,5.92,46.02,11.51,47.65,44.88,1.98,40.48-69.28,41.72-90.8,37.13-28.01-5.98-31.73-52.77-37.53-70.4-7.16-21.74-14.3-25.19-31.77-19.86Z"/></g></g><g><path class="eb" d="M678.1,286.9c-13.64,0-19.03,5.63-19.03,17.76,0,1.11-2.12,1.11-2.12,0,0-12.12-4.31-17.76-19.03-17.76-1.1,0-1.1-2.12,0-2.12,15.17,0,19.03-7.02,19.03-17.73,0-1.11,2.12-1.11,2.12,0,0,12.76,5.16,17.73,19.03,17.73,1.1,0,1.1,2.12,0,2.12Z"/><path class="eb" d="M612.26,228.68c-19.01,0-26.52,7.85-26.52,24.75,0,1.55-2.95,1.55-2.95,0,0-16.9-6.01-24.75-26.52-24.75-1.53,0-1.53-2.96,0-2.96,21.14,0,26.52-9.79,26.52-24.72,0-1.55,2.95-1.55,2.95,0,0,17.79,7.2,24.72,26.52,24.72,1.53,0,1.53,2.96,0,2.96Z"/><path class="eb" d="M687.29,114.55c-34.07,0-47.53,14.07-47.53,44.36,0,2.78-5.3,2.78-5.3,0,0-30.28-10.78-44.36-47.53-44.36-2.75,0-2.75-5.31,0-5.31,37.89,0,47.53-17.54,47.53-44.3,0-2.78,5.29-2.78,5.29,0,0,31.87,12.9,44.3,47.53,44.3,2.75,0,2.75,5.31,0,5.31Z"/></g><g><path class="dv" d="M666.02,694.08c0,4.77-21.62,8.64-48.3,8.64s-48.3-3.87-48.3-8.64,21.62-8.64,48.3-8.64,48.3,3.87,48.3,8.64Z"/><g><g><path class="ea" d="M662.85,696.47c-10.28,3.11-26.18,2.89-37.34,0-2.64-.69-5.08-1.93-5.62-4.61l-10.62-53.26h69.81l-10.62,53.26c-.53,2.68-3,3.82-5.62,4.61Z"/><ellipse class="dj" cx="644.29" cy="638.6" rx="34.8" ry="5.1"/><path class="ds" d="M677.63,645.9c-7.28,5.98-15.26,11.1-23.74,15.2-2.4,1.16-4.96,2.33-6.52,4.5-1.56,2.17-1.62,5.68,.62,7.13,.95,.61,2.36,1.06,2.35,2.19,0,.5-.32,.94-.65,1.31-2.36,2.7-5.93,3.98-8.68,6.28-2.75,2.3-4.52,6.73-2.1,9.37,1.09,1.19,2.44,2.19,3.94,2.77,1.97,.75,2.41,4.07,3.18,4.07,10.46,0,16.8-2.24,16.8-2.24,2.73,0,5.08-1.93,5.62-4.61l9.16-45.96Z"/></g><g><path class="dp" d="M632.13,373.04c-2.24-9.22-1.76-17.69-.22-27.05,1.54-9.36,5.66-18.17,14.99-16.44,8.92,1.66,12.13,12.52,12.65,20.34,.71,10.86-2.78,21.29-3.96,31.97-1.8,16.18,1.91,33.87,6.16,49.59,3.4,12.61,7.65,22.8,10.96,37.53,2.03,9.05,2.59,21.64-.37,33.81-2.99,12.3-22.54,56.3-26.34,101.43-1.81-57.71-13.27-73.89-17.08-93.58-1.57-8.13-3.3-16.18-2.56-24.43,1.87-21.02,7.69-41.47,11.2-62.28,3.5-20.81-.11-29.11-5.4-50.89Z"/><g><path class="do" d="M643.89,639.82s-.07,0-.11,0c-.67-.06-1.17-.65-1.11-1.32,8.91-103.62,1.79-281.33,1.71-283.12-.03-.68,.5-1.25,1.17-1.27,.66-.03,1.25,.5,1.27,1.17,.07,1.78,7.2,179.66-1.72,283.43-.06,.64-.59,1.12-1.22,1.12Z"/><path class="do" d="M648.21,533.37s-.04,0-.06,0c-.68-.03-1.2-.6-1.17-1.28,1.37-30.47,15.28-39.92,15.87-40.31,.57-.37,1.32-.21,1.69,.35,.37,.56,.21,1.32-.35,1.69h0c-.14,.09-13.47,9.27-14.77,38.37-.03,.66-.57,1.17-1.22,1.17Z"/><path class="do" d="M648.39,511.29c-.64,0-1.18-.5-1.22-1.15-1.83-30.93-13.31-35.27-13.42-35.31-.63-.22-.98-.91-.76-1.55,.21-.64,.89-.98,1.53-.78,.54,.17,13.16,4.62,15.1,37.49,.04,.67-.47,1.25-1.15,1.29-.02,0-.05,0-.07,0Z"/><path class="do" d="M648.28,473.28s-.08,0-.12,0c-.67-.06-1.17-.66-1.1-1.34,2.3-23.98,9.9-30.94,10.23-31.23,.51-.45,1.28-.4,1.73,.11,.45,.51,.4,1.28-.1,1.72-.1,.09-7.23,6.84-9.42,29.63-.06,.63-.59,1.11-1.22,1.11Z"/></g></g><g><path class="dp" d="M567.69,458.11c-2.69-6.65-14.26-31.81-12.37-40.4,4.98,1.98,18.83,23.45,23.39,33.07,5.53,11.18,16.32,27.77,23.72,37.94,5.94,8.14,9.32,10.27,13.77,19.42,3.28,6.49,8.39,33.44,8.76,43.13,.78,18.1-3.91,21.68,1.38,55.85-11.29-42.97-35.35-68.57-39.25-81.3-4.47-14.52-4.6-20.42-8.04-35.94-3.64-15.48-2.85-11.56-11.35-31.77Z"/><g><path class="do" d="M630.96,641.05c-.63,0-1.17-.49-1.22-1.13-6.08-77-56.28-184.26-60.95-190.2-.11-.06-.21-.15-.3-.25-.45-.51-.39-1.28,.11-1.73,.35-.3,.89-.39,1.32-.22,2.06,.84,16.88,32.19,29.87,66.33,12.92,33.96,29.03,83.36,32.39,125.86,.05,.67-.45,1.26-1.12,1.32-.03,0-.07,0-.1,0Zm-60.74-191.45c-.06,.05-.12,.09-.18,.13,.06-.04,.12-.08,.18-.13Zm0,0s0,0,0,0c0,0,0,0,0,0Z"/><path class="do" d="M614.31,561.4c-.54,0-1.04-.37-1.18-.92-5.68-21.88,1.03-32.94,2.14-33.65,.57-.36,1.33-.19,1.69,.38,.29,.46,.24,1.04-.09,1.43-.32,.45-6.87,10.01-1.37,31.22,.17,.65-.22,1.32-.88,1.49-.1,.03-.21,.04-.31,.04Z"/><path class="do" d="M609.4,545.27c-.49,0-.95-.29-1.14-.77-8.27-20.86-16.95-21.82-17.92-21.86-.57-.02-1.09-.45-1.19-1.01l1.21-.21,.08-1.22c1.85,.08,11.44,1.57,20.1,23.41,.25,.63-.06,1.34-.69,1.59-.15,.06-.3,.09-.45,.09Z"/><path class="do" d="M599.88,517.87c-.54,0-1.04-.36-1.18-.91-4.61-17.46-1.81-25.4-.68-25.85,.63-.25,1.34,.06,1.59,.68,.14,.35,.11,.73-.06,1.04-.17,.4-2.84,6.98,1.52,23.5,.17,.65-.22,1.32-.87,1.5-.11,.03-.21,.04-.31,.04Z"/></g></g><g><path class="da" d="M708.07,512.77c3.48-4.04,19.13-18.09,26.1-17.41-.81,3.93-12.7,17.77-17.42,23.49-5.95,6.55-12.45,18.9-14.98,27.11-2.08,6.58-1.62,9.38-4.39,15.44-2.11,4.15-13.04,18.37-17.08,23.56-7.56,9.44-15.86,12.87-23.86,36.43,5.34-30.77,9.64-60.73,15.5-69.64,6.41-9.68,10.1-12.43,18.7-20.71,8.87-8,6.24-6.28,17.44-18.27Z"/><g><path class="do" d="M651.92,641.05c-.08,0-.16,0-.25-.02-.66-.13-1.09-.78-.96-1.44,5.91-29.15,18.78-62.63,33.57-87.36,11.19-19.68,23.55-33.81,28.21-39.13,.71-.82,1.39-1.59,1.64-1.9,.22-.58,.86-.9,1.47-.73,.41,.11,.74,.43,.86,.84,.22,.74,.18,.79-2.12,3.41-4.61,5.27-16.86,19.26-27.94,38.75-14.67,24.53-27.42,57.71-33.28,86.61-.12,.58-.63,.98-1.2,.98Z"/><path class="do" d="M669.42,585.58c-.18,0-.36-.04-.53-.12-.61-.29-.86-1.03-.57-1.64,6.86-14.18,16.31-15.55,18.14-15.68l.13,1.22,1.22,.04c-.02,.63-.55,1.14-1.17,1.18-.97,.07-9.7,1.07-16.11,14.31-.21,.44-.65,.69-1.1,.69Z"/><path class="do" d="M674.38,574.67c-.16,0-.31-.03-.47-.09-.63-.26-.92-.97-.66-1.6,6.05-14.64,2.45-20.08,2.17-20.46-.36-.34-.49-.89-.28-1.37,.27-.62,.99-.9,1.61-.64,.07,.03,6.27,5.23-1.24,23.41-.19,.47-.65,.76-1.13,.76Z"/><path class="do" d="M684.01,556.43c-.26,0-.52-.08-.74-.25-.54-.41-.64-1.18-.24-1.72,7.11-9.37,12.92-10.79,14.53-11l.23,1.2,1.2,.24c-.1,.52-.59,.92-1.11,.99-.98,.13-6.2,1.22-12.9,10.05-.24,.32-.61,.48-.98,.48Z"/></g></g></g></g><g><g><circle class="eb" cx="708.73" cy="117.88" r="28.4"/><g><path class="bu" d="M689.48,116.23l11.73-4.95,1.06,3.3-8.56,3.34,8.56,3.34-1.06,3.3-11.73-4.96v-3.37Z"/><path class="bu" d="M707.1,131.13h-4.17l9.17-26.4h4.12l-9.11,26.4Z"/><path class="bu" d="M729.65,119.61l-11.73,4.96-1.06-3.3,8.56-3.34-8.56-3.34,1.06-3.3,11.73,4.95v3.37Z"/></g></g><g><circle class="cc" cx="771.33" cy="131.87" r="19.95" transform="translate(102.08 537.38) rotate(-40.91)"/><circle class="cc" cx="740.08" cy="180.89" r="9.97"/><path class="cc" d="M753.31,232.95c0-2.55-2.06-4.61-4.61-4.61s-4.61,2.06-4.61,4.61,2.06,4.61,4.61,4.61,4.61-2.06,4.61-4.61Z"/></g><g><circle class="eb" cx="781.13" cy="102.45" r="33.76"/><g><path class="bu" d="M763.66,96.43c.15,.52,.32,1.11,.51,1.77,.19,.66,.38,1.34,.59,2.04,.21,.7,.42,1.41,.64,2.11,.22,.7,.43,1.35,.63,1.96,.17-.65,.34-1.36,.51-2.13,.17-.77,.34-1.56,.49-2.38,.15-.82,.31-1.63,.45-2.44,.15-.81,.29-1.59,.41-2.35h3.11c-.45,2.22-.97,4.48-1.55,6.77-.58,2.29-1.22,4.46-1.9,6.52h-2.73c-.45-1.23-.88-2.51-1.3-3.86-.42-1.35-.84-2.7-1.24-4.05-.41,1.35-.82,2.71-1.23,4.05-.41,1.35-.84,2.64-1.29,3.86h-2.73c-.68-2.06-1.31-4.23-1.9-6.52-.58-2.29-1.1-4.54-1.55-6.77h3.24c.13,.75,.27,1.54,.42,2.35,.15,.81,.31,1.63,.48,2.44,.17,.82,.34,1.61,.51,2.38,.17,.77,.35,1.48,.53,2.13,.23-.63,.45-1.29,.67-1.99,.22-.7,.43-1.41,.63-2.11,.2-.7,.39-1.38,.57-2.03,.17-.65,.33-1.23,.47-1.74h2.55Z"/><path class="bu" d="M782.35,96.43c.15,.52,.32,1.11,.51,1.77,.19,.66,.38,1.34,.59,2.04,.21,.7,.42,1.41,.64,2.11,.22,.7,.43,1.35,.63,1.96,.17-.65,.34-1.36,.51-2.13,.17-.77,.34-1.56,.49-2.38,.15-.82,.31-1.63,.45-2.44,.15-.81,.29-1.59,.41-2.35h3.11c-.45,2.22-.97,4.48-1.55,6.77-.58,2.29-1.22,4.46-1.9,6.52h-2.73c-.45-1.23-.88-2.51-1.3-3.86-.42-1.35-.84-2.7-1.24-4.05-.41,1.35-.82,2.71-1.23,4.05-.41,1.35-.84,2.64-1.29,3.86h-2.73c-.68-2.06-1.31-4.23-1.9-6.52-.58-2.29-1.1-4.54-1.55-6.77h3.24c.13,.75,.27,1.54,.42,2.35,.15,.81,.31,1.63,.48,2.44,.17,.82,.34,1.61,.51,2.38,.17,.77,.35,1.48,.53,2.13,.23-.63,.45-1.29,.67-1.99,.22-.7,.43-1.41,.63-2.11,.2-.7,.39-1.38,.57-2.03,.17-.65,.33-1.23,.47-1.74h2.55Z"/><path class="bu" d="M801.04,96.43c.15,.52,.32,1.11,.51,1.77,.19,.66,.38,1.34,.59,2.04,.21,.7,.42,1.41,.64,2.11,.22,.7,.43,1.35,.63,1.96,.17-.65,.34-1.36,.51-2.13,.17-.77,.34-1.56,.49-2.38,.15-.82,.31-1.63,.45-2.44,.15-.81,.29-1.59,.41-2.35h3.11c-.45,2.22-.97,4.48-1.55,6.77-.58,2.29-1.22,4.46-1.9,6.52h-2.73c-.45-1.23-.88-2.51-1.3-3.86-.42-1.35-.84-2.7-1.24-4.05-.41,1.35-.82,2.71-1.23,4.05-.41,1.35-.84,2.64-1.29,3.86h-2.73c-.68-2.06-1.31-4.23-1.9-6.52-.58-2.29-1.1-4.54-1.55-6.77h3.24c.13,.75,.27,1.54,.42,2.35,.15,.81,.31,1.63,.48,2.44,.17,.82,.34,1.61,.51,2.38,.17,.77,.35,1.48,.53,2.13,.23-.63,.45-1.29,.67-1.99,.22-.7,.43-1.41,.63-2.11,.2-.7,.39-1.38,.57-2.03,.17-.65,.33-1.23,.47-1.74h2.55Z"/></g></g><g><circle class="eb" cx="825.85" cy="150.58" r="23.96"/><g><path class="bu" d="M815.13,145.21h2.09v9.29h-2.09v-3.94h-3.51v3.94h-2.09v-9.29h2.09v3.55h3.51v-3.55Z"/><path class="bu" d="M826.25,145.21v1.78h-2.8v7.5h-2.09v-7.5h-2.8v-1.78h7.69Z"/><path class="bu" d="M829.92,145.21c.16,.29,.35,.66,.56,1.09,.21,.43,.43,.9,.66,1.41s.45,1.02,.68,1.55c.22,.53,.43,1.02,.63,1.49,.2-.46,.41-.96,.63-1.49,.22-.53,.45-1.04,.68-1.55s.45-.97,.66-1.41c.21-.43,.4-.8,.56-1.09h1.9c.09,.62,.17,1.31,.25,2.07,.08,.76,.14,1.56,.2,2.39,.06,.83,.11,1.66,.16,2.49,.05,.83,.09,1.61,.13,2.34h-2.04c-.03-.9-.06-1.89-.11-2.95s-.11-2.14-.2-3.22c-.16,.38-.34,.79-.54,1.25-.2,.46-.39,.91-.58,1.37s-.38,.89-.56,1.31c-.18,.42-.33,.77-.46,1.07h-1.46c-.13-.29-.28-.65-.46-1.07-.18-.42-.37-.85-.56-1.31-.19-.46-.39-.91-.58-1.37-.2-.46-.38-.87-.54-1.25-.09,1.08-.16,2.15-.2,3.22-.04,1.06-.08,2.05-.11,2.95h-2.04c.03-.73,.08-1.51,.13-2.34,.05-.83,.1-1.66,.16-2.49,.06-.83,.13-1.62,.2-2.39s.16-1.45,.25-2.07h2Z"/><path class="bu" d="M845.68,152.71v1.8h-6.2v-9.29h2.09v7.49h4.11Z"/></g></g><g><circle class="eb" cx="775.24" cy="175.27" r="19.11" transform="translate(-19.32 194.84) rotate(-14.15)"/><g><path class="bu" d="M768.1,180.19c-1.57,0-2.76-.44-3.58-1.31-.82-.87-1.23-2.11-1.23-3.71,0-.8,.13-1.51,.37-2.13,.25-.63,.59-1.15,1.03-1.59,.44-.43,.95-.76,1.56-.98,.6-.22,1.26-.33,1.96-.33,.41,0,.78,.03,1.11,.09,.33,.06,.63,.13,.88,.21,.25,.08,.46,.16,.63,.24,.17,.08,.29,.15,.36,.19l-.62,1.75c-.3-.16-.64-.29-1.04-.4-.39-.11-.84-.17-1.34-.17-.33,0-.66,.06-.98,.17-.32,.11-.6,.29-.85,.54-.25,.25-.44,.56-.59,.95-.15,.39-.22,.86-.22,1.42,0,.45,.05,.86,.15,1.24,.1,.38,.25,.72,.47,.99,.22,.28,.5,.5,.86,.66,.35,.16,.78,.24,1.28,.24,.32,0,.6-.02,.85-.06,.25-.04,.47-.08,.67-.13,.19-.05,.37-.11,.51-.17,.15-.06,.28-.13,.4-.18l.6,1.74c-.31,.19-.74,.35-1.29,.5-.56,.15-1.2,.22-1.93,.22Z"/><path class="bu" d="M775.58,178.34c.31,0,.56-.03,.76-.08s.36-.12,.48-.21c.12-.09,.2-.19,.25-.31,.05-.12,.07-.25,.07-.4,0-.32-.15-.58-.44-.79-.3-.21-.81-.43-1.53-.67-.32-.11-.63-.24-.95-.38-.32-.14-.6-.32-.85-.54-.25-.22-.45-.48-.61-.79-.16-.31-.24-.69-.24-1.13s.08-.85,.25-1.2c.17-.36,.4-.66,.71-.91,.31-.25,.68-.44,1.11-.58,.43-.13,.93-.2,1.47-.2,.65,0,1.21,.07,1.68,.21,.47,.14,.86,.29,1.17,.46l-.63,1.71c-.27-.14-.57-.26-.9-.37-.33-.11-.73-.16-1.19-.16-.52,0-.89,.07-1.12,.22-.23,.14-.34,.36-.34,.66,0,.18,.04,.32,.13,.45,.08,.12,.2,.23,.35,.33,.15,.1,.33,.19,.53,.26,.2,.08,.42,.16,.66,.24,.5,.19,.94,.37,1.31,.55,.37,.18,.68,.39,.92,.63,.25,.24,.43,.52,.55,.85,.12,.32,.18,.72,.18,1.18,0,.9-.32,1.6-.94,2.09-.63,.5-1.58,.74-2.85,.74-.43,0-.81-.03-1.15-.08-.34-.05-.65-.11-.91-.19-.26-.07-.49-.15-.68-.24-.19-.08-.35-.16-.48-.24l.61-1.72c.29,.16,.64,.3,1.06,.42,.42,.13,.94,.19,1.55,.19Z"/><path class="bu" d="M783.67,178.34c.31,0,.56-.03,.76-.08,.2-.05,.36-.12,.48-.21,.12-.09,.2-.19,.25-.31,.05-.12,.07-.25,.07-.4,0-.32-.15-.58-.44-.79-.3-.21-.81-.43-1.53-.67-.32-.11-.63-.24-.95-.38-.32-.14-.6-.32-.85-.54-.25-.22-.45-.48-.61-.79-.16-.31-.24-.69-.24-1.13s.08-.85,.25-1.2c.17-.36,.4-.66,.71-.91,.31-.25,.68-.44,1.11-.58,.43-.13,.93-.2,1.47-.2,.65,0,1.21,.07,1.68,.21s.86,.29,1.17,.46l-.63,1.71c-.27-.14-.57-.26-.9-.37-.33-.11-.72-.16-1.19-.16-.52,0-.89,.07-1.12,.22-.23,.14-.34,.36-.34,.66,0,.18,.04,.32,.13,.45,.08,.12,.2,.23,.35,.33,.15,.1,.33,.19,.53,.26,.2,.08,.42,.16,.66,.24,.5,.19,.94,.37,1.31,.55,.37,.18,.68,.39,.92,.63,.25,.24,.43,.52,.55,.85,.12,.32,.18,.72,.18,1.18,0,.9-.32,1.6-.94,2.09-.63,.5-1.58,.74-2.85,.74-.43,0-.81-.03-1.15-.08-.34-.05-.65-.11-.91-.19-.26-.07-.49-.15-.68-.24-.19-.08-.35-.16-.48-.24l.61-1.72c.29,.16,.64,.3,1.06,.42s.94,.19,1.55,.19Z"/></g></g><g><circle class="eb" cx="745.61" cy="214.51" r="12.22" transform="translate(-27.36 147.7) rotate(-11.11)"/><g><path class="bu" d="M743.91,215.86c0,.47-.05,.92-.16,1.34-.11,.42-.29,.78-.56,1.09-.27,.31-.62,.56-1.07,.74-.45,.18-1.02,.27-1.71,.27-.63,0-1.18-.08-1.63-.23-.45-.15-.83-.33-1.13-.54l.73-1.69c.27,.16,.56,.3,.86,.42,.31,.12,.64,.18,1,.18,.53,0,.91-.13,1.14-.39,.23-.26,.35-.7,.35-1.31v-6.3h2.17v6.41Z"/><path class="bu" d="M748.64,217.45c.31,0,.56-.03,.76-.08,.2-.05,.36-.12,.48-.21,.12-.09,.2-.19,.25-.31,.05-.12,.07-.26,.07-.4,0-.32-.15-.58-.45-.79-.3-.21-.81-.43-1.53-.68-.32-.11-.63-.24-.95-.38-.32-.14-.6-.32-.85-.54-.25-.22-.46-.48-.61-.79-.16-.31-.24-.69-.24-1.14s.08-.85,.25-1.21c.17-.36,.4-.66,.71-.91,.31-.25,.68-.44,1.11-.58,.44-.13,.93-.2,1.48-.2,.65,0,1.21,.07,1.69,.21,.47,.14,.86,.29,1.17,.46l-.63,1.71c-.27-.14-.57-.26-.9-.37-.33-.11-.73-.16-1.19-.16-.52,0-.89,.07-1.12,.22-.23,.14-.34,.36-.34,.66,0,.18,.04,.33,.13,.45,.08,.12,.2,.23,.36,.33,.15,.1,.33,.19,.53,.27,.2,.08,.42,.16,.66,.24,.5,.19,.94,.37,1.31,.55,.37,.18,.68,.39,.93,.63,.25,.24,.43,.52,.55,.85,.12,.33,.18,.72,.18,1.18,0,.9-.32,1.6-.95,2.1-.63,.5-1.58,.75-2.86,.75-.43,0-.81-.03-1.16-.08-.34-.05-.65-.11-.91-.19-.26-.07-.49-.15-.68-.24-.19-.08-.35-.16-.48-.24l.61-1.73c.29,.16,.64,.3,1.07,.43,.42,.13,.94,.19,1.55,.19Z"/></g></g><g><path class="eb" d="M771.33,242.61c0-4.54-3.68-8.23-8.23-8.23s-8.23,3.68-8.23,8.23,3.68,8.23,8.23,8.23,8.23-3.68,8.23-8.23Z"/><g><path class="bu" d="M759.52,242.18c.28,0,.49-.08,.61-.24,.12-.16,.19-.38,.19-.64v-1.42c0-.27,.03-.51,.1-.72,.07-.21,.18-.39,.34-.53,.16-.14,.37-.25,.64-.33,.27-.07,.6-.11,.99-.11h.19v1.12h-.23c-.28,0-.47,.06-.57,.19-.1,.13-.15,.32-.15,.58v1.25c0,.33-.04,.6-.13,.83-.09,.23-.26,.42-.53,.58,.26,.16,.44,.36,.53,.58,.09,.23,.13,.5,.13,.83v1.25c0,.26,.05,.46,.15,.58,.1,.12,.29,.19,.57,.19h.23v1.12h-.19c-.39,0-.72-.04-.99-.11s-.48-.18-.64-.33c-.16-.14-.27-.32-.34-.53-.07-.21-.1-.45-.1-.72v-1.42c0-.26-.06-.48-.19-.64-.13-.16-.33-.24-.61-.24v-1.11Z"/><path class="bu" d="M766.67,243.29c-.28,0-.49,.08-.61,.24-.12,.16-.19,.38-.19,.64v1.42c0,.27-.03,.51-.1,.72-.07,.21-.18,.39-.34,.53-.16,.14-.37,.25-.64,.33s-.6,.11-.99,.11h-.19v-1.12h.23c.28,0,.47-.06,.57-.19,.1-.13,.15-.32,.15-.58v-1.25c0-.33,.04-.6,.13-.83,.09-.23,.26-.42,.53-.58-.26-.16-.44-.36-.53-.58-.09-.22-.13-.5-.13-.83v-1.25c0-.26-.05-.46-.15-.58-.1-.12-.29-.19-.57-.19h-.23v-1.12h.19c.39,0,.72,.04,.99,.11,.27,.08,.48,.18,.64,.33,.16,.14,.27,.32,.34,.53,.07,.21,.1,.45,.1,.72v1.42c0,.26,.06,.48,.19,.64,.13,.16,.33,.24,.61,.24v1.11Z"/></g></g><g><circle class="eb" cx="699.13" cy="58.98" r="21.28"/><g><path class="cw" d="M692.32,63.22h-2.11l-3.36-6.08v6.08h-2v-8.72h2.69l2.78,5v-5h2v8.72Z"/><path class="cw" d="M700.29,59.93c0,1.08-.3,1.93-.89,2.56s-1.43,.93-2.51,.93-1.91-.31-2.5-.93-.89-1.48-.89-2.56,.3-1.95,.89-2.57,1.43-.93,2.5-.93,1.91,.31,2.51,.93,.89,1.48,.89,2.56Zm-2.1,.01c0-.39-.03-.72-.1-.98s-.15-.47-.27-.62c-.12-.16-.26-.28-.41-.34s-.33-.1-.52-.1c-.18,0-.35,.03-.5,.08s-.29,.17-.41,.33c-.12,.15-.21,.36-.28,.63s-.11,.6-.11,1,.03,.73,.1,.98,.15,.45,.26,.59c.11,.15,.25,.26,.41,.33s.35,.11,.54,.11c.16,0,.33-.04,.5-.11s.31-.18,.41-.32c.12-.17,.21-.37,.28-.61s.09-.56,.09-.98Z"/><path class="cw" d="M707.36,63.22h-2.05v-.69c-.13,.11-.28,.23-.45,.35s-.32,.22-.45,.28c-.16,.08-.33,.14-.49,.18s-.35,.06-.57,.06c-.75,0-1.34-.31-1.78-.93s-.66-1.45-.66-2.49c0-.57,.07-1.07,.22-1.49s.35-.79,.62-1.1c.24-.29,.53-.51,.87-.68s.7-.25,1.08-.25c.34,0,.63,.04,.85,.11s.48,.18,.77,.34v-2.8h2.05v9.12Zm-2.05-1.82v-3.23c-.1-.05-.23-.09-.4-.13s-.3-.05-.42-.05c-.49,0-.86,.17-1.11,.52s-.37,.82-.37,1.44c0,.65,.1,1.12,.3,1.41s.52,.43,.96,.43c.18,0,.36-.04,.54-.11s.35-.17,.5-.29Z"/><path class="cw" d="M712.3,63.39c-1.24,0-2.19-.3-2.86-.89s-.99-1.44-.99-2.54,.31-1.93,.93-2.57,1.48-.96,2.59-.96c1.01,0,1.77,.27,2.27,.81s.76,1.32,.76,2.33v.74h-4.49c.02,.3,.08,.56,.19,.76s.25,.37,.43,.49c.18,.12,.38,.21,.62,.26s.49,.08,.77,.08c.24,0,.47-.03,.7-.08s.44-.12,.63-.21c.17-.07,.32-.15,.47-.24s.26-.16,.35-.23h.22v1.69c-.17,.07-.32,.13-.46,.18s-.33,.11-.57,.17c-.22,.06-.45,.1-.69,.14s-.52,.05-.86,.05Zm.68-4.31c-.01-.43-.11-.76-.3-.99s-.48-.34-.87-.34-.71,.12-.93,.36-.35,.56-.37,.97h2.48Z"/></g></g><g><circle class="eb" cx="853.36" cy="95.82" r="24.98"/><g><path class="eg" d="M846.3,99.17h-2.67l-2.43-3.2h-.79v3.2h-2.18v-8.72h3.51c.48,0,.91,.03,1.27,.09s.69,.19,1,.38c.31,.2,.56,.45,.74,.76s.28,.7,.28,1.17c0,.67-.15,1.21-.45,1.63s-.7,.75-1.21,.99l2.94,3.71Zm-3.53-6.05c0-.22-.04-.41-.13-.57s-.22-.28-.42-.37c-.14-.06-.29-.1-.46-.11s-.38-.02-.63-.02h-.73v2.35h.63c.3,0,.56-.02,.78-.06s.39-.12,.54-.24c.14-.11,.24-.24,.31-.39s.1-.35,.1-.6Z"/><path class="eg" d="M850.2,99.34c-1.24,0-2.19-.3-2.86-.89s-.99-1.44-.99-2.54,.31-1.93,.93-2.57,1.48-.96,2.59-.96c1.01,0,1.77,.27,2.27,.81s.76,1.32,.76,2.33v.74h-4.49c.02,.3,.08,.56,.19,.76s.25,.37,.43,.49c.18,.12,.38,.21,.62,.26s.49,.08,.77,.08c.24,0,.47-.03,.7-.08s.44-.12,.63-.21c.17-.07,.32-.15,.47-.24s.26-.16,.35-.23h.22v1.69c-.17,.07-.32,.13-.46,.18s-.33,.11-.57,.17c-.22,.06-.45,.1-.69,.14s-.52,.05-.86,.05Zm.68-4.31c-.01-.43-.11-.76-.3-.99s-.48-.34-.87-.34-.71,.12-.93,.36-.35,.56-.37,.97h2.48Z"/><path class="eg" d="M857.58,98.47c-.14,.12-.27,.22-.38,.32s-.26,.19-.45,.28c-.18,.09-.36,.16-.54,.21s-.42,.07-.73,.07c-.58,0-1.07-.2-1.45-.59s-.58-.88-.58-1.48c0-.49,.1-.88,.29-1.18s.48-.54,.84-.71c.37-.18,.81-.3,1.33-.38s1.07-.12,1.66-.16v-.04c0-.36-.13-.61-.4-.75s-.67-.21-1.2-.21c-.24,0-.53,.04-.85,.13s-.64,.2-.95,.34h-.18v-1.59c.2-.06,.53-.13,.98-.21s.91-.12,1.37-.12c1.13,0,1.96,.19,2.48,.57s.78,.95,.78,1.73v4.48h-2.04v-.7Zm0-1.02v-1.37c-.35,.04-.63,.07-.84,.09s-.43,.08-.63,.15c-.18,.06-.32,.16-.42,.28s-.15,.3-.15,.51c0,.31,.08,.52,.25,.64s.41,.17,.74,.17c.18,0,.36-.04,.55-.12s.36-.2,.51-.35Z"/><path class="eg" d="M864.37,99.34c-.54,0-1.04-.07-1.49-.21s-.84-.35-1.17-.63c-.33-.29-.58-.64-.77-1.08s-.28-.94-.28-1.53c0-.63,.1-1.16,.3-1.61s.47-.8,.81-1.09c.33-.27,.71-.48,1.16-.61s.91-.2,1.39-.2c.36,0,.73,.04,1.09,.13s.73,.22,1.1,.4v1.76h-.26c-.08-.08-.18-.16-.3-.26s-.25-.18-.39-.26c-.15-.08-.32-.15-.5-.21s-.4-.08-.63-.08c-.52,0-.93,.18-1.22,.55s-.43,.86-.43,1.47c0,.66,.15,1.15,.46,1.48s.71,.49,1.22,.49c.26,0,.48-.03,.68-.09s.36-.13,.5-.21c.14-.08,.25-.17,.35-.25s.18-.17,.25-.24h.26v1.76c-.12,.05-.25,.11-.41,.18s-.31,.12-.47,.16c-.2,.05-.39,.1-.56,.13s-.4,.04-.69,.04Z"/><path class="eg" d="M869.99,99.3c-.84,0-1.44-.17-1.83-.52s-.57-.91-.57-1.69v-3.08h-.79v-1.43h.79v-1.88h2.05v1.88h1.97v1.43h-1.97v2.33c0,.23,0,.43,0,.6s.04,.33,.09,.46c.05,.14,.15,.25,.29,.33s.34,.12,.61,.12c.11,0,.25-.02,.43-.07s.3-.09,.37-.13h.18v1.45c-.22,.06-.46,.1-.71,.14s-.56,.05-.92,.05Z"/></g></g><g><circle class="eb" cx="831.06" cy="35.78" r="29"/><g><path class="eg" d="M822.55,32.85h-2.67l-2.43-3.2h-.79v3.2h-2.18v-8.72h3.51c.48,0,.91,.03,1.27,.09s.69,.19,1,.38c.31,.2,.56,.45,.74,.76s.28,.7,.28,1.17c0,.67-.15,1.21-.45,1.63s-.7,.75-1.21,.99l2.94,3.71Zm-3.53-6.05c0-.22-.04-.41-.13-.57s-.22-.28-.42-.37c-.14-.06-.29-.1-.46-.11s-.38-.02-.63-.02h-.73v2.35h.63c.3,0,.56-.02,.78-.06s.39-.12,.54-.24c.14-.11,.25-.24,.31-.39s.1-.35,.1-.6Z"/><path class="eg" d="M826.44,33.03c-1.24,0-2.19-.3-2.86-.89s-.99-1.44-.99-2.54,.31-1.93,.93-2.57,1.48-.96,2.59-.96c1.01,0,1.77,.27,2.27,.81s.76,1.32,.76,2.33v.74h-4.49c.02,.3,.08,.56,.19,.76s.25,.37,.43,.49c.18,.12,.38,.21,.62,.26s.49,.08,.77,.08c.24,0,.47-.03,.7-.08s.44-.12,.63-.21c.17-.07,.32-.15,.47-.24s.26-.16,.35-.23h.22v1.69c-.17,.07-.32,.13-.46,.18s-.33,.11-.57,.17c-.22,.06-.45,.1-.69,.14s-.52,.05-.86,.05Zm.68-4.31c-.01-.43-.11-.76-.3-.99s-.48-.34-.87-.34-.71,.12-.93,.36-.35,.56-.37,.97h2.48Z"/><path class="eg" d="M833.83,32.16c-.14,.12-.27,.22-.38,.32s-.26,.19-.45,.28c-.18,.09-.36,.16-.54,.21s-.42,.07-.73,.07c-.58,0-1.07-.2-1.45-.59s-.58-.88-.58-1.48c0-.49,.1-.88,.29-1.18s.48-.54,.84-.71c.37-.18,.81-.3,1.33-.38s1.07-.12,1.66-.16v-.04c0-.36-.13-.61-.4-.75s-.67-.21-1.2-.21c-.24,0-.53,.04-.85,.13s-.64,.2-.95,.34h-.18v-1.59c.2-.06,.53-.13,.98-.21s.91-.12,1.37-.12c1.13,0,1.96,.19,2.48,.57s.78,.95,.78,1.73v4.48h-2.04v-.7Zm0-1.02v-1.37c-.35,.04-.63,.07-.84,.09s-.43,.08-.63,.15c-.18,.06-.32,.16-.42,.28s-.15,.3-.15,.51c0,.31,.08,.52,.25,.64s.41,.17,.74,.17c.18,0,.36-.04,.55-.12s.36-.2,.51-.35Z"/><path class="eg" d="M840.61,33.03c-.54,0-1.04-.07-1.49-.21s-.84-.35-1.17-.63c-.33-.29-.58-.64-.77-1.08s-.28-.94-.28-1.53c0-.63,.1-1.16,.3-1.61s.47-.8,.81-1.09c.33-.27,.71-.48,1.16-.61s.91-.2,1.39-.2c.36,0,.73,.04,1.09,.13s.73,.22,1.1,.4v1.76h-.26c-.08-.08-.18-.16-.3-.26s-.25-.18-.39-.26c-.15-.08-.32-.15-.5-.21s-.4-.08-.63-.08c-.52,0-.93,.18-1.22,.55s-.43,.86-.43,1.47c0,.66,.15,1.15,.46,1.48s.71,.49,1.22,.49c.26,0,.48-.03,.68-.09s.36-.13,.5-.21c.14-.08,.25-.17,.35-.25s.18-.17,.25-.24h.26v1.76c-.12,.05-.25,.11-.41,.18s-.31,.12-.47,.16c-.2,.05-.39,.1-.56,.13s-.4,.04-.69,.04Z"/><path class="eg" d="M846.23,32.98c-.84,0-1.44-.17-1.83-.52s-.57-.91-.57-1.69v-3.08h-.79v-1.43h.79v-1.88h2.05v1.88h1.97v1.43h-1.97v2.33c0,.23,0,.43,0,.6s.04,.33,.09,.46c.05,.14,.15,.25,.29,.33s.34,.12,.61,.12c.11,0,.25-.02,.43-.07s.3-.09,.37-.13h.18v1.45c-.22,.06-.46,.1-.71,.14s-.56,.05-.92,.05Z"/><path class="eg" d="M819.57,47.25h-2.11l-3.36-6.08v6.08h-2v-8.72h2.69l2.78,5v-5h2v8.72Z"/><path class="eg" d="M824.85,46.56c-.14,.12-.27,.22-.38,.32s-.26,.19-.45,.28c-.18,.09-.36,.16-.54,.21s-.42,.07-.73,.07c-.58,0-1.07-.2-1.45-.59s-.58-.88-.58-1.48c0-.49,.1-.88,.29-1.18s.48-.54,.84-.71c.37-.18,.81-.3,1.33-.38s1.07-.12,1.66-.16v-.04c0-.36-.13-.61-.4-.75s-.67-.21-1.2-.21c-.24,0-.53,.04-.85,.13s-.64,.2-.95,.34h-.18v-1.59c.2-.06,.53-.13,.98-.21s.91-.12,1.37-.12c1.13,0,1.96,.19,2.48,.57s.78,.95,.78,1.73v4.48h-2.04v-.7Zm0-1.02v-1.37c-.35,.04-.63,.07-.84,.09s-.43,.08-.63,.15c-.18,.06-.32,.16-.42,.28s-.15,.3-.15,.51c0,.31,.08,.52,.25,.64s.41,.17,.74,.17c.18,0,.36-.04,.55-.12s.36-.2,.51-.35Z"/><path class="eg" d="M830.93,47.38c-.84,0-1.44-.17-1.83-.52s-.57-.91-.57-1.69v-3.08h-.79v-1.43h.79v-1.88h2.05v1.88h1.97v1.43h-1.97v2.33c0,.23,0,.43,0,.6s.04,.33,.09,.46c.05,.14,.15,.25,.29,.33s.34,.12,.61,.12c.11,0,.25-.02,.43-.07s.3-.09,.37-.13h.18v1.45c-.22,.06-.46,.1-.71,.14s-.56,.05-.92,.05Z"/><path class="eg" d="M835.5,39.73h-2.17v-1.6h2.17v1.6Zm-.06,7.52h-2.05v-6.58h2.05v6.58Z"/><path class="eg" d="M843.17,40.67l-2.36,6.58h-2.24l-2.34-6.58h2.16l1.35,4.35,1.33-4.35h2.11Z"/><path class="eg" d="M847.33,47.43c-1.24,0-2.19-.3-2.86-.89s-.99-1.44-.99-2.54,.31-1.93,.93-2.57,1.48-.96,2.59-.96c1.01,0,1.77,.27,2.27,.81s.76,1.32,.76,2.33v.74h-4.49c.02,.3,.08,.56,.19,.76s.25,.37,.43,.49c.18,.12,.38,.21,.62,.26s.49,.08,.77,.08c.24,0,.47-.03,.7-.08s.44-.12,.63-.21c.17-.07,.32-.15,.47-.24s.26-.16,.35-.23h.22v1.69c-.17,.07-.32,.13-.46,.18s-.33,.11-.57,.17c-.22,.06-.45,.1-.69,.14s-.52,.05-.86,.05Zm.68-4.31c-.01-.43-.11-.76-.3-.99s-.48-.34-.87-.34-.71,.12-.93,.36-.35,.56-.37,.97h2.48Z"/></g></g><g><circle class="eb" cx="754.87" cy="27.39" r="27.39"/><g><path class="eg" d="M744.73,32.33h-2.18v-5.78l-1.59,3.73h-1.49l-1.59-3.73v5.78h-2.06v-8.72h2.53l1.93,4.31,1.93-4.31h2.53v8.72Z"/><path class="eg" d="M752.55,25.75l-3.32,8.99h-2.2l1-2.57-2.41-6.42h2.16l1.38,4.12,1.29-4.12h2.11Z"/><path class="eg" d="M756.13,32.49c-.67,0-1.25-.06-1.76-.19s-.98-.29-1.41-.48v-2.07h.2c.44,.37,.92,.66,1.45,.86s1.04,.3,1.54,.3c.12,0,.29-.01,.5-.04s.37-.07,.5-.13c.15-.07,.28-.16,.39-.28s.16-.28,.16-.47c0-.22-.09-.4-.26-.53s-.38-.24-.62-.3c-.3-.08-.61-.15-.95-.22s-.65-.16-.95-.26c-.68-.24-1.16-.56-1.45-.96s-.44-.91-.44-1.51c0-.82,.35-1.48,1.04-1.98s1.55-.76,2.59-.76c.52,0,1.04,.05,1.55,.16s.97,.25,1.38,.43v1.99h-.19c-.32-.28-.72-.51-1.19-.7s-.95-.29-1.44-.29c-.19,0-.36,.01-.52,.04s-.31,.08-.48,.16c-.14,.06-.25,.16-.35,.28s-.15,.26-.15,.41c0,.22,.08,.4,.24,.53s.46,.25,.92,.35c.29,.07,.58,.13,.85,.19s.56,.15,.87,.26c.61,.22,1.06,.51,1.35,.88s.44,.86,.44,1.46c0,.87-.34,1.56-1.02,2.09s-1.6,.79-2.76,.79Z"/><path class="eg" d="M768.97,34.64c-.23,.06-.47,.1-.71,.13s-.61,.04-1.11,.04c-.46,0-.85-.06-1.17-.17s-.59-.28-.81-.49c-.21-.21-.38-.45-.48-.74s-.17-.59-.18-.92c-1.23-.05-2.21-.48-2.92-1.28s-1.06-1.88-1.06-3.23,.38-2.51,1.12-3.33,1.78-1.22,3.1-1.22,2.35,.41,3.1,1.22,1.13,1.92,1.13,3.33c0,1.03-.21,1.91-.64,2.65s-1.03,1.26-1.81,1.57c0,.43,.1,.72,.28,.88s.5,.24,.96,.24c.18,0,.36-.03,.56-.08s.34-.1,.42-.15h.22v1.56Zm-2.84-4.46c.19-.25,.33-.55,.43-.89s.15-.78,.15-1.33-.05-.96-.16-1.33-.25-.67-.43-.9c-.19-.24-.4-.41-.64-.51s-.48-.16-.74-.16c-.27,0-.51,.05-.73,.14s-.43,.27-.63,.51c-.18,.23-.33,.53-.44,.9s-.17,.82-.17,1.34,.05,.98,.16,1.33,.25,.65,.43,.89c.19,.24,.4,.42,.64,.52s.48,.16,.74,.16,.51-.06,.75-.17,.45-.28,.63-.52Z"/><path class="eg" d="M776.1,32.33h-5.82v-8.72h2.19v7.06h3.63v1.66Z"/></g></g></g></g><g><g><path class="dt" d="M421.05,604.42v43.59h-.05c-1.9,26.31-80.28,74.63-194.12,75.52C59.51,724.85,2.98,672.37,.35,645.5h-.06v-40.17l420.76-.91Z"/><path class="dg" d="M.29,605.5c0,27.1,96.58,48.49,213.78,47.8,115.13-.68,206.98-22.49,206.98-48.72s-91.85-47.64-206.98-47.82c-117.21-.18-213.78,21.64-213.78,48.74Z"/><path class="cy" d="M1.92,602.2c0,26.89,95.84,48.17,212.18,47.54,114.31-.62,205.53-22.23,205.53-48.28s-91.21-47.34-205.53-47.55c-116.34-.22-212.18,21.4-212.18,48.29Z"/><polygon class="cm" points=".29 645.5 .29 605.34 421.05 604.42 421.05 648.01 .29 645.5"/><path class="cn" d="M.29,605.5c0,27.1,96.58,48.49,213.78,47.8,115.13-.68,206.98-22.49,206.98-48.72s-91.85-47.64-206.98-47.82c-117.21-.18-213.78,21.64-213.78,48.74Z"/></g><g><path class="bw" d="M421.05,521.81v43.59h-.05c-1.9,26.31-80.28,72.34-194.12,71.52C46.5,635.62,2.98,589.76,.35,562.89h-.06v-40.17l420.76-.91Z"/><path class="by" d="M.29,522.88c0,27.1,96.58,48.49,213.78,47.8,115.13-.68,206.98-22.49,206.98-48.72s-91.85-47.64-206.98-47.82c-117.21-.18-213.78,21.64-213.78,48.74Z"/><path class="bf" d="M1.92,519.59c0,26.89,95.84,48.17,212.18,47.54,114.31-.62,205.53-22.23,205.53-48.28s-91.21-47.34-205.53-47.55c-116.34-.22-212.18,21.4-212.18,48.29Z"/><polygon class="ed" points=".29 562.89 .29 522.72 421.05 521.81 421.05 565.4 .29 562.89"/><path class="bz" d="M.29,522.88c0,27.1,96.58,48.49,213.78,47.8,115.13-.68,206.98-22.49,206.98-48.72s-91.85-47.64-206.98-47.82c-117.21-.18-213.78,21.64-213.78,48.74Z"/></g><g><path class="bj" d="M421.05,438.99v43.59h-.05c-1.9,26.31-80.28,72.34-194.12,71.52C46.5,552.8,2.98,506.94,.35,480.07h-.06v-40.17l420.76-.91Z"/><path class="cp" d="M.29,440.07c0,27.1,96.58,48.49,213.78,47.8,115.13-.68,206.98-22.49,206.98-48.72s-91.85-47.64-206.98-47.82C96.87,391.15,.29,412.97,.29,440.07Z"/><path class="df" d="M1.92,436.77c0,26.89,95.84,48.17,212.18,47.54,114.31-.62,205.53-22.23,205.53-48.28s-91.21-47.34-205.53-47.55c-116.34-.22-212.18,21.4-212.18,48.29Z"/><polygon class="bg" points=".29 480.07 .29 439.9 421.05 438.99 421.05 482.58 .29 480.07"/><path class="cl" d="M.29,440.07c0,27.1,96.58,48.49,213.78,47.8,115.13-.68,206.98-22.49,206.98-48.72s-91.85-47.64-206.98-47.82C96.87,391.15,.29,412.97,.29,440.07Z"/></g><g><path class="bt" d="M421.05,356.17v43.59h-.05c-1.9,26.31-80.28,72.34-194.12,71.52C46.5,469.98,2.98,424.12,.35,397.25h-.06v-40.17l420.76-.91Z"/><path class="ck" d="M.29,357.25c0,27.1,96.58,48.49,213.78,47.8,115.13-.68,206.98-22.49,206.98-48.72s-91.85-47.64-206.98-47.82C96.87,308.33,.29,330.15,.29,357.25Z"/><path class="bx" d="M1.92,353.95c0,26.89,95.84,48.17,212.18,47.54,114.31-.62,205.53-22.23,205.53-48.28s-91.21-47.34-205.53-47.55c-116.34-.22-212.18,21.4-212.18,48.29Z"/><polygon class="dk" points=".29 397.25 .29 357.08 421.05 356.17 421.05 399.76 .29 397.25"/><path class="db" d="M.29,357.25c0,27.1,96.58,48.49,213.78,47.8,115.13-.68,206.98-22.49,206.98-48.72s-91.85-47.64-206.98-47.82C96.87,308.33,.29,330.15,.29,357.25Z"/></g><g><path class="dw" d="M421.05,273.35v43.59h-.05c-1.9,26.31-80.28,72.34-194.12,71.52C46.5,387.16,2.98,341.3,.35,314.43h-.06v-40.17l420.76-.91Z"/><path class="dh" d="M.29,274.43c0,27.1,96.58,48.49,213.78,47.8,115.13-.68,206.98-22.49,206.98-48.72s-91.85-47.64-206.98-47.82C96.87,225.51,.29,247.33,.29,274.43Z"/><path class="de" d="M1.92,271.13c0,26.89,95.84,48.17,212.18,47.54,114.31-.62,205.53-22.23,205.53-48.28s-91.21-47.34-205.53-47.55c-116.34-.22-212.18,21.4-212.18,48.29Z"/><polygon class="dm" points=".29 314.43 .29 274.27 421.05 273.35 421.05 316.94 .29 314.43"/><path class="bk" d="M.29,274.43c0,27.1,96.58,48.49,213.78,47.8,115.13-.68,206.98-22.49,206.98-48.72s-91.85-47.64-206.98-47.82C96.87,225.51,.29,247.33,.29,274.43Z"/></g><g><path class="ec" d="M421.05,190.53v43.59h-.05c-1.9,26.31-80.28,72.34-194.12,71.52C46.5,304.34,2.98,258.48,.35,231.61h-.06v-40.17l420.76-.91Z"/><path class="ef" d="M.29,191.61c0,27.1,96.58,48.49,213.78,47.8,115.13-.68,206.98-22.49,206.98-48.72s-91.85-47.64-206.98-47.82C96.87,142.69,.29,164.51,.29,191.61Z"/><path class="cs" d="M1.92,188.31c0,26.89,95.84,48.17,212.18,47.54,114.31-.62,205.53-22.23,205.53-48.28s-91.21-47.34-205.53-47.55c-116.34-.22-212.18,21.4-212.18,48.29Z"/><polygon class="dl" points=".29 231.61 .29 191.45 421.05 190.53 421.05 234.12 .29 231.61"/><path class="cd" d="M.29,191.61c0,27.1,96.58,48.49,213.78,47.8,115.13-.68,206.98-22.49,206.98-48.72s-91.85-47.64-206.98-47.82C96.87,142.69,.29,164.51,.29,191.61Z"/></g><g><path class="dn" d="M421.05,107.71v43.59h-.05c-1.9,26.31-80.28,72.34-194.12,71.52C46.5,221.52,2.98,175.66,.35,148.79h-.06v-40.17l420.76-.91Z"/><path class="ca" d="M.29,108.79c0,27.1,96.58,48.49,213.78,47.8,115.13-.68,206.98-22.49,206.98-48.72s-91.85-47.64-206.98-47.82C96.87,59.87,.29,81.69,.29,108.79Z"/><path class="cz" d="M1.92,105.49c0,26.89,95.84,48.17,212.18,47.54,114.31-.62,205.53-22.23,205.53-48.28s-91.21-47.34-205.53-47.55C97.76,56.98,1.92,78.6,1.92,105.49Z"/><polygon class="dc" points=".29 148.79 .29 108.63 421.05 107.71 421.05 151.3 .29 148.79"/><path class="eh" d="M.29,108.79c0,27.1,96.58,48.49,213.78,47.8,115.13-.68,206.98-22.49,206.98-48.72s-91.85-47.64-206.98-47.82C96.87,59.87,.29,81.69,.29,108.79Z"/></g></g><g><g><path class="bl" d="M579.9,623.35l-554.52-5.11v15.12c0,4.1,2.42,7.59,5.69,8.22l156.8,29.78c1.86,.35,3.75,.45,5.63,.28l380.37-33.95c3.4-.3,6.03-3.8,6.03-8.02v-6.31Z"/><path class="bm" d="M401.39,598.83l-369.91,27.66c-6.62,.5-12-4.77-12-11.75V334.89c0-6.99,5.38-12.65,12-12.65H401.39c5.45,0,9.86,5.12,9.86,11.43v252.98c0,6.31-4.41,11.76-9.86,12.17Z"/><path class="dq" d="M407.29,598.83l-369.91,27.66c-6.62,.5-12-4.77-12-11.75V334.89c0-6.99,5.38-12.65,12-12.65H407.29c5.45,0,9.86,5.12,9.86,11.43v252.98c0,6.31-4.41,11.76-9.86,12.17Z"/><path class="dx" d="M395.76,581l-344.53,24.03c-5.39,.38-9.76-3.94-9.76-9.64v-245.01c0-5.7,4.38-10.34,9.76-10.37l344.53-1.51c4.5-.02,8.14,4.17,8.14,9.37v223.16c0,5.19-3.64,9.66-8.14,9.97Z"/><path class="cg" d="M398.06,597.58l-372.68,29.12,162.49,30.86c1.86,.35,3.75,.45,5.63,.28l386.39-34.49-175.91-25.57c-1.97-.29-3.95-.35-5.93-.2Z"/><g><ellipse class="bo" cx="244.21" cy="468.82" rx="59.68" ry="63.97"/><path class="br" d="M242.11,503.29c-2.59,0-4.99-1.45-6.33-3.84l-22.45-40.06c-2.1-3.75-.97-8.61,2.53-10.87,3.5-2.25,8.04-1.04,10.14,2.71l15.59,27.81,20.6-43.38c1.85-3.9,6.3-5.45,9.94-3.46,3.64,1.98,5.08,6.75,3.23,10.65l-26.65,56.11c-1.22,2.57-3.64,4.22-6.32,4.32-.09,0-.17,0-.26,0Z"/></g><polygon class="di" points="79.76 627.43 390.03 602.83 486.05 616.67 178.46 642.97 79.76 627.43"/><path class="bp" d="M318.17,522.08c-28.52-16.24-50.94,4.34-72.58-15.96-13.12-12.31-6.68-21.49-22.82-39.88-17.88-20.37-29.52-13.52-47.49-31.86-22.72-23.18-11.36-41.22-30.93-57.86-23.74-20.19-49.35-1.5-71.95-20.87-9.75-8.35-15.1-20.49-17.89-33.41h-22.11c-3.88,0-7.02,3.32-7.02,7.42v290.09c0,4.1,3.15,7.19,7.02,6.9l377-28.32c1.85-.14,3.49-1.28,4.54-2.94-27.6-1.06-44.55-10.86-55.39-20.98-21.2-19.8-17.52-39.33-40.39-52.34Z"/></g><g><g><path class="cf" d="M525.62,468.27v218.49c0,3.27-3.38,4.23-7.21,4.62l-132.55,15.69-2.03,.21c-4.16,.43-7.57-2.02-7.57-5.43v-228.32c0-3.41,3.41-6.32,7.57-6.46l2.75-.09,133.01,.46c3.83-.13,6.02-2.44,6.02,.83Z"/><path class="cb" d="M529.71,468.03v218.43c0,3.27-3.13,6.26-6.96,6.65l-134.75,13.85c-4.16,.43-7.56-2.02-7.56-5.43v-228.25c0-3.41,3.41-6.32,7.56-6.46l134.75-4.5c3.83-.13,6.96,2.44,6.96,5.71Z"/><path class="co" d="M525.39,480.3v202.41c0,3.05-2.92,5.84-6.51,6.21l-126.7,12.85c-3.87,.39-7.04-1.89-7.04-5.07v-210.95c0-3.18,3.17-5.9,7.04-6.04l126.7-4.71c3.58-.13,6.51,2.25,6.51,5.3Z"/></g><g><path class="bo" d="M505.2,569.18c0,27.34-20.82,50.98-46.58,52.81-25.85,1.83-46.87-18.99-46.87-46.5s21.02-51.17,46.87-52.83c25.76-1.65,46.58,19.18,46.58,46.52Z"/><path class="cx" d="M456.97,599.2c-2.03,.14-3.91-.86-4.96-2.64l-17.61-29.93c-1.65-2.81-.76-6.65,1.99-8.58,2.74-1.93,6.31-1.23,7.96,1.58l12.22,20.78,16.12-34.74c1.45-3.12,4.92-4.55,7.76-3.2,2.84,1.35,3.97,4.97,2.52,8.09l-20.83,44.93c-.95,2.06-2.85,3.47-4.95,3.7-.07,0-.14,.01-.2,.02Z"/></g><g class="bs"><path class="bo" d="M486.15,593.72c-12.26-26.04-40.91-19.82-51.67-48.21-6.42-16.94,1.57-24.97-3.24-45.64-3.26-13.98-10.37-25.13-18.43-33.88l-24.81,.83c-4.16,.14-7.56,3.05-7.56,6.46v228.25c0,3.41,3.41,5.86,7.56,5.43l108.44-11.15c-8.03-11.81-11.47-22.91-12.71-32.55-3.84-29.89,13.3-46.42,2.41-69.55Z"/></g></g><g><g><path class="ee" d="M599.01,559.65v150.79c0,2.25-1.82,2.88-3.89,3.11l-71.13,9.32-1.08,.12c-2.22,.25-4.04-1.47-4.04-3.82v-156.85c0-2.35,1.82-4.32,4.04-4.39l1.47-.05,71.39,1.16c2.07-.06,3.24-1.64,3.24,.61Z"/><path class="dy" d="M601.22,559.5v150.76c0,2.25-1.69,4.29-3.75,4.52l-72.33,8.03c-2.22,.25-4.04-1.47-4.04-3.82v-156.83c0-2.35,1.82-4.32,4.04-4.39l72.33-2.26c2.06-.06,3.75,1.73,3.75,3.98Z"/><path class="bi" d="M598.89,567.94v139.69c0,2.11-1.58,4-3.51,4.21l-68.01,7.44c-2.07,.23-3.76-1.38-3.76-3.56v-144.96c0-2.18,1.69-4.03,3.76-4.11l68.01-2.42c1.93-.07,3.51,1.6,3.51,3.7Z"/></g><g><path class="bo" d="M590.86,630.02c0,16.28-12.33,30.38-27.57,31.49-15.27,1.11-27.68-11.24-27.68-27.58s12.4-30.44,27.68-31.49c15.24-1.05,27.57,11.3,27.57,27.58Z"/><path class="cv" d="M562.32,647.96c-1.2,.09-2.31-.5-2.93-1.56l-10.41-17.77c-.97-1.66-.45-3.95,1.17-5.1,1.62-1.15,3.72-.74,4.7,.92l7.22,12.33,9.53-20.69c.86-1.86,2.91-2.72,4.59-1.92,1.68,.8,2.35,2.95,1.49,4.81l-12.32,26.77c-.56,1.22-1.69,2.07-2.93,2.2-.04,0-.08,0-.12,.01Z"/></g><g class="bs"><path class="bo" d="M577.7,649.8c-6.6-17.56-24.39-13.41-29.93-31.16-4.52-14.49,5.54-22.97,1.6-39.75-2.21-9.41-7.65-16.4-13.21-21.46l-11.02,.34c-2.22,.07-4.04,2.05-4.04,4.39v156.83c0,2.35,1.82,4.06,4.04,3.82l55.45-6.16c-4.45-7.42-6.24-14.21-6.87-19.84-2.3-20.5,10.03-30.93,3.98-47.02Z"/></g></g></g><g><g><path class="bh" d="M66.05,719.2c4.76-23.5,2.71-42.38,.55-53.79-2.62-13.83-7.95-41.96-30.3-57.63-1.76-1.24-19.25-13.26-27.11-7.29-4.05,3.08-4.98,10.52-3.2,16.4,4.57,15.16,25.19,13.48,32.04,30.74,2.28,5.75,2.7,12.76,1.11,13.42-1.96,.81-7.55-7.76-8.08-8.58-4.98-7.65-5.03-11.97-8.82-13.15-2.33-.72-5.41-.04-6.78,1.8-3.13,4.19,3.05,13.75,4.78,16.42,4.52,6.99,8.3,8.58,9.22,14.52,.4,2.56,.33,6.35-1.19,6.94-2.05,.8-5.98-4.55-8.49-7.99-6.76-9.23-7.49-14.6-10.85-14.98-3.14-.36-6.67,3.84-7.58,6.39-2.48,6.97,7.48,21.82,64.71,56.78Z"/><path class="bq" d="M65.34,715.17c.71-21.83-2.82-39.14-6.03-50.5-4.12-14.6-11.86-42.06-33.57-53.95-1.54-.84-12.9-7.06-16.07-3.73-2.11,2.22-.24,8.31,2.87,12.34,5.31,6.88,11.42,4.15,20.09,10.9,7.78,6.06,10.51,14.22,11.19,16.36,2.54,7.92,1.22,14.71,.86,17.22-1.36,9.51,1.42,25.08,20.66,51.36Z"/><path class="bq" d="M57.59,709.72c-12.18-10.91-14.99-19.84-15.21-26.11-.17-4.88,1.15-10.68-2.58-16.07-2.39-3.45-4.19-2.89-8.32-6.6-8.63-7.75-9.7-18.19-11.48-17.79-.99,.22-1.5,3.65-.86,6.89,1.33,6.68,6.55,7.38,11.77,15.5,3.56,5.55,4.8,10.94,5.45,13.77,1.59,6.92,.51,9.35,1.43,13.2,1.2,4.99,5.54,11.43,19.8,17.22Z"/></g><g><path class="be" d="M58.74,723c-21.11,1.21-27.39,2.47-37.33-.92-9.35-3.19-18.94-9.46-18.09-12.34,.6-2.07,6.47-2.04,9.98-2.02,9.41,.04,17.16,2.93,22.61,5.71-4.69-3.19-9.39-6.37-14.08-9.56-3.28-1.17-8.82-3.66-13.74-8.92-3.08-3.29-10.14-12.21-7.49-16.49,2.78-4.47,15.96-3.57,23.56,2.78,3.65,3.05,3.65,5.38,8.54,10.69,4.44,4.83,9.03,7.9,12.25,9.75-3.02-3.77-7.13-9.67-10.32-17.61-4.85-12.07-8.51-31.17-2.34-34.64,4.09-2.3,12.21,2.44,16.26,8.07,3.29,4.56,2.97,8.38,5.23,23.04,.98,6.37,1.95,11.5,2.58,14.68,6.28-13.77,8.1-25.36,8.47-33.87,.47-10.94-1.34-19.52,2.85-21.8,3.73-2.03,10.39,1.93,13.77,5.65,13.67,15.06-4.37,50.41-6.27,54.06,5.02-3.8,11.93-9.74,18.63-18.34,7.16-9.19,10.19-16.03,13.83-15.42,3.62,.61,6.01,8.32,5.74,14.28-.76,16.63-22.48,26.4-24.8,27.4,1.83,.29,4.92,.6,8.58-.09,8.1-1.55,10.62-6.45,18.84-8.12,3.14-.64,9.57-1.3,10.36,.65,1.42,3.49-14.81,16.61-34.5,21.61-7.22,1.83-5.49,.19-33.09,1.77Z"/><path class="bq" d="M44.8,710.96c-9.61-4.27-8.3-10.08-18.82-17.28-6.73-4.61-8.3-2.93-15.51-7.33-3.97-2.42-7.21-5.2-9.85-7.95-.01,.02-.03,.04-.04,.06-2.66,4.28,4.41,13.2,7.49,16.49,4.91,5.26,10.46,7.75,13.74,8.92,4.69,3.19,9.39,6.37,14.08,9.56-5.44-2.78-13.2-5.67-22.61-5.71-3.06-.01-7.91-.04-9.5,1.33,2.82,1.75,5.37,2.59,7.43,3.02,4.72,.96,7.67-.11,11.75,2.34,3.27,1.97,3,3.65,5.88,4.72,2.71,1.01,4.1-.06,10.79-1.15,6.51-1.07,9.82-1.57,12.45,.08,1.99,1.25,3.04,3.31,3.63,5.12,.67-.04,1.36-.08,2.07-.12-.52-2.08-1.49-4.46-3.32-6.59-2.9-3.38-6.08-3.89-9.67-5.49Z"/><path class="bq" d="M72.19,718.35c1.52-.36,2.24,.72,4.35,1,3.92,.51,5.39-2.72,10-4.26,5.45-1.82,6.84,1.56,12.27-.12,4.3-1.33,3.75-3.55,9.36-6.79,5.98-3.44,8.51-2.03,12.9-4.87,1.41-.91,3.02-2.27,4.56-4.39-1.93-1.05-6.98-.49-9.66,.05-8.22,1.67-10.74,6.58-18.84,8.12-3.65,.7-6.75,.39-8.58,.09,2.32-1.01,24.04-10.77,24.8-27.4,.25-5.53-1.78-12.56-4.97-14.04,.38,3.84,.43,7.13,.37,9.71-.14,6.01-.24,9.07-2.14,11.57-3.3,4.35-7.32,2.08-12.8,6.6-4.99,4.12-3.25,7.31-8.46,11.43-4.49,3.56-7.16,2.26-11.38,5.15-2.65,1.81-5.87,5.24-7.81,12.41,.88-.04,1.72-.08,2.53-.11,.76-2.03,1.87-3.76,3.51-4.15Z"/><path class="bq" d="M67.45,695.69c2.63-7.16,7.2-6.43,9.1-12.74,1.89-6.27-2.25-8.22-1.19-17.3,.79-6.8,3.36-7.81,3.53-12.46,.13-3.43-1.08-8.1-6.67-13.89-1.69-.45-3.29-.45-4.56,.24-4.19,2.28-2.37,10.85-2.85,21.8-.37,8.52-2.19,20.1-8.47,33.87-.63-3.18-1.59-8.31-2.58-14.68-2.26-14.65-1.94-18.48-5.23-23.04-4.06-5.62-12.17-10.37-16.26-8.07-.23,.13-.45,.29-.66,.46,2.04,1.39,3.92,3.1,5.51,5.21,5.4,7.19,2.33,12.34,7.22,26.53,4.71,13.64,9.48,14.49,13.27,26.28,1.21,3.76,2.35,8.75,2.58,15.01,1.38-.08,2.69-.14,3.92-.2,1.42-4.64,2.09-8.8,2.37-12.32,.63-7.76-.81-9.86,.97-14.7Z"/></g></g><g><g><path class="cu" d="M1070.71,718.24c-4.95-23.5-2.82-42.38-.57-53.79,2.73-13.83,8.27-41.96,31.53-57.63,1.83-1.24,20.03-13.26,28.2-7.29,4.21,3.08,5.18,10.52,3.33,16.4-4.76,15.16-26.21,13.48-33.34,30.74-2.37,5.75-2.81,12.76-1.16,13.42,2.04,.81,7.85-7.76,8.4-8.58,5.18-7.65,5.23-11.97,9.18-13.15,2.43-.72,5.62-.04,7.05,1.8,3.26,4.19-3.18,13.75-4.98,16.42-4.71,6.99-8.63,8.58-9.59,14.52-.41,2.56-.34,6.35,1.24,6.94,2.14,.8,6.22-4.55,8.84-7.99,7.04-9.23,7.79-14.6,11.29-14.98,3.26-.36,6.94,3.84,7.89,6.39,2.58,6.97-7.79,21.82-67.33,56.78Z"/><path class="bq" d="M1071.46,714.21c-.74-21.83,2.94-39.14,6.27-50.5,4.28-14.6,12.34-42.06,34.93-53.95,1.61-.84,13.42-7.06,16.72-3.73,2.2,2.22,.25,8.31-2.99,12.34-5.52,6.88-11.88,4.15-20.9,10.9-8.09,6.06-10.93,14.22-11.64,16.36-2.64,7.92-1.27,14.71-.9,17.22,1.41,9.51-1.48,25.08-21.5,51.36Z"/><path class="bq" d="M1079.52,708.76c12.67-10.91,15.6-19.84,15.82-26.11,.18-4.88-1.2-10.68,2.69-16.07,2.49-3.45,4.36-2.89,8.66-6.6,8.98-7.75,10.09-18.19,11.94-17.79,1.03,.22,1.56,3.65,.9,6.89-1.38,6.68-6.81,7.38-12.24,15.5-3.71,5.55-5,10.94-5.67,13.77-1.65,6.92-.53,9.35-1.49,13.2-1.25,4.99-5.76,11.43-20.6,17.22Z"/></g><g><path class="cr" d="M1078.32,722.04c21.96,1.21,28.49,2.47,38.84-.92,9.73-3.19,19.7-9.46,18.83-12.34-.63-2.07-6.73-2.04-10.38-2.02-9.79,.04-17.86,2.93-23.52,5.71,4.88-3.19,9.77-6.37,14.65-9.56,3.41-1.17,9.18-3.66,14.29-8.92,3.2-3.29,10.55-12.21,7.79-16.49-2.89-4.47-16.6-3.57-24.51,2.78-3.79,3.05-3.8,5.38-8.88,10.69-4.62,4.83-9.39,7.9-12.75,9.75,3.14-3.77,7.41-9.67,10.73-17.61,5.05-12.07,8.86-31.17,2.44-34.64-4.26-2.3-12.7,2.44-16.92,8.07-3.42,4.56-3.09,8.38-5.44,23.04-1.02,6.37-2.03,11.5-2.68,14.68-6.53-13.77-8.43-25.36-8.81-33.87-.49-10.94,1.39-19.52-2.96-21.8-3.88-2.03-10.81,1.93-14.33,5.65-14.23,15.06,4.54,50.41,6.53,54.06-5.22-3.8-12.41-9.74-19.38-18.34-7.45-9.19-10.6-16.03-14.38-15.42-3.77,.61-6.25,8.32-5.97,14.28,.79,16.63,23.39,26.4,25.8,27.4-1.9,.29-5.12,.6-8.92-.09-8.43-1.55-11.05-6.45-19.6-8.12-3.27-.64-9.95-1.3-10.78,.65-1.48,3.49,15.41,16.61,35.89,21.61,7.51,1.83,5.71,.19,34.43,1.77Z"/><path class="bq" d="M1092.82,710.01c10-4.27,8.64-10.08,19.58-17.28,7.01-4.61,8.63-2.93,16.14-7.33,4.13-2.42,7.5-5.2,10.24-7.95,.01,.02,.03,.04,.04,.06,2.76,4.28-4.59,13.2-7.79,16.49-5.11,5.26-10.88,7.75-14.29,8.92-4.88,3.19-9.77,6.37-14.65,9.56,5.66-2.78,13.73-5.67,23.52-5.71,3.18-.01,8.23-.04,9.88,1.33-2.94,1.75-5.58,2.59-7.73,3.02-4.91,.96-7.98-.11-12.23,2.34-3.4,1.97-3.12,3.65-6.12,4.72-2.82,1.01-4.26-.06-11.22-1.15-6.77-1.07-10.21-1.57-12.95,.08-2.07,1.25-3.17,3.31-3.77,5.12-.7-.04-1.42-.08-2.16-.12,.54-2.08,1.55-4.46,3.45-6.59,3.02-3.38,6.32-3.89,10.06-5.49Z"/><path class="bq" d="M1064.33,717.39c-1.58-.36-2.34,.72-4.53,1-4.08,.51-5.61-2.72-10.4-4.26-5.67-1.82-7.11,1.56-12.76-.12-4.47-1.33-3.9-3.55-9.74-6.79-6.22-3.44-8.85-2.03-13.42-4.87-1.47-.91-3.15-2.27-4.74-4.39,2.01-1.05,7.27-.49,10.05,.05,8.55,1.67,11.18,6.58,19.6,8.12,3.8,.7,7.02,.39,8.92,.09-2.41-1.01-25.01-10.77-25.8-27.4-.26-5.53,1.86-12.56,5.17-14.04-.39,3.84-.45,7.13-.39,9.71,.14,6.01,.25,9.07,2.23,11.57,3.43,4.35,7.61,2.08,13.32,6.6,5.19,4.12,3.38,7.31,8.8,11.43,4.67,3.56,7.44,2.26,11.84,5.15,2.76,1.81,6.11,5.24,8.12,12.41-.92-.04-1.79-.08-2.63-.11-.8-2.03-1.95-3.76-3.65-4.15Z"/><path class="bq" d="M1069.26,694.73c-2.74-7.16-7.49-6.43-9.47-12.74-1.97-6.27,2.34-8.22,1.24-17.3-.82-6.8-3.5-7.81-3.67-12.46-.13-3.43,1.13-8.1,6.94-13.89,1.76-.45,3.43-.45,4.74,.24,4.35,2.28,2.47,10.85,2.96,21.8,.38,8.52,2.28,20.1,8.81,33.87,.65-3.18,1.66-8.31,2.68-14.68,2.36-14.65,2.02-18.48,5.44-23.04,4.22-5.62,12.66-10.37,16.92-8.07,.24,.13,.47,.29,.68,.46-2.12,1.39-4.08,3.1-5.73,5.21-5.62,7.19-2.42,12.34-7.51,26.53-4.9,13.64-9.86,14.49-13.8,26.28-1.26,3.76-2.44,8.75-2.69,15.01-1.44-.08-2.79-.14-4.08-.2-1.47-4.64-2.17-8.8-2.47-12.32-.65-7.76,.84-9.86-1.01-14.7Z"/></g></g></g></g></svg>