<?xml version="1.0" encoding="utf-8"?>
<!-- Generator: Adobe Illustrator 26.4.1, SVG Export Plug-In . SVG Version: 6.00 Build 0)  -->
<svg version="1.1" id="Layer_1" xmlns="http://www.w3.org/2000/svg" xmlns:xlink="http://www.w3.org/1999/xlink" x="0px" y="0px"
	 viewBox="0 0 50 50" style="enable-background:new 0 0 50 50;" xml:space="preserve">
<g>
	<path d="M19.8,18.8c-0.2,0.5-0.4,0.9-0.5,1.3c-0.1,0.2,0,0.4,0,0.6c0.1,0.3,0.3,0.6,0.4,1c0.1,0.6,0.5,0.8,1,1
		c1,0.4,1.1,0.4,1.1,1.5c0,0.7,0,1.3,0,2c0,0.5-0.2,0.9-0.7,1c-0.8,0.2-1.4,0.6-1.5,1.5c0,0,0,0,0,0c-0.5,0.6-0.3,1.2,0,1.8
		c0.4,0.7,0.3,0.9-0.2,1.4c-0.5,0.5-1.1,1.1-1.6,1.6c-0.4,0.4-0.8,0.5-1.2,0.2c-0.7-0.5-1.4-0.5-2.1,0c0,0,0,0,0,0
		c-0.7,0.1-1.1,0.6-1.3,1.3c-0.2,0.8-0.4,0.9-1.2,0.9c-0.7,0-1.5,0-2.2,0c-0.5,0-0.8-0.2-1-0.6C8.5,34.4,8,34,7.2,33.6
		c-0.7-0.3-1.2-0.3-1.9,0C4.7,34,4.5,34,3.9,33.4c-0.5-0.5-1.1-1.1-1.6-1.6c-0.3-0.3-0.5-0.7-0.2-1.1c0.4-0.7,0.5-1.4,0-2.2
		c0,0,0-0.1,0-0.1c-0.1-0.7-0.6-1-1.2-1.2C0.1,27,0,26.8,0,26c0-0.7,0-1.4,0-2.2c0-0.5,0.2-0.8,0.7-0.9c0.8-0.2,1.4-0.7,1.5-1.5
		c0,0,0-0.1,0-0.1c0.4-0.6,0.3-1.1,0-1.7c-0.4-0.8-0.3-0.9,0.3-1.5c0.5-0.5,1-1,1.5-1.5c0.3-0.3,0.7-0.5,1.1-0.2
		c0.7,0.5,1.4,0.4,2.2,0c0.7-0.3,1.1-0.7,1.3-1.4c0.2-0.7,0.4-0.8,1.1-0.8c0.8,0,1.5,0,2.3,0c0.5,0,0.8,0.2,0.9,0.7
		c0.2,0.9,0.7,1.4,1.5,1.5c0,0,0.1,0,0.1,0.1c0.5,0.4,1,0.3,1.6,0c0.9-0.4,1-0.4,1.7,0.3c0.5,0.5,1,1,1.5,1.5
		C19.6,18.4,19.7,18.6,19.8,18.8z M4.4,29.5c-0.1,0.4-0.3,0.7-0.4,1.1c-0.1,0.1-0.2,0.3-0.1,0.4c0.3,0.4,0.6,0.8,1,1
		c0.1,0.1,0.5-0.1,0.7-0.2c0.6-0.3,1.1-0.3,1.6,0.1c0.4,0.3,0.9,0.5,1.3,0.6c0.7,0.2,1.2,0.5,1.4,1.3c0,0.1,0,0.2,0.1,0.2
		c0.1,0.1,0.3,0.2,0.4,0.3c0.1,0,0.3,0,0.4,0c0.9,0,0.9,0,1.1-0.8c0.2-0.5,0.5-0.8,1-1c0.5-0.1,1-0.3,1.4-0.6c0.7-0.4,1.3-0.4,1.9,0
		c0.1,0.1,0.4,0.2,0.5,0.1c0.4-0.3,0.8-0.6,1-1c0.1-0.1-0.1-0.5-0.2-0.7c-0.3-0.6-0.3-1.1,0.1-1.6c0.3-0.4,0.5-0.9,0.6-1.3
		c0.2-0.7,0.5-1.2,1.3-1.4c0.1,0,0.1-0.1,0.2-0.1c0.3-0.1,0.4-0.2,0.4-0.5c0-0.1,0-0.3,0-0.4c0-0.9,0-0.9-0.8-1.2
		c-0.5-0.2-0.8-0.5-1-1c-0.1-0.5-0.3-1-0.6-1.4c-0.4-0.7-0.4-1.3,0-1.9c0.1-0.1,0.2-0.4,0.1-0.5c-0.3-0.4-0.6-0.8-1-1
		c-0.1-0.1-0.5,0.1-0.7,0.2c-0.6,0.3-1.1,0.3-1.6-0.1c-0.4-0.3-0.9-0.5-1.3-0.6c-0.7-0.2-1.2-0.5-1.4-1.3c0-0.1-0.1-0.1-0.1-0.2
		c-0.1-0.3-0.2-0.4-0.5-0.4c-0.1,0-0.3,0-0.4,0c-0.9,0-0.9,0-1.2,0.8c-0.2,0.5-0.5,0.8-1,1c-0.5,0.1-1,0.3-1.4,0.6
		c-0.7,0.4-1.3,0.4-1.9,0C5.2,18,5,17.9,4.9,17.9c-0.4,0.3-0.8,0.6-1,1c-0.1,0.1,0.1,0.5,0.2,0.7c0.3,0.6,0.3,1-0.1,1.6
		c-0.3,0.5-0.5,1.1-0.7,1.6c-0.1,0.5-0.4,0.8-0.9,0.9c-0.2,0.1-0.4,0.1-0.6,0.2c-0.1,0.1-0.2,0.3-0.3,0.4c0,0.1,0,0.3,0,0.4
		c0,0.9,0,0.9,0.8,1.1c0.5,0.2,0.8,0.5,1,1c0.2,0.6,0.5,1.2,0.7,1.8C4.2,29.1,4.3,29.3,4.4,29.5z"/>
	<path d="M39.1,14.1C45.1,14.1,50,19,50,25C50,31,45,35.9,39,35.9c-6,0-10.8-4.9-10.8-10.9C28.2,19,33.1,14.1,39.1,14.1z M29.8,25
		c0,5.1,4.1,9.3,9.2,9.3c5.1,0,9.3-4.1,9.3-9.2c0-5.1-4.1-9.3-9.3-9.3C34,15.7,29.8,19.9,29.8,25z"/>
	<path d="M39.9,10.4c0.3-0.3,0.4-0.5,0.6-0.7c0.3-0.3,0.8-0.3,1.1,0c0.3,0.3,0.4,0.7,0.1,1c-0.7,0.8-1.4,1.6-2.1,2.4
		c-0.3,0.4-0.8,0.3-1.2-0.1c-0.7-0.7-1.3-1.5-2-2.2c-0.3-0.4-0.3-0.8,0-1.1c0.3-0.3,0.8-0.3,1.2,0.1c0.2,0.2,0.3,0.3,0.5,0.6
		c0-0.8,0-1.5,0-2.2c-0.2,0-0.4,0-0.6,0c-5,0-9.9,0-14.9,0c-0.2,0-0.3,0-0.5,0c-0.4-0.1-0.7-0.4-0.7-0.8c0-0.5,0.3-0.7,0.7-0.8
		c0.1,0,0.2,0,0.4,0c5.4,0,10.8,0,16.2,0c0.9,0,1.1,0.2,1.1,1.1C39.9,8.5,39.9,9.4,39.9,10.4z"/>
	<path d="M11.7,39.6c0,0.7,0,1.2,0,1.7c0,0.2,0,0.3,0,0.5c0.2,0,0.4,0,0.6,0c5,0,9.9,0,14.9,0c0.2,0,0.4,0,0.6,0
		c0.4,0.1,0.7,0.4,0.6,0.8c0,0.4-0.3,0.7-0.7,0.7c-0.1,0-0.3,0-0.5,0c-5.4,0-10.7,0-16.1,0c-0.9,0-1.2-0.2-1.2-1.2
		c0-0.9,0-1.7,0-2.7c-0.3,0.3-0.4,0.5-0.6,0.6c-0.3,0.3-0.8,0.3-1.1,0C8.1,40,8,39.5,8.3,39.2c0.7-0.8,1.3-1.6,2-2.3
		c0.3-0.4,0.8-0.4,1.2,0c0.7,0.8,1.4,1.5,2,2.3c0.3,0.3,0.2,0.8-0.1,1.1c-0.3,0.3-0.8,0.3-1.1-0.1C12.1,40,11.9,39.8,11.7,39.6z"/>
	<path d="M32.2,45c0-2.9,0-5.7,0-8.4c0-0.2,0-0.3,0-0.5c0-0.5,0.4-0.8,0.8-0.8c0.4,0,0.8,0.3,0.8,0.8c0,0.6,0,1.1,0,1.7
		c0,2.3,0,4.7,0,7.2c0.2-0.3,0.4-0.4,0.5-0.6c0.4-0.4,0.8-0.4,1.2-0.1c0.3,0.3,0.4,0.8,0.1,1.2c-0.6,0.7-1.3,1.5-1.9,2.2
		c-0.4,0.4-0.9,0.4-1.3,0c-0.7-0.7-1.3-1.5-1.9-2.2c-0.3-0.4-0.3-0.9,0.1-1.2c0.3-0.3,0.8-0.2,1.2,0.1C31.9,44.6,32,44.7,32.2,45z"
		/>
	<path d="M44.3,45c0-0.3,0-0.5,0-0.7c0-2.6,0-5.2,0-7.9c0-0.2,0-0.3,0-0.5c0.1-0.4,0.4-0.7,0.8-0.7c0.4,0,0.7,0.3,0.8,0.7
		c0,0.2,0,0.3,0,0.5c0,2.6,0,5.3,0,7.9c0,0.2,0,0.3,0,0.6c0.2-0.3,0.4-0.5,0.6-0.6c0.3-0.3,0.8-0.4,1.1-0.1c0.3,0.3,0.4,0.7,0.1,1.1
		c-0.7,0.8-1.3,1.6-2,2.3c-0.4,0.4-0.8,0.4-1.2,0c-0.7-0.7-1.3-1.5-2-2.2c-0.3-0.4-0.3-0.8,0-1.1c0.3-0.3,0.8-0.3,1.2,0.1
		C44,44.6,44.1,44.7,44.3,45z"/>
	<path d="M38.3,47c0-0.3,0-0.5,0-0.7c0-2.6,0-5.2,0-7.9c0-0.2,0-0.3,0-0.5c0.1-0.4,0.4-0.7,0.8-0.7c0.4,0,0.7,0.3,0.8,0.7
		c0,0.2,0,0.3,0,0.5c0,2.6,0,5.3,0,7.9c0,0.2,0,0.3,0,0.6c0.2-0.3,0.4-0.5,0.6-0.6c0.3-0.3,0.8-0.4,1.1-0.1c0.3,0.3,0.4,0.7,0.1,1.1
		c-0.7,0.8-1.3,1.6-2,2.3c-0.4,0.4-0.8,0.4-1.2,0c-0.7-0.7-1.3-1.5-2-2.2c-0.3-0.4-0.3-0.8,0-1.1c0.3-0.3,0.8-0.3,1.2,0.1
		C37.9,46.6,38.1,46.7,38.3,47z"/>
	<path d="M10.1,3C9.8,3.3,9.7,3.5,9.5,3.6C9.2,4,8.7,4,8.4,3.7C8.1,3.4,8,2.9,8.3,2.6c0.7-0.8,1.3-1.6,2-2.3c0.4-0.4,0.8-0.4,1.2,0
		c0.7,0.7,1.3,1.5,2,2.3c0.3,0.4,0.2,0.9-0.1,1.1c-0.3,0.3-0.8,0.2-1.1-0.1c-0.2-0.2-0.3-0.4-0.6-0.6c0,0.3,0,0.5,0,0.6
		c0,2.6,0,5.2,0,7.9c0,0.2,0,0.3,0,0.5c-0.1,0.4-0.4,0.7-0.8,0.7c-0.4,0-0.7-0.3-0.8-0.7c0-0.1,0-0.3,0-0.5c0-2.6,0-5.3,0-7.9
		C10.1,3.5,10.1,3.3,10.1,3z"/>
	<path d="M16.1,5c-0.3,0.3-0.4,0.5-0.6,0.6c-0.3,0.3-0.8,0.3-1.1,0c-0.3-0.3-0.4-0.7-0.1-1.1c0.6-0.8,1.3-1.5,2-2.3
		c0.4-0.4,0.9-0.4,1.2,0c0.7,0.7,1.3,1.5,2,2.2c0.3,0.4,0.3,0.8-0.1,1.1C19.1,6,18.6,6,18.3,5.6C18.1,5.5,18,5.3,17.7,5
		c0,0.3,0,0.5,0,0.6c0,2.6,0,5.3,0,7.9c0,0.2,0,0.3,0,0.5c-0.1,0.4-0.3,0.7-0.8,0.7c-0.4,0-0.8-0.3-0.8-0.7c0-0.2,0-0.3,0-0.5
		c0-2.6,0-5.2,0-7.8C16.1,5.5,16.1,5.3,16.1,5z"/>
	<path d="M5.6,5c0,0.3,0,0.5,0,0.6c0,2.6,0,5.3,0,7.9c0,0.2,0,0.3,0,0.5c-0.1,0.4-0.4,0.8-0.8,0.7c-0.4,0-0.7-0.3-0.8-0.7
		c0-0.1,0-0.3,0-0.5c0-2.6,0-5.3,0-7.9C4,5.5,4,5.3,4,5C3.8,5.3,3.7,5.4,3.5,5.6C3.1,6,2.7,6,2.3,5.7C2,5.4,2,4.9,2.3,4.6
		c0.6-0.8,1.3-1.5,2-2.2c0.4-0.4,0.9-0.4,1.2,0c0.7,0.7,1.3,1.5,2,2.2c0.3,0.4,0.3,0.8-0.1,1.1C7,6,6.5,6,6.2,5.6
		C6,5.4,5.9,5.3,5.6,5z"/>
	<path d="M16.9,25c0,3.3-2.7,6-6,6c-3.3,0-5.9-2.7-6-6c0-3.3,2.7-6,6-6C14.2,19,16.8,21.7,16.9,25z M6.5,25c0,2.4,1.9,4.4,4.3,4.4
		c2.4,0,4.4-1.9,4.4-4.3c0-2.4-1.9-4.4-4.3-4.4C8.5,20.6,6.5,22.6,6.5,25z"/>
	<path d="M30.6,25c0-4.7,3.8-8.5,8.5-8.5c4.7,0,8.5,3.8,8.5,8.5c0,4.7-3.8,8.5-8.5,8.4C34.4,33.5,30.6,29.7,30.6,25z M39.1,31.9
		c3.8,0,6.9-3.1,6.9-6.9c0-3.8-3.1-6.9-6.9-6.9c-3.8,0-6.9,3.1-6.9,6.9C32.2,28.8,35.3,31.9,39.1,31.9z"/>
	<path d="M39.9,29.6c0,0.1,0,0.2,0,0.3c-0.1,0.5-0.4,0.8-0.8,0.8c-0.4,0-0.8-0.3-0.8-0.8c0-0.3-0.1-0.4-0.4-0.5
		c-0.9-0.3-1.6-0.9-2-1.9c-0.2-0.6,0-1,0.4-1.2c0.5-0.2,0.9,0,1.1,0.6c0.5,1.3,2.5,1.2,3.1,0.5c0.3-0.3,0.2-1-0.2-1.2
		c-0.4-0.2-0.8-0.3-1.2-0.4c-0.4-0.1-0.9-0.2-1.4-0.4c-1.1-0.4-1.7-1.3-1.7-2.3c0-1.1,0.6-2,1.7-2.4c0.3-0.1,0.5-0.2,0.5-0.6
		c0-0.4,0.3-0.7,0.8-0.7c0.5,0,0.8,0.3,0.8,0.7c0,0.4,0.2,0.5,0.5,0.6c0.8,0.3,1.3,0.8,1.6,1.6c0.2,0.5,0.1,1-0.3,1.2
		c-0.4,0.2-0.8,0-1.1-0.4c-0.5-0.9-1.6-1.2-2.4-0.7c-0.3,0.2-0.5,0.6-0.5,0.8c0,0.3,0.3,0.6,0.5,0.7c0.4,0.2,0.9,0.2,1.3,0.4
		c0.5,0.2,1,0.3,1.5,0.5c0.9,0.5,1.3,1.3,1.3,2.3c0,1-0.6,1.7-1.5,2.1C40.6,29.4,40.2,29.4,39.9,29.6z"/>
</g>
</svg>
