<?xml version="1.0" encoding="utf-8"?>
<!-- Generator: Adobe Illustrator 26.4.1, SVG Export Plug-In . SVG Version: 6.00 Build 0)  -->
<svg version="1.1" id="Layer_1" xmlns="http://www.w3.org/2000/svg" xmlns:xlink="http://www.w3.org/1999/xlink" x="0px" y="0px"
	 viewBox="0 0 50 50" style="enable-background:new 0 0 50 50;" xml:space="preserve">
<g>
	<path d="M29.3,49.9c-0.4-0.3-0.5-0.7-0.5-1.1c0-0.9,0-1.8,0-2.8c-0.2,0-0.4,0-0.6,0c-5.4,0-10.8,0-16.2,0c-0.9,0-1.1-0.2-1.1-1.1
		c0-6,0-12,0-18c0-0.9,0.2-1.1,1.1-1.1c12.3,0,24.6,0,36.8,0c0.8,0,1.1,0.2,1.1,1.1c0,6,0,12.1,0,18.1c0,0.8-0.2,1.1-1.1,1.1
		c-4.8,0-9.6,0-14.5,0c-0.3,0-0.6,0.1-0.9,0.3c-1.2,1.2-2.4,2.4-3.6,3.6C29.7,49.9,29.5,49.9,29.3,49.9z M48.3,27.3
		c-12,0-23.9,0-35.8,0c0,5.7,0,11.4,0,17.1c0.2,0,0.3,0,0.5,0c5.5,0,10.9,0,16.4,0c0.8,0,1,0.3,1,1.1c0,0.5,0,1.1,0,1.8
		c0.8-0.8,1.6-1.6,2.3-2.3c0.3-0.3,0.7-0.5,1.2-0.5c4.6,0,9.2,0,13.8,0c0.2,0,0.4,0,0.6,0C48.3,38.7,48.3,33.1,48.3,27.3z"/>
	<path d="M0,0.5C0.3,0.1,0.7,0,1.1,0c11.7,0,23.5,0,35.2,0c0.9,0,1.1,0.2,1.1,1.1c0,5.5,0,11,0,16.5c0,0.9-0.2,1.1-1.1,1.1
		c-6.4,0-12.8,0-19.2,0c-0.3,0-0.6,0.1-0.8,0.3c-1,1.1-2.1,2.1-3.1,3.1c-0.3,0.3-0.6,0.6-1.1,0.4c-0.4-0.2-0.5-0.6-0.5-1
		c0-0.9,0-1.8,0-2.8c-0.2,0-0.4,0-0.5,0c-3.3,0-6.7,0-10,0c-0.5,0-0.9-0.1-1.1-0.5C0,12.3,0,6.4,0,0.5z M1.6,1.6
		c0,5.2,0,10.4,0,15.6c0.2,0,0.4,0,0.6,0c3.3,0,6.7,0,10,0c0.8,0,1.1,0.2,1.1,1c0,0.5,0,1.1,0,1.8c0.8-0.8,1.6-1.6,2.3-2.3
		c0.3-0.3,0.7-0.5,1.2-0.5c6.2,0,12.4,0,18.6,0c0.2,0,0.4,0,0.6,0c0-5.2,0-10.4,0-15.6C24.4,1.6,13,1.6,1.6,1.6z"/>
	<path d="M0,29.1c0.3-0.5,0.5-1.1,0.9-1.5c0.4-0.4,0.9-0.7,1.4-1c0-0.2,0-0.6,0.1-0.9c0.4-2.1,2.2-3.7,4.4-3.7c0.8,0,1.7,0,2.5,0
		c0,0.5,0,1,0,1.6c-0.8,0-1.5,0-2.3,0c-0.5,0-1,0.1-1.4,0.3c-1.1,0.5-1.6,1.4-1.7,2.6c0,0.1,0.1,0.4,0.3,0.4c1.3,0.5,2,1.5,2.1,2.9
		c0,1.3-0.7,2.4-2.1,2.9c-0.3,0.1-0.3,0.3-0.3,0.5c0.1,1.5,1.4,2.8,2.9,2.8c0.8,0,1.6,0,2.5,0c0,0.5,0,1,0,1.5
		c-2.1,0-4.3,0.4-5.9-1.5c-0.7-0.8-1-1.6-1.1-3.2c-1.2-0.3-1.9-1.2-2.3-2.4C0,29.8,0,29.5,0,29.1z M4.7,29.6c0-0.8-0.7-1.6-1.6-1.6
		c-0.9,0-1.6,0.7-1.6,1.5c0,0.9,0.7,1.6,1.6,1.6C4,31.2,4.7,30.5,4.7,29.6z"/>
	<path d="M45.9,19.3c-1.4-0.5-2.3-1.5-2.4-3.1c-0.1-1.4,0.7-2.4,2.4-3.2c0-0.4,0-0.8,0-1.2c-0.1-1.1-1.1-2-2.2-2c-1.4,0-2.7,0-4.1,0
		c0-0.5,0-1,0-1.5c1.6,0,3.3-0.1,4.8,0c1.8,0.2,3.1,1.9,3.1,3.7c0,0.3,0,0.7,0,1c1.6,0.6,2.5,1.6,2.4,3.3c-0.1,1.5-1,2.4-2.2,2.9
		c-0.2,0.7-0.3,1.4-0.5,1.9c-0.6,1.4-1.8,2.2-3.3,2.2c-8.8,0-17.7,0-26.5,0c0,0-0.1,0-0.1,0c0-0.5,0-1,0-1.6c0.2,0,0.4,0,0.6,0
		c8.6,0,17.2,0,25.8,0C45.1,21.8,46.1,20.7,45.9,19.3z M46.8,14.6c-0.9,0-1.6,0.7-1.6,1.6c0,0.9,0.7,1.6,1.6,1.6
		c0.9,0,1.6-0.7,1.6-1.6C48.4,15.3,47.6,14.6,46.8,14.6z"/>
	<path d="M26.5,39c0.5,0,1,0,1.5,0c0,0.2,0.1,0.3,0.1,0.5c0.3,1.2,1.4,2,2.6,1.8c1.2-0.2,2.1-1.2,2-2.4c0-1.2-1-2.2-2.2-2.2
		c-1.2,0-2.2-0.4-3-1.3c-1.1-1.2-1.3-3.1-0.5-4.6c0.9-1.5,2.6-2.2,4.3-1.8c1.6,0.4,2.9,1.8,3,3.4c0,0.1,0,0.2,0,0.3
		c-0.5,0-1,0-1.5,0c0-0.1-0.1-0.3-0.1-0.4c-0.3-1.2-1.4-2-2.6-1.8c-1.2,0.2-2.1,1.2-2,2.4c0,1.2,1,2.2,2.3,2.2
		c1.9,0.1,3.3,1.1,3.8,2.8c0.4,1.6,0,2.9-1.2,4c-1.2,1.1-2.7,1.3-4.2,0.6C27.3,41.9,26.6,40.7,26.5,39z"/>
	<path d="M35.9,39c0.5,0,1,0,1.5,0c0,0.1,0,0.3,0.1,0.4c0.3,1.2,1.4,2,2.6,1.9c1.2-0.1,2.1-1.2,2.1-2.4c0-1.2-1-2.2-2.3-2.2
		c-1.9-0.1-3.3-1.1-3.8-2.8c-0.4-1.5,0-2.9,1.1-3.9c1.2-1.1,2.6-1.3,4-0.7c1.5,0.6,2.3,1.7,2.5,3.3c0,0.1,0,0.2,0,0.3
		c-0.5,0-1,0-1.5,0c-0.3-1.4-1.1-2.2-2.2-2.3c-1.3-0.1-2.4,0.9-2.5,2.2c-0.1,1.3,1,2.4,2.3,2.4c1.8,0.1,3.1,1,3.7,2.6
		c0.5,1.5,0.2,2.9-0.9,4.1c-1.1,1.1-2.5,1.5-4,0.9c-1.5-0.5-2.4-1.7-2.6-3.3C35.9,39.3,35.9,39.2,35.9,39z"/>
	<path d="M23.4,39c0.5,0,1,0,1.5,0c0,1.3-0.5,2.3-1.5,3.1c-1.2,0.9-2.6,1.1-4,0.4c-1.4-0.7-2.2-1.9-2.2-3.5c0-2.1,0-4.3,0-6.4
		c0-2.1,1.7-3.7,3.8-3.8c2.1,0,3.8,1.5,4,3.6c0,0.1,0,0.2,0,0.3c-0.5,0-1,0-1.5,0c0-0.2-0.1-0.4-0.1-0.6c-0.3-1.1-1.4-1.8-2.5-1.7
		c-1.1,0.1-2.1,1.1-2.1,2.2c0,2.1,0,4.3,0,6.4c0,1.2,0.9,2.1,2.1,2.2c1.1,0.1,2.2-0.6,2.5-1.7C23.4,39.4,23.4,39.2,23.4,39z"/>
	<path d="M23.4,8.7c0.3-0.8,0.5-1.4,0.8-2.1c0.3-0.7,0.5-1.4,0.8-2.1c0.2-0.4,0.5-0.6,0.9-0.6c0.4,0.1,0.6,0.4,0.6,0.8
		c0,3.3,0,6.6,0,9.9c0,0,0,0.1,0,0.1c-0.5,0-1,0-1.5,0c0-1.9,0-3.7,0-5.6c0,0-0.1,0-0.1,0c-0.2,0.6-0.5,1.2-0.7,1.8
		c-0.1,0.4-0.3,0.7-0.8,0.7c-0.5,0-0.7-0.3-0.8-0.7c-0.2-0.6-0.4-1.2-0.7-1.8c0,1.8,0,3.7,0,5.6c-0.5,0-1,0-1.5,0c0-0.1,0-0.2,0-0.4
		c0-3.2,0-6.4,0-9.5c0-0.2,0.1-0.5,0.2-0.7c0.4-0.5,1.1-0.3,1.3,0.4c0.4,1.2,0.9,2.3,1.3,3.5C23.2,8.2,23.3,8.4,23.4,8.7z"/>
	<path d="M4.7,3.9c0.5,0,1,0,1.5,0c0,1.5,0,3.1,0,4.6c1,0,2.1,0,3.1,0c0-1.5,0-3.1,0-4.6c0.5,0,1,0,1.5,0c0,3.6,0,7.2,0,10.9
		c-0.5,0-1,0-1.5,0c0-1.5,0-3.1,0-4.6c-1,0-2.1,0-3.1,0c0,1.5,0,3.1,0,4.6c-0.5,0-1,0-1.5,0C4.7,11.2,4.7,7.6,4.7,3.9z"/>
	<path d="M18.7,3.9c0,0.5,0,1,0,1.5c-0.8,0-1.5,0-2.3,0c0,3.1,0,6.2,0,9.3c-0.5,0-1,0-1.6,0c0-3.1,0-6.2,0-9.3c-0.8,0-1.5,0-2.3,0
		c0-0.5,0-1,0-1.5C14.6,3.9,16.6,3.9,18.7,3.9z"/>
	<path d="M33.5,13.3c0,0.5,0,1,0,1.5c-1.2,0-2.4,0.1-3.6,0c-1.1-0.1-1.8-1.1-1.8-2.1c0-2.9,0-5.7,0-8.6c0,0,0-0.1,0-0.1
		c0.5,0,1,0,1.5,0c0,0.2,0,0.4,0,0.5c0,2.6,0,5.2,0,7.8c0,0.7,0.2,1,1,1C31.5,13.3,32.5,13.3,33.5,13.3z"/>
</g>
</svg>
