<?xml version="1.0" encoding="utf-8"?>
<!-- Generator: Adobe Illustrator 26.4.1, SVG Export Plug-In . SVG Version: 6.00 Build 0)  -->
<svg version="1.1" id="Layer_1" xmlns="http://www.w3.org/2000/svg" xmlns:xlink="http://www.w3.org/1999/xlink" x="0px" y="0px"
	 viewBox="0 0 50 50" style="enable-background:new 0 0 50 50;" xml:space="preserve">
<g>
	<path d="M0,2.8c0.9-2.1,2.1-2.7,4.4-2.1c1.8,0.5,3.5,1.3,5,2.6c0.5,0.4,0.9,0.6,1.5,0.6c2.6,0,5,0.7,7.2,2.1c4.9,3,9,6.8,11.9,11.8
		c0.8,1.3,1.3,2.7,1.9,4.1c1.2,2.5,2.3,5,3.5,7.5c0.4,0.8,0.9,1.3,1.7,1.6c3.6,1.3,6.6,3.5,9.4,6c0.6,0.5,1.1,1.2,1.6,1.9
		c0.2,0.3,0.1,0.4-0.2,0.5c-0.9,0.2-1.8,0.4-2.7,0.6c-1.4,0.3-2.9,0.6-4.3,0.8c0,0.1-0.1,0.1-0.1,0.2c0.4,0.4,0.7,0.8,1.1,1.1
		c0.6,0.5,1.3,0.9,2,1.3c1.6,0.9,3,2.2,4.2,3.6c0.2,0.2,0.4,0.5,0.6,0.6c0.6,0.5,1,1.1,1.2,1.9c-0.2-0.1-0.3-0.2-0.4-0.3
		c-1.6-1.5-3.4-2.6-5.5-3.5c-1.4-0.6-2.7-1.5-3.9-2.5c-0.9-0.8-1.6-1.8-2-2.9c-0.1-0.3,0.2-0.5,0.4-0.6c1.3-0.4,2.7-0.8,4-1.1
		c1.1-0.2,2.3-0.2,3.5-0.3c-0.2-0.2-0.3-0.5-0.6-0.6c-2.8-1.9-5.5-4.2-9-4.9c-1.4-0.3-2.3-1.1-2.9-2.4c-1.3-2.9-2.8-5.7-4-8.7
		c-1.3-3.1-3-5.8-5.2-8.2c-2.9-3.2-6.3-5.8-10.5-7.3c-0.7-0.3-1.5-0.3-2.3-0.4c-0.7-0.1-1.4,0-2.1-0.2c-0.4,0-0.7-0.3-1-0.5
		C7,3.8,5.2,3.1,3.5,2.5C3.2,2.4,3,2.4,2.7,2.3c-0.8,0-1.4,0.6-1.1,1.4c0.2,0.6,0.6,1.2,1,1.8c0.3,0.4,0.6,0.8,1,1.2
		c1.7,2,2.5,4.5,3.3,6.9c0.3,1.1,0.8,2.1,1.3,3.1c0.3,0.6,0.7,1.1,1.2,1.5c0.6,0.6,0.8,1.2,0.6,2c-0.2,0.7-0.5,1.4-0.7,2.2
		c-1.1,3.6-1,7.1,0.7,10.5c0.3,0.6,0.7,1.1,1.5,1.3c0.1-0.6,0.1-1.1,0.2-1.7c0.2-1,0.3-2,0.6-3c0.3-1.1,1.1-1.9,1.8-2.8
		c0.1,0.2,0.2,0.4,0.3,0.6c1.6,4.4,3.9,8.4,7,11.8c0.3,0.3,0.7,0.6,1,1c-0.2-0.1-0.5-0.3-0.7-0.4c-1.4-1.2-2.7-2.4-4.1-3.7
		c-1.3-1.2-2.2-2.6-2.8-4.1c-0.1-0.4-0.3-0.7-0.6-1c-0.1,0.8-0.3,1.5-0.4,2.3c-0.1,0.5-0.1,1-0.3,1.5c-0.4,1.4-1.8,1.9-3,1.1
		c-1-0.6-1.6-1.5-2-2.5c-1.1-2.2-1.4-4.6-1.3-7.1c0.1-1.8,0.6-3.6,1.1-5.3c0.3-0.9,0-1.3-0.4-1.9c-0.8-1.2-1.5-2.5-2.1-3.8
		S4.9,12.4,4.3,11C4,10.2,3.6,9.6,3.2,9C2.6,8.1,2,7.3,1.4,6.5C0.7,5.7,0.3,4.9,0,3.9C0,3.5,0,3.2,0,2.8z"/>
	<path d="M10.1,9.1c1.3-0.5,2,0.1,2.5,1.2c0.2,0.5-0.1,1.4-0.6,1.8C11.3,11.1,10.7,10.1,10.1,9.1z"/>
</g>
</svg>
