<?xml version="1.0" encoding="utf-8"?>
<!-- Generator: Adobe Illustrator 26.4.1, SVG Export Plug-In . SVG Version: 6.00 Build 0)  -->
<svg version="1.1" id="Layer_1" xmlns="http://www.w3.org/2000/svg" xmlns:xlink="http://www.w3.org/1999/xlink" x="0px" y="0px"
	 viewBox="0 0 50 50" style="enable-background:new 0 0 50 50;" xml:space="preserve">
<style type="text/css">
	.st0{fill:#020100;}
	.st1{fill:#010100;}
</style>
<g>
	<path d="M30.7,40.1c0.4,1.9,0.9,3.8,1.3,5.7c1.1,0,2.2,0,3.3,0c0.2,0,0.5,0,0.7,0c0.5,0.1,0.7,0.4,0.7,0.9c0,0.5-0.2,0.8-0.7,0.9
		c-0.2,0-0.4,0-0.6,0c-6.9,0-13.7,0-20.6,0c-0.1,0-0.1,0-0.2,0c-0.7,0-1.1-0.3-1.1-0.9c0-0.6,0.4-1,1.1-1c1,0,2,0,3,0
		c0.2,0,0.4,0,0.6,0c0.4-1.9,0.9-3.7,1.3-5.7c-0.3,0-0.5,0-0.6,0c-5.2,0-10.5,0-15.7,0c-1.9,0-3-1.1-3-3.2c0-10.5,0-21,0-31.4
		c0-2,1.1-3.1,3-3.1c14.6,0,29.3,0,43.9,0c1.9,0,3,1.1,3,3.2c0,10.5,0,20.9,0,31.4c0,2.1-1.1,3.2-3,3.2c-5.2,0-10.5,0-15.7,0
		C31.1,40.1,30.9,40.1,30.7,40.1z M1.9,33.5c15.5,0,30.9,0,46.3,0c0-0.3,0-0.5,0-0.7c0-9,0-18.1,0-27.1c0-1.2-0.2-1.4-1.3-1.4
		c-14.5,0-29.1,0-43.6,0c-1.1,0-1.3,0.3-1.3,1.4c0,9,0,18.1,0,27.1C1.9,33,1.9,33.2,1.9,33.5z M1.9,35.4c0,0.5,0,0.9,0,1.4
		c0,1.2,0.2,1.4,1.4,1.4c14.5,0,29.1,0,43.6,0c0.2,0,0.4,0,0.6,0c0.5-0.1,0.8-0.3,0.8-0.8c0-0.6,0-1.3,0-2
		C32.8,35.4,17.4,35.4,1.9,35.4z M20,45.7c3.4,0,6.8,0,10.1,0c-0.4-1.9-0.9-3.8-1.3-5.6c-2.5,0-5,0-7.5,0c-0.4,1.8-0.8,3.5-1.2,5.2
		C20,45.4,20,45.6,20,45.7z"/>
	<path d="M9.6,18.8c1,0.9,1.3,2.1,1.2,3.4c0,0.6,0,1.3,0,1.9c0,1,0.7,1.7,1.6,1.8c0.7,0.1,1.1,0.4,1,1c-0.1,0.6-0.5,0.9-1.2,0.8
		c-1.8-0.2-3.2-1.7-3.2-3.5c0-0.9,0-1.7,0-2.6c0-1.1-0.6-1.8-1.7-1.9c-0.6-0.1-0.9-0.4-0.9-0.9c0-0.5,0.3-0.8,0.9-0.9
		c1.1-0.1,1.8-0.8,1.8-1.9c0-0.9,0-1.7,0-2.6c0-1.9,1.6-3.4,3.4-3.4c0.3,0,0.7,0.2,0.9,0.4c0.4,0.5,0,1.3-0.7,1.4
		c-1.3,0.2-1.8,0.8-1.8,2.1c0,0.6,0,1.2,0,1.8C10.9,16.8,10.6,17.9,9.6,18.8z"/>
	<path d="M40.5,18.8c-1-0.9-1.3-2.1-1.2-3.5c0-0.6,0-1.2,0-1.8c0-1-0.7-1.7-1.7-1.8c-0.7-0.1-1-0.4-1-1c0-0.6,0.4-0.8,1.1-0.8
		c1.8,0.1,3.3,1.6,3.3,3.4c0,0.9,0,1.8,0,2.7c0,1.1,0.6,1.8,1.7,1.9c0.6,0.1,0.9,0.4,0.9,0.9c0,0.5-0.3,0.8-0.9,0.9
		c-1.1,0.1-1.7,0.8-1.7,1.9c0,0.9,0,1.8,0,2.7c-0.1,1.8-1.6,3.4-3.4,3.4c-0.4,0-0.8-0.1-1-0.6c-0.2-0.6,0.1-1.1,0.8-1.2
		c1.3-0.2,1.8-0.8,1.8-2.1c0-0.6,0-1.3,0-1.9C39.3,20.5,39.5,19.9,40.5,18.8z"/>
	<g>
		<path class="st0" d="M32.2,14.6c-0.7,0.4-1.3,0.9-2,1.2c-0.1-0.2-0.2-0.4-0.4-0.5c-0.4-0.5-1-0.7-1.7-0.5
			c-0.9,0.2-1.1,1.3-0.4,1.9c0.3,0.3,0.7,0.4,1,0.6c0.8,0.4,1.6,0.7,2.3,1.1c0.9,0.4,1.5,1.1,1.8,2.1c0.6,2.1-0.2,4.1-2.7,4.6
			c-1.6,0.3-3.1,0.2-4.5-0.7c-0.7-0.4-1.1-1-1.5-1.7c0.7-0.4,1.4-0.8,2.1-1.2c0.1,0.1,0.2,0.2,0.2,0.3c0.8,1.2,2,1.4,3.1,1.1
			c0.5-0.2,0.9-0.4,1-1c0.1-0.5-0.2-1-0.7-1.2c-0.7-0.4-1.3-0.7-1.9-0.9c-0.7-0.3-1.4-0.7-2-1.1c-1.1-1-1.4-2.2-1-3.6
			c0.3-1.4,1.3-2.1,2.7-2.4c0.7-0.2,1.4-0.1,2.1,0C30.8,12.9,31.6,13.6,32.2,14.6z"/>
		<path class="st1" d="M15.1,22.9c0.7-0.4,1.4-0.8,2.1-1.2c0.2,0.2,0.3,0.4,0.4,0.7c0.3,0.5,0.8,0.7,1.4,0.7
			c0.7-0.1,1.1-0.4,1.1-1.1c0.1-0.2,0.1-0.5,0.1-0.7c0-2.7,0-5.4,0-8.1c0-0.1,0-0.2,0-0.3c0.9,0,1.7,0,2.5,0c0,0.1,0,0.2,0,0.2
			c0,2.8,0,5.6,0,8.4c0,0.5-0.1,1-0.2,1.4c-0.3,1.2-1.1,2-2.4,2.3c-1.1,0.3-2.3,0.2-3.4-0.3C16,24.3,15.5,23.8,15.1,22.9z"/>
	</g>
</g>
</svg>
