<svg version="1.1" id="Layer_1" xmlns="http://www.w3.org/2000/svg" x="0" y="0" viewBox="0 0 50 50" style="enable-background:new 0 0 50 50" xml:space="preserve"><style>.st2{fill:#040404}</style><path d="M0 43.6V7.2l.1-.1c.5-1.2 1.4-1.7 2.7-1.7h18.6c1.7 0 2.7 1 2.7 2.7v4h1.7V7.9c0-1.5 1.1-2.5 2.5-2.5h19.2c1.1 0 2 .7 2.4 1.7 0 .1.1.2.1.2v36.2c0 .1-.1.1-.1.2-.5 1.1-1.3 1.7-2.5 1.7H28.6c-1.6 0-2.7-1-2.7-2.7v-4h-1.6v3.9c0 1.8-1 2.8-2.8 2.8H3.1c-1.3 0-2.3-.5-2.8-1.8H0zM19.2 7.1v1.5c0 1.6-1 2.7-2.7 2.7H7.7C6.1 11.2 5 10.2 5 8.6V7.1H2.8c-.9 0-1.2.3-1.2 1.2v34.3c0 1 .2 1.2 1.2 1.2H21.6c.5-.1.8-.3.8-.8v-4.3c-6.7-1.9-10.7-6.1-10.7-13.1 0-7.1 4-11.4 10.7-13.3V8c0-.5-.3-.8-.8-.8-.8-.2-1.6-.1-2.4-.1zm29.1 3.3H27.5v1.8c6.2 1.7 9.9 5.5 10.7 11.9.3 7.7-3.6 12.3-10.7 14.4v1.8h20.8V10.4zM25 13.7c-6.4 0-11.6 5.2-11.7 11.6 0 6.5 5.1 11.7 11.6 11.7 6.4.1 11.7-5.2 11.7-11.6.1-6.4-5.1-11.7-11.6-11.7zm23.3-5v-.6c0-.7-.3-1-1-1H28.5c-.7 0-1 .3-1 1v.6h20.8zM6.7 7.1V8.5c0 .8.3 1.1 1.1 1.1h8.8c.5 0 .9-.2.9-.7V7.1H6.7zm34.9 36.6h5.9c.5 0 .8-.3.8-.8V42h-6.7v1.7zm-7.4-1.6h-6.7v.4c0 1 .2 1.2 1.2 1.2h5.5v-1.6zm3.7 0h-1.2c-.5 0-.8.3-.9.8 0 .4.3.8.8.8h2.6c.5 0 .8-.4.8-.9 0-.4-.3-.8-.8-.8-.5.1-.9.1-1.3.1z" style="fill:#030303"/><path d="M12.1 40.4h4.5c.4 0 .7.2.9.6.1.4 0 .7-.3.9-.2.1-.4.2-.6.2h-9c-.6 0-.9-.4-.9-.9s.4-.8 1-.8h4.4z" style="fill:#050505"/><path class="st2" d="M26.7 22.2c-.2.7-.4 1.5-.6 2.2-.4 1.4-.7 2.9-1.1 4.3-.2.6-.5.9-1 .8-.5-.1-.7-.6-.6-1.1.5-2.1 1.1-4.3 1.6-6.4.1-.5.5-.8.9-.7.5 0 .8.3.8.9zM30.5 25.4l-1.8-1.8c-.4-.4-.5-.9-.1-1.3s.8-.3 1.3.1l2.3 2.3c.5.5.5.9 0 1.4l-2.3 2.3c-.4.4-.9.4-1.3.1-.3-.4-.3-.8.1-1.2.6-.7 1.2-1.3 1.8-1.9zM19.5 25.4l1.8 1.8c.5.5.5.9.1 1.3s-.8.3-1.3-.1c-.8-.7-1.5-1.5-2.2-2.2-.5-.5-.5-.9 0-1.4l2.3-2.3c.4-.4.9-.4 1.3-.1.3.4.3.8-.1 1.2-.7.6-1.3 1.2-1.9 1.8z"/></svg>