<svg xmlns="http://www.w3.org/2000/svg" viewBox="0 0 24 24"><path d="M6.703 20.782a2.29 2.29 0 0 1-1.118-.294l-.536-.299a.5.5 0 1 1 .487-.873l.536.299c.404.225.886.222 1.288-.015.401-.236.64-.654.64-1.119V7.5a.5.5 0 0 1 1 0v10.981c0 .823-.424 1.563-1.134 1.98a2.27 2.27 0 0 1-1.163.321z"/><path d="M12.002 23.999c-.273 0-.548-.071-.791-.214l-2.465-1.438a.5.5 0 0 1 .504-.864l2.465 1.438a.56.56 0 0 0 .573 0l8.922-5.206a.597.597 0 0 0 .29-.511V6.793a.596.596 0 0 0-.292-.512l-8.919-5.204a.563.563 0 0 0-.572 0L2.788 6.282a.59.59 0 0 0-.288.51v10.412c0 .211.11.405.289.51l2.757 1.608a.5.5 0 0 1-.504.864l-2.757-1.608a1.593 1.593 0 0 1-.785-1.374V6.793a1.591 1.591 0 0 1 .784-1.374L11.21.215a1.57 1.57 0 0 1 1.582-.002l8.921 5.205c.486.285.787.811.787 1.375v10.413a1.602 1.602 0 0 1-.784 1.372l-8.924 5.207a1.558 1.558 0 0 1-.79.214z"/><path d="M14.5 17c-2.176 0-4.5-.723-4.5-2.75a.5.5 0 0 1 1 0c0 1.701 3.142 1.75 3.5 1.75 1.915 0 3.5-.132 3.5-1.75 0-.822-.831-1.101-2.872-1.585l-.748-.18c-.23-.058-.477-.111-.729-.167C12.024 11.961 10 11.516 10 9.75 10 7.723 12.324 7 14.5 7s4.5.723 4.5 2.75a.5.5 0 0 1-1 0C18 8.049 14.858 8 14.5 8S11 8.049 11 9.75c0 .891 1.242 1.235 2.865 1.592.262.058.516.113.755.173l.738.178c1.954.462 3.642.863 3.642 2.557C19 17 16.072 17 14.5 17z"/></svg>