<?xml version="1.0" encoding="utf-8"?>
<!-- Generator: Adobe Illustrator 26.4.1, SVG Export Plug-In . SVG Version: 6.00 Build 0)  -->
<svg version="1.1" id="Layer_1" xmlns="http://www.w3.org/2000/svg" xmlns:xlink="http://www.w3.org/1999/xlink" x="0px" y="0px"
	 viewBox="0 0 50 50" style="enable-background:new 0 0 50 50;" xml:space="preserve">
<g>
	<path d="M0,24.6c0.5-2,2-3.1,3.8-4c2.4-1.3,5-1.9,7.7-2.5c0.3-0.1,0.6-0.1,1-0.2c-0.3-0.9-0.6-1.8-0.8-2.7
		c-0.7-2.4-1.3-4.9-1.1-7.4c0.1-1.1,0.3-2.2,1-3.1c0.9-1.3,2.4-1.7,4-1.3c1.5,0.4,2.8,1.2,4,2c1.8,1.3,3.4,2.9,4.9,4.5
		c0.2,0.2,0.4,0.4,0.6,0.6c0,0,0.1,0,0.1,0.1c0.2-0.3,0.5-0.5,0.7-0.8c1.8-2,3.8-3.9,6.1-5.3c0.9-0.5,1.9-1,2.9-1.2
		c2.3-0.5,4.1,0.8,4.5,3.1c0.4,2.3,0.1,4.6-0.4,6.8c-0.4,1.5-0.8,3-1.3,4.5c0.4,0.1,0.9,0.2,1.4,0.3c2.5,0.5,4.9,1.2,7.2,2.4
		c1.2,0.6,2.3,1.3,3.1,2.4c0.3,0.5,0.5,1.1,0.7,1.6c0,0.3,0,0.6,0,1c-0.2,0.5-0.4,1.1-0.7,1.6c-0.7,1.1-1.9,1.8-3,2.4
		c-2.4,1.2-5,1.9-7.6,2.5c-0.3,0.1-0.7,0.1-0.9,0.2c0.4,1.5,0.9,3,1.3,4.5c0.5,2.2,0.9,4.5,0.4,6.8c-0.4,2.3-2.2,3.6-4.5,3.1
		c-1-0.2-2-0.7-2.9-1.2c-2.4-1.4-4.3-3.3-6.1-5.3c-0.2-0.3-0.5-0.5-0.7-0.8c-0.1,0-0.1,0-0.1,0.1c-0.2,0.2-0.4,0.5-0.6,0.7
		c-1.5,1.7-3.1,3.2-4.9,4.5c-1.2,0.9-2.5,1.6-3.9,2c-1.7,0.4-3.1,0-4-1.3c-0.7-0.9-0.9-2-1-3.1c-0.1-2.4,0.4-4.7,1-7
		c0.3-1,0.6-2,0.9-3c-0.2,0-0.3-0.1-0.5-0.1c-2.5-0.5-5-1.1-7.3-2.2c-2-0.9-4-2-4.6-4.5C0,25.2,0,24.9,0,24.6z M13.1,19.8
		c-2.8,0.5-5.6,1.2-8.2,2.5c-0.9,0.4-1.7,1-2.3,1.7c-0.7,0.7-0.7,1.4,0,2.2c0.4,0.4,0.8,0.8,1.3,1.1c2.9,1.8,6.1,2.5,9.3,3.1
		c0.6-1.3,1.1-2.6,1.7-3.8c0.6-1.1,0.6-1.9,0-3C14.2,22.4,13.7,21.1,13.1,19.8z M36.9,19.8c-0.8,1.7-1.6,3.4-2.3,5
		c-0.1,0.2,0,0.4,0.1,0.6c0.6,1.4,1.2,2.7,1.9,4.1c0.1,0.3,0.2,0.5,0.3,0.8c2.8-0.5,5.5-1.2,8-2.4c1-0.5,1.9-1,2.6-1.8
		c0.6-0.7,0.6-1.4,0-2.1c-0.4-0.4-0.9-0.9-1.4-1.2C43.2,21.1,40.1,20.4,36.9,19.8z M23.7,12.2c-1.4-1.4-2.7-2.8-4.1-4.1
		C18.3,7,16.9,6,15.2,5.5c-1.4-0.5-2.3,0-2.5,1.5c-0.1,0.9-0.2,1.8-0.1,2.8c0.2,2.6,1,5.1,1.8,7.5c0.1,0.3,0.2,0.3,0.5,0.3
		c1.7-0.2,3.4-0.4,5.1-0.6c0.2,0,0.4-0.1,0.4-0.2C21.5,15.2,22.5,13.8,23.7,12.2z M26.4,37.8c1.6,1.9,3.3,3.7,5.4,5.2
		c1,0.7,2,1.2,3.1,1.7c1.3,0.5,2.2-0.1,2.4-1.4c0.1-0.9,0.2-1.8,0.2-2.7c-0.2-2.6-1-5.2-1.9-7.6c0-0.1-0.3-0.2-0.4-0.2
		c-1.7,0.2-3.5,0.3-5.2,0.5c-0.2,0-0.3,0.1-0.4,0.2C28.5,34.9,27.5,36.3,26.4,37.8z M26.4,12.3c1.1,1.5,2.1,2.9,3.2,4.4
		c0.1,0.1,0.2,0.2,0.4,0.2c1.8,0.2,3.5,0.4,5.3,0.5c0.1,0,0.3-0.1,0.4-0.2c0.9-2.5,1.7-5.1,1.9-7.8c0.1-1-0.1-1.9-0.3-2.9
		c-0.2-1-0.9-1.3-1.8-1.2c-1,0.1-1.8,0.6-2.7,1.2C30.2,8.1,28.3,10.1,26.4,12.3z M23.6,37.8c-1.1-1.5-2.1-3-3.2-4.4
		c-0.1-0.1-0.3-0.2-0.5-0.2c-1.7-0.2-3.4-0.4-5-0.5c-0.3,0-0.4,0-0.5,0.3c-0.1,0.4-0.3,0.7-0.4,1.1c-0.7,2.3-1.4,4.5-1.5,6.9
		c0,0.9,0.1,1.8,0.3,2.7c0.2,0.9,0.9,1.3,1.8,1.1c0.6-0.1,1.2-0.3,1.7-0.6C19.3,42.6,21.5,40.2,23.6,37.8z M25,31.2
		c1.1,0,2.1,0,3.2,0c0.2,0,0.4-0.1,0.5-0.3c1.1-1.8,2.2-3.7,3.2-5.5c0.1-0.2,0.1-0.4,0-0.6c-1.1-1.9-2.1-3.7-3.2-5.5
		c-0.1-0.2-0.3-0.3-0.5-0.3c-2.1,0-4.2,0-6.3,0c-0.2,0-0.4,0.1-0.5,0.3c-1.1,1.9-2.2,3.7-3.3,5.6c-0.1,0.1-0.1,0.4,0,0.6
		c1.1,1.9,2.2,3.7,3.3,5.6c0.1,0.1,0.3,0.3,0.5,0.3C22.9,31.2,23.9,31.2,25,31.2z M18.9,19c-1.3,0.1-2.4,0.3-3.6,0.4
		c0.5,1.2,1,2.2,1.5,3.3C17.5,21.5,18.2,20.3,18.9,19z M31.1,31c1.3-0.1,2.4-0.3,3.6-0.4c-0.5-1.2-1-2.2-1.5-3.3
		C32.5,28.6,31.8,29.8,31.1,31z M33.3,22.8c0.5-1.1,1-2.2,1.5-3.3c-1.3-0.1-2.4-0.2-3.6-0.4C31.9,20.3,32.5,21.5,33.3,22.8z
		 M16.7,27.3c-0.5,1.1-1,2.2-1.5,3.3c1.3,0.1,2.4,0.2,3.6,0.4C18.2,29.8,17.5,28.6,16.7,27.3z M25,14c-0.7,0.9-1.3,1.8-2,2.7
		c1.4,0,2.7,0,4.1,0C26.3,15.8,25.7,14.9,25,14z M25,36.1c0.7-0.9,1.4-1.8,2-2.7c-1.4,0-2.7,0-4.1,0C23.7,34.3,24.3,35.2,25,36.1z"
		/>
	<path d="M29.2,25c0,2.2-1.9,4.1-4.1,4.2c-2.2,0-4.2-1.9-4.2-4.1c0-2.2,1.9-4.1,4.1-4.2C27.2,20.9,29.1,22.7,29.2,25z M25,27.1
		c1.2,0,2.1-0.9,2.1-2c0-1.2-0.9-2.1-2.1-2.1c-1.2,0-2.1,0.9-2.1,2C22.9,26.2,23.8,27.1,25,27.1z"/>
</g>
</svg>
