<?xml version="1.0" encoding="utf-8"?>
<!-- Generator: Adobe Illustrator 26.4.1, SVG Export Plug-In . SVG Version: 6.00 Build 0)  -->
<svg version="1.1" id="Layer_1" xmlns="http://www.w3.org/2000/svg" xmlns:xlink="http://www.w3.org/1999/xlink" x="0px" y="0px"
	 viewBox="0 0 50 50" style="enable-background:new 0 0 50 50;" xml:space="preserve">
<g>
	<path d="M0,30.8c0.1-0.1,0.2-0.3,0.3-0.4c2.3-4.1,4.6-8.2,6.9-12.3c0.5-0.8,0.8-0.9,1.5-0.4c1.6,1,3.2,1.9,4.9,2.9
		c0.8,0.5,0.9,0.7,0.5,1.6c0,0.1,0,0.1-0.1,0.2c1.2,0,2.5,0,3.7,0c0.7,0,1.4-0.1,2-0.5c0.4-0.2,0.8-0.4,1.1-0.6
		c0.9-0.5,1.9-0.6,2.8,0c0.9,0.6,1.7,0.7,2.6,0.1c0.6-0.4,1.4-0.3,2.1-0.1c1.8,0.6,3.6,1.3,5.5,1.9c1.2,0.4,1.5,0.4,2.7-0.2
		c-0.2-0.3-0.4-0.7-0.5-1c-0.3-0.6-0.2-1,0.3-1.3c1.8-1.1,3.5-2.1,5.3-3.1c0.6-0.3,0.9-0.2,1.3,0.3c2.4,4.2,4.7,8.4,7.1,12.6
		c0.3,0.6,0.2,1-0.4,1.3c-1.7,1-3.5,2.1-5.2,3.1c-0.6,0.3-1,0.2-1.3-0.4c-0.2-0.3-0.4-0.6-0.5-0.9c0,0,0,0-0.1-0.1
		c-1.4,0.8-2.8,1.7-4.2,2.5c1.3,2.2,0.1,4.9-2.7,5.1c-0.3,2.2-1.1,3.1-3.3,3.3c0,1-0.3,1.9-1.1,2.6c-0.8,0.7-1.6,0.8-2.6,0.7
		c0,0.1-0.1,0.3-0.1,0.4c-0.6,1.8-2.7,2.4-4.1,1.2c-0.1-0.1-0.4-0.2-0.6-0.2c-1.5,0.3-2.7-0.5-3.1-1.9c0-0.1,0-0.1-0.1-0.2
		c-2.3,0.2-3.6-1.3-3.7-3.3c-2-0.2-3.1-1.3-3.2-3.4c-1,0-1.9-0.4-2.5-1.2c-0.6-0.8-0.8-1.8-0.6-2.9c-1-0.6-2.1-1.3-3.2-1.9
		C7.1,34.5,7,34.6,7,34.8c-0.3,0.4-0.7,0.5-1.1,0.3C4,34,2.2,32.9,0.4,31.8c-0.2-0.1-0.3-0.3-0.4-0.4C0,31.2,0,31,0,30.8z
		 M22.4,37.8c1.1,0.2,1.1,0.2,2.4,1c0.1,0,0.2,0.1,0.3,0.1c0.5-0.1,0.9-0.2,1.4-0.4c0.2-2.1,1-2.9,3.1-3.3c0.2-0.6,0.3-1.3,0.6-1.8
		c0.3-0.5,0.8-0.9,1.2-1.4c-1.2-0.9-2.5-1.9-3.7-2.9c-0.6-0.5-1.2-0.7-2-0.8c-0.6,0-1,0.2-1.3,0.7c-0.4,0.7-0.7,1.3-1.1,1.9
		c-0.4,0.7-1,0.9-1.7,0.8c-0.5-0.1-1.1-0.1-1.6-0.2c-1.3-0.2-1.9-1.2-1.6-2.5c0.3-1,0.6-2,0.8-3c0.3-1.1,0.9-1.9,1.9-2.4
		c0.7-0.3,1.3-0.7,2.1-1c-0.6-0.5-1.1-0.6-1.7-0.2C21,23,20.5,23.2,20,23.5c-0.6,0.4-1.3,0.5-2,0.5c-1.5,0-3,0-4.5,0
		c-0.4,0-0.6,0.1-0.8,0.5c-1.5,2.7-3,5.4-4.5,8C8.1,32.7,8.1,32.8,8,33c0.5,0.3,1.1,0.6,1.6,1c0.5,0.3,1.1,0.6,1.7,1
		c0.1-0.2,0.2-0.3,0.3-0.5c0.8-0.8,1.6-1.7,2.4-2.5c1.7-1.6,4.4-0.8,5,1.4c0.1,0.3,0.1,0.7,0.2,1C21.4,34.9,22.2,35.7,22.4,37.8z
		 M41.6,32.2c-1.5-2.6-2.9-5.2-4.3-7.8c-0.2,0.1-0.4,0.1-0.6,0.2c-1.1,0.5-2.2,0.6-3.4,0.1c-1.8-0.7-3.7-1.3-5.5-1.9
		c-0.3-0.1-0.8-0.1-1.1,0c-1.8,0.9-3.6,1.8-5.4,2.7c-0.3,0.1-0.5,0.4-0.6,0.7c-0.4,1.1-0.6,2.3-0.9,3.4c-0.1,0.3,0,0.4,0.3,0.5
		c0.5,0.1,0.9,0.1,1.4,0.2c0.3,0.1,0.4,0,0.6-0.3c0.4-0.7,0.7-1.3,1.1-1.9c0.5-0.8,1.3-1.2,2.2-1.3c1.2,0,2.2,0.2,3.2,1
		c2.7,2.3,5.9,4.2,8.3,6.9c0,0,0,0,0.1,0C38.5,34,40,33.1,41.6,32.2z M41.7,19.3c-1.4,0.8-2.8,1.7-4.2,2.5c2.2,3.9,4.3,7.7,6.4,11.5
		c1.4-0.8,2.8-1.7,4.1-2.5C46,26.9,43.9,23.1,41.7,19.3z M8.3,19.3C6.1,23.1,4,26.9,1.9,30.8c1.4,0.8,2.8,1.6,4.2,2.5
		c2.2-3.9,4.3-7.7,6.4-11.5C11.1,20.9,9.7,20.1,8.3,19.3z M16.8,42.1c0.2-0.1,0.5-0.2,0.8-0.4c1-1,2-2,2.9-3
		c0.6-0.6,0.5-1.6-0.1-2.1c-0.6-0.6-1.5-0.6-2,0c-1,1-2,2-2.9,3c-0.4,0.5-0.5,1.1-0.2,1.7C15.5,41.8,16,42.1,16.8,42.1z M33,33.6
		c-0.9,0-1.3,0.3-1.6,0.9c-0.3,0.6-0.2,1.2,0.3,1.7c0.9,1,1.8,1.9,2.8,2.9c0.6,0.6,1.6,0.6,2.1,0c0.6-0.6,0.6-1.6,0-2.2
		c-0.9-1-1.8-1.9-2.7-2.8C33.6,33.8,33.2,33.7,33,33.6z M33.9,41.3c-0.1-0.3-0.2-0.7-0.4-0.9c-1-1-1.9-2.1-3-3.1
		c-0.6-0.6-1.5-0.5-2,0.1c-0.5,0.6-0.6,1.5-0.1,2.1c1,1,1.9,2.1,3,3.1c0.5,0.4,1,0.5,1.6,0.2C33.5,42.4,33.8,42,33.9,41.3z
		 M13.3,38.8c0.3-0.1,0.7-0.2,0.9-0.4c1-1,2-2,3-3.1c0.5-0.6,0.4-1.5-0.1-2.1c-0.5-0.6-1.4-0.7-2-0.1c-1,1-2,2-3,3.1
		c-0.4,0.5-0.4,1.1-0.2,1.7C12.2,38.5,12.7,38.7,13.3,38.8z M22.5,39.4c-0.3,0.2-0.7,0.3-1,0.6c-0.9,0.9-1.9,1.9-2.8,2.8
		c-0.6,0.6-0.6,1.6,0,2.2c0.6,0.6,1.5,0.6,2.1,0.1c0.2-0.2,0.4-0.4,0.5-0.6c0.7-0.7,1.5-1.5,2.2-2.2c0.5-0.5,0.6-1.2,0.4-1.8
		C23.7,39.9,23.2,39.5,22.5,39.4z M25.6,41.7c1.7,0.7,2.2,1.6,2,3.4c0,0.1,0,0.2,0,0.3c0.4,0.5,0.9,0.9,1.6,0.8
		c0.6-0.1,1-0.4,1.2-0.9c0.3-0.6,0.1-1.2-0.3-1.7c-0.9-0.9-1.8-1.9-2.7-2.8c-0.3-0.3-0.8-0.4-1.2-0.5c-0.4-0.1-0.7,0.1-0.6,0.7
		C25.7,41.2,25.6,41.4,25.6,41.7z M26.2,44.5c-0.1-0.5-0.2-0.9-0.6-1.1c-0.4-0.2-0.8-0.1-1.2,0.2c-0.7,0.7-1.4,1.4-2.1,2.1
		c-0.5,0.5-0.5,1.1,0,1.5c0.4,0.4,1,0.4,1.5,0c0.7-0.7,1.4-1.4,2.1-2.1C26,44.9,26.1,44.6,26.2,44.5z M25.3,48.1
		c0.5,0.3,0.9,0.3,1.3-0.1c0.4-0.4,0.4-0.9,0-1.4C26.2,47.2,25.7,47.6,25.3,48.1z"/>
	<path d="M25,18.8c-5,0.1-9.1-4-9.2-9c-0.1-5,4-9.2,9-9.3c5.1-0.1,9.2,4,9.3,9.1C34.2,14.6,30.1,18.7,25,18.8z M32.6,9.6
		C32.6,5.4,29.2,2,25,2c-4.1,0-7.6,3.4-7.6,7.6c0,4.2,3.4,7.6,7.6,7.6C29.2,17.2,32.6,13.8,32.6,9.6z"/>
	<path d="M24,9.9c1.3-1,2.5-2,3.7-3c0.1-0.1,0.2-0.2,0.3-0.2c0.4-0.3,0.8-0.2,1.1,0.1c0.3,0.3,0.2,0.8-0.1,1.1
		c-0.6,0.5-1.3,1-1.9,1.6c-0.9,0.7-1.7,1.4-2.6,2.1c-0.6,0.5-1,0.4-1.4-0.2c-0.5-0.7-1-1.3-1.5-2c-0.4-0.5-0.3-1,0.1-1.2
		c0.4-0.3,0.8-0.2,1.2,0.3C23.2,8.9,23.6,9.4,24,9.9z"/>
</g>
</svg>
