<?xml version="1.0" encoding="utf-8"?>
<!-- Generator: Adobe Illustrator 26.4.1, SVG Export Plug-In . SVG Version: 6.00 Build 0)  -->
<svg version="1.1" id="a" xmlns="http://www.w3.org/2000/svg" xmlns:xlink="http://www.w3.org/1999/xlink" x="0px" y="0px"
	 viewBox="0 0 384 384" style="enable-background:new 0 0 384 384;" xml:space="preserve">
<path d="M0,337.5c0-97,0-194,0-291c0.2-0.9,0.6-1.9,0.7-2.8C4.1,26,13.7,13,29.8,5.3C35,2.8,40.9,1.7,46.5,0c97,0,194,0,291,0
	c0.7,0.2,1.4,0.5,2.1,0.6c21.8,4.1,35.9,16.8,42.5,37.9c0.8,2.6,1.3,5.3,1.9,8v291c-0.2,1-0.5,1.9-0.7,2.9
	c-4.3,21-16.6,35-37.1,41.5c-2.8,0.9-5.8,1.4-8.7,2.1h-291c-0.7-0.2-1.4-0.5-2.1-0.7c-21.8-4.1-35.9-16.8-42.5-37.9
	C1.1,342.8,0.6,340.1,0,337.5L0,337.5z M106.1,227.3c-2.4,7.2-5.1,15.4-7.8,23.8c0.8-0.1,1-0.1,1.2-0.2c5.7-3.1,11.7-5.7,17.1-9.3
	c6.8-4.5,13.3-5.6,21.3-3c8.1,2.7,16.8,2.9,25.8,2.6c-0.4-1.5-0.6-2.6-0.9-3.6c-3.7-13.5-3-26.8,2.9-39.5
	c12-25.9,33.5-38.7,60.9-42.8c6.3-0.9,12.8-0.8,19.4-1.2c-0.1-0.6-0.1-1.1-0.3-1.5c-6-23.6-20.9-40.3-42.5-50.4
	c-38-17.7-74.1-13.3-106.4,13.4c-28.6,23.6-32.8,62.3-10.5,91.2C91.8,214.1,99.1,220.2,106.1,227.3L106.1,227.3z M290.3,292.1
	c-1.5-4.7-2.6-8.5-3.8-12.2c-0.9-2.7-3-5.8-2.3-8.1c0.7-2.4,3.9-4.1,6.1-6c26.6-23.2,29-57.9,5.9-83c-29.8-32.3-87.6-31.4-116.3,1.9
	c-10.8,12.5-16.8,26.7-14.4,43.4c2.8,19.6,13.8,34,30.4,44.2c20.6,12.5,42.8,14.1,65.8,8.5c3.5-0.9,6.5-0.6,9.6,1.1
	C277.2,285.1,283.3,288.3,290.3,292.1L290.3,292.1z"/>
<path d="M117.3,140.7c0.1-7.1,5.4-12.6,12.2-12.4c6.5,0.1,12.2,5.9,12.2,12.3c0,6.9-5.8,12.6-12.8,12.4
	C122.6,152.8,117.3,147.2,117.3,140.7L117.3,140.7z"/>
<path d="M177.6,140.7c0-7.2,5.2-12.5,12.2-12.4c6.8,0.1,12.2,5.6,12.1,12.6c0,6.6-5.8,12.1-12.7,12.1
	C182.8,152.9,177.5,147.3,177.6,140.7L177.6,140.7z"/>
<path d="M206.5,201.2c0.3-5.5,4.6-9.9,9.8-9.8c5.2,0.1,10,5.2,9.8,10.4c-0.2,5.2-4.9,9.6-10.2,9.4
	C210.6,211.1,206.3,206.5,206.5,201.2L206.5,201.2z"/>
<path d="M274.3,201.7c0,5.1-4.3,9.4-9.6,9.6c-5.1,0.2-10.3-4.8-10.4-9.8c-0.1-4.7,5.4-10,10.4-9.9
	C269.6,191.6,274.3,196.5,274.3,201.7L274.3,201.7z"/>
</svg>
